<svg width="24" height="25" viewBox="0 0 24 25" fill="none" xmlns="http://www.w3.org/2000/svg">
<g clip-path="url(#clip0_4036_83183)">
<path d="M21 3.76953H3C2.20435 3.76953 1.44129 4.0856 0.87868 4.64821C0.31607 5.21082 0 5.97388 0 6.76953L0 18.7695C0 19.5652 0.31607 20.3282 0.87868 20.8909C1.44129 21.4535 2.20435 21.7695 3 21.7695H21C21.7956 21.7695 22.5587 21.4535 23.1213 20.8909C23.6839 20.3282 24 19.5652 24 18.7695V6.76953C24 5.97388 23.6839 5.21082 23.1213 4.64821C22.5587 4.0856 21.7956 3.76953 21 3.76953ZM22 18.7695C22 19.0347 21.8946 19.2891 21.7071 19.4766C21.5196 19.6642 21.2652 19.7695 21 19.7695H3C2.73478 19.7695 2.48043 19.6642 2.29289 19.4766C2.10536 19.2891 2 19.0347 2 18.7695V6.76953C2 6.50431 2.10536 6.24996 2.29289 6.06242C2.48043 5.87489 2.73478 5.76953 3 5.76953H21C21.2652 5.76953 21.5196 5.87489 21.7071 6.06242C21.8946 6.24996 22 6.50431 22 6.76953V18.7695Z" fill="white"/>
<path d="M5 9.76953H7C7.26522 9.76953 7.51957 9.66417 7.70711 9.47664C7.89464 9.2891 8 9.03475 8 8.76953C8 8.50431 7.89464 8.24996 7.70711 8.06242C7.51957 7.87489 7.26522 7.76953 7 7.76953H5C4.73478 7.76953 4.48043 7.87489 4.29289 8.06242C4.10536 8.24996 4 8.50431 4 8.76953C4 9.03475 4.10536 9.2891 4.29289 9.47664C4.48043 9.66417 4.73478 9.76953 5 9.76953Z" fill="white"/>
<path d="M11 9.76953H13C13.2652 9.76953 13.5196 9.66417 13.7071 9.47664C13.8946 9.2891 14 9.03475 14 8.76953C14 8.50431 13.8946 8.24996 13.7071 8.06242C13.5196 7.87489 13.2652 7.76953 13 7.76953H11C10.7348 7.76953 10.4804 7.87489 10.2929 8.06242C10.1054 8.24996 10 8.50431 10 8.76953C10 9.03475 10.1054 9.2891 10.2929 9.47664C10.4804 9.66417 10.7348 9.76953 11 9.76953Z" fill="white"/>
<path d="M19 7.76953H17C16.7348 7.76953 16.4804 7.87489 16.2929 8.06242C16.1054 8.24996 16 8.50431 16 8.76953C16 9.03475 16.1054 9.2891 16.2929 9.47664C16.4804 9.66417 16.7348 9.76953 17 9.76953H19C19.2652 9.76953 19.5196 9.66417 19.7071 9.47664C19.8946 9.2891 20 9.03475 20 8.76953C20 8.50431 19.8946 8.24996 19.7071 8.06242C19.5196 7.87489 19.2652 7.76953 19 7.76953Z" fill="white"/>
<path d="M8 12.7695C8 12.5043 7.89464 12.25 7.70711 12.0624C7.51957 11.8749 7.26522 11.7695 7 11.7695H5C4.73478 11.7695 4.48043 11.8749 4.29289 12.0624C4.10536 12.25 4 12.5043 4 12.7695C4 13.0347 4.10536 13.2891 4.29289 13.4766C4.48043 13.6642 4.73478 13.7695 5 13.7695H7C7.26522 13.7695 7.51957 13.6642 7.70711 13.4766C7.89464 13.2891 8 13.0347 8 12.7695Z" fill="white"/>
<path d="M11 13.7695H13C13.2652 13.7695 13.5196 13.6642 13.7071 13.4766C13.8946 13.2891 14 13.0347 14 12.7695C14 12.5043 13.8946 12.25 13.7071 12.0624C13.5196 11.8749 13.2652 11.7695 13 11.7695H11C10.7348 11.7695 10.4804 11.8749 10.2929 12.0624C10.1054 12.25 10 12.5043 10 12.7695C10 13.0347 10.1054 13.2891 10.2929 13.4766C10.4804 13.6642 10.7348 13.7695 11 13.7695Z" fill="white"/>
<path d="M19 11.7695H17C16.7348 11.7695 16.4804 11.8749 16.2929 12.0624C16.1054 12.25 16 12.5043 16 12.7695C16 13.0347 16.1054 13.2891 16.2929 13.4766C16.4804 13.6642 16.7348 13.7695 17 13.7695H19C19.2652 13.7695 19.5196 13.6642 19.7071 13.4766C19.8946 13.2891 20 13.0347 20 12.7695C20 12.5043 19.8946 12.25 19.7071 12.0624C19.5196 11.8749 19.2652 11.7695 19 11.7695Z" fill="white"/>
<path d="M17 15.7695H7C6.73478 15.7695 6.48043 15.8749 6.29289 16.0624C6.10536 16.25 6 16.5043 6 16.7695C6 17.0347 6.10536 17.2891 6.29289 17.4766C6.48043 17.6642 6.73478 17.7695 7 17.7695H17C17.2652 17.7695 17.5196 17.6642 17.7071 17.4766C17.8946 17.2891 18 17.0347 18 16.7695C18 16.5043 17.8946 16.25 17.7071 16.0624C17.5196 15.8749 17.2652 15.7695 17 15.7695Z" fill="white"/>
</g>
<defs>
<clipPath id="clip0_4036_83183">
<rect width="24" height="24" fill="white" transform="translate(0 0.769531)"/>
</clipPath>
</defs>
</svg>
