<svg width="24" height="19" viewBox="0 0 24 19" fill="none" xmlns="http://www.w3.org/2000/svg">
<path d="M21 0.769531H3C2.20435 0.769531 1.44129 1.0856 0.87868 1.64821C0.31607 2.21082 0 2.97388 0 3.76953L0 15.7695C0 16.5652 0.31607 17.3282 0.87868 17.8909C1.44129 18.4535 2.20435 18.7695 3 18.7695H21C21.7956 18.7695 22.5587 18.4535 23.1213 17.8909C23.6839 17.3282 24 16.5652 24 15.7695V3.76953C24 2.97388 23.6839 2.21082 23.1213 1.64821C22.5587 1.0856 21.7956 0.769531 21 0.769531ZM22 15.7695C22 16.0347 21.8946 16.2891 21.7071 16.4766C21.5196 16.6642 21.2652 16.7695 21 16.7695H3C2.73478 16.7695 2.48043 16.6642 2.29289 16.4766C2.10536 16.2891 2 16.0347 2 15.7695V3.76953C2 3.50431 2.10536 3.24996 2.29289 3.06242C2.48043 2.87489 2.73478 2.76953 3 2.76953H21C21.2652 2.76953 21.5196 2.87489 21.7071 3.06242C21.8946 3.24996 22 3.50431 22 3.76953V15.7695Z" fill="#232426"/>
<path d="M5 6.76953H7C7.26522 6.76953 7.51957 6.66417 7.70711 6.47664C7.89464 6.2891 8 6.03475 8 5.76953C8 5.50431 7.89464 5.24996 7.70711 5.06242C7.51957 4.87489 7.26522 4.76953 7 4.76953H5C4.73478 4.76953 4.48043 4.87489 4.29289 5.06242C4.10536 5.24996 4 5.50431 4 5.76953C4 6.03475 4.10536 6.2891 4.29289 6.47664C4.48043 6.66417 4.73478 6.76953 5 6.76953Z" fill="#232426"/>
<path d="M11 6.76953H13C13.2652 6.76953 13.5196 6.66417 13.7071 6.47664C13.8946 6.2891 14 6.03475 14 5.76953C14 5.50431 13.8946 5.24996 13.7071 5.06242C13.5196 4.87489 13.2652 4.76953 13 4.76953H11C10.7348 4.76953 10.4804 4.87489 10.2929 5.06242C10.1054 5.24996 10 5.50431 10 5.76953C10 6.03475 10.1054 6.2891 10.2929 6.47664C10.4804 6.66417 10.7348 6.76953 11 6.76953Z" fill="#232426"/>
<path d="M19 4.76953H17C16.7348 4.76953 16.4804 4.87489 16.2929 5.06242C16.1054 5.24996 16 5.50431 16 5.76953C16 6.03475 16.1054 6.2891 16.2929 6.47664C16.4804 6.66417 16.7348 6.76953 17 6.76953H19C19.2652 6.76953 19.5196 6.66417 19.7071 6.47664C19.8946 6.2891 20 6.03475 20 5.76953C20 5.50431 19.8946 5.24996 19.7071 5.06242C19.5196 4.87489 19.2652 4.76953 19 4.76953Z" fill="#232426"/>
<path d="M8 9.76953C8 9.50431 7.89464 9.24996 7.70711 9.06242C7.51957 8.87489 7.26522 8.76953 7 8.76953H5C4.73478 8.76953 4.48043 8.87489 4.29289 9.06242C4.10536 9.24996 4 9.50431 4 9.76953C4 10.0347 4.10536 10.2891 4.29289 10.4766C4.48043 10.6642 4.73478 10.7695 5 10.7695H7C7.26522 10.7695 7.51957 10.6642 7.70711 10.4766C7.89464 10.2891 8 10.0347 8 9.76953Z" fill="#232426"/>
<path d="M11 10.7695H13C13.2652 10.7695 13.5196 10.6642 13.7071 10.4766C13.8946 10.2891 14 10.0347 14 9.76953C14 9.50431 13.8946 9.24996 13.7071 9.06242C13.5196 8.87489 13.2652 8.76953 13 8.76953H11C10.7348 8.76953 10.4804 8.87489 10.2929 9.06242C10.1054 9.24996 10 9.50431 10 9.76953C10 10.0347 10.1054 10.2891 10.2929 10.4766C10.4804 10.6642 10.7348 10.7695 11 10.7695Z" fill="#232426"/>
<path d="M19 8.76953H17C16.7348 8.76953 16.4804 8.87489 16.2929 9.06242C16.1054 9.24996 16 9.50431 16 9.76953C16 10.0347 16.1054 10.2891 16.2929 10.4766C16.4804 10.6642 16.7348 10.7695 17 10.7695H19C19.2652 10.7695 19.5196 10.6642 19.7071 10.4766C19.8946 10.2891 20 10.0347 20 9.76953C20 9.50431 19.8946 9.24996 19.7071 9.06242C19.5196 8.87489 19.2652 8.76953 19 8.76953Z" fill="#232426"/>
<path d="M17 12.7695H7C6.73478 12.7695 6.48043 12.8749 6.29289 13.0624C6.10536 13.25 6 13.5043 6 13.7695C6 14.0347 6.10536 14.2891 6.29289 14.4766C6.48043 14.6642 6.73478 14.7695 7 14.7695H17C17.2652 14.7695 17.5196 14.6642 17.7071 14.4766C17.8946 14.2891 18 14.0347 18 13.7695C18 13.5043 17.8946 13.25 17.7071 13.0624C17.5196 12.8749 17.2652 12.7695 17 12.7695Z" fill="#232426"/>
</svg>
