<svg width="22" height="17" viewBox="0 0 22 17" fill="none" xmlns="http://www.w3.org/2000/svg">
<path fill-rule="evenodd" clip-rule="evenodd" d="M21.2263 9.12806C21.6817 8.72964 21.6817 8.02131 21.2263 7.6229L13.5865 0.93809C12.94 0.37233 11.928 0.831507 11.928 1.69067V4.56599H1.5C0.947715 4.56599 0.5 5.0137 0.5 5.56599V11.1848C0.5 11.7371 0.947716 12.1848 1.5 12.1848H11.928V15.0603C11.928 15.9194 12.94 16.3786 13.5865 15.8129L21.2263 9.12806Z" fill="#707173"/>
<path fill-rule="evenodd" clip-rule="evenodd" d="M21.2263 9.12806C21.6817 8.72964 21.6817 8.02131 21.2263 7.6229L13.5865 0.93809C12.94 0.37233 11.928 0.831507 11.928 1.69067V4.56599H1.5C0.947715 4.56599 0.5 5.0137 0.5 5.56599V11.1848C0.5 11.7371 0.947716 12.1848 1.5 12.1848H11.928V15.0603C11.928 15.9194 12.94 16.3786 13.5865 15.8129L21.2263 9.12806Z" fill="#707173"/>
<path fill-rule="evenodd" clip-rule="evenodd" d="M21.2263 9.12806C21.6817 8.72964 21.6817 8.02131 21.2263 7.6229L13.5865 0.93809C12.94 0.37233 11.928 0.831507 11.928 1.69067V4.56599H1.5C0.947715 4.56599 0.5 5.0137 0.5 5.56599V11.1848C0.5 11.7371 0.947716 12.1848 1.5 12.1848H11.928V15.0603C11.928 15.9194 12.94 16.3786 13.5865 15.8129L21.2263 9.12806Z" fill="#707173"/>
<path fill-rule="evenodd" clip-rule="evenodd" d="M21.2263 9.12806C21.6817 8.72964 21.6817 8.02131 21.2263 7.6229L13.5865 0.93809C12.94 0.37233 11.928 0.831507 11.928 1.69067V4.56599H1.5C0.947715 4.56599 0.5 5.0137 0.5 5.56599V11.1848C0.5 11.7371 0.947716 12.1848 1.5 12.1848H11.928V15.0603C11.928 15.9194 12.94 16.3786 13.5865 15.8129L21.2263 9.12806Z" fill="#707173"/>
</svg>
