<svg width="449" height="250" viewBox="0 0 449 250" fill="none" xmlns="http://www.w3.org/2000/svg">
<g filter="url(#filter0_d_52_379)">
<path d="M112.36 110.34V117.24H122.86V110.34H130.78V136.08H104.5V110.34H112.36ZM109.9 150.72C109.9 147.48 111.56 144.94 114.88 143.1C118.2 141.22 122.7 140.28 128.38 140.28C134.1 140.28 138.62 141.22 141.94 143.1C145.26 144.94 146.92 147.48 146.92 150.72C146.92 154 145.26 156.56 141.94 158.4C138.62 160.24 134.1 161.16 128.38 161.16C122.66 161.16 118.14 160.24 114.82 158.4C111.54 156.56 109.9 154 109.9 150.72ZM122.86 129.9V123.36H112.36V129.9H122.86ZM117.88 150.72C117.88 153.64 121.38 155.1 128.38 155.1C135.42 155.1 138.94 153.64 138.94 150.72C138.94 147.8 135.42 146.34 128.38 146.34C121.38 146.34 117.88 147.8 117.88 150.72ZM138.7 107.16H146.68V139.32H138.7V107.16ZM198.521 111.6V116.76C198.521 121.4 198.401 125.6 198.161 129.36C197.921 133.12 197.341 137.56 196.421 142.68L188.381 141.84C189.261 137.36 189.821 133.3 190.061 129.66C190.341 125.98 190.481 122.1 190.481 118.02H159.221V111.6H198.521ZM154.241 148.2H171.401V129.72H179.381V148.2H203.081V154.68H154.241V148.2ZM267.011 107.1V161.1H259.391V107.1H267.011ZM219.671 144.36C224.951 141.2 228.871 137.66 231.431 133.74C233.991 129.82 235.531 125.18 236.051 119.82H222.731V113.4H243.971C243.971 118.88 243.391 123.64 242.231 127.68H247.991V108.24H255.491V158.7H247.991V134.04H239.831C236.751 140.36 231.551 145.66 224.231 149.94L219.671 144.36ZM317.772 107.16V137.64H309.792V107.16H317.772ZM273.672 122.52C273.672 120.04 274.312 117.82 275.592 115.86C276.872 113.86 278.632 112.32 280.872 111.24C283.112 110.12 285.612 109.56 288.372 109.56C291.132 109.56 293.632 110.12 295.872 111.24C298.152 112.32 299.932 113.86 301.212 115.86C302.492 117.82 303.132 120.04 303.132 122.52C303.132 125 302.492 127.24 301.212 129.24C299.932 131.2 298.152 132.74 295.872 133.86C293.632 134.98 291.132 135.54 288.372 135.54C285.612 135.54 283.112 134.98 280.872 133.86C278.632 132.74 276.872 131.2 275.592 129.24C274.312 127.24 273.672 125 273.672 122.52ZM281.472 122.52C281.472 124.52 282.112 126.08 283.392 127.2C284.672 128.32 286.332 128.88 288.372 128.88C290.412 128.88 292.072 128.32 293.352 127.2C294.672 126.08 295.332 124.52 295.332 122.52C295.332 120.56 294.672 119.02 293.352 117.9C292.072 116.74 290.412 116.16 288.372 116.16C286.332 116.16 284.672 116.74 283.392 117.9C282.112 119.02 281.472 120.56 281.472 122.52ZM281.772 140.04H317.772V160.56H281.772V140.04ZM309.972 154.26V146.28H289.632V154.26H309.972Z" fill="#70522E"/>
</g>
<path d="M411.57 28.7404L409.769 48.5584C409.603 50.3996 410.644 52.1447 412.352 52.8797L430.722 60.7867C434.54 62.43 434.037 67.9716 429.988 68.8729L410.503 73.2148C408.692 73.6192 407.353 75.1386 407.186 76.9816L405.385 96.7996C405.01 100.919 399.562 102.132 397.434 98.5718L387.193 81.4357C386.242 79.8425 384.372 79.0375 382.561 79.4419L363.076 83.7838C359.027 84.6851 356.164 79.8944 358.898 76.7907L372.053 61.8599C373.276 60.4733 373.46 58.4546 372.509 56.8614L362.266 39.7264C360.137 36.1662 363.816 31.9914 367.634 33.6348L386.005 41.5417C387.712 42.2768 389.695 41.8352 390.918 40.4467L404.074 25.5159C406.808 22.4122 411.944 24.6229 411.57 28.7422L411.57 28.7404Z" fill="#EDE4C5"/>
<path d="M406.978 22.4298L405.177 42.2479C405.01 44.089 406.051 45.8341 407.759 46.5692L426.129 54.4761C429.947 56.1195 429.444 61.6611 425.395 62.5624L405.911 66.9043C404.1 67.3087 402.761 68.8281 402.593 70.671L400.792 90.4891C400.418 94.6084 394.97 95.8215 392.841 92.2612L382.601 75.1252C381.65 73.532 379.779 72.727 377.968 73.1314L358.484 77.4733C354.435 78.3746 351.571 73.5839 354.305 70.4802L367.461 55.5494C368.683 54.1628 368.867 52.1441 367.916 50.5509L357.673 33.4159C355.544 29.8556 359.223 25.6809 363.041 27.3242L381.412 35.2312C383.12 35.9662 385.102 35.5246 386.325 34.1362L399.481 19.2053C402.215 16.1016 407.351 18.3124 406.977 22.4317L406.978 22.4298Z" fill="#FFC333"/>
<path d="M19.0817 212.648L21.3574 220.872C21.5685 221.636 21.2627 222.452 20.5985 222.892L13.453 227.633C11.9678 228.619 12.604 230.918 14.3812 230.989L22.9337 231.33C23.7287 231.362 24.4098 231.901 24.6214 232.665L26.8971 240.889C27.3702 242.598 29.7615 242.693 30.3872 241.028L33.3967 233.015C33.6761 232.27 34.4036 231.788 35.1986 231.82L43.7511 232.161C45.5283 232.232 46.3701 229.992 44.9791 228.891L38.2869 223.598C37.665 223.107 37.433 222.269 37.7124 221.524L40.7231 213.512C41.3488 211.847 39.4774 210.367 37.9923 211.352L30.8468 216.094C30.1825 216.534 29.3124 216.5 28.6901 216.007L21.9978 210.715C20.6069 209.614 18.609 210.94 19.0822 212.649L19.0817 212.648Z" fill="#EDE4C5"/>
<path d="M15.7477 211.682L18.0234 219.905C18.2345 220.669 17.9288 221.485 17.2645 221.925L10.119 226.666C8.63385 227.652 9.27004 229.951 11.0472 230.022L19.5998 230.363C20.3947 230.395 21.0758 230.934 21.2874 231.699L23.5631 239.922C24.0362 241.631 26.4275 241.726 27.0532 240.061L30.0628 232.049C30.3422 231.304 31.0696 230.821 31.8646 230.853L40.4171 231.194C42.1943 231.265 43.0361 229.025 41.6452 227.925L34.9529 222.632C34.331 222.14 34.099 221.303 34.3784 220.558L37.3891 212.545C38.0148 210.88 36.1435 209.4 34.6583 210.386L27.5128 215.127C26.8485 215.567 25.9785 215.533 25.3561 215.041L18.6638 209.748C17.2729 208.647 15.275 209.973 15.7482 211.682L15.7477 211.682Z" fill="#FFC333"/>
<path d="M56.9611 75.6176L59.2337 79.7635C59.4449 80.1485 59.8816 80.3545 60.3157 80.273L64.9857 79.3962C65.9563 79.214 66.5918 80.3732 65.9131 81.0877L62.6474 84.5271C62.344 84.8469 62.2815 85.324 62.4929 85.7095L64.7654 89.8553C65.2377 90.7171 64.3245 91.6786 63.4328 91.2589L59.1419 89.2383C58.7432 89.0503 58.2678 89.1396 57.9644 89.4594L54.6987 92.8988C54.0199 93.6133 52.8202 93.0486 52.9477 92.0742L53.5616 87.3864C53.6189 86.9509 53.3875 86.5286 52.9887 86.3406L48.6975 84.3205C47.8058 83.9008 47.9776 82.5901 48.9482 82.4078L53.6182 81.531C54.0524 81.4495 54.3846 81.0996 54.4417 80.6637L55.0557 75.9759C55.1832 75.0015 56.4889 74.7563 56.9612 75.6181L56.9611 75.6176Z" fill="#EDE4C5"/>
<path d="M55.5432 74.0551L57.8157 78.201C58.027 78.586 58.4636 78.792 58.8977 78.7105L63.5677 77.8337C64.5384 77.6515 65.1739 78.8107 64.4951 79.5252L61.2295 82.9646C60.9261 83.2844 60.8635 83.7615 61.0749 84.147L63.3474 88.2928C63.8197 89.1546 62.9065 90.1161 62.0148 89.6964L57.724 87.6758C57.3252 87.4878 56.8498 87.5771 56.5464 87.8969L53.2807 91.3363C52.602 92.0508 51.4022 91.4861 51.5297 90.5117L52.1437 85.8239C52.2009 85.3884 51.9695 84.9661 51.5708 84.7781L47.2796 82.758C46.3879 82.3383 46.5596 81.0276 47.5302 80.8453L52.2002 79.9685C52.6344 79.887 52.9666 79.5371 53.0238 79.1012L53.6377 74.4134C53.7653 73.439 55.071 73.1938 55.5433 74.0556L55.5432 74.0551Z" fill="#FFC333"/>
<defs>
<filter id="filter0_d_52_379" x="104.5" y="107.1" width="217.272" height="58.0598" filterUnits="userSpaceOnUse" color-interpolation-filters="sRGB">
<feFlood flood-opacity="0" result="BackgroundImageFix"/>
<feColorMatrix in="SourceAlpha" type="matrix" values="0 0 0 0 0 0 0 0 0 0 0 0 0 0 0 0 0 0 127 0" result="hardAlpha"/>
<feOffset dx="4" dy="4"/>
<feComposite in2="hardAlpha" operator="out"/>
<feColorMatrix type="matrix" values="0 0 0 0 0.88 0 0 0 0 0.865 0 0 0 0 0.82 0 0 0 1 0"/>
<feBlend mode="normal" in2="BackgroundImageFix" result="effect1_dropShadow_52_379"/>
<feBlend mode="normal" in="SourceGraphic" in2="effect1_dropShadow_52_379" result="shape"/>
</filter>
</defs>
</svg>
