<svg width="21" height="21" viewBox="0 0 21 21" fill="none" xmlns="http://www.w3.org/2000/svg">
<path d="M14.4688 3.39075C15.7256 4.11646 16.7712 5.15785 17.5019 6.41183C18.2327 7.66581 18.6232 9.08889 18.6349 10.5402C18.6467 11.9915 18.2791 13.4207 17.5688 14.6863C16.8584 15.9519 15.8298 17.0101 14.5848 17.756C13.3398 18.5019 11.9216 18.9098 10.4705 18.9391C9.01944 18.9685 7.58588 18.6184 6.31171 17.9235C5.03755 17.2285 3.96698 16.2129 3.20597 14.977C2.44497 13.7412 2.01992 12.328 1.97292 10.8774L1.96875 10.6074L1.97292 10.3374C2.01959 8.89824 2.43837 7.49572 3.18845 6.26657C3.93853 5.03743 4.99429 4.02362 6.25283 3.32398C7.51136 2.62434 8.92971 2.26274 10.3696 2.27445C11.8095 2.28615 13.2218 2.67075 14.4688 3.39075ZM9.06125 8.22408C8.88665 8.12015 8.68009 8.08358 8.48042 8.12127C8.28076 8.15896 8.10174 8.2683 7.97704 8.42873C7.85234 8.58916 7.79056 8.78962 7.8033 8.99242C7.81605 9.19521 7.90245 9.38636 8.04625 9.52991L9.12292 10.6074L8.04625 11.6849L7.97708 11.7632C7.84757 11.9307 7.78667 12.1412 7.80675 12.352C7.82683 12.5628 7.92638 12.758 8.08519 12.898C8.24399 13.0381 8.45014 13.1124 8.66176 13.1059C8.87339 13.0995 9.07462 13.0127 9.22458 12.8632L10.3021 11.7866L11.3796 12.8632L11.4579 12.9324C11.6254 13.0619 11.8359 13.1228 12.0467 13.1027C12.2575 13.0827 12.4527 12.9831 12.5927 12.8243C12.7327 12.6655 12.8071 12.4594 12.8006 12.2477C12.7941 12.0361 12.7074 11.8349 12.5579 11.6849L11.4813 10.6074L12.5579 9.52991L12.6271 9.45158C12.7566 9.28409 12.8175 9.07358 12.7974 8.86281C12.7773 8.65204 12.6778 8.45682 12.519 8.31679C12.3602 8.17676 12.154 8.10243 11.9424 8.10889C11.7308 8.11535 11.5295 8.20212 11.3796 8.35158L10.3021 9.42825L9.22458 8.35158L9.14625 8.28241L9.06125 8.22408Z" fill="white"/>
</svg>
