<svg width="518" height="77" viewBox="0 0 518 77" fill="none" xmlns="http://www.w3.org/2000/svg">
<g opacity="0.7">
<g clip-path="url(#clip0_4685_28948)">
<rect width="517.2" height="76.8" rx="4.8" fill="white"/>
<rect x="10.3984" y="51.2" width="0.8" height="25.6" fill="#232426"/>
<path d="M12.9547 45.0188L12.9547 46.0595C12.9547 46.6188 12.9047 47.0907 12.8047 47.4751C12.7047 47.8595 12.5609 48.1688 12.3734 48.4032C12.1859 48.6376 11.9594 48.8079 11.6938 48.9142C11.4312 49.0173 11.1344 49.0688 10.8031 49.0688C10.5406 49.0688 10.2984 49.036 10.0766 48.9704C9.85469 48.9048 9.65469 48.8001 9.47656 48.6563C9.30156 48.5095 9.15156 48.3188 9.02656 48.0845C8.90156 47.8501 8.80625 47.5657 8.74062 47.2313C8.675 46.897 8.64219 46.5063 8.64219 46.0595L8.64219 45.0188C8.64219 44.4595 8.69219 43.9907 8.79219 43.6126C8.89531 43.2345 9.04062 42.9313 9.22812 42.7032C9.41562 42.472 9.64062 42.3063 9.90312 42.2063C10.1687 42.1063 10.4656 42.0563 10.7937 42.0563C11.0594 42.0563 11.3031 42.0892 11.525 42.1548C11.75 42.2173 11.95 42.3188 12.125 42.4595C12.3 42.597 12.4484 42.7813 12.5703 43.0126C12.6953 43.2407 12.7906 43.5204 12.8563 43.8517C12.9219 44.1829 12.9547 44.572 12.9547 45.0188ZM12.0828 46.2001L12.0828 44.8735C12.0828 44.5673 12.0641 44.2985 12.0266 44.0673C11.9922 43.8329 11.9406 43.6329 11.8719 43.4673C11.8031 43.3017 11.7156 43.1673 11.6094 43.0642C11.5062 42.961 11.3859 42.886 11.2484 42.8392C11.1141 42.7892 10.9625 42.7642 10.7937 42.7642C10.5875 42.7642 10.4047 42.8032 10.2453 42.8813C10.0859 42.9563 9.95156 43.0767 9.84219 43.2423C9.73594 43.4079 9.65469 43.6251 9.59844 43.8938C9.54219 44.1626 9.51406 44.4892 9.51406 44.8735L9.51406 46.2001C9.51406 46.5063 9.53125 46.7767 9.56562 47.011C9.60312 47.2454 9.65781 47.4485 9.72969 47.6204C9.80156 47.7892 9.88906 47.9282 9.99219 48.0376C10.0953 48.147 10.2141 48.2282 10.3484 48.2813C10.4859 48.3313 10.6375 48.3563 10.8031 48.3563C11.0156 48.3563 11.2016 48.3157 11.3609 48.2345C11.5203 48.1532 11.6531 48.0267 11.7594 47.8548C11.8688 47.6798 11.95 47.4563 12.0031 47.1845C12.0563 46.9095 12.0828 46.5813 12.0828 46.2001Z" fill="#232426"/>
<rect x="43.6016" y="51.2" width="0.8" height="25.6" fill="#232426"/>
<rect x="26.7109" y="58.3999" width="0.8" height="18.4" fill="#232426"/>
<rect x="30.0938" y="62.3999" width="0.8" height="14.4" fill="#232426"/>
<rect x="13.2031" y="62.3999" width="0.8" height="14.4" fill="#232426"/>
<rect x="33.4688" y="62.3999" width="0.8" height="14.4" fill="#232426"/>
<rect x="16.5781" y="62.3999" width="0.8" height="14.4" fill="#232426"/>
<rect x="36.8438" y="62.3999" width="0.8" height="14.4" fill="#232426"/>
<rect x="19.9609" y="62.3999" width="0.8" height="14.4" fill="#232426"/>
<rect x="40.2266" y="62.3999" width="0.8" height="14.4" fill="#232426"/>
<rect x="23.3359" y="62.3999" width="0.8" height="14.4" fill="#232426"/>
<path d="M44.7234 42.1126L44.7234 48.9751L43.8562 48.9751L43.8562 43.1954L42.1078 43.8329L42.1078 43.0501L44.5875 42.1126L44.7234 42.1126Z" fill="#232426"/>
<rect x="76.7969" y="51.2" width="0.8" height="25.6" fill="#232426"/>
<rect x="59.9062" y="58.3999" width="0.8" height="18.4" fill="#232426"/>
<rect x="63.2891" y="62.3999" width="0.8" height="14.4" fill="#232426"/>
<rect x="46.3984" y="62.3999" width="0.8" height="14.4" fill="#232426"/>
<rect x="66.6641" y="62.3999" width="0.8" height="14.4" fill="#232426"/>
<rect x="49.7734" y="62.3999" width="0.8" height="14.4" fill="#232426"/>
<rect x="70.0391" y="62.3999" width="0.8" height="14.4" fill="#232426"/>
<rect x="53.1562" y="62.3999" width="0.8" height="14.4" fill="#232426"/>
<rect x="73.4219" y="62.3999" width="0.8" height="14.4" fill="#232426"/>
<rect x="56.5312" y="62.3999" width="0.8" height="14.4" fill="#232426"/>
<path d="M79.5406 48.2626L79.5406 48.9751L75.0734 48.9751L75.0734 48.3517L77.3094 45.8626C77.5844 45.5563 77.7969 45.297 77.9469 45.0845C78.1 44.8688 78.2063 44.6767 78.2656 44.5079C78.3281 44.336 78.3594 44.161 78.3594 43.9829C78.3594 43.7579 78.3125 43.5548 78.2188 43.3735C78.1281 43.1892 77.9937 43.0423 77.8156 42.9329C77.6375 42.8235 77.4219 42.7688 77.1687 42.7688C76.8656 42.7688 76.6125 42.8282 76.4094 42.947C76.2094 43.0626 76.0594 43.2251 75.9594 43.4345C75.8594 43.6438 75.8094 43.8845 75.8094 44.1563L74.9422 44.1563C74.9422 43.772 75.0266 43.4204 75.1953 43.1017C75.3641 42.7829 75.6141 42.5298 75.9453 42.3423C76.2766 42.1517 76.6844 42.0563 77.1687 42.0563C77.6 42.0563 77.9687 42.1329 78.275 42.286C78.5813 42.436 78.8156 42.6485 78.9781 42.9235C79.1438 43.1954 79.2266 43.5142 79.2266 43.8798C79.2266 44.0798 79.1922 44.2829 79.1234 44.4892C79.0578 44.6923 78.9656 44.8954 78.8469 45.0985C78.7313 45.3017 78.5953 45.5017 78.4391 45.6985C78.2859 45.8954 78.1219 46.0892 77.9469 46.2798L76.1187 48.2626L79.5406 48.2626Z" fill="#232426"/>
<rect x="110" y="51.2" width="0.8" height="25.6" fill="#232426"/>
<rect x="93.1094" y="58.3999" width="0.8" height="18.4" fill="#232426"/>
<rect x="96.4922" y="62.3999" width="0.8" height="14.4" fill="#232426"/>
<rect x="79.6016" y="62.3999" width="0.8" height="14.4" fill="#232426"/>
<rect x="99.8672" y="62.3999" width="0.8" height="14.4" fill="#232426"/>
<rect x="82.9766" y="62.3999" width="0.8" height="14.4" fill="#232426"/>
<rect x="103.242" y="62.3999" width="0.8" height="14.4" fill="#232426"/>
<rect x="86.3594" y="62.3999" width="0.8" height="14.4" fill="#232426"/>
<rect x="106.625" y="62.3999" width="0.8" height="14.4" fill="#232426"/>
<rect x="89.7344" y="62.3999" width="0.8" height="14.4" fill="#232426"/>
<path d="M109.537 45.136L110.156 45.136C110.459 45.136 110.709 45.086 110.906 44.986C111.106 44.8829 111.255 44.7438 111.352 44.5688C111.452 44.3907 111.502 44.1907 111.502 43.9688C111.502 43.7063 111.458 43.486 111.37 43.3079C111.283 43.1298 111.152 42.9954 110.977 42.9048C110.802 42.8142 110.58 42.7688 110.311 42.7688C110.067 42.7688 109.852 42.8173 109.664 42.9142C109.48 43.0079 109.334 43.1423 109.228 43.3173C109.125 43.4923 109.073 43.6985 109.073 43.936L108.206 43.936C108.206 43.5892 108.294 43.2735 108.469 42.9892C108.644 42.7048 108.889 42.4782 109.205 42.3095C109.523 42.1407 109.892 42.0563 110.311 42.0563C110.723 42.0563 111.084 42.1298 111.394 42.2767C111.703 42.4204 111.944 42.636 112.116 42.9235C112.288 43.2079 112.373 43.5626 112.373 43.9876C112.373 44.1595 112.333 44.3438 112.252 44.5407C112.173 44.7345 112.05 44.9157 111.881 45.0845C111.716 45.2532 111.5 45.3923 111.234 45.5017C110.969 45.6079 110.65 45.661 110.278 45.661L109.537 45.661L109.537 45.136ZM109.537 45.8485L109.537 45.3282L110.278 45.3282C110.712 45.3282 111.072 45.3798 111.356 45.4829C111.641 45.586 111.864 45.7235 112.027 45.8954C112.192 46.0673 112.308 46.2563 112.373 46.4626C112.442 46.6657 112.477 46.8688 112.477 47.072C112.477 47.3907 112.422 47.6735 112.313 47.9204C112.206 48.1673 112.055 48.3767 111.858 48.5485C111.664 48.7204 111.436 48.8501 111.173 48.9376C110.911 49.0251 110.625 49.0688 110.316 49.0688C110.019 49.0688 109.739 49.0267 109.477 48.9423C109.217 48.8579 108.987 48.736 108.787 48.5767C108.587 48.4142 108.431 48.2157 108.319 47.9813C108.206 47.7438 108.15 47.4735 108.15 47.1704L109.017 47.1704C109.017 47.4079 109.069 47.6157 109.172 47.7938C109.278 47.972 109.428 48.111 109.622 48.211C109.819 48.3079 110.05 48.3563 110.316 48.3563C110.581 48.3563 110.809 48.311 111 48.2204C111.194 48.1267 111.342 47.986 111.445 47.7985C111.552 47.611 111.605 47.3751 111.605 47.0907C111.605 46.8063 111.545 46.5735 111.427 46.3923C111.308 46.2079 111.139 46.072 110.92 45.9845C110.705 45.8938 110.45 45.8485 110.156 45.8485L109.537 45.8485Z" fill="#232426"/>
<rect x="143.195" y="51.2" width="0.8" height="25.6" fill="#232426"/>
<rect x="126.305" y="58.3999" width="0.8" height="18.4" fill="#232426"/>
<rect x="129.688" y="62.3999" width="0.8" height="14.4" fill="#232426"/>
<rect x="112.797" y="62.3999" width="0.8" height="14.4" fill="#232426"/>
<rect x="133.062" y="62.3999" width="0.8" height="14.4" fill="#232426"/>
<rect x="116.172" y="62.3999" width="0.8" height="14.4" fill="#232426"/>
<rect x="136.438" y="62.3999" width="0.8" height="14.4" fill="#232426"/>
<rect x="119.555" y="62.3999" width="0.8" height="14.4" fill="#232426"/>
<rect x="139.82" y="62.3999" width="0.8" height="14.4" fill="#232426"/>
<rect x="122.93" y="62.3999" width="0.8" height="14.4" fill="#232426"/>
<path d="M146.08 46.6782L146.08 47.3907L141.148 47.3907L141.148 46.8798L144.205 42.1501L144.913 42.1501L144.153 43.5188L142.133 46.6782L146.08 46.6782ZM145.128 42.1501L145.128 48.9751L144.261 48.9751L144.261 42.1501L145.128 42.1501Z" fill="#232426"/>
<rect x="176.398" y="51.2" width="0.8" height="25.6" fill="#232426"/>
<rect x="159.508" y="58.3999" width="0.8" height="18.4" fill="#232426"/>
<rect x="162.891" y="62.3999" width="0.8" height="14.4" fill="#232426"/>
<rect x="146" y="62.3999" width="0.8" height="14.4" fill="#232426"/>
<rect x="166.266" y="62.3999" width="0.8" height="14.4" fill="#232426"/>
<rect x="149.375" y="62.3999" width="0.8" height="14.4" fill="#232426"/>
<rect x="169.641" y="62.3999" width="0.8" height="14.4" fill="#232426"/>
<rect x="152.758" y="62.3999" width="0.8" height="14.4" fill="#232426"/>
<rect x="173.023" y="62.3999" width="0.8" height="14.4" fill="#232426"/>
<rect x="156.133" y="62.3999" width="0.8" height="14.4" fill="#232426"/>
<path d="M175.767 45.7267L175.073 45.5485L175.416 42.1501L178.917 42.1501L178.917 42.9517L176.152 42.9517L175.945 44.8079C176.07 44.736 176.228 44.6688 176.419 44.6063C176.612 44.5438 176.834 44.5126 177.084 44.5126C177.4 44.5126 177.683 44.5673 177.933 44.6767C178.183 44.7829 178.395 44.936 178.57 45.136C178.748 45.336 178.884 45.5767 178.978 45.8579C179.072 46.1392 179.119 46.4532 179.119 46.8001C179.119 47.1282 179.073 47.4298 178.983 47.7048C178.895 47.9798 178.763 48.2204 178.584 48.4267C178.406 48.6298 178.181 48.7876 177.909 48.9001C177.641 49.0126 177.323 49.0688 176.958 49.0688C176.683 49.0688 176.422 49.0313 176.175 48.9563C175.931 48.8782 175.712 48.761 175.519 48.6048C175.328 48.4454 175.172 48.2485 175.05 48.0142C174.931 47.7767 174.856 47.4985 174.825 47.1798L175.65 47.1798C175.687 47.436 175.762 47.6517 175.875 47.8267C175.987 48.0017 176.134 48.1345 176.316 48.2251C176.5 48.3126 176.714 48.3563 176.958 48.3563C177.164 48.3563 177.347 48.3204 177.506 48.2485C177.666 48.1767 177.8 48.0735 177.909 47.9392C178.019 47.8048 178.102 47.6423 178.158 47.4517C178.217 47.261 178.247 47.047 178.247 46.8095C178.247 46.5938 178.217 46.3938 178.158 46.2095C178.098 46.0251 178.009 45.8642 177.891 45.7267C177.775 45.5892 177.633 45.4829 177.464 45.4079C177.295 45.3298 177.102 45.2907 176.883 45.2907C176.592 45.2907 176.372 45.3298 176.222 45.4079C176.075 45.486 175.923 45.5923 175.767 45.7267Z" fill="#232426"/>
<rect x="209.602" y="51.2" width="0.8" height="25.6" fill="#232426"/>
<rect x="192.711" y="58.3999" width="0.8" height="18.4" fill="#232426"/>
<rect x="196.094" y="62.3999" width="0.8" height="14.4" fill="#232426"/>
<rect x="179.203" y="62.3999" width="0.8" height="14.4" fill="#232426"/>
<rect x="199.469" y="62.3999" width="0.8" height="14.4" fill="#232426"/>
<rect x="182.578" y="62.3999" width="0.8" height="14.4" fill="#232426"/>
<rect x="202.844" y="62.3999" width="0.8" height="14.4" fill="#232426"/>
<rect x="185.961" y="62.3999" width="0.8" height="14.4" fill="#232426"/>
<rect x="206.227" y="62.3999" width="0.8" height="14.4" fill="#232426"/>
<rect x="189.336" y="62.3999" width="0.8" height="14.4" fill="#232426"/>
<path d="M211.202 42.1407L211.277 42.1407L211.277 42.8767L211.202 42.8767C210.742 42.8767 210.358 42.9517 210.048 43.1017C209.739 43.2485 209.494 43.447 209.312 43.697C209.131 43.9438 209 44.222 208.919 44.5313C208.841 44.8407 208.802 45.1548 208.802 45.4735L208.802 46.4767C208.802 46.7798 208.837 47.0485 208.909 47.2829C208.981 47.5142 209.08 47.7095 209.205 47.8688C209.33 48.0282 209.47 48.1485 209.627 48.2298C209.786 48.311 209.952 48.3517 210.123 48.3517C210.323 48.3517 210.502 48.3142 210.658 48.2392C210.814 48.161 210.945 48.0532 211.052 47.9157C211.161 47.7751 211.244 47.6095 211.3 47.4188C211.356 47.2282 211.384 47.0188 211.384 46.7907C211.384 46.5876 211.359 46.3923 211.309 46.2048C211.259 46.0142 211.183 45.8454 211.08 45.6985C210.977 45.5485 210.847 45.4313 210.691 45.347C210.537 45.2595 210.355 45.2157 210.142 45.2157C209.902 45.2157 209.677 45.2751 209.467 45.3938C209.261 45.5095 209.091 45.6626 208.956 45.8532C208.825 46.0407 208.75 46.2454 208.731 46.4673L208.272 46.4626C208.316 46.1126 208.397 45.8142 208.516 45.5673C208.637 45.3173 208.787 45.1142 208.966 44.9579C209.147 44.7985 209.348 44.6829 209.57 44.611C209.795 44.536 210.033 44.4985 210.283 44.4985C210.623 44.4985 210.917 44.5626 211.164 44.6907C211.411 44.8188 211.614 44.9907 211.773 45.2063C211.933 45.4188 212.05 45.6595 212.125 45.9282C212.203 46.1938 212.242 46.4673 212.242 46.7485C212.242 47.0704 212.197 47.372 212.106 47.6532C212.016 47.9345 211.88 48.1813 211.698 48.3938C211.52 48.6063 211.3 48.772 211.038 48.8907C210.775 49.0095 210.47 49.0688 210.123 49.0688C209.755 49.0688 209.433 48.9938 209.158 48.8438C208.883 48.6907 208.655 48.4876 208.473 48.2345C208.292 47.9813 208.156 47.7001 208.066 47.3907C207.975 47.0813 207.93 46.7673 207.93 46.4485L207.93 46.0407C207.93 45.5595 207.978 45.0876 208.075 44.6251C208.172 44.1626 208.339 43.7438 208.577 43.3688C208.817 42.9938 209.15 42.6954 209.575 42.4735C210 42.2517 210.542 42.1407 211.202 42.1407Z" fill="#232426"/>
<rect x="242.797" y="51.2" width="0.8" height="25.6" fill="#232426"/>
<rect x="225.906" y="58.3999" width="0.8" height="18.4" fill="#232426"/>
<rect x="229.289" y="62.3999" width="0.8" height="14.4" fill="#232426"/>
<rect x="212.398" y="62.3999" width="0.8" height="14.4" fill="#232426"/>
<rect x="232.664" y="62.3999" width="0.8" height="14.4" fill="#232426"/>
<rect x="215.773" y="62.3999" width="0.8" height="14.4" fill="#232426"/>
<rect x="236.039" y="62.3999" width="0.8" height="14.4" fill="#232426"/>
<rect x="219.156" y="62.3999" width="0.8" height="14.4" fill="#232426"/>
<rect x="239.422" y="62.3999" width="0.8" height="14.4" fill="#232426"/>
<rect x="222.531" y="62.3999" width="0.8" height="14.4" fill="#232426"/>
<path d="M245.48 42.1501L245.48 42.6376L242.653 48.9751L241.739 48.9751L244.561 42.8626L240.867 42.8626L240.867 42.1501L245.48 42.1501Z" fill="#232426"/>
<rect x="276" y="51.2" width="0.8" height="25.6" fill="#232426"/>
<rect x="259.109" y="58.3999" width="0.8" height="18.4" fill="#232426"/>
<rect x="262.492" y="62.3999" width="0.8" height="14.4" fill="#232426"/>
<rect x="245.602" y="62.3999" width="0.8" height="14.4" fill="#232426"/>
<rect x="265.867" y="62.3999" width="0.8" height="14.4" fill="#232426"/>
<rect x="248.977" y="62.3999" width="0.8" height="14.4" fill="#232426"/>
<rect x="269.242" y="62.3999" width="0.8" height="14.4" fill="#232426"/>
<rect x="252.359" y="62.3999" width="0.8" height="14.4" fill="#232426"/>
<rect x="272.625" y="62.3999" width="0.8" height="14.4" fill="#232426"/>
<rect x="255.734" y="62.3999" width="0.8" height="14.4" fill="#232426"/>
<path d="M278.575 47.1282C278.575 47.5438 278.478 47.897 278.284 48.1876C278.094 48.4751 277.834 48.6938 277.506 48.8438C277.181 48.9938 276.814 49.0688 276.405 49.0688C275.995 49.0688 275.627 48.9938 275.298 48.8438C274.97 48.6938 274.711 48.4751 274.52 48.1876C274.33 47.897 274.234 47.5438 274.234 47.1282C274.234 46.8563 274.286 46.6079 274.389 46.3829C274.495 46.1548 274.644 45.9563 274.834 45.7876C275.028 45.6188 275.256 45.4892 275.519 45.3985C275.784 45.3048 276.077 45.2579 276.395 45.2579C276.814 45.2579 277.187 45.3392 277.516 45.5017C277.844 45.661 278.102 45.8813 278.289 46.1626C278.48 46.4438 278.575 46.7657 278.575 47.1282ZM277.703 47.1095C277.703 46.8563 277.648 46.6329 277.539 46.4392C277.43 46.2423 277.277 46.0892 277.08 45.9798C276.883 45.8704 276.655 45.8157 276.395 45.8157C276.13 45.8157 275.9 45.8704 275.706 45.9798C275.516 46.0892 275.367 46.2423 275.261 46.4392C275.155 46.6329 275.102 46.8563 275.102 47.1095C275.102 47.372 275.153 47.597 275.256 47.7845C275.362 47.9688 275.512 48.111 275.706 48.211C275.903 48.3079 276.136 48.3563 276.405 48.3563C276.673 48.3563 276.905 48.3079 277.098 48.211C277.292 48.111 277.441 47.9688 277.544 47.7845C277.65 47.597 277.703 47.372 277.703 47.1095ZM278.416 43.9267C278.416 44.2579 278.328 44.5563 278.153 44.822C277.978 45.0876 277.739 45.297 277.436 45.4501C277.133 45.6032 276.789 45.6798 276.405 45.6798C276.014 45.6798 275.666 45.6032 275.359 45.4501C275.056 45.297 274.819 45.0876 274.647 44.822C274.475 44.5563 274.389 44.2579 274.389 43.9267C274.389 43.5298 274.475 43.1923 274.647 42.9142C274.822 42.636 275.061 42.4235 275.364 42.2767C275.667 42.1298 276.012 42.0563 276.4 42.0563C276.791 42.0563 277.137 42.1298 277.441 42.2767C277.744 42.4235 277.981 42.636 278.153 42.9142C278.328 43.1923 278.416 43.5298 278.416 43.9267ZM277.548 43.9407C277.548 43.7126 277.5 43.511 277.403 43.336C277.306 43.161 277.172 43.0235 277 42.9235C276.828 42.8204 276.628 42.7688 276.4 42.7688C276.172 42.7688 275.972 42.8173 275.8 42.9142C275.631 43.0079 275.498 43.1423 275.402 43.3173C275.308 43.4923 275.261 43.7001 275.261 43.9407C275.261 44.1751 275.308 44.3798 275.402 44.5548C275.498 44.7298 275.633 44.8657 275.805 44.9626C275.977 45.0595 276.177 45.1079 276.405 45.1079C276.633 45.1079 276.831 45.0595 277 44.9626C277.172 44.8657 277.306 44.7298 277.403 44.5548C277.5 44.3798 277.548 44.1751 277.548 43.9407Z" fill="#232426"/>
<rect x="309.195" y="51.2" width="0.8" height="25.6" fill="#232426"/>
<rect x="292.305" y="58.3999" width="0.8" height="18.4" fill="#232426"/>
<rect x="295.688" y="62.3999" width="0.8" height="14.4" fill="#232426"/>
<rect x="278.797" y="62.3999" width="0.8" height="14.4" fill="#232426"/>
<rect x="299.062" y="62.3999" width="0.8" height="14.4" fill="#232426"/>
<rect x="282.172" y="62.3999" width="0.8" height="14.4" fill="#232426"/>
<rect x="302.438" y="62.3999" width="0.8" height="14.4" fill="#232426"/>
<rect x="285.555" y="62.3999" width="0.8" height="14.4" fill="#232426"/>
<rect x="305.82" y="62.3999" width="0.8" height="14.4" fill="#232426"/>
<rect x="288.93" y="62.3999" width="0.8" height="14.4" fill="#232426"/>
<path d="M308.33 48.2485L308.419 48.2485C308.919 48.2485 309.325 48.1782 309.637 48.0376C309.95 47.897 310.191 47.7079 310.359 47.4704C310.528 47.2329 310.644 46.9657 310.706 46.6688C310.769 46.3688 310.8 46.061 310.8 45.7454L310.8 44.7001C310.8 44.3907 310.764 44.1157 310.692 43.8751C310.623 43.6345 310.527 43.4329 310.402 43.2704C310.28 43.1079 310.141 42.9845 309.984 42.9001C309.828 42.8157 309.662 42.7735 309.487 42.7735C309.287 42.7735 309.108 42.8142 308.948 42.8954C308.792 42.9735 308.659 43.0845 308.55 43.2282C308.444 43.372 308.362 43.5407 308.306 43.7345C308.25 43.9282 308.222 44.1392 308.222 44.3673C308.222 44.5704 308.247 44.7673 308.297 44.9579C308.347 45.1485 308.423 45.3204 308.527 45.4735C308.63 45.6267 308.758 45.7485 308.911 45.8392C309.067 45.9267 309.25 45.9704 309.459 45.9704C309.653 45.9704 309.834 45.9329 310.003 45.8579C310.175 45.7798 310.327 45.6751 310.458 45.5438C310.592 45.4095 310.698 45.2579 310.777 45.0892C310.858 44.9204 310.905 44.7438 310.917 44.5595L311.33 44.5595C311.33 44.8188 311.278 45.0751 311.175 45.3282C311.075 45.5782 310.934 45.8063 310.753 46.0126C310.572 46.2188 310.359 46.3845 310.116 46.5095C309.872 46.6313 309.606 46.6923 309.319 46.6923C308.981 46.6923 308.689 46.6267 308.442 46.4954C308.195 46.3642 307.992 46.1892 307.833 45.9704C307.677 45.7517 307.559 45.5079 307.481 45.2392C307.406 44.9673 307.369 44.6923 307.369 44.4142C307.369 44.0892 307.414 43.7845 307.505 43.5001C307.595 43.2157 307.73 42.9657 307.908 42.7501C308.086 42.5313 308.306 42.361 308.569 42.2392C308.834 42.1173 309.141 42.0563 309.487 42.0563C309.878 42.0563 310.211 42.1345 310.486 42.2907C310.761 42.447 310.984 42.6563 311.156 42.9188C311.331 43.1813 311.459 43.4767 311.541 43.8048C311.622 44.1329 311.663 44.4704 311.663 44.8173L311.663 45.1313C311.663 45.4845 311.639 45.8438 311.592 46.2095C311.548 46.572 311.463 46.9188 311.334 47.2501C311.209 47.5813 311.027 47.8782 310.786 48.1407C310.545 48.4001 310.231 48.6063 309.844 48.7595C309.459 48.9095 308.984 48.9845 308.419 48.9845L308.33 48.9845L308.33 48.2485Z" fill="#232426"/>
<rect x="342.398" y="51.2" width="0.8" height="25.6" fill="#232426"/>
<rect x="325.508" y="58.3999" width="0.8" height="18.4" fill="#232426"/>
<rect x="328.891" y="62.3999" width="0.8" height="14.4" fill="#232426"/>
<rect x="312" y="62.3999" width="0.8" height="14.4" fill="#232426"/>
<rect x="332.266" y="62.3999" width="0.8" height="14.4" fill="#232426"/>
<rect x="315.375" y="62.3999" width="0.8" height="14.4" fill="#232426"/>
<rect x="335.641" y="62.3999" width="0.8" height="14.4" fill="#232426"/>
<rect x="318.758" y="62.3999" width="0.8" height="14.4" fill="#232426"/>
<rect x="339.023" y="62.3999" width="0.8" height="14.4" fill="#232426"/>
<rect x="322.133" y="62.3999" width="0.8" height="14.4" fill="#232426"/>
<path d="M340.82 42.1126L340.82 48.9751L339.953 48.9751L339.953 43.1954L338.205 43.8329L338.205 43.0501L340.684 42.1126L340.82 42.1126ZM347.655 45.0188L347.655 46.0595C347.655 46.6188 347.605 47.0907 347.505 47.4751C347.405 47.8595 347.261 48.1688 347.073 48.4032C346.886 48.6376 346.659 48.8079 346.394 48.9142C346.131 49.0173 345.834 49.0688 345.503 49.0688C345.241 49.0688 344.998 49.036 344.777 48.9704C344.555 48.9048 344.355 48.8001 344.177 48.6563C344.002 48.5095 343.852 48.3188 343.727 48.0845C343.602 47.8501 343.506 47.5657 343.441 47.2313C343.375 46.897 343.342 46.5063 343.342 46.0595L343.342 45.0188C343.342 44.4595 343.392 43.9907 343.492 43.6126C343.595 43.2345 343.741 42.9313 343.928 42.7032C344.116 42.472 344.341 42.3063 344.603 42.2063C344.869 42.1063 345.166 42.0563 345.494 42.0563C345.759 42.0563 346.003 42.0892 346.225 42.1548C346.45 42.2173 346.65 42.3188 346.825 42.4595C347 42.597 347.148 42.7813 347.27 43.0126C347.395 43.2407 347.491 43.5204 347.556 43.8517C347.622 44.1829 347.655 44.572 347.655 45.0188ZM346.783 46.2001L346.783 44.8735C346.783 44.5673 346.764 44.2985 346.727 44.0673C346.692 43.8329 346.641 43.6329 346.572 43.4673C346.503 43.3017 346.416 43.1673 346.309 43.0642C346.206 42.961 346.086 42.886 345.948 42.8392C345.814 42.7892 345.663 42.7642 345.494 42.7642C345.288 42.7642 345.105 42.8032 344.945 42.8813C344.786 42.9563 344.652 43.0767 344.542 43.2423C344.436 43.4079 344.355 43.6251 344.298 43.8938C344.242 44.1626 344.214 44.4892 344.214 44.8735L344.214 46.2001C344.214 46.5063 344.231 46.7767 344.266 47.011C344.303 47.2454 344.358 47.4485 344.43 47.6204C344.502 47.7892 344.589 47.9282 344.692 48.0376C344.795 48.147 344.914 48.2282 345.048 48.2813C345.186 48.3313 345.338 48.3563 345.503 48.3563C345.716 48.3563 345.902 48.3157 346.061 48.2345C346.22 48.1532 346.353 48.0267 346.459 47.8548C346.569 47.6798 346.65 47.4563 346.703 47.1845C346.756 46.9095 346.783 46.5813 346.783 46.2001Z" fill="#232426"/>
<rect x="375.602" y="51.2" width="0.8" height="25.6" fill="#232426"/>
<rect x="358.711" y="58.3999" width="0.8" height="18.4" fill="#232426"/>
<rect x="362.094" y="62.3999" width="0.8" height="14.4" fill="#232426"/>
<rect x="345.203" y="62.3999" width="0.8" height="14.4" fill="#232426"/>
<rect x="365.469" y="62.3999" width="0.8" height="14.4" fill="#232426"/>
<rect x="348.578" y="62.3999" width="0.8" height="14.4" fill="#232426"/>
<rect x="368.844" y="62.3999" width="0.8" height="14.4" fill="#232426"/>
<rect x="351.961" y="62.3999" width="0.8" height="14.4" fill="#232426"/>
<rect x="372.227" y="62.3999" width="0.8" height="14.4" fill="#232426"/>
<rect x="355.336" y="62.3999" width="0.8" height="14.4" fill="#232426"/>
<path d="M374.023 42.1126L374.023 48.9751L373.156 48.9751L373.156 43.1954L371.408 43.8329L371.408 43.0501L373.887 42.1126L374.023 42.1126ZM379.423 42.1126L379.423 48.9751L378.556 48.9751L378.556 43.1954L376.808 43.8329L376.808 43.0501L379.288 42.1126L379.423 42.1126Z" fill="#232426"/>
<rect x="408.797" y="51.2" width="0.8" height="25.6" fill="#232426"/>
<rect x="391.906" y="58.3999" width="0.8" height="18.4" fill="#232426"/>
<rect x="395.289" y="62.3999" width="0.8" height="14.4" fill="#232426"/>
<rect x="378.398" y="62.3999" width="0.8" height="14.4" fill="#232426"/>
<rect x="398.664" y="62.3999" width="0.8" height="14.4" fill="#232426"/>
<rect x="381.773" y="62.3999" width="0.8" height="14.4" fill="#232426"/>
<rect x="402.039" y="62.3999" width="0.8" height="14.4" fill="#232426"/>
<rect x="385.156" y="62.3999" width="0.8" height="14.4" fill="#232426"/>
<rect x="405.422" y="62.3999" width="0.8" height="14.4" fill="#232426"/>
<rect x="388.531" y="62.3999" width="0.8" height="14.4" fill="#232426"/>
<path d="M407.219 42.1126L407.219 48.9751L406.352 48.9751L406.352 43.1954L404.603 43.8329L404.603 43.0501L407.083 42.1126L407.219 42.1126ZM414.241 48.2626L414.241 48.9751L409.773 48.9751L409.773 48.3517L412.009 45.8626C412.284 45.5563 412.497 45.297 412.647 45.0845C412.8 44.8688 412.906 44.6767 412.966 44.5079C413.028 44.336 413.059 44.161 413.059 43.9829C413.059 43.7579 413.013 43.5548 412.919 43.3735C412.828 43.1892 412.694 43.0423 412.516 42.9329C412.338 42.8235 412.122 42.7688 411.869 42.7688C411.566 42.7688 411.312 42.8282 411.109 42.947C410.909 43.0626 410.759 43.2251 410.659 43.4345C410.559 43.6438 410.509 43.8845 410.509 44.1563L409.642 44.1563C409.642 43.772 409.727 43.4204 409.895 43.1017C410.064 42.7829 410.314 42.5298 410.645 42.3423C410.977 42.1517 411.384 42.0563 411.869 42.0563C412.3 42.0563 412.669 42.1329 412.975 42.286C413.281 42.436 413.516 42.6485 413.678 42.9235C413.844 43.1954 413.927 43.5142 413.927 43.8798C413.927 44.0798 413.892 44.2829 413.823 44.4892C413.758 44.6923 413.666 44.8954 413.547 45.0985C413.431 45.3017 413.295 45.5017 413.139 45.6985C412.986 45.8954 412.822 46.0892 412.647 46.2798L410.819 48.2626L414.241 48.2626Z" fill="#232426"/>
<rect x="442" y="51.2" width="0.8" height="25.6" fill="#232426"/>
<rect x="425.109" y="58.3999" width="0.8" height="18.4" fill="#232426"/>
<rect x="428.492" y="62.3999" width="0.8" height="14.4" fill="#232426"/>
<rect x="411.602" y="62.3999" width="0.8" height="14.4" fill="#232426"/>
<rect x="431.867" y="62.3999" width="0.8" height="14.4" fill="#232426"/>
<rect x="414.977" y="62.3999" width="0.8" height="14.4" fill="#232426"/>
<rect x="435.242" y="62.3999" width="0.8" height="14.4" fill="#232426"/>
<rect x="418.359" y="62.3999" width="0.8" height="14.4" fill="#232426"/>
<rect x="438.625" y="62.3999" width="0.8" height="14.4" fill="#232426"/>
<rect x="421.734" y="62.3999" width="0.8" height="14.4" fill="#232426"/>
<path d="M440.422 42.1126L440.422 48.9751L439.555 48.9751L439.555 43.1954L437.806 43.8329L437.806 43.0501L440.286 42.1126L440.422 42.1126ZM444.237 45.136L444.856 45.136C445.159 45.136 445.409 45.086 445.606 44.986C445.806 44.8829 445.955 44.7438 446.052 44.5688C446.152 44.3907 446.202 44.1907 446.202 43.9688C446.202 43.7063 446.158 43.486 446.07 43.3079C445.983 43.1298 445.852 42.9954 445.677 42.9048C445.502 42.8142 445.28 42.7688 445.011 42.7688C444.767 42.7688 444.552 42.8173 444.364 42.9142C444.18 43.0079 444.034 43.1423 443.928 43.3173C443.825 43.4923 443.773 43.6985 443.773 43.936L442.906 43.936C442.906 43.5892 442.994 43.2735 443.169 42.9892C443.344 42.7048 443.589 42.4782 443.905 42.3095C444.223 42.1407 444.592 42.0563 445.011 42.0563C445.423 42.0563 445.784 42.1298 446.094 42.2767C446.403 42.4204 446.644 42.636 446.816 42.9235C446.988 43.2079 447.073 43.5626 447.073 43.9876C447.073 44.1595 447.033 44.3438 446.952 44.5407C446.873 44.7345 446.75 44.9157 446.581 45.0845C446.416 45.2532 446.2 45.3923 445.934 45.5017C445.669 45.6079 445.35 45.661 444.978 45.661L444.237 45.661L444.237 45.136ZM444.237 45.8485L444.237 45.3282L444.978 45.3282C445.413 45.3282 445.772 45.3798 446.056 45.4829C446.341 45.586 446.564 45.7235 446.727 45.8954C446.892 46.0673 447.008 46.2563 447.073 46.4626C447.142 46.6657 447.177 46.8688 447.177 47.072C447.177 47.3907 447.122 47.6735 447.013 47.9204C446.906 48.1673 446.755 48.3767 446.558 48.5485C446.364 48.7204 446.136 48.8501 445.873 48.9376C445.611 49.0251 445.325 49.0688 445.016 49.0688C444.719 49.0688 444.439 49.0267 444.177 48.9423C443.917 48.8579 443.687 48.736 443.487 48.5767C443.287 48.4142 443.131 48.2157 443.019 47.9813C442.906 47.7438 442.85 47.4735 442.85 47.1704L443.717 47.1704C443.717 47.4079 443.769 47.6157 443.872 47.7938C443.978 47.972 444.128 48.111 444.322 48.211C444.519 48.3079 444.75 48.3563 445.016 48.3563C445.281 48.3563 445.509 48.311 445.7 48.2204C445.894 48.1267 446.042 47.986 446.145 47.7985C446.252 47.611 446.305 47.3751 446.305 47.0907C446.305 46.8063 446.245 46.5735 446.127 46.3923C446.008 46.2079 445.839 46.072 445.62 45.9845C445.405 45.8938 445.15 45.8485 444.856 45.8485L444.237 45.8485Z" fill="#232426"/>
<rect x="475.195" y="51.2" width="0.8" height="25.6" fill="#232426"/>
<rect x="458.305" y="58.3999" width="0.8" height="18.4" fill="#232426"/>
<rect x="461.688" y="62.3999" width="0.8" height="14.4" fill="#232426"/>
<rect x="444.797" y="62.3999" width="0.8" height="14.4" fill="#232426"/>
<rect x="465.062" y="62.3999" width="0.8" height="14.4" fill="#232426"/>
<rect x="448.172" y="62.3999" width="0.8" height="14.4" fill="#232426"/>
<rect x="468.438" y="62.3999" width="0.8" height="14.4" fill="#232426"/>
<rect x="451.555" y="62.3999" width="0.8" height="14.4" fill="#232426"/>
<rect x="471.82" y="62.3999" width="0.8" height="14.4" fill="#232426"/>
<rect x="454.93" y="62.3999" width="0.8" height="14.4" fill="#232426"/>
<path d="M473.617 42.1126L473.617 48.9751L472.75 48.9751L472.75 43.1954L471.002 43.8329L471.002 43.0501L473.481 42.1126L473.617 42.1126ZM480.78 46.6782L480.78 47.3907L475.848 47.3907L475.848 46.8798L478.905 42.1501L479.613 42.1501L478.853 43.5188L476.833 46.6782L480.78 46.6782ZM479.828 42.1501L479.828 48.9751L478.961 48.9751L478.961 42.1501L479.828 42.1501Z" fill="#232426"/>
<rect x="508.398" y="51.2" width="0.8" height="25.6" fill="#232426"/>
<rect x="491.508" y="58.3999" width="0.8" height="18.4" fill="#232426"/>
<rect x="494.891" y="62.3999" width="0.8" height="14.4" fill="#232426"/>
<rect x="478" y="62.3999" width="0.8" height="14.4" fill="#232426"/>
<rect x="498.266" y="62.3999" width="0.8" height="14.4" fill="#232426"/>
<rect x="481.375" y="62.3999" width="0.8" height="14.4" fill="#232426"/>
<rect x="501.641" y="62.3999" width="0.8" height="14.4" fill="#232426"/>
<rect x="484.758" y="62.3999" width="0.8" height="14.4" fill="#232426"/>
<rect x="505.023" y="62.3999" width="0.8" height="14.4" fill="#232426"/>
<rect x="488.133" y="62.3999" width="0.8" height="14.4" fill="#232426"/>
<path d="M506.82 42.1126L506.82 48.9751L505.953 48.9751L505.953 43.1954L504.205 43.8329L504.205 43.0501L506.684 42.1126L506.82 42.1126ZM510.467 45.7267L509.773 45.5485L510.116 42.1501L513.617 42.1501L513.617 42.9517L510.852 42.9517L510.645 44.8079C510.77 44.736 510.928 44.6688 511.119 44.6063C511.313 44.5438 511.534 44.5126 511.784 44.5126C512.1 44.5126 512.383 44.5673 512.633 44.6767C512.883 44.7829 513.095 44.936 513.27 45.136C513.448 45.336 513.584 45.5767 513.678 45.8579C513.772 46.1392 513.819 46.4532 513.819 46.8001C513.819 47.1282 513.773 47.4298 513.683 47.7048C513.595 47.9798 513.463 48.2204 513.284 48.4267C513.106 48.6298 512.881 48.7876 512.609 48.9001C512.341 49.0126 512.023 49.0688 511.658 49.0688C511.383 49.0688 511.122 49.0313 510.875 48.9563C510.631 48.8782 510.412 48.761 510.219 48.6048C510.028 48.4454 509.872 48.2485 509.75 48.0142C509.631 47.7767 509.556 47.4985 509.525 47.1798L510.35 47.1798C510.387 47.436 510.462 47.6517 510.575 47.8267C510.687 48.0017 510.834 48.1345 511.016 48.2251C511.2 48.3126 511.414 48.3563 511.658 48.3563C511.864 48.3563 512.047 48.3204 512.206 48.2485C512.366 48.1767 512.5 48.0735 512.609 47.9392C512.719 47.8048 512.802 47.6423 512.858 47.4517C512.917 47.261 512.947 47.047 512.947 46.8095C512.947 46.5938 512.917 46.3938 512.858 46.2095C512.798 46.0251 512.709 45.8642 512.591 45.7267C512.475 45.5892 512.333 45.4829 512.164 45.4079C511.995 45.3298 511.802 45.2907 511.583 45.2907C511.292 45.2907 511.072 45.3298 510.922 45.4079C510.775 45.486 510.623 45.5923 510.467 45.7267Z" fill="#232426"/>
</g>
<rect x="0.5" y="0.5" width="516.2" height="75.8" rx="4.3" stroke="#8D9299"/>
</g>
<defs>
<clipPath id="clip0_4685_28948">
<rect width="517.2" height="76.8" rx="4.8" fill="white"/>
</clipPath>
</defs>
</svg>
