<svg width="684" height="77" viewBox="0 0 684 77" fill="none" xmlns="http://www.w3.org/2000/svg">
<g opacity="0.7">
<g clip-path="url(#clip0_4767_26872)">
<rect x="0.203125" width="683.2" height="76.8" rx="4.8" fill="white"/>
<rect x="10.6016" y="51.1997" width="0.8" height="25.6" fill="#232426"/>
<path d="M13.1578 45.0184L13.1578 46.059C13.1578 46.6184 13.1078 47.0902 13.0078 47.4746C12.9078 47.859 12.7641 48.1684 12.5766 48.4027C12.3891 48.6371 12.1625 48.8074 11.8969 48.9137C11.6344 49.0168 11.3375 49.0684 11.0062 49.0684C10.7437 49.0684 10.5016 49.0355 10.2797 48.9699C10.0578 48.9043 9.85781 48.7996 9.67969 48.6559C9.50469 48.509 9.35469 48.3184 9.22969 48.084C9.10469 47.8496 9.00937 47.5652 8.94375 47.2309C8.87812 46.8965 8.84531 46.5059 8.84531 46.059L8.84531 45.0184C8.84531 44.459 8.89531 43.9902 8.99531 43.6121C9.09844 43.234 9.24375 42.9309 9.43125 42.7027C9.61875 42.4715 9.84375 42.3059 10.1062 42.2059C10.3719 42.1059 10.6687 42.0559 10.9969 42.0559C11.2625 42.0559 11.5062 42.0887 11.7281 42.1543C11.9531 42.2168 12.1531 42.3184 12.3281 42.459C12.5031 42.5965 12.6516 42.7809 12.7734 43.0121C12.8984 43.2402 12.9938 43.5199 13.0594 43.8512C13.125 44.1824 13.1578 44.5715 13.1578 45.0184ZM12.2859 46.1996L12.2859 44.873C12.2859 44.5668 12.2672 44.298 12.2297 44.0668C12.1953 43.8324 12.1438 43.6324 12.075 43.4668C12.0063 43.3012 11.9188 43.1668 11.8125 43.0637C11.7094 42.9605 11.5891 42.8855 11.4516 42.8387C11.3172 42.7887 11.1656 42.7637 10.9969 42.7637C10.7906 42.7637 10.6078 42.8027 10.4484 42.8809C10.2891 42.9559 10.1547 43.0762 10.0453 43.2418C9.93906 43.4074 9.85781 43.6246 9.80156 43.8934C9.74531 44.1621 9.71719 44.4887 9.71719 44.873L9.71719 46.1996C9.71719 46.5059 9.73437 46.7762 9.76875 47.0105C9.80625 47.2449 9.86094 47.448 9.93281 47.6199C10.0047 47.7887 10.0922 47.9277 10.1953 48.0371C10.2984 48.1465 10.4172 48.2277 10.5516 48.2809C10.6891 48.3309 10.8406 48.3559 11.0062 48.3559C11.2187 48.3559 11.4047 48.3152 11.5641 48.234C11.7234 48.1527 11.8562 48.0262 11.9625 47.8543C12.0719 47.6793 12.1531 47.4559 12.2063 47.184C12.2594 46.909 12.2859 46.5809 12.2859 46.1996Z" fill="#232426"/>
<rect x="43.8047" y="51.1997" width="0.8" height="25.6" fill="#232426"/>
<rect x="26.9141" y="58.3997" width="0.8" height="18.4" fill="#232426"/>
<rect x="30.2969" y="62.3997" width="0.8" height="14.4" fill="#232426"/>
<rect x="13.4062" y="62.3997" width="0.8" height="14.4" fill="#232426"/>
<rect x="33.6719" y="62.3997" width="0.8" height="14.4" fill="#232426"/>
<rect x="16.7812" y="62.3997" width="0.8" height="14.4" fill="#232426"/>
<rect x="37.0469" y="62.3997" width="0.8" height="14.4" fill="#232426"/>
<rect x="20.1641" y="62.3997" width="0.8" height="14.4" fill="#232426"/>
<rect x="40.4297" y="62.3997" width="0.8" height="14.4" fill="#232426"/>
<rect x="23.5391" y="62.3997" width="0.8" height="14.4" fill="#232426"/>
<path d="M44.9266 42.1121L44.9266 48.9746L44.0594 48.9746L44.0594 43.1949L42.3109 43.8324L42.3109 43.0496L44.7906 42.1121L44.9266 42.1121Z" fill="#232426"/>
<rect x="77" y="51.1997" width="0.8" height="25.6" fill="#232426"/>
<rect x="60.1094" y="58.3997" width="0.8" height="18.4" fill="#232426"/>
<rect x="63.4922" y="62.3997" width="0.8" height="14.4" fill="#232426"/>
<rect x="46.6016" y="62.3997" width="0.8" height="14.4" fill="#232426"/>
<rect x="66.8672" y="62.3997" width="0.8" height="14.4" fill="#232426"/>
<rect x="49.9766" y="62.3997" width="0.8" height="14.4" fill="#232426"/>
<rect x="70.2422" y="62.3997" width="0.8" height="14.4" fill="#232426"/>
<rect x="53.3594" y="62.3997" width="0.8" height="14.4" fill="#232426"/>
<rect x="73.625" y="62.3997" width="0.8" height="14.4" fill="#232426"/>
<rect x="56.7344" y="62.3997" width="0.8" height="14.4" fill="#232426"/>
<path d="M79.7438 48.2621L79.7438 48.9746L75.2766 48.9746L75.2766 48.3512L77.5125 45.8621C77.7875 45.5559 78 45.2965 78.15 45.084C78.3031 44.8684 78.4094 44.6762 78.4688 44.5074C78.5313 44.3355 78.5625 44.1605 78.5625 43.9824C78.5625 43.7574 78.5156 43.5543 78.4219 43.373C78.3313 43.1887 78.1969 43.0418 78.0187 42.9324C77.8406 42.823 77.625 42.7684 77.3719 42.7684C77.0687 42.7684 76.8156 42.8277 76.6125 42.9465C76.4125 43.0621 76.2625 43.2246 76.1625 43.434C76.0625 43.6434 76.0125 43.884 76.0125 44.1559L75.1453 44.1559C75.1453 43.7715 75.2297 43.4199 75.3984 43.1012C75.5672 42.7824 75.8172 42.5293 76.1484 42.3418C76.4797 42.1512 76.8875 42.0559 77.3719 42.0559C77.8031 42.0559 78.1719 42.1324 78.4781 42.2855C78.7844 42.4355 79.0188 42.648 79.1813 42.923C79.3469 43.1949 79.4297 43.5137 79.4297 43.8793C79.4297 44.0793 79.3953 44.2824 79.3266 44.4887C79.2609 44.6918 79.1688 44.8949 79.05 45.098C78.9344 45.3012 78.7984 45.5012 78.6422 45.698C78.4891 45.8949 78.325 46.0887 78.15 46.2793L76.3219 48.2621L79.7438 48.2621Z" fill="#232426"/>
<rect x="110.203" y="51.1997" width="0.8" height="25.6" fill="#232426"/>
<rect x="93.3125" y="58.3997" width="0.8" height="18.4" fill="#232426"/>
<rect x="96.6953" y="62.3997" width="0.8" height="14.4" fill="#232426"/>
<rect x="79.8047" y="62.3997" width="0.8" height="14.4" fill="#232426"/>
<rect x="100.07" y="62.3997" width="0.8" height="14.4" fill="#232426"/>
<rect x="83.1797" y="62.3997" width="0.8" height="14.4" fill="#232426"/>
<rect x="103.445" y="62.3997" width="0.8" height="14.4" fill="#232426"/>
<rect x="86.5625" y="62.3997" width="0.8" height="14.4" fill="#232426"/>
<rect x="106.828" y="62.3997" width="0.8" height="14.4" fill="#232426"/>
<rect x="89.9375" y="62.3997" width="0.8" height="14.4" fill="#232426"/>
<path d="M109.741 45.1355L110.359 45.1355C110.662 45.1355 110.912 45.0855 111.109 44.9855C111.309 44.8824 111.458 44.7434 111.555 44.5684C111.655 44.3902 111.705 44.1902 111.705 43.9684C111.705 43.7059 111.661 43.4855 111.573 43.3074C111.486 43.1293 111.355 42.9949 111.18 42.9043C111.005 42.8137 110.783 42.7684 110.514 42.7684C110.27 42.7684 110.055 42.8168 109.867 42.9137C109.683 43.0074 109.537 43.1418 109.431 43.3168C109.328 43.4918 109.277 43.698 109.277 43.9355L108.409 43.9355C108.409 43.5887 108.497 43.273 108.672 42.9887C108.847 42.7043 109.092 42.4777 109.408 42.309C109.727 42.1402 110.095 42.0559 110.514 42.0559C110.927 42.0559 111.287 42.1293 111.597 42.2762C111.906 42.4199 112.147 42.6355 112.319 42.923C112.491 43.2074 112.577 43.5621 112.577 43.9871C112.577 44.159 112.536 44.3434 112.455 44.5402C112.377 44.734 112.253 44.9152 112.084 45.084C111.919 45.2527 111.703 45.3918 111.437 45.5012C111.172 45.6074 110.853 45.6605 110.481 45.6605L109.741 45.6605L109.741 45.1355ZM109.741 45.848L109.741 45.3277L110.481 45.3277C110.916 45.3277 111.275 45.3793 111.559 45.4824C111.844 45.5855 112.067 45.723 112.23 45.8949C112.395 46.0668 112.511 46.2559 112.577 46.4621C112.645 46.6652 112.68 46.8684 112.68 47.0715C112.68 47.3902 112.625 47.673 112.516 47.9199C112.409 48.1668 112.258 48.3762 112.061 48.548C111.867 48.7199 111.639 48.8496 111.377 48.9371C111.114 49.0246 110.828 49.0684 110.519 49.0684C110.222 49.0684 109.942 49.0262 109.68 48.9418C109.42 48.8574 109.191 48.7355 108.991 48.5762C108.791 48.4137 108.634 48.2152 108.522 47.9809C108.409 47.7434 108.353 47.473 108.353 47.1699L109.22 47.1699C109.22 47.4074 109.272 47.6152 109.375 47.7934C109.481 47.9715 109.631 48.1105 109.825 48.2105C110.022 48.3074 110.253 48.3559 110.519 48.3559C110.784 48.3559 111.012 48.3105 111.203 48.2199C111.397 48.1262 111.545 47.9855 111.648 47.798C111.755 47.6105 111.808 47.3746 111.808 47.0902C111.808 46.8059 111.748 46.573 111.63 46.3918C111.511 46.2074 111.342 46.0715 111.123 45.984C110.908 45.8934 110.653 45.848 110.359 45.848L109.741 45.848Z" fill="#232426"/>
<rect x="143.398" y="51.1997" width="0.8" height="25.6" fill="#232426"/>
<rect x="126.508" y="58.3997" width="0.8" height="18.4" fill="#232426"/>
<rect x="129.891" y="62.3997" width="0.8" height="14.4" fill="#232426"/>
<rect x="113" y="62.3997" width="0.8" height="14.4" fill="#232426"/>
<rect x="133.266" y="62.3997" width="0.8" height="14.4" fill="#232426"/>
<rect x="116.375" y="62.3997" width="0.8" height="14.4" fill="#232426"/>
<rect x="136.641" y="62.3997" width="0.8" height="14.4" fill="#232426"/>
<rect x="119.758" y="62.3997" width="0.8" height="14.4" fill="#232426"/>
<rect x="140.023" y="62.3997" width="0.8" height="14.4" fill="#232426"/>
<rect x="123.133" y="62.3997" width="0.8" height="14.4" fill="#232426"/>
<path d="M146.283 46.6777L146.283 47.3902L141.352 47.3902L141.352 46.8793L144.408 42.1496L145.116 42.1496L144.356 43.5184L142.336 46.6777L146.283 46.6777ZM145.331 42.1496L145.331 48.9746L144.464 48.9746L144.464 42.1496L145.331 42.1496Z" fill="#232426"/>
<rect x="176.602" y="51.1997" width="0.8" height="25.6" fill="#232426"/>
<rect x="159.711" y="58.3997" width="0.8" height="18.4" fill="#232426"/>
<rect x="163.094" y="62.3997" width="0.8" height="14.4" fill="#232426"/>
<rect x="146.203" y="62.3997" width="0.8" height="14.4" fill="#232426"/>
<rect x="166.469" y="62.3997" width="0.8" height="14.4" fill="#232426"/>
<rect x="149.578" y="62.3997" width="0.8" height="14.4" fill="#232426"/>
<rect x="169.844" y="62.3997" width="0.8" height="14.4" fill="#232426"/>
<rect x="152.961" y="62.3997" width="0.8" height="14.4" fill="#232426"/>
<rect x="173.227" y="62.3997" width="0.8" height="14.4" fill="#232426"/>
<rect x="156.336" y="62.3997" width="0.8" height="14.4" fill="#232426"/>
<path d="M175.97 45.7262L175.277 45.548L175.619 42.1496L179.12 42.1496L179.12 42.9512L176.355 42.9512L176.148 44.8074C176.273 44.7355 176.431 44.6684 176.622 44.6059C176.816 44.5434 177.037 44.5121 177.287 44.5121C177.603 44.5121 177.886 44.5668 178.136 44.6762C178.386 44.7824 178.598 44.9355 178.773 45.1355C178.952 45.3355 179.088 45.5762 179.181 45.8574C179.275 46.1387 179.322 46.4527 179.322 46.7996C179.322 47.1277 179.277 47.4293 179.186 47.7043C179.098 47.9793 178.966 48.2199 178.788 48.4262C178.609 48.6293 178.384 48.7871 178.113 48.8996C177.844 49.0121 177.527 49.0684 177.161 49.0684C176.886 49.0684 176.625 49.0309 176.378 48.9559C176.134 48.8777 175.916 48.7605 175.722 48.6043C175.531 48.4449 175.375 48.248 175.253 48.0137C175.134 47.7762 175.059 47.498 175.028 47.1793L175.853 47.1793C175.891 47.4355 175.966 47.6512 176.078 47.8262C176.191 48.0012 176.337 48.134 176.519 48.2246C176.703 48.3121 176.917 48.3559 177.161 48.3559C177.367 48.3559 177.55 48.3199 177.709 48.248C177.869 48.1762 178.003 48.073 178.113 47.9387C178.222 47.8043 178.305 47.6418 178.361 47.4512C178.42 47.2605 178.45 47.0465 178.45 46.809C178.45 46.5934 178.42 46.3934 178.361 46.209C178.302 46.0246 178.213 45.8637 178.094 45.7262C177.978 45.5887 177.836 45.4824 177.667 45.4074C177.498 45.3293 177.305 45.2902 177.086 45.2902C176.795 45.2902 176.575 45.3293 176.425 45.4074C176.278 45.4855 176.127 45.5918 175.97 45.7262Z" fill="#232426"/>
<rect x="209.805" y="51.1997" width="0.8" height="25.6" fill="#232426"/>
<rect x="192.914" y="58.3997" width="0.8" height="18.4" fill="#232426"/>
<rect x="196.297" y="62.3997" width="0.8" height="14.4" fill="#232426"/>
<rect x="179.406" y="62.3997" width="0.8" height="14.4" fill="#232426"/>
<rect x="199.672" y="62.3997" width="0.8" height="14.4" fill="#232426"/>
<rect x="182.781" y="62.3997" width="0.8" height="14.4" fill="#232426"/>
<rect x="203.047" y="62.3997" width="0.8" height="14.4" fill="#232426"/>
<rect x="186.164" y="62.3997" width="0.8" height="14.4" fill="#232426"/>
<rect x="206.43" y="62.3997" width="0.8" height="14.4" fill="#232426"/>
<rect x="189.539" y="62.3997" width="0.8" height="14.4" fill="#232426"/>
<path d="M211.405 42.1402L211.48 42.1402L211.48 42.8762L211.405 42.8762C210.945 42.8762 210.561 42.9512 210.252 43.1012C209.942 43.248 209.697 43.4465 209.516 43.6965C209.334 43.9434 209.203 44.2215 209.122 44.5309C209.044 44.8402 209.005 45.1543 209.005 45.473L209.005 46.4762C209.005 46.7793 209.041 47.048 209.112 47.2824C209.184 47.5137 209.283 47.709 209.408 47.8684C209.533 48.0277 209.673 48.148 209.83 48.2293C209.989 48.3105 210.155 48.3512 210.327 48.3512C210.527 48.3512 210.705 48.3137 210.861 48.2387C211.017 48.1605 211.148 48.0527 211.255 47.9152C211.364 47.7746 211.447 47.609 211.503 47.4184C211.559 47.2277 211.588 47.0184 211.588 46.7902C211.588 46.5871 211.563 46.3918 211.513 46.2043C211.463 46.0137 211.386 45.8449 211.283 45.698C211.18 45.548 211.05 45.4309 210.894 45.3465C210.741 45.259 210.558 45.2152 210.345 45.2152C210.105 45.2152 209.88 45.2746 209.67 45.3934C209.464 45.509 209.294 45.6621 209.159 45.8527C209.028 46.0402 208.953 46.2449 208.934 46.4668L208.475 46.4621C208.519 46.1121 208.6 45.8137 208.719 45.5668C208.841 45.3168 208.991 45.1137 209.169 44.9574C209.35 44.798 209.552 44.6824 209.773 44.6105C209.998 44.5355 210.236 44.498 210.486 44.498C210.827 44.498 211.12 44.5621 211.367 44.6902C211.614 44.8184 211.817 44.9902 211.977 45.2059C212.136 45.4184 212.253 45.659 212.328 45.9277C212.406 46.1934 212.445 46.4668 212.445 46.748C212.445 47.0699 212.4 47.3715 212.309 47.6527C212.219 47.934 212.083 48.1809 211.902 48.3934C211.723 48.6059 211.503 48.7715 211.241 48.8902C210.978 49.009 210.673 49.0684 210.327 49.0684C209.958 49.0684 209.636 48.9934 209.361 48.8434C209.086 48.6902 208.858 48.4871 208.677 48.234C208.495 47.9809 208.359 47.6996 208.269 47.3902C208.178 47.0809 208.133 46.7668 208.133 46.448L208.133 46.0402C208.133 45.559 208.181 45.0871 208.278 44.6246C208.375 44.1621 208.542 43.7434 208.78 43.3684C209.02 42.9934 209.353 42.6949 209.778 42.473C210.203 42.2512 210.745 42.1402 211.405 42.1402Z" fill="#232426"/>
<rect x="243" y="51.1997" width="0.8" height="25.6" fill="#232426"/>
<rect x="226.109" y="58.3997" width="0.8" height="18.4" fill="#232426"/>
<rect x="229.492" y="62.3997" width="0.8" height="14.4" fill="#232426"/>
<rect x="212.602" y="62.3997" width="0.8" height="14.4" fill="#232426"/>
<rect x="232.867" y="62.3997" width="0.8" height="14.4" fill="#232426"/>
<rect x="215.977" y="62.3997" width="0.8" height="14.4" fill="#232426"/>
<rect x="236.242" y="62.3997" width="0.8" height="14.4" fill="#232426"/>
<rect x="219.359" y="62.3997" width="0.8" height="14.4" fill="#232426"/>
<rect x="239.625" y="62.3997" width="0.8" height="14.4" fill="#232426"/>
<rect x="222.734" y="62.3997" width="0.8" height="14.4" fill="#232426"/>
<path d="M245.683 42.1496L245.683 42.6371L242.856 48.9746L241.942 48.9746L244.764 42.8621L241.07 42.8621L241.07 42.1496L245.683 42.1496Z" fill="#232426"/>
<rect x="276.203" y="51.1997" width="0.8" height="25.6" fill="#232426"/>
<rect x="259.312" y="58.3997" width="0.8" height="18.4" fill="#232426"/>
<rect x="262.695" y="62.3997" width="0.8" height="14.4" fill="#232426"/>
<rect x="245.805" y="62.3997" width="0.8" height="14.4" fill="#232426"/>
<rect x="266.07" y="62.3997" width="0.8" height="14.4" fill="#232426"/>
<rect x="249.18" y="62.3997" width="0.8" height="14.4" fill="#232426"/>
<rect x="269.445" y="62.3997" width="0.8" height="14.4" fill="#232426"/>
<rect x="252.562" y="62.3997" width="0.8" height="14.4" fill="#232426"/>
<rect x="272.828" y="62.3997" width="0.8" height="14.4" fill="#232426"/>
<rect x="255.938" y="62.3997" width="0.8" height="14.4" fill="#232426"/>
<path d="M278.778 47.1277C278.778 47.5434 278.681 47.8965 278.488 48.1871C278.297 48.4746 278.038 48.6934 277.709 48.8434C277.384 48.9934 277.017 49.0684 276.608 49.0684C276.198 49.0684 275.83 48.9934 275.502 48.8434C275.173 48.6934 274.914 48.4746 274.723 48.1871C274.533 47.8965 274.437 47.5434 274.437 47.1277C274.437 46.8559 274.489 46.6074 274.592 46.3824C274.698 46.1543 274.847 45.9559 275.037 45.7871C275.231 45.6184 275.459 45.4887 275.722 45.398C275.987 45.3043 276.28 45.2574 276.598 45.2574C277.017 45.2574 277.391 45.3387 277.719 45.5012C278.047 45.6605 278.305 45.8809 278.492 46.1621C278.683 46.4434 278.778 46.7652 278.778 47.1277ZM277.906 47.109C277.906 46.8559 277.852 46.6324 277.742 46.4387C277.633 46.2418 277.48 46.0887 277.283 45.9793C277.086 45.8699 276.858 45.8152 276.598 45.8152C276.333 45.8152 276.103 45.8699 275.909 45.9793C275.719 46.0887 275.57 46.2418 275.464 46.4387C275.358 46.6324 275.305 46.8559 275.305 47.109C275.305 47.3715 275.356 47.5965 275.459 47.784C275.566 47.9684 275.716 48.1105 275.909 48.2105C276.106 48.3074 276.339 48.3559 276.608 48.3559C276.877 48.3559 277.108 48.3074 277.302 48.2105C277.495 48.1105 277.644 47.9684 277.747 47.784C277.853 47.5965 277.906 47.3715 277.906 47.109ZM278.619 43.9262C278.619 44.2574 278.531 44.5559 278.356 44.8215C278.181 45.0871 277.942 45.2965 277.639 45.4496C277.336 45.6027 276.992 45.6793 276.608 45.6793C276.217 45.6793 275.869 45.6027 275.562 45.4496C275.259 45.2965 275.022 45.0871 274.85 44.8215C274.678 44.5559 274.592 44.2574 274.592 43.9262C274.592 43.5293 274.678 43.1918 274.85 42.9137C275.025 42.6355 275.264 42.423 275.567 42.2762C275.87 42.1293 276.216 42.0559 276.603 42.0559C276.994 42.0559 277.341 42.1293 277.644 42.2762C277.947 42.423 278.184 42.6355 278.356 42.9137C278.531 43.1918 278.619 43.5293 278.619 43.9262ZM277.752 43.9402C277.752 43.7121 277.703 43.5105 277.606 43.3355C277.509 43.1605 277.375 43.023 277.203 42.923C277.031 42.8199 276.831 42.7684 276.603 42.7684C276.375 42.7684 276.175 42.8168 276.003 42.9137C275.834 43.0074 275.702 43.1418 275.605 43.3168C275.511 43.4918 275.464 43.6996 275.464 43.9402C275.464 44.1746 275.511 44.3793 275.605 44.5543C275.702 44.7293 275.836 44.8652 276.008 44.9621C276.18 45.059 276.38 45.1074 276.608 45.1074C276.836 45.1074 277.034 45.059 277.203 44.9621C277.375 44.8652 277.509 44.7293 277.606 44.5543C277.703 44.3793 277.752 44.1746 277.752 43.9402Z" fill="#232426"/>
<rect x="309.398" y="51.1997" width="0.8" height="25.6" fill="#232426"/>
<rect x="292.508" y="58.3997" width="0.8" height="18.4" fill="#232426"/>
<rect x="295.891" y="62.3997" width="0.8" height="14.4" fill="#232426"/>
<rect x="279" y="62.3997" width="0.8" height="14.4" fill="#232426"/>
<rect x="299.266" y="62.3997" width="0.8" height="14.4" fill="#232426"/>
<rect x="282.375" y="62.3997" width="0.8" height="14.4" fill="#232426"/>
<rect x="302.641" y="62.3997" width="0.8" height="14.4" fill="#232426"/>
<rect x="285.758" y="62.3997" width="0.8" height="14.4" fill="#232426"/>
<rect x="306.023" y="62.3997" width="0.8" height="14.4" fill="#232426"/>
<rect x="289.133" y="62.3997" width="0.8" height="14.4" fill="#232426"/>
<path d="M308.533 48.248L308.622 48.248C309.122 48.248 309.528 48.1777 309.841 48.0371C310.153 47.8965 310.394 47.7074 310.562 47.4699C310.731 47.2324 310.847 46.9652 310.909 46.6684C310.972 46.3684 311.003 46.0605 311.003 45.7449L311.003 44.6996C311.003 44.3902 310.967 44.1152 310.895 43.8746C310.827 43.634 310.73 43.4324 310.605 43.2699C310.483 43.1074 310.344 42.984 310.187 42.8996C310.031 42.8152 309.866 42.773 309.691 42.773C309.491 42.773 309.311 42.8137 309.152 42.8949C308.995 42.973 308.862 43.084 308.753 43.2277C308.647 43.3715 308.566 43.5402 308.509 43.734C308.453 43.9277 308.425 44.1387 308.425 44.3668C308.425 44.5699 308.45 44.7668 308.5 44.9574C308.55 45.148 308.627 45.3199 308.73 45.473C308.833 45.6262 308.961 45.748 309.114 45.8387C309.27 45.9262 309.453 45.9699 309.662 45.9699C309.856 45.9699 310.037 45.9324 310.206 45.8574C310.378 45.7793 310.53 45.6746 310.661 45.5434C310.795 45.409 310.902 45.2574 310.98 45.0887C311.061 44.9199 311.108 44.7434 311.12 44.559L311.533 44.559C311.533 44.8184 311.481 45.0746 311.378 45.3277C311.278 45.5777 311.138 45.8059 310.956 46.0121C310.775 46.2184 310.562 46.384 310.319 46.509C310.075 46.6309 309.809 46.6918 309.522 46.6918C309.184 46.6918 308.892 46.6262 308.645 46.4949C308.398 46.3637 308.195 46.1887 308.036 45.9699C307.88 45.7512 307.762 45.5074 307.684 45.2387C307.609 44.9668 307.572 44.6918 307.572 44.4137C307.572 44.0887 307.617 43.784 307.708 43.4996C307.798 43.2152 307.933 42.9652 308.111 42.7496C308.289 42.5309 308.509 42.3605 308.772 42.2387C309.037 42.1168 309.344 42.0559 309.691 42.0559C310.081 42.0559 310.414 42.134 310.689 42.2902C310.964 42.4465 311.188 42.6559 311.359 42.9184C311.534 43.1809 311.663 43.4762 311.744 43.8043C311.825 44.1324 311.866 44.4699 311.866 44.8168L311.866 45.1309C311.866 45.484 311.842 45.8434 311.795 46.209C311.752 46.5715 311.666 46.9184 311.538 47.2496C311.413 47.5809 311.23 47.8777 310.989 48.1402C310.748 48.3996 310.434 48.6059 310.047 48.759C309.662 48.909 309.187 48.984 308.622 48.984L308.533 48.984L308.533 48.248Z" fill="#232426"/>
<rect x="342.602" y="51.1997" width="0.8" height="25.6" fill="#232426"/>
<rect x="325.711" y="58.3997" width="0.8" height="18.4" fill="#232426"/>
<rect x="329.094" y="62.3997" width="0.8" height="14.4" fill="#232426"/>
<rect x="312.203" y="62.3997" width="0.8" height="14.4" fill="#232426"/>
<rect x="332.469" y="62.3997" width="0.8" height="14.4" fill="#232426"/>
<rect x="315.578" y="62.3997" width="0.8" height="14.4" fill="#232426"/>
<rect x="335.844" y="62.3997" width="0.8" height="14.4" fill="#232426"/>
<rect x="318.961" y="62.3997" width="0.8" height="14.4" fill="#232426"/>
<rect x="339.227" y="62.3997" width="0.8" height="14.4" fill="#232426"/>
<rect x="322.336" y="62.3997" width="0.8" height="14.4" fill="#232426"/>
<path d="M341.023 42.1121L341.023 48.9746L340.156 48.9746L340.156 43.1949L338.408 43.8324L338.408 43.0496L340.887 42.1121L341.023 42.1121ZM347.858 45.0184L347.858 46.059C347.858 46.6184 347.808 47.0902 347.708 47.4746C347.608 47.859 347.464 48.1684 347.277 48.4027C347.089 48.6371 346.863 48.8074 346.597 48.9137C346.334 49.0168 346.038 49.0684 345.706 49.0684C345.444 49.0684 345.202 49.0355 344.98 48.9699C344.758 48.9043 344.558 48.7996 344.38 48.6559C344.205 48.509 344.055 48.3184 343.93 48.084C343.805 47.8496 343.709 47.5652 343.644 47.2309C343.578 46.8965 343.545 46.5059 343.545 46.059L343.545 45.0184C343.545 44.459 343.595 43.9902 343.695 43.6121C343.798 43.234 343.944 42.9309 344.131 42.7027C344.319 42.4715 344.544 42.3059 344.806 42.2059C345.072 42.1059 345.369 42.0559 345.697 42.0559C345.963 42.0559 346.206 42.0887 346.428 42.1543C346.653 42.2168 346.853 42.3184 347.028 42.459C347.203 42.5965 347.352 42.7809 347.473 43.0121C347.598 43.2402 347.694 43.5199 347.759 43.8512C347.825 44.1824 347.858 44.5715 347.858 45.0184ZM346.986 46.1996L346.986 44.873C346.986 44.5668 346.967 44.298 346.93 44.0668C346.895 43.8324 346.844 43.6324 346.775 43.4668C346.706 43.3012 346.619 43.1668 346.513 43.0637C346.409 42.9605 346.289 42.8855 346.152 42.8387C346.017 42.7887 345.866 42.7637 345.697 42.7637C345.491 42.7637 345.308 42.8027 345.148 42.8809C344.989 42.9559 344.855 43.0762 344.745 43.2418C344.639 43.4074 344.558 43.6246 344.502 43.8934C344.445 44.1621 344.417 44.4887 344.417 44.873L344.417 46.1996C344.417 46.5059 344.434 46.7762 344.469 47.0105C344.506 47.2449 344.561 47.448 344.633 47.6199C344.705 47.7887 344.792 47.9277 344.895 48.0371C344.998 48.1465 345.117 48.2277 345.252 48.2809C345.389 48.3309 345.541 48.3559 345.706 48.3559C345.919 48.3559 346.105 48.3152 346.264 48.234C346.423 48.1527 346.556 48.0262 346.663 47.8543C346.772 47.6793 346.853 47.4559 346.906 47.184C346.959 46.909 346.986 46.5809 346.986 46.1996Z" fill="#232426"/>
<rect x="375.805" y="51.1997" width="0.8" height="25.6" fill="#232426"/>
<rect x="358.914" y="58.3997" width="0.8" height="18.4" fill="#232426"/>
<rect x="362.297" y="62.3997" width="0.8" height="14.4" fill="#232426"/>
<rect x="345.406" y="62.3997" width="0.8" height="14.4" fill="#232426"/>
<rect x="365.672" y="62.3997" width="0.8" height="14.4" fill="#232426"/>
<rect x="348.781" y="62.3997" width="0.8" height="14.4" fill="#232426"/>
<rect x="369.047" y="62.3997" width="0.8" height="14.4" fill="#232426"/>
<rect x="352.164" y="62.3997" width="0.8" height="14.4" fill="#232426"/>
<rect x="372.43" y="62.3997" width="0.8" height="14.4" fill="#232426"/>
<rect x="355.539" y="62.3997" width="0.8" height="14.4" fill="#232426"/>
<path d="M374.227 42.1121L374.227 48.9746L373.359 48.9746L373.359 43.1949L371.611 43.8324L371.611 43.0496L374.091 42.1121L374.227 42.1121ZM379.627 42.1121L379.627 48.9746L378.759 48.9746L378.759 43.1949L377.011 43.8324L377.011 43.0496L379.491 42.1121L379.627 42.1121Z" fill="#232426"/>
<rect x="409" y="51.1997" width="0.8" height="25.6" fill="#232426"/>
<rect x="392.109" y="58.3997" width="0.8" height="18.4" fill="#232426"/>
<rect x="395.492" y="62.3997" width="0.8" height="14.4" fill="#232426"/>
<rect x="378.602" y="62.3997" width="0.8" height="14.4" fill="#232426"/>
<rect x="398.867" y="62.3997" width="0.8" height="14.4" fill="#232426"/>
<rect x="381.977" y="62.3997" width="0.8" height="14.4" fill="#232426"/>
<rect x="402.242" y="62.3997" width="0.8" height="14.4" fill="#232426"/>
<rect x="385.359" y="62.3997" width="0.8" height="14.4" fill="#232426"/>
<rect x="405.625" y="62.3997" width="0.8" height="14.4" fill="#232426"/>
<rect x="388.734" y="62.3997" width="0.8" height="14.4" fill="#232426"/>
<path d="M407.422 42.1121L407.422 48.9746L406.555 48.9746L406.555 43.1949L404.806 43.8324L404.806 43.0496L407.286 42.1121L407.422 42.1121ZM414.444 48.2621L414.444 48.9746L409.977 48.9746L409.977 48.3512L412.213 45.8621C412.488 45.5559 412.7 45.2965 412.85 45.084C413.003 44.8684 413.109 44.6762 413.169 44.5074C413.231 44.3355 413.263 44.1605 413.263 43.9824C413.263 43.7574 413.216 43.5543 413.122 43.373C413.031 43.1887 412.897 43.0418 412.719 42.9324C412.541 42.823 412.325 42.7684 412.072 42.7684C411.769 42.7684 411.516 42.8277 411.312 42.9465C411.112 43.0621 410.962 43.2246 410.862 43.434C410.762 43.6434 410.712 43.884 410.712 44.1559L409.845 44.1559C409.845 43.7715 409.93 43.4199 410.098 43.1012C410.267 42.7824 410.517 42.5293 410.848 42.3418C411.18 42.1512 411.587 42.0559 412.072 42.0559C412.503 42.0559 412.872 42.1324 413.178 42.2855C413.484 42.4355 413.719 42.648 413.881 42.923C414.047 43.1949 414.13 43.5137 414.13 43.8793C414.13 44.0793 414.095 44.2824 414.027 44.4887C413.961 44.6918 413.869 44.8949 413.75 45.098C413.634 45.3012 413.498 45.5012 413.342 45.698C413.189 45.8949 413.025 46.0887 412.85 46.2793L411.022 48.2621L414.444 48.2621Z" fill="#232426"/>
<rect x="442.203" y="51.1997" width="0.8" height="25.6" fill="#232426"/>
<rect x="425.312" y="58.3997" width="0.8" height="18.4" fill="#232426"/>
<rect x="428.695" y="62.3997" width="0.8" height="14.4" fill="#232426"/>
<rect x="411.805" y="62.3997" width="0.8" height="14.4" fill="#232426"/>
<rect x="432.07" y="62.3997" width="0.8" height="14.4" fill="#232426"/>
<rect x="415.18" y="62.3997" width="0.8" height="14.4" fill="#232426"/>
<rect x="435.445" y="62.3997" width="0.8" height="14.4" fill="#232426"/>
<rect x="418.562" y="62.3997" width="0.8" height="14.4" fill="#232426"/>
<rect x="438.828" y="62.3997" width="0.8" height="14.4" fill="#232426"/>
<rect x="421.938" y="62.3997" width="0.8" height="14.4" fill="#232426"/>
<path d="M440.625 42.1121L440.625 48.9746L439.758 48.9746L439.758 43.1949L438.009 43.8324L438.009 43.0496L440.489 42.1121L440.625 42.1121ZM444.441 45.1355L445.059 45.1355C445.363 45.1355 445.613 45.0855 445.809 44.9855C446.009 44.8824 446.158 44.7434 446.255 44.5684C446.355 44.3902 446.405 44.1902 446.405 43.9684C446.405 43.7059 446.361 43.4855 446.273 43.3074C446.186 43.1293 446.055 42.9949 445.88 42.9043C445.705 42.8137 445.483 42.7684 445.214 42.7684C444.97 42.7684 444.755 42.8168 444.567 42.9137C444.383 43.0074 444.237 43.1418 444.131 43.3168C444.028 43.4918 443.977 43.698 443.977 43.9355L443.109 43.9355C443.109 43.5887 443.197 43.273 443.372 42.9887C443.547 42.7043 443.792 42.4777 444.108 42.309C444.427 42.1402 444.795 42.0559 445.214 42.0559C445.627 42.0559 445.988 42.1293 446.297 42.2762C446.606 42.4199 446.847 42.6355 447.019 42.923C447.191 43.2074 447.277 43.5621 447.277 43.9871C447.277 44.159 447.236 44.3434 447.155 44.5402C447.077 44.734 446.953 44.9152 446.784 45.084C446.619 45.2527 446.403 45.3918 446.138 45.5012C445.872 45.6074 445.553 45.6605 445.181 45.6605L444.441 45.6605L444.441 45.1355ZM444.441 45.848L444.441 45.3277L445.181 45.3277C445.616 45.3277 445.975 45.3793 446.259 45.4824C446.544 45.5855 446.767 45.723 446.93 45.8949C447.095 46.0668 447.211 46.2559 447.277 46.4621C447.345 46.6652 447.38 46.8684 447.38 47.0715C447.38 47.3902 447.325 47.673 447.216 47.9199C447.109 48.1668 446.958 48.3762 446.761 48.548C446.567 48.7199 446.339 48.8496 446.077 48.9371C445.814 49.0246 445.528 49.0684 445.219 49.0684C444.922 49.0684 444.642 49.0262 444.38 48.9418C444.12 48.8574 443.891 48.7355 443.691 48.5762C443.491 48.4137 443.334 48.2152 443.222 47.9809C443.109 47.7434 443.053 47.473 443.053 47.1699L443.92 47.1699C443.92 47.4074 443.972 47.6152 444.075 47.7934C444.181 47.9715 444.331 48.1105 444.525 48.2105C444.722 48.3074 444.953 48.3559 445.219 48.3559C445.484 48.3559 445.713 48.3105 445.903 48.2199C446.097 48.1262 446.245 47.9855 446.348 47.798C446.455 47.6105 446.508 47.3746 446.508 47.0902C446.508 46.8059 446.448 46.573 446.33 46.3918C446.211 46.2074 446.042 46.0715 445.823 45.984C445.608 45.8934 445.353 45.848 445.059 45.848L444.441 45.848Z" fill="#232426"/>
<rect x="475.398" y="51.1997" width="0.8" height="25.6" fill="#232426"/>
<rect x="458.508" y="58.3997" width="0.8" height="18.4" fill="#232426"/>
<rect x="461.891" y="62.3997" width="0.8" height="14.4" fill="#232426"/>
<rect x="445" y="62.3997" width="0.8" height="14.4" fill="#232426"/>
<rect x="465.266" y="62.3997" width="0.8" height="14.4" fill="#232426"/>
<rect x="448.375" y="62.3997" width="0.8" height="14.4" fill="#232426"/>
<rect x="468.641" y="62.3997" width="0.8" height="14.4" fill="#232426"/>
<rect x="451.758" y="62.3997" width="0.8" height="14.4" fill="#232426"/>
<rect x="472.023" y="62.3997" width="0.8" height="14.4" fill="#232426"/>
<rect x="455.133" y="62.3997" width="0.8" height="14.4" fill="#232426"/>
<path d="M473.82 42.1121L473.82 48.9746L472.953 48.9746L472.953 43.1949L471.205 43.8324L471.205 43.0496L473.684 42.1121L473.82 42.1121ZM480.983 46.6777L480.983 47.3902L476.052 47.3902L476.052 46.8793L479.108 42.1496L479.816 42.1496L479.056 43.5184L477.036 46.6777L480.983 46.6777ZM480.031 42.1496L480.031 48.9746L479.164 48.9746L479.164 42.1496L480.031 42.1496Z" fill="#232426"/>
<rect x="508.602" y="51.1997" width="0.8" height="25.6" fill="#232426"/>
<rect x="491.711" y="58.3997" width="0.8" height="18.4" fill="#232426"/>
<rect x="495.094" y="62.3997" width="0.8" height="14.4" fill="#232426"/>
<rect x="478.203" y="62.3997" width="0.8" height="14.4" fill="#232426"/>
<rect x="498.469" y="62.3997" width="0.8" height="14.4" fill="#232426"/>
<rect x="481.578" y="62.3997" width="0.8" height="14.4" fill="#232426"/>
<rect x="501.844" y="62.3997" width="0.8" height="14.4" fill="#232426"/>
<rect x="484.961" y="62.3997" width="0.8" height="14.4" fill="#232426"/>
<rect x="505.227" y="62.3997" width="0.8" height="14.4" fill="#232426"/>
<rect x="488.336" y="62.3997" width="0.8" height="14.4" fill="#232426"/>
<path d="M507.023 42.1121L507.023 48.9746L506.156 48.9746L506.156 43.1949L504.408 43.8324L504.408 43.0496L506.887 42.1121L507.023 42.1121ZM510.67 45.7262L509.977 45.548L510.319 42.1496L513.82 42.1496L513.82 42.9512L511.055 42.9512L510.848 44.8074C510.973 44.7355 511.131 44.6684 511.322 44.6059C511.516 44.5434 511.738 44.5121 511.988 44.5121C512.303 44.5121 512.586 44.5668 512.836 44.6762C513.086 44.7824 513.298 44.9355 513.473 45.1355C513.652 45.3355 513.788 45.5762 513.881 45.8574C513.975 46.1387 514.022 46.4527 514.022 46.7996C514.022 47.1277 513.977 47.4293 513.886 47.7043C513.798 47.9793 513.666 48.2199 513.488 48.4262C513.309 48.6293 513.084 48.7871 512.813 48.8996C512.544 49.0121 512.227 49.0684 511.861 49.0684C511.586 49.0684 511.325 49.0309 511.078 48.9559C510.834 48.8777 510.616 48.7605 510.422 48.6043C510.231 48.4449 510.075 48.248 509.953 48.0137C509.834 47.7762 509.759 47.498 509.728 47.1793L510.553 47.1793C510.591 47.4355 510.666 47.6512 510.778 47.8262C510.891 48.0012 511.037 48.134 511.219 48.2246C511.403 48.3121 511.617 48.3559 511.861 48.3559C512.067 48.3559 512.25 48.3199 512.409 48.248C512.569 48.1762 512.703 48.073 512.813 47.9387C512.922 47.8043 513.005 47.6418 513.061 47.4512C513.12 47.2605 513.15 47.0465 513.15 46.809C513.15 46.5934 513.12 46.3934 513.061 46.209C513.002 46.0246 512.913 45.8637 512.794 45.7262C512.678 45.5887 512.536 45.4824 512.367 45.4074C512.198 45.3293 512.005 45.2902 511.786 45.2902C511.495 45.2902 511.275 45.3293 511.125 45.4074C510.978 45.4855 510.827 45.5918 510.67 45.7262Z" fill="#232426"/>
<rect x="541.805" y="51.1997" width="0.8" height="25.6" fill="#232426"/>
<rect x="524.914" y="58.3997" width="0.8" height="18.4" fill="#232426"/>
<rect x="528.297" y="62.3997" width="0.8" height="14.4" fill="#232426"/>
<rect x="511.406" y="62.3997" width="0.8" height="14.4" fill="#232426"/>
<rect x="531.672" y="62.3997" width="0.8" height="14.4" fill="#232426"/>
<rect x="514.781" y="62.3997" width="0.8" height="14.4" fill="#232426"/>
<rect x="535.047" y="62.3997" width="0.8" height="14.4" fill="#232426"/>
<rect x="518.164" y="62.3997" width="0.8" height="14.4" fill="#232426"/>
<rect x="538.43" y="62.3997" width="0.8" height="14.4" fill="#232426"/>
<rect x="521.539" y="62.3997" width="0.8" height="14.4" fill="#232426"/>
<path d="M540.227 42.1121L540.227 48.9746L539.359 48.9746L539.359 43.1949L537.611 43.8324L537.611 43.0496L540.091 42.1121L540.227 42.1121ZM546.105 42.1402L546.18 42.1402L546.18 42.8762L546.105 42.8762C545.645 42.8762 545.261 42.9512 544.952 43.1012C544.642 43.248 544.397 43.4465 544.216 43.6965C544.034 43.9434 543.903 44.2215 543.822 44.5309C543.744 44.8402 543.705 45.1543 543.705 45.473L543.705 46.4762C543.705 46.7793 543.741 47.048 543.812 47.2824C543.884 47.5137 543.983 47.709 544.108 47.8684C544.233 48.0277 544.373 48.148 544.53 48.2293C544.689 48.3105 544.855 48.3512 545.027 48.3512C545.227 48.3512 545.405 48.3137 545.561 48.2387C545.717 48.1605 545.848 48.0527 545.955 47.9152C546.064 47.7746 546.147 47.609 546.203 47.4184C546.259 47.2277 546.288 47.0184 546.288 46.7902C546.288 46.5871 546.263 46.3918 546.213 46.2043C546.163 46.0137 546.086 45.8449 545.983 45.698C545.88 45.548 545.75 45.4309 545.594 45.3465C545.441 45.259 545.258 45.2152 545.045 45.2152C544.805 45.2152 544.58 45.2746 544.37 45.3934C544.164 45.509 543.994 45.6621 543.859 45.8527C543.728 46.0402 543.653 46.2449 543.634 46.4668L543.175 46.4621C543.219 46.1121 543.3 45.8137 543.419 45.5668C543.541 45.3168 543.691 45.1137 543.869 44.9574C544.05 44.798 544.252 44.6824 544.473 44.6105C544.698 44.5355 544.936 44.498 545.186 44.498C545.527 44.498 545.82 44.5621 546.067 44.6902C546.314 44.8184 546.517 44.9902 546.677 45.2059C546.836 45.4184 546.953 45.659 547.028 45.9277C547.106 46.1934 547.145 46.4668 547.145 46.748C547.145 47.0699 547.1 47.3715 547.009 47.6527C546.919 47.934 546.783 48.1809 546.602 48.3934C546.423 48.6059 546.203 48.7715 545.941 48.8902C545.678 49.009 545.373 49.0684 545.027 49.0684C544.658 49.0684 544.336 48.9934 544.061 48.8434C543.786 48.6902 543.558 48.4871 543.377 48.234C543.195 47.9809 543.059 47.6996 542.969 47.3902C542.878 47.0809 542.833 46.7668 542.833 46.448L542.833 46.0402C542.833 45.559 542.881 45.0871 542.978 44.6246C543.075 44.1621 543.242 43.7434 543.48 43.3684C543.72 42.9934 544.053 42.6949 544.478 42.473C544.903 42.2512 545.445 42.1402 546.105 42.1402Z" fill="#232426"/>
<rect x="575" y="51.1997" width="0.8" height="25.6" fill="#232426"/>
<rect x="558.109" y="58.3997" width="0.8" height="18.4" fill="#232426"/>
<rect x="561.492" y="62.3997" width="0.8" height="14.4" fill="#232426"/>
<rect x="544.602" y="62.3997" width="0.8" height="14.4" fill="#232426"/>
<rect x="564.867" y="62.3997" width="0.8" height="14.4" fill="#232426"/>
<rect x="547.977" y="62.3997" width="0.8" height="14.4" fill="#232426"/>
<rect x="568.242" y="62.3997" width="0.8" height="14.4" fill="#232426"/>
<rect x="551.359" y="62.3997" width="0.8" height="14.4" fill="#232426"/>
<rect x="571.625" y="62.3997" width="0.8" height="14.4" fill="#232426"/>
<rect x="554.734" y="62.3997" width="0.8" height="14.4" fill="#232426"/>
<path d="M573.422 42.1121L573.422 48.9746L572.555 48.9746L572.555 43.1949L570.806 43.8324L570.806 43.0496L573.286 42.1121L573.422 42.1121ZM580.383 42.1496L580.383 42.6371L577.556 48.9746L576.642 48.9746L579.464 42.8621L575.77 42.8621L575.77 42.1496L580.383 42.1496Z" fill="#232426"/>
<rect x="608.203" y="51.1997" width="0.8" height="25.6" fill="#232426"/>
<rect x="591.312" y="58.3997" width="0.8" height="18.4" fill="#232426"/>
<rect x="594.695" y="62.3997" width="0.8" height="14.4" fill="#232426"/>
<rect x="577.805" y="62.3997" width="0.8" height="14.4" fill="#232426"/>
<rect x="598.07" y="62.3997" width="0.8" height="14.4" fill="#232426"/>
<rect x="581.18" y="62.3997" width="0.8" height="14.4" fill="#232426"/>
<rect x="601.445" y="62.3997" width="0.8" height="14.4" fill="#232426"/>
<rect x="584.562" y="62.3997" width="0.8" height="14.4" fill="#232426"/>
<rect x="604.828" y="62.3997" width="0.8" height="14.4" fill="#232426"/>
<rect x="587.938" y="62.3997" width="0.8" height="14.4" fill="#232426"/>
<path d="M606.625 42.1121L606.625 48.9746L605.758 48.9746L605.758 43.1949L604.009 43.8324L604.009 43.0496L606.489 42.1121L606.625 42.1121ZM613.478 47.1277C613.478 47.5434 613.381 47.8965 613.188 48.1871C612.997 48.4746 612.738 48.6934 612.409 48.8434C612.084 48.9934 611.717 49.0684 611.308 49.0684C610.898 49.0684 610.53 48.9934 610.202 48.8434C609.873 48.6934 609.614 48.4746 609.423 48.1871C609.233 47.8965 609.137 47.5434 609.137 47.1277C609.137 46.8559 609.189 46.6074 609.292 46.3824C609.398 46.1543 609.547 45.9559 609.737 45.7871C609.931 45.6184 610.159 45.4887 610.422 45.398C610.687 45.3043 610.98 45.2574 611.298 45.2574C611.717 45.2574 612.091 45.3387 612.419 45.5012C612.747 45.6605 613.005 45.8809 613.192 46.1621C613.383 46.4434 613.478 46.7652 613.478 47.1277ZM612.606 47.109C612.606 46.8559 612.552 46.6324 612.442 46.4387C612.333 46.2418 612.18 46.0887 611.983 45.9793C611.786 45.8699 611.558 45.8152 611.298 45.8152C611.033 45.8152 610.803 45.8699 610.609 45.9793C610.419 46.0887 610.27 46.2418 610.164 46.4387C610.058 46.6324 610.005 46.8559 610.005 47.109C610.005 47.3715 610.056 47.5965 610.159 47.784C610.266 47.9684 610.416 48.1105 610.609 48.2105C610.806 48.3074 611.039 48.3559 611.308 48.3559C611.577 48.3559 611.808 48.3074 612.002 48.2105C612.195 48.1105 612.344 47.9684 612.447 47.784C612.553 47.5965 612.606 47.3715 612.606 47.109ZM613.319 43.9262C613.319 44.2574 613.231 44.5559 613.056 44.8215C612.881 45.0871 612.642 45.2965 612.339 45.4496C612.036 45.6027 611.692 45.6793 611.308 45.6793C610.917 45.6793 610.569 45.6027 610.262 45.4496C609.959 45.2965 609.722 45.0871 609.55 44.8215C609.378 44.5559 609.292 44.2574 609.292 43.9262C609.292 43.5293 609.378 43.1918 609.55 42.9137C609.725 42.6355 609.964 42.423 610.267 42.2762C610.57 42.1293 610.916 42.0559 611.303 42.0559C611.694 42.0559 612.041 42.1293 612.344 42.2762C612.647 42.423 612.884 42.6355 613.056 42.9137C613.231 43.1918 613.319 43.5293 613.319 43.9262ZM612.452 43.9402C612.452 43.7121 612.403 43.5105 612.306 43.3355C612.209 43.1605 612.075 43.023 611.903 42.923C611.731 42.8199 611.531 42.7684 611.303 42.7684C611.075 42.7684 610.875 42.8168 610.703 42.9137C610.534 43.0074 610.402 43.1418 610.305 43.3168C610.211 43.4918 610.164 43.6996 610.164 43.9402C610.164 44.1746 610.211 44.3793 610.305 44.5543C610.402 44.7293 610.536 44.8652 610.708 44.9621C610.88 45.059 611.08 45.1074 611.308 45.1074C611.536 45.1074 611.734 45.059 611.903 44.9621C612.075 44.8652 612.209 44.7293 612.306 44.5543C612.403 44.3793 612.452 44.1746 612.452 43.9402Z" fill="#232426"/>
<rect x="641.398" y="51.1997" width="0.8" height="25.6" fill="#232426"/>
<rect x="624.508" y="58.3997" width="0.8" height="18.4" fill="#232426"/>
<rect x="627.891" y="62.3997" width="0.8" height="14.4" fill="#232426"/>
<rect x="611" y="62.3997" width="0.8" height="14.4" fill="#232426"/>
<rect x="631.266" y="62.3997" width="0.8" height="14.4" fill="#232426"/>
<rect x="614.375" y="62.3997" width="0.8" height="14.4" fill="#232426"/>
<rect x="634.641" y="62.3997" width="0.8" height="14.4" fill="#232426"/>
<rect x="617.758" y="62.3997" width="0.8" height="14.4" fill="#232426"/>
<rect x="638.023" y="62.3997" width="0.8" height="14.4" fill="#232426"/>
<rect x="621.133" y="62.3997" width="0.8" height="14.4" fill="#232426"/>
<path d="M639.82 42.1121L639.82 48.9746L638.953 48.9746L638.953 43.1949L637.205 43.8324L637.205 43.0496L639.684 42.1121L639.82 42.1121ZM643.233 48.248L643.322 48.248C643.822 48.248 644.228 48.1777 644.541 48.0371C644.853 47.8965 645.094 47.7074 645.263 47.4699C645.431 47.2324 645.547 46.9652 645.609 46.6684C645.672 46.3684 645.703 46.0605 645.703 45.7449L645.703 44.6996C645.703 44.3902 645.667 44.1152 645.595 43.8746C645.527 43.634 645.43 43.4324 645.305 43.2699C645.183 43.1074 645.044 42.984 644.888 42.8996C644.731 42.8152 644.566 42.773 644.391 42.773C644.191 42.773 644.011 42.8137 643.852 42.8949C643.695 42.973 643.562 43.084 643.453 43.2277C643.347 43.3715 643.266 43.5402 643.209 43.734C643.153 43.9277 643.125 44.1387 643.125 44.3668C643.125 44.5699 643.15 44.7668 643.2 44.9574C643.25 45.148 643.327 45.3199 643.43 45.473C643.533 45.6262 643.661 45.748 643.814 45.8387C643.97 45.9262 644.153 45.9699 644.363 45.9699C644.556 45.9699 644.738 45.9324 644.906 45.8574C645.078 45.7793 645.23 45.6746 645.361 45.5434C645.495 45.409 645.602 45.2574 645.68 45.0887C645.761 44.9199 645.808 44.7434 645.82 44.559L646.233 44.559C646.233 44.8184 646.181 45.0746 646.078 45.3277C645.978 45.5777 645.838 45.8059 645.656 46.0121C645.475 46.2184 645.263 46.384 645.019 46.509C644.775 46.6309 644.509 46.6918 644.222 46.6918C643.884 46.6918 643.592 46.6262 643.345 46.4949C643.098 46.3637 642.895 46.1887 642.736 45.9699C642.58 45.7512 642.462 45.5074 642.384 45.2387C642.309 44.9668 642.272 44.6918 642.272 44.4137C642.272 44.0887 642.317 43.784 642.408 43.4996C642.498 43.2152 642.633 42.9652 642.811 42.7496C642.989 42.5309 643.209 42.3605 643.472 42.2387C643.737 42.1168 644.044 42.0559 644.391 42.0559C644.781 42.0559 645.114 42.134 645.389 42.2902C645.664 42.4465 645.888 42.6559 646.059 42.9184C646.234 43.1809 646.363 43.4762 646.444 43.8043C646.525 44.1324 646.566 44.4699 646.566 44.8168L646.566 45.1309C646.566 45.484 646.542 45.8434 646.495 46.209C646.452 46.5715 646.366 46.9184 646.238 47.2496C646.113 47.5809 645.93 47.8777 645.689 48.1402C645.448 48.3996 645.134 48.6059 644.747 48.759C644.363 48.909 643.887 48.984 643.322 48.984L643.233 48.984L643.233 48.248Z" fill="#232426"/>
<rect x="674.602" y="51.1997" width="0.8" height="25.6" fill="#232426"/>
<rect x="657.711" y="58.3997" width="0.8" height="18.4" fill="#232426"/>
<rect x="661.094" y="62.3997" width="0.8" height="14.4" fill="#232426"/>
<rect x="644.203" y="62.3997" width="0.8" height="14.4" fill="#232426"/>
<rect x="664.469" y="62.3997" width="0.8" height="14.4" fill="#232426"/>
<rect x="647.578" y="62.3997" width="0.8" height="14.4" fill="#232426"/>
<rect x="667.844" y="62.3997" width="0.8" height="14.4" fill="#232426"/>
<rect x="650.961" y="62.3997" width="0.8" height="14.4" fill="#232426"/>
<rect x="671.227" y="62.3997" width="0.8" height="14.4" fill="#232426"/>
<rect x="654.336" y="62.3997" width="0.8" height="14.4" fill="#232426"/>
<path d="M674.645 48.2621L674.645 48.9746L670.178 48.9746L670.178 48.3512L672.414 45.8621C672.689 45.5559 672.902 45.2965 673.052 45.084C673.205 44.8684 673.311 44.6762 673.37 44.5074C673.433 44.3355 673.464 44.1605 673.464 43.9824C673.464 43.7574 673.417 43.5543 673.323 43.373C673.233 43.1887 673.098 43.0418 672.92 42.9324C672.742 42.823 672.527 42.7684 672.273 42.7684C671.97 42.7684 671.717 42.8277 671.514 42.9465C671.314 43.0621 671.164 43.2246 671.064 43.434C670.964 43.6434 670.914 43.884 670.914 44.1559L670.047 44.1559C670.047 43.7715 670.131 43.4199 670.3 43.1012C670.469 42.7824 670.719 42.5293 671.05 42.3418C671.381 42.1512 671.789 42.0559 672.273 42.0559C672.705 42.0559 673.073 42.1324 673.38 42.2855C673.686 42.4355 673.92 42.648 674.083 42.923C674.248 43.1949 674.331 43.5137 674.331 43.8793C674.331 44.0793 674.297 44.2824 674.228 44.4887C674.162 44.6918 674.07 44.8949 673.952 45.098C673.836 45.3012 673.7 45.5012 673.544 45.698C673.391 45.8949 673.227 46.0887 673.052 46.2793L671.223 48.2621L674.645 48.2621ZM679.858 45.0184L679.858 46.059C679.858 46.6184 679.808 47.0902 679.708 47.4746C679.608 47.859 679.464 48.1684 679.277 48.4027C679.089 48.6371 678.863 48.8074 678.597 48.9137C678.334 49.0168 678.038 49.0684 677.706 49.0684C677.444 49.0684 677.202 49.0355 676.98 48.9699C676.758 48.9043 676.558 48.7996 676.38 48.6559C676.205 48.509 676.055 48.3184 675.93 48.084C675.805 47.8496 675.709 47.5652 675.644 47.2309C675.578 46.8965 675.545 46.5059 675.545 46.059L675.545 45.0184C675.545 44.459 675.595 43.9902 675.695 43.6121C675.798 43.234 675.944 42.9309 676.131 42.7027C676.319 42.4715 676.544 42.3059 676.806 42.2059C677.072 42.1059 677.369 42.0559 677.697 42.0559C677.963 42.0559 678.206 42.0887 678.428 42.1543C678.653 42.2168 678.853 42.3184 679.028 42.459C679.203 42.5965 679.352 42.7809 679.473 43.0121C679.598 43.2402 679.694 43.5199 679.759 43.8512C679.825 44.1824 679.858 44.5715 679.858 45.0184ZM678.986 46.1996L678.986 44.873C678.986 44.5668 678.967 44.298 678.93 44.0668C678.895 43.8324 678.844 43.6324 678.775 43.4668C678.706 43.3012 678.619 43.1668 678.513 43.0637C678.409 42.9605 678.289 42.8855 678.152 42.8387C678.017 42.7887 677.866 42.7637 677.697 42.7637C677.491 42.7637 677.308 42.8027 677.148 42.8809C676.989 42.9559 676.855 43.0762 676.745 43.2418C676.639 43.4074 676.558 43.6246 676.502 43.8934C676.445 44.1621 676.417 44.4887 676.417 44.873L676.417 46.1996C676.417 46.5059 676.434 46.7762 676.469 47.0105C676.506 47.2449 676.561 47.448 676.633 47.6199C676.705 47.7887 676.792 47.9277 676.895 48.0371C676.998 48.1465 677.117 48.2277 677.252 48.2809C677.389 48.3309 677.541 48.3559 677.706 48.3559C677.919 48.3559 678.105 48.3152 678.264 48.234C678.423 48.1527 678.556 48.0262 678.663 47.8543C678.772 47.6793 678.853 47.4559 678.906 47.184C678.959 46.909 678.986 46.5809 678.986 46.1996Z" fill="#232426"/>
</g>
<rect x="0.703125" y="0.5" width="682.2" height="75.8" rx="4.3" stroke="#8D9299"/>
</g>
<defs>
<clipPath id="clip0_4767_26872">
<rect x="0.203125" width="683.2" height="76.8" rx="4.8" fill="white"/>
</clipPath>
</defs>
</svg>
