<svg width="518" height="78" viewBox="0 0 518 78" fill="none" xmlns="http://www.w3.org/2000/svg">
<g opacity="0.7">
<g clip-path="url(#clip0_4281_35810)">
<rect y="0.799805" width="517.2" height="76.8" rx="4.8" fill="#F8F8F8"/>
<rect x="10.3984" y="51.9998" width="0.8" height="25.6" fill="#232426"/>
<path d="M12.9547 45.8187L12.9547 46.8593C12.9547 47.4187 12.9047 47.8905 12.8047 48.2749C12.7047 48.6593 12.5609 48.9687 12.3734 49.203C12.1859 49.4374 11.9594 49.6077 11.6937 49.714C11.4312 49.8171 11.1344 49.8687 10.8031 49.8687C10.5406 49.8687 10.2984 49.8358 10.0766 49.7702C9.85469 49.7046 9.65469 49.5999 9.47656 49.4562C9.30156 49.3093 9.15156 49.1187 9.02656 48.8843C8.90156 48.6499 8.80625 48.3655 8.74062 48.0312C8.675 47.6968 8.64219 47.3062 8.64219 46.8593L8.64219 45.8187C8.64219 45.2593 8.69219 44.7905 8.79219 44.4124C8.89531 44.0343 9.04062 43.7312 9.22812 43.503C9.41562 43.2718 9.64062 43.1062 9.90312 43.0062C10.1687 42.9062 10.4656 42.8562 10.7937 42.8562C11.0594 42.8562 11.3031 42.889 11.525 42.9546C11.75 43.0171 11.95 43.1187 12.125 43.2593C12.3 43.3968 12.4484 43.5812 12.5703 43.8124C12.6953 44.0405 12.7906 44.3202 12.8563 44.6515C12.9219 44.9827 12.9547 45.3718 12.9547 45.8187ZM12.0828 46.9999L12.0828 45.6733C12.0828 45.3671 12.0641 45.0983 12.0266 44.8671C11.9922 44.6327 11.9406 44.4327 11.8719 44.2671C11.8031 44.1015 11.7156 43.9671 11.6094 43.864C11.5062 43.7608 11.3859 43.6858 11.2484 43.639C11.1141 43.589 10.9625 43.564 10.7937 43.564C10.5875 43.564 10.4047 43.603 10.2453 43.6812C10.0859 43.7562 9.95156 43.8765 9.84219 44.0421C9.73594 44.2077 9.65469 44.4249 9.59844 44.6937C9.54219 44.9624 9.51406 45.289 9.51406 45.6733L9.51406 46.9999C9.51406 47.3062 9.53125 47.5765 9.56562 47.8108C9.60312 48.0452 9.65781 48.2483 9.72969 48.4202C9.80156 48.589 9.88906 48.728 9.99219 48.8374C10.0953 48.9468 10.2141 49.028 10.3484 49.0812C10.4859 49.1312 10.6375 49.1562 10.8031 49.1562C11.0156 49.1562 11.2016 49.1155 11.3609 49.0343C11.5203 48.953 11.6531 48.8265 11.7594 48.6546C11.8688 48.4796 11.95 48.2562 12.0031 47.9843C12.0563 47.7093 12.0828 47.3812 12.0828 46.9999Z" fill="#232426"/>
<rect x="43.6016" y="51.9998" width="0.8" height="25.6" fill="#232426"/>
<rect x="26.7109" y="59.1997" width="0.8" height="18.4" fill="#232426"/>
<rect x="30.0938" y="63.1997" width="0.8" height="14.4" fill="#232426"/>
<rect x="13.2031" y="63.1997" width="0.8" height="14.4" fill="#232426"/>
<rect x="33.4688" y="63.1997" width="0.8" height="14.4" fill="#232426"/>
<rect x="16.5781" y="63.1997" width="0.8" height="14.4" fill="#232426"/>
<rect x="36.8438" y="63.1997" width="0.8" height="14.4" fill="#232426"/>
<rect x="19.9609" y="63.1997" width="0.8" height="14.4" fill="#232426"/>
<rect x="40.2266" y="63.1997" width="0.8" height="14.4" fill="#232426"/>
<rect x="23.3359" y="63.1997" width="0.8" height="14.4" fill="#232426"/>
<path d="M44.7234 42.9124L44.7234 49.7749L43.8562 49.7749L43.8562 43.9952L42.1078 44.6327L42.1078 43.8499L44.5875 42.9124L44.7234 42.9124Z" fill="#232426"/>
<rect x="76.7969" y="51.9998" width="0.8" height="25.6" fill="#232426"/>
<rect x="59.9062" y="59.1997" width="0.8" height="18.4" fill="#232426"/>
<rect x="63.2891" y="63.1997" width="0.8" height="14.4" fill="#232426"/>
<rect x="46.3984" y="63.1997" width="0.8" height="14.4" fill="#232426"/>
<rect x="66.6641" y="63.1997" width="0.8" height="14.4" fill="#232426"/>
<rect x="49.7734" y="63.1997" width="0.8" height="14.4" fill="#232426"/>
<rect x="70.0391" y="63.1997" width="0.8" height="14.4" fill="#232426"/>
<rect x="53.1562" y="63.1997" width="0.8" height="14.4" fill="#232426"/>
<rect x="73.4219" y="63.1997" width="0.8" height="14.4" fill="#232426"/>
<rect x="56.5312" y="63.1997" width="0.8" height="14.4" fill="#232426"/>
<path d="M79.5406 49.0624L79.5406 49.7749L75.0734 49.7749L75.0734 49.1515L77.3094 46.6624C77.5844 46.3562 77.7969 46.0968 77.9469 45.8843C78.1 45.6687 78.2063 45.4765 78.2656 45.3077C78.3281 45.1358 78.3594 44.9608 78.3594 44.7827C78.3594 44.5577 78.3125 44.3546 78.2188 44.1733C78.1281 43.989 77.9937 43.8421 77.8156 43.7327C77.6375 43.6233 77.4219 43.5687 77.1687 43.5687C76.8656 43.5687 76.6125 43.628 76.4094 43.7468C76.2094 43.8624 76.0594 44.0249 75.9594 44.2343C75.8594 44.4437 75.8094 44.6843 75.8094 44.9562L74.9422 44.9562C74.9422 44.5718 75.0266 44.2202 75.1953 43.9015C75.3641 43.5827 75.6141 43.3296 75.9453 43.1421C76.2766 42.9515 76.6844 42.8562 77.1687 42.8562C77.6 42.8562 77.9687 42.9327 78.275 43.0858C78.5813 43.2358 78.8156 43.4483 78.9781 43.7233C79.1438 43.9952 79.2266 44.314 79.2266 44.6796C79.2266 44.8796 79.1922 45.0827 79.1234 45.289C79.0578 45.4921 78.9656 45.6952 78.8469 45.8983C78.7313 46.1015 78.5953 46.3015 78.4391 46.4983C78.2859 46.6952 78.1219 46.889 77.9469 47.0796L76.1187 49.0624L79.5406 49.0624Z" fill="#232426"/>
<rect x="110" y="51.9998" width="0.8" height="25.6" fill="#232426"/>
<rect x="93.1094" y="59.1997" width="0.8" height="18.4" fill="#232426"/>
<rect x="96.4922" y="63.1997" width="0.8" height="14.4" fill="#232426"/>
<rect x="79.6016" y="63.1997" width="0.8" height="14.4" fill="#232426"/>
<rect x="99.8672" y="63.1997" width="0.8" height="14.4" fill="#232426"/>
<rect x="82.9766" y="63.1997" width="0.8" height="14.4" fill="#232426"/>
<rect x="103.242" y="63.1997" width="0.8" height="14.4" fill="#232426"/>
<rect x="86.3594" y="63.1997" width="0.8" height="14.4" fill="#232426"/>
<rect x="106.625" y="63.1997" width="0.8" height="14.4" fill="#232426"/>
<rect x="89.7344" y="63.1997" width="0.8" height="14.4" fill="#232426"/>
<path d="M109.537 45.9358L110.156 45.9358C110.459 45.9358 110.709 45.8858 110.906 45.7858C111.106 45.6827 111.255 45.5437 111.352 45.3687C111.452 45.1905 111.502 44.9905 111.502 44.7687C111.502 44.5062 111.458 44.2858 111.37 44.1077C111.283 43.9296 111.152 43.7952 110.977 43.7046C110.802 43.614 110.58 43.5687 110.311 43.5687C110.067 43.5687 109.852 43.6171 109.664 43.714C109.48 43.8077 109.334 43.9421 109.228 44.1171C109.125 44.2921 109.073 44.4983 109.073 44.7358L108.206 44.7358C108.206 44.389 108.294 44.0733 108.469 43.789C108.644 43.5046 108.889 43.278 109.205 43.1093C109.523 42.9405 109.892 42.8562 110.311 42.8562C110.723 42.8562 111.084 42.9296 111.394 43.0765C111.703 43.2202 111.944 43.4358 112.116 43.7233C112.288 44.0077 112.373 44.3624 112.373 44.7874C112.373 44.9593 112.333 45.1437 112.252 45.3405C112.173 45.5343 112.05 45.7155 111.881 45.8843C111.716 46.053 111.5 46.1921 111.234 46.3015C110.969 46.4077 110.65 46.4608 110.278 46.4608L109.537 46.4608L109.537 45.9358ZM109.537 46.6483L109.537 46.128L110.278 46.128C110.712 46.128 111.072 46.1796 111.356 46.2827C111.641 46.3858 111.864 46.5233 112.027 46.6952C112.192 46.8671 112.308 47.0562 112.373 47.2624C112.442 47.4655 112.477 47.6687 112.477 47.8718C112.477 48.1905 112.422 48.4733 112.313 48.7202C112.206 48.9671 112.055 49.1765 111.858 49.3483C111.664 49.5202 111.436 49.6499 111.173 49.7374C110.911 49.8249 110.625 49.8687 110.316 49.8687C110.019 49.8687 109.739 49.8265 109.477 49.7421C109.217 49.6577 108.987 49.5358 108.787 49.3765C108.587 49.214 108.431 49.0155 108.319 48.7812C108.206 48.5437 108.15 48.2733 108.15 47.9702L109.017 47.9702C109.017 48.2077 109.069 48.4155 109.172 48.5937C109.278 48.7718 109.428 48.9108 109.622 49.0108C109.819 49.1077 110.05 49.1562 110.316 49.1562C110.581 49.1562 110.809 49.1108 111 49.0202C111.194 48.9265 111.342 48.7858 111.445 48.5983C111.552 48.4108 111.605 48.1749 111.605 47.8905C111.605 47.6062 111.545 47.3733 111.427 47.1921C111.308 47.0077 111.139 46.8718 110.92 46.7843C110.705 46.6937 110.45 46.6483 110.156 46.6483L109.537 46.6483Z" fill="#232426"/>
<rect x="143.195" y="51.9998" width="0.8" height="25.6" fill="#232426"/>
<rect x="126.305" y="59.1997" width="0.8" height="18.4" fill="#232426"/>
<rect x="129.688" y="63.1997" width="0.8" height="14.4" fill="#232426"/>
<rect x="112.797" y="63.1997" width="0.8" height="14.4" fill="#232426"/>
<rect x="133.062" y="63.1997" width="0.8" height="14.4" fill="#232426"/>
<rect x="116.172" y="63.1997" width="0.8" height="14.4" fill="#232426"/>
<rect x="136.438" y="63.1997" width="0.8" height="14.4" fill="#232426"/>
<rect x="119.555" y="63.1997" width="0.8" height="14.4" fill="#232426"/>
<rect x="139.82" y="63.1997" width="0.8" height="14.4" fill="#232426"/>
<rect x="122.93" y="63.1997" width="0.8" height="14.4" fill="#232426"/>
<path d="M146.08 47.478L146.08 48.1905L141.148 48.1905L141.148 47.6796L144.205 42.9499L144.913 42.9499L144.153 44.3187L142.133 47.478L146.08 47.478ZM145.128 42.9499L145.128 49.7749L144.261 49.7749L144.261 42.9499L145.128 42.9499Z" fill="#232426"/>
<rect x="176.398" y="51.9998" width="0.8" height="25.6" fill="#232426"/>
<rect x="159.508" y="59.1997" width="0.8" height="18.4" fill="#232426"/>
<rect x="162.891" y="63.1997" width="0.8" height="14.4" fill="#232426"/>
<rect x="146" y="63.1997" width="0.8" height="14.4" fill="#232426"/>
<rect x="166.266" y="63.1997" width="0.8" height="14.4" fill="#232426"/>
<rect x="149.375" y="63.1997" width="0.8" height="14.4" fill="#232426"/>
<rect x="169.641" y="63.1997" width="0.8" height="14.4" fill="#232426"/>
<rect x="152.758" y="63.1997" width="0.8" height="14.4" fill="#232426"/>
<rect x="173.023" y="63.1997" width="0.8" height="14.4" fill="#232426"/>
<rect x="156.133" y="63.1997" width="0.8" height="14.4" fill="#232426"/>
<path d="M175.767 46.5265L175.073 46.3483L175.416 42.9499L178.917 42.9499L178.917 43.7515L176.152 43.7515L175.945 45.6077C176.07 45.5358 176.228 45.4687 176.419 45.4062C176.612 45.3437 176.834 45.3124 177.084 45.3124C177.4 45.3124 177.683 45.3671 177.933 45.4765C178.183 45.5827 178.395 45.7358 178.57 45.9358C178.748 46.1358 178.884 46.3765 178.978 46.6577C179.072 46.939 179.119 47.253 179.119 47.5999C179.119 47.928 179.073 48.2296 178.983 48.5046C178.895 48.7796 178.763 49.0202 178.584 49.2265C178.406 49.4296 178.181 49.5874 177.909 49.6999C177.641 49.8124 177.323 49.8687 176.958 49.8687C176.683 49.8687 176.422 49.8312 176.175 49.7562C175.931 49.678 175.712 49.5608 175.519 49.4046C175.328 49.2452 175.172 49.0483 175.05 48.814C174.931 48.5765 174.856 48.2983 174.825 47.9796L175.65 47.9796C175.687 48.2358 175.762 48.4515 175.875 48.6265C175.987 48.8015 176.134 48.9343 176.316 49.0249C176.5 49.1124 176.714 49.1562 176.958 49.1562C177.164 49.1562 177.347 49.1202 177.506 49.0483C177.666 48.9765 177.8 48.8733 177.909 48.739C178.019 48.6046 178.102 48.4421 178.158 48.2515C178.217 48.0608 178.247 47.8468 178.247 47.6093C178.247 47.3937 178.217 47.1937 178.158 47.0093C178.098 46.8249 178.009 46.664 177.891 46.5265C177.775 46.389 177.633 46.2827 177.464 46.2077C177.295 46.1296 177.102 46.0905 176.883 46.0905C176.592 46.0905 176.372 46.1296 176.222 46.2077C176.075 46.2858 175.923 46.3921 175.767 46.5265Z" fill="#232426"/>
<rect x="209.602" y="51.9998" width="0.8" height="25.6" fill="#232426"/>
<rect x="192.711" y="59.1997" width="0.8" height="18.4" fill="#232426"/>
<rect x="196.094" y="63.1997" width="0.8" height="14.4" fill="#232426"/>
<rect x="179.203" y="63.1997" width="0.8" height="14.4" fill="#232426"/>
<rect x="199.469" y="63.1997" width="0.8" height="14.4" fill="#232426"/>
<rect x="182.578" y="63.1997" width="0.8" height="14.4" fill="#232426"/>
<rect x="202.844" y="63.1997" width="0.8" height="14.4" fill="#232426"/>
<rect x="185.961" y="63.1997" width="0.8" height="14.4" fill="#232426"/>
<rect x="206.227" y="63.1997" width="0.8" height="14.4" fill="#232426"/>
<rect x="189.336" y="63.1997" width="0.8" height="14.4" fill="#232426"/>
<path d="M211.202 42.9405L211.277 42.9405L211.277 43.6765L211.202 43.6765C210.742 43.6765 210.358 43.7515 210.048 43.9015C209.739 44.0483 209.494 44.2468 209.312 44.4968C209.131 44.7437 209 45.0218 208.919 45.3312C208.841 45.6405 208.802 45.9546 208.802 46.2733L208.802 47.2765C208.802 47.5796 208.837 47.8483 208.909 48.0827C208.981 48.314 209.08 48.5093 209.205 48.6687C209.33 48.828 209.47 48.9483 209.627 49.0296C209.786 49.1108 209.952 49.1515 210.123 49.1515C210.323 49.1515 210.502 49.114 210.658 49.039C210.814 48.9608 210.945 48.853 211.052 48.7155C211.161 48.5749 211.244 48.4093 211.3 48.2187C211.356 48.028 211.384 47.8187 211.384 47.5905C211.384 47.3874 211.359 47.1921 211.309 47.0046C211.259 46.814 211.183 46.6452 211.08 46.4983C210.977 46.3483 210.847 46.2312 210.691 46.1468C210.537 46.0593 210.355 46.0155 210.142 46.0155C209.902 46.0155 209.677 46.0749 209.467 46.1937C209.261 46.3093 209.091 46.4624 208.956 46.653C208.825 46.8405 208.75 47.0452 208.731 47.2671L208.272 47.2624C208.316 46.9124 208.397 46.614 208.516 46.3671C208.637 46.1171 208.787 45.914 208.966 45.7577C209.147 45.5983 209.348 45.4827 209.57 45.4108C209.795 45.3358 210.033 45.2983 210.283 45.2983C210.623 45.2983 210.917 45.3624 211.164 45.4905C211.411 45.6187 211.614 45.7905 211.773 46.0062C211.933 46.2187 212.05 46.4593 212.125 46.728C212.203 46.9937 212.242 47.2671 212.242 47.5483C212.242 47.8702 212.197 48.1718 212.106 48.453C212.016 48.7343 211.88 48.9812 211.698 49.1937C211.52 49.4062 211.3 49.5718 211.038 49.6905C210.775 49.8093 210.47 49.8687 210.123 49.8687C209.755 49.8687 209.433 49.7937 209.158 49.6437C208.883 49.4905 208.655 49.2874 208.473 49.0343C208.292 48.7812 208.156 48.4999 208.066 48.1905C207.975 47.8812 207.93 47.5671 207.93 47.2483L207.93 46.8405C207.93 46.3593 207.978 45.8874 208.075 45.4249C208.172 44.9624 208.339 44.5437 208.577 44.1687C208.817 43.7937 209.15 43.4952 209.575 43.2733C210 43.0515 210.542 42.9405 211.202 42.9405Z" fill="#232426"/>
<rect x="242.797" y="51.9998" width="0.8" height="25.6" fill="#232426"/>
<rect x="225.906" y="59.1997" width="0.8" height="18.4" fill="#232426"/>
<rect x="229.289" y="63.1997" width="0.8" height="14.4" fill="#232426"/>
<rect x="212.398" y="63.1997" width="0.8" height="14.4" fill="#232426"/>
<rect x="232.664" y="63.1997" width="0.8" height="14.4" fill="#232426"/>
<rect x="215.773" y="63.1997" width="0.8" height="14.4" fill="#232426"/>
<rect x="236.039" y="63.1997" width="0.8" height="14.4" fill="#232426"/>
<rect x="219.156" y="63.1997" width="0.8" height="14.4" fill="#232426"/>
<rect x="239.422" y="63.1997" width="0.8" height="14.4" fill="#232426"/>
<rect x="222.531" y="63.1997" width="0.8" height="14.4" fill="#232426"/>
<path d="M245.48 42.9499L245.48 43.4374L242.653 49.7749L241.739 49.7749L244.561 43.6624L240.867 43.6624L240.867 42.9499L245.48 42.9499Z" fill="#232426"/>
<rect x="276" y="51.9998" width="0.8" height="25.6" fill="#232426"/>
<rect x="259.109" y="59.1997" width="0.8" height="18.4" fill="#232426"/>
<rect x="262.492" y="63.1997" width="0.8" height="14.4" fill="#232426"/>
<rect x="245.602" y="63.1997" width="0.8" height="14.4" fill="#232426"/>
<rect x="265.867" y="63.1997" width="0.8" height="14.4" fill="#232426"/>
<rect x="248.977" y="63.1997" width="0.8" height="14.4" fill="#232426"/>
<rect x="269.242" y="63.1997" width="0.8" height="14.4" fill="#232426"/>
<rect x="252.359" y="63.1997" width="0.8" height="14.4" fill="#232426"/>
<rect x="272.625" y="63.1997" width="0.8" height="14.4" fill="#232426"/>
<rect x="255.734" y="63.1997" width="0.8" height="14.4" fill="#232426"/>
<path d="M278.575 47.928C278.575 48.3437 278.478 48.6968 278.284 48.9874C278.094 49.2749 277.834 49.4937 277.506 49.6437C277.181 49.7937 276.814 49.8687 276.405 49.8687C275.995 49.8687 275.627 49.7937 275.298 49.6437C274.97 49.4937 274.711 49.2749 274.52 48.9874C274.33 48.6968 274.234 48.3437 274.234 47.928C274.234 47.6562 274.286 47.4077 274.389 47.1827C274.495 46.9546 274.644 46.7562 274.834 46.5874C275.028 46.4187 275.256 46.289 275.519 46.1983C275.784 46.1046 276.077 46.0577 276.395 46.0577C276.814 46.0577 277.187 46.139 277.516 46.3015C277.844 46.4608 278.102 46.6812 278.289 46.9624C278.48 47.2437 278.575 47.5655 278.575 47.928ZM277.703 47.9093C277.703 47.6562 277.648 47.4327 277.539 47.239C277.43 47.0421 277.277 46.889 277.08 46.7796C276.883 46.6702 276.655 46.6155 276.395 46.6155C276.13 46.6155 275.9 46.6702 275.706 46.7796C275.516 46.889 275.367 47.0421 275.261 47.239C275.155 47.4327 275.102 47.6562 275.102 47.9093C275.102 48.1718 275.153 48.3968 275.256 48.5843C275.362 48.7687 275.512 48.9108 275.706 49.0108C275.903 49.1077 276.136 49.1562 276.405 49.1562C276.673 49.1562 276.905 49.1077 277.098 49.0108C277.292 48.9108 277.441 48.7687 277.544 48.5843C277.65 48.3968 277.703 48.1718 277.703 47.9093ZM278.416 44.7265C278.416 45.0577 278.328 45.3562 278.153 45.6218C277.978 45.8874 277.739 46.0968 277.436 46.2499C277.133 46.403 276.789 46.4796 276.405 46.4796C276.014 46.4796 275.666 46.403 275.359 46.2499C275.056 46.0968 274.819 45.8874 274.647 45.6218C274.475 45.3562 274.389 45.0577 274.389 44.7265C274.389 44.3296 274.475 43.9921 274.647 43.714C274.822 43.4358 275.061 43.2233 275.364 43.0765C275.667 42.9296 276.012 42.8562 276.4 42.8562C276.791 42.8562 277.137 42.9296 277.441 43.0765C277.744 43.2233 277.981 43.4358 278.153 43.714C278.328 43.9921 278.416 44.3296 278.416 44.7265ZM277.548 44.7405C277.548 44.5124 277.5 44.3108 277.403 44.1358C277.306 43.9608 277.172 43.8233 277 43.7233C276.828 43.6202 276.628 43.5687 276.4 43.5687C276.172 43.5687 275.972 43.6171 275.8 43.714C275.631 43.8077 275.498 43.9421 275.402 44.1171C275.308 44.2921 275.261 44.4999 275.261 44.7405C275.261 44.9749 275.308 45.1796 275.402 45.3546C275.498 45.5296 275.633 45.6655 275.805 45.7624C275.977 45.8593 276.177 45.9077 276.405 45.9077C276.633 45.9077 276.831 45.8593 277 45.7624C277.172 45.6655 277.306 45.5296 277.403 45.3546C277.5 45.1796 277.548 44.9749 277.548 44.7405Z" fill="#232426"/>
<rect x="309.195" y="51.9998" width="0.8" height="25.6" fill="#232426"/>
<rect x="292.305" y="59.1997" width="0.8" height="18.4" fill="#232426"/>
<rect x="295.688" y="63.1997" width="0.8" height="14.4" fill="#232426"/>
<rect x="278.797" y="63.1997" width="0.8" height="14.4" fill="#232426"/>
<rect x="299.062" y="63.1997" width="0.8" height="14.4" fill="#232426"/>
<rect x="282.172" y="63.1997" width="0.8" height="14.4" fill="#232426"/>
<rect x="302.438" y="63.1997" width="0.8" height="14.4" fill="#232426"/>
<rect x="285.555" y="63.1997" width="0.8" height="14.4" fill="#232426"/>
<rect x="305.82" y="63.1997" width="0.8" height="14.4" fill="#232426"/>
<rect x="288.93" y="63.1997" width="0.8" height="14.4" fill="#232426"/>
<path d="M308.33 49.0483L308.419 49.0483C308.919 49.0483 309.325 48.978 309.637 48.8374C309.95 48.6968 310.191 48.5077 310.359 48.2702C310.528 48.0327 310.644 47.7655 310.706 47.4687C310.769 47.1687 310.8 46.8608 310.8 46.5452L310.8 45.4999C310.8 45.1905 310.764 44.9155 310.692 44.6749C310.623 44.4343 310.527 44.2327 310.402 44.0702C310.28 43.9077 310.141 43.7843 309.984 43.6999C309.828 43.6155 309.662 43.5733 309.487 43.5733C309.287 43.5733 309.108 43.614 308.948 43.6952C308.792 43.7733 308.659 43.8843 308.55 44.028C308.444 44.1718 308.362 44.3405 308.306 44.5343C308.25 44.728 308.222 44.939 308.222 45.1671C308.222 45.3702 308.247 45.5671 308.297 45.7577C308.347 45.9483 308.423 46.1202 308.527 46.2733C308.63 46.4265 308.758 46.5483 308.911 46.639C309.067 46.7265 309.25 46.7702 309.459 46.7702C309.653 46.7702 309.834 46.7327 310.003 46.6577C310.175 46.5796 310.327 46.4749 310.458 46.3437C310.592 46.2093 310.698 46.0577 310.777 45.889C310.858 45.7202 310.905 45.5437 310.917 45.3593L311.33 45.3593C311.33 45.6187 311.278 45.8749 311.175 46.128C311.075 46.378 310.934 46.6062 310.753 46.8124C310.572 47.0187 310.359 47.1843 310.116 47.3093C309.872 47.4312 309.606 47.4921 309.319 47.4921C308.981 47.4921 308.689 47.4265 308.442 47.2952C308.195 47.164 307.992 46.989 307.833 46.7702C307.677 46.5515 307.559 46.3077 307.481 46.039C307.406 45.7671 307.369 45.4921 307.369 45.214C307.369 44.889 307.414 44.5843 307.505 44.2999C307.595 44.0155 307.73 43.7655 307.908 43.5499C308.086 43.3312 308.306 43.1608 308.569 43.039C308.834 42.9171 309.141 42.8562 309.487 42.8562C309.878 42.8562 310.211 42.9343 310.486 43.0905C310.761 43.2468 310.984 43.4562 311.156 43.7187C311.331 43.9812 311.459 44.2765 311.541 44.6046C311.622 44.9327 311.663 45.2702 311.663 45.6171L311.663 45.9312C311.663 46.2843 311.639 46.6437 311.592 47.0093C311.548 47.3718 311.463 47.7187 311.334 48.0499C311.209 48.3812 311.027 48.678 310.786 48.9405C310.545 49.1999 310.231 49.4062 309.844 49.5593C309.459 49.7093 308.984 49.7843 308.419 49.7843L308.33 49.7843L308.33 49.0483Z" fill="#232426"/>
<rect x="342.398" y="51.9998" width="0.8" height="25.6" fill="#232426"/>
<rect x="325.508" y="59.1997" width="0.8" height="18.4" fill="#232426"/>
<rect x="328.891" y="63.1997" width="0.8" height="14.4" fill="#232426"/>
<rect x="312" y="63.1997" width="0.8" height="14.4" fill="#232426"/>
<rect x="332.266" y="63.1997" width="0.8" height="14.4" fill="#232426"/>
<rect x="315.375" y="63.1997" width="0.8" height="14.4" fill="#232426"/>
<rect x="335.641" y="63.1997" width="0.8" height="14.4" fill="#232426"/>
<rect x="318.758" y="63.1997" width="0.8" height="14.4" fill="#232426"/>
<rect x="339.023" y="63.1997" width="0.8" height="14.4" fill="#232426"/>
<rect x="322.133" y="63.1997" width="0.8" height="14.4" fill="#232426"/>
<path d="M340.82 42.9124L340.82 49.7749L339.953 49.7749L339.953 43.9952L338.205 44.6327L338.205 43.8499L340.684 42.9124L340.82 42.9124ZM347.655 45.8187L347.655 46.8593C347.655 47.4187 347.605 47.8905 347.505 48.2749C347.405 48.6593 347.261 48.9687 347.073 49.203C346.886 49.4374 346.659 49.6077 346.394 49.714C346.131 49.8171 345.834 49.8687 345.503 49.8687C345.241 49.8687 344.998 49.8358 344.777 49.7702C344.555 49.7046 344.355 49.5999 344.177 49.4562C344.002 49.3093 343.852 49.1187 343.727 48.8843C343.602 48.6499 343.506 48.3655 343.441 48.0312C343.375 47.6968 343.342 47.3062 343.342 46.8593L343.342 45.8187C343.342 45.2593 343.392 44.7905 343.492 44.4124C343.595 44.0343 343.741 43.7312 343.928 43.503C344.116 43.2718 344.341 43.1062 344.603 43.0062C344.869 42.9062 345.166 42.8562 345.494 42.8562C345.759 42.8562 346.003 42.889 346.225 42.9546C346.45 43.0171 346.65 43.1187 346.825 43.2593C347 43.3968 347.148 43.5812 347.27 43.8124C347.395 44.0405 347.491 44.3202 347.556 44.6515C347.622 44.9827 347.655 45.3718 347.655 45.8187ZM346.783 46.9999L346.783 45.6733C346.783 45.3671 346.764 45.0983 346.727 44.8671C346.692 44.6327 346.641 44.4327 346.572 44.2671C346.503 44.1015 346.416 43.9671 346.309 43.864C346.206 43.7608 346.086 43.6858 345.948 43.639C345.814 43.589 345.663 43.564 345.494 43.564C345.288 43.564 345.105 43.603 344.945 43.6812C344.786 43.7562 344.652 43.8765 344.542 44.0421C344.436 44.2077 344.355 44.4249 344.298 44.6937C344.242 44.9624 344.214 45.289 344.214 45.6733L344.214 46.9999C344.214 47.3062 344.231 47.5765 344.266 47.8108C344.303 48.0452 344.358 48.2483 344.43 48.4202C344.502 48.589 344.589 48.728 344.692 48.8374C344.795 48.9468 344.914 49.028 345.048 49.0812C345.186 49.1312 345.338 49.1562 345.503 49.1562C345.716 49.1562 345.902 49.1155 346.061 49.0343C346.22 48.953 346.353 48.8265 346.459 48.6546C346.569 48.4796 346.65 48.2562 346.703 47.9843C346.756 47.7093 346.783 47.3812 346.783 46.9999Z" fill="#232426"/>
<rect x="375.602" y="51.9998" width="0.8" height="25.6" fill="#232426"/>
<rect x="358.711" y="59.1997" width="0.8" height="18.4" fill="#232426"/>
<rect x="362.094" y="63.1997" width="0.8" height="14.4" fill="#232426"/>
<rect x="345.203" y="63.1997" width="0.8" height="14.4" fill="#232426"/>
<rect x="365.469" y="63.1997" width="0.8" height="14.4" fill="#232426"/>
<rect x="348.578" y="63.1997" width="0.8" height="14.4" fill="#232426"/>
<rect x="368.844" y="63.1997" width="0.8" height="14.4" fill="#232426"/>
<rect x="351.961" y="63.1997" width="0.8" height="14.4" fill="#232426"/>
<rect x="372.227" y="63.1997" width="0.8" height="14.4" fill="#232426"/>
<rect x="355.336" y="63.1997" width="0.8" height="14.4" fill="#232426"/>
<path d="M374.023 42.9124L374.023 49.7749L373.156 49.7749L373.156 43.9952L371.408 44.6327L371.408 43.8499L373.887 42.9124L374.023 42.9124ZM379.423 42.9124L379.423 49.7749L378.556 49.7749L378.556 43.9952L376.808 44.6327L376.808 43.8499L379.288 42.9124L379.423 42.9124Z" fill="#232426"/>
<rect x="408.797" y="51.9998" width="0.8" height="25.6" fill="#232426"/>
<rect x="391.906" y="59.1997" width="0.8" height="18.4" fill="#232426"/>
<rect x="395.289" y="63.1997" width="0.8" height="14.4" fill="#232426"/>
<rect x="378.398" y="63.1997" width="0.8" height="14.4" fill="#232426"/>
<rect x="398.664" y="63.1997" width="0.8" height="14.4" fill="#232426"/>
<rect x="381.773" y="63.1997" width="0.8" height="14.4" fill="#232426"/>
<rect x="402.039" y="63.1997" width="0.8" height="14.4" fill="#232426"/>
<rect x="385.156" y="63.1997" width="0.8" height="14.4" fill="#232426"/>
<rect x="405.422" y="63.1997" width="0.8" height="14.4" fill="#232426"/>
<rect x="388.531" y="63.1997" width="0.8" height="14.4" fill="#232426"/>
<path d="M407.219 42.9124L407.219 49.7749L406.352 49.7749L406.352 43.9952L404.603 44.6327L404.603 43.8499L407.083 42.9124L407.219 42.9124ZM414.241 49.0624L414.241 49.7749L409.773 49.7749L409.773 49.1515L412.009 46.6624C412.284 46.3562 412.497 46.0968 412.647 45.8843C412.8 45.6687 412.906 45.4765 412.966 45.3077C413.028 45.1358 413.059 44.9608 413.059 44.7827C413.059 44.5577 413.013 44.3546 412.919 44.1733C412.828 43.989 412.694 43.8421 412.516 43.7327C412.338 43.6233 412.122 43.5687 411.869 43.5687C411.566 43.5687 411.312 43.628 411.109 43.7468C410.909 43.8624 410.759 44.0249 410.659 44.2343C410.559 44.4437 410.509 44.6843 410.509 44.9562L409.642 44.9562C409.642 44.5718 409.727 44.2202 409.895 43.9015C410.064 43.5827 410.314 43.3296 410.645 43.1421C410.977 42.9515 411.384 42.8562 411.869 42.8562C412.3 42.8562 412.669 42.9327 412.975 43.0858C413.281 43.2358 413.516 43.4483 413.678 43.7233C413.844 43.9952 413.927 44.314 413.927 44.6796C413.927 44.8796 413.892 45.0827 413.823 45.289C413.758 45.4921 413.666 45.6952 413.547 45.8983C413.431 46.1015 413.295 46.3015 413.139 46.4983C412.986 46.6952 412.822 46.889 412.647 47.0796L410.819 49.0624L414.241 49.0624Z" fill="#232426"/>
<rect x="442" y="51.9998" width="0.8" height="25.6" fill="#232426"/>
<rect x="425.109" y="59.1997" width="0.8" height="18.4" fill="#232426"/>
<rect x="428.492" y="63.1997" width="0.8" height="14.4" fill="#232426"/>
<rect x="411.602" y="63.1997" width="0.8" height="14.4" fill="#232426"/>
<rect x="431.867" y="63.1997" width="0.8" height="14.4" fill="#232426"/>
<rect x="414.977" y="63.1997" width="0.8" height="14.4" fill="#232426"/>
<rect x="435.242" y="63.1997" width="0.8" height="14.4" fill="#232426"/>
<rect x="418.359" y="63.1997" width="0.8" height="14.4" fill="#232426"/>
<rect x="438.625" y="63.1997" width="0.8" height="14.4" fill="#232426"/>
<rect x="421.734" y="63.1997" width="0.8" height="14.4" fill="#232426"/>
<path d="M440.422 42.9124L440.422 49.7749L439.555 49.7749L439.555 43.9952L437.806 44.6327L437.806 43.8499L440.286 42.9124L440.422 42.9124ZM444.237 45.9358L444.856 45.9358C445.159 45.9358 445.409 45.8858 445.606 45.7858C445.806 45.6827 445.955 45.5437 446.052 45.3687C446.152 45.1905 446.202 44.9905 446.202 44.7687C446.202 44.5062 446.158 44.2858 446.07 44.1077C445.983 43.9296 445.852 43.7952 445.677 43.7046C445.502 43.614 445.28 43.5687 445.011 43.5687C444.767 43.5687 444.552 43.6171 444.364 43.714C444.18 43.8077 444.034 43.9421 443.928 44.1171C443.825 44.2921 443.773 44.4983 443.773 44.7358L442.906 44.7358C442.906 44.389 442.994 44.0733 443.169 43.789C443.344 43.5046 443.589 43.278 443.905 43.1093C444.223 42.9405 444.592 42.8562 445.011 42.8562C445.423 42.8562 445.784 42.9296 446.094 43.0765C446.403 43.2202 446.644 43.4358 446.816 43.7233C446.988 44.0077 447.073 44.3624 447.073 44.7874C447.073 44.9593 447.033 45.1437 446.952 45.3405C446.873 45.5343 446.75 45.7155 446.581 45.8843C446.416 46.053 446.2 46.1921 445.934 46.3015C445.669 46.4077 445.35 46.4608 444.978 46.4608L444.237 46.4608L444.237 45.9358ZM444.237 46.6483L444.237 46.128L444.978 46.128C445.413 46.128 445.772 46.1796 446.056 46.2827C446.341 46.3858 446.564 46.5233 446.727 46.6952C446.892 46.8671 447.008 47.0562 447.073 47.2624C447.142 47.4655 447.177 47.6687 447.177 47.8718C447.177 48.1905 447.122 48.4733 447.013 48.7202C446.906 48.9671 446.755 49.1765 446.558 49.3483C446.364 49.5202 446.136 49.6499 445.873 49.7374C445.611 49.8249 445.325 49.8687 445.016 49.8687C444.719 49.8687 444.439 49.8265 444.177 49.7421C443.917 49.6577 443.687 49.5358 443.487 49.3765C443.287 49.214 443.131 49.0155 443.019 48.7812C442.906 48.5437 442.85 48.2733 442.85 47.9702L443.717 47.9702C443.717 48.2077 443.769 48.4155 443.872 48.5937C443.978 48.7718 444.128 48.9108 444.322 49.0108C444.519 49.1077 444.75 49.1562 445.016 49.1562C445.281 49.1562 445.509 49.1108 445.7 49.0202C445.894 48.9265 446.042 48.7858 446.145 48.5983C446.252 48.4108 446.305 48.1749 446.305 47.8905C446.305 47.6062 446.245 47.3733 446.127 47.1921C446.008 47.0077 445.839 46.8718 445.62 46.7843C445.405 46.6937 445.15 46.6483 444.856 46.6483L444.237 46.6483Z" fill="#232426"/>
<rect x="475.195" y="51.9998" width="0.8" height="25.6" fill="#232426"/>
<rect x="458.305" y="59.1997" width="0.8" height="18.4" fill="#232426"/>
<rect x="461.688" y="63.1997" width="0.8" height="14.4" fill="#232426"/>
<rect x="444.797" y="63.1997" width="0.8" height="14.4" fill="#232426"/>
<rect x="465.062" y="63.1997" width="0.8" height="14.4" fill="#232426"/>
<rect x="448.172" y="63.1997" width="0.8" height="14.4" fill="#232426"/>
<rect x="468.438" y="63.1997" width="0.8" height="14.4" fill="#232426"/>
<rect x="451.555" y="63.1997" width="0.8" height="14.4" fill="#232426"/>
<rect x="471.82" y="63.1997" width="0.8" height="14.4" fill="#232426"/>
<rect x="454.93" y="63.1997" width="0.8" height="14.4" fill="#232426"/>
<path d="M473.617 42.9124L473.617 49.7749L472.75 49.7749L472.75 43.9952L471.002 44.6327L471.002 43.8499L473.481 42.9124L473.617 42.9124ZM480.78 47.478L480.78 48.1905L475.848 48.1905L475.848 47.6796L478.905 42.9499L479.613 42.9499L478.853 44.3187L476.833 47.478L480.78 47.478ZM479.828 42.9499L479.828 49.7749L478.961 49.7749L478.961 42.9499L479.828 42.9499Z" fill="#232426"/>
<rect x="508.398" y="51.9998" width="0.8" height="25.6" fill="#232426"/>
<rect x="491.508" y="59.1997" width="0.8" height="18.4" fill="#232426"/>
<rect x="494.891" y="63.1997" width="0.8" height="14.4" fill="#232426"/>
<rect x="478" y="63.1997" width="0.8" height="14.4" fill="#232426"/>
<rect x="498.266" y="63.1997" width="0.8" height="14.4" fill="#232426"/>
<rect x="481.375" y="63.1997" width="0.8" height="14.4" fill="#232426"/>
<rect x="501.641" y="63.1997" width="0.8" height="14.4" fill="#232426"/>
<rect x="484.758" y="63.1997" width="0.8" height="14.4" fill="#232426"/>
<rect x="505.023" y="63.1997" width="0.8" height="14.4" fill="#232426"/>
<rect x="488.133" y="63.1997" width="0.8" height="14.4" fill="#232426"/>
<path d="M506.82 42.9124L506.82 49.7749L505.953 49.7749L505.953 43.9952L504.205 44.6327L504.205 43.8499L506.684 42.9124L506.82 42.9124ZM510.467 46.5265L509.773 46.3483L510.116 42.9499L513.617 42.9499L513.617 43.7515L510.852 43.7515L510.645 45.6077C510.77 45.5358 510.928 45.4687 511.119 45.4062C511.313 45.3437 511.534 45.3124 511.784 45.3124C512.1 45.3124 512.383 45.3671 512.633 45.4765C512.883 45.5827 513.095 45.7358 513.27 45.9358C513.448 46.1358 513.584 46.3765 513.678 46.6577C513.772 46.939 513.819 47.253 513.819 47.5999C513.819 47.928 513.773 48.2296 513.683 48.5046C513.595 48.7796 513.463 49.0202 513.284 49.2265C513.106 49.4296 512.881 49.5874 512.609 49.6999C512.341 49.8124 512.023 49.8687 511.658 49.8687C511.383 49.8687 511.122 49.8312 510.875 49.7562C510.631 49.678 510.412 49.5608 510.219 49.4046C510.028 49.2452 509.872 49.0483 509.75 48.814C509.631 48.5765 509.556 48.2983 509.525 47.9796L510.35 47.9796C510.387 48.2358 510.462 48.4515 510.575 48.6265C510.687 48.8015 510.834 48.9343 511.016 49.0249C511.2 49.1124 511.414 49.1562 511.658 49.1562C511.864 49.1562 512.047 49.1202 512.206 49.0483C512.366 48.9765 512.5 48.8733 512.609 48.739C512.719 48.6046 512.802 48.4421 512.858 48.2515C512.917 48.0608 512.947 47.8468 512.947 47.6093C512.947 47.3937 512.917 47.1937 512.858 47.0093C512.798 46.8249 512.709 46.664 512.591 46.5265C512.475 46.389 512.333 46.2827 512.164 46.2077C511.995 46.1296 511.802 46.0905 511.583 46.0905C511.292 46.0905 511.072 46.1296 510.922 46.2077C510.775 46.2858 510.623 46.3921 510.467 46.5265Z" fill="#232426"/>
</g>
<rect x="0.5" y="1.2998" width="516.2" height="75.8" rx="4.3" stroke="#C0C5CC"/>
</g>
<defs>
<clipPath id="clip0_4281_35810">
<rect y="0.799805" width="517.2" height="76.8" rx="4.8" fill="white"/>
</clipPath>
</defs>
</svg>
