<svg width="684" height="78" viewBox="0 0 684 78" fill="none" xmlns="http://www.w3.org/2000/svg">
<g opacity="0.7">
<g clip-path="url(#clip0_4281_35811)">
<rect x="0.203125" y="0.799805" width="683.2" height="76.8" rx="4.8" fill="#F8F8F8"/>
<rect x="10.6016" y="51.9995" width="0.8" height="25.6" fill="#232426"/>
<path d="M13.1578 45.8182L13.1578 46.8588C13.1578 47.4182 13.1078 47.89 13.0078 48.2744C12.9078 48.6588 12.7641 48.9682 12.5766 49.2025C12.3891 49.4369 12.1625 49.6072 11.8969 49.7135C11.6344 49.8166 11.3375 49.8682 11.0062 49.8682C10.7437 49.8682 10.5016 49.8354 10.2797 49.7697C10.0578 49.7041 9.85781 49.5994 9.67969 49.4557C9.50469 49.3088 9.35469 49.1182 9.22969 48.8838C9.10469 48.6494 9.00937 48.365 8.94375 48.0307C8.87812 47.6963 8.84531 47.3057 8.84531 46.8588L8.84531 45.8182C8.84531 45.2588 8.89531 44.79 8.99531 44.4119C9.09844 44.0338 9.24375 43.7307 9.43125 43.5025C9.61875 43.2713 9.84375 43.1057 10.1062 43.0057C10.3719 42.9057 10.6687 42.8557 10.9969 42.8557C11.2625 42.8557 11.5062 42.8885 11.7281 42.9541C11.9531 43.0166 12.1531 43.1182 12.3281 43.2588C12.5031 43.3963 12.6516 43.5807 12.7734 43.8119C12.8984 44.04 12.9938 44.3197 13.0594 44.651C13.125 44.9822 13.1578 45.3713 13.1578 45.8182ZM12.2859 46.9994L12.2859 45.6729C12.2859 45.3666 12.2672 45.0979 12.2297 44.8666C12.1953 44.6322 12.1438 44.4322 12.075 44.2666C12.0063 44.101 11.9187 43.9666 11.8125 43.8635C11.7094 43.7604 11.5891 43.6854 11.4516 43.6385C11.3172 43.5885 11.1656 43.5635 10.9969 43.5635C10.7906 43.5635 10.6078 43.6025 10.4484 43.6807C10.2891 43.7557 10.1547 43.876 10.0453 44.0416C9.93906 44.2072 9.85781 44.4244 9.80156 44.6932C9.74531 44.9619 9.71719 45.2885 9.71719 45.6729L9.71719 46.9994C9.71719 47.3057 9.73437 47.576 9.76875 47.8104C9.80625 48.0447 9.86094 48.2479 9.93281 48.4197C10.0047 48.5885 10.0922 48.7275 10.1953 48.8369C10.2984 48.9463 10.4172 49.0275 10.5516 49.0807C10.6891 49.1307 10.8406 49.1557 11.0062 49.1557C11.2187 49.1557 11.4047 49.115 11.5641 49.0338C11.7234 48.9525 11.8562 48.826 11.9625 48.6541C12.0719 48.4791 12.1531 48.2557 12.2063 47.9838C12.2594 47.7088 12.2859 47.3807 12.2859 46.9994Z" fill="#232426"/>
<rect x="43.8047" y="51.9995" width="0.8" height="25.6" fill="#232426"/>
<rect x="26.9141" y="59.1995" width="0.8" height="18.4" fill="#232426"/>
<rect x="30.2969" y="63.1995" width="0.8" height="14.4" fill="#232426"/>
<rect x="13.4062" y="63.1995" width="0.8" height="14.4" fill="#232426"/>
<rect x="33.6719" y="63.1995" width="0.8" height="14.4" fill="#232426"/>
<rect x="16.7812" y="63.1995" width="0.8" height="14.4" fill="#232426"/>
<rect x="37.0469" y="63.1995" width="0.8" height="14.4" fill="#232426"/>
<rect x="20.1641" y="63.1995" width="0.8" height="14.4" fill="#232426"/>
<rect x="40.4297" y="63.1995" width="0.8" height="14.4" fill="#232426"/>
<rect x="23.5391" y="63.1995" width="0.8" height="14.4" fill="#232426"/>
<path d="M44.9266 42.9119L44.9266 49.7744L44.0594 49.7744L44.0594 43.9947L42.3109 44.6322L42.3109 43.8494L44.7906 42.9119L44.9266 42.9119Z" fill="#232426"/>
<rect x="77" y="51.9995" width="0.8" height="25.6" fill="#232426"/>
<rect x="60.1094" y="59.1995" width="0.8" height="18.4" fill="#232426"/>
<rect x="63.4922" y="63.1995" width="0.8" height="14.4" fill="#232426"/>
<rect x="46.6016" y="63.1995" width="0.8" height="14.4" fill="#232426"/>
<rect x="66.8672" y="63.1995" width="0.8" height="14.4" fill="#232426"/>
<rect x="49.9766" y="63.1995" width="0.8" height="14.4" fill="#232426"/>
<rect x="70.2422" y="63.1995" width="0.8" height="14.4" fill="#232426"/>
<rect x="53.3594" y="63.1995" width="0.8" height="14.4" fill="#232426"/>
<rect x="73.625" y="63.1995" width="0.8" height="14.4" fill="#232426"/>
<rect x="56.7344" y="63.1995" width="0.8" height="14.4" fill="#232426"/>
<path d="M79.7438 49.0619L79.7438 49.7744L75.2766 49.7744L75.2766 49.151L77.5125 46.6619C77.7875 46.3557 78 46.0963 78.15 45.8838C78.3031 45.6682 78.4094 45.476 78.4688 45.3072C78.5313 45.1354 78.5625 44.9604 78.5625 44.7822C78.5625 44.5572 78.5156 44.3541 78.4219 44.1729C78.3313 43.9885 78.1969 43.8416 78.0187 43.7322C77.8406 43.6229 77.625 43.5682 77.3719 43.5682C77.0687 43.5682 76.8156 43.6275 76.6125 43.7463C76.4125 43.8619 76.2625 44.0244 76.1625 44.2338C76.0625 44.4432 76.0125 44.6838 76.0125 44.9557L75.1453 44.9557C75.1453 44.5713 75.2297 44.2197 75.3984 43.901C75.5672 43.5822 75.8172 43.3291 76.1484 43.1416C76.4797 42.951 76.8875 42.8557 77.3719 42.8557C77.8031 42.8557 78.1719 42.9322 78.4781 43.0854C78.7844 43.2354 79.0188 43.4479 79.1813 43.7229C79.3469 43.9947 79.4297 44.3135 79.4297 44.6791C79.4297 44.8791 79.3953 45.0822 79.3266 45.2885C79.2609 45.4916 79.1688 45.6947 79.05 45.8979C78.9344 46.101 78.7984 46.301 78.6422 46.4979C78.4891 46.6947 78.325 46.8885 78.15 47.0791L76.3219 49.0619L79.7438 49.0619Z" fill="#232426"/>
<rect x="110.203" y="51.9995" width="0.8" height="25.6" fill="#232426"/>
<rect x="93.3125" y="59.1995" width="0.8" height="18.4" fill="#232426"/>
<rect x="96.6953" y="63.1995" width="0.8" height="14.4" fill="#232426"/>
<rect x="79.8047" y="63.1995" width="0.8" height="14.4" fill="#232426"/>
<rect x="100.07" y="63.1995" width="0.8" height="14.4" fill="#232426"/>
<rect x="83.1797" y="63.1995" width="0.8" height="14.4" fill="#232426"/>
<rect x="103.445" y="63.1995" width="0.8" height="14.4" fill="#232426"/>
<rect x="86.5625" y="63.1995" width="0.8" height="14.4" fill="#232426"/>
<rect x="106.828" y="63.1995" width="0.8" height="14.4" fill="#232426"/>
<rect x="89.9375" y="63.1995" width="0.8" height="14.4" fill="#232426"/>
<path d="M109.741 45.9354L110.359 45.9354C110.662 45.9354 110.912 45.8854 111.109 45.7854C111.309 45.6822 111.458 45.5432 111.555 45.3682C111.655 45.19 111.705 44.99 111.705 44.7682C111.705 44.5057 111.661 44.2854 111.573 44.1072C111.486 43.9291 111.355 43.7947 111.18 43.7041C111.005 43.6135 110.783 43.5682 110.514 43.5682C110.27 43.5682 110.055 43.6166 109.867 43.7135C109.683 43.8072 109.537 43.9416 109.431 44.1166C109.328 44.2916 109.277 44.4979 109.277 44.7354L108.409 44.7354C108.409 44.3885 108.497 44.0729 108.672 43.7885C108.847 43.5041 109.092 43.2775 109.408 43.1088C109.727 42.94 110.095 42.8557 110.514 42.8557C110.927 42.8557 111.287 42.9291 111.597 43.076C111.906 43.2197 112.147 43.4354 112.319 43.7229C112.491 44.0072 112.577 44.3619 112.577 44.7869C112.577 44.9588 112.536 45.1432 112.455 45.34C112.377 45.5338 112.253 45.715 112.084 45.8838C111.919 46.0525 111.703 46.1916 111.437 46.301C111.172 46.4072 110.853 46.4604 110.481 46.4604L109.741 46.4604L109.741 45.9354ZM109.741 46.6479L109.741 46.1275L110.481 46.1275C110.916 46.1275 111.275 46.1791 111.559 46.2822C111.844 46.3854 112.067 46.5229 112.23 46.6947C112.395 46.8666 112.511 47.0557 112.577 47.2619C112.645 47.465 112.68 47.6682 112.68 47.8713C112.68 48.19 112.625 48.4729 112.516 48.7197C112.409 48.9666 112.258 49.176 112.061 49.3479C111.867 49.5197 111.639 49.6494 111.377 49.7369C111.114 49.8244 110.828 49.8682 110.519 49.8682C110.222 49.8682 109.942 49.826 109.68 49.7416C109.42 49.6572 109.191 49.5354 108.991 49.376C108.791 49.2135 108.634 49.015 108.522 48.7807C108.409 48.5432 108.353 48.2729 108.353 47.9697L109.22 47.9697C109.22 48.2072 109.272 48.415 109.375 48.5932C109.481 48.7713 109.631 48.9104 109.825 49.0104C110.022 49.1072 110.253 49.1557 110.519 49.1557C110.784 49.1557 111.012 49.1104 111.203 49.0197C111.397 48.926 111.545 48.7854 111.648 48.5979C111.755 48.4104 111.808 48.1744 111.808 47.89C111.808 47.6057 111.748 47.3729 111.63 47.1916C111.511 47.0072 111.342 46.8713 111.123 46.7838C110.908 46.6932 110.653 46.6479 110.359 46.6479L109.741 46.6479Z" fill="#232426"/>
<rect x="143.398" y="51.9995" width="0.8" height="25.6" fill="#232426"/>
<rect x="126.508" y="59.1995" width="0.8" height="18.4" fill="#232426"/>
<rect x="129.891" y="63.1995" width="0.8" height="14.4" fill="#232426"/>
<rect x="113" y="63.1995" width="0.8" height="14.4" fill="#232426"/>
<rect x="133.266" y="63.1995" width="0.8" height="14.4" fill="#232426"/>
<rect x="116.375" y="63.1995" width="0.8" height="14.4" fill="#232426"/>
<rect x="136.641" y="63.1995" width="0.8" height="14.4" fill="#232426"/>
<rect x="119.758" y="63.1995" width="0.8" height="14.4" fill="#232426"/>
<rect x="140.023" y="63.1995" width="0.8" height="14.4" fill="#232426"/>
<rect x="123.133" y="63.1995" width="0.8" height="14.4" fill="#232426"/>
<path d="M146.283 47.4775L146.283 48.19L141.352 48.19L141.352 47.6791L144.408 42.9494L145.116 42.9494L144.356 44.3182L142.336 47.4775L146.283 47.4775ZM145.331 42.9494L145.331 49.7744L144.464 49.7744L144.464 42.9494L145.331 42.9494Z" fill="#232426"/>
<rect x="176.602" y="51.9995" width="0.8" height="25.6" fill="#232426"/>
<rect x="159.711" y="59.1995" width="0.8" height="18.4" fill="#232426"/>
<rect x="163.094" y="63.1995" width="0.8" height="14.4" fill="#232426"/>
<rect x="146.203" y="63.1995" width="0.8" height="14.4" fill="#232426"/>
<rect x="166.469" y="63.1995" width="0.8" height="14.4" fill="#232426"/>
<rect x="149.578" y="63.1995" width="0.8" height="14.4" fill="#232426"/>
<rect x="169.844" y="63.1995" width="0.8" height="14.4" fill="#232426"/>
<rect x="152.961" y="63.1995" width="0.8" height="14.4" fill="#232426"/>
<rect x="173.227" y="63.1995" width="0.8" height="14.4" fill="#232426"/>
<rect x="156.336" y="63.1995" width="0.8" height="14.4" fill="#232426"/>
<path d="M175.97 46.526L175.277 46.3479L175.619 42.9494L179.12 42.9494L179.12 43.751L176.355 43.751L176.148 45.6072C176.273 45.5354 176.431 45.4682 176.622 45.4057C176.816 45.3432 177.037 45.3119 177.287 45.3119C177.603 45.3119 177.886 45.3666 178.136 45.476C178.386 45.5822 178.598 45.7354 178.773 45.9354C178.952 46.1354 179.088 46.376 179.181 46.6572C179.275 46.9385 179.322 47.2525 179.322 47.5994C179.322 47.9275 179.277 48.2291 179.186 48.5041C179.098 48.7791 178.966 49.0197 178.788 49.226C178.609 49.4291 178.384 49.5869 178.113 49.6994C177.844 49.8119 177.527 49.8682 177.161 49.8682C176.886 49.8682 176.625 49.8307 176.378 49.7557C176.134 49.6775 175.916 49.5604 175.722 49.4041C175.531 49.2447 175.375 49.0479 175.253 48.8135C175.134 48.576 175.059 48.2979 175.028 47.9791L175.853 47.9791C175.891 48.2354 175.966 48.451 176.078 48.626C176.191 48.801 176.337 48.9338 176.519 49.0244C176.703 49.1119 176.917 49.1557 177.161 49.1557C177.367 49.1557 177.55 49.1197 177.709 49.0479C177.869 48.976 178.003 48.8729 178.113 48.7385C178.222 48.6041 178.305 48.4416 178.361 48.251C178.42 48.0604 178.45 47.8463 178.45 47.6088C178.45 47.3932 178.42 47.1932 178.361 47.0088C178.302 46.8244 178.213 46.6635 178.094 46.526C177.978 46.3885 177.836 46.2822 177.667 46.2072C177.498 46.1291 177.305 46.09 177.086 46.09C176.795 46.09 176.575 46.1291 176.425 46.2072C176.278 46.2854 176.127 46.3916 175.97 46.526Z" fill="#232426"/>
<rect x="209.805" y="51.9995" width="0.8" height="25.6" fill="#232426"/>
<rect x="192.914" y="59.1995" width="0.8" height="18.4" fill="#232426"/>
<rect x="196.297" y="63.1995" width="0.8" height="14.4" fill="#232426"/>
<rect x="179.406" y="63.1995" width="0.8" height="14.4" fill="#232426"/>
<rect x="199.672" y="63.1995" width="0.8" height="14.4" fill="#232426"/>
<rect x="182.781" y="63.1995" width="0.8" height="14.4" fill="#232426"/>
<rect x="203.047" y="63.1995" width="0.8" height="14.4" fill="#232426"/>
<rect x="186.164" y="63.1995" width="0.8" height="14.4" fill="#232426"/>
<rect x="206.43" y="63.1995" width="0.8" height="14.4" fill="#232426"/>
<rect x="189.539" y="63.1995" width="0.8" height="14.4" fill="#232426"/>
<path d="M211.405 42.94L211.48 42.94L211.48 43.676L211.405 43.676C210.945 43.676 210.561 43.751 210.252 43.901C209.942 44.0479 209.697 44.2463 209.516 44.4963C209.334 44.7432 209.203 45.0213 209.122 45.3307C209.044 45.64 209.005 45.9541 209.005 46.2729L209.005 47.276C209.005 47.5791 209.041 47.8479 209.112 48.0822C209.184 48.3135 209.283 48.5088 209.408 48.6682C209.533 48.8275 209.673 48.9479 209.83 49.0291C209.989 49.1104 210.155 49.151 210.327 49.151C210.527 49.151 210.705 49.1135 210.861 49.0385C211.017 48.9604 211.148 48.8525 211.255 48.715C211.364 48.5744 211.447 48.4088 211.503 48.2182C211.559 48.0275 211.588 47.8182 211.588 47.59C211.588 47.3869 211.563 47.1916 211.513 47.0041C211.463 46.8135 211.386 46.6447 211.283 46.4979C211.18 46.3479 211.05 46.2307 210.894 46.1463C210.741 46.0588 210.558 46.015 210.345 46.015C210.105 46.015 209.88 46.0744 209.67 46.1932C209.464 46.3088 209.294 46.4619 209.159 46.6525C209.028 46.84 208.953 47.0447 208.934 47.2666L208.475 47.2619C208.519 46.9119 208.6 46.6135 208.719 46.3666C208.841 46.1166 208.991 45.9135 209.169 45.7572C209.35 45.5979 209.552 45.4822 209.773 45.4104C209.998 45.3354 210.236 45.2979 210.486 45.2979C210.827 45.2979 211.12 45.3619 211.367 45.49C211.614 45.6182 211.817 45.79 211.977 46.0057C212.136 46.2182 212.253 46.4588 212.328 46.7275C212.406 46.9932 212.445 47.2666 212.445 47.5479C212.445 47.8697 212.4 48.1713 212.309 48.4525C212.219 48.7338 212.083 48.9807 211.902 49.1932C211.723 49.4057 211.503 49.5713 211.241 49.69C210.978 49.8088 210.673 49.8682 210.327 49.8682C209.958 49.8682 209.636 49.7932 209.361 49.6432C209.086 49.49 208.858 49.2869 208.677 49.0338C208.495 48.7807 208.359 48.4994 208.269 48.19C208.178 47.8807 208.133 47.5666 208.133 47.2479L208.133 46.84C208.133 46.3588 208.181 45.8869 208.278 45.4244C208.375 44.9619 208.542 44.5432 208.78 44.1682C209.02 43.7932 209.353 43.4947 209.778 43.2729C210.203 43.051 210.745 42.94 211.405 42.94Z" fill="#232426"/>
<rect x="243" y="51.9995" width="0.8" height="25.6" fill="#232426"/>
<rect x="226.109" y="59.1995" width="0.8" height="18.4" fill="#232426"/>
<rect x="229.492" y="63.1995" width="0.8" height="14.4" fill="#232426"/>
<rect x="212.602" y="63.1995" width="0.8" height="14.4" fill="#232426"/>
<rect x="232.867" y="63.1995" width="0.8" height="14.4" fill="#232426"/>
<rect x="215.977" y="63.1995" width="0.8" height="14.4" fill="#232426"/>
<rect x="236.242" y="63.1995" width="0.8" height="14.4" fill="#232426"/>
<rect x="219.359" y="63.1995" width="0.8" height="14.4" fill="#232426"/>
<rect x="239.625" y="63.1995" width="0.8" height="14.4" fill="#232426"/>
<rect x="222.734" y="63.1995" width="0.8" height="14.4" fill="#232426"/>
<path d="M245.683 42.9494L245.683 43.4369L242.856 49.7744L241.942 49.7744L244.764 43.6619L241.07 43.6619L241.07 42.9494L245.683 42.9494Z" fill="#232426"/>
<rect x="276.203" y="51.9995" width="0.8" height="25.6" fill="#232426"/>
<rect x="259.312" y="59.1995" width="0.8" height="18.4" fill="#232426"/>
<rect x="262.695" y="63.1995" width="0.8" height="14.4" fill="#232426"/>
<rect x="245.805" y="63.1995" width="0.8" height="14.4" fill="#232426"/>
<rect x="266.07" y="63.1995" width="0.8" height="14.4" fill="#232426"/>
<rect x="249.18" y="63.1995" width="0.8" height="14.4" fill="#232426"/>
<rect x="269.445" y="63.1995" width="0.8" height="14.4" fill="#232426"/>
<rect x="252.562" y="63.1995" width="0.8" height="14.4" fill="#232426"/>
<rect x="272.828" y="63.1995" width="0.8" height="14.4" fill="#232426"/>
<rect x="255.938" y="63.1995" width="0.8" height="14.4" fill="#232426"/>
<path d="M278.778 47.9275C278.778 48.3432 278.681 48.6963 278.488 48.9869C278.297 49.2744 278.038 49.4932 277.709 49.6432C277.384 49.7932 277.017 49.8682 276.608 49.8682C276.198 49.8682 275.83 49.7932 275.502 49.6432C275.173 49.4932 274.914 49.2744 274.723 48.9869C274.533 48.6963 274.437 48.3432 274.437 47.9275C274.437 47.6557 274.489 47.4072 274.592 47.1822C274.698 46.9541 274.847 46.7557 275.037 46.5869C275.231 46.4182 275.459 46.2885 275.722 46.1979C275.987 46.1041 276.28 46.0572 276.598 46.0572C277.017 46.0572 277.391 46.1385 277.719 46.301C278.047 46.4604 278.305 46.6807 278.492 46.9619C278.683 47.2432 278.778 47.565 278.778 47.9275ZM277.906 47.9088C277.906 47.6557 277.852 47.4322 277.742 47.2385C277.633 47.0416 277.48 46.8885 277.283 46.7791C277.086 46.6697 276.858 46.615 276.598 46.615C276.333 46.615 276.103 46.6697 275.909 46.7791C275.719 46.8885 275.57 47.0416 275.464 47.2385C275.358 47.4322 275.305 47.6557 275.305 47.9088C275.305 48.1713 275.356 48.3963 275.459 48.5838C275.566 48.7682 275.716 48.9104 275.909 49.0104C276.106 49.1072 276.339 49.1557 276.608 49.1557C276.877 49.1557 277.108 49.1072 277.302 49.0104C277.495 48.9104 277.644 48.7682 277.747 48.5838C277.853 48.3963 277.906 48.1713 277.906 47.9088ZM278.619 44.726C278.619 45.0572 278.531 45.3557 278.356 45.6213C278.181 45.8869 277.942 46.0963 277.639 46.2494C277.336 46.4025 276.992 46.4791 276.608 46.4791C276.217 46.4791 275.869 46.4025 275.562 46.2494C275.259 46.0963 275.022 45.8869 274.85 45.6213C274.678 45.3557 274.592 45.0572 274.592 44.726C274.592 44.3291 274.678 43.9916 274.85 43.7135C275.025 43.4354 275.264 43.2229 275.567 43.076C275.87 42.9291 276.216 42.8557 276.603 42.8557C276.994 42.8557 277.341 42.9291 277.644 43.076C277.947 43.2229 278.184 43.4354 278.356 43.7135C278.531 43.9916 278.619 44.3291 278.619 44.726ZM277.752 44.74C277.752 44.5119 277.703 44.3104 277.606 44.1354C277.509 43.9604 277.375 43.8229 277.203 43.7229C277.031 43.6197 276.831 43.5682 276.603 43.5682C276.375 43.5682 276.175 43.6166 276.003 43.7135C275.834 43.8072 275.702 43.9416 275.605 44.1166C275.511 44.2916 275.464 44.4994 275.464 44.74C275.464 44.9744 275.511 45.1791 275.605 45.3541C275.702 45.5291 275.836 45.665 276.008 45.7619C276.18 45.8588 276.38 45.9072 276.608 45.9072C276.836 45.9072 277.034 45.8588 277.203 45.7619C277.375 45.665 277.509 45.5291 277.606 45.3541C277.703 45.1791 277.752 44.9744 277.752 44.74Z" fill="#232426"/>
<rect x="309.398" y="51.9995" width="0.8" height="25.6" fill="#232426"/>
<rect x="292.508" y="59.1995" width="0.8" height="18.4" fill="#232426"/>
<rect x="295.891" y="63.1995" width="0.8" height="14.4" fill="#232426"/>
<rect x="279" y="63.1995" width="0.8" height="14.4" fill="#232426"/>
<rect x="299.266" y="63.1995" width="0.8" height="14.4" fill="#232426"/>
<rect x="282.375" y="63.1995" width="0.8" height="14.4" fill="#232426"/>
<rect x="302.641" y="63.1995" width="0.8" height="14.4" fill="#232426"/>
<rect x="285.758" y="63.1995" width="0.8" height="14.4" fill="#232426"/>
<rect x="306.023" y="63.1995" width="0.8" height="14.4" fill="#232426"/>
<rect x="289.133" y="63.1995" width="0.8" height="14.4" fill="#232426"/>
<path d="M308.533 49.0479L308.622 49.0479C309.122 49.0479 309.528 48.9775 309.841 48.8369C310.153 48.6963 310.394 48.5072 310.562 48.2697C310.731 48.0322 310.847 47.765 310.909 47.4682C310.972 47.1682 311.003 46.8604 311.003 46.5447L311.003 45.4994C311.003 45.19 310.967 44.915 310.895 44.6744C310.827 44.4338 310.73 44.2322 310.605 44.0697C310.483 43.9072 310.344 43.7838 310.187 43.6994C310.031 43.615 309.866 43.5729 309.691 43.5729C309.491 43.5729 309.311 43.6135 309.152 43.6947C308.995 43.7729 308.862 43.8838 308.753 44.0275C308.647 44.1713 308.566 44.34 308.509 44.5338C308.453 44.7275 308.425 44.9385 308.425 45.1666C308.425 45.3697 308.45 45.5666 308.5 45.7572C308.55 45.9479 308.627 46.1197 308.73 46.2729C308.833 46.426 308.961 46.5479 309.114 46.6385C309.27 46.726 309.453 46.7697 309.662 46.7697C309.856 46.7697 310.037 46.7322 310.206 46.6572C310.378 46.5791 310.53 46.4744 310.661 46.3432C310.795 46.2088 310.902 46.0572 310.98 45.8885C311.061 45.7197 311.108 45.5432 311.12 45.3588L311.533 45.3588C311.533 45.6182 311.481 45.8744 311.378 46.1275C311.278 46.3775 311.138 46.6057 310.956 46.8119C310.775 47.0182 310.562 47.1838 310.319 47.3088C310.075 47.4307 309.809 47.4916 309.522 47.4916C309.184 47.4916 308.892 47.426 308.645 47.2947C308.398 47.1635 308.195 46.9885 308.036 46.7697C307.88 46.551 307.762 46.3072 307.684 46.0385C307.609 45.7666 307.572 45.4916 307.572 45.2135C307.572 44.8885 307.617 44.5838 307.708 44.2994C307.798 44.015 307.933 43.765 308.111 43.5494C308.289 43.3307 308.509 43.1604 308.772 43.0385C309.037 42.9166 309.344 42.8557 309.691 42.8557C310.081 42.8557 310.414 42.9338 310.689 43.09C310.964 43.2463 311.188 43.4557 311.359 43.7182C311.534 43.9807 311.663 44.276 311.744 44.6041C311.825 44.9322 311.866 45.2697 311.866 45.6166L311.866 45.9307C311.866 46.2838 311.842 46.6432 311.795 47.0088C311.752 47.3713 311.666 47.7182 311.538 48.0494C311.413 48.3807 311.23 48.6775 310.989 48.94C310.748 49.1994 310.434 49.4057 310.047 49.5588C309.662 49.7088 309.187 49.7838 308.622 49.7838L308.533 49.7838L308.533 49.0479Z" fill="#232426"/>
<rect x="342.602" y="51.9995" width="0.8" height="25.6" fill="#232426"/>
<rect x="325.711" y="59.1995" width="0.8" height="18.4" fill="#232426"/>
<rect x="329.094" y="63.1995" width="0.8" height="14.4" fill="#232426"/>
<rect x="312.203" y="63.1995" width="0.8" height="14.4" fill="#232426"/>
<rect x="332.469" y="63.1995" width="0.8" height="14.4" fill="#232426"/>
<rect x="315.578" y="63.1995" width="0.8" height="14.4" fill="#232426"/>
<rect x="335.844" y="63.1995" width="0.8" height="14.4" fill="#232426"/>
<rect x="318.961" y="63.1995" width="0.8" height="14.4" fill="#232426"/>
<rect x="339.227" y="63.1995" width="0.8" height="14.4" fill="#232426"/>
<rect x="322.336" y="63.1995" width="0.8" height="14.4" fill="#232426"/>
<path d="M341.023 42.9119L341.023 49.7744L340.156 49.7744L340.156 43.9947L338.408 44.6322L338.408 43.8494L340.887 42.9119L341.023 42.9119ZM347.858 45.8182L347.858 46.8588C347.858 47.4182 347.808 47.89 347.708 48.2744C347.608 48.6588 347.464 48.9682 347.277 49.2025C347.089 49.4369 346.863 49.6072 346.597 49.7135C346.334 49.8166 346.038 49.8682 345.706 49.8682C345.444 49.8682 345.202 49.8354 344.98 49.7697C344.758 49.7041 344.558 49.5994 344.38 49.4557C344.205 49.3088 344.055 49.1182 343.93 48.8838C343.805 48.6494 343.709 48.365 343.644 48.0307C343.578 47.6963 343.545 47.3057 343.545 46.8588L343.545 45.8182C343.545 45.2588 343.595 44.79 343.695 44.4119C343.798 44.0338 343.944 43.7307 344.131 43.5025C344.319 43.2713 344.544 43.1057 344.806 43.0057C345.072 42.9057 345.369 42.8557 345.697 42.8557C345.963 42.8557 346.206 42.8885 346.428 42.9541C346.653 43.0166 346.853 43.1182 347.028 43.2588C347.203 43.3963 347.352 43.5807 347.473 43.8119C347.598 44.04 347.694 44.3197 347.759 44.651C347.825 44.9822 347.858 45.3713 347.858 45.8182ZM346.986 46.9994L346.986 45.6729C346.986 45.3666 346.967 45.0979 346.93 44.8666C346.895 44.6322 346.844 44.4322 346.775 44.2666C346.706 44.101 346.619 43.9666 346.513 43.8635C346.409 43.7604 346.289 43.6854 346.152 43.6385C346.017 43.5885 345.866 43.5635 345.697 43.5635C345.491 43.5635 345.308 43.6025 345.148 43.6807C344.989 43.7557 344.855 43.876 344.745 44.0416C344.639 44.2072 344.558 44.4244 344.502 44.6932C344.445 44.9619 344.417 45.2885 344.417 45.6729L344.417 46.9994C344.417 47.3057 344.434 47.576 344.469 47.8104C344.506 48.0447 344.561 48.2479 344.633 48.4197C344.705 48.5885 344.792 48.7275 344.895 48.8369C344.998 48.9463 345.117 49.0275 345.252 49.0807C345.389 49.1307 345.541 49.1557 345.706 49.1557C345.919 49.1557 346.105 49.115 346.264 49.0338C346.423 48.9525 346.556 48.826 346.663 48.6541C346.772 48.4791 346.853 48.2557 346.906 47.9838C346.959 47.7088 346.986 47.3807 346.986 46.9994Z" fill="#232426"/>
<rect x="375.805" y="51.9995" width="0.8" height="25.6" fill="#232426"/>
<rect x="358.914" y="59.1995" width="0.8" height="18.4" fill="#232426"/>
<rect x="362.297" y="63.1995" width="0.8" height="14.4" fill="#232426"/>
<rect x="345.406" y="63.1995" width="0.8" height="14.4" fill="#232426"/>
<rect x="365.672" y="63.1995" width="0.8" height="14.4" fill="#232426"/>
<rect x="348.781" y="63.1995" width="0.8" height="14.4" fill="#232426"/>
<rect x="369.047" y="63.1995" width="0.8" height="14.4" fill="#232426"/>
<rect x="352.164" y="63.1995" width="0.8" height="14.4" fill="#232426"/>
<rect x="372.43" y="63.1995" width="0.8" height="14.4" fill="#232426"/>
<rect x="355.539" y="63.1995" width="0.8" height="14.4" fill="#232426"/>
<path d="M374.227 42.9119L374.227 49.7744L373.359 49.7744L373.359 43.9947L371.611 44.6322L371.611 43.8494L374.091 42.9119L374.227 42.9119ZM379.627 42.9119L379.627 49.7744L378.759 49.7744L378.759 43.9947L377.011 44.6322L377.011 43.8494L379.491 42.9119L379.627 42.9119Z" fill="#232426"/>
<rect x="409" y="51.9995" width="0.8" height="25.6" fill="#232426"/>
<rect x="392.109" y="59.1995" width="0.8" height="18.4" fill="#232426"/>
<rect x="395.492" y="63.1995" width="0.8" height="14.4" fill="#232426"/>
<rect x="378.602" y="63.1995" width="0.8" height="14.4" fill="#232426"/>
<rect x="398.867" y="63.1995" width="0.8" height="14.4" fill="#232426"/>
<rect x="381.977" y="63.1995" width="0.8" height="14.4" fill="#232426"/>
<rect x="402.242" y="63.1995" width="0.8" height="14.4" fill="#232426"/>
<rect x="385.359" y="63.1995" width="0.8" height="14.4" fill="#232426"/>
<rect x="405.625" y="63.1995" width="0.8" height="14.4" fill="#232426"/>
<rect x="388.734" y="63.1995" width="0.8" height="14.4" fill="#232426"/>
<path d="M407.422 42.9119L407.422 49.7744L406.555 49.7744L406.555 43.9947L404.806 44.6322L404.806 43.8494L407.286 42.9119L407.422 42.9119ZM414.444 49.0619L414.444 49.7744L409.977 49.7744L409.977 49.151L412.213 46.6619C412.488 46.3557 412.7 46.0963 412.85 45.8838C413.003 45.6682 413.109 45.476 413.169 45.3072C413.231 45.1354 413.263 44.9604 413.263 44.7822C413.263 44.5572 413.216 44.3541 413.122 44.1729C413.031 43.9885 412.897 43.8416 412.719 43.7322C412.541 43.6229 412.325 43.5682 412.072 43.5682C411.769 43.5682 411.516 43.6275 411.312 43.7463C411.112 43.8619 410.962 44.0244 410.862 44.2338C410.762 44.4432 410.712 44.6838 410.712 44.9557L409.845 44.9557C409.845 44.5713 409.93 44.2197 410.098 43.901C410.267 43.5822 410.517 43.3291 410.848 43.1416C411.18 42.951 411.587 42.8557 412.072 42.8557C412.503 42.8557 412.872 42.9322 413.178 43.0854C413.484 43.2354 413.719 43.4479 413.881 43.7229C414.047 43.9947 414.13 44.3135 414.13 44.6791C414.13 44.8791 414.095 45.0822 414.027 45.2885C413.961 45.4916 413.869 45.6947 413.75 45.8979C413.634 46.101 413.498 46.301 413.342 46.4979C413.189 46.6947 413.025 46.8885 412.85 47.0791L411.022 49.0619L414.444 49.0619Z" fill="#232426"/>
<rect x="442.203" y="51.9995" width="0.8" height="25.6" fill="#232426"/>
<rect x="425.312" y="59.1995" width="0.8" height="18.4" fill="#232426"/>
<rect x="428.695" y="63.1995" width="0.8" height="14.4" fill="#232426"/>
<rect x="411.805" y="63.1995" width="0.8" height="14.4" fill="#232426"/>
<rect x="432.07" y="63.1995" width="0.8" height="14.4" fill="#232426"/>
<rect x="415.18" y="63.1995" width="0.8" height="14.4" fill="#232426"/>
<rect x="435.445" y="63.1995" width="0.8" height="14.4" fill="#232426"/>
<rect x="418.562" y="63.1995" width="0.8" height="14.4" fill="#232426"/>
<rect x="438.828" y="63.1995" width="0.8" height="14.4" fill="#232426"/>
<rect x="421.938" y="63.1995" width="0.8" height="14.4" fill="#232426"/>
<path d="M440.625 42.9119L440.625 49.7744L439.758 49.7744L439.758 43.9947L438.009 44.6322L438.009 43.8494L440.489 42.9119L440.625 42.9119ZM444.441 45.9354L445.059 45.9354C445.363 45.9354 445.613 45.8854 445.809 45.7854C446.009 45.6822 446.158 45.5432 446.255 45.3682C446.355 45.19 446.405 44.99 446.405 44.7682C446.405 44.5057 446.361 44.2854 446.273 44.1072C446.186 43.9291 446.055 43.7947 445.88 43.7041C445.705 43.6135 445.483 43.5682 445.214 43.5682C444.97 43.5682 444.755 43.6166 444.567 43.7135C444.383 43.8072 444.237 43.9416 444.131 44.1166C444.028 44.2916 443.977 44.4979 443.977 44.7354L443.109 44.7354C443.109 44.3885 443.197 44.0729 443.372 43.7885C443.547 43.5041 443.792 43.2775 444.108 43.1088C444.427 42.94 444.795 42.8557 445.214 42.8557C445.627 42.8557 445.988 42.9291 446.297 43.076C446.606 43.2197 446.847 43.4354 447.019 43.7229C447.191 44.0072 447.277 44.3619 447.277 44.7869C447.277 44.9588 447.236 45.1432 447.155 45.34C447.077 45.5338 446.953 45.715 446.784 45.8838C446.619 46.0525 446.403 46.1916 446.138 46.301C445.872 46.4072 445.553 46.4604 445.181 46.4604L444.441 46.4604L444.441 45.9354ZM444.441 46.6479L444.441 46.1275L445.181 46.1275C445.616 46.1275 445.975 46.1791 446.259 46.2822C446.544 46.3854 446.767 46.5229 446.93 46.6947C447.095 46.8666 447.211 47.0557 447.277 47.2619C447.345 47.465 447.38 47.6682 447.38 47.8713C447.38 48.19 447.325 48.4729 447.216 48.7197C447.109 48.9666 446.958 49.176 446.761 49.3479C446.567 49.5197 446.339 49.6494 446.077 49.7369C445.814 49.8244 445.528 49.8682 445.219 49.8682C444.922 49.8682 444.642 49.826 444.38 49.7416C444.12 49.6572 443.891 49.5354 443.691 49.376C443.491 49.2135 443.334 49.015 443.222 48.7807C443.109 48.5432 443.053 48.2729 443.053 47.9697L443.92 47.9697C443.92 48.2072 443.972 48.415 444.075 48.5932C444.181 48.7713 444.331 48.9104 444.525 49.0104C444.722 49.1072 444.953 49.1557 445.219 49.1557C445.484 49.1557 445.713 49.1104 445.903 49.0197C446.097 48.926 446.245 48.7854 446.348 48.5979C446.455 48.4104 446.508 48.1744 446.508 47.89C446.508 47.6057 446.448 47.3729 446.33 47.1916C446.211 47.0072 446.042 46.8713 445.823 46.7838C445.608 46.6932 445.353 46.6479 445.059 46.6479L444.441 46.6479Z" fill="#232426"/>
<rect x="475.398" y="51.9995" width="0.8" height="25.6" fill="#232426"/>
<rect x="458.508" y="59.1995" width="0.8" height="18.4" fill="#232426"/>
<rect x="461.891" y="63.1995" width="0.8" height="14.4" fill="#232426"/>
<rect x="445" y="63.1995" width="0.8" height="14.4" fill="#232426"/>
<rect x="465.266" y="63.1995" width="0.8" height="14.4" fill="#232426"/>
<rect x="448.375" y="63.1995" width="0.8" height="14.4" fill="#232426"/>
<rect x="468.641" y="63.1995" width="0.8" height="14.4" fill="#232426"/>
<rect x="451.758" y="63.1995" width="0.8" height="14.4" fill="#232426"/>
<rect x="472.023" y="63.1995" width="0.8" height="14.4" fill="#232426"/>
<rect x="455.133" y="63.1995" width="0.8" height="14.4" fill="#232426"/>
<path d="M473.82 42.9119L473.82 49.7744L472.953 49.7744L472.953 43.9947L471.205 44.6322L471.205 43.8494L473.684 42.9119L473.82 42.9119ZM480.983 47.4775L480.983 48.19L476.052 48.19L476.052 47.6791L479.108 42.9494L479.816 42.9494L479.056 44.3182L477.036 47.4775L480.983 47.4775ZM480.031 42.9494L480.031 49.7744L479.164 49.7744L479.164 42.9494L480.031 42.9494Z" fill="#232426"/>
<rect x="508.602" y="51.9995" width="0.8" height="25.6" fill="#232426"/>
<rect x="491.711" y="59.1995" width="0.8" height="18.4" fill="#232426"/>
<rect x="495.094" y="63.1995" width="0.8" height="14.4" fill="#232426"/>
<rect x="478.203" y="63.1995" width="0.8" height="14.4" fill="#232426"/>
<rect x="498.469" y="63.1995" width="0.8" height="14.4" fill="#232426"/>
<rect x="481.578" y="63.1995" width="0.8" height="14.4" fill="#232426"/>
<rect x="501.844" y="63.1995" width="0.8" height="14.4" fill="#232426"/>
<rect x="484.961" y="63.1995" width="0.8" height="14.4" fill="#232426"/>
<rect x="505.227" y="63.1995" width="0.8" height="14.4" fill="#232426"/>
<rect x="488.336" y="63.1995" width="0.8" height="14.4" fill="#232426"/>
<path d="M507.023 42.9119L507.023 49.7744L506.156 49.7744L506.156 43.9947L504.408 44.6322L504.408 43.8494L506.887 42.9119L507.023 42.9119ZM510.67 46.526L509.977 46.3479L510.319 42.9494L513.82 42.9494L513.82 43.751L511.055 43.751L510.848 45.6072C510.973 45.5354 511.131 45.4682 511.322 45.4057C511.516 45.3432 511.738 45.3119 511.988 45.3119C512.303 45.3119 512.586 45.3666 512.836 45.476C513.086 45.5822 513.298 45.7354 513.473 45.9354C513.652 46.1354 513.788 46.376 513.881 46.6572C513.975 46.9385 514.022 47.2525 514.022 47.5994C514.022 47.9275 513.977 48.2291 513.886 48.5041C513.798 48.7791 513.666 49.0197 513.488 49.226C513.309 49.4291 513.084 49.5869 512.813 49.6994C512.544 49.8119 512.227 49.8682 511.861 49.8682C511.586 49.8682 511.325 49.8307 511.078 49.7557C510.834 49.6775 510.616 49.5604 510.422 49.4041C510.231 49.2447 510.075 49.0479 509.953 48.8135C509.834 48.576 509.759 48.2979 509.728 47.9791L510.553 47.9791C510.591 48.2354 510.666 48.451 510.778 48.626C510.891 48.801 511.037 48.9338 511.219 49.0244C511.403 49.1119 511.617 49.1557 511.861 49.1557C512.067 49.1557 512.25 49.1197 512.409 49.0479C512.569 48.976 512.703 48.8729 512.813 48.7385C512.922 48.6041 513.005 48.4416 513.061 48.251C513.12 48.0604 513.15 47.8463 513.15 47.6088C513.15 47.3932 513.12 47.1932 513.061 47.0088C513.002 46.8244 512.913 46.6635 512.794 46.526C512.678 46.3885 512.536 46.2822 512.367 46.2072C512.198 46.1291 512.005 46.09 511.786 46.09C511.495 46.09 511.275 46.1291 511.125 46.2072C510.978 46.2854 510.827 46.3916 510.67 46.526Z" fill="#232426"/>
<rect x="541.805" y="51.9995" width="0.8" height="25.6" fill="#232426"/>
<rect x="524.914" y="59.1995" width="0.8" height="18.4" fill="#232426"/>
<rect x="528.297" y="63.1995" width="0.8" height="14.4" fill="#232426"/>
<rect x="511.406" y="63.1995" width="0.8" height="14.4" fill="#232426"/>
<rect x="531.672" y="63.1995" width="0.8" height="14.4" fill="#232426"/>
<rect x="514.781" y="63.1995" width="0.8" height="14.4" fill="#232426"/>
<rect x="535.047" y="63.1995" width="0.8" height="14.4" fill="#232426"/>
<rect x="518.164" y="63.1995" width="0.8" height="14.4" fill="#232426"/>
<rect x="538.43" y="63.1995" width="0.8" height="14.4" fill="#232426"/>
<rect x="521.539" y="63.1995" width="0.8" height="14.4" fill="#232426"/>
<path d="M540.227 42.9119L540.227 49.7744L539.359 49.7744L539.359 43.9947L537.611 44.6322L537.611 43.8494L540.091 42.9119L540.227 42.9119ZM546.105 42.94L546.18 42.94L546.18 43.676L546.105 43.676C545.645 43.676 545.261 43.751 544.952 43.901C544.642 44.0479 544.397 44.2463 544.216 44.4963C544.034 44.7432 543.903 45.0213 543.822 45.3307C543.744 45.64 543.705 45.9541 543.705 46.2729L543.705 47.276C543.705 47.5791 543.741 47.8479 543.812 48.0822C543.884 48.3135 543.983 48.5088 544.108 48.6682C544.233 48.8275 544.373 48.9479 544.53 49.0291C544.689 49.1104 544.855 49.151 545.027 49.151C545.227 49.151 545.405 49.1135 545.561 49.0385C545.717 48.9604 545.848 48.8525 545.955 48.715C546.064 48.5744 546.147 48.4088 546.203 48.2182C546.259 48.0275 546.288 47.8182 546.288 47.59C546.288 47.3869 546.263 47.1916 546.213 47.0041C546.163 46.8135 546.086 46.6447 545.983 46.4979C545.88 46.3479 545.75 46.2307 545.594 46.1463C545.441 46.0588 545.258 46.015 545.045 46.015C544.805 46.015 544.58 46.0744 544.37 46.1932C544.164 46.3088 543.994 46.4619 543.859 46.6525C543.728 46.84 543.653 47.0447 543.634 47.2666L543.175 47.2619C543.219 46.9119 543.3 46.6135 543.419 46.3666C543.541 46.1166 543.691 45.9135 543.869 45.7572C544.05 45.5979 544.252 45.4822 544.473 45.4104C544.698 45.3354 544.936 45.2979 545.186 45.2979C545.527 45.2979 545.82 45.3619 546.067 45.49C546.314 45.6182 546.517 45.79 546.677 46.0057C546.836 46.2182 546.953 46.4588 547.028 46.7275C547.106 46.9932 547.145 47.2666 547.145 47.5479C547.145 47.8697 547.1 48.1713 547.009 48.4525C546.919 48.7338 546.783 48.9807 546.602 49.1932C546.423 49.4057 546.203 49.5713 545.941 49.69C545.678 49.8088 545.373 49.8682 545.027 49.8682C544.658 49.8682 544.336 49.7932 544.061 49.6432C543.786 49.49 543.558 49.2869 543.377 49.0338C543.195 48.7807 543.059 48.4994 542.969 48.19C542.878 47.8807 542.833 47.5666 542.833 47.2479L542.833 46.84C542.833 46.3588 542.881 45.8869 542.978 45.4244C543.075 44.9619 543.242 44.5432 543.48 44.1682C543.72 43.7932 544.053 43.4947 544.478 43.2729C544.903 43.051 545.445 42.94 546.105 42.94Z" fill="#232426"/>
<rect x="575" y="51.9995" width="0.8" height="25.6" fill="#232426"/>
<rect x="558.109" y="59.1995" width="0.8" height="18.4" fill="#232426"/>
<rect x="561.492" y="63.1995" width="0.8" height="14.4" fill="#232426"/>
<rect x="544.602" y="63.1995" width="0.8" height="14.4" fill="#232426"/>
<rect x="564.867" y="63.1995" width="0.8" height="14.4" fill="#232426"/>
<rect x="547.977" y="63.1995" width="0.8" height="14.4" fill="#232426"/>
<rect x="568.242" y="63.1995" width="0.8" height="14.4" fill="#232426"/>
<rect x="551.359" y="63.1995" width="0.8" height="14.4" fill="#232426"/>
<rect x="571.625" y="63.1995" width="0.8" height="14.4" fill="#232426"/>
<rect x="554.734" y="63.1995" width="0.8" height="14.4" fill="#232426"/>
<path d="M573.422 42.9119L573.422 49.7744L572.555 49.7744L572.555 43.9947L570.806 44.6322L570.806 43.8494L573.286 42.9119L573.422 42.9119ZM580.383 42.9494L580.383 43.4369L577.556 49.7744L576.642 49.7744L579.464 43.6619L575.77 43.6619L575.77 42.9494L580.383 42.9494Z" fill="#232426"/>
<rect x="608.203" y="51.9995" width="0.8" height="25.6" fill="#232426"/>
<rect x="591.312" y="59.1995" width="0.8" height="18.4" fill="#232426"/>
<rect x="594.695" y="63.1995" width="0.8" height="14.4" fill="#232426"/>
<rect x="577.805" y="63.1995" width="0.8" height="14.4" fill="#232426"/>
<rect x="598.07" y="63.1995" width="0.8" height="14.4" fill="#232426"/>
<rect x="581.18" y="63.1995" width="0.8" height="14.4" fill="#232426"/>
<rect x="601.445" y="63.1995" width="0.8" height="14.4" fill="#232426"/>
<rect x="584.562" y="63.1995" width="0.8" height="14.4" fill="#232426"/>
<rect x="604.828" y="63.1995" width="0.8" height="14.4" fill="#232426"/>
<rect x="587.938" y="63.1995" width="0.8" height="14.4" fill="#232426"/>
<path d="M606.625 42.9119L606.625 49.7744L605.758 49.7744L605.758 43.9947L604.009 44.6322L604.009 43.8494L606.489 42.9119L606.625 42.9119ZM613.478 47.9275C613.478 48.3432 613.381 48.6963 613.188 48.9869C612.997 49.2744 612.738 49.4932 612.409 49.6432C612.084 49.7932 611.717 49.8682 611.308 49.8682C610.898 49.8682 610.53 49.7932 610.202 49.6432C609.873 49.4932 609.614 49.2744 609.423 48.9869C609.233 48.6963 609.137 48.3432 609.137 47.9275C609.137 47.6557 609.189 47.4072 609.292 47.1822C609.398 46.9541 609.547 46.7557 609.737 46.5869C609.931 46.4182 610.159 46.2885 610.422 46.1979C610.687 46.1041 610.98 46.0572 611.298 46.0572C611.717 46.0572 612.091 46.1385 612.419 46.301C612.747 46.4604 613.005 46.6807 613.192 46.9619C613.383 47.2432 613.478 47.565 613.478 47.9275ZM612.606 47.9088C612.606 47.6557 612.552 47.4322 612.442 47.2385C612.333 47.0416 612.18 46.8885 611.983 46.7791C611.786 46.6697 611.558 46.615 611.298 46.615C611.033 46.615 610.803 46.6697 610.609 46.7791C610.419 46.8885 610.27 47.0416 610.164 47.2385C610.058 47.4322 610.005 47.6557 610.005 47.9088C610.005 48.1713 610.056 48.3963 610.159 48.5838C610.266 48.7682 610.416 48.9104 610.609 49.0104C610.806 49.1072 611.039 49.1557 611.308 49.1557C611.577 49.1557 611.808 49.1072 612.002 49.0104C612.195 48.9104 612.344 48.7682 612.447 48.5838C612.553 48.3963 612.606 48.1713 612.606 47.9088ZM613.319 44.726C613.319 45.0572 613.231 45.3557 613.056 45.6213C612.881 45.8869 612.642 46.0963 612.339 46.2494C612.036 46.4025 611.692 46.4791 611.308 46.4791C610.917 46.4791 610.569 46.4025 610.262 46.2494C609.959 46.0963 609.722 45.8869 609.55 45.6213C609.378 45.3557 609.292 45.0572 609.292 44.726C609.292 44.3291 609.378 43.9916 609.55 43.7135C609.725 43.4354 609.964 43.2229 610.267 43.076C610.57 42.9291 610.916 42.8557 611.303 42.8557C611.694 42.8557 612.041 42.9291 612.344 43.076C612.647 43.2229 612.884 43.4354 613.056 43.7135C613.231 43.9916 613.319 44.3291 613.319 44.726ZM612.452 44.74C612.452 44.5119 612.403 44.3104 612.306 44.1354C612.209 43.9604 612.075 43.8229 611.903 43.7229C611.731 43.6197 611.531 43.5682 611.303 43.5682C611.075 43.5682 610.875 43.6166 610.703 43.7135C610.534 43.8072 610.402 43.9416 610.305 44.1166C610.211 44.2916 610.164 44.4994 610.164 44.74C610.164 44.9744 610.211 45.1791 610.305 45.3541C610.402 45.5291 610.536 45.665 610.708 45.7619C610.88 45.8588 611.08 45.9072 611.308 45.9072C611.536 45.9072 611.734 45.8588 611.903 45.7619C612.075 45.665 612.209 45.5291 612.306 45.3541C612.403 45.1791 612.452 44.9744 612.452 44.74Z" fill="#232426"/>
<rect x="641.398" y="51.9995" width="0.8" height="25.6" fill="#232426"/>
<rect x="624.508" y="59.1995" width="0.8" height="18.4" fill="#232426"/>
<rect x="627.891" y="63.1995" width="0.8" height="14.4" fill="#232426"/>
<rect x="611" y="63.1995" width="0.8" height="14.4" fill="#232426"/>
<rect x="631.266" y="63.1995" width="0.8" height="14.4" fill="#232426"/>
<rect x="614.375" y="63.1995" width="0.8" height="14.4" fill="#232426"/>
<rect x="634.641" y="63.1995" width="0.8" height="14.4" fill="#232426"/>
<rect x="617.758" y="63.1995" width="0.8" height="14.4" fill="#232426"/>
<rect x="638.023" y="63.1995" width="0.8" height="14.4" fill="#232426"/>
<rect x="621.133" y="63.1995" width="0.8" height="14.4" fill="#232426"/>
<path d="M639.82 42.9119L639.82 49.7744L638.953 49.7744L638.953 43.9947L637.205 44.6322L637.205 43.8494L639.684 42.9119L639.82 42.9119ZM643.233 49.0479L643.322 49.0479C643.822 49.0479 644.228 48.9775 644.541 48.8369C644.853 48.6963 645.094 48.5072 645.263 48.2697C645.431 48.0322 645.547 47.765 645.609 47.4682C645.672 47.1682 645.703 46.8604 645.703 46.5447L645.703 45.4994C645.703 45.19 645.667 44.915 645.595 44.6744C645.527 44.4338 645.43 44.2322 645.305 44.0697C645.183 43.9072 645.044 43.7838 644.888 43.6994C644.731 43.615 644.566 43.5729 644.391 43.5729C644.191 43.5729 644.011 43.6135 643.852 43.6947C643.695 43.7729 643.562 43.8838 643.453 44.0275C643.347 44.1713 643.266 44.34 643.209 44.5338C643.153 44.7275 643.125 44.9385 643.125 45.1666C643.125 45.3697 643.15 45.5666 643.2 45.7572C643.25 45.9479 643.327 46.1197 643.43 46.2729C643.533 46.426 643.661 46.5479 643.814 46.6385C643.97 46.726 644.153 46.7697 644.363 46.7697C644.556 46.7697 644.738 46.7322 644.906 46.6572C645.078 46.5791 645.23 46.4744 645.361 46.3432C645.495 46.2088 645.602 46.0572 645.68 45.8885C645.761 45.7197 645.808 45.5432 645.82 45.3588L646.233 45.3588C646.233 45.6182 646.181 45.8744 646.078 46.1275C645.978 46.3775 645.838 46.6057 645.656 46.8119C645.475 47.0182 645.263 47.1838 645.019 47.3088C644.775 47.4307 644.509 47.4916 644.222 47.4916C643.884 47.4916 643.592 47.426 643.345 47.2947C643.098 47.1635 642.895 46.9885 642.736 46.7697C642.58 46.551 642.462 46.3072 642.384 46.0385C642.309 45.7666 642.272 45.4916 642.272 45.2135C642.272 44.8885 642.317 44.5838 642.408 44.2994C642.498 44.015 642.633 43.765 642.811 43.5494C642.989 43.3307 643.209 43.1604 643.472 43.0385C643.737 42.9166 644.044 42.8557 644.391 42.8557C644.781 42.8557 645.114 42.9338 645.389 43.09C645.664 43.2463 645.888 43.4557 646.059 43.7182C646.234 43.9807 646.363 44.276 646.444 44.6041C646.525 44.9322 646.566 45.2697 646.566 45.6166L646.566 45.9307C646.566 46.2838 646.542 46.6432 646.495 47.0088C646.452 47.3713 646.366 47.7182 646.238 48.0494C646.113 48.3807 645.93 48.6775 645.689 48.94C645.448 49.1994 645.134 49.4057 644.747 49.5588C644.363 49.7088 643.887 49.7838 643.322 49.7838L643.233 49.7838L643.233 49.0479Z" fill="#232426"/>
<rect x="674.602" y="51.9995" width="0.8" height="25.6" fill="#232426"/>
<rect x="657.711" y="59.1995" width="0.8" height="18.4" fill="#232426"/>
<rect x="661.094" y="63.1995" width="0.8" height="14.4" fill="#232426"/>
<rect x="644.203" y="63.1995" width="0.8" height="14.4" fill="#232426"/>
<rect x="664.469" y="63.1995" width="0.8" height="14.4" fill="#232426"/>
<rect x="647.578" y="63.1995" width="0.8" height="14.4" fill="#232426"/>
<rect x="667.844" y="63.1995" width="0.8" height="14.4" fill="#232426"/>
<rect x="650.961" y="63.1995" width="0.8" height="14.4" fill="#232426"/>
<rect x="671.227" y="63.1995" width="0.8" height="14.4" fill="#232426"/>
<rect x="654.336" y="63.1995" width="0.8" height="14.4" fill="#232426"/>
<path d="M674.645 49.0619L674.645 49.7744L670.178 49.7744L670.178 49.151L672.414 46.6619C672.689 46.3557 672.902 46.0963 673.052 45.8838C673.205 45.6682 673.311 45.476 673.37 45.3072C673.433 45.1354 673.464 44.9604 673.464 44.7822C673.464 44.5572 673.417 44.3541 673.323 44.1729C673.233 43.9885 673.098 43.8416 672.92 43.7322C672.742 43.6229 672.527 43.5682 672.273 43.5682C671.97 43.5682 671.717 43.6275 671.514 43.7463C671.314 43.8619 671.164 44.0244 671.064 44.2338C670.964 44.4432 670.914 44.6838 670.914 44.9557L670.047 44.9557C670.047 44.5713 670.131 44.2197 670.3 43.901C670.469 43.5822 670.719 43.3291 671.05 43.1416C671.381 42.951 671.789 42.8557 672.273 42.8557C672.705 42.8557 673.073 42.9322 673.38 43.0854C673.686 43.2354 673.92 43.4479 674.083 43.7229C674.248 43.9947 674.331 44.3135 674.331 44.6791C674.331 44.8791 674.297 45.0822 674.228 45.2885C674.162 45.4916 674.07 45.6947 673.952 45.8979C673.836 46.101 673.7 46.301 673.544 46.4979C673.391 46.6947 673.227 46.8885 673.052 47.0791L671.223 49.0619L674.645 49.0619ZM679.858 45.8182L679.858 46.8588C679.858 47.4182 679.808 47.89 679.708 48.2744C679.608 48.6588 679.464 48.9682 679.277 49.2025C679.089 49.4369 678.863 49.6072 678.597 49.7135C678.334 49.8166 678.038 49.8682 677.706 49.8682C677.444 49.8682 677.202 49.8354 676.98 49.7697C676.758 49.7041 676.558 49.5994 676.38 49.4557C676.205 49.3088 676.055 49.1182 675.93 48.8838C675.805 48.6494 675.709 48.365 675.644 48.0307C675.578 47.6963 675.545 47.3057 675.545 46.8588L675.545 45.8182C675.545 45.2588 675.595 44.79 675.695 44.4119C675.798 44.0338 675.944 43.7307 676.131 43.5025C676.319 43.2713 676.544 43.1057 676.806 43.0057C677.072 42.9057 677.369 42.8557 677.697 42.8557C677.963 42.8557 678.206 42.8885 678.428 42.9541C678.653 43.0166 678.853 43.1182 679.028 43.2588C679.203 43.3963 679.352 43.5807 679.473 43.8119C679.598 44.04 679.694 44.3197 679.759 44.651C679.825 44.9822 679.858 45.3713 679.858 45.8182ZM678.986 46.9994L678.986 45.6729C678.986 45.3666 678.967 45.0979 678.93 44.8666C678.895 44.6322 678.844 44.4322 678.775 44.2666C678.706 44.101 678.619 43.9666 678.513 43.8635C678.409 43.7604 678.289 43.6854 678.152 43.6385C678.017 43.5885 677.866 43.5635 677.697 43.5635C677.491 43.5635 677.308 43.6025 677.148 43.6807C676.989 43.7557 676.855 43.876 676.745 44.0416C676.639 44.2072 676.558 44.4244 676.502 44.6932C676.445 44.9619 676.417 45.2885 676.417 45.6729L676.417 46.9994C676.417 47.3057 676.434 47.576 676.469 47.8104C676.506 48.0447 676.561 48.2479 676.633 48.4197C676.705 48.5885 676.792 48.7275 676.895 48.8369C676.998 48.9463 677.117 49.0275 677.252 49.0807C677.389 49.1307 677.541 49.1557 677.706 49.1557C677.919 49.1557 678.105 49.115 678.264 49.0338C678.423 48.9525 678.556 48.826 678.663 48.6541C678.772 48.4791 678.853 48.2557 678.906 47.9838C678.959 47.7088 678.986 47.3807 678.986 46.9994Z" fill="#232426"/>
</g>
<rect x="0.703125" y="1.2998" width="682.2" height="75.8" rx="4.3" stroke="#C0C5CC"/>
</g>
<defs>
<clipPath id="clip0_4281_35811">
<rect x="0.203125" y="0.799805" width="683.2" height="76.8" rx="4.8" fill="white"/>
</clipPath>
</defs>
</svg>
