<svg width="208" height="353" viewBox="0 0 208 353" fill="none" xmlns="http://www.w3.org/2000/svg">
<path fill-rule="evenodd" clip-rule="evenodd" d="M203.01 352.313H4.50696C2.29781 352.313 0.506958 350.523 0.506958 348.313V4.50675C0.506958 0.414362 5.92479 -1.03739 7.97102 2.50669L206.474 346.313C208.013 348.98 206.089 352.313 203.01 352.313ZM75.8594 321.406C51.0066 321.406 30.8594 301.259 30.8594 276.406C30.8594 251.553 51.0066 231.406 75.8594 231.406C100.712 231.406 120.859 251.553 120.859 276.406C120.859 301.259 100.712 321.406 75.8594 321.406Z" fill="#F8F8F8"/>
<path d="M7.97102 2.50669L7.53801 2.7567V2.7567L7.97102 2.50669ZM206.474 346.313L206.041 346.563H206.041L206.474 346.313ZM4.50696 351.813H203.01V352.813H4.50696V351.813ZM1.00696 348.313C1.00696 350.246 2.57394 351.813 4.50696 351.813V352.813C2.02167 352.813 0.00695801 350.799 0.00695801 348.313H1.00696ZM1.00696 4.50675V348.313H0.00695801V4.50675H1.00696ZM7.53801 2.7567C5.74756 -0.344371 1.00696 0.925904 1.00696 4.50675H0.00695801C0.00695801 -0.0971797 6.10202 -1.73041 8.40404 2.25669L7.53801 2.7567ZM206.041 346.563L7.53801 2.7567L8.40404 2.25669L206.907 346.063L206.041 346.563ZM203.01 351.813C205.704 351.813 207.388 348.897 206.041 346.563L206.907 346.063C208.639 349.063 206.474 352.813 203.01 352.813V351.813ZM31.3594 276.406C31.3594 300.983 51.2827 320.906 75.8594 320.906V321.906C50.7304 321.906 30.3594 301.535 30.3594 276.406H31.3594ZM75.8594 231.906C51.2827 231.906 31.3594 251.83 31.3594 276.406H30.3594C30.3594 251.277 50.7304 230.906 75.8594 230.906V231.906ZM120.359 276.406C120.359 251.83 100.436 231.906 75.8594 231.906V230.906C100.988 230.906 121.359 251.277 121.359 276.406H120.359ZM75.8594 320.906C100.436 320.906 120.359 300.983 120.359 276.406H121.359C121.359 301.535 100.988 321.906 75.8594 321.906V320.906Z" fill="#C0C5CC"/>
</svg>
