<svg width="311" height="312" opacity="0.7" viewBox="0 0 311 312" fill="none" xmlns="http://www.w3.org/2000/svg">
<g opacity="0.7">
<g clip-path="url(#clip0_4169_14644)">
<path fill-rule="evenodd" clip-rule="evenodd" d="M0.699219 15.4485V307.506C0.699219 309.273 2.13191 310.706 3.89922 310.706H302.974C305.825 310.706 307.252 307.259 305.236 305.243L6.16196 6.16828C4.14608 4.1524 0.699219 5.58013 0.699219 8.43102V15.4485ZM91.6211 265.006C66.7683 265.006 46.6211 244.859 46.6211 220.006C46.6211 195.153 66.7683 175.006 91.6211 175.006C116.474 175.006 136.621 195.153 136.621 220.006C136.621 244.859 116.474 265.006 91.6211 265.006Z" fill="white"/>
<path d="M305.236 305.243L305.519 304.96L305.236 305.243ZM6.16196 6.16828L5.87912 6.45113L6.16196 6.16828ZM1.09922 307.506V15.4485H0.299219V307.506H1.09922ZM3.89922 310.306C2.35282 310.306 1.09922 309.052 1.09922 307.506H0.299219C0.299219 309.494 1.91099 311.106 3.89922 311.106V310.306ZM302.974 310.306H3.89922V311.106H302.974V310.306ZM304.954 305.526C306.718 307.29 305.468 310.306 302.974 310.306V311.106C306.181 311.106 307.787 307.228 305.519 304.96L304.954 305.526ZM5.87912 6.45113L304.954 305.526L305.519 304.96L6.44481 5.88544L5.87912 6.45113ZM1.09922 8.43102C1.09922 5.93649 4.11522 4.68722 5.87912 6.45113L6.44481 5.88544C4.17693 3.61757 0.299219 5.22376 0.299219 8.43102H1.09922ZM1.09922 15.4485V8.43102H0.299219V15.4485H1.09922ZM46.2211 220.006C46.2211 245.08 66.5474 265.406 91.6211 265.406V264.606C66.9892 264.606 47.0211 244.638 47.0211 220.006H46.2211ZM91.6211 174.606C66.5474 174.606 46.2211 194.932 46.2211 220.006H47.0211C47.0211 195.374 66.9892 175.406 91.6211 175.406V174.606ZM137.021 220.006C137.021 194.932 116.695 174.606 91.6211 174.606V175.406C116.253 175.406 136.221 195.374 136.221 220.006H137.021ZM91.6211 265.406C116.695 265.406 137.021 245.08 137.021 220.006H136.221C136.221 244.638 116.253 264.606 91.6211 264.606V265.406Z" fill="#8D9299"/>
</g>
</g>
<defs>
<clipPath id="clip0_4169_14644">
<rect y="0.705078" width="310.7" height="310.5" rx="3.2" fill="white"/>
</clipPath>
</defs>
</svg>
