<svg width="208" height="353" viewBox="0 0 208 353" fill="none" xmlns="http://www.w3.org/2000/svg">
<g opacity="0.7">
<path fill-rule="evenodd" clip-rule="evenodd" d="M203.502 352.313H4.99915C2.78999 352.313 0.999146 350.523 0.999146 348.313V4.50675C0.999146 0.414362 6.41698 -1.03739 8.46321 2.50669L206.966 346.313C208.506 348.98 206.581 352.313 203.502 352.313ZM76.3516 321.406C51.4987 321.406 31.3516 301.259 31.3516 276.406C31.3516 251.553 51.4987 231.406 76.3516 231.406C101.204 231.406 121.352 251.553 121.352 276.406C121.352 301.259 101.204 321.406 76.3516 321.406Z" fill="white"/>
<path d="M8.46321 2.50669L8.0302 2.7567V2.7567L8.46321 2.50669ZM206.966 346.313L206.533 346.563H206.533L206.966 346.313ZM4.99915 351.813H203.502V352.813H4.99915V351.813ZM1.49915 348.313C1.49915 350.246 3.06613 351.813 4.99915 351.813V352.813C2.51385 352.813 0.499146 350.799 0.499146 348.313H1.49915ZM1.49915 4.50675V348.313H0.499146V4.50675H1.49915ZM8.0302 2.7567C6.23975 -0.344371 1.49915 0.925904 1.49915 4.50675H0.499146C0.499146 -0.0971797 6.59421 -1.73041 8.89622 2.25669L8.0302 2.7567ZM206.533 346.563L8.0302 2.7567L8.89622 2.25669L207.399 346.063L206.533 346.563ZM203.502 351.813C206.196 351.813 207.88 348.897 206.533 346.563L207.399 346.063C209.131 349.063 206.966 352.813 203.502 352.813V351.813ZM31.8516 276.406C31.8516 300.983 51.7749 320.906 76.3516 320.906V321.906C51.2226 321.906 30.8516 301.535 30.8516 276.406H31.8516ZM76.3516 231.906C51.7749 231.906 31.8516 251.83 31.8516 276.406H30.8516C30.8516 251.277 51.2226 230.906 76.3516 230.906V231.906ZM120.852 276.406C120.852 251.83 100.928 231.906 76.3516 231.906V230.906C101.481 230.906 121.852 251.277 121.852 276.406H120.852ZM76.3516 320.906C100.928 320.906 120.852 300.983 120.852 276.406H121.852C121.852 301.535 101.481 321.906 76.3516 321.906V320.906Z" fill="#8D9299"/>
</g>
</svg>
