<svg width="312" height="312" viewBox="0 0 312 312" fill="none" xmlns="http://www.w3.org/2000/svg">
<g clip-path="url(#clip0_4900_28860)">
<path fill-rule="evenodd" clip-rule="evenodd" d="M1.35156 15.4929V307.55C1.35156 309.317 2.78425 310.75 4.55156 310.75H303.626C306.477 310.75 307.905 307.303 305.889 305.287L6.81431 6.21272C4.79842 4.19683 1.35156 5.62456 1.35156 8.47546V15.4929ZM92.2734 265.05C67.4206 265.05 47.2734 244.903 47.2734 220.05C47.2734 195.197 67.4206 175.05 92.2734 175.05C117.126 175.05 137.273 195.197 137.273 220.05C137.273 244.903 117.126 265.05 92.2734 265.05Z" fill="#F8F8F8"/>
<path d="M305.889 305.287L306.172 305.004L305.889 305.287ZM6.81431 6.21272L6.53146 6.49556L6.81431 6.21272ZM1.75156 307.55V15.4929H0.951562V307.55H1.75156ZM4.55156 310.35C3.00517 310.35 1.75156 309.096 1.75156 307.55H0.951562C0.951562 309.538 2.56333 311.15 4.55156 311.15V310.35ZM303.626 310.35H4.55156V311.15H303.626V310.35ZM305.606 305.57C307.37 307.334 306.121 310.35 303.626 310.35V311.15C306.833 311.15 308.44 307.272 306.172 305.004L305.606 305.57ZM6.53146 6.49556L305.606 305.57L306.172 305.004L7.09715 5.92987L6.53146 6.49556ZM1.75156 8.47546C1.75156 5.98092 4.76756 4.73166 6.53146 6.49556L7.09715 5.92987C4.82928 3.662 0.951562 5.2682 0.951562 8.47546H1.75156ZM1.75156 15.4929V8.47546H0.951562V15.4929H1.75156ZM46.8734 220.05C46.8734 245.124 67.1997 265.45 92.2734 265.45V264.65C67.6415 264.65 47.6734 244.682 47.6734 220.05H46.8734ZM92.2734 174.65C67.1997 174.65 46.8734 194.977 46.8734 220.05H47.6734C47.6734 195.418 67.6415 175.45 92.2734 175.45V174.65ZM137.673 220.05C137.673 194.977 117.347 174.65 92.2734 174.65V175.45C116.905 175.45 136.873 195.418 136.873 220.05H137.673ZM92.2734 265.45C117.347 265.45 137.673 245.124 137.673 220.05H136.873C136.873 244.682 116.905 264.65 92.2734 264.65V265.45Z" fill="#C0C5CC"/>
</g>
<defs>
<clipPath id="clip0_4900_28860">
<rect x="0.648438" y="0.75" width="310.7" height="310.5" rx="3.2" fill="white"/>
</clipPath>
</defs>
</svg>
