<svg xmlns="http://www.w3.org/2000/svg" width="160" height="133" viewBox="0 0 160 133" fill="none">
<path d="M36.7882 14.2174C17.6455 17.145 2.56 33.3888 0.306031 53.3465C-1.17515 66.4788 2.8176 78.624 10.1752 87.7246C11.8496 89.9663 13.7655 92.0741 15.9872 93.931C38.3177 112.718 64.2545 118.857 87.4543 118.857C107.563 118.857 125.627 114.24 137.46 109.205C151.435 103.283 159.92 89.3306 160 74.5589V74.1072C159.968 69.4398 159.098 64.7055 157.295 60.1217C149.728 40.8667 128.573 31.649 110.058 39.4949C109.914 39.5618 102.701 42.3556 93.1697 43.3258C88.2432 43.8277 83.5259 41.2012 81.111 36.7179C72.7391 21.1934 55.7377 11.3233 36.7882 14.2174Z" fill="#7D4845"/>
<mask id="path-2-outside-1_4637_22904" maskUnits="userSpaceOnUse" x="51.7139" y="22.1428" width="58" height="80" fill="black">
<rect fill="white" x="51.7139" y="22.1428" width="58" height="80"/>
<path d="M59.57 86.7748C61.426 84.9828 63.57 83.0308 66.002 80.9188C68.498 78.8068 70.194 77.3348 71.09 76.5028C75.826 72.4708 79.538 69.1428 82.226 66.5188C84.978 63.8948 87.25 61.2068 89.042 58.4548C90.834 55.7028 91.73 53.0468 91.73 50.4868C91.73 46.9028 90.706 43.9588 88.658 41.6548C86.61 39.3508 83.986 38.1988 80.786 38.1988C78.226 38.1988 75.762 39.0308 73.394 40.6948C71.026 42.2948 69.266 44.4068 68.114 47.0308L57.458 42.2308C59.442 37.6868 62.61 33.9748 66.962 31.0948C71.378 28.2148 75.986 26.7748 80.786 26.7748C85.33 26.7748 89.362 27.7988 92.882 29.8468C96.402 31.8308 99.154 34.6148 101.138 38.1988C103.122 41.7828 104.114 45.8788 104.114 50.4868C104.114 55.0308 102.866 59.3828 100.37 63.5428C97.874 67.7028 94.898 71.4468 91.442 74.7748C87.986 78.0388 83.378 82.0388 77.618 86.7748H105.17V97.5268H60.53L59.57 86.7748Z"/>
</mask>
<path d="M59.57 86.7748C61.426 84.9828 63.57 83.0308 66.002 80.9188C68.498 78.8068 70.194 77.3348 71.09 76.5028C75.826 72.4708 79.538 69.1428 82.226 66.5188C84.978 63.8948 87.25 61.2068 89.042 58.4548C90.834 55.7028 91.73 53.0468 91.73 50.4868C91.73 46.9028 90.706 43.9588 88.658 41.6548C86.61 39.3508 83.986 38.1988 80.786 38.1988C78.226 38.1988 75.762 39.0308 73.394 40.6948C71.026 42.2948 69.266 44.4068 68.114 47.0308L57.458 42.2308C59.442 37.6868 62.61 33.9748 66.962 31.0948C71.378 28.2148 75.986 26.7748 80.786 26.7748C85.33 26.7748 89.362 27.7988 92.882 29.8468C96.402 31.8308 99.154 34.6148 101.138 38.1988C103.122 41.7828 104.114 45.8788 104.114 50.4868C104.114 55.0308 102.866 59.3828 100.37 63.5428C97.874 67.7028 94.898 71.4468 91.442 74.7748C87.986 78.0388 83.378 82.0388 77.618 86.7748H105.17V97.5268H60.53L59.57 86.7748Z" fill="white"/>
<path d="M59.57 86.7748L56.7916 83.8972L55.4158 85.2256L55.5858 87.1306L59.57 86.7748ZM66.002 80.9188L63.4182 77.8653L63.3986 77.8819L63.3792 77.8987L66.002 80.9188ZM71.09 76.5028L68.497 73.4571L68.4314 73.513L68.3682 73.5716L71.09 76.5028ZM82.226 66.5188L79.4657 63.6239L79.4487 63.6401L79.4318 63.6565L82.226 66.5188ZM89.042 58.4548L92.394 60.6375L92.394 60.6375L89.042 58.4548ZM88.658 41.6548L85.6684 44.3123L85.6684 44.3123L88.658 41.6548ZM73.394 40.6948L75.6334 44.0092L75.6638 43.9887L75.6938 43.9676L73.394 40.6948ZM68.114 47.0308L66.4712 50.6779L70.1532 52.3365L71.7766 48.6388L68.114 47.0308ZM57.458 42.2308L53.7922 40.6303L52.21 44.2539L55.8152 45.8779L57.458 42.2308ZM66.962 31.0948L64.7769 27.7444L64.7657 27.7517L64.7545 27.7591L66.962 31.0948ZM92.882 29.8468L90.8704 33.3042L90.8941 33.318L90.9179 33.3314L92.882 29.8468ZM101.138 38.1988L104.638 36.2616L104.638 36.2616L101.138 38.1988ZM100.37 63.5428L103.8 65.6008L103.8 65.6008L100.37 63.5428ZM91.442 74.7748L94.1885 77.6829L94.2026 77.6696L94.2166 77.6561L91.442 74.7748ZM77.618 86.7748L75.0776 83.6851L66.455 90.7748H77.618V86.7748ZM105.17 86.7748H109.17V82.7748H105.17V86.7748ZM105.17 97.5268V101.527H109.17V97.5268H105.17ZM60.53 97.5268L56.5458 97.8825L56.8712 101.527H60.53V97.5268ZM62.3484 89.6524C64.1432 87.9195 66.2335 86.0156 68.6247 83.939L63.3792 77.8987C60.9065 80.0461 58.7088 82.0461 56.7916 83.8972L62.3484 89.6524ZM68.5858 83.9724C71.0762 81.8651 72.839 80.3373 73.8118 79.434L68.3682 73.5716C67.549 74.3323 65.9198 75.7485 63.4182 77.8653L68.5858 83.9724ZM73.683 79.5485C78.4497 75.4904 82.239 72.096 85.0201 69.3811L79.4318 63.6565C76.8369 66.1896 73.2023 69.4513 68.497 73.4571L73.683 79.5485ZM84.9863 69.4138C87.9281 66.6088 90.4089 63.686 92.394 60.6375L85.69 56.2721C84.0911 58.7276 82.0279 61.1808 79.4657 63.6239L84.9863 69.4138ZM92.394 60.6375C94.4904 57.4181 95.73 54.0136 95.73 50.4868H87.73C87.73 52.08 87.1776 53.9876 85.69 56.2721L92.394 60.6375ZM95.73 50.4868C95.73 46.0924 94.4507 42.1509 91.6476 38.9974L85.6684 44.3123C86.9612 45.7668 87.73 47.7133 87.73 50.4868H95.73ZM91.6476 38.9974C88.8083 35.8031 85.079 34.1988 80.786 34.1988V42.1988C82.8929 42.1988 84.4117 42.8985 85.6684 44.3123L91.6476 38.9974ZM80.786 34.1988C77.2978 34.1988 74.0443 35.349 71.0942 37.4221L75.6938 43.9676C77.4796 42.7127 79.1542 42.1988 80.786 42.1988V34.1988ZM71.1546 37.3805C68.1587 39.4047 65.9062 42.1091 64.4514 45.4229L71.7766 48.6388C72.6257 46.7045 73.8933 45.185 75.6334 44.0092L71.1546 37.3805ZM69.7568 43.3838L59.1008 38.5838L55.8152 45.8779L66.4712 50.6779L69.7568 43.3838ZM61.1238 43.8314C62.7826 40.0323 65.4252 36.9084 69.1695 34.4306L64.7545 27.7591C59.7948 31.0413 56.1014 35.3413 53.7922 40.6303L61.1238 43.8314ZM69.1471 34.4453C72.9796 31.9458 76.8376 30.7748 80.786 30.7748V22.7748C75.1343 22.7748 69.7764 24.4839 64.7769 27.7444L69.1471 34.4453ZM80.786 30.7748C84.7071 30.7748 88.0298 31.6515 90.8704 33.3042L94.8936 26.3894C90.6942 23.9462 85.9529 22.7748 80.786 22.7748V30.7748ZM90.9179 33.3314C93.7834 34.9465 96.0079 37.1906 97.6384 40.1361L104.638 36.2616C102.3 32.039 99.0206 28.7152 94.846 26.3622L90.9179 33.3314ZM97.6384 40.1361C99.2549 43.0562 100.114 46.4705 100.114 50.4868H108.114C108.114 45.2872 106.989 40.5095 104.638 36.2616L97.6384 40.1361ZM100.114 50.4868C100.114 54.2565 99.0892 57.9028 96.94 61.4848L103.8 65.6008C106.643 60.8628 108.114 55.8051 108.114 50.4868H100.114ZM96.94 61.4848C94.6232 65.3461 91.8668 68.8127 88.6674 71.8935L94.2166 77.6561C97.9292 74.081 101.125 70.0595 103.8 65.6008L96.94 61.4848ZM88.6955 71.8668C85.3323 75.0431 80.8016 78.9787 75.0776 83.6851L80.1584 89.8645C85.9543 85.099 90.6397 81.0346 94.1885 77.6829L88.6955 71.8668ZM77.618 90.7748H105.17V82.7748H77.618V90.7748ZM101.17 86.7748V97.5268H109.17V86.7748H101.17ZM105.17 93.5268H60.53V101.527H105.17V93.5268ZM64.5141 97.1711L63.5541 86.4191L55.5858 87.1306L56.5458 97.8825L64.5141 97.1711Z" fill="#F4A100" mask="url(#path-2-outside-1_4637_22904)"/>
</svg>