<svg xmlns="http://www.w3.org/2000/svg" width="1002" height="56" viewBox="0 0 1002 56" fill="none">
<g clip-path="url(#clip0_4637_20904)">
<path d="M4.49972 33.8804C3.35908 31.523 4.16143 28.6851 6.36752 27.274L36.5001 8H116C129.255 8 140 18.7452 140 32C140 45.2548 129.255 56 116 56H1.73804C1.07673 56 0.733311 55.2116 1.18368 54.7274L1.39988 54.4949C6.58489 48.9199 7.81586 40.7337 4.49972 33.8804Z" fill="#FDD361"/>
<g clip-path="url(#clip1_4637_20904)">
<path d="M21.4344 43.2728C9.59204 43.2728 0 33.7878 0 22.0947C0 10.4017 9.59204 0.930542 21.4344 0.930542C33.2768 0.930542 42.8688 10.4155 42.8688 22.0947C42.8688 33.7739 33.2768 43.2589 21.4344 43.2589" fill="#FDD361"/>
<path d="M19.9566 6.81877C19.9566 9.13794 18.2688 10.6933 16.1873 10.6933C14.1057 10.6933 12.418 9.19349 12.418 6.81877C12.418 3.99965 14.1057 1.70825 16.1873 1.70825C18.2688 1.70825 19.9566 3.99965 19.9566 6.81877Z" fill="white"/>
<path d="M19.9566 6.81877C19.9566 9.13794 18.2688 10.6933 16.1873 10.6933C14.1057 10.6933 12.418 9.19349 12.418 6.81877C12.418 3.99965 14.1057 1.70825 16.1873 1.70825C18.2688 1.70825 19.9566 3.99965 19.9566 6.81877Z" stroke="#FDD361" stroke-width="3.1027" stroke-miterlimit="10"/>
<path d="M28.691 6.81864C28.691 9.13782 27.0032 10.6932 24.9216 10.6932C22.8401 10.6932 21.1523 9.19337 21.1523 6.81864C21.1523 3.99953 22.8401 1.70813 24.9216 1.70813C27.0032 1.70813 28.691 3.99953 28.691 6.81864Z" fill="white"/>
<path d="M28.691 6.81864C28.691 9.13782 27.0032 10.6932 24.9216 10.6932C22.8401 10.6932 21.1523 9.19337 21.1523 6.81864C21.1523 3.99953 22.8401 1.70813 24.9216 1.70813C27.0032 1.70813 28.691 3.99953 28.691 6.81864Z" stroke="#FDD361" stroke-width="3.1027" stroke-miterlimit="10"/>
<path d="M19.9566 6.81877C19.9566 9.13794 18.2688 10.6933 16.1873 10.6933C14.1057 10.6933 12.418 9.19349 12.418 6.81877C12.418 3.99965 14.1057 1.70825 16.1873 1.70825C18.2688 1.70825 19.9566 3.99965 19.9566 6.81877Z" fill="white"/>
<path d="M19.9566 6.81877C19.9566 9.13794 18.2688 10.6933 16.1873 10.6933C14.1057 10.6933 12.418 9.19349 12.418 6.81877C12.418 3.99965 14.1057 1.70825 16.1873 1.70825C18.2688 1.70825 19.9566 3.99965 19.9566 6.81877Z" stroke="#231815" stroke-width="0.504505" stroke-miterlimit="10"/>
<path d="M17.7204 4.4578C17.7204 5.42991 17.0312 6.2076 16.1873 6.2076C15.3435 6.2076 14.6543 5.42991 14.6543 4.4578C14.6543 3.48569 15.3435 2.70801 16.1873 2.70801C17.0312 2.70801 17.7204 3.48569 17.7204 4.4578Z" fill="#231815"/>
<path d="M28.691 6.81864C28.691 9.13782 27.0032 10.6932 24.9216 10.6932C22.8401 10.6932 21.1523 9.19337 21.1523 6.81864C21.1523 3.99953 22.8401 1.70813 24.9216 1.70813C27.0032 1.70813 28.691 3.99953 28.691 6.81864Z" fill="white"/>
<path d="M28.691 6.81864C28.691 9.13782 27.0032 10.6932 24.9216 10.6932C22.8401 10.6932 21.1523 9.19337 21.1523 6.81864C21.1523 3.99953 22.8401 1.70813 24.9216 1.70813C27.0032 1.70813 28.691 3.99953 28.691 6.81864Z" stroke="#231815" stroke-width="0.504505" stroke-miterlimit="10"/>
<path d="M26.4567 4.4578C26.4567 5.42991 25.7675 6.2076 24.9237 6.2076C24.0798 6.2076 23.3906 5.42991 23.3906 4.4578C23.3906 3.48569 24.0798 2.70801 24.9237 2.70801C25.7675 2.70801 26.4567 3.48569 26.4567 4.4578Z" fill="#231815"/>
<path d="M20.3086 16.4425C22.0667 16.2481 23.3465 15.9842 24.9921 15.0677C24.9921 15.0677 25.1749 14.7622 25.2453 13.5262C25.3156 12.2763 24.3733 11.7764 23.67 11.8181C22.9527 11.8597 22.0104 12.2069 21.6447 14.2067C21.2509 16.0676 20.3227 16.4425 20.3227 16.4425" fill="#EB6168"/>
<path d="M20.3086 16.4425C22.0667 16.2481 23.3465 15.9842 24.9921 15.0677C24.9921 15.0677 25.1749 14.7622 25.2453 13.5262C25.3156 12.2763 24.3733 11.7764 23.67 11.8181C22.9527 11.8597 22.0104 12.2069 21.6447 14.2067C21.2509 16.0676 20.3227 16.4425 20.3227 16.4425H20.3086Z" stroke="#EB6168" stroke-width="0.315315" stroke-linejoin="round"/>
<path d="M22.9668 16.0121C22.9668 16.0121 23.4169 15.9149 23.7122 13.3735" stroke="white" stroke-width="0.315315" stroke-miterlimit="10" stroke-linecap="round"/>
<path d="M25.078 14.9705C20.8446 17.7758 15.8657 15.7482 15.1484 14.7067" stroke="#231815" stroke-width="0.504505" stroke-miterlimit="10" stroke-linecap="round"/>
<path d="M14.2754 15.0955C14.2754 15.0955 15.1474 14.9427 15.5553 13.9984" stroke="#231815" stroke-width="0.504505" stroke-miterlimit="10" stroke-linecap="round"/>
</g>
<path d="M32.872 21.856H35.416V24.472C35.416 26.824 36.736 29.152 39.52 30.256L38.128 32.248C36.256 31.504 34.936 30.16 34.192 28.48C33.4 30.4 32.032 32.032 29.992 32.896L28.6 30.856C31.504 29.584 32.872 26.896 32.872 24.472V21.856ZM32.488 37.984C32.488 35.536 35.296 34.048 39.736 34.048C44.2 34.048 47.008 35.536 47.008 37.984C47.008 40.456 44.2 41.92 39.736 41.92C35.296 41.92 32.488 40.456 32.488 37.984ZM35.104 37.984C35.104 39.232 36.808 39.928 39.736 39.928C42.688 39.928 44.368 39.232 44.368 37.984C44.368 36.736 42.688 36.064 39.736 36.064C36.808 36.064 35.104 36.736 35.104 37.984ZM39.856 33.016V20.992H42.328V25.984H44.392V20.584H46.912V33.688H44.392V28.12H42.328V33.016H39.856ZM63.8566 20.56H66.4966V25.696H69.4726V27.88H66.4966V33.016H63.8566V20.56ZM49.6006 30.88C54.5446 29.632 57.3526 27.064 57.7846 23.944H50.6326V21.832H60.5926C60.5926 27.4 56.9686 31.264 50.6806 32.944L49.6006 30.88ZM52.4086 36.04V33.952H66.4966V41.944H63.8566V36.04H52.4086ZM76.6251 21.184C78.4011 21.184 79.9371 21.832 80.9451 22.888H85.8651V20.584H88.5051V31.36H85.8651V29.296H80.9931C79.9851 30.376 78.4251 31.024 76.6251 31.024C73.4091 31.024 71.0331 28.984 71.0331 26.128C71.0331 23.248 73.4091 21.184 76.6251 21.184ZM73.5291 26.128C73.5291 27.808 74.8491 28.912 76.6251 28.912C78.4011 28.912 79.6971 27.808 79.6971 26.128C79.6971 24.448 78.4011 23.344 76.6251 23.344C74.8491 23.344 73.5291 24.448 73.5291 26.128ZM74.5131 34.36V32.32H88.5051V37.888H77.1771V39.616H89.1771V41.68H74.5611V35.968H85.8891V34.36H74.5131ZM82.0731 24.928C82.1691 25.312 82.2171 25.72 82.2171 26.128C82.2171 26.512 82.1691 26.872 82.0971 27.232H85.8651V24.928H82.0731ZM106.77 20.56H109.41V41.92H106.77V20.56ZM91.8657 36.088C97.4097 33.424 99.9297 29.8 100.386 24.928H92.9217V22.792H103.098C103.098 29.2 100.674 34.576 93.2337 38.176L91.8657 36.088Z" fill="#232426"/>
</g>
<path d="M136 27H980C991.046 27 1000 35.9543 1000 47V56" stroke="#FDD361" stroke-width="3"/>
<defs>
<clipPath id="clip0_4637_20904">
<rect width="140" height="56" fill="white"/>
</clipPath>
<clipPath id="clip1_4637_20904">
<rect width="42.8829" height="43.2727" fill="white"/>
</clipPath>
</defs>
</svg>