<svg width="40" height="40" viewBox="0 0 40 40" fill="none" xmlns="http://www.w3.org/2000/svg">
<rect x="4.9501" y="11.25" width="20.3" height="20.3" rx="1.05" fill="#F4F8FF"/>
<rect x="4.9501" y="11.25" width="20.3" height="20.3" rx="1.05" stroke="#1E78FF" stroke-width="0.7" stroke-dasharray="1.4 1.4"/>
<path d="M31.9821 25.602H30.9531L30.0417 14.7828C30.0221 14.3712 29.9927 14.0086 29.9535 13.695C29.9339 13.3814 29.9241 13.107 29.9241 12.8718C29.9241 12.323 30.0319 11.8624 30.2475 11.49C30.4631 11.1176 30.8747 10.9314 31.4823 10.9314C32.0507 10.9314 32.4525 11.1176 32.6877 11.49C32.9229 11.8624 33.0405 12.3426 33.0405 12.9306C33.0405 13.1854 33.0307 13.4794 33.0111 13.8126C33.0111 14.1262 32.9915 14.4496 32.9523 14.7828L31.9821 25.602ZM31.4823 30.8352C30.9139 30.8352 30.4827 30.6784 30.1887 30.3648C29.8947 30.0316 29.7477 29.62 29.7477 29.13C29.7477 28.64 29.8947 28.2186 30.1887 27.8658C30.5023 27.513 30.9335 27.3366 31.4823 27.3366C32.0507 27.3366 32.4819 27.5228 32.7759 27.8952C33.0895 28.248 33.2463 28.6694 33.2463 29.1594C33.2463 29.6102 33.0895 30.0022 32.7759 30.3354C32.4819 30.6686 32.0507 30.8352 31.4823 30.8352Z" fill="#232426"/>
</svg>
