<svg width="40" height="40" viewBox="0 0 40 40" fill="none" xmlns="http://www.w3.org/2000/svg">
<path d="M2.98068 22.4821C2.89719 22.4821 2.79979 22.4264 2.68848 22.3151C2.57716 22.2038 2.51455 22.1064 2.50063 22.0229C2.48672 21.9394 2.70239 21.7307 3.14765 21.3967C3.5929 21.0628 4.05208 20.7149 4.52516 20.3532C4.99825 19.9914 5.26262 19.7896 5.31828 19.7479C5.34611 19.7201 5.38089 19.7062 5.42263 19.7062H5.44351C5.52699 19.7062 5.62439 19.8244 5.73571 20.061C5.84702 20.2975 6.22271 21.1115 6.86276 22.5029C7.12714 23.1012 7.34281 23.5813 7.50978 23.9431L9.28385 27.8043C9.29777 27.8043 10.0213 26.3224 11.4545 23.3587C12.8877 20.3949 14.3208 17.4103 15.754 14.4048C17.1872 11.3993 17.9316 9.86179 17.9872 9.79222C18.0707 9.59742 18.2099 9.50002 18.4047 9.50002C18.5021 9.50002 18.5856 9.54176 18.6551 9.62525C18.7247 9.70873 18.7734 9.79222 18.8012 9.8757V10.0009L13.9382 20.0818L9.03339 30.2254C8.97774 30.3228 8.84555 30.3715 8.63684 30.3715C8.51161 30.3715 8.42812 30.3506 8.38638 30.3088C8.35855 30.281 7.67675 28.8061 6.34098 25.8841L4.33732 21.5011L4.00338 21.7307C3.79466 21.8977 3.57899 22.0646 3.35636 22.2316C3.13373 22.3986 3.0085 22.4821 2.98068 22.4821Z" fill="#232426"/>
<path d="M36.8001 10.9H18.6001V9.50002H36.8001V10.9Z" fill="#232426"/>
<rect x="18.9501" y="14.0501" width="17.5" height="17.5" rx="1.05" fill="#F4F8FF"/>
<rect x="18.9501" y="14.0501" width="17.5" height="17.5" rx="1.05" stroke="#1E78FF" stroke-width="0.7" stroke-dasharray="1.4 1.4"/>
</svg>
