<svg width="40" height="40" viewBox="0 0 40 40" fill="none" xmlns="http://www.w3.org/2000/svg">
<path d="M12.6385 11.0172C12.6385 11.0172 12.5021 11.0172 12.2293 11.0172C11.9566 11.0172 11.7467 11.1641 11.5999 11.4578V17.9731C11.5999 18.6236 11.5999 19.4629 11.5999 20.4911C11.6208 23.3029 11.6733 24.8556 11.7572 25.1494C11.7782 25.1914 11.7887 25.2228 11.7887 25.2438C12.1244 26.6917 13.0792 27.9297 14.6529 28.9578C16.2267 29.986 18.1151 30.5001 20.3184 30.5001C22.6475 30.5001 24.6409 29.9336 26.2986 28.8005C27.9563 27.6674 28.8795 26.209 29.0684 24.4255C29.0894 24.2996 29.0999 22.0858 29.0999 17.7843V11.4578C28.953 11.1431 28.7431 10.9857 28.4704 10.9857C28.2815 10.9857 28.0822 11.1221 27.8723 11.3949L27.8094 24.4255C27.6625 25.013 27.5156 25.4746 27.3687 25.8104C27.2219 26.1461 26.9386 26.5238 26.5189 26.9434C25.8684 27.6569 24.9871 28.2129 23.875 28.6116C22.7629 29.0103 21.5984 29.2201 20.3813 29.2411C18.6397 29.2411 17.0135 28.8214 15.5027 27.9821C13.9919 27.1428 13.1211 25.9153 12.8903 24.2996C12.8693 24.1946 12.8588 22.0124 12.8588 17.7528V11.4578C12.712 11.1641 12.5021 11.0172 12.2293 11.0172H12.6385Z" fill="#232426"/>
</svg>
