<svg width="44" height="45" viewBox="0 0 44 45" fill="none" xmlns="http://www.w3.org/2000/svg">
<rect x="10.8352" y="13.175" width="22.33" height="22.33" rx="1.155" fill="#F4F8FF"/>
<rect x="10.8352" y="13.175" width="22.33" height="22.33" rx="1.155" stroke="#1E78FF" stroke-width="0.77" stroke-dasharray="1.54 1.54"/>
<path d="M22.1894 10.3543C21.7869 10.3543 21.4563 10.2249 21.1976 9.96619C20.9389 9.69309 20.8095 9.36251 20.8095 8.97443C20.8095 8.58635 20.9317 8.26295 21.176 8.00423C21.4348 7.74551 21.7725 7.61615 22.1894 7.61615C22.6349 7.61615 22.9799 7.74551 23.2242 8.00423C23.4686 8.26295 23.5908 8.58635 23.5908 8.97443C23.5908 9.36251 23.4686 9.69309 23.2242 9.96619C22.9799 10.2249 22.6349 10.3543 22.1894 10.3543Z" fill="#232426"/>
</svg>
