<svg width="40" height="40" viewBox="0 0 40 40" fill="none" xmlns="http://www.w3.org/2000/svg">
<path d="M13.7871 19.2489C13.7871 19.2489 13.6414 19.2489 13.35 19.2489C13.0586 19.2489 12.8089 19.1448 12.6007 18.9367C12.3926 18.7285 12.2816 18.4649 12.2677 18.1458C12.2677 17.8266 12.3718 17.563 12.5799 17.3548C12.6493 17.2855 12.684 17.2438 12.684 17.2299C12.684 17.2161 12.6146 17.2022 12.4758 17.1883C12.1151 17.1328 11.7751 17.1051 11.456 17.1051C10.7761 17.1051 10.221 17.3271 9.79087 17.7711C9.13871 18.4233 8.81263 19.5125 8.81263 21.0389C8.81263 22.1767 9.0277 23.0717 9.45785 23.7238C10.0268 24.5702 10.7899 24.9935 11.7474 24.9935C12.3163 24.9935 12.7742 24.8131 13.1211 24.4523C13.468 24.0915 13.7177 23.6614 13.8704 23.1619C13.8981 23.0508 13.9328 22.9815 13.9744 22.9537C14.0161 22.926 14.1271 22.9121 14.3074 22.9121H14.5988C14.6821 22.9953 14.7237 23.0578 14.7237 23.0994C14.7237 23.1549 14.696 23.2659 14.6405 23.4324C14.585 23.5989 14.474 23.8279 14.3074 24.1193C14.1409 24.4107 13.9397 24.6743 13.7038 24.9102C13.468 25.1461 13.1349 25.3612 12.7048 25.5554C12.2746 25.7497 11.7959 25.8399 11.2686 25.826C10.0753 25.826 9.03464 25.382 8.14659 24.4939C7.25854 23.6059 6.80758 22.4889 6.7937 21.1429C6.7937 19.6998 7.24466 18.5273 8.14659 17.6254C9.04852 16.7235 10.0961 16.2725 11.2895 16.2725C12.4828 16.2725 13.3153 16.4598 13.7871 16.8345C14.2589 17.2091 14.4948 17.6532 14.4948 18.1666C14.4948 18.4857 14.3768 18.7424 14.1409 18.9367L13.7871 19.2489Z" fill="#232426"/>
<path d="M15.9104 21.1429C15.9104 19.8247 16.3614 18.6869 17.2633 17.7295C18.1652 16.772 19.2545 16.2864 20.531 16.2725C21.7799 16.2725 22.8552 16.7443 23.7572 17.6878C24.6591 18.6314 25.117 19.7761 25.1309 21.1221C25.1309 22.4403 24.6868 23.5504 23.7988 24.4523C22.9107 25.3542 21.8215 25.8052 20.531 25.8052C19.1851 25.8052 18.082 25.3403 17.2217 24.4107C16.3614 23.481 15.9243 22.3917 15.9104 21.1429ZM20.531 24.9726C22.2239 24.9726 23.0703 23.8418 23.0703 21.58V20.914V20.3936C23.0703 20.0883 23.0634 19.8247 23.0495 19.6027C23.0356 19.3807 22.9871 19.117 22.9038 18.8118C22.8205 18.5065 22.7095 18.2567 22.5708 18.0625C22.432 17.8682 22.2169 17.674 21.9256 17.4797C21.6342 17.2854 21.2942 17.1467 20.9057 17.0634C20.8363 17.0495 20.7253 17.0426 20.5727 17.0426C20.1564 17.0426 19.7609 17.1259 19.3863 17.2924C18.7896 17.5976 18.4011 18.0209 18.2207 18.562C18.0403 19.1032 17.9501 19.7415 17.9501 20.4769V20.8931C17.9501 22.2252 18.082 23.1618 18.3456 23.703C18.7896 24.5494 19.5181 24.9726 20.531 24.9726Z" fill="#232426"/>
<path d="M31.8743 19.02C31.8743 18.4649 31.687 17.9862 31.3124 17.5838C30.9377 17.1814 30.3966 16.9802 29.6889 16.9802C29.1894 16.9802 28.7592 17.0704 28.3984 17.2508C27.9822 17.5144 27.774 17.8752 27.774 18.3331C27.7602 18.4025 27.7602 18.4927 27.774 18.6037C27.7879 18.7147 27.8989 18.8812 28.1071 19.1032C28.3152 19.3252 28.6135 19.4987 29.002 19.6236C29.2518 19.6929 29.5571 19.7554 29.9178 19.8109C30.2786 19.8664 30.5839 19.9288 30.8336 19.9982C31.0834 20.0676 31.3054 20.1578 31.4997 20.2688C31.7356 20.3798 31.9645 20.5186 32.1865 20.6851C32.4085 20.8516 32.6306 21.136 32.8526 21.5384C33.0746 21.9408 33.1925 22.371 33.2064 22.8289C33.2064 23.6892 32.9428 24.3968 32.4155 24.9519C31.8882 25.5069 31.0348 25.7914 29.8554 25.8052H29.6889C28.9674 25.8052 28.3013 25.5555 27.6908 25.0559L27.5243 25.2016L27.3369 25.389C27.2537 25.4722 27.1704 25.5485 27.0872 25.6179L26.8582 25.826H26.6917H26.6085C26.5668 25.826 26.5044 25.7844 26.4211 25.7012V24.0569V22.8497C26.4211 22.5583 26.435 22.3849 26.4628 22.3293C26.4905 22.2738 26.5599 22.2392 26.6709 22.2253H26.8582C27.0247 22.2253 27.1357 22.253 27.1912 22.3085C27.2468 22.364 27.2814 22.4473 27.2953 22.5583C27.3092 22.6693 27.3578 22.8566 27.441 23.1203C27.5243 23.3839 27.6561 23.6753 27.8365 23.9944C28.3221 24.7021 28.9951 25.0559 29.8554 25.0559C31.2014 25.0559 31.8743 24.5148 31.8743 23.4325C31.8743 23.0301 31.7494 22.704 31.4997 22.4542C31.2222 22.1212 30.6463 21.8714 29.7721 21.7049C28.898 21.5384 28.3221 21.3789 28.0446 21.2262C27.5451 20.9903 27.1496 20.6712 26.8582 20.2688C26.5668 19.8664 26.4211 19.4362 26.4211 18.9783C26.4211 18.4372 26.5391 17.9793 26.775 17.6046C27.0109 17.23 27.3092 16.9525 27.67 16.7721C28.0307 16.5917 28.3776 16.4668 28.7106 16.3974C29.0437 16.3281 29.3489 16.2934 29.6265 16.2934H29.8554C30.4104 16.2934 30.8961 16.3974 31.3124 16.6056L31.6246 16.7721L31.8119 16.6264C31.9506 16.5015 32.1033 16.3836 32.2698 16.2726H32.4363H32.5196C32.5612 16.2726 32.6236 16.3142 32.7069 16.3974V19.1449L32.582 19.2697H31.9992C31.916 19.1865 31.8743 19.1032 31.8743 19.02Z" fill="#232426"/>
</svg>
