<svg width="40" height="40" viewBox="0 0 40 40" fill="none" xmlns="http://www.w3.org/2000/svg">
<path d="M12.6388 30.4686C12.6388 30.4686 12.5024 30.4686 12.2296 30.4686C11.9568 30.4686 11.747 30.3218 11.6001 30.028V23.5127C11.6001 22.8622 11.6001 22.0229 11.6001 20.9947C11.6211 18.183 11.6735 16.6302 11.7575 16.3365C11.7785 16.2945 11.7889 16.263 11.7889 16.242C12.1247 14.7942 13.0794 13.5562 14.6532 12.528C16.2269 11.4998 18.1154 10.9857 20.3186 10.9857C22.6478 10.9857 24.6412 11.5523 26.2988 12.6854C27.9565 13.8185 28.8798 15.2768 29.0686 17.0604C29.0896 17.1863 29.1001 19.4 29.1001 23.7016V30.028C28.9532 30.3427 28.7434 30.5001 28.4706 30.5001C28.2818 30.5001 28.0824 30.3637 27.8726 30.0909L27.8096 17.0604C27.6627 16.4728 27.5159 16.0112 27.369 15.6755C27.2221 15.3398 26.9388 14.9621 26.5192 14.5424C25.8687 13.829 24.9874 13.2729 23.8753 12.8742C22.7632 12.4755 21.5986 12.2657 20.3816 12.2447C18.64 12.2447 17.0138 12.6644 15.503 13.5037C13.9922 14.343 13.1214 15.5706 12.8906 17.1863C12.8696 17.2912 12.8591 19.4734 12.8591 23.733V30.028C12.7122 30.3218 12.5024 30.4686 12.2296 30.4686H12.6388Z" fill="#232426"/>
</svg>
