<svg width="40" height="40" viewBox="0 0 40 40" fill="none" xmlns="http://www.w3.org/2000/svg">
<path d="M6.17834 16.9222C6.87851 16.8693 7.42015 16.4994 7.80326 15.8125C8.18636 15.1255 8.39774 14.3197 8.43737 13.3949V13.0977H9.23001V16.7438H11.9052V17.6553H9.23001V20.5089C9.24322 22.1602 9.24982 23.0915 9.24982 23.3029C9.24982 23.5143 9.29606 23.7256 9.38854 23.937C9.57348 24.4522 9.89715 24.7098 10.3595 24.7098C10.9408 24.7098 11.2975 24.2409 11.4296 23.3029C11.4428 23.1972 11.4494 22.8934 11.4494 22.3914V21.6978H12.242V22.3914V22.6292C12.242 23.6464 11.9646 24.4192 11.4098 24.9476C11.0531 25.3043 10.5907 25.4827 10.0226 25.4827C9.57348 25.4827 9.18377 25.4034 8.8535 25.2449C8.52324 25.0863 8.27223 24.8816 8.1005 24.6306C7.92876 24.3796 7.80326 24.1484 7.72399 23.937C7.64473 23.7256 7.59849 23.5143 7.58528 23.3029C7.57207 23.2104 7.56546 22.2328 7.56546 20.3701V17.6553H6V16.9222H6.17834Z" fill="#232426"/>
<path d="M16.0667 19.2406C16.0667 19.2406 15.9214 19.2406 15.6307 19.2406C15.3401 19.2406 15.0957 19.1415 14.8975 18.9433C14.6994 18.7452 14.6003 18.4876 14.6003 18.1705C14.6003 17.7081 14.8249 17.2986 15.274 16.9419C15.7232 16.5852 16.5224 16.4069 17.6718 16.4069C18.6362 16.4069 19.4156 16.6183 20.0101 17.041C20.6045 17.4638 21.0009 17.9658 21.199 18.547C21.2651 18.732 21.2981 18.9367 21.2981 19.1613C21.2981 19.3859 21.3047 20.1455 21.3179 21.4402V22.8273C21.3179 23.4614 21.3509 23.8973 21.417 24.1351C21.4831 24.3729 21.6218 24.4918 21.8331 24.4918C22.0313 24.4918 22.1634 24.3861 22.2295 24.1748C22.2955 23.9634 22.3285 23.6133 22.3285 23.1245V22.4111H23.1212V23.184C23.108 23.7124 23.0881 24.0228 23.0617 24.1153C22.9428 24.5116 22.7116 24.8221 22.3682 25.0467C22.0247 25.2713 21.6614 25.3902 21.2783 25.4034C20.8952 25.4166 20.5847 25.2977 20.3469 25.0467C20.1091 24.7957 19.9506 24.5182 19.8714 24.2144V24.1351L19.8317 24.1946C19.8053 24.2342 19.7723 24.2738 19.7326 24.3135C19.693 24.3531 19.6402 24.4126 19.5741 24.4918C19.5081 24.5711 19.4288 24.6437 19.3363 24.7098C19.2438 24.7759 19.1448 24.8551 19.0391 24.9476C18.9334 25.0401 18.8145 25.1127 18.6824 25.1656C18.5503 25.2184 18.405 25.2713 18.2464 25.3241C18.0879 25.3769 17.9162 25.4166 17.7312 25.443C17.5463 25.4694 17.3415 25.4892 17.1169 25.5024C16.3243 25.5024 15.6109 25.2977 14.9768 24.8881C14.3427 24.4786 14.0256 23.904 14.0256 23.1642C14.0256 22.8867 14.0719 22.6225 14.1643 22.3715C14.2568 22.1205 14.4352 21.8497 14.6994 21.5591C14.9636 21.2684 15.2806 21.024 15.6505 20.8259C16.0204 20.6277 16.5357 20.4428 17.1962 20.271C17.8567 20.0993 18.5833 20.0002 19.376 19.9738H19.6534V19.5378C19.6534 19.0887 19.6137 18.7584 19.5345 18.547C19.2438 17.6091 18.6031 17.1401 17.6123 17.1401C17.3745 17.1401 17.15 17.1467 16.9386 17.1599C16.7272 17.1731 16.5621 17.1995 16.4432 17.2392C16.3243 17.2788 16.2714 17.2986 16.2847 17.2986C16.5753 17.4968 16.7206 17.7874 16.7206 18.1705C16.7206 18.5008 16.6149 18.7584 16.4036 18.9433L16.0667 19.2406ZM15.8487 23.184C15.8487 23.5935 16.0072 23.9568 16.3243 24.2738C16.6413 24.5909 17.0311 24.756 17.4934 24.7692C17.9954 24.7692 18.438 24.6173 18.8211 24.3135C19.2042 24.0096 19.4618 23.6133 19.5939 23.1245C19.6203 23.032 19.6402 22.5961 19.6534 21.8167C19.6534 21.0504 19.6468 20.6673 19.6336 20.6673C19.5279 20.6673 19.3892 20.6739 19.2174 20.6872C19.0457 20.7004 18.7484 20.7598 18.3257 20.8655C17.903 20.9712 17.5199 21.1033 17.1764 21.2618C16.8329 21.4203 16.5291 21.6647 16.2648 21.995C16.0006 22.3253 15.8619 22.7216 15.8487 23.184Z" fill="#232426"/>
<path d="M24.0722 24.3729H24.3496C24.8648 24.3729 25.1753 24.2804 25.281 24.0955V23.9369C25.281 23.818 25.281 23.6661 25.281 23.4812C25.281 23.2962 25.281 23.0915 25.281 22.8669C25.281 22.6423 25.2876 22.3847 25.3008 22.094C25.314 21.8034 25.314 21.526 25.3008 21.2618C25.3008 20.8522 25.3008 20.4163 25.3008 19.9539C25.3008 19.4915 25.2942 19.1018 25.281 18.7848V18.329C25.2413 18.078 25.1489 17.9129 25.0035 17.8336C24.8582 17.7543 24.561 17.6949 24.1118 17.6553H23.7551V17.1995C23.7551 16.8957 23.7683 16.7437 23.7948 16.7437L23.9929 16.7239C24.125 16.7107 24.31 16.6975 24.5478 16.6843C24.7856 16.6711 25.03 16.6579 25.281 16.6447C25.5055 16.6314 25.7433 16.6182 25.9943 16.605C26.2453 16.5918 26.4369 16.572 26.569 16.5456C26.7011 16.5191 26.7738 16.5125 26.787 16.5258H26.8464V17.3184C26.8464 17.8204 26.853 18.0714 26.8662 18.0714C26.8794 18.0714 26.9125 18.0384 26.9653 17.9723C27.0182 17.9063 27.0974 17.8072 27.2031 17.6751C27.3088 17.543 27.4343 17.4241 27.5796 17.3184C27.7249 17.2127 27.9165 17.0872 28.1543 16.9419C28.3921 16.7966 28.6431 16.6909 28.9073 16.6248C29.1715 16.5588 29.5084 16.5258 29.9179 16.5258C31.4239 16.5786 32.2628 17.325 32.4345 18.765C32.4477 18.8574 32.4543 19.7756 32.4543 21.5194V23.2236C32.4543 23.7256 32.4676 24.0228 32.494 24.1153C32.5204 24.2078 32.5931 24.2738 32.712 24.3134C32.9894 24.3531 33.313 24.3729 33.6829 24.3729H34V25.2844H33.8415L33.3659 25.2646C33.062 25.2514 32.7318 25.2448 32.3751 25.2448C32.0184 25.2448 31.7674 25.2382 31.6221 25.225C30.2614 25.225 29.5216 25.2448 29.4027 25.2844H29.2442V24.3729H29.5612C30.3671 24.3729 30.77 24.2672 30.77 24.0558C30.7832 24.0294 30.7898 23.1179 30.7898 21.3212C30.7766 19.5378 30.7634 18.5932 30.7502 18.4875C30.6709 18.1176 30.5388 17.8402 30.3539 17.6553C30.1689 17.4703 30.0104 17.358 29.8783 17.3184C29.7462 17.2788 29.5744 17.2656 29.3631 17.2788C28.7686 17.2788 28.2468 17.5033 27.7976 17.9525C27.4409 18.3092 27.2163 18.6725 27.1238 19.0424C27.0314 19.4123 26.9785 19.9605 26.9653 20.6871V21.9553V23.1443C26.9653 23.5406 26.9719 23.8048 26.9851 23.9369C26.9983 24.069 27.0182 24.1549 27.0446 24.1945C27.071 24.2342 27.1305 24.2738 27.2229 24.3134C27.5004 24.3531 27.824 24.3729 28.1939 24.3729H28.511V25.2844H28.3524L27.8967 25.2646C27.5796 25.2514 27.2427 25.2448 26.8861 25.2448C26.5294 25.2448 26.2784 25.2382 26.133 25.225C24.7723 25.225 24.0326 25.2448 23.9137 25.2844H23.7551V24.3729H24.0722Z" fill="#232426"/>
</svg>
