<svg width="45" height="45" viewBox="0 0 45 45" fill="none" xmlns="http://www.w3.org/2000/svg">
<path d="M15.2622 18.7875C14.8537 18.7875 14.6494 18.6955 14.6494 18.5117C14.6494 18.1644 14.8026 17.6946 15.109 17.1022C15.4155 16.5098 15.824 15.8867 16.3347 15.233C16.8454 14.5794 17.4889 14.038 18.2651 13.609C19.0414 13.1801 19.8278 12.9451 20.6245 12.9043C21.1761 12.9043 21.5131 12.9145 21.6357 12.9349C22.6162 13.1596 23.4231 13.7112 24.0564 14.5896C24.6896 15.468 25.231 16.806 25.6804 18.6036C25.9663 19.8293 26.1093 20.6974 26.1093 21.2081C26.1093 21.2899 26.1196 21.3307 26.14 21.3307L26.5077 20.5034C26.9162 19.4616 27.3759 18.3687 27.8865 17.2247C28.3972 16.0808 28.8364 15.1513 29.2041 14.4364C29.5718 13.7214 29.7965 13.3231 29.8782 13.2413C29.9191 13.2209 30.0825 13.2107 30.3685 13.2107H30.7669C30.8894 13.3333 30.9507 13.4252 30.9507 13.4865C30.9507 13.5682 30.7362 14.0176 30.3072 14.8347C29.8782 15.6518 29.2756 16.949 28.4994 18.7262C27.7231 20.5034 26.9877 22.3419 26.2932 24.2417C26.1706 24.5685 26.0378 25.2324 25.8949 26.2334C25.7519 27.2343 25.5374 28.317 25.2514 29.4814C24.9245 30.8091 24.6488 31.7284 24.4241 32.2391C24.1994 32.7498 23.9236 33.0153 23.5967 33.0358C23.2495 33.0358 23.0758 32.7498 23.0758 32.1778C23.0758 31.1564 23.6274 28.9094 24.7305 25.4367L24.9143 24.8545L24.945 24.3029C24.9654 24.0987 24.9756 23.782 24.9756 23.353C24.9756 20.1459 24.3934 17.9295 23.229 16.7038C22.4119 15.9276 21.4416 15.5395 20.3181 15.5395C19.3376 15.5395 18.4387 15.805 17.6216 16.3361C16.8045 16.8673 16.2223 17.572 15.8751 18.4504C15.8342 18.6343 15.7934 18.7262 15.7525 18.7262C15.7117 18.767 15.5482 18.7875 15.2622 18.7875Z" fill="#232426"/>
</svg>
