<svg width="40" height="40" viewBox="0 0 40 40" fill="none" xmlns="http://www.w3.org/2000/svg">
<path d="M8.1001 21.0487C8.1001 21.0487 8.1001 20.9325 8.1001 20.7001C8.1001 20.4676 8.22526 20.2888 8.47558 20.1637H28.9928C26.9187 18.6081 25.6403 16.6145 25.1576 14.1828C25.1576 14.165 25.1576 14.1381 25.1576 14.1024C25.1576 14.0666 25.1486 14.0398 25.1307 14.0219C25.1307 13.8074 25.2827 13.7001 25.5867 13.7001H25.6671C25.8281 13.7001 25.9353 13.709 25.989 13.7269C26.0426 13.7448 26.0963 13.7805 26.1499 13.8342C26.2035 13.8878 26.2304 13.9683 26.2304 14.0756C26.2304 14.1828 26.2572 14.3259 26.3108 14.5047C26.3645 14.6835 26.436 14.907 26.5254 15.1752C26.9187 16.3731 27.5714 17.4459 28.4832 18.3936C29.3951 19.3412 30.459 20.0117 31.6748 20.4051C31.8357 20.4587 31.9162 20.557 31.9162 20.7001C31.9162 20.8074 31.8715 20.8878 31.7821 20.9415C31.6927 20.9951 31.4781 21.0845 31.1384 21.2097C30.7987 21.3348 30.459 21.5047 30.1193 21.7192C29.3862 22.1841 28.7514 22.7205 28.215 23.3284C27.6786 23.9363 27.2763 24.5353 27.0081 25.1254C26.7399 25.7154 26.5522 26.1624 26.4449 26.4664C26.3376 26.7703 26.2661 27.0475 26.2304 27.2978C26.1946 27.4766 26.1499 27.5839 26.0963 27.6196C26.0426 27.6554 25.8996 27.6822 25.6671 27.7001C25.3095 27.7001 25.1307 27.6017 25.1307 27.4051C25.1307 27.2799 25.1754 27.0564 25.2648 26.7346C25.837 24.4817 27.0797 22.649 28.9928 21.2365H8.47558C8.22526 21.1113 8.1001 20.9325 8.1001 20.7001V21.0487Z" fill="#232426"/>
</svg>
