<svg width="44" height="44" viewBox="0 0 44 44" fill="none" xmlns="http://www.w3.org/2000/svg">
<path fill-rule="evenodd" clip-rule="evenodd" d="M16.3184 18.5761C15.491 18.4118 14.6334 18.4969 13.8542 18.8207C13.075 19.1445 12.4091 19.6925 11.9406 20.3955C11.472 21.0984 11.222 21.9247 11.222 22.77C11.222 23.6153 11.472 24.4416 11.9406 25.1446C12.4091 25.8475 13.075 26.3955 13.8542 26.7194C14.6334 27.0432 15.491 27.1283 16.3184 26.9639C17.1401 26.8007 17.8955 26.3988 18.4906 25.8085L24.6083 18.9043C24.6164 18.8952 24.6248 18.8862 24.6335 18.8775C25.4015 18.1093 26.3795 17.5864 27.444 17.375C28.5084 17.1636 29.6115 17.273 30.6139 17.6896C31.6163 18.1062 32.473 18.8111 33.0756 19.7154C33.6783 20.6196 34 21.6826 34 22.77C34 23.8574 33.6783 24.9204 33.0756 25.8247C32.473 26.7289 31.6163 27.4339 30.6139 27.8504C29.6115 28.267 28.5084 28.3765 27.444 28.165C26.9042 28.0578 26.0386 27.7243 25.4785 27.27C25.4226 27.2247 24.8166 26.6578 24.4602 26.3006C24.3584 26.1986 24.0415 25.8414 24.0019 25.4843C23.9623 25.1272 24.4398 25.0274 24.6639 25.2802L25.6313 26.0965C26.395 26.7088 26.8599 26.8007 27.6816 26.9639C28.509 27.1283 29.3666 27.0432 30.1458 26.7194C30.925 26.3955 31.5909 25.8475 32.0595 25.1446C32.528 24.4416 32.778 23.6153 32.778 22.77C32.778 21.9247 32.528 21.0984 32.0595 20.3955C31.5909 19.6925 30.925 19.1445 30.1458 18.8207C29.3666 18.4969 28.509 18.4118 27.6816 18.5761C26.8599 18.7393 26.1045 19.1412 25.5094 19.7316L19.3917 26.6357C19.3836 26.6449 19.3752 26.6538 19.3665 26.6625C18.5985 27.4307 17.6205 27.9536 16.556 28.165C15.4916 28.3765 14.3885 28.267 13.3861 27.8504C12.3837 27.4339 11.527 26.7289 10.9244 25.8247C10.3217 24.9204 10 23.8574 10 22.77C10 21.6826 10.3217 20.6196 10.9244 19.7154C11.527 18.8111 12.3837 18.1062 13.3861 17.6896C14.3885 17.273 15.4916 17.1636 16.556 17.375C17.6205 17.5864 18.5985 18.1093 19.3665 18.8775C19.9286 19.4916 20.1101 19.884 20.1323 19.9508C20.1545 20.0175 20.2256 20.4099 19.9796 20.4099C19.9796 20.4099 19.7963 20.4077 19.5722 20.1548L19.0631 19.7467L18.4521 19.3385C18.1975 19.1854 17.1401 18.7393 16.3184 18.5761Z" fill="black"/>
</svg>
