<svg width="40" height="40" viewBox="0 0 40 40" fill="none" xmlns="http://www.w3.org/2000/svg">
<rect x="6.35" y="11.25" width="20.3" height="20.3" rx="1.05" fill="#F4F8FF"/>
<rect x="6.35" y="11.25" width="20.3" height="20.3" rx="1.05" stroke="#1E78FF" stroke-width="0.7" stroke-dasharray="1.4 1.4"/>
<path d="M32.7946 13.0512C32.2197 13.0512 31.7297 12.8814 31.3246 12.5416C30.9195 12.2019 30.717 11.7054 30.717 11.052C30.717 10.451 30.9195 9.97402 31.3246 9.62122C31.7297 9.25536 32.2197 9.07242 32.7946 9.07242C33.3826 9.07242 33.8726 9.25536 34.2646 9.62122C34.6697 9.97402 34.8722 10.4575 34.8722 11.0716C34.8722 11.725 34.6697 12.2215 34.2646 12.5612C33.8726 12.8879 33.3826 13.0512 32.7946 13.0512ZM32.7946 12.228C33.1735 12.228 33.4479 12.1235 33.6178 11.9144C33.8007 11.6923 33.8922 11.4048 33.8922 11.052C33.8922 10.7254 33.8007 10.451 33.6178 10.2288C33.4349 9.99362 33.1605 9.87602 32.7946 9.87602C32.4287 9.87602 32.1543 9.99362 31.9714 10.2288C31.8015 10.451 31.7166 10.7254 31.7166 11.052C31.7166 11.4048 31.8015 11.6923 31.9714 11.9144C32.1543 12.1235 32.4287 12.228 32.7946 12.228Z" fill="#232426"/>
</svg>
