<svg width="40" height="40" viewBox="0 0 40 40" fill="none" xmlns="http://www.w3.org/2000/svg">
<rect x="28.1147" y="23.847" width="9.06931" height="9.06931" rx="0.35" transform="rotate(0.62339 28.1147 23.847)" fill="#F4F8FF"/>
<rect x="28.1147" y="23.847" width="9.06931" height="9.06931" rx="0.35" transform="rotate(0.62339 28.1147 23.847)" stroke="#1E78FF" stroke-width="0.7" stroke-dasharray="1.4 1.4"/>
<rect x="2.84617" y="23.847" width="9.06931" height="9.06931" rx="0.35" transform="rotate(0.62339 2.84617 23.847)" fill="#F4F8FF"/>
<rect x="2.84617" y="23.847" width="9.06931" height="9.06931" rx="0.35" transform="rotate(0.62339 2.84617 23.847)" stroke="#1E78FF" stroke-width="0.7" stroke-dasharray="1.4 1.4"/>
<path d="M12.8972 18.9878C12.8972 17.6118 13.1612 16.3477 13.6892 15.1957C14.2172 14.0437 14.8973 13.1237 15.7293 12.4357C16.5613 11.7477 17.4333 11.2197 18.3453 10.8516C19.2573 10.4836 20.1213 10.2916 20.9374 10.2756C20.9854 10.2756 21.0574 10.2756 21.1534 10.2756C21.2494 10.2756 21.3134 10.2836 21.3454 10.2996C22.8014 10.2996 24.0894 10.8436 25.2094 11.9317L25.5214 12.2197L26.2415 11.2837C26.6735 10.6916 26.9215 10.3636 26.9855 10.2996C27.0015 10.2996 27.0335 10.2996 27.0815 10.2996C27.1295 10.2996 27.1775 10.2916 27.2255 10.2756H27.3215C27.3695 10.2756 27.4415 10.3236 27.5375 10.4196V17.1398L27.3935 17.2838H26.5775C26.4815 17.1878 26.4255 17.0518 26.4095 16.8758C26.2655 15.5637 25.8814 14.4277 25.2574 13.4677C24.6334 12.5077 23.8734 11.8757 22.9774 11.5717C22.6734 11.4597 22.2734 11.4037 21.7774 11.4037C20.1133 11.4037 18.7213 11.9637 17.6013 13.0837C16.3373 14.3477 15.7053 16.3157 15.7053 18.9878C15.7053 20.9238 16.0093 22.4519 16.6173 23.5719C16.9533 24.2119 17.3693 24.7479 17.8653 25.1799C18.3613 25.6119 18.8813 25.9239 19.4253 26.1159C19.9693 26.3079 20.4174 26.4359 20.7694 26.4999C21.1214 26.5639 21.4734 26.6039 21.8254 26.6199C23.2494 26.6199 24.3934 26.0679 25.2574 24.9639C26.1215 23.8599 26.5615 22.6519 26.5775 21.3398C26.5775 21.2278 26.6255 21.1238 26.7215 21.0278H27.3935L27.5375 21.1718V21.5318C27.4575 23.1799 26.8495 24.6199 25.7134 25.8519C24.5774 27.0839 23.0814 27.7 21.2254 27.7C18.9693 27.7 17.0173 26.8679 15.3693 25.2039C13.7212 23.5399 12.8972 21.4678 12.8972 18.9878Z" fill="#232426"/>
</svg>
