<svg width="40" height="40" viewBox="0 0 40 40" fill="none" xmlns="http://www.w3.org/2000/svg">
<path d="M26.5123 21.63H13.4839V19.9164H26.5123V21.63ZM20.0107 27.552C19.6075 27.552 19.2631 27.4176 18.9775 27.1488C18.7087 26.88 18.5743 26.544 18.5743 26.1408C18.5743 25.7376 18.7171 25.4016 19.0027 25.1328C19.2883 24.8472 19.6327 24.7044 20.0359 24.7044C20.4055 24.7044 20.7331 24.8556 21.0187 25.158C21.3043 25.4436 21.4471 25.7796 21.4471 26.166C21.4471 26.5356 21.3043 26.8632 21.0187 27.1488C20.7331 27.4176 20.3971 27.552 20.0107 27.552ZM20.0107 16.8672C19.6075 16.8672 19.2631 16.7328 18.9775 16.464C18.7087 16.1784 18.5743 15.834 18.5743 15.4308C18.5743 15.0276 18.7171 14.6916 19.0027 14.4228C19.2883 14.1372 19.6327 13.9944 20.0359 13.9944C20.4055 13.9944 20.7331 14.1456 21.0187 14.448C21.3043 14.7336 21.4471 15.0696 21.4471 15.456C21.4471 15.8256 21.3043 16.1532 21.0187 16.4388C20.7331 16.7244 20.3971 16.8672 20.0107 16.8672Z" fill="#232426"/>
</svg>
