<svg width="44" height="44" viewBox="0 0 44 44" fill="none" xmlns="http://www.w3.org/2000/svg">
<rect x="10.8381" y="11.6047" width="22.33" height="22.33" rx="1.155" fill="#F4F8FF"/>
<rect x="10.8381" y="11.6047" width="22.33" height="22.33" rx="1.155" stroke="#1E6EFA" stroke-width="0.77" stroke-dasharray="1.54 1.54"/>
<path d="M34.9704 33.2299V32.4753C35.5741 32.4753 36.1059 32.2597 36.5658 31.8285C37.0258 31.4117 37.2557 30.8511 37.2557 30.1468C37.2557 29.6294 37.2198 29.1766 37.1479 28.7885C37.0761 28.4004 37.0042 28.0052 36.9323 27.6027C36.8748 27.1859 36.8461 26.69 36.8461 26.1151C36.8461 25.3246 37.0186 24.7209 37.3635 24.304C37.7229 23.8872 38.19 23.5998 38.7649 23.4416V23.3123C38.42 23.1829 38.0894 22.9961 37.7732 22.7517C37.4713 22.5074 37.227 22.1984 37.0401 21.8246C36.8677 21.4366 36.7814 20.991 36.7814 20.4879C36.7814 19.683 36.8605 18.9787 37.0186 18.375C37.1767 17.757 37.2557 17.1605 37.2557 16.5856C37.2557 15.9963 37.1479 15.5291 36.9323 15.1842C36.7167 14.8248 36.4365 14.5733 36.0915 14.4296C35.7465 14.2715 35.3728 14.1924 34.9704 14.1924V13.4378C35.7322 13.4378 36.4293 13.5528 37.0617 13.7828C37.7085 14.0127 38.2259 14.3721 38.614 14.8608C39.0021 15.3351 39.1961 15.9675 39.1961 16.758C39.1961 17.218 39.1458 17.7354 39.0452 18.3104C38.9446 18.8709 38.844 19.4315 38.7434 19.992C38.6428 20.5526 38.5925 21.0413 38.5925 21.4581C38.5925 21.8318 38.6715 22.1193 38.8296 22.3205C39.0021 22.5218 39.2249 22.6655 39.498 22.7517C39.7854 22.8236 40.0873 22.8667 40.4035 22.8811V23.9806C40.0873 23.9806 39.7854 24.0166 39.498 24.0884C39.2249 24.1603 39.0021 24.2897 38.8296 24.4765C38.6715 24.649 38.5925 24.9221 38.5925 25.2958C38.5925 25.6839 38.6428 26.1582 38.7434 26.7188C38.844 27.265 38.9446 27.8255 39.0452 28.4004C39.1458 28.961 39.1961 29.4784 39.1961 29.9528C39.1961 30.7146 39.0021 31.3398 38.614 31.8285C38.2259 32.3172 37.7085 32.6693 37.0617 32.8849C36.4293 33.1149 35.7322 33.2299 34.9704 33.2299Z" fill="#232426"/>
<path d="M8.58362 32.5831V33.2299C7.8937 33.2299 7.2469 33.1149 6.64322 32.8849C6.05391 32.6693 5.5724 32.3172 5.1987 31.8285C4.83936 31.3398 4.6597 30.7146 4.6597 29.9528C4.6597 29.4784 4.70282 28.9538 4.78906 28.3789C4.88967 27.7896 4.9831 27.2146 5.06934 26.6541C5.16995 26.0935 5.22026 25.6192 5.22026 25.2311C5.22026 24.8574 5.1412 24.5843 4.9831 24.4118C4.82499 24.225 4.60939 24.0956 4.3363 24.0238C4.07758 23.9519 3.78292 23.916 3.45234 23.916V22.9458C3.78292 22.9314 4.07758 22.8883 4.3363 22.8164C4.60939 22.7302 4.82499 22.5864 4.9831 22.3852C5.1412 22.184 5.22026 21.8965 5.22026 21.5228C5.22026 21.106 5.16995 20.6173 5.06934 20.0567C4.9831 19.4818 4.88967 18.9069 4.78906 18.3319C4.70282 17.7426 4.6597 17.218 4.6597 16.758C4.6597 15.9675 4.83936 15.3351 5.1987 14.8608C5.5724 14.3721 6.05391 14.0127 6.64322 13.7828C7.2469 13.5528 7.8937 13.4378 8.58362 13.4378V14.0846C8.18116 14.0846 7.80027 14.1708 7.44094 14.3433C7.0816 14.5014 6.78695 14.7602 6.55698 15.1195C6.34138 15.4788 6.23358 15.9531 6.23358 16.5424C6.23358 17.1174 6.31263 17.7211 6.47074 18.3535C6.64322 18.9715 6.72946 19.683 6.72946 20.4879C6.72946 20.991 6.64322 21.4366 6.47074 21.8246C6.29826 22.1984 6.06828 22.5074 5.78082 22.7517C5.49335 22.9961 5.16995 23.1829 4.81062 23.3123V23.4416C5.34243 23.5998 5.78082 23.8872 6.12578 24.304C6.48511 24.7209 6.66478 25.3246 6.66478 26.1151C6.66478 26.69 6.62884 27.1859 6.55698 27.6027C6.48511 28.0196 6.41324 28.4292 6.34138 28.8316C6.26951 29.2197 6.23358 29.6725 6.23358 30.1899C6.23358 30.8942 6.47074 31.4692 6.94506 31.9147C7.41938 32.3603 7.96556 32.5831 8.58362 32.5831Z" fill="#232426"/>
</svg>
