<svg width="40" height="40" viewBox="0 0 40 40" fill="none" xmlns="http://www.w3.org/2000/svg">
<path d="M27.0522 15.2092C27.0522 15.2503 27.2064 15.4971 27.5149 15.9495C27.8234 16.402 28.1216 17.06 28.4095 17.9238C28.6974 18.7875 28.8516 19.7232 28.8722 20.7309C28.8722 22.993 28.1421 24.9673 26.682 26.6536C25.2219 28.3399 23.4225 29.3682 21.2837 29.7384C21.037 29.7589 20.5228 29.7692 19.7414 29.7692C18.9599 29.7692 18.4458 29.7589 18.199 29.7384C16.307 29.3476 14.8263 28.6176 13.7569 27.5482L13.3251 27.2089L11.8444 28.5045C11.1246 29.142 10.6928 29.5121 10.5488 29.615C10.4049 29.7178 10.2609 29.7795 10.1169 29.8C9.70565 29.8 9.5 29.5944 9.5 29.1831C9.5 29.0391 9.56169 28.9055 9.68508 28.7821C9.80847 28.6587 10.3226 28.2165 11.2275 27.4556C12.1118 26.633 12.5231 26.2217 12.4614 26.2217C12.4614 26.2012 12.3482 26.0264 12.122 25.6973C11.8958 25.3683 11.6388 24.885 11.3508 24.2475C11.0629 23.61 10.8573 22.9519 10.7339 22.2733C10.7133 22.0265 10.7031 21.5124 10.7031 20.7309C10.7031 19.9494 10.7133 19.4353 10.7339 19.1885C11.0835 17.3377 11.8855 15.7542 13.14 14.438C15.032 12.546 17.2119 11.6 19.6797 11.6C20.1938 11.6 20.7285 11.6617 21.2837 11.7851C23.0318 11.9908 24.5227 12.69 25.7566 13.8828L26.1576 14.2529L27.6075 13.019C28.574 12.0936 29.119 11.6309 29.2424 11.6309C29.2629 11.6309 29.2835 11.6309 29.3041 11.6309C29.3246 11.6309 29.3452 11.6206 29.3658 11.6C29.5097 11.6 29.6537 11.6412 29.7976 11.7234C29.9416 11.8057 30.0136 11.9599 30.0136 12.1861C30.0136 12.3507 29.921 12.5255 29.7359 12.7106C29.5508 12.8956 29.0676 13.3172 28.2861 13.9753C28.0188 14.2015 27.7925 14.4072 27.6075 14.5923C27.4224 14.7773 27.2784 14.9316 27.1756 15.055C27.0728 15.1784 27.0316 15.2298 27.0522 15.2092ZM25.2014 14.9933C24.2348 14.0678 23.042 13.4303 21.6231 13.0807C21.2118 12.9368 20.4611 12.8648 19.3712 12.8648C17.6232 12.8648 16.1219 13.42 14.8675 14.5306C13.613 15.6411 12.739 16.8955 12.2454 18.2939C12.0192 19.0754 11.9061 20.0111 11.9061 21.1011C11.9678 22.1499 12.1529 23.0136 12.4614 23.6923C12.5847 24.0213 12.7595 24.3812 12.9858 24.7719C13.212 25.1626 13.3765 25.358 13.4793 25.358C13.5205 25.358 15.4844 23.6511 19.3712 20.2373C23.258 16.8236 25.2014 15.0755 25.2014 14.9933ZM27.6075 20.7617C27.6075 20.1859 27.556 19.641 27.4532 19.1268C27.3504 18.6127 27.227 18.1706 27.0831 17.8004C26.9391 17.4302 26.7951 17.1217 26.6512 16.875C26.5072 16.6282 26.3736 16.4225 26.2502 16.258C26.1268 16.0935 26.0754 16.0112 26.0959 16.0112C26.0342 16.0112 24.0703 17.7284 20.2041 21.1628C16.3379 24.5971 14.3945 26.3349 14.3739 26.376C14.3739 26.4582 14.559 26.6536 14.9292 26.9621C15.2993 27.2706 15.9368 27.6202 16.8417 28.0109C17.7466 28.4016 18.7645 28.5867 19.8956 28.5662C22.0138 28.5662 23.8235 27.8052 25.3247 26.2834C26.826 24.7616 27.5869 22.9211 27.6075 20.7617Z" fill="#232426"/>
</svg>
