<svg width="40" height="40" viewBox="0 0 40 40" fill="none" xmlns="http://www.w3.org/2000/svg">
<path d="M22.0668 13.3227C22.0668 13.1076 22.2232 13.0001 22.536 13.0001C22.6338 13.0001 22.712 13.0001 22.7706 13.0001C22.8293 13.0001 22.8782 13.0001 22.9173 13.0001C22.9564 13.0001 22.9955 13.0099 23.0346 13.0294C23.0737 13.049 23.0932 13.0588 23.0932 13.0588C23.0932 13.0588 23.1128 13.0881 23.1519 13.1467C23.191 13.2054 23.2105 13.2347 23.2105 13.2347C23.2105 13.2347 23.2398 13.2836 23.2985 13.3813C24.0219 14.8281 24.9799 16.1087 26.1724 17.223C27.365 18.3374 28.4501 19.1292 29.4276 19.5985C30.4052 20.0677 31.3436 20.4294 32.2429 20.6835C32.5753 20.7813 32.7415 20.9084 32.7415 21.0648C32.7415 21.2212 32.6535 21.3287 32.4775 21.3873C32.3016 21.446 31.9399 21.5535 31.3925 21.7099C30.8451 21.8663 30.2781 22.1009 29.6916 22.4138C26.8763 23.7823 24.7452 25.8938 23.2985 28.7482C23.2203 28.9241 23.1519 29.0219 23.0932 29.0414C23.0346 29.061 22.8879 29.0805 22.6533 29.1001C22.2623 29.1001 22.0668 29.0317 22.0668 28.8948C22.0668 28.8166 22.1157 28.6504 22.2134 28.3963C22.8977 27.0473 23.7384 25.8449 24.7355 24.7892L25.0287 24.4959H7.11052C6.83681 24.3591 6.69995 24.1635 6.69995 23.9094C6.69995 23.6161 6.85636 23.4206 7.16917 23.3229H26.3191L26.6123 23.0883C27.3748 22.5017 28.5185 21.8272 30.0435 21.0648C30.0239 21.0452 29.848 20.9572 29.5156 20.8008C29.1833 20.6444 28.7434 20.4098 28.1959 20.097C27.6485 19.7842 27.1207 19.4323 26.6123 19.0413L26.3191 18.8067H7.16917C6.85636 18.7089 6.69995 18.5134 6.69995 18.2201C6.69995 17.966 6.83681 17.7705 7.11052 17.6336H25.0287L24.7355 17.3404C24.0903 16.6561 23.4842 15.8643 22.9173 14.9649C22.3503 14.0656 22.0668 13.5182 22.0668 13.3227Z" fill="#232426"/>
</svg>
