<svg width="45" height="45" viewBox="0 0 45 45" fill="none" xmlns="http://www.w3.org/2000/svg">
<path d="M16.0874 27.4694C16.0874 25.3951 16.484 23.2089 17.2771 20.9109C18.0702 18.6128 19.148 16.63 20.5106 14.9624C21.8731 13.2949 23.2865 12.339 24.7507 12.095C24.7711 12.095 24.8524 12.095 24.9948 12.095C25.1371 12.095 25.2592 12.0848 25.3608 12.0645C26.459 12.1458 27.3131 12.6441 27.9232 13.5592C28.7164 14.7794 29.1129 16.4165 29.1129 18.4705C29.1129 20.8092 28.6553 23.1885 27.7402 25.6086C26.8251 28.0286 25.6557 30.0114 24.2322 31.557C22.8086 33.1026 21.4461 33.8754 20.1445 33.8754H19.931C19.1989 33.8754 18.5685 33.672 18.0397 33.2653C17.511 32.8585 17.1144 32.3196 16.85 31.6485C16.5856 30.9774 16.3924 30.2961 16.2704 29.6047C16.1484 28.9133 16.0874 28.2015 16.0874 27.4694ZM26.703 16.3047C26.703 14.2303 26.1641 13.1932 25.0863 13.1932C24.3542 13.1932 23.6424 13.6507 22.951 14.5659C22.2595 15.481 21.6901 16.5182 21.2427 17.6774C20.7953 18.8365 20.4496 19.8534 20.2055 20.7278C19.9615 21.6023 19.8293 22.1107 19.809 22.2531C20.8055 22.2734 21.7918 22.2836 22.7679 22.2836L25.7269 22.2531C25.7472 22.2327 25.8286 21.8972 25.9709 21.2464C26.1133 20.5956 26.276 19.7822 26.459 18.806C26.642 17.8299 26.7234 16.9961 26.703 16.3047ZM18.4668 29.5437C18.4668 31.6994 19.0057 32.7772 20.0835 32.7772C20.3886 32.7772 20.714 32.6755 21.0597 32.4721C21.4054 32.2688 21.8223 31.8824 22.3104 31.313C22.7984 30.7435 23.2865 29.8589 23.7746 28.6591C24.2627 27.4592 24.7507 25.9746 25.2388 24.2054L25.3913 23.6868H19.4429C19.4429 23.7478 19.3514 24.1342 19.1684 24.846C18.9854 25.5577 18.8227 26.3509 18.6803 27.2253C18.5379 28.0998 18.4668 28.8726 18.4668 29.5437Z" fill="#232426"/>
</svg>
