<svg width="45" height="45" viewBox="0 0 45 45" fill="none" xmlns="http://www.w3.org/2000/svg">
<rect x="12.9751" y="17.025" width="19.25" height="19.25" rx="1.155" fill="#F4F8FF"/>
<rect x="12.9751" y="17.025" width="19.25" height="19.25" rx="1.155" stroke="#1E78FF" stroke-width="0.77" stroke-dasharray="1.54 1.54"/>
<path d="M33.3801 11.0554C33.3801 11.0554 33.3801 11.1203 33.3801 11.2501C33.3801 11.3799 33.2588 11.4979 33.0163 11.6041H14.4878C14.5201 11.6277 14.6575 11.7103 14.9001 11.852C15.1426 11.9936 15.377 12.1529 15.6034 12.3299C15.8297 12.5069 16.0965 12.7252 16.4037 12.9848C16.7109 13.2444 16.9777 13.5749 17.204 13.9761C17.4304 14.3773 17.6405 14.7962 17.8346 15.2329C17.9154 15.4453 17.9558 15.5928 17.9558 15.6754C17.9558 15.8052 17.7941 15.8701 17.4708 15.8701C17.3576 15.8701 17.2768 15.8701 17.2283 15.8701C17.1798 15.8701 17.1312 15.8465 17.0827 15.7993C17.0342 15.7521 16.9938 15.699 16.9615 15.64C16.9292 15.581 16.8968 15.4689 16.8645 15.3037C16.5735 14.4422 16.0237 13.6752 15.2153 13.0025C14.4069 12.3299 13.4207 11.8284 12.2566 11.4979C12.0141 11.4271 11.8686 11.3622 11.8201 11.3032C11.8201 11.2206 11.8524 11.1616 11.9171 11.1262C11.9817 11.0908 12.0949 11.0495 12.2566 11.0023C13.0327 10.7781 13.7198 10.4831 14.318 10.1172C14.9162 9.75142 15.377 9.3915 15.7004 9.03747C16.0237 8.68345 16.2824 8.33533 16.4764 7.99311C16.6705 7.65088 16.8079 7.37947 16.8887 7.17885L16.9615 6.87793C16.9938 6.80713 17.0181 6.75993 17.0342 6.73632C17.0504 6.71272 17.0908 6.68912 17.1555 6.66552C17.2202 6.64192 17.3253 6.63012 17.4708 6.63012C17.7941 6.63012 17.9558 6.69502 17.9558 6.82483C17.9558 6.90744 17.9154 7.05494 17.8346 7.26736C17.6729 7.70399 17.4708 8.11111 17.2283 8.48874C16.9857 8.86636 16.7271 9.18498 16.4522 9.4446C16.1773 9.70422 15.9267 9.92253 15.7004 10.0995C15.474 10.2766 15.2315 10.4418 14.9728 10.5952C14.7141 10.7486 14.5525 10.8489 14.4878 10.8961H33.0163C33.2588 11.0023 33.3801 11.1203 33.3801 11.2501V11.0554Z" fill="#232426"/>
<path d="M11.8201 11.0554C11.8201 11.0554 11.8201 11.1203 11.8201 11.2501C11.8201 11.3799 11.9414 11.4979 12.1839 11.6041H30.7124C30.6801 11.6277 30.5426 11.7103 30.3001 11.852C30.0576 11.9936 29.8232 12.1529 29.5968 12.3299C29.3705 12.5069 29.1037 12.7252 28.7965 12.9848C28.4893 13.2444 28.2225 13.5749 27.9962 13.9761C27.7698 14.3773 27.5597 14.7962 27.3656 15.2329C27.2848 15.4453 27.2444 15.5928 27.2444 15.6754C27.2444 15.8052 27.4061 15.8701 27.7294 15.8701C27.8426 15.8701 27.9234 15.8701 27.9719 15.8701C28.0204 15.8701 28.0689 15.8465 28.1174 15.7993C28.166 15.7521 28.2064 15.699 28.2387 15.64C28.271 15.581 28.3034 15.4689 28.3357 15.3037C28.6267 14.4422 29.1765 13.6752 29.9849 13.0025C30.7933 12.3299 31.7795 11.8284 32.9436 11.4979C33.1861 11.4271 33.3316 11.3622 33.3801 11.3032C33.3801 11.2206 33.3478 11.1616 33.2831 11.1262C33.2184 11.0908 33.1053 11.0495 32.9436 11.0023C32.1675 10.7781 31.4804 10.4831 30.8822 10.1172C30.284 9.75142 29.8232 9.3915 29.4998 9.03747C29.1765 8.68345 28.9178 8.33533 28.7237 7.99311C28.5297 7.65088 28.3923 7.37947 28.3115 7.17885L28.2387 6.87793C28.2064 6.80713 28.1821 6.75993 28.166 6.73632C28.1498 6.71272 28.1094 6.68912 28.0447 6.66552C27.98 6.64192 27.8749 6.63012 27.7294 6.63012C27.4061 6.63012 27.2444 6.69502 27.2444 6.82483C27.2444 6.90744 27.2848 7.05494 27.3656 7.26736C27.5273 7.70399 27.7294 8.11111 27.9719 8.48874C28.2145 8.86636 28.4731 9.18498 28.748 9.4446C29.0229 9.70422 29.2735 9.92253 29.4998 10.0995C29.7262 10.2766 29.9687 10.4418 30.2274 10.5952C30.4861 10.7486 30.6477 10.8489 30.7124 10.8961H12.1839C11.9414 11.0023 11.8201 11.1203 11.8201 11.2501V11.0554Z" fill="#232426"/>
</svg>
