<svg width="40" height="40" viewBox="0 0 40 40" fill="none" xmlns="http://www.w3.org/2000/svg">
<rect x="7.04995" y="10.55" width="20.3" height="20.3" rx="1.05" fill="#F4F8FF"/>
<rect x="7.04995" y="10.55" width="20.3" height="20.3" rx="1.05" stroke="#1E78FF" stroke-width="0.7" stroke-dasharray="1.4 1.4"/>
<path d="M31.1526 18.6C31.0876 18.6 30.9414 18.5675 30.7139 18.5025C30.4864 18.4375 30.3673 18.3725 30.3564 18.3075C30.3564 18.2317 30.6543 16.9752 31.2501 14.5381C31.8458 12.1009 32.1762 10.8282 32.2412 10.7199C32.4036 10.3733 32.6853 10.2 33.086 10.2C33.3027 10.2 33.5301 10.2812 33.7684 10.4437C34.0067 10.6062 34.1259 10.8445 34.1259 11.1586C34.1259 11.2127 34.1151 11.294 34.0934 11.4023C34.0826 11.4781 33.6114 12.6859 32.6798 15.0255C31.7483 17.3652 31.2663 18.5458 31.2338 18.5675C31.2013 18.5891 31.1742 18.6 31.1526 18.6Z" fill="#232426"/>
</svg>
