<svg width="44" height="45" viewBox="0 0 44 45" fill="none" xmlns="http://www.w3.org/2000/svg">
<path d="M12.9329 24.8663C12.9329 22.4441 13.8465 20.3194 15.6738 18.4921C17.501 16.6649 19.5089 15.7512 21.6973 15.7512C23.1847 15.7512 24.3745 16.1762 25.2669 17.0261C26.1593 17.8759 26.7648 18.9171 27.0835 20.1494C27.211 20.7656 27.2854 21.4774 27.3066 22.2847V23.209C28.3477 21.6367 29.1445 19.8732 29.6969 17.9184C29.7819 17.621 29.8457 17.451 29.8882 17.4085C29.9307 17.366 30.1006 17.3341 30.3981 17.3129C30.8443 17.3129 31.0674 17.3979 31.0674 17.5679C31.0674 17.7591 30.9718 18.1734 30.7805 18.8108C30.5893 19.4482 30.2069 20.3512 29.6332 21.5198C29.0595 22.6884 28.4115 23.7508 27.6891 24.7069L27.3385 25.1531L27.3704 25.918C27.4129 27.1079 27.4978 27.9153 27.6253 28.3402C27.7528 28.7652 27.9547 28.9883 28.2309 29.0095C28.5283 28.967 28.8046 28.8501 29.0595 28.6589C29.3145 28.4677 29.4951 28.2234 29.6013 27.9259C29.6438 27.7772 29.6969 27.6922 29.7607 27.6709C29.8244 27.6497 29.9838 27.6284 30.2387 27.6072C30.6637 27.6072 30.8762 27.6922 30.8762 27.8621C30.8762 27.9896 30.8124 28.1915 30.6849 28.4677C30.43 28.9776 30.0581 29.3813 29.5695 29.6788C29.0808 29.9762 28.6133 30.1356 28.1671 30.1568H27.944C26.5205 30.1568 25.5537 29.3919 25.0438 27.8621L24.9482 27.6391L24.5976 27.894C24.3851 28.064 24.0664 28.2765 23.6415 28.5314C23.2165 28.7864 22.7385 29.0307 22.2073 29.2645C21.6761 29.4982 21.0599 29.7107 20.3588 29.9019C19.6576 30.0931 18.9777 30.1887 18.319 30.1887C16.6405 30.1887 15.3232 29.6575 14.3671 28.5952C13.4109 27.5328 12.9329 26.2899 12.9329 24.8663ZM18.4784 29.0095C19.5195 29.0095 20.5606 28.7864 21.6017 28.3402C22.6428 27.894 23.4184 27.4372 23.9283 26.9698L24.6932 26.2686C24.6507 23.2302 24.5763 21.3392 24.4701 20.5956C24.1727 18.1522 23.1953 16.9304 21.538 16.9304C20.0719 16.9304 18.7865 17.706 17.6816 19.257C17.1079 20.1069 16.6405 21.2543 16.2793 22.6991C15.9181 24.1439 15.7269 25.2487 15.7056 26.0136C15.7056 27.0548 15.9712 27.809 16.5024 28.2765C17.0336 28.7439 17.6922 28.9883 18.4784 29.0095Z" fill="#232426"/>
</svg>
