<svg width="44" height="44" viewBox="0 0 44 44" fill="none" xmlns="http://www.w3.org/2000/svg">
<path d="M22.0036 16.77C22.3504 16.77 22.6539 16.8928 22.914 17.1385C23.1741 17.3841 23.3041 17.6948 23.3041 18.0705C23.3041 18.4173 23.1885 18.7208 22.9573 18.9809C22.7261 19.241 22.4154 19.3782 22.0253 19.3927C21.664 19.3927 21.3534 19.2699 21.0933 19.0242C20.8332 18.7786 20.7031 18.4679 20.7031 18.0922C20.7031 17.7165 20.8259 17.4058 21.0716 17.1602C21.3172 16.9145 21.6279 16.7845 22.0036 16.77ZM22.0036 26.1474C22.3504 26.1474 22.6539 26.2702 22.914 26.5158C23.1741 26.7615 23.3041 27.0722 23.3041 27.4479C23.3041 27.7947 23.1885 28.0981 22.9573 28.3582C22.7261 28.6183 22.4154 28.7556 22.0253 28.77C21.664 28.77 21.3534 28.6472 21.0933 28.4015C20.8332 28.1559 20.7031 27.8452 20.7031 27.4695C20.7031 27.0938 20.8259 26.7832 21.0716 26.5375C21.3172 26.2919 21.6279 26.1618 22.0036 26.1474Z" fill="black"/>
</svg>
