<svg width="40" height="40" viewBox="0 0 40 40" fill="none" xmlns="http://www.w3.org/2000/svg">
<path d="M9.7229 21.0655C9.7229 18.5582 10.5655 16.503 12.2507 14.9C13.9359 13.297 15.9294 12.3825 18.2312 12.1564C18.2517 12.1564 18.3545 12.1564 18.5394 12.1564C18.7244 12.1564 18.9813 12.1564 19.3101 12.1564C19.6389 12.1564 19.9986 12.1462 20.3891 12.1256C20.7795 12.1051 21.2419 12.1051 21.7763 12.1256C22.3106 12.1462 22.8141 12.1462 23.2868 12.1256H28.065C28.3733 12.29 28.5274 12.4955 28.5274 12.7421C28.5274 12.9271 28.3938 13.1223 28.1267 13.3279L23.2252 13.3587H21.6221H20.7282C19.1868 13.3587 18.1284 13.3998 17.553 13.482C16.9775 13.5642 16.2377 13.8108 15.3334 14.2218C14.8813 14.4479 14.4497 14.7151 14.0387 15.0234C13.6277 15.3316 13.1653 15.7632 12.6515 16.3181C12.1377 16.873 11.7267 17.5614 11.4184 18.3835C11.1101 19.2056 10.956 20.0995 10.956 21.0655V21.2196C10.956 23.0281 11.5828 24.6311 12.8364 26.0286C14.049 27.3439 15.5184 28.1865 17.2447 28.5564C17.6557 28.6592 18.0462 28.7106 18.4161 28.7106C18.7861 28.7106 20.3891 28.7311 23.2252 28.7722H28.1267C28.3938 28.9777 28.5274 29.1833 28.5274 29.3888C28.5274 29.6354 28.3733 29.8409 28.065 30.0053H23.3485C23.0196 30.0053 22.547 30.0053 21.9304 30.0053C21.3139 30.0053 20.8412 30.0156 20.5124 30.0361C18.7861 30.0361 17.2961 29.8717 16.0424 29.5429C14.7888 29.2141 13.5866 28.4948 12.4357 27.385C10.6272 25.6998 9.7229 23.5933 9.7229 21.0655Z" fill="#232426"/>
<path d="M12.2508 35.4001C12.2508 35.4001 12.1789 35.4001 12.035 35.4001C11.8911 35.4001 11.7678 35.3693 11.6651 35.3077C11.5623 35.246 11.5007 35.1638 11.4801 35.061C11.4596 34.9583 11.439 34.8864 11.4185 34.8453C11.4185 34.7014 11.4698 34.5575 11.5726 34.4137C11.8398 33.8793 14.2443 29.1834 18.7861 20.3257C23.328 11.4681 25.6297 7.01869 25.6914 6.97759C25.753 6.79263 25.9175 6.70015 26.1846 6.70015C26.3285 6.70015 26.4518 6.74125 26.5545 6.82345C26.6573 6.90566 26.719 6.99814 26.7395 7.1009C26.7601 7.20366 26.7806 7.27559 26.8012 7.31669C26.8012 7.41945 24.4172 12.0949 19.6493 21.343C14.8814 30.5911 12.4563 35.246 12.3741 35.3077C12.2919 35.3693 12.1789 35.4001 12.035 35.4001H12.2508Z" fill="#232426"/>
</svg>
