<svg width="44" height="44" viewBox="0 0 44 44" fill="none" xmlns="http://www.w3.org/2000/svg">
<rect x="10.8381" y="11.6047" width="22.33" height="22.33" rx="1.155" fill="#F4F8FF"/>
<rect x="10.8381" y="11.6047" width="22.33" height="22.33" rx="1.155" stroke="#1E6EFA" stroke-width="0.77" stroke-dasharray="1.54 1.54"/>
<path d="M34.6977 33.2299L34.2665 32.5615C35.7613 31.5266 36.8249 30.269 37.4574 28.7885C38.1042 27.3081 38.4276 25.4827 38.4276 23.3123C38.4276 21.1707 38.1113 19.3668 37.4789 17.9007C36.8465 16.4203 35.7829 15.1554 34.288 14.1062L34.6977 13.4809C36.48 14.3577 37.8957 15.6297 38.945 17.297C39.9942 18.95 40.5189 20.9551 40.5189 23.3123C40.5189 25.6839 39.9942 27.7033 38.945 29.3706C37.8957 31.0523 36.48 32.3387 34.6977 33.2299Z" fill="#232426"/>
<path d="M9.2504 32.5615L8.8192 33.2299C7.0369 32.3387 5.62113 31.0523 4.57188 29.3706C3.52262 27.7033 2.998 25.6839 2.998 23.3123C2.998 20.9551 3.52262 18.95 4.57188 17.297C5.62113 15.6297 7.0369 14.3577 8.8192 13.4809L9.22884 14.1062C7.74839 15.1554 6.68476 16.4203 6.03796 17.9007C5.40553 19.3668 5.08932 21.1707 5.08932 23.3123C5.08932 25.4827 5.41272 27.3081 6.05952 28.7885C6.70632 30.269 7.76994 31.5266 9.2504 32.5615Z" fill="#232426"/>
</svg>
