<svg width="44" height="44" viewBox="0 0 44 44" fill="none" xmlns="http://www.w3.org/2000/svg">
<path d="M3.27874 24.7308C3.18691 24.7308 3.07977 24.6696 2.95732 24.5472C2.83488 24.4247 2.766 24.3176 2.7507 24.2257C2.73539 24.1339 2.97263 23.9043 3.46241 23.537C3.9522 23.1697 4.45728 22.787 4.97768 22.3891C5.49807 21.9911 5.78888 21.7692 5.85011 21.7233C5.88072 21.6926 5.91898 21.6773 5.9649 21.6773H5.98786C6.07969 21.6773 6.18683 21.8074 6.30928 22.0676C6.43172 22.3278 6.84498 23.2232 7.54904 24.7538C7.83985 25.4119 8.07709 25.94 8.26076 26.3379L10.2122 30.5853C10.2275 30.5853 11.0234 28.9552 12.5999 25.6951C14.1764 22.435 15.7529 19.1519 17.3294 15.8459C18.9059 12.5398 19.7247 10.8485 19.786 10.772C19.8778 10.5577 20.0309 10.4506 20.2451 10.4506C20.3523 10.4506 20.4441 10.4965 20.5206 10.5883C20.5972 10.6802 20.6507 10.772 20.6814 10.8638V11.0016L15.332 22.0906L9.93673 33.2485C9.87551 33.3556 9.73011 33.4092 9.50052 33.4092C9.36277 33.4092 9.27093 33.3862 9.22502 33.3403C9.19441 33.3097 8.44443 31.6873 6.97508 28.4731L4.77105 23.6518L4.40371 23.9043C4.17413 24.088 3.93689 24.2717 3.692 24.4553C3.44711 24.639 3.30935 24.7308 3.27874 24.7308Z" fill="#232426"/>
<path d="M40.4809 11.9902H20.4609V10.4502H40.4809V11.9902Z" fill="#232426"/>
<rect x="20.8459" y="15.4553" width="19.25" height="19.25" rx="1.155" fill="#F4F8FF"/>
<rect x="20.8459" y="15.4553" width="19.25" height="19.25" rx="1.155" stroke="#1E6EFA" stroke-width="0.77" stroke-dasharray="1.54 1.54"/>
<rect x="3.385" y="9.385" width="9.23" height="9.23" rx="1.155" fill="#F4F8FF"/>
<rect x="3.385" y="9.385" width="9.23" height="9.23" rx="1.155" stroke="#1E6EFA" stroke-width="0.77" stroke-dasharray="1.54 1.54"/>
</svg>
