<svg width="40" height="40" viewBox="0 0 40 40" fill="none" xmlns="http://www.w3.org/2000/svg">
<rect x="2.85" y="11.25" width="20.3" height="20.3" rx="1.05" fill="#F4F8FF"/>
<rect x="2.85" y="11.25" width="20.3" height="20.3" rx="1.05" stroke="#1E78FF" stroke-width="0.7" stroke-dasharray="1.4 1.4"/>
<path d="M32.0544 14.182H25.8524V13.356H32.0544V14.182ZM37.1353 16.772H33.3973V16.352C33.892 16.352 34.2233 16.3054 34.3913 16.212C34.5593 16.1094 34.6433 15.9274 34.6433 15.666V11.368C34.6433 11.1814 34.6153 11.046 34.5593 10.962C34.5033 10.878 34.4007 10.836 34.2513 10.836C34.1393 10.836 33.9853 10.8547 33.7893 10.892C33.6027 10.92 33.444 10.948 33.3133 10.976V10.514L35.2033 10.01H35.8753V15.666C35.8753 15.9274 35.964 16.1094 36.1413 16.212C36.328 16.3054 36.6593 16.352 37.1353 16.352V16.772Z" fill="#232426"/>
</svg>
