<svg width="40" height="40" viewBox="0 0 40 40" fill="none" xmlns="http://www.w3.org/2000/svg">
<path d="M14.5178 28.0017C12.2161 26.2753 11.0652 23.9633 11.0652 21.0656C11.0652 18.5583 11.9078 16.5032 13.593 14.9001C15.2782 13.2971 17.2717 12.3826 19.5735 12.1565C19.594 12.1565 19.7481 12.1565 20.0359 12.1565C20.3236 12.1565 20.7141 12.1463 21.2073 12.1257C21.7005 12.1052 22.1835 12.1052 22.6562 12.1257L25.3381 6.97759C25.3998 6.79263 25.5642 6.70015 25.8314 6.70015C25.9752 6.70015 26.0985 6.74125 26.2013 6.82345C26.304 6.90566 26.3657 6.99814 26.3862 7.1009C26.4068 7.20366 26.4273 7.27559 26.4479 7.31669C26.4684 7.35779 25.6669 8.9608 24.0434 12.1257H25.9855C26.2938 12.2901 26.4479 12.4956 26.4479 12.7423C26.4479 12.9272 26.3143 13.1225 26.0471 13.328L23.396 13.3588L19.7584 20.449H25.9855C26.2938 20.6134 26.4479 20.8189 26.4479 21.0656C26.4479 21.3122 26.2938 21.5177 25.9855 21.6821H19.1419L16.09 27.6009C16.8504 28.053 17.6827 28.3716 18.587 28.5565C19.1419 28.6798 20.5599 28.7518 22.8411 28.7723H26.0471C26.3143 28.9778 26.4479 29.1834 26.4479 29.3889C26.4479 29.6355 26.2938 29.841 25.9855 30.0054H22.9953C22.8514 30.0054 22.6048 30.0054 22.2554 30.0054C21.906 30.0054 21.6183 30.0157 21.3923 30.0362C19.0288 30.0362 17.0662 29.5841 15.5043 28.6798C13.2231 33.0778 12.0619 35.2871 12.0208 35.3077C11.9386 35.3693 11.8256 35.4001 11.6817 35.4001C11.5379 35.4001 11.4146 35.3693 11.3118 35.3077C11.209 35.246 11.1474 35.1638 11.1268 35.061C11.1063 34.9583 11.0857 34.8864 11.0652 34.8453C11.0652 34.7014 11.1166 34.5575 11.2193 34.4137L14.5178 28.0017ZM15.0727 26.8919L17.7547 21.6821H12.2983V21.7438C12.2983 22.4014 12.5346 23.2337 13.0073 24.2407C13.48 25.2478 14.1684 26.1315 15.0727 26.8919ZM18.3712 20.449L22.0396 13.3588C20.2517 13.3793 19.111 13.441 18.6178 13.5438C17.6108 13.7904 16.7168 14.1603 15.9359 14.6535C15.1549 15.1468 14.5486 15.6503 14.1171 16.1641C13.6855 16.6778 13.3156 17.243 13.0073 17.8595C12.699 18.4761 12.5141 18.9693 12.4524 19.3392C12.3907 19.7092 12.3394 20.0585 12.2983 20.3874V20.449H18.3712Z" fill="#232426"/>
</svg>
