<svg width="40" height="40" viewBox="0 0 40 40" fill="none" xmlns="http://www.w3.org/2000/svg">
<path d="M13.3793 19.912C13.3793 19.3746 13.1979 18.911 12.8351 18.5214C12.4723 18.1318 11.9483 17.9369 11.2631 17.9369C10.7794 17.9369 10.3629 18.0243 10.0135 18.1989C9.61044 18.4542 9.4089 18.8036 9.4089 19.247C9.39546 19.3141 9.39546 19.4015 9.4089 19.509C9.42233 19.6164 9.52982 19.7777 9.73136 19.9927C9.9329 20.2076 10.2218 20.3756 10.598 20.4965C10.8398 20.5637 11.1354 20.6241 11.4848 20.6779C11.8341 20.7316 12.1297 20.7921 12.3716 20.8593C12.6134 20.9265 12.8284 21.0138 13.0165 21.1213C13.2449 21.2288 13.4666 21.3631 13.6816 21.5244C13.8966 21.6856 14.1115 21.961 14.3265 22.3507C14.5415 22.7403 14.6557 23.1569 14.6691 23.6002C14.6691 24.4333 14.4138 25.1185 13.9033 25.656C13.3927 26.1934 12.5664 26.4689 11.4243 26.4823H11.2631C10.5644 26.4823 9.91947 26.2404 9.32828 25.7567L9.16705 25.8978L8.98566 26.0792C8.90504 26.1598 8.82443 26.2337 8.74381 26.3009L8.52211 26.5024H8.36088H8.28026C8.23996 26.5024 8.17949 26.4621 8.09888 26.3815V24.7893V23.6204C8.09888 23.3382 8.11231 23.1703 8.13919 23.1165C8.16606 23.0628 8.23324 23.0292 8.34073 23.0158H8.52211C8.68335 23.0158 8.79084 23.0426 8.84458 23.0964C8.89832 23.1501 8.93191 23.2308 8.94535 23.3382C8.95879 23.4457 9.00581 23.6271 9.08643 23.8824C9.16705 24.1377 9.29469 24.4198 9.46936 24.7289C9.93962 25.4141 10.5913 25.7567 11.4243 25.7567C12.7276 25.7567 13.3793 25.2327 13.3793 24.1847C13.3793 23.7951 13.2583 23.4793 13.0165 23.2375C12.7478 22.915 12.1902 22.6732 11.3437 22.5119C10.4972 22.3507 9.93962 22.1962 9.6709 22.0484C9.1872 21.82 8.80427 21.5109 8.52211 21.1213C8.23996 20.7316 8.09888 20.3151 8.09888 19.8717C8.09888 19.3477 8.21308 18.9043 8.4415 18.5416C8.66991 18.1788 8.95879 17.9101 9.30813 17.7354C9.65746 17.5607 9.99337 17.4398 10.3158 17.3726C10.6383 17.3054 10.9339 17.2718 11.2026 17.2718H11.4243C11.9618 17.2718 12.432 17.3726 12.8351 17.5742L13.1374 17.7354L13.3188 17.5943C13.4532 17.4734 13.601 17.3592 13.7622 17.2517H13.9234H14.004C14.0443 17.2517 14.1048 17.292 14.1854 17.3726V20.033L14.0645 20.1539H13.5002C13.4196 20.0733 13.3793 19.9927 13.3793 19.912Z" fill="#232426"/>
<path d="M16.7653 14.0069C16.7653 13.6307 16.8862 13.3351 17.1281 13.1201C17.3699 12.9051 17.6655 12.7976 18.0149 12.7976C18.3239 12.8245 18.5926 12.9387 18.821 13.1403C19.0494 13.3418 19.1637 13.6307 19.1637 14.0069C19.1637 14.41 19.0494 14.7123 18.821 14.9138C18.5926 15.1154 18.3105 15.2161 17.9746 15.2161C17.6387 15.2161 17.3565 15.1154 17.1281 14.9138C16.8997 14.7123 16.7787 14.41 16.7653 14.0069ZM20.3527 26.2808C20.1512 26.2405 19.4525 26.2203 18.2567 26.2203C18.1089 26.2203 17.8604 26.2203 17.511 26.2203C17.1617 26.2203 16.8258 26.2337 16.5033 26.2606L16.0599 26.2808H15.8987V25.3537H16.2211C16.5974 25.3537 16.9265 25.3335 17.2087 25.2932C17.3296 25.2395 17.4035 25.1656 17.4304 25.0715C17.4573 24.9775 17.4707 24.6953 17.4707 24.225V22.1492V20.3756C17.4707 19.6769 17.4573 19.2335 17.4304 19.0454C17.4035 18.8573 17.3095 18.7297 17.1482 18.6625C16.9601 18.5684 16.6444 18.5214 16.201 18.5214H15.9793V18.0579C15.9793 17.7488 15.9927 17.5943 16.0196 17.5943L16.2211 17.5742C16.3555 17.5607 16.5436 17.5473 16.7855 17.5339C17.0273 17.5204 17.2692 17.507 17.511 17.4936C17.7394 17.4801 17.9813 17.4667 18.2366 17.4532C18.4918 17.4398 18.6867 17.4197 18.821 17.3928C18.9554 17.3659 19.0293 17.3592 19.0427 17.3726H19.1032V25.0312C19.1704 25.1656 19.251 25.2462 19.345 25.2731C19.4391 25.2999 19.6742 25.3268 20.0504 25.3537H20.514V26.2808H20.3527Z" fill="#232426"/>
<path d="M21.8039 25.3537H22.0861C22.6101 25.3537 22.9258 25.2596 23.0333 25.0715V24.9103C23.0333 24.7894 23.0333 24.6348 23.0333 24.4467C23.0333 24.2586 23.0333 24.0504 23.0333 23.822C23.0333 23.5935 23.04 23.3315 23.0535 23.0359C23.0669 22.7404 23.0669 22.4582 23.0535 22.1895C23.0535 21.773 23.0535 21.3296 23.0535 20.8593C23.0535 20.389 23.0468 19.9927 23.0333 19.6702V19.2067C22.993 18.9514 22.899 18.7834 22.7512 18.7028C22.6034 18.6222 22.301 18.5617 21.8442 18.5214H21.4814V18.0579C21.4814 17.7488 21.4949 17.5943 21.5218 17.5943L21.7233 17.5742C21.8577 17.5607 22.0458 17.5473 22.2876 17.5339C22.5295 17.5204 22.778 17.507 23.0333 17.4936C23.2617 17.4801 23.5036 17.4667 23.7589 17.4532C24.0141 17.4398 24.209 17.4197 24.3433 17.3928C24.4777 17.3659 24.5516 17.3592 24.565 17.3726H24.6255V18.1788C24.6255 18.6894 24.6322 18.9447 24.6456 18.9447C24.6591 18.9447 24.6927 18.9111 24.7464 18.8439C24.8002 18.7767 24.8808 18.6759 24.9883 18.5416C25.0958 18.4072 25.2234 18.2863 25.3712 18.1788C25.519 18.0713 25.7138 17.9437 25.9557 17.7959C26.1975 17.6481 26.4528 17.5406 26.7215 17.4734C26.9902 17.4062 27.3329 17.3726 27.7494 17.3726C29.2811 17.4264 30.1343 18.1855 30.309 19.65C30.3224 19.7441 30.3291 20.6779 30.3291 22.4515V24.1847C30.3291 24.6953 30.3425 24.9976 30.3694 25.0917C30.3963 25.1857 30.4702 25.2529 30.5911 25.2932C30.8733 25.3335 31.2025 25.3537 31.5787 25.3537H31.9011V26.2808H31.7399L31.2562 26.2606C30.9472 26.2472 30.6113 26.2405 30.2485 26.2405C29.8857 26.2405 29.6304 26.2337 29.4826 26.2203C28.0987 26.2203 27.3463 26.2405 27.2254 26.2808H27.0641V25.3537H27.3866C28.2062 25.3537 28.616 25.2462 28.616 25.0312C28.6294 25.0043 28.6362 24.0772 28.6362 22.2499C28.6227 20.4361 28.6093 19.4754 28.5959 19.3679C28.5152 18.9917 28.3809 18.7095 28.1928 18.5214C28.0047 18.3333 27.8434 18.2191 27.7091 18.1788C27.5747 18.1385 27.4 18.1251 27.1851 18.1385C26.5804 18.1385 26.0497 18.3669 25.5929 18.8237C25.2301 19.1865 25.0017 19.556 24.9076 19.9322C24.8136 20.3084 24.7599 20.866 24.7464 21.605V22.8949V24.1041C24.7464 24.5072 24.7531 24.7759 24.7666 24.9103C24.78 25.0446 24.8002 25.132 24.827 25.1723C24.8539 25.2126 24.9144 25.2529 25.0084 25.2932C25.2906 25.3335 25.6198 25.3537 25.996 25.3537H26.3184V26.2808H26.1572L25.6937 26.2606C25.3712 26.2472 25.0286 26.2405 24.6658 26.2405C24.303 26.2405 24.0477 26.2337 23.8999 26.2203C22.516 26.2203 21.7636 26.2405 21.6427 26.2808H21.4814V25.3537H21.8039Z" fill="#232426"/>
</svg>
