<svg width="40" height="40" viewBox="0 0 40 40" fill="none" xmlns="http://www.w3.org/2000/svg">
<path d="M13.6613 11.6661C13.8815 11.6221 14.0467 11.6 14.1568 11.6C14.5311 11.6 14.7183 11.7322 14.7183 11.9964C14.7183 12.1506 14.6743 12.3157 14.5862 12.4919C14.366 12.9984 14.1237 13.4938 13.8595 13.9783C13.5953 14.4627 13.353 14.8701 13.1328 15.2004C12.9126 15.5307 12.7144 15.817 12.5383 16.0592C12.3621 16.3014 12.208 16.4886 12.0758 16.6207L11.9107 16.8189C11.9107 16.8409 14.6082 16.852 20.0032 16.852C25.3763 16.852 28.0628 16.8409 28.0628 16.8189L27.8976 16.6207C27.7875 16.5106 27.6444 16.3345 27.4682 16.0922C27.292 15.85 27.0829 15.5638 26.8406 15.2334C26.5984 14.9031 26.3562 14.4958 26.1139 14.0113C25.8717 13.5268 25.6295 13.0204 25.3873 12.4919C25.2772 12.2276 25.2221 12.0515 25.2221 11.9634C25.2221 11.7432 25.4643 11.6331 25.9488 11.6331C26.1029 11.6551 26.213 11.6771 26.2791 11.6991C26.3452 11.7212 26.4002 11.7652 26.4443 11.8313C26.4883 11.8973 26.5544 12.0294 26.6424 12.2276C28.0738 15.4867 30.2868 17.9089 33.2816 19.4944C33.7 19.7366 34.1074 19.9348 34.5038 20.089C34.9002 20.2431 35.1424 20.3532 35.2305 20.4193C35.3185 20.4853 35.3736 20.5844 35.3956 20.7166C35.3956 20.8046 35.3846 20.8707 35.3626 20.9147C35.3406 20.9588 35.2855 21.0028 35.1974 21.0469C35.1094 21.0909 34.9882 21.135 34.8341 21.179C34.6799 21.223 34.4708 21.3111 34.2065 21.4432C33.9423 21.5754 33.634 21.7405 33.2816 21.9387C30.2208 23.6123 28.0077 26.0345 26.6424 29.2055C26.5544 29.4037 26.4883 29.5358 26.4443 29.6019C26.4002 29.6679 26.3452 29.712 26.2791 29.734C26.213 29.756 26.1029 29.778 25.9488 29.8C25.4643 29.8 25.2221 29.6899 25.2221 29.4697C25.2221 29.3817 25.2772 29.2055 25.3873 28.9412C25.6075 28.4348 25.8497 27.9393 26.1139 27.4549C26.3782 26.9704 26.6204 26.563 26.8406 26.2327C27.0608 25.9024 27.259 25.6161 27.4352 25.3739C27.6113 25.1317 27.7655 24.9445 27.8976 24.8124L28.0628 24.6142C28.0628 24.5922 25.3763 24.5812 20.0032 24.5812C14.6082 24.5812 11.9107 24.5922 11.9107 24.6142L12.0758 24.8124C12.1859 24.9225 12.3291 25.0987 12.5052 25.3409C12.6814 25.5831 12.8906 25.8694 13.1328 26.1997C13.3751 26.53 13.6173 26.9374 13.8595 27.4218C14.1017 27.9063 14.344 28.4128 14.5862 28.9412C14.6963 29.2055 14.7513 29.3817 14.7513 29.4697C14.7513 29.6899 14.5091 29.8 14.0247 29.8C13.8705 29.778 13.7604 29.756 13.6943 29.734C13.6283 29.712 13.5732 29.6679 13.5292 29.6019C13.4852 29.5358 13.4191 29.4037 13.331 29.2055C11.8997 25.9464 9.6866 23.5242 6.69181 21.9387C6.38352 21.7625 6.08624 21.6084 5.79997 21.4763C5.51371 21.3442 5.30451 21.2561 5.17239 21.212C5.04026 21.168 4.93016 21.1239 4.84208 21.0799C4.754 21.0359 4.68794 20.9918 4.64389 20.9478C4.59985 20.9037 4.58884 20.8267 4.61086 20.7166C4.63288 20.6065 4.64389 20.5404 4.64389 20.5184C4.64389 20.4964 4.69895 20.4413 4.80905 20.3532C4.91915 20.2651 5.04026 20.2211 5.17239 20.2211C5.30451 20.2211 5.51371 20.133 5.79997 19.9569C6.08624 19.7807 6.38352 19.6265 6.69181 19.4944C9.73065 17.8209 11.9547 15.3766 13.364 12.1616C13.4962 11.8753 13.5953 11.7102 13.6613 11.6661ZM29.6482 18.4374L29.351 18.1732H10.6225C9.8958 18.8999 8.83881 19.6816 7.45152 20.5184L7.12121 20.7166L7.45152 20.9147C8.61861 21.6194 9.5765 22.3131 10.3252 22.9957L10.6225 23.2599H29.351L29.6482 22.9957C30.3969 22.3131 31.3548 21.6194 32.5219 20.9147L32.8522 20.7166L32.5219 20.5184C31.3548 19.8137 30.3969 19.1201 29.6482 18.4374Z" fill="#232426"/>
</svg>
