<svg width="40" height="40" viewBox="0 0 40 40" fill="none" xmlns="http://www.w3.org/2000/svg">
<path d="M11.6001 21.0279C11.6001 21.0279 11.6001 20.9186 11.6001 20.7C11.6001 20.4814 11.7178 20.3132 11.9533 20.1955H19.4956V16.4369C19.4956 13.9312 19.5124 12.6447 19.546 12.5775C19.6301 12.3925 19.7731 12.3 19.9749 12.3C20.2103 12.3 20.3533 12.4009 20.4037 12.6027C20.4542 12.8045 20.4878 13.2922 20.5046 14.0657V16.4874V20.1955H28.0217C28.274 20.33 28.4001 20.4982 28.4001 20.7C28.4001 20.9186 28.274 21.0868 28.0217 21.2045H20.5046V28.091H28.0217C28.274 28.2255 28.4001 28.3937 28.4001 28.5955C28.4001 28.7973 28.274 28.9654 28.0217 29.1H11.9533C11.7178 28.9823 11.6001 28.8141 11.6001 28.5955C11.6001 28.3769 11.7178 28.2087 11.9533 28.091H19.4956V21.2045H11.9533C11.7178 21.0868 11.6001 20.9186 11.6001 20.7V21.0279Z" fill="#232426"/>
</svg>
