<svg width="45" height="45" viewBox="0 0 45 45" fill="none" xmlns="http://www.w3.org/2000/svg">
<path d="M12.8064 32.2902L12.7283 32.2381C12.6763 32.2207 12.6329 32.1947 12.5982 32.16C12.5635 32.1253 12.5201 32.0732 12.468 32.0038C12.4159 31.9344 12.3899 31.8563 12.3899 31.7695C12.3899 31.7001 12.4159 31.6133 12.468 31.5091C12.5201 31.3877 14.1081 28.4372 17.2322 22.6576C20.3562 16.8781 21.9443 13.9537 21.9964 13.8843C21.9964 13.8669 22.0137 13.8409 22.0484 13.8062C22.0831 13.7714 22.1352 13.7367 22.2046 13.702C22.2741 13.6673 22.3435 13.65 22.4129 13.65C22.5344 13.65 22.6299 13.6847 22.6993 13.7541C22.7687 13.7888 24.4088 16.774 27.6197 22.7097L32.4099 31.5872V31.7695C32.4099 31.9951 32.2884 32.1687 32.0454 32.2902H12.8064ZM26.7345 23.2564L22.4129 15.2901C22.3956 15.2901 20.955 17.9455 18.0913 23.2564C15.2276 28.5673 13.7957 31.2315 13.7957 31.2488H31.0301C31.0301 31.2141 29.5982 28.55 26.7345 23.2564Z" fill="#232426"/>
</svg>
