<svg width="52" height="53" viewBox="0 0 52 53" fill="none" xmlns="http://www.w3.org/2000/svg">
<rect x="9.3499" y="10.5499" width="15.3" height="15.3" rx="1.35" fill="#D9E8FF"/>
<rect x="9.3499" y="10.5499" width="15.3" height="15.3" rx="1.35" stroke="#78AEFF" stroke-width="0.9" stroke-dasharray="1.8 1.8"/>
<rect x="27.3499" y="10.5499" width="15.3" height="15.3" rx="1.35" fill="#D9E8FF"/>
<rect x="27.3499" y="10.5499" width="15.3" height="15.3" rx="1.35" stroke="#78AEFF" stroke-width="0.9" stroke-dasharray="1.8 1.8"/>
<rect x="9.3499" y="28.5499" width="15.3" height="15.3" rx="1.35" fill="#D9E8FF"/>
<rect x="9.3499" y="28.5499" width="15.3" height="15.3" rx="1.35" stroke="#78AEFF" stroke-width="0.9" stroke-dasharray="1.8 1.8"/>
<rect x="27.3499" y="28.5499" width="15.3" height="15.3" rx="1.35" fill="#D9E8FF"/>
<rect x="27.3499" y="28.5499" width="15.3" height="15.3" rx="1.35" stroke="#78AEFF" stroke-width="0.9" stroke-dasharray="1.8 1.8"/>
<path d="M10.309 45.4514C10.309 45.4817 10.2786 45.5272 10.218 45.5879H9.74776C9.72753 45.5677 9.58597 45.4312 9.32305 45.1784C9.06014 44.9256 8.83262 44.7081 8.64049 44.5261C8.44836 44.3441 8.17534 44.0357 7.82142 43.6009C7.4675 43.1661 7.15402 42.7565 6.881 42.3723C6.60797 41.988 6.28944 41.4773 5.92541 40.8403C5.56138 40.2032 5.24791 39.5712 4.98499 38.9443C4.72208 38.3173 4.444 37.564 4.15075 36.6842C3.8575 35.8045 3.62998 34.9146 3.46819 34.0147C3.3064 33.1147 3.15977 32.0883 3.02831 30.9356C2.89686 29.7828 2.83619 28.5997 2.8463 27.3862C2.8463 20.1966 4.68669 14.5844 8.36747 10.5497C8.60004 10.2969 8.81745 10.0744 9.01969 9.88231C9.22193 9.69018 9.38878 9.52839 9.52024 9.39693C9.65169 9.26547 9.72753 9.19975 9.74776 9.19975H10.218C10.2786 9.26042 10.309 9.30592 10.309 9.33626C10.309 9.38682 10.2079 9.51827 10.0056 9.73063C9.80337 9.94298 9.54046 10.2413 9.21688 10.6255C8.89329 11.0098 8.52926 11.4901 8.12478 12.0665C7.7203 12.6429 7.31076 13.3659 6.89617 14.2355C6.48157 15.1052 6.09732 16.0709 5.74339 17.1326C5.38947 18.1944 5.08611 19.4685 4.83331 20.955C4.58051 22.4415 4.41872 24.0392 4.34793 25.7481C4.32771 26.1323 4.3176 26.6834 4.3176 27.4014C4.3176 31.335 4.79286 34.7731 5.74339 37.7157C6.69393 40.6583 8.16017 43.1559 10.1421 45.2087C10.2534 45.33 10.309 45.4109 10.309 45.4514Z" fill="black"/>
<path d="M41.6919 9.38176C41.6919 9.30087 41.7071 9.25031 41.7374 9.23008C41.7677 9.20986 41.8335 9.19975 41.9346 9.19975H42.0256H42.2531C42.2733 9.21997 42.4149 9.35648 42.6778 9.60928C42.9407 9.86208 43.1683 10.0795 43.3604 10.2615C43.5525 10.4435 43.8255 10.7519 44.1795 11.1868C44.5334 11.6216 44.8468 12.0311 45.1199 12.4154C45.3929 12.7996 45.7114 13.3103 46.0755 13.9473C46.4395 14.5844 46.753 15.2113 47.0159 15.8282C47.2788 16.445 47.5569 17.1984 47.8501 18.0882C48.1434 18.9781 48.3709 19.8679 48.5327 20.7578C48.6945 21.6477 48.8411 22.674 48.9726 23.8369C49.104 24.9998 49.1647 26.1829 49.1546 27.3862C49.1546 28.5693 49.1192 29.5704 49.0484 30.3895C48.5731 36.1736 46.7681 40.7897 43.6334 44.2379C43.4008 44.4907 43.1834 44.7132 42.9812 44.9053C42.7789 45.0975 42.6121 45.2592 42.4806 45.3907C42.3492 45.5222 42.2733 45.5879 42.2531 45.5879H42.0256C41.8941 45.5879 41.8082 45.5778 41.7677 45.5576C41.7273 45.5373 41.702 45.4868 41.6919 45.4059C42.2379 44.8598 42.7739 44.2329 43.2997 43.525C46.212 39.6521 47.6681 34.2725 47.6681 27.3862C47.6681 25.3436 47.5366 23.4375 47.2737 21.6679C47.0108 19.8983 46.6872 18.4118 46.303 17.2085C45.9187 16.0051 45.4485 14.8726 44.8924 13.8108C44.3362 12.7491 43.8306 11.9249 43.3755 11.3384C42.9205 10.7519 42.42 10.1654 41.8739 9.57895C41.8537 9.55872 41.8335 9.5385 41.8132 9.51827C41.793 9.49805 41.7778 9.47783 41.7677 9.4576C41.7576 9.43738 41.7425 9.42221 41.7222 9.4121L41.6919 9.38176Z" fill="black"/>
</svg>
