<svg width="40" height="40" viewBox="0 0 40 40" fill="none" xmlns="http://www.w3.org/2000/svg">
<path d="M15.5392 12.4284C15.4242 12.3134 15.3338 12.2394 15.268 12.2066C15.2023 12.1737 15.0708 12.1491 14.8736 12.1326C14.6764 12.1162 14.323 12.0915 13.8135 12.0587H13V10.9246H17.61C17.988 10.9246 18.4975 10.9246 19.1385 10.9246C19.7794 10.9246 20.2314 10.9164 20.4944 10.9C21.9407 10.9 23.0911 11.0068 23.9457 11.2205C24.8004 11.4341 25.5892 11.8861 26.3124 12.5764C27.2492 13.4474 27.7176 14.491 27.7176 15.7072C27.7176 16.8248 27.2985 17.7863 26.4603 18.5916C25.6221 19.3969 24.6196 19.931 23.4527 20.194C23.0911 20.2762 22.0804 20.3255 20.4204 20.3419H18.1031V23.3002C18.1031 25.256 18.1277 26.2667 18.177 26.3325C18.3085 26.5133 18.8591 26.6119 19.8288 26.6283H20.6423V27.7623H20.3711C20.026 27.713 18.8427 27.6884 16.8211 27.6884C14.6024 27.6884 13.4191 27.713 13.2712 27.7623H13V26.6283H13.8135C14.5038 26.6119 14.9229 26.5872 15.0708 26.5544C15.2187 26.5215 15.3749 26.4229 15.5392 26.2585V12.4284ZM24.8332 15.7319C24.8332 15.3046 24.825 14.9759 24.8086 14.7458C24.7921 14.5157 24.7428 14.2199 24.6607 13.8583C24.5785 13.4967 24.4388 13.2255 24.2416 13.0448C24.0443 12.864 23.7732 12.675 23.428 12.4778C23.0829 12.2805 22.6474 12.1573 22.1214 12.108C21.9242 12.0751 21.1846 12.0587 19.9027 12.0587H19.385C18.5797 12.0587 18.1524 12.1326 18.1031 12.2805C18.0538 12.3463 18.0291 13.5378 18.0291 15.8552V19.3312H19.7794H20.6916C21.5298 19.3312 22.2201 19.2736 22.7624 19.1586C23.3048 19.0435 23.7814 18.7724 24.1923 18.3451C24.6196 17.8684 24.8332 16.9974 24.8332 15.7319Z" fill="#232426"/>
<rect x="28.1147" y="23.847" width="9.06931" height="9.06931" rx="0.35" transform="rotate(0.62339 28.1147 23.847)" fill="#F4F8FF"/>
<rect x="28.1147" y="23.847" width="9.06931" height="9.06931" rx="0.35" transform="rotate(0.62339 28.1147 23.847)" stroke="#1E78FF" stroke-width="0.7" stroke-dasharray="1.4 1.4"/>
<rect x="2.84617" y="23.847" width="9.06931" height="9.06931" rx="0.35" transform="rotate(0.62339 2.84617 23.847)" fill="#F4F8FF"/>
<rect x="2.84617" y="23.847" width="9.06931" height="9.06931" rx="0.35" transform="rotate(0.62339 2.84617 23.847)" stroke="#1E78FF" stroke-width="0.7" stroke-dasharray="1.4 1.4"/>
</svg>
