<svg width="45" height="45" viewBox="0 0 45 45" fill="none" xmlns="http://www.w3.org/2000/svg">
<path d="M28.999 16.8119C28.999 16.2743 29.2311 15.7856 29.6954 15.3458C30.1597 14.906 30.6606 14.6738 31.1982 14.6494C31.6624 14.6494 32.0778 14.8693 32.4444 15.3091C32.8109 15.749 32.9941 16.4942 32.9941 17.545C32.9941 18.278 32.8475 19.3287 32.5543 20.6971C32.2611 22.0654 31.809 23.5682 31.1982 25.2054C30.5873 26.8425 29.7076 28.272 28.5592 29.4937C27.4107 30.7155 26.1157 31.3141 24.674 31.2897C22.7192 31.2897 21.3753 30.3489 20.6422 28.4674C20.6178 28.4186 20.5323 28.4797 20.3857 28.6507C18.944 30.41 17.2946 31.2897 15.4375 31.2897C12.7497 31.2897 11.4058 29.4571 11.4058 25.7918C11.4058 23.5682 11.9067 21.2957 12.9085 18.9744C13.9104 16.6531 14.7289 15.3214 15.3642 14.9793C15.6575 14.8082 15.9507 14.7838 16.2439 14.906C16.5616 15.077 16.7204 15.2969 16.7204 15.5657C16.7204 15.8589 16.476 16.3354 15.9873 16.9952C15.4986 17.6549 14.9366 18.5468 14.3013 19.6708C13.666 20.7948 13.275 21.9921 13.1284 23.2628C13.104 23.4094 13.0918 23.6659 13.0918 24.0325C13.0918 25.5719 13.385 26.6348 13.9714 27.2212C14.5579 27.8077 15.2665 28.1009 16.0973 28.1009C17.5145 28.1009 18.7607 27.4534 19.8359 26.1583L20.1291 25.8651V25.1687C20.2513 21.7234 21.0332 20.0007 22.4748 20.0007C23.2323 20.0007 23.6111 20.4405 23.6111 21.3202C23.6111 21.76 23.4889 22.3464 23.2446 23.0795C23.0002 23.8126 22.7559 24.4845 22.5115 25.0954L22.145 25.9384C22.1694 25.9873 22.1938 26.0606 22.2183 26.1583C22.2427 26.2561 22.3405 26.4271 22.5115 26.6715C22.6825 26.9158 22.878 27.1357 23.0979 27.3312C23.3179 27.5267 23.6111 27.6977 23.9776 27.8443C24.3441 27.991 24.7717 28.0765 25.2604 28.1009C26.7999 28.1009 28.1194 27.2212 29.2189 25.4619C30.3185 23.7026 30.8683 22.1632 30.8683 20.8437C30.8683 20.0862 30.7095 19.4631 30.3918 18.9744C30.0742 18.4857 29.7687 18.0947 29.4755 17.8015C29.1823 17.5083 29.0234 17.1784 28.999 16.8119Z" fill="#232426"/>
</svg>
