<svg width="44" height="44" viewBox="0 0 44 44" fill="none" xmlns="http://www.w3.org/2000/svg">
<path d="M31.8369 20.6413C30.007 22.1725 28.0276 23.2928 26.123 23.2928C24.6292 23.2928 23.5461 22.658 22.239 21.911C21.156 21.2762 19.9983 20.6413 18.5044 20.6413C17.5708 20.6413 16.5998 20.94 15.7782 21.3135C15.0313 21.687 14.2844 22.0978 13.6495 22.6206L11.6328 24.2638L12.1557 24.8987C13.9856 23.3675 15.9649 22.2472 17.8696 22.2472C19.3634 22.2472 20.4464 22.882 21.7535 23.6289C22.8366 24.2638 23.9943 24.8987 25.4881 24.8987C26.4218 24.8987 27.3928 24.5999 28.2144 24.2265C28.9613 23.853 29.7082 23.4422 30.3431 22.9194L32.3597 21.2762L31.8369 20.6413Z" fill="black"/>
</svg>
