<svg width="40" height="40" viewBox="0 0 40 40" fill="none" xmlns="http://www.w3.org/2000/svg">
<path d="M11.6001 13.1324C11.6001 13.1324 11.6001 13.0231 11.6001 12.8045C11.6001 12.5859 11.7178 12.4177 11.9533 12.3H28.0217C28.274 12.4345 28.4001 12.6027 28.4001 12.8045C28.4001 13.0063 28.274 13.1745 28.0217 13.309H20.5046V20.1955H28.0217C28.274 20.33 28.4001 20.4982 28.4001 20.7C28.4001 20.9186 28.274 21.0868 28.0217 21.2045H20.5046V24.9126V27.2585C20.5046 28.1162 20.4794 28.6375 20.4289 28.8225C20.3785 29.0075 20.2355 29.1 20.0001 29.1C19.7815 29.1 19.6385 29.0075 19.5713 28.8225C19.504 28.6375 19.4704 28.2171 19.4704 27.5612C19.4704 27.4099 19.4704 27.0483 19.4704 26.4766C19.4704 25.9048 19.4788 25.4003 19.4956 24.963V21.2045H11.9533C11.7178 21.0868 11.6001 20.9186 11.6001 20.7C11.6001 20.4814 11.7178 20.3132 11.9533 20.1955H19.4956V13.309H11.9533C11.7178 13.1913 11.6001 13.0231 11.6001 12.8045V13.1324Z" fill="#232426"/>
</svg>
