<svg width="52" height="53" viewBox="0 0 52 53" fill="none" xmlns="http://www.w3.org/2000/svg">
<path d="M20.137 46.5647L20.032 46.6697H19.5072L19.2623 46.5647C18.1426 46.0982 17.2271 45.5034 16.5156 44.7803C15.8042 44.0571 15.3435 43.2524 15.1335 42.366C15.0752 42.1211 15.0461 41.8295 15.0461 41.4913C15.0461 41.153 15.0344 39.3861 15.0111 36.1904C14.9994 32.4348 14.9877 30.4988 14.9761 30.3821C14.9061 29.8923 14.7778 29.4316 14.5912 29C14.4046 28.5685 14.1888 28.2011 13.9439 27.8979C13.699 27.5946 13.4482 27.3206 13.1916 27.0756C12.935 26.8307 12.6901 26.6324 12.4568 26.4808C12.2236 26.3292 12.037 26.2126 11.897 26.1309C11.7571 26.0493 11.6696 25.9968 11.6346 25.9735C11.6113 25.9268 11.5996 25.8335 11.5996 25.6936C11.5996 25.6352 11.5996 25.5886 11.5996 25.5536C11.5996 25.5186 11.6054 25.4836 11.6171 25.4486C11.6288 25.4136 11.6346 25.3961 11.6346 25.3961C11.6346 25.3961 11.6463 25.3845 11.6696 25.3612C11.6929 25.3378 11.7221 25.3203 11.7571 25.3087C11.7921 25.297 11.8212 25.2795 11.8445 25.2562C12.5793 24.8713 13.2324 24.3348 13.8039 23.6467C14.4337 22.8419 14.8245 21.9555 14.9761 20.9875C14.9877 20.8708 14.9994 18.9348 15.0111 15.1792C15.0227 11.9952 15.0286 10.2282 15.0286 9.87835C15.0286 9.52846 15.0636 9.23105 15.1335 8.98613C15.5651 7.20167 16.9297 5.81376 19.2273 4.82239L19.5072 4.69992H20.032L20.137 4.80489V5.06731C20.137 5.25393 20.1254 5.35889 20.102 5.38222L19.9621 5.46969C19.8571 5.51635 19.723 5.59216 19.5597 5.69712C19.3964 5.80209 19.204 5.92455 18.9824 6.06451C18.7608 6.20447 18.545 6.37358 18.3351 6.57186C18.1251 6.77013 17.9152 6.99173 17.7053 7.23666C17.4953 7.48158 17.3204 7.7615 17.1804 8.0764C17.0405 8.3913 16.9238 8.72371 16.8305 9.0736C16.7839 9.30686 16.7605 9.58678 16.7605 9.91334C16.7605 10.2399 16.7489 11.9952 16.7256 15.1792C16.7139 18.3516 16.7081 20.1127 16.7081 20.4626C16.7081 20.8125 16.6731 21.1099 16.6031 21.3549C16.4981 21.8097 16.3348 22.2413 16.1132 22.6495C15.8916 23.0577 15.6467 23.4076 15.3785 23.6992C15.1102 23.9907 14.8245 24.259 14.5212 24.5039C14.218 24.7488 13.9439 24.9471 13.699 25.0987C13.454 25.2504 13.2441 25.367 13.0692 25.4486C12.8942 25.5303 12.7951 25.5886 12.7718 25.6236L12.6143 25.6761L12.9117 25.8335C13.9031 26.3234 14.7195 26.9298 15.361 27.653C16.0024 28.3761 16.4165 29.1633 16.6031 30.0147C16.6614 30.2597 16.6906 30.5571 16.6906 30.907C16.6906 31.2569 16.7022 33.0122 16.7256 36.1729C16.7256 36.7327 16.7256 37.45 16.7256 38.3247C16.7372 40.7157 16.7664 42.0103 16.813 42.2085C16.8247 42.2435 16.8305 42.2727 16.8305 42.296C16.8888 42.5643 16.9705 42.8208 17.0754 43.0658C17.1804 43.3107 17.3087 43.5381 17.4603 43.7481C17.6119 43.958 17.7636 44.1563 17.9152 44.3429C18.0668 44.5295 18.2301 44.6986 18.405 44.8502C18.58 45.0019 18.7491 45.136 18.9124 45.2526C19.0757 45.3692 19.2273 45.4742 19.3672 45.5675C19.5072 45.6608 19.6297 45.7366 19.7346 45.7949C19.8396 45.8533 19.9271 45.9057 19.9971 45.9524L20.102 45.9874C20.1254 46.0107 20.137 46.1157 20.137 46.3023V46.5647Z" fill="black"/>
<path d="M23.0239 16.824C23.0239 15.646 23.4671 14.5264 24.3535 13.465C25.2399 12.4037 26.2371 11.8672 27.3451 11.8555C27.9399 11.8555 28.4648 12.1412 28.9196 12.7127C29.1062 12.3628 29.3745 12.1879 29.7244 12.1879C29.876 12.1879 30.0101 12.2346 30.1268 12.3279C30.2434 12.4212 30.3017 12.5378 30.3017 12.6778C30.3017 12.8294 30.0859 13.7624 29.6544 15.4769C29.2229 17.1914 29.0013 18.1594 28.9896 18.381C28.9896 18.6726 29.0304 18.865 29.1121 18.9583C29.1937 19.0516 29.3162 19.1041 29.4795 19.1158C29.5844 19.1041 29.7011 19.0516 29.8294 18.9583C30.0743 18.7251 30.3134 18.1653 30.5466 17.2789C30.6166 17.0456 30.6749 16.9231 30.7216 16.9115C30.7449 16.8998 30.8032 16.894 30.8965 16.894H30.9665C31.1881 16.894 31.2989 16.9465 31.2989 17.0514C31.2989 17.1214 31.2698 17.2789 31.2114 17.5238C31.1531 17.7687 31.0365 18.0836 30.8615 18.4685C30.6866 18.8534 30.5 19.145 30.3017 19.3432C30.1501 19.4948 29.9635 19.6173 29.7419 19.7106C29.6486 19.7339 29.5086 19.7456 29.322 19.7456C28.9255 19.7456 28.5931 19.6581 28.3248 19.4832C28.0566 19.3082 27.8816 19.1275 27.8 18.9408L27.695 18.6784C27.6833 18.6668 27.66 18.6726 27.625 18.6959C27.6017 18.7193 27.5784 18.7426 27.555 18.7659C26.8669 19.419 26.1671 19.7456 25.4557 19.7456C24.8142 19.7456 24.2486 19.5123 23.7587 19.0458C23.2689 18.5793 23.0239 17.8387 23.0239 16.824ZM28.5872 13.8324C28.5872 13.7624 28.5581 13.6341 28.4998 13.4475C28.4414 13.2609 28.3073 13.0568 28.0974 12.8352C27.8874 12.6136 27.6192 12.497 27.2926 12.4853C26.8844 12.4853 26.4937 12.6661 26.1205 13.0276C25.7473 13.3892 25.4557 13.8616 25.2458 14.4447C24.9075 15.3661 24.6684 16.3225 24.5285 17.3138C24.5285 17.3488 24.5285 17.413 24.5285 17.5063C24.5285 17.5996 24.5226 17.6696 24.511 17.7162C24.511 18.2411 24.6159 18.6026 24.8259 18.8009C25.0358 18.9992 25.2866 19.1041 25.5782 19.1158C26.0213 19.1158 26.4587 18.9234 26.8903 18.5385C27.3218 18.1536 27.5784 17.8562 27.66 17.6462C27.6833 17.5996 27.8408 16.9756 28.1324 15.7743C28.424 14.573 28.5756 13.9257 28.5872 13.8324Z" fill="black"/>
<path d="M23.7238 29.2451C23.7238 29.1285 23.7471 28.9943 23.7938 28.8427C23.8404 28.6911 23.9104 28.6153 24.0037 28.6153C24.0154 28.6153 24.4353 28.5861 25.2633 28.5278C26.0914 28.4695 26.5171 28.4345 26.5405 28.4228C26.6804 28.4228 26.7504 28.4753 26.7504 28.5803C26.7504 28.6853 26.5521 29.5192 26.1556 31.082C26.0623 31.4786 25.9631 31.8868 25.8582 32.3067C25.7532 32.7265 25.6657 33.0414 25.5957 33.2514L25.5258 33.5838C25.5258 33.6188 25.5608 33.6013 25.6307 33.5313C26.2022 33.0648 26.7912 32.8315 27.3977 32.8315C28.1208 32.8315 28.704 33.0998 29.1472 33.6363C29.5904 34.1728 29.8178 34.8492 29.8295 35.6656C29.8295 36.9602 29.3688 38.1324 28.4474 39.1821C27.526 40.2318 26.5346 40.7566 25.4733 40.7566C24.8901 40.7566 24.3594 40.535 23.8813 40.0918C23.4031 39.6486 23.1581 38.9313 23.1465 37.9399V37.7825C23.1465 37.5376 23.1931 37.1993 23.2864 36.7678C23.3797 36.3363 23.6655 35.1874 24.1437 33.3214C24.7268 31.0237 25.0184 29.8049 25.0184 29.665C25.0184 29.525 24.7968 29.4434 24.3536 29.42C24.2953 29.42 24.2486 29.42 24.2137 29.42H24.1262C24.0096 29.42 23.9337 29.42 23.8988 29.42C23.8638 29.42 23.8229 29.4025 23.7763 29.3676C23.7296 29.3326 23.7121 29.2917 23.7238 29.2451ZM28.3249 34.8784V34.7734C28.3249 33.9103 27.9692 33.4788 27.2577 33.4788C27.0595 33.4788 26.8554 33.5255 26.6454 33.6188C26.4355 33.7121 26.243 33.8345 26.0681 33.9861C25.8931 34.1378 25.7415 34.2777 25.6132 34.406C25.4849 34.5343 25.38 34.6626 25.2983 34.7909L25.1934 34.9309L24.826 36.4354C24.5694 37.4384 24.4411 38.1499 24.4411 38.5698C24.4411 39.1296 24.581 39.5495 24.861 39.8294C25.0476 40.016 25.2808 40.1093 25.5608 40.1093C25.9456 40.1093 26.3363 39.9227 26.7329 39.5495C27.0245 39.2812 27.2577 38.9546 27.4327 38.5698C27.6076 38.1849 27.8001 37.5726 28.01 36.7328C28.2199 35.8931 28.3249 35.2749 28.3249 34.8784Z" fill="black"/>
<rect x="21.0501" y="7.8499" width="15.3" height="15.3" rx="1.35" fill="#D9E8FF"/>
<rect x="21.0501" y="7.8499" width="15.3" height="15.3" rx="1.35" stroke="#78AEFF" stroke-width="0.9" stroke-dasharray="1.8 1.8"/>
<rect x="21.0501" y="27.65" width="15.3" height="15.3" rx="1.35" fill="#D9E8FF"/>
<rect x="21.0501" y="27.65" width="15.3" height="15.3" rx="1.35" stroke="#78AEFF" stroke-width="0.9" stroke-dasharray="1.8 1.8"/>
</svg>
