<svg width="45" height="45" viewBox="0 0 45 45" fill="none" xmlns="http://www.w3.org/2000/svg">
<rect x="12.7749" y="17.025" width="19.25" height="19.25" rx="1.155" fill="#F4F8FF"/>
<rect x="12.7749" y="17.025" width="19.25" height="19.25" rx="1.155" stroke="#1E78FF" stroke-width="0.77" stroke-dasharray="1.54 1.54"/>
<path d="M12.3088 13.7774C12.3088 13.6563 12.4375 13.4066 12.6948 13.0282C12.9521 12.6499 13.3531 12.1958 13.898 11.6661C14.4428 11.1364 15.0785 10.6142 15.805 10.0997C16.5314 9.58509 17.4395 9.15375 18.5292 8.80565C19.6189 8.45755 20.7464 8.24567 21.9118 8.16999H23.0015C24.8631 8.24567 26.6717 8.76781 28.4273 9.73643C29.1689 10.1602 29.8727 10.6824 30.5386 11.3029C31.2045 11.9234 31.6964 12.4607 32.0142 12.9147C32.3321 13.3688 32.491 13.6563 32.491 13.7774C32.491 13.8985 32.4456 13.9969 32.3548 14.0725C32.2639 14.1482 32.158 14.1936 32.0369 14.2087C31.8856 14.1785 31.7948 14.1558 31.7645 14.1406C31.7342 14.1255 31.6586 14.0196 31.5375 13.8228C29.4792 10.9623 26.4371 9.53212 22.4113 9.53212C21.1248 9.53212 19.9292 9.68346 18.8243 9.98616C17.7195 10.2889 16.8341 10.6672 16.1682 11.1213C15.5023 11.5753 14.9347 12.0218 14.4655 12.4607C13.9964 12.8996 13.6331 13.2855 13.3758 13.6185C13.1185 13.9515 12.9823 14.1331 12.9672 14.1633C12.9218 14.1936 12.8537 14.2087 12.7629 14.2087C12.4602 14.1331 12.3088 13.9893 12.3088 13.7774Z" fill="#232426"/>
</svg>
