<svg width="40" height="40" viewBox="0 0 40 40" fill="none" xmlns="http://www.w3.org/2000/svg">
<rect x="11.2501" y="14.75" width="17.5" height="17.5" rx="1.05" fill="#F4F8FF"/>
<rect x="11.2501" y="14.75" width="17.5" height="17.5" rx="1.05" stroke="#1E78FF" stroke-width="0.7" stroke-dasharray="1.4 1.4"/>
<path d="M10.2 9.32306C10.2 9.32306 10.2 9.38207 10.2 9.50007C10.2 9.61808 10.3103 9.72536 10.5308 9.82191H27.3749C27.3455 9.84337 27.2205 9.91846 27 10.0472C26.7796 10.1759 26.5665 10.3208 26.3607 10.4817C26.1549 10.6426 25.9124 10.8411 25.6331 11.0771C25.3539 11.3131 25.1113 11.6135 24.9056 11.9782C24.6998 12.343 24.5087 12.7238 24.3323 13.1208C24.2588 13.3139 24.2221 13.448 24.2221 13.5231C24.2221 13.6411 24.3691 13.7001 24.663 13.7001C24.7659 13.7001 24.8394 13.7001 24.8835 13.7001C24.9276 13.7001 24.9717 13.6786 25.0158 13.6357C25.0599 13.5928 25.0966 13.5445 25.126 13.4909C25.1554 13.4372 25.1848 13.3353 25.2142 13.1851C25.4788 12.402 25.9785 11.7047 26.7134 11.0932C27.4483 10.4817 28.3449 10.0257 29.4032 9.72536C29.6237 9.66099 29.756 9.60199 29.8 9.54835C29.8 9.47325 29.7707 9.41961 29.7119 9.38743C29.6531 9.35525 29.5502 9.3177 29.4032 9.27479C28.6977 9.07095 28.073 8.80276 27.5292 8.47019C26.9854 8.13762 26.5665 7.81042 26.2725 7.48858C25.9785 7.16674 25.7434 6.85027 25.567 6.53915C25.3906 6.22804 25.2657 5.9813 25.1922 5.79892L25.126 5.52536C25.0966 5.46099 25.0746 5.41808 25.0599 5.39662C25.0452 5.37517 25.0084 5.35371 24.9497 5.33226C24.8909 5.3108 24.7953 5.30007 24.663 5.30007C24.3691 5.30007 24.2221 5.35908 24.2221 5.47709C24.2221 5.55218 24.2588 5.68628 24.3323 5.87938C24.4793 6.27632 24.663 6.64643 24.8835 6.98973C25.104 7.33302 25.3392 7.62268 25.589 7.85869C25.8389 8.09471 26.0667 8.29318 26.2725 8.4541C26.4783 8.61502 26.6987 8.76521 26.9339 8.90467C27.1691 9.04413 27.3161 9.13532 27.3749 9.17823H10.5308C10.3103 9.27479 10.2 9.38207 10.2 9.50007V9.32306Z" fill="#232426"/>
</svg>
