<svg width="40" height="40" viewBox="0 0 40 40" fill="none" xmlns="http://www.w3.org/2000/svg">
<path d="M10.0061 21.0425C10.0061 18.5948 10.8287 16.5885 12.4739 15.0236C14.119 13.4587 16.0651 12.5659 18.3122 12.3452C18.3323 12.3452 18.4326 12.3452 18.6132 12.3452C18.7937 12.3452 19.0445 12.3452 19.3655 12.3452C19.6865 12.3452 20.0376 12.3352 20.4188 12.3151C20.8 12.295 21.2514 12.295 21.7731 12.3151C22.2947 12.3352 22.7863 12.3352 23.2477 12.3151H27.9124C28.2133 12.4756 28.3638 12.6762 28.3638 12.917C28.3638 13.0976 28.2334 13.2882 27.9726 13.4888L23.1875 13.5189H21.6226H20.7499C19.2451 13.5189 18.2119 13.559 17.6501 13.6393C17.0884 13.7195 16.3661 13.9603 15.4833 14.3615C15.0419 14.5822 14.6206 14.843 14.2193 15.144C13.8181 15.4449 13.3667 15.8663 12.8651 16.408C12.3635 16.9497 11.9623 17.6218 11.6613 18.4243C11.3604 19.2268 11.2099 20.0996 11.2099 21.0425V21.193C11.2099 22.9585 11.8218 24.5235 13.0457 25.8878C14.2294 27.1718 15.6639 27.9944 17.3492 28.3555C17.7504 28.4558 18.1316 28.506 18.4928 28.506C18.8539 28.506 20.4188 28.526 23.1875 28.5662H27.9726C28.2334 28.7668 28.3638 28.9674 28.3638 29.1681C28.3638 29.4088 28.2133 29.6094 27.9124 29.77H23.3079C22.9869 29.77 22.5254 29.77 21.9236 29.77C21.3217 29.77 20.8602 29.78 20.5392 29.8C18.8539 29.8 17.3993 29.6395 16.1755 29.3185C14.9516 28.9975 13.778 28.2953 12.6544 27.2119C10.8889 25.5667 10.0061 23.5103 10.0061 21.0425Z" fill="#232426"/>
</svg>
