<svg width="45" height="45" viewBox="0 0 45 45" fill="none" xmlns="http://www.w3.org/2000/svg">
<path d="M16.2734 30.9563C15.4543 30.9563 15.0448 30.5588 15.0448 29.7638V29.3663L15.5146 28.3544C17.3214 24.548 18.6344 21.2595 19.4535 18.489L19.7426 17.6217H18.5862C17.6707 17.6217 17.0203 17.6578 16.6348 17.7301C16.2494 17.8024 15.7796 18.0312 15.2255 18.4167C14.9605 18.5853 14.6955 18.8022 14.4304 19.0672C14.1654 19.3322 13.9366 19.5851 13.7438 19.826C13.5511 20.067 13.4427 20.2115 13.4186 20.2597C13.3704 20.2838 13.1897 20.2958 12.8765 20.2958C12.4188 20.2958 12.1899 20.1754 12.1899 19.9345C12.1899 19.7899 12.4188 19.3683 12.8765 18.6697C13.3343 17.971 13.9968 17.2242 14.8641 16.4291C15.7314 15.6341 16.5866 15.1764 17.4298 15.0559C17.5985 15.0078 20.3088 14.9837 25.5607 14.9837C29.4153 14.9837 31.3908 14.9957 31.4872 15.0198C31.969 15.1884 32.2099 15.5257 32.2099 16.0316C32.2099 16.7785 31.8245 17.2844 31.0536 17.5494C30.909 17.5976 30.0778 17.6217 28.5601 17.6217H26.2473L26.1389 18.236C25.8498 19.9706 25.7052 21.404 25.7052 22.5363C25.7052 23.7891 25.8137 24.9093 26.0305 25.8971C26.2473 26.8848 26.4762 27.6558 26.7171 28.2099C26.958 28.764 27.0785 29.1013 27.0785 29.2217C27.0785 29.6313 26.9098 30.0167 26.5725 30.3781C26.2353 30.7395 25.8016 30.9202 25.2716 30.9202C25.0066 30.9202 24.7898 30.884 24.6211 30.8118C24.4525 30.7395 24.2598 30.4504 24.0429 29.9445C23.8261 29.4385 23.6334 28.7158 23.4647 27.7762C23.4407 27.5594 23.4286 27.0294 23.4286 26.1862C23.4286 25.0057 23.537 23.7409 23.7538 22.3918C23.9707 21.0427 24.1875 19.9345 24.4043 19.0672C24.6211 18.1999 24.7416 17.718 24.7657 17.6217H21.2242L21.1881 17.7662C21.1881 17.8385 20.9592 18.7901 20.5015 20.6211C20.0438 22.452 19.5258 24.3914 18.9476 26.4392C18.3694 28.4869 17.996 29.6554 17.8273 29.9445C17.5623 30.619 17.0444 30.9563 16.2734 30.9563Z" fill="#232426"/>
</svg>
