<svg width="45" height="45" viewBox="0 0 45 45" fill="none" xmlns="http://www.w3.org/2000/svg">
<!-- <rect x="0.985098" y="0.584951" width="43.23" height="43.23" rx="1.155" fill="#D9E8FF"/> -->
<!-- <rect x="0.985098" y="0.584951" width="43.23" height="43.23" rx="1.155" stroke="#D0D3D9" stroke-width="0.77"/> -->
<path d="M14.6345 31.1394C13.449 31.1394 12.5845 30.7195 12.0411 29.8797C11.4977 29.0399 11.226 27.9778 11.226 26.6935C11.226 23.6554 12.2757 20.7038 14.3752 17.8386L14.5975 17.5052H13.8195C12.8315 17.5052 12.0534 17.641 11.4853 17.9127C11.1642 18.0856 10.8432 18.2956 10.5221 18.5426C10.201 18.7896 9.95397 19.0119 9.78107 19.2095C9.60817 19.4071 9.43527 19.617 9.26238 19.8393C9.08948 20.0616 8.99068 20.1851 8.96598 20.2098C8.91658 20.2345 8.73133 20.2469 8.41024 20.2469C7.94095 20.2469 7.7063 20.1234 7.7063 19.8764C7.7063 19.7282 7.94095 19.2959 8.41024 18.5796C8.87953 17.8633 9.55877 17.0977 10.448 16.2826C11.3371 15.4675 12.214 14.9982 13.0785 14.8747C13.2514 14.8253 17.7961 14.8006 26.7127 14.8006C33.3075 14.8006 36.6543 14.8129 36.7531 14.8376C37.2471 15.0105 37.4941 15.3563 37.4941 15.875C37.4941 16.4925 37.2224 16.9618 36.679 17.2829C36.4073 17.4311 35.975 17.5052 35.3822 17.5052C34.9377 17.5052 34.7154 17.5176 34.7154 17.5423C34.7154 17.5917 34.7277 17.7028 34.7524 17.8757C34.7771 18.0486 34.8142 18.3079 34.8636 18.6537C34.913 18.9995 34.9377 19.37 34.9377 19.7652C34.9377 20.7285 34.7401 21.84 34.3449 23.0997C33.9497 24.3594 33.3939 25.5943 32.6776 26.8046C31.9613 28.0149 31.0351 29.0399 29.8989 29.8797C28.7627 30.7195 27.5525 31.1394 26.2681 31.1394C25.4777 31.1394 24.8108 30.9912 24.2674 30.6948C23.724 30.3984 23.3041 29.9785 23.0077 29.4351C22.7113 28.8917 22.5137 28.3854 22.4149 27.9161C22.3161 27.4468 22.2544 26.9158 22.2297 26.323C22.2297 26.1254 22.2173 26.0266 22.1926 26.0266C22.1679 26.0266 22.0938 26.1007 21.9703 26.2489C21.2047 27.5086 20.2043 28.6324 18.9693 29.6204C17.7344 30.6084 16.2894 31.1147 14.6345 31.1394ZM33.4557 19.8023C33.4557 19.3083 33.3692 18.5426 33.1963 17.5052H16.3018C16.2771 17.5299 16.1906 17.6534 16.0424 17.8757C15.8942 18.098 15.7213 18.345 15.5237 18.6167C15.3261 18.8884 15.1038 19.2218 14.8568 19.617C14.6098 20.0122 14.3752 20.4321 14.1529 20.8767C13.9306 21.3213 13.7207 21.7906 13.5231 22.2846C13.3255 22.7786 13.1773 23.2973 13.0785 23.8407C12.9797 24.3841 12.9179 24.9151 12.8932 25.4338C12.8932 27.4592 13.6713 28.4718 15.2273 28.4718C16.9069 28.4718 18.4753 27.6691 19.9326 26.0636C21.3899 24.4582 22.4149 22.5069 23.0077 20.2098C23.0324 20.1851 23.0571 20.1481 23.0818 20.0987C23.1065 20.0493 23.1189 20.0122 23.1189 19.9875C23.1189 19.9628 23.1436 19.9381 23.193 19.9134C23.2424 19.8887 23.2794 19.8764 23.3041 19.8764C23.3288 19.8764 23.3782 19.8764 23.4523 19.8764C23.5264 19.8764 23.6252 19.8764 23.7487 19.8764H24.2674C24.4156 20.0246 24.4897 20.1234 24.4897 20.1728C24.4897 20.1975 24.3909 20.7162 24.1933 21.7288C23.9957 22.7415 23.8969 23.6554 23.8969 24.4705C23.8969 27.1381 24.8602 28.4718 26.7868 28.4718C28.5157 28.4718 30.0595 27.5209 31.418 25.619C32.7764 23.7172 33.4557 21.7782 33.4557 19.8023Z" fill="#232426"/>
</svg>
