<svg width="40" height="40" viewBox="0 0 40 40" fill="none" xmlns="http://www.w3.org/2000/svg">
<path d="M17.2 26.2785C17.2 25.5395 17.4735 24.8917 18.0205 24.3351C18.5676 23.7784 19.225 23.5001 19.9928 23.5001C20.7605 23.5001 21.4179 23.7688 21.965 24.3063C22.512 24.8437 22.7904 25.5107 22.8 26.3073C22.8 27.0559 22.5312 27.7085 21.9938 28.2651C21.4563 28.8218 20.7941 29.1001 20.0071 29.1001C19.2394 29.1001 18.582 28.8266 18.0349 28.2795C17.4879 27.7325 17.2095 27.0655 17.2 26.2785ZM19.9352 24.0903C19.3881 24.0903 18.8939 24.2919 18.4524 24.695C18.0109 25.098 17.7902 25.6307 17.7902 26.2929C17.7902 26.9359 18.0061 27.4638 18.438 27.8764C18.8699 28.2891 19.3929 28.5003 20.0071 28.5099C20.3335 28.5099 20.6358 28.4475 20.9141 28.3227C21.1924 28.198 21.3892 28.0732 21.5043 27.9484C21.6195 27.8237 21.7203 27.7037 21.8066 27.5885C22.0754 27.2334 22.2097 26.8016 22.2097 26.2929C22.2097 25.6883 22.0034 25.17 21.5907 24.7381C21.178 24.3063 20.6262 24.0903 19.9352 24.0903Z" fill="#232426"/>
</svg>
