<svg width="45" height="45" viewBox="0 0 45 45" fill="none" xmlns="http://www.w3.org/2000/svg">
<path d="M14.2208 36.6375C14.0991 36.5158 14.0383 36.4347 14.0383 36.3942C14.0383 36.3334 14.839 33.0901 16.4404 26.6643C18.0418 20.2385 18.8932 16.8837 18.9945 16.5999C19.4405 15.2215 20.0182 14.0154 20.7277 12.9816C21.4371 11.9478 22.1061 11.1978 22.7344 10.7315C23.8696 9.77881 25.0858 9.30245 26.3832 9.30245H26.444C27.7008 9.30245 28.7346 9.68759 29.5454 10.4579C30.3562 11.2282 30.7616 12.2113 30.7616 13.4073C30.7616 15.5357 29.7076 17.2992 27.5994 18.6979L27.9947 19.0932C29.0285 20.127 29.5454 21.4547 29.5454 23.0764C29.5454 25.367 28.6839 27.2623 26.9609 28.7623C25.2379 30.2623 23.302 31.0225 21.1533 31.0427C20.5452 31.0427 19.9979 30.9617 19.5114 30.7995C19.0249 30.6373 18.6398 30.4448 18.356 30.2218C18.0722 29.9988 17.8492 29.7657 17.6871 29.5224C17.5249 29.2792 17.4033 29.0866 17.3222 28.9447C17.2411 28.8028 17.1904 28.742 17.1701 28.7623L15.2242 36.455C15.1836 36.5766 14.9809 36.6375 14.616 36.6375H14.2208ZM24.0723 17.6337C24.8629 17.6337 25.6129 17.7553 26.3224 17.9986L26.4744 17.9074C26.5555 17.8263 26.6264 17.7553 26.6872 17.6945C26.748 17.6337 26.8494 17.5323 26.9913 17.3904C27.1332 17.2486 27.2548 17.1067 27.3562 16.9648C27.4575 16.8229 27.569 16.6404 27.6906 16.4175C27.8123 16.1945 27.9339 15.9512 28.0555 15.6877C28.1771 15.4242 28.2683 15.1303 28.3292 14.8059C28.39 14.4816 28.471 14.1167 28.5724 13.7113C28.6129 13.5289 28.6332 13.1944 28.6332 12.7079C28.6332 12.3431 28.6231 12.1099 28.6028 12.0086C28.2987 10.9748 27.5285 10.4579 26.292 10.4579C25.4406 10.4579 24.6399 10.7011 23.8899 11.1876C23.1399 11.6741 22.5216 12.2924 22.0351 13.0424C21.5486 13.7924 21.1533 14.4816 20.8493 15.11C20.5452 15.7384 20.3121 16.3364 20.1499 16.904C20.0486 17.2283 19.6634 18.7182 18.9945 21.3736C18.3256 24.0291 17.981 25.448 17.9607 25.6305C17.9404 25.7318 17.9303 25.9447 17.9303 26.269C17.9303 27.242 18.1533 28.0427 18.5992 28.6711C19.2276 29.5224 20.1094 29.9481 21.2446 29.9481C22.0959 29.9481 22.998 29.6947 23.9507 29.188C24.9034 28.6812 25.6737 27.8096 26.2615 26.5731C26.5859 25.8839 26.8291 25.1034 26.9913 24.2318C27.1535 23.3602 27.2345 22.7014 27.2345 22.2554C27.2345 21.0797 26.8798 20.1371 26.1703 19.4277C25.319 19.7114 24.5588 19.8533 23.8899 19.8533H23.5858C21.9844 19.8533 21.1837 19.5391 21.1837 18.9107C21.1837 18.7689 21.2141 18.627 21.275 18.4851C21.5587 17.9175 22.4912 17.6337 24.0723 17.6337Z" fill="#232426"/>
</svg>
