<svg width="40" height="40" viewBox="0 0 40 40" fill="none" xmlns="http://www.w3.org/2000/svg">
<path d="M15.0191 25.43C15.0191 26.1244 14.5263 26.7292 13.6303 26.7292C12.7343 26.7292 12.3087 26.1692 12.3087 25.4076C12.3087 24.646 12.8239 23.9964 13.6527 23.9964C14.5263 23.9964 15.0191 24.6684 15.0191 25.43ZM21.3583 25.43C21.3583 26.1244 20.8655 26.7292 19.9695 26.7292C19.0735 26.7292 18.6479 26.1692 18.6479 25.4076C18.6479 24.646 19.1631 23.9964 19.9919 23.9964C20.8655 23.9964 21.3583 24.6684 21.3583 25.43ZM27.6975 25.43C27.6975 26.1244 27.2047 26.7292 26.3087 26.7292C25.4127 26.7292 24.9871 26.1692 24.9871 25.4076C24.9871 24.646 25.5023 23.9964 26.3311 23.9964C27.2047 23.9964 27.6975 24.6684 27.6975 25.43Z" fill="#232426"/>
</svg>
