<svg width="40" height="40" viewBox="0 0 40 40" fill="none" xmlns="http://www.w3.org/2000/svg">
<path d="M10.6423 21.0425C10.6423 18.5948 11.4649 16.5885 13.1101 15.0236C14.7553 13.4587 16.7014 12.5659 18.9484 12.3452C18.9685 12.3452 19.139 12.3452 19.46 12.3452C19.7811 12.3452 20.2024 12.3352 20.724 12.3151C21.2457 12.295 21.7472 12.295 22.2287 12.3151H25.2081C25.5091 12.4756 25.6595 12.6762 25.6595 12.917C25.6595 13.0976 25.5291 13.2882 25.2683 13.4888L22.1385 13.5189C19.9115 13.5389 18.5371 13.5991 18.0155 13.6994C17.0324 13.9402 16.1597 14.3013 15.3973 14.7829C14.6349 15.2644 14.043 15.7559 13.6217 16.2575C13.2004 16.7591 12.8392 17.3108 12.5383 17.9127C12.2373 18.5146 12.0568 18.9961 11.9966 19.3572C11.9364 19.7184 11.8862 20.0594 11.8461 20.3804V20.4406H25.2081C25.5091 20.6011 25.6595 20.8018 25.6595 21.0425C25.6595 21.2833 25.5091 21.4839 25.2081 21.6444H11.8461V21.7046C11.8461 22.1259 11.9464 22.6375 12.1471 23.2394C12.3477 23.8413 12.6787 24.4934 13.1402 25.1956C13.6016 25.8978 14.2437 26.5398 15.0662 27.1216C15.8888 27.7035 16.8619 28.1148 17.9854 28.3555C18.5271 28.4759 19.9115 28.5461 22.1385 28.5662H25.2683C25.5291 28.7668 25.6595 28.9674 25.6595 29.1681C25.6595 29.4088 25.5091 29.6094 25.2081 29.77H22.2889C22.1485 29.77 21.8977 29.77 21.5366 29.77C21.1754 29.77 20.8845 29.78 20.6638 29.8C17.5541 29.8 15.0963 28.9373 13.2907 27.2119C11.5251 25.5667 10.6423 23.5103 10.6423 21.0425Z" fill="#232426"/>
</svg>
