<svg width="69" height="20" viewBox="0 0 69 20" fill="none" xmlns="http://www.w3.org/2000/svg">
<rect width="69" height="20" rx="10" fill="#FFD266"/>
<circle cx="10.5" cy="10" r="7.5" fill="white"/>
<path d="M28.72 7.692H31.31V3.646H32.836V16.148H31.31V8.938H28.72V7.692ZM22.35 12.34C24.352 11.388 25.486 8.98 25.486 6.642V4.668H27.026V6.642C27.026 8.952 28.104 11.234 30.078 12.13L29.168 13.362C27.782 12.676 26.802 11.36 26.256 9.75C25.71 11.458 24.702 12.858 23.302 13.572L22.35 12.34ZM39.5423 3.73H41.1243V4.066C41.1243 5.382 42.8043 6.614 45.3803 6.88L44.8763 8.042C42.7903 7.79 41.1383 6.964 40.3403 5.76C39.5423 6.964 37.8903 7.79 35.7903 8.042L35.2863 6.88C37.8763 6.614 39.5423 5.382 39.5423 4.066V3.73ZM34.7123 9.89V8.658H45.9683V9.89H41.0963V10.856H44.5683V13.936H37.5543V14.86H44.9183V16.022H36.0563V12.858H43.0563V12.004H36.0143V10.856H39.5563V9.89H34.7123ZM53.9627 6.502H55.7407V3.66H57.2807V11.654H55.7407V10.198H53.9347V8.966H55.7407V7.72H53.9627V6.502ZM46.9627 6.096V4.892H49.7067V3.562H51.2607V4.892H53.8647V6.096H46.9627ZM47.5927 8.924C47.5927 7.552 48.7827 6.614 50.4627 6.614C52.1707 6.614 53.3467 7.552 53.3467 8.924C53.3467 10.324 52.1707 11.262 50.4627 11.262C48.7827 11.262 47.5927 10.324 47.5927 8.924ZM48.9087 13.95C48.9087 12.592 50.5187 11.794 53.1227 11.794C55.7267 11.794 57.3507 12.592 57.3507 13.95C57.3507 15.322 55.7267 16.12 53.1227 16.12C50.5187 16.12 48.9087 15.322 48.9087 13.95ZM49.0347 8.924C49.0347 9.666 49.6087 10.1 50.4627 10.1C51.3307 10.1 51.9187 9.666 51.9187 8.924C51.9187 8.196 51.3307 7.776 50.4627 7.776C49.6087 7.776 49.0347 8.196 49.0347 8.924ZM50.5187 13.95C50.5187 14.608 51.4707 14.944 53.1227 14.944C54.7747 14.944 55.7267 14.608 55.7267 13.95C55.7267 13.292 54.7747 12.97 53.1227 12.97C51.4707 12.97 50.5187 13.292 50.5187 13.95Z" fill="black"/>
</svg>
