<svg width="49" height="20" viewBox="0 0 49 20" fill="none" xmlns="http://www.w3.org/2000/svg">
<g clip-path="url(#clip0_4276_560)">
<path d="M10.0097 20C15.5337 20 19.9999 15.5142 19.9999 10.0098C19.9999 4.50539 15.5337 0 10.0097 0C4.48574 0 0.0195312 4.46621 0.0195312 9.99021C0.0195312 15.5142 4.48574 19.9804 10.0097 19.9804" fill="#A6B06F"/>
<path d="M3.48577 5.97452L4.24972 6.40547M15.7894 6.40547L16.5533 5.97452M15.7894 9.91184L16.5533 10.3428M3.48577 10.3624L4.24972 9.93143M3.09399 8.16845H3.97548M16.0636 8.16845H16.9451M8.59938 15.7001H11.4397M11.1067 17.0627H8.9128C8.67774 17.0627 8.48185 16.8668 8.48185 16.6317V14.3193H11.5573V16.6317C11.5573 16.8668 11.3614 17.0627 11.1263 17.0627H11.1067ZM13.9667 8.16845C13.9667 5.8374 11.949 3.99607 9.57881 4.25072C7.75707 4.44661 6.28792 5.93534 6.11162 7.7375C6.01368 8.61899 6.20957 9.44171 6.62093 10.1469C7.24776 11.2243 7.83542 12.4192 7.83542 13.6533V13.8687C7.83542 14.1038 8.03131 14.2997 8.26637 14.2997H11.7727C12.0078 14.2997 12.2037 14.1038 12.2037 13.8687V13.6533C12.2037 12.4192 12.7718 11.2243 13.3986 10.1861C13.7512 9.59842 13.9471 8.91282 13.9471 8.18804L13.9667 8.16845Z" stroke="white" stroke-linecap="round" stroke-linejoin="round"/>
<path d="M9.9117 12.7718C9.7354 12.7718 9.5787 12.713 9.44157 12.5955C9.30445 12.478 9.24569 12.3213 9.24569 12.1058C9.24569 11.9295 9.30445 11.7728 9.44157 11.6357C9.5787 11.5181 9.71582 11.4398 9.9117 11.4398C10.1076 11.4398 10.2447 11.4985 10.3818 11.6357C10.4994 11.7728 10.5777 11.9099 10.5777 12.1058C10.5777 12.3017 10.5189 12.478 10.3818 12.5955C10.2447 12.713 10.1076 12.7718 9.93129 12.7718M8.05078 7.54163C8.05078 7.26739 8.12914 6.99315 8.28584 6.71891C8.44255 6.44467 8.67762 6.2096 8.99104 6.0333C9.30445 5.85701 9.65705 5.75906 10.0684 5.75906C10.4406 5.75906 10.7932 5.83742 11.087 5.99413C11.3809 6.15084 11.5963 6.34672 11.7726 6.62096C11.9293 6.87562 12.0077 7.16945 12.0077 7.48286C12.0077 7.71793 11.9685 7.9334 11.8706 8.12929C11.7726 8.30559 11.6747 8.4623 11.5376 8.59942C11.42 8.73654 11.185 8.95201 10.8715 9.26543C10.7736 9.36337 10.7148 9.44173 10.6561 9.50049C10.5973 9.55926 10.5581 9.63761 10.5385 9.67679C10.5189 9.73556 10.4994 9.79432 10.4798 9.85309C10.4798 9.91186 10.4406 10.0098 10.421 10.1469C10.3818 10.4407 10.2251 10.5975 9.95088 10.5975C9.81376 10.5975 9.69623 10.5387 9.59828 10.4603C9.50034 10.3624 9.46116 10.2253 9.46116 10.0294C9.46116 9.79432 9.50034 9.57885 9.55911 9.40255C9.63746 9.22625 9.71582 9.06954 9.83335 8.93242C9.95088 8.7953 10.1076 8.63859 10.2839 8.4623C10.4602 8.30559 10.5777 8.18805 10.6561 8.1097C10.7344 8.03135 10.7932 7.9334 10.852 7.83546C10.9107 7.73752 10.9303 7.61998 10.9303 7.50245C10.9303 7.26739 10.852 7.0715 10.6952 6.91479C10.5385 6.75808 10.3427 6.67973 10.088 6.67973C9.79417 6.67973 9.5787 6.75808 9.44157 6.91479C9.30445 7.0715 9.18692 7.30657 9.08898 7.61998C8.99104 7.9334 8.83433 8.1097 8.57967 8.1097C8.42297 8.1097 8.30543 8.05093 8.20749 7.9334C8.10955 7.81587 8.05078 7.69834 8.05078 7.56122" fill="white"/>
</g>
<path d="M24.476 11.15H35.746V12.41H30.874V16.148H29.32V12.41H24.476V11.15ZM25.106 9.19C27.57 8.882 29.152 7.622 29.306 6.362H25.512V5.13H29.32V3.688H30.874V5.13H34.696V6.362H30.888C31.042 7.594 32.638 8.882 35.088 9.19L34.542 10.394C32.484 10.142 30.902 9.232 30.104 8.028C29.306 9.246 27.71 10.128 25.638 10.394L25.106 9.19ZM36.7123 10.646H41.5703V9.54H38.1403V6.208H45.0703V5.158H38.1123V3.982H46.5823V7.314H39.6383V8.378H46.8483V9.54H43.1103V10.646H47.9963V11.878H36.7123V10.646ZM38.1543 16.134V12.592H39.6943V14.902H46.8763V16.134H38.1543Z" fill="#6A6D73"/>
<defs>
<clipPath id="clip0_4276_560">
<rect width="19.9804" height="20" fill="white" transform="translate(0.0195312)"/>
</clipPath>
</defs>
</svg>
