<svg width="73" height="20" viewBox="0 0 73 20" fill="none" xmlns="http://www.w3.org/2000/svg">
<g clip-path="url(#clip0_5889_6499)">
<path d="M9.99021 20C15.5142 20 19.9804 15.5142 19.9804 10.0098C19.9804 4.50539 15.5142 0 9.99021 0C4.46621 0 0 4.46621 0 9.99021C0 15.5142 4.46621 19.9804 9.99021 19.9804" fill="#A87E6C"/>
<path d="M12.497 12.615C12.2112 12.615 11.9789 12.3828 11.9789 12.097C11.9789 11.8112 12.2112 11.5789 12.497 11.5789C12.7828 11.5789 13.0151 11.8112 13.0151 12.097C13.0151 12.3828 12.7828 12.615 12.497 12.615ZM12.497 10.95C11.8621 10.95 11.35 11.4621 11.35 12.097C11.35 12.7318 11.8621 13.2439 12.497 13.2439C13.1319 13.2439 13.644 12.7318 13.644 12.097C13.644 11.4621 13.1319 10.95 12.497 10.95Z" fill="white" stroke="white" stroke-width="0.1"/>
<path d="M12.5015 14.715C11.5024 14.715 10.6014 14.1273 10.19 13.2067L10.1117 13.05H7.72184C7.25171 13.05 6.87953 12.6778 6.87953 12.2076C6.87953 11.7375 7.25171 11.3653 7.72184 11.3653H10.1117L10.19 11.2086C10.5818 10.288 11.4829 9.70029 12.5015 9.70029C13.8923 9.70029 15.0088 10.8364 15.0088 12.2076C15.0088 13.5788 13.8727 14.715 12.5015 14.715ZM8.76004 15.9295L8.52498 13.716C8.52498 13.716 8.6621 13.6376 8.72086 13.5788H9.77865C9.95495 13.9314 10.19 14.2253 10.4838 14.4799C10.1117 15.1459 9.50441 15.6748 8.76004 15.9295ZM4.52889 12.9324V8.77963H10.8952V9.62194C10.4251 9.91577 10.0333 10.3271 9.77865 10.8364H8.70127C8.42703 10.6405 8.09403 10.523 7.72184 10.523C6.78159 10.523 6.01763 11.287 6.01763 12.2272C6.01763 12.8737 6.37023 13.4417 6.91871 13.716L6.68364 15.9491C5.42997 15.5181 4.5093 14.3428 4.5093 12.952L4.52889 12.9324ZM12.5015 9.15181C12.1293 9.15181 11.7571 9.23017 11.4241 9.3477V8.23115H10.6014V5.84035C10.6014 4.76298 11.4829 3.88149 12.5602 3.88149C13.6376 3.88149 14.5191 4.76298 14.5191 5.84035V7.34966C14.5191 7.58472 14.715 7.78061 14.9501 7.78061C15.1851 7.78061 15.381 7.58472 15.381 7.34966V5.84035C15.381 4.27326 14.1077 3 12.5406 3C10.9736 3 9.71988 4.27326 9.71988 5.84035V8.23115H4V12.9128C4 14.95 5.66504 16.6151 7.72184 16.6151C9.09305 16.6151 10.2684 15.8707 10.9148 14.7542C11.3849 15.048 11.9334 15.2047 12.5211 15.2047C14.1861 15.2047 15.5573 13.8335 15.5573 12.1685C15.5573 10.5034 14.1861 9.13222 12.5211 9.13222L12.5015 9.15181Z" fill="white" stroke="white" stroke-width="0.5" stroke-miterlimit="10"/>
</g>
<path d="M31.1485 6.768H33.2625V3.674H34.8025V11.066H33.2625V8.014H31.1485V6.768ZM24.4285 9.82C26.3885 9.134 27.4385 7.468 27.4385 5.788V5.718H24.8485V4.486H31.5405V5.718H28.9925V5.788C28.9925 7.314 29.9725 8.84 31.8905 9.498L31.1205 10.702C29.7485 10.226 28.7825 9.288 28.2505 8.112C27.7045 9.442 26.6825 10.52 25.1985 11.038L24.4285 9.82ZM26.4025 13.768C26.4025 12.284 28.0125 11.388 30.6305 11.388C33.2345 11.388 34.8445 12.284 34.8445 13.768C34.8445 15.266 33.2345 16.134 30.6305 16.134C28.0125 16.134 26.4025 15.266 26.4025 13.768ZM27.9425 13.768C27.9425 14.538 28.9085 14.958 30.6305 14.958C32.3385 14.958 33.3185 14.538 33.3185 13.768C33.3185 12.984 32.3385 12.564 30.6305 12.564C28.9085 12.564 27.9425 12.984 27.9425 13.768ZM36.6928 13.362H41.5508V10.926H37.9388V4.486H39.4648V6.516H45.1768V4.486H46.7028V10.926H43.0768V13.362H47.9768V14.622H36.6928V13.362ZM39.4648 9.694H45.1768V7.734H39.4648V9.694ZM57.7631 3.646H59.2891V16.148H57.7631V9.778H55.3551V8.532H57.7631V3.646ZM48.8731 12.606C50.8191 11.696 51.8971 9.582 51.8971 7.608V6.964H49.2651V5.746H51.8971V3.926H53.4371V5.746H56.0271V6.964H53.4371V7.608C53.4371 9.498 54.5431 11.514 56.4751 12.396L55.6631 13.558C54.2631 12.956 53.2411 11.71 52.6811 10.226C52.1491 11.808 51.1131 13.124 49.7131 13.782L48.8731 12.606ZM69.9295 3.646H71.4695V16.148H69.9295V3.646ZM61.8235 5.998V4.766H67.6615V9.442H63.4055V11.934C65.3515 11.92 67.0315 11.836 68.9495 11.514L69.1035 12.76C66.9895 13.124 65.1415 13.194 62.9295 13.194H61.8515V8.21H66.1075V5.998H61.8235Z" fill="#6A6D73"/>
<defs>
<clipPath id="clip0_5889_6499">
<rect width="19.9804" height="20" fill="white"/>
</clipPath>
</defs>
</svg>
