<svg width="78" height="20" viewBox="0 0 78 20" fill="none" xmlns="http://www.w3.org/2000/svg">
<g clip-path="url(#clip0_4276_554)">
<path d="M10.0293 20C15.5533 20 20.0195 15.5142 20.0195 10.0098C20.0195 4.50539 15.5533 0 10.0293 0C4.50527 0 0.0390625 4.46621 0.0390625 9.99021C0.0390625 15.5142 4.50527 19.9804 10.0293 19.9804" fill="#A682A7"/>
<path d="M12.5359 12.615C12.2501 12.615 12.0179 12.3828 12.0179 12.097C12.0179 11.8112 12.2501 11.5789 12.5359 11.5789C12.8217 11.5789 13.054 11.8112 13.054 12.097C13.054 12.3828 12.8217 12.615 12.5359 12.615ZM12.5359 10.95C11.9011 10.95 11.389 11.4621 11.389 12.097C11.389 12.7318 11.9011 13.2439 12.5359 13.2439C13.1708 13.2439 13.6829 12.7318 13.6829 12.097C13.6829 11.4621 13.1708 10.95 12.5359 10.95Z" fill="white" stroke="white" stroke-width="0.1"/>
<path d="M12.5405 14.715C11.5415 14.715 10.6404 14.1273 10.2291 13.2067L10.1507 13.05H7.7609C7.29078 13.05 6.91859 12.6778 6.91859 12.2076C6.91859 11.7375 7.29078 11.3653 7.7609 11.3653H10.1507L10.2291 11.2086C10.6208 10.288 11.5219 9.70029 12.5405 9.70029C13.9313 9.70029 15.0479 10.8364 15.0479 12.2076C15.0479 13.5788 13.9117 14.715 12.5405 14.715ZM8.7991 15.9295L8.56404 13.716C8.56404 13.716 8.70116 13.6376 8.75992 13.5788H9.81771C9.99401 13.9314 10.2291 14.2253 10.5229 14.4799C10.1507 15.1459 9.54347 15.6748 8.7991 15.9295ZM4.56796 12.9324V8.77963H10.9343V9.62194C10.4641 9.91577 10.0724 10.3271 9.81771 10.8364H8.74034C8.4661 10.6405 8.13309 10.523 7.7609 10.523C6.82065 10.523 6.05669 11.287 6.05669 12.2272C6.05669 12.8737 6.40929 13.4417 6.95777 13.716L6.72271 15.9491C5.46903 15.5181 4.54837 14.3428 4.54837 12.952L4.56796 12.9324ZM12.5405 9.15181C12.1683 9.15181 11.7962 9.23017 11.4632 9.3477V8.23115H10.6404V5.84035C10.6404 4.76298 11.5219 3.88149 12.5993 3.88149C13.6767 3.88149 14.5582 4.76298 14.5582 5.84035V7.34966C14.5582 7.58472 14.754 7.78061 14.9891 7.78061C15.2242 7.78061 15.4201 7.58472 15.4201 7.34966V5.84035C15.4201 4.27326 14.1468 3 12.5797 3C11.0126 3 9.75895 4.27326 9.75895 5.84035V8.23115H4.03906V12.9128C4.03906 14.95 5.7041 16.6151 7.7609 16.6151C9.13211 16.6151 10.3074 15.8707 10.9539 14.7542C11.424 15.048 11.9725 15.2047 12.5601 15.2047C14.2252 15.2047 15.5964 13.8335 15.5964 12.1685C15.5964 10.5034 14.2252 9.13222 12.5601 9.13222L12.5405 9.15181Z" fill="white" stroke="white" stroke-width="0.5" stroke-miterlimit="10"/>
</g>
<path d="M24.4815 9.918H35.7655V11.136H31.0195V13.404H29.4795V11.136H24.4815V9.918ZM25.8395 15.896V12.284H27.3795V14.664H34.5195V15.896H25.8395ZM25.8955 8.756V4.22H34.3235V8.756H25.8955ZM27.4075 7.524H32.8115V5.424H27.4075V7.524ZM45.9019 3.66H47.3579V16.12H45.9019V3.66ZM36.5079 12.606C38.2859 11.486 39.0559 9.246 39.0559 7.062V6.25H36.9139V4.99H42.5279V6.25H40.5539V7.062C40.5539 9.162 41.2819 11.29 43.0459 12.326L42.1359 13.432C41.0019 12.746 40.2459 11.57 39.8119 10.156C39.3919 11.696 38.6079 12.998 37.4319 13.74L36.5079 12.606ZM41.6179 9.26V8.014H43.3959V3.898H44.8239V15.532H43.3959V9.26H41.6179ZM52.1668 5.648H54.4488V3.996H55.9608V5.648H58.2148V6.866H52.1668V5.648ZM52.5028 10.45C52.5028 8.742 53.6368 7.538 55.2048 7.538C56.7868 7.538 57.9208 8.742 57.9208 10.45C57.9208 12.172 56.7868 13.376 55.2048 13.376C53.6368 13.376 52.5028 12.172 52.5028 10.45ZM53.8608 10.45C53.8608 11.458 54.4208 12.088 55.2048 12.088C55.9888 12.088 56.5628 11.458 56.5628 10.45C56.5628 9.456 55.9888 8.812 55.2048 8.812C54.4208 8.812 53.8608 9.456 53.8608 10.45ZM58.7188 15.56V3.926H60.1608V8.798H61.3648V3.66H62.8208V16.12H61.3648V10.044H60.1608V15.56H58.7188ZM73.2371 3.66H74.7771V9.96H73.2371V8.896H70.2831V7.72H73.2371V6.488H70.4371C69.6671 8.392 67.8471 9.624 65.1031 10.24L64.5991 9.008C67.5111 8.378 68.9391 7.076 69.1351 5.424H65.2711V4.192H70.8431C70.8431 4.584 70.8151 4.962 70.7591 5.326H73.2371V3.66ZM66.6291 11.668V10.464H74.7771V13.754H68.1831V14.79H75.0851V16.008H66.6571V12.592H73.2371V11.668H66.6291Z" fill="#6A6D73"/>
<defs>
<clipPath id="clip0_4276_554">
<rect width="19.9804" height="20" fill="white" transform="translate(0.0390625)"/>
</clipPath>
</defs>
</svg>
