<svg width="32" height="32" viewBox="0 0 32 32" fill="none" xmlns="http://www.w3.org/2000/svg">
<g clip-path="url(#clip0_4582_7336)">
<path d="M5.33501 17.75C5.00872 17.1761 4.92267 16.4964 5.09564 15.8593C5.26861 15.2222 5.68656 14.6794 6.25828 14.3493C6.83 14.0192 7.50907 13.9287 8.14731 14.0974C8.78555 14.2661 9.33114 14.6805 9.66501 15.25L12 19V5.5C12 4.83696 12.2634 4.20107 12.7322 3.73223C13.2011 3.26339 13.837 3 14.5 3C15.1631 3 15.7989 3.26339 16.2678 3.73223C16.7366 4.20107 17 4.83696 17 5.5V12.5C17 11.837 17.2634 11.2011 17.7322 10.7322C18.2011 10.2634 18.837 10 19.5 10C20.1631 10 20.7989 10.2634 21.2678 10.7322C21.7366 11.2011 22 11.837 22 12.5V14.5C22 13.837 22.2634 13.2011 22.7322 12.7322C23.2011 12.2634 23.837 12 24.5 12C25.1631 12 25.7989 12.2634 26.2678 12.7322C26.7366 13.2011 27 13.837 27 14.5V19C27 20.3132 26.7414 21.6136 26.2388 22.8268C25.7363 24.0401 24.9997 25.1425 24.0711 26.0711C23.1425 26.9997 22.0401 27.7362 20.8268 28.2388C19.6136 28.7413 18.3132 29 17 29C11.4775 29 10.0238 26 5.33501 17.75Z" fill="white" stroke="#124899" stroke-linecap="round" stroke-linejoin="round"/>
</g>
<defs>
<clipPath id="clip0_4582_7336">
<rect width="32" height="32" fill="white"/>
</clipPath>
</defs>
</svg>
