<svg width="124" height="36" viewBox="0 0 124 36" fill="none" xmlns="http://www.w3.org/2000/svg">
<g clip-path="url(#clip0_4327_7911)">
<path d="M123 12.6647C119.642 12.4327 116.217 13.692 113.814 16.078C112.727 17.1384 111.805 18.6628 112.233 20.0877C112.628 21.5127 114.373 22.308 115.756 21.8772C117.172 21.4464 118.259 20.0214 118.193 18C117.929 7.89279 110.62 1 101.302 1H17.8908C8.57289 1 1 8.62183 1 18C1 27.3782 8.57289 35 17.8908 35H100.248" stroke="#C37BAC" stroke-width="2" stroke-linecap="round" stroke-linejoin="round"/>
<path d="M20.0615 9.984H22.3275V14.538H25.4295V9.984H27.6735V23.03H20.0615V9.984ZM22.3275 21.094H25.4295V16.43H22.3275V21.094ZM29.5655 26.836V8.554H31.8315V15.77H33.8775V8.18H36.1655V27.76H33.8775V17.728H31.8315V26.836H29.5655ZM52.556 8.202H54.976V20.478H52.556V19.598H48.86V17.926H52.556V8.202ZM38.564 15.704C42.128 15.682 46.968 15.638 51.082 15.044L51.258 16.716C49.564 17.024 47.782 17.2 46.022 17.332V20.412H43.624V17.464C41.908 17.53 40.302 17.552 38.872 17.574L38.564 15.704ZM39.51 25.758C42.018 25.032 43.294 23.272 43.294 21.468V21.182H45.626V21.468C45.626 22.92 46.374 24.504 48.024 25.472C49.674 24.482 50.466 22.898 50.466 21.468V21.182H52.842V21.468C52.842 23.316 54.052 25.076 56.604 25.758L55.504 27.518C53.59 26.946 52.292 25.802 51.61 24.328C50.994 25.802 49.828 27.056 48.024 27.716C46.22 27.078 45.076 25.824 44.46 24.372C43.756 25.802 42.48 26.968 40.632 27.518L39.51 25.758ZM40.038 11.656C40.038 9.742 41.974 8.576 44.9 8.576C47.826 8.576 49.762 9.742 49.762 11.656C49.762 13.57 47.826 14.714 44.9 14.714C41.974 14.714 40.038 13.57 40.038 11.656ZM42.304 11.656C42.304 12.536 43.294 13.042 44.9 13.042C46.506 13.042 47.496 12.536 47.496 11.656C47.496 10.754 46.506 10.27 44.9 10.27C43.294 10.27 42.304 10.754 42.304 11.656ZM63.1825 9.588C65.8225 9.588 67.7805 11.81 68.1325 15.396H71.7845V8.158H74.1825V27.804H71.7845V17.332H68.1545C67.8905 21.116 65.8885 23.47 63.1825 23.47C60.3005 23.47 58.2105 20.786 58.2105 16.518C58.2105 12.272 60.3005 9.588 63.1825 9.588ZM60.4985 16.518C60.4985 19.532 61.5985 21.292 63.1825 21.292C64.8105 21.292 65.8885 19.532 65.8885 16.518C65.8885 13.526 64.8105 11.788 63.1825 11.788C61.5985 11.788 60.4985 13.526 60.4985 16.518ZM77.1311 23.426H81.2011V18.432C79.6611 17.53 78.7371 16.144 78.7371 14.406C78.7371 11.26 81.7951 9.236 85.9751 9.236C90.1771 9.236 93.2131 11.26 93.2131 14.406C93.2131 16.144 92.2891 17.53 90.7711 18.432V23.426H94.8631V25.384H77.1311V23.426ZM81.1131 14.406C81.1131 16.452 83.0931 17.684 85.9751 17.684C88.8571 17.684 90.8371 16.452 90.8371 14.406C90.8371 12.382 88.8571 11.128 85.9751 11.128C83.0931 11.128 81.1131 12.382 81.1131 14.406ZM83.6211 23.426H88.3511V19.334C87.6251 19.488 86.8111 19.576 85.9751 19.576C85.1391 19.576 84.3471 19.488 83.6211 19.334V23.426ZM100.892 9.39L100.54 21.71H98.2956L97.8776 9.39H100.892ZM98.0536 25.142C98.0536 24.328 98.6256 23.778 99.4396 23.778C100.232 23.778 100.782 24.328 100.782 25.142C100.782 25.956 100.232 26.528 99.4396 26.528C98.6256 26.528 98.0536 25.956 98.0536 25.142Z" fill="#94206F"/>
</g>
<defs>
<clipPath id="clip0_4327_7911">
<rect width="124" height="36" fill="white"/>
</clipPath>
</defs>
</svg>
