<svg width="32" height="32" viewBox="0 0 32 32" fill="none" xmlns="http://www.w3.org/2000/svg">
<path d="M29.7075 16.7083L17.7075 28.7083C17.5676 28.8483 17.3894 28.9437 17.1953 28.9823C17.0012 29.021 16.8 29.0012 16.6172 28.9254C16.4344 28.8496 16.2781 28.7214 16.1683 28.5568C16.0584 28.3922 15.9998 28.1987 16 28.0008V23.0008H6C5.46957 23.0008 4.96086 22.7901 4.58579 22.415C4.21071 22.0399 4 21.5312 4 21.0008V11.0008C4 10.4704 4.21071 9.96165 4.58579 9.58657C4.96086 9.2115 5.46957 9.00079 6 9.00079H16V4.00079C15.9998 3.80289 16.0584 3.6094 16.1683 3.44481C16.2781 3.28021 16.4344 3.15192 16.6172 3.07616C16.8 3.00041 17.0012 2.98061 17.1953 3.01926C17.3894 3.05791 17.5676 3.15328 17.7075 3.29329L29.7075 15.2933C29.8005 15.3862 29.8742 15.4964 29.9246 15.6178C29.9749 15.7392 30.0008 15.8694 30.0008 16.0008C30.0008 16.1322 29.9749 16.2623 29.9246 16.3837C29.8742 16.5051 29.8005 16.6154 29.7075 16.7083Z" fill="#664300"/>
</svg>
