<svg width="76" height="33" viewBox="0 0 76 33" fill="none" xmlns="http://www.w3.org/2000/svg">
<path d="M75.2071 6.79138C75.5976 7.1819 75.5976 7.81507 75.2071 8.20559L68.8431 14.5696C68.4526 14.9601 67.8195 14.9601 67.4289 14.5696C67.0384 14.179 67.0384 13.5459 67.4289 13.1553L73.0858 7.49849L67.4289 1.84163C67.0384 1.45111 67.0384 0.817942 67.4289 0.427418C67.8195 0.0368934 68.4526 0.0368935 68.8431 0.427418L75.2071 6.79138ZM2 31.5509C2 32.1032 1.55228 32.5509 0.999999 32.5509C0.447714 32.5509 -1.17874e-06 32.1032 -1.1546e-06 31.5509L2 31.5509ZM71.3073 8.3099C70.7572 8.26014 70.3517 7.7739 70.4015 7.22386C70.4512 6.67382 70.9374 6.26827 71.4875 6.31803L71.3073 8.3099ZM65.2642 5.66609C65.8133 5.72557 66.2101 6.21891 66.1507 6.76798C66.0912 7.31705 65.5978 7.71394 65.0488 7.65445L65.2642 5.66609ZM58.8133 7.01716C58.2634 6.96576 57.8593 6.47833 57.9107 5.92844C57.9621 5.37855 58.4495 4.97444 58.9994 5.02584L58.8133 7.01716ZM52.7127 4.51741C53.2638 4.55417 53.6807 5.03069 53.6439 5.58175C53.6072 6.13281 53.1307 6.54973 52.5796 6.51298L52.7127 4.51741ZM46.3525 6.20476C45.8005 6.18779 45.3668 5.72653 45.3837 5.17451C45.4007 4.62248 45.862 4.18873 46.414 4.2057L46.3525 6.20476ZM40.0972 4.15169C40.6494 4.14311 41.104 4.58381 41.1126 5.13603C41.1212 5.68825 40.6805 6.14287 40.1283 6.15145L40.0972 4.15169ZM33.9233 6.42526C33.3726 6.46681 32.8925 6.05406 32.8509 5.50334C32.8094 4.95262 33.2221 4.47248 33.7729 4.43093L33.9233 6.42526ZM27.4635 5.14624C28.0092 5.06139 28.5204 5.435 28.6053 5.98073C28.6901 6.52646 28.3165 7.03764 27.7708 7.1225L27.4635 5.14624ZM21.7393 8.37681C21.2058 8.51973 20.6575 8.20312 20.5146 7.66964C20.3717 7.13617 20.6883 6.58785 21.2218 6.44493L21.7393 8.37681ZM15.1548 8.54349C15.6607 8.32186 16.2504 8.55228 16.4721 9.05814C16.6937 9.564 16.4633 10.1538 15.9574 10.3754L15.1548 8.54349ZM10.6893 13.3485C10.2421 13.6725 9.61686 13.5726 9.29283 13.1254C8.96881 12.6781 9.06869 12.0529 9.51593 11.7289L10.6893 13.3485ZM4.7996 16.2409C5.13919 15.8053 5.76756 15.7275 6.2031 16.0671C6.63865 16.4067 6.71644 17.0351 6.37685 17.4706L4.7996 16.2409ZM3.47997 22.6668C3.2865 23.1841 2.71032 23.4466 2.19303 23.2532C1.67574 23.0597 1.41322 22.4835 1.60669 21.9662L3.47997 22.6668ZM0.160381 28.3087C0.216445 27.7593 0.707296 27.3593 1.25673 27.4154C1.80616 27.4715 2.20611 27.9623 2.15005 28.5118L0.160381 28.3087ZM74.5 8.49849C73.67 8.49849 72.5842 8.42542 71.3073 8.3099L71.4875 6.31803C72.7545 6.43266 73.7653 6.49849 74.5 6.49849L74.5 8.49849ZM65.0488 7.65445C63.1389 7.44753 61.0444 7.22569 58.8133 7.01716L58.9994 5.02584C61.2453 5.23575 63.3513 5.45884 65.2642 5.66609L65.0488 7.65445ZM52.5796 6.51298C50.5567 6.37804 48.4714 6.26988 46.3525 6.20476L46.414 4.2057C48.5603 4.27167 50.6698 4.38114 52.7127 4.51741L52.5796 6.51298ZM40.1283 6.15145C38.0551 6.18366 35.9783 6.27019 33.9233 6.42526L33.7729 4.43093C35.8726 4.27248 37.9895 4.18444 40.0972 4.15169L40.1283 6.15145ZM27.7708 7.1225C25.6953 7.44522 23.6753 7.85816 21.7393 8.37681L21.2218 6.44493C23.2365 5.90519 25.3275 5.47836 27.4635 5.14624L27.7708 7.1225ZM15.9574 10.3754C14.0447 11.2134 12.2772 12.198 10.6893 13.3485L9.51593 11.7289C11.2353 10.4832 13.1305 9.43038 15.1548 8.54349L15.9574 10.3754ZM6.37685 17.4706C5.18667 18.9971 4.20791 20.7204 3.47997 22.6668L1.60669 21.9662C2.40632 19.8281 3.48528 17.9266 4.7996 16.2409L6.37685 17.4706ZM2.15005 28.5118C2.05111 29.4814 2 30.4938 2 31.5509L-1.1546e-06 31.5509C-1.10558e-06 30.4294 0.0542264 29.3491 0.160381 28.3087L2.15005 28.5118Z" fill="#664300"/>
</svg>
