<svg width="46" height="40" viewBox="0 0 46 40" fill="none" xmlns="http://www.w3.org/2000/svg">
<path d="M7.29289 0.874924C7.68342 0.4844 8.31658 0.4844 8.70711 0.874925L15.0711 7.23889C15.4616 7.62941 15.4616 8.26257 15.0711 8.6531C14.6805 9.04362 14.0474 9.04362 13.6569 8.6531L8 2.99624L2.34315 8.6531C1.95262 9.04362 1.31946 9.04362 0.928932 8.6531C0.538408 8.26257 0.538408 7.62941 0.928932 7.23889L7.29289 0.874924ZM44.7743 37.7351C45.3246 37.6889 45.8082 38.0976 45.8544 38.6479C45.9006 39.1983 45.492 39.6819 44.9416 39.7281L44.7743 37.7351ZM9.06982 4.53503C9.09642 5.08668 8.6708 5.55544 8.11915 5.58205C7.56751 5.60865 7.09874 5.18303 7.07214 4.63138L9.06982 4.53503ZM7.69782 10.6848C7.60873 10.1398 7.97836 9.6257 8.52342 9.53661C9.06847 9.44752 9.58254 9.81716 9.67163 10.3622L7.69782 10.6848ZM11.0001 16.0259C11.1654 16.5528 10.8722 17.1141 10.3453 17.2794C9.81831 17.4447 9.2571 17.1515 9.09178 16.6246L11.0001 16.0259ZM11.4088 22.2936C11.1552 21.803 11.3475 21.1997 11.8382 20.9462C12.3288 20.6927 12.9321 20.8849 13.1856 21.3756L11.4088 22.2936ZM16.3163 26.2106C16.6617 26.6416 16.5923 27.271 16.1613 27.6163C15.7304 27.9617 15.101 27.8924 14.7556 27.4614L16.3163 26.2106ZM19.0841 31.8416C18.6574 31.491 18.5957 30.8608 18.9464 30.4341C19.297 30.0074 19.9271 29.9457 20.3538 30.2964L19.0841 31.8416ZM25.1486 33.4941C25.6354 33.755 25.8185 34.3612 25.5576 34.8479C25.2967 35.3347 24.6906 35.5178 24.2038 35.2569L25.1486 33.4941ZM29.8469 37.6688C29.3227 37.4951 29.0385 36.9293 29.2122 36.405C29.3859 35.8808 29.9518 35.5966 30.476 35.7704L29.8469 37.6688ZM36.1214 37.1756C36.6656 37.2697 37.0305 37.7871 36.9364 38.3313C36.8423 38.8755 36.3248 39.2404 35.7806 39.1463L36.1214 37.1756ZM41.8616 39.7675C41.3096 39.7503 40.8761 39.2888 40.8933 38.7368C40.9105 38.1848 41.3719 37.7512 41.9239 37.7684L41.8616 39.7675ZM9 1.58203C9 2.59487 9.0237 3.57893 9.06982 4.53503L7.07214 4.63138C7.02443 3.64227 7 2.62607 7 1.58203L9 1.58203ZM9.67163 10.3622C10.0048 12.4007 10.4538 14.2846 11.0001 16.0259L9.09178 16.6246C8.51579 14.7886 8.04553 12.8121 7.69782 10.6848L9.67163 10.3622ZM13.1856 21.3756C14.1177 23.1796 15.1727 24.7837 16.3163 26.2106L14.7556 27.4614C13.5293 25.9313 12.4019 24.2158 11.4088 22.2936L13.1856 21.3756ZM20.3538 30.2964C21.8931 31.5611 23.5095 32.6156 25.1486 33.4941L24.2038 35.2569C22.4599 34.3222 20.733 33.1965 19.0841 31.8416L20.3538 30.2964ZM30.476 35.7704C32.4498 36.4244 34.3653 36.8719 36.1214 37.1756L35.7806 39.1463C33.9412 38.8282 31.9279 38.3584 29.8469 37.6688L30.476 35.7704ZM41.9239 37.7684C42.8243 37.7965 43.5445 37.7876 44.0361 37.7719C44.2818 37.764 44.4702 37.7545 44.5953 37.7471C44.6579 37.7434 44.7046 37.7403 44.7346 37.7381C44.7497 37.737 44.7606 37.7362 44.7672 37.7357C44.7705 37.7354 44.7728 37.7352 44.7739 37.7351C44.7745 37.7351 44.7749 37.7351 44.7749 37.7351C44.7749 37.7351 44.7749 37.7351 44.7748 37.7351C44.7747 37.7351 44.7747 37.7351 44.7746 37.7351C44.7745 37.7351 44.7744 37.7351 44.7744 37.7351C44.7743 37.7351 44.7743 37.7351 44.8579 38.7316C44.9416 39.7281 44.9415 39.7281 44.9414 39.7281C44.9414 39.7281 44.9413 39.7281 44.9412 39.7281C44.941 39.7282 44.9409 39.7282 44.9407 39.7282C44.9403 39.7282 44.9398 39.7283 44.9393 39.7283C44.9383 39.7284 44.937 39.7285 44.9354 39.7286C44.9322 39.7289 44.928 39.7292 44.9227 39.7296C44.912 39.7305 44.8971 39.7316 44.8779 39.733C44.8396 39.7357 44.7845 39.7394 44.7134 39.7436C44.5711 39.7521 44.3645 39.7624 44.0998 39.7709C43.5706 39.7877 42.8081 39.797 41.8616 39.7675L41.9239 37.7684Z" fill="#664300"/>
</svg>
