<svg width="40" height="40" viewBox="0 0 40 40" fill="none" xmlns="http://www.w3.org/2000/svg">
<g clip-path="url(#clip0_4655_67022)">
<path d="M39.2144 19.9995C39.2144 30.6168 30.6173 39.2139 20 39.2139C9.38273 39.2139 0.785645 30.6168 0.785645 19.9995C0.785645 9.38224 9.38273 0.785156 20 0.785156C30.6173 0.785156 39.2144 9.38224 39.2144 19.9995Z" fill="#F8CABC"/>
<path d="M33.5879 33.5866C41.0916 26.0829 41.0916 13.9171 33.5879 6.41339C26.0843 -1.09028 13.9184 -1.09028 6.41473 6.41339C-1.08894 13.9171 -1.08894 26.0829 6.41473 33.5866C13.9184 41.0903 26.0843 41.0903 33.5879 33.5866Z" stroke="#F3A493" stroke-width="0.7" stroke-miterlimit="10"/>
<path d="M12.862 15.5095L11.8294 15.8238C11.6723 15.8687 11.4703 15.9136 11.3132 15.9136C10.6173 15.9136 10.0337 15.2626 10.0337 14.4545C10.0337 13.7811 10.4153 13.1975 10.9989 12.9955L12.8844 12.3445C13.4456 12.165 13.8496 12.0527 14.2537 12.0527H14.2986C15.1066 12.0527 15.7576 12.7935 15.7576 13.7138V26.1044C15.7576 27.0247 15.1066 27.7879 14.2986 27.7879C13.4905 27.7879 12.8395 27.0471 12.8395 26.1044V15.4646L12.862 15.5095Z" fill="#CE494C"/>
<path d="M18.0923 20.0447V19.9998C18.0923 15.5329 20.4941 12.0312 24.0407 12.0312C27.5872 12.0312 29.9666 15.488 29.9666 19.9325V19.9774C29.9666 24.4443 27.5872 27.9235 24.0182 27.9235C20.4492 27.9235 18.0923 24.4667 18.0923 20.0223V20.0447ZM26.9363 20.0447V19.9998C26.9363 17.2164 25.7466 15.1064 23.9958 15.1064C22.2449 15.1064 21.1001 17.1491 21.1001 19.9549V19.9998C21.1001 22.8057 22.2674 24.8932 24.0407 24.8932C25.8139 24.8932 26.9363 22.8281 26.9363 20.0447Z" fill="#CE494C"/>
</g>
<defs>
<clipPath id="clip0_4655_67022">
<rect width="40" height="40" fill="white"/>
</clipPath>
</defs>
</svg>
