<svg width="36" height="36" viewBox="0 0 36 36" fill="none" xmlns="http://www.w3.org/2000/svg">
<path fill-rule="evenodd" clip-rule="evenodd" d="M30.5622 29.1463C33.3224 26.0526 35 21.9722 35 17.5C35 7.83502 27.165 0 17.5 0C7.83502 0 0 7.83502 0 17.5C0 27.165 7.83502 35 17.5 35C20.4322 35 23.196 34.2788 25.6236 33.0042L31.7041 35.1188L30.5622 29.1463Z" fill="#95434D"/>
<path d="M15.2664 13.416H12.2304V13.284C12.2304 10.402 14.1004 8.334 17.4664 8.334C20.7884 8.334 22.6804 10.402 22.6804 13.284C22.6804 15.286 21.9984 16.452 20.5464 17.728C19.2484 18.894 18.8524 19.576 18.8524 20.83V21.468H15.7944V20.588C15.7944 18.762 16.3004 17.772 17.9724 16.298C19.2264 15.198 19.6224 14.516 19.6224 13.372C19.6224 11.81 18.7424 10.974 17.4664 10.974C16.1464 10.974 15.2664 11.876 15.2664 13.416ZM15.7944 26.044V23.162H18.8524V26.044H15.7944Z" fill="white"/>
</svg>
