<svg width="32" height="31" viewBox="0 0 32 31" fill="none" xmlns="http://www.w3.org/2000/svg">
<path d="M15.0749 1.25412C15.4143 0.427024 16.5857 0.427024 16.9251 1.25412L18.8622 5.97403C19.086 6.51917 19.7302 6.75365 20.252 6.47986L24.7698 4.10934C25.5615 3.69395 26.4588 4.44687 26.1872 5.29865L24.6372 10.1595C24.4581 10.7209 24.8009 11.3146 25.3766 11.4403L30.3612 12.5283C31.2347 12.719 31.4381 13.8726 30.6825 14.3505L26.3707 17.0778C25.8727 17.3928 25.7536 18.0679 26.1139 18.5342L29.2329 22.5718C29.7794 23.2793 29.1938 24.2937 28.3077 24.1741L23.2516 23.4917C22.6677 23.4129 22.1425 23.8536 22.1187 24.4424L21.9127 29.5402C21.8766 30.4335 20.7759 30.8341 20.1741 30.173L16.7395 26.4003C16.3428 25.9645 15.6572 25.9645 15.2605 26.4003L11.8259 30.173C11.2241 30.8341 10.1234 30.4335 10.0873 29.5402L9.8813 24.4424C9.85751 23.8536 9.33234 23.4129 8.74837 23.4917L3.69225 24.1741C2.80624 24.2937 2.22057 23.2793 2.76713 22.5718L5.88614 18.5342C6.24638 18.0679 6.12734 17.3927 5.62933 17.0778L1.3175 14.3505C0.561912 13.8726 0.765312 12.719 1.63879 12.5283L6.62337 11.4403C7.19908 11.3146 7.54186 10.7209 7.36284 10.1595L5.81285 5.29865C5.54124 4.44687 6.43853 3.69395 7.23021 4.10934L11.748 6.47986C12.2698 6.75365 12.914 6.51917 13.1378 5.97403L15.0749 1.25412Z" fill="#FFCD1A"/>
</svg>
