<svg width="16" height="16" viewBox="0 0 16 16" fill="none" xmlns="http://www.w3.org/2000/svg">
<path d="M14.6673 7.16658C14.4635 5.7001 13.7832 4.3413 12.7312 3.2995C11.6792 2.25769 10.3138 1.59068 8.84538 1.40121C7.37697 1.21174 5.887 1.51032 4.60499 2.25096C3.32297 2.99159 2.32003 4.1332 1.75065 5.49992M1.33398 2.16658V5.49992H4.66732M1.33398 8.83324C1.53778 10.2997 2.21809 11.6585 3.27012 12.7003C4.32214 13.7421 5.68752 14.4091 7.15593 14.5986C8.62433 14.7881 10.1143 14.4895 11.3963 13.7489C12.6783 13.0082 13.6813 11.8666 14.2507 10.4999M14.6673 13.8332V10.4999H11.334" stroke="#6A6D73" stroke-width="1.6" stroke-linecap="round" stroke-linejoin="round"/>
</svg>
