<svg width="52" height="22" viewBox="0 0 52 22" fill="none" xmlns="http://www.w3.org/2000/svg">
<g clip-path="url(#clip0_3681_54458)">
<rect width="52" height="22" rx="11" fill="#9A7E6B"/>
<path d="M22.9194 8.49475C22.9194 7.65875 23.2714 6.97675 23.8434 6.54775C24.3164 6.19575 24.9434 5.98675 25.6474 5.98675C26.3624 5.98675 26.9784 6.19575 27.4624 6.54775C28.0234 6.97675 28.3754 7.65875 28.3754 8.49475C28.3754 9.34175 28.0234 10.0127 27.4624 10.4527C26.9784 10.8157 26.3624 11.0137 25.6474 11.0137C24.9434 11.0137 24.3164 10.8157 23.8434 10.4527C23.2714 10.0127 22.9194 9.34175 22.9194 8.49475ZM24.5254 8.49475C24.5254 8.89075 24.6684 9.19875 24.9104 9.40775C25.0974 9.58375 25.3394 9.67175 25.6474 9.67175C25.9554 9.67175 26.2084 9.58375 26.3954 9.40775C26.6264 9.19875 26.7694 8.89075 26.7694 8.49475C26.7694 8.10975 26.6264 7.80175 26.3954 7.59275C26.2084 7.41675 25.9554 7.31775 25.6474 7.31775C25.3394 7.31775 25.0974 7.41675 24.9104 7.59275C24.6684 7.80175 24.5254 8.10975 24.5254 8.49475ZM31.3454 6.05275V11.0247H29.6734V6.05275H31.3454ZM27.3524 14.4677H25.0974V15.1058H27.7704V16.3158H23.5354V13.2687H25.8014V12.6307H23.5354V11.4207H27.3524V14.4677ZM27.7044 12.7627V11.4207H31.3454V16.3598H29.6954V12.7627H27.7044ZM37.0649 8.52775V7.63675H33.6769V6.22875H38.7259V8.32975C38.7259 12.3667 37.2409 14.8197 33.6219 15.6778V14.1487C36.0419 13.4447 37.0649 11.5307 37.0649 8.52775ZM40.2219 6.05275H41.8939V16.2058H40.2219V6.05275Z" fill="white"/>
<path d="M11 20C15.9613 20 20 15.9613 20 11C20 6.03875 15.9613 2 11 2C6.03875 2 2 6.03875 2 11C2 15.9613 6.03875 20 11 20Z" fill="white"/>
<path fill-rule="evenodd" clip-rule="evenodd" d="M10.7162 4.21875C9.29014 4.21875 8.12884 5.40379 8.12884 6.85881V11.0258C8.12884 12.4808 9.29014 13.6659 10.7162 13.6659C12.1422 13.6659 13.3035 12.4808 13.3035 11.0258V6.85881C13.3035 5.40379 12.1422 4.21875 10.7162 4.21875ZM9.06738 6.85881C9.06738 5.93265 9.80851 5.1764 10.7162 5.1764C11.6238 5.1764 12.3649 5.93265 12.3649 6.85881V11.0258C12.3649 11.952 11.6238 12.7082 10.7162 12.7082C9.80851 12.7082 9.06738 11.952 9.06738 11.0258V10.2998H10.6408C10.8999 10.2998 11.11 10.0854 11.11 9.82096C11.11 9.55652 10.8999 9.34214 10.6408 9.34214H9.06738V8.47488H10.6408C10.8999 8.47488 11.11 8.2605 11.11 7.99606C11.11 7.73161 10.8999 7.51723 10.6408 7.51723H9.06738V6.85881Z" fill="#9A7E6B"/>
<path d="M14.5911 9.1095L14.5974 9.10945H14.5848L14.5911 9.1095Z" fill="#9A7E6B"/>
<path d="M14.5911 9.1095C14.3404 9.11291 14.1409 9.31865 14.1409 9.57532V11.0247C14.1409 12.953 12.6062 14.5189 10.7165 14.5189C8.82671 14.5189 7.27938 12.953 7.27938 11.0247V9.57532C7.27938 9.31649 7.07646 9.10945 6.8228 9.10945C6.56914 9.10945 6.36621 9.31649 6.36621 9.57532V11.0247C6.36621 13.3024 8.06572 15.1918 10.2472 15.4248V16.7318H9.19452C8.94086 16.7318 8.73793 16.9389 8.73793 17.1977C8.73793 17.4565 8.94086 17.6636 9.19452 17.6636H12.213C12.4667 17.6636 12.6696 17.4565 12.6696 17.1977C12.6696 16.9389 12.4667 16.7318 12.213 16.7318H11.1604V15.4248C13.3418 15.1918 15.0413 13.3024 15.0413 11.0247V9.57532C15.0413 9.31865 14.8418 9.11291 14.5911 9.1095Z" fill="#9A7E6B"/>
</g>
<defs>
<clipPath id="clip0_3681_54458">
<rect width="52" height="22" fill="white"/>
</clipPath>
</defs>
</svg>
