<svg width="52" height="22" viewBox="0 0 52 22" fill="none" xmlns="http://www.w3.org/2000/svg">
<g clip-path="url(#clip0_3681_54444)">
<rect width="52" height="22" rx="11" fill="#9A7E6B"/>
<path d="M27.3304 12.3337C26.6374 12.0147 25.8454 11.2997 25.4384 10.6507C24.9544 11.3437 23.9314 12.0257 22.9524 12.3337V10.9037C24.0634 10.3427 24.5914 9.42975 24.5914 7.48275V6.22875H26.2634V7.48275C26.2634 9.27575 26.7144 10.1117 27.3304 10.6727C27.9464 10.1117 28.3974 9.27575 28.3974 7.48275V6.22875H30.0694V7.48275C30.0694 9.44075 30.5864 10.3317 31.7084 10.9037V12.3337C30.7294 12.0257 29.6954 11.3437 29.2224 10.6507C28.8044 11.2997 28.0234 12.0147 27.3304 12.3337ZM31.8624 15.7878H22.7984V14.3577H31.8624V15.7878ZM37.0649 8.52775V7.63675H33.6769V6.22875H38.7259V8.32975C38.7259 12.3667 37.2409 14.8197 33.6219 15.6778V14.1487C36.0419 13.4447 37.0649 11.5307 37.0649 8.52775ZM40.2219 6.05275H41.8939V16.2058H40.2219V6.05275Z" fill="white"/>
<path d="M11 20C15.9613 20 20 15.9613 20 11C20 6.03875 15.9613 2 11 2C6.03875 2 2 6.03875 2 11C2 15.9613 6.03875 20 11 20Z" fill="white"/>
<path d="M15.5437 8.61673C15.5437 8.78891 15.4696 8.94878 15.3463 9.08406L14.7173 9.71128L12.2875 7.28851L12.9166 6.6613C13.1756 6.40303 13.5826 6.39073 13.8169 6.6244L15.371 8.17399C15.482 8.28467 15.5437 8.44455 15.5437 8.61673ZM14.4089 10.0556L10.0675 14.3846L7.58839 11.9127L11.9299 7.58367L14.4089 10.0556ZM7.50206 15.1471L6.84837 14.4953L7.37872 12.3677L9.62346 14.606L7.90908 15.2958L7.50206 15.1471ZM15.704 7.85423L14.1499 6.30465C13.7306 5.8865 13.0276 5.8988 12.5959 6.34154L7.10738 11.8143L6.00968 15.7129C5.98501 15.7866 6.00968 15.8727 6.05901 15.9342C6.12068 15.9957 6.20702 16.008 6.28102 15.9957L10.1661 14.9012L15.667 9.41612C15.8767 9.20705 16 8.93649 16 8.64133C16 8.34617 15.9013 8.0756 15.6917 7.86653L15.704 7.85423Z" stroke="#9A7E6B" stroke-width="0.6" stroke-miterlimit="10" stroke-linejoin="round"/>
</g>
<defs>
<clipPath id="clip0_3681_54444">
<rect width="52" height="22" fill="white"/>
</clipPath>
</defs>
</svg>
