<svg width="50" height="50" viewBox="0 0 50 50" fill="none" xmlns="http://www.w3.org/2000/svg">
<path fill-rule="evenodd" clip-rule="evenodd" d="M8.46142 31.491C3.57007 30.1338 0 25.8753 0 20.832C0 14.6956 5.2855 9.72099 11.8055 9.72099C12.0955 9.72099 12.383 9.73083 12.6677 9.75018C13.5831 4.20997 18.1343 0 23.611 0C26.6888 0 29.4744 1.32967 31.4866 3.47786C33.3915 2.16025 35.7028 1.38841 38.1943 1.38841C44.7143 1.38841 49.9998 6.67391 49.9998 13.1939C49.9998 15.7143 49.2099 18.0503 47.8643 19.9677C49.2315 22.7418 49.9995 25.8641 49.9995 29.1658C49.9995 40.6717 40.6722 49.999 29.1663 49.999C18.4465 49.999 9.61764 41.9025 8.46142 31.491Z" fill="#2D5122"/>
<path d="M32.0413 39.8611H26.2813V16.8931L20.1613 19.6651V14.5531L27.1093 11.3851H32.0413V39.8611Z" fill="white"/>
</svg>
