<svg width="142" height="134" viewBox="0 0 142 134" fill="none" xmlns="http://www.w3.org/2000/svg">
<path d="M1 67L0.595074 66.0856C0.233294 66.2459 0 66.6043 0 67C0 67.3957 0.233294 67.7541 0.595074 67.9143L1 67ZM141.933 5.36022C142.132 4.84501 141.875 4.26607 141.36 4.06713L132.964 0.825181C132.449 0.626239 131.87 0.882625 131.671 1.39783C131.472 1.91304 131.729 2.49198 132.244 2.69092L139.707 5.57265L136.825 13.0356C136.626 13.5508 136.883 14.1297 137.398 14.3287C137.913 14.5276 138.492 14.2712 138.691 13.756L141.933 5.36022ZM141.36 129.933C141.875 129.734 142.132 129.155 141.933 128.64L138.691 120.244C138.492 119.729 137.913 119.472 137.398 119.671C136.883 119.87 136.626 120.449 136.825 120.964L139.707 128.427L132.244 131.309C131.729 131.508 131.472 132.087 131.671 132.602C131.87 133.117 132.449 133.374 132.964 133.175L141.36 129.933ZM1.40493 67.9143L141.405 5.91435L140.595 4.08565L0.595074 66.0856L1.40493 67.9143ZM141.405 128.086L1.40493 66.0856L0.595074 67.9143L140.595 129.914L141.405 128.086Z" fill="#EB1807"/>
</svg>
