<svg width="32" height="32" viewBox="0 0 32 32" fill="none" xmlns="http://www.w3.org/2000/svg">
<rect width="32" height="32" rx="4" fill="#FE5663"/>
<path fill-rule="evenodd" clip-rule="evenodd" d="M25.1327 8.92894C25.5233 9.31946 25.5233 9.95263 25.1327 10.3432L19.5355 15.9404L25.2521 21.6569C25.6426 22.0474 25.6426 22.6805 25.252 23.0711L23.1307 25.1924C22.7402 25.5829 22.107 25.5829 21.7165 25.1924L16 19.4759L10.2835 25.1924C9.89298 25.5829 9.25982 25.5829 8.86929 25.1924L6.74797 23.0711C6.35745 22.6805 6.35745 22.0474 6.74797 21.6569L12.4645 15.9404L6.86727 10.3432C6.47675 9.95263 6.47675 9.31946 6.86727 8.92894L8.98859 6.80762C9.37912 6.41709 10.0123 6.41709 10.4028 6.80762L16 12.4048L21.5972 6.80762C21.9877 6.41709 22.6209 6.41709 23.0114 6.80762L25.1327 8.92894Z" fill="white"/>
</svg>
