<svg width="408" height="246" viewBox="0 0 408 246" fill="none" xmlns="http://www.w3.org/2000/svg">
<path d="M20.0792 25.3508C16.375 25.2846 13.2661 28.2301 13.1338 31.9699C13.1338 32.3671 10.951 66.8859 11.7778 80.6867C12.307 89.8211 12.1086 114.577 11.9432 134.5C11.844 145.289 11.7778 154.457 11.844 158.362L13.2 235.608C13.2661 239.347 16.3419 242.359 20.0792 242.359C20.4761 242.359 66.911 240.539 93.965 242.194C111.262 243.253 187.86 243.517 243.787 243.683C277.489 243.782 304.113 243.881 311.356 244.113C340.361 244.974 398.471 242.723 399.033 242.723C402.77 242.591 405.78 239.413 405.747 235.674C405.747 234.515 404.325 120.534 404.325 94.8848C404.325 69.2357 405.548 32.2678 405.548 31.9038C405.615 30.1166 404.953 28.4287 403.729 27.138C402.506 25.8473 400.852 25.1522 399.066 25.1191C399.066 25.1191 392.716 25.053 353.094 24.5896C325.941 24.2587 221.297 25.4832 152.075 26.3106C120.655 26.6746 96.8754 26.9394 91.6829 26.9394C75.907 26.9394 20.6415 25.417 20.0131 25.3839" fill="white"/>
<path d="M20.0792 25.3508C16.375 25.2846 13.2661 28.2301 13.1338 31.9699C13.1338 32.3671 10.951 66.8859 11.7778 80.6867C12.307 89.8211 12.1086 114.577 11.9432 134.5C11.844 145.289 11.7778 154.457 11.844 158.362L13.2 235.608C13.2661 239.347 16.3419 242.359 20.0792 242.359C20.4761 242.359 66.911 240.539 93.965 242.194C111.262 243.253 187.86 243.517 243.787 243.683C277.489 243.782 304.113 243.881 311.356 244.113C340.361 244.974 398.471 242.723 399.033 242.723C402.77 242.591 405.78 239.413 405.747 235.674C405.747 234.515 404.325 120.534 404.325 94.8848C404.325 69.2357 405.549 32.2678 405.549 31.9038C405.615 30.1166 404.953 28.4287 403.729 27.138C402.506 25.8473 400.852 25.1522 399.066 25.1191C399.066 25.1191 392.716 25.053 353.094 24.5896C325.941 24.2587 221.297 25.4832 152.075 26.3106C120.655 26.6746 96.8754 26.9394 91.6829 26.9394C75.9069 26.9394 20.6415 25.417 20.0131 25.3839L20.0792 25.3508Z" stroke="#C0C5CC" stroke-width="1.5" stroke-miterlimit="10"/>
<path d="M15.3165 20.552C11.6123 20.4858 8.50343 23.4313 8.37114 27.1711C8.37114 27.5683 6.1883 62.087 7.01513 75.8879C7.54431 85.0223 7.34587 109.778 7.1805 129.701C7.08128 140.491 7.01513 149.658 7.08128 153.563L8.43729 230.809C8.50343 234.548 11.5792 237.56 15.3165 237.56C15.7134 237.56 62.1483 235.74 89.2023 237.395C106.5 238.454 183.097 238.719 239.024 238.884C272.726 238.983 299.35 239.083 306.593 239.314C335.598 240.175 393.708 237.924 394.27 237.924C398.008 237.792 401.017 234.615 400.984 230.875C400.984 229.717 399.562 115.735 399.562 90.086C399.562 64.4368 400.786 27.469 400.786 27.1049C400.852 25.3178 400.19 23.6299 398.967 22.3392C397.743 21.0484 396.089 20.3534 394.303 20.3203C394.303 20.3203 387.953 20.2541 348.332 19.7908C321.178 19.4598 216.534 20.6844 147.312 21.5118C115.892 21.8758 92.1127 22.1406 86.9202 22.1406C71.1773 22.1406 15.8788 20.6182 15.2504 20.5851" fill="white"/>
<path d="M15.3165 20.552C11.6123 20.4858 8.50343 23.4313 8.37114 27.1711C8.37114 27.5683 6.1883 62.087 7.01513 75.8879C7.54431 85.0223 7.34587 109.778 7.1805 129.701C7.08128 140.491 7.01513 149.658 7.08128 153.563L8.43729 230.809C8.50343 234.548 11.5792 237.56 15.3165 237.56C15.7134 237.56 62.1483 235.74 89.2023 237.395C106.5 238.454 183.097 238.719 239.024 238.884C272.726 238.983 299.35 239.083 306.593 239.314C335.598 240.175 393.708 237.924 394.27 237.924C398.008 237.792 401.017 234.615 400.984 230.875C400.984 229.717 399.562 115.735 399.562 90.086C399.562 64.4368 400.786 27.469 400.786 27.1049C400.852 25.3178 400.19 23.6299 398.967 22.3392C397.743 21.0484 396.089 20.3534 394.303 20.3203C394.303 20.3203 387.953 20.2541 348.332 19.7908C321.178 19.4598 216.534 20.6844 147.312 21.5118C115.892 21.8758 92.1127 22.1406 86.9202 22.1406C71.1773 22.1406 15.8788 20.6182 15.2504 20.5851L15.3165 20.552Z" stroke="#C0C5CC" stroke-width="1.5" stroke-miterlimit="10"/>
<path d="M21.138 20.6191L26.2974 47.1949C27.2565 52.1923 30.9277 55.7005 35.9548 54.7076C40.9489 53.7478 43.0656 49.1144 42.0734 44.117L35.7564 11.617C34.5988 5.62672 28.7779 1.68834 22.7916 2.84669C16.8054 4.00504 12.8697 9.82987 14.0272 15.8202L16.9046 30.5478" stroke="#8D9299" stroke-width="2" stroke-miterlimit="10" stroke-linecap="round"/>
<path d="M10.6204 15.3237C6.85002 15.4561 3.70806 18.6002 3.60884 22.3731C3.60884 22.7372 1.98825 57.289 2.25283 71.1561C2.45127 81.8791 2.38513 105.576 2.35205 124.142C2.35205 136.09 2.28591 145.919 2.35205 148.732L3.70806 225.978C3.7742 229.717 6.85002 232.729 10.5873 232.729C10.9842 232.729 57.4191 230.909 84.473 232.564C101.77 233.623 178.368 233.887 234.295 234.053C267.997 234.152 294.621 234.251 301.864 234.483C330.869 235.344 388.979 233.093 389.541 233.093C393.278 232.961 396.288 229.784 396.255 226.044C396.255 224.885 394.833 110.904 394.833 85.2549C394.833 59.6057 396.057 22.6379 396.057 22.2738C396.123 20.4867 395.494 18.7988 394.238 17.5081C393.014 16.2173 391.36 15.5223 389.574 15.4892C389.574 15.4892 383.224 15.423 343.602 14.9597C306.296 14.5295 100.051 13.0732 82.191 13.0732C66.4812 13.0732 11.1826 15.2907 10.6535 15.2907L10.6204 15.3237Z" fill="white"/>
<path d="M10.6204 15.3237C6.85002 15.4561 3.70806 18.6002 3.60884 22.3731C3.60884 22.7372 1.98825 57.289 2.25283 71.1561C2.45127 81.8791 2.38513 105.576 2.35205 124.142C2.35205 136.09 2.28591 145.919 2.35205 148.732L3.70806 225.978C3.7742 229.717 6.85002 232.729 10.5873 232.729C10.9842 232.729 57.4191 230.909 84.473 232.564C101.77 233.623 178.368 233.887 234.295 234.053C267.997 234.152 294.621 234.251 301.864 234.483C330.869 235.344 388.979 233.093 389.541 233.093C393.278 232.961 396.288 229.784 396.255 226.044C396.255 224.885 394.833 110.904 394.833 85.2549C394.833 59.6057 396.057 22.6379 396.057 22.2738C396.123 20.4867 395.494 18.7988 394.238 17.5081C393.014 16.2173 391.36 15.5223 389.574 15.4892C389.574 15.4892 383.224 15.423 343.602 14.9597C306.296 14.5295 100.051 13.0732 82.191 13.0732C66.4812 13.0732 11.1826 15.2907 10.6535 15.2907L10.6204 15.3237Z" stroke="#C0C5CC" stroke-width="1.5" stroke-miterlimit="10"/>
<path d="M21.1377 20.6191L26.2971 47.1949C27.2563 52.1923 30.9274 55.7005 35.9545 54.7076C40.9486 53.7478 43.0653 49.1144 42.0731 44.117L35.7561 11.617C34.5985 5.62672 28.7776 1.68834 22.7914 2.84669" stroke="#8D9299" stroke-width="2" stroke-miterlimit="10" stroke-linecap="round"/>
</svg>
