<svg width="33" height="32" viewBox="0 0 33 32" fill="none" xmlns="http://www.w3.org/2000/svg">
<path d="M15.7917 29.7075L3.79172 17.7075C3.65171 17.5676 3.55634 17.3894 3.51769 17.1953C3.47904 17.0012 3.49885 16.8 3.5746 16.6172C3.65035 16.4344 3.77864 16.2781 3.94324 16.1683C4.10783 16.0584 4.30132 15.9998 4.49922 16L9.49922 16L9.49922 6C9.49922 5.46957 9.70993 4.96086 10.085 4.58579C10.4601 4.21071 10.9688 4 11.4992 4L21.4992 4C22.0296 4 22.5384 4.21071 22.9134 4.58579C23.2885 4.96086 23.4992 5.46957 23.4992 6L23.4992 16L28.4992 16C28.6971 15.9998 28.8906 16.0584 29.0552 16.1683C29.2198 16.2781 29.3481 16.4344 29.4238 16.6172C29.4996 16.8 29.5194 17.0012 29.4807 17.1953C29.4421 17.3894 29.3467 17.5676 29.2067 17.7075L17.2067 29.7075C17.1138 29.8005 17.0036 29.8742 16.8822 29.9246C16.7608 29.9749 16.6306 30.0008 16.4992 30.0008C16.3678 30.0008 16.2377 29.9749 16.1163 29.9246C15.9949 29.8742 15.8846 29.8005 15.7917 29.7075Z" fill="#664300"/>
</svg>
