<svg width="20" height="20" viewBox="0 0 20 20" fill="none" xmlns="http://www.w3.org/2000/svg">
<path d="M5.83594 17.5C5.3776 17.5 4.98538 17.3369 4.65927 17.0108C4.33316 16.6847 4.16983 16.2922 4.16927 15.8333V5.41667C4.16927 5.18655 3.98272 5 3.7526 5C3.52249 5 3.33594 4.81345 3.33594 4.58333V4.16667C3.33594 3.70643 3.70903 3.33333 4.16927 3.33333H7.08594C7.31606 3.33333 7.5026 3.14679 7.5026 2.91667C7.5026 2.68655 7.68915 2.5 7.91927 2.5H12.0859C12.3161 2.5 12.5026 2.68655 12.5026 2.91667C12.5026 3.14679 12.6892 3.33333 12.9193 3.33333H15.8359C16.2962 3.33333 16.6693 3.70643 16.6693 4.16667V4.58333C16.6693 4.81345 16.4827 5 16.2526 5C16.0225 5 15.8359 5.18655 15.8359 5.41667V15.8333C15.8359 16.2917 15.6729 16.6842 15.3468 17.0108C15.0207 17.3375 14.6282 17.5006 14.1693 17.5H5.83594ZM7.5026 13.3333C7.5026 13.7936 7.8757 14.1667 8.33594 14.1667C8.79617 14.1667 9.16927 13.7936 9.16927 13.3333V7.5C9.16927 7.03976 8.79617 6.66667 8.33594 6.66667C7.8757 6.66667 7.5026 7.03976 7.5026 7.5V13.3333ZM10.8359 13.3333C10.8359 13.7936 11.209 14.1667 11.6693 14.1667C12.1295 14.1667 12.5026 13.7936 12.5026 13.3333V7.5C12.5026 7.03976 12.1295 6.66667 11.6693 6.66667C11.209 6.66667 10.8359 7.03976 10.8359 7.5V13.3333Z" fill="white"/>
</svg>
