<svg width="20" height="20" viewBox="0 0 20 20" fill="none" xmlns="http://www.w3.org/2000/svg">
<path d="M6.58927 14.636C6.63359 14.8351 6.73773 15.0159 6.88772 15.1541C7.03772 15.2923 7.22639 15.3814 7.42844 15.4093C7.63049 15.4372 7.83625 15.4027 8.01812 15.3104C8.19999 15.218 8.34927 15.0723 8.44594 14.8927L10.1876 12.3152L14.2768 16.4043C14.3593 16.4869 14.4574 16.5524 14.5652 16.5971C14.6731 16.6418 14.7887 16.6648 14.9055 16.6648C15.0223 16.6648 15.1379 16.6418 15.2458 16.5971C15.3537 16.5524 15.4517 16.4869 15.5343 16.4043L16.4068 15.5318C16.4893 15.4493 16.5548 15.3512 16.5995 15.2434C16.6442 15.1355 16.6672 15.0198 16.6672 14.9031C16.6672 14.7863 16.6442 14.6707 16.5995 14.5628C16.5548 14.4549 16.4893 14.3569 16.4068 14.2743L12.3176 10.1852L14.9118 8.4435C15.0914 8.34676 15.2371 8.19741 15.3294 8.01549C15.4217 7.83356 15.4561 7.62776 15.4281 7.4257C15.4001 7.22363 15.3109 7.03497 15.1726 6.88503C15.0343 6.73509 14.8534 6.63103 14.6543 6.58683L3.33594 3.3335L6.58927 14.636Z" stroke="white" stroke-width="1.5" stroke-linecap="round" stroke-linejoin="round"/>
</svg>
