<svg width="96" height="38" viewBox="0 0 96 38" fill="none" xmlns="http://www.w3.org/2000/svg">
<rect x="1" y="1" width="94" height="36" rx="18" stroke="#004147" stroke-width="2"/>
<path d="M26.952 8.56H29.592V13.768H32.472V15.952H29.592V21.136H26.952V8.56ZM12.6 19C14.184 19 16.032 19 17.952 18.952V17.848C15.6 17.608 14.136 16.624 14.136 15.112C14.136 13.36 16.128 12.304 19.224 12.304C22.368 12.304 24.36 13.36 24.36 15.112C24.36 16.624 22.92 17.584 20.568 17.848V18.856C22.392 18.76 24.192 18.616 25.896 18.4L26.088 20.008C21.576 20.8 16.608 20.848 12.888 20.848L12.6 19ZM13.152 11.8V10H17.952V8.368H20.568V10H25.32V11.8H13.152ZM15.456 23.752V22H29.592V26.632H18.096V27.976H30.36V29.752H15.48V24.976H27V23.752H15.456ZM16.632 15.112C16.632 15.856 17.616 16.264 19.224 16.264C20.88 16.264 21.864 15.856 21.864 15.112C21.864 14.368 20.88 13.96 19.224 13.96C17.616 13.96 16.632 14.368 16.632 15.112ZM33.8166 18.808H42.1446V16.792H36.1926V9.52H50.7606V11.632H38.7846V14.68H50.9046V16.792H44.7606V18.808H53.1126V20.92H33.8166V18.808ZM36.0246 26.056C36.0246 23.56 38.8086 22.168 43.4166 22.168C48.0006 22.168 50.7846 23.56 50.7846 26.056C50.7846 28.552 48.0006 29.944 43.4166 29.944C38.8086 29.944 36.0246 28.552 36.0246 26.056ZM38.6886 26.056C38.6886 27.328 40.3686 27.928 43.4166 27.928C46.4646 27.928 48.1206 27.328 48.1206 26.056C48.1206 24.832 46.4646 24.184 43.4166 24.184C40.3686 24.184 38.6886 24.832 38.6886 26.056Z" fill="#004147"/>
<circle cx="72" cy="19" r="12" fill="#004147"/>
<path d="M74.413 27.105L71.704 27.063V14.568L68.785 15.954L67.798 13.602L71.725 11.733H74.413V27.105Z" fill="white"/>
</svg>
