<svg width="67" height="36" viewBox="0 0 67 36" fill="none" xmlns="http://www.w3.org/2000/svg">
<mask id="path-1-inside-1_2924_4607" fill="white">
<path d="M0 12C0 5.37258 5.37258 0 12 0H55C61.6274 0 67 5.37258 67 12V36H0V12Z"/>
</mask>
<path d="M-2 12C-2 4.26801 4.26801 -2 12 -2H55C62.732 -2 69 4.26801 69 12H65C65 6.47715 60.5228 2 55 2H12C6.47715 2 2 6.47715 2 12H-2ZM67 36H0H67ZM-2 36V12C-2 4.26801 4.26801 -2 12 -2V2C6.47715 2 2 6.47715 2 12V36H-2ZM55 -2C62.732 -2 69 4.26801 69 12V36H65V12C65 6.47715 60.5228 2 55 2V-2Z" fill="#FE5663" mask="url(#path-1-inside-1_2924_4607)"/>
<path d="M31.7395 11.18V30.76H29.4515V11.18H31.7395ZM15.1955 19.65C15.1955 18.2273 15.3642 16.988 15.7015 15.932C16.0535 14.876 16.5448 14.0693 17.1755 13.512C17.8062 12.94 18.5468 12.654 19.3975 12.654C20.2188 12.654 20.9375 12.9107 21.5535 13.424C22.1842 13.9373 22.6755 14.678 23.0275 15.646H25.5575V11.554H27.8235V29.836H25.5575V23.654H23.0275C22.6755 24.622 22.1842 25.37 21.5535 25.898C20.9375 26.4113 20.2188 26.668 19.3975 26.668C18.5468 26.668 17.8062 26.3893 17.1755 25.832C16.5448 25.26 16.0535 24.446 15.7015 23.39C15.3642 22.334 15.1955 21.0873 15.1955 19.65ZM17.3735 19.65C17.3735 21.1753 17.5495 22.3487 17.9015 23.17C18.2682 23.9913 18.7668 24.402 19.3975 24.402C20.0575 24.402 20.5635 23.9913 20.9155 23.17C21.2822 22.3487 21.4655 21.1753 21.4655 19.65C21.4655 18.1393 21.2822 16.9807 20.9155 16.174C20.5635 15.3527 20.0575 14.942 19.3975 14.942C18.7668 14.942 18.2682 15.3527 17.9015 16.174C17.5495 16.9807 17.3735 18.1393 17.3735 19.65ZM23.5115 17.604C23.5995 18.2347 23.6435 18.9167 23.6435 19.65C23.6435 20.3833 23.5995 21.058 23.5115 21.674H25.5575V17.604H23.5115ZM41.574 12.786V15.866C41.574 17.0833 41.772 18.264 42.168 19.408C42.564 20.552 43.136 21.5713 43.884 22.466C44.6467 23.346 45.5413 24.0133 46.568 24.468L45.16 26.426C44.0453 25.9127 43.0847 25.1647 42.278 24.182C41.4713 23.1847 40.8407 22.0333 40.386 20.728C39.9313 22.136 39.286 23.3753 38.45 24.446C37.6287 25.502 36.6387 26.3013 35.48 26.844L34.028 24.842C35.0693 24.3727 35.9713 23.676 36.734 22.752C37.5113 21.828 38.1053 20.772 38.516 19.584C38.9267 18.3813 39.132 17.142 39.132 15.866V12.786H41.574ZM47.954 11.158H50.374V30.804H47.954V11.158Z" fill="#D44B5B"/>
</svg>
