<svg width="67" height="36" viewBox="0 0 67 36" fill="none" xmlns="http://www.w3.org/2000/svg">
<mask id="path-1-inside-1_2924_4609" fill="white">
<path d="M0 12C0 5.37258 5.37258 0 12 0H55C61.6274 0 67 5.37258 67 12V36H0V12Z"/>
</mask>
<path d="M-2 12C-2 4.26801 4.26801 -2 12 -2H55C62.732 -2 69 4.26801 69 12H65C65 6.47715 60.5228 2 55 2H12C6.47715 2 2 6.47715 2 12H-2ZM67 36H0H67ZM-2 36V12C-2 4.26801 4.26801 -2 12 -2V2C6.47715 2 2 6.47715 2 12V36H-2ZM55 -2C62.732 -2 69 4.26801 69 12V36H65V12C65 6.47715 60.5228 2 55 2V-2Z" fill="#70C954" mask="url(#path-1-inside-1_2924_4609)"/>
<path d="M30.3975 12.368V13.688C30.3975 14.9053 30.3608 16.0493 30.2875 17.12C30.2288 18.1907 30.0748 19.43 29.8255 20.838H32.7295V22.796H28.3735V30.826H25.9535V22.796H21.6195V30.826H19.2215V22.796H15.0195V20.838H27.3835C27.6328 19.5913 27.8015 18.4547 27.8895 17.428C27.9775 16.3867 28.0215 15.3527 28.0215 14.326H17.1755V12.368H30.3975ZM39.198 13.336V11.114H41.618V13.336H45.732V15.272H41.618V15.492C41.618 16.6507 42.036 17.7213 42.872 18.704C43.708 19.6867 44.874 20.3833 46.37 20.794L45.27 22.664C44.1553 22.356 43.1873 21.8793 42.366 21.234C41.5593 20.5887 40.9213 19.8187 40.452 18.924C39.9973 19.892 39.3593 20.7353 38.538 21.454C37.7313 22.158 36.7633 22.6787 35.634 23.016L34.468 21.124C35.964 20.6693 37.1227 19.9287 37.944 18.902C38.78 17.8753 39.198 16.7387 39.198 15.492V15.272H35.062V13.336H39.198ZM37.174 24.116H50.396V30.782H47.976V26.03H37.174V24.116ZM47.976 11.18H50.396V23.214H47.976V11.18Z" fill="#00A42E"/>
</svg>
