<svg width="32" height="32" viewBox="0 0 32 32" fill="none" xmlns="http://www.w3.org/2000/svg">
<rect x="0.5" y="0.496094" width="31" height="31" rx="3.5" fill="#0091FF"/>
<rect x="0.5" y="0.496094" width="31" height="31" rx="3.5" stroke="#0091FF"/>
<path d="M26.8129 12.5181L14.7745 24.5556C14.6352 24.695 14.4698 24.8055 14.2878 24.8809C14.1058 24.9563 13.9107 24.9951 13.7137 24.9951C13.5167 24.9951 13.3216 24.9563 13.1396 24.8809C12.9576 24.8055 12.7922 24.695 12.6529 24.5556L5.93852 17.8056C5.65772 17.5244 5.5 17.1432 5.5 16.7458C5.5 16.3484 5.65772 15.9672 5.93852 15.6859L8.18852 13.4359C8.46886 13.1555 8.84882 12.9975 9.24533 12.9965C9.64184 12.9954 10.0226 13.1514 10.3045 13.4303L13.7395 16.7369L13.7498 16.7472L22.4432 8.18126C22.7243 7.90132 23.1049 7.74414 23.5016 7.74414C23.8984 7.74414 24.279 7.90132 24.5601 8.18126L26.8101 10.39C26.9506 10.5292 27.0622 10.6949 27.1384 10.8774C27.2146 11.0599 27.254 11.2557 27.2542 11.4535C27.2545 11.6513 27.2156 11.8472 27.1399 12.0299C27.0642 12.2126 26.953 12.3785 26.8129 12.5181Z" fill="white"/>
</svg>
