<svg width="32" height="32" viewBox="0 0 32 32" fill="none" xmlns="http://www.w3.org/2000/svg">
<path d="M8.22202 4.35943C10.5243 2.82109 13.2311 2 16 2C19.7118 2.00392 23.2705 3.48017 25.8952 6.10483C28.5198 8.72949 29.9961 12.2882 30 16C30 18.7689 29.1789 21.4757 27.6406 23.778C26.1022 26.0803 23.9157 27.8747 21.3576 28.9343C18.7994 29.9939 15.9845 30.2712 13.2687 29.731C10.553 29.1908 8.05844 27.8574 6.10051 25.8995C4.14258 23.9416 2.80921 21.447 2.26901 18.7313C1.72882 16.0155 2.00607 13.2006 3.06569 10.6424C4.12532 8.08427 5.91973 5.89776 8.22202 4.35943Z" fill="white"/>
<path d="M16 2C13.2311 2 10.5243 2.82109 8.22202 4.35943C5.91973 5.89776 4.12532 8.08427 3.06569 10.6424C2.00607 13.2006 1.72882 16.0155 2.26901 18.7313C2.80921 21.447 4.14258 23.9416 6.10051 25.8995C8.05845 27.8574 10.553 29.1908 13.2687 29.731C15.9845 30.2712 18.7994 29.9939 21.3576 28.9343C23.9157 27.8747 26.1022 26.0803 27.6406 23.778C29.1789 21.4757 30 18.7689 30 16C29.9961 12.2882 28.5198 8.72949 25.8952 6.10483C23.2705 3.48017 19.7118 2.00392 16 2ZM11.1539 11.6923C11.4733 11.6923 11.7857 11.787 12.0513 11.9645C12.317 12.142 12.524 12.3943 12.6463 12.6895C12.7685 12.9847 12.8005 13.3095 12.7382 13.6228C12.6759 13.9362 12.522 14.224 12.2961 14.4499C12.0702 14.6759 11.7824 14.8297 11.469 14.892C11.1556 14.9544 10.8308 14.9224 10.5357 14.8001C10.2405 14.6778 9.98821 14.4708 9.81071 14.2051C9.63321 13.9395 9.53847 13.6272 9.53847 13.3077C9.53847 12.8793 9.70866 12.4684 10.0116 12.1654C10.3145 11.8625 10.7254 11.6923 11.1539 11.6923ZM22.3162 19.7692C20.931 22.164 18.629 23.5385 16 23.5385C13.371 23.5385 11.069 22.1654 9.68385 19.7692C9.60593 19.6467 9.55361 19.5096 9.53004 19.3663C9.50647 19.223 9.51213 19.0763 9.54668 18.9353C9.58124 18.7942 9.64397 18.6616 9.73111 18.5454C9.81825 18.4292 9.928 18.3318 10.0537 18.2591C10.1795 18.1864 10.3186 18.1399 10.4628 18.1224C10.607 18.1049 10.7532 18.1167 10.8927 18.1572C11.0322 18.1977 11.1621 18.2659 11.2745 18.3579C11.3869 18.4499 11.4796 18.5636 11.5469 18.6923C12.5525 20.4302 14.1329 21.3846 16 21.3846C17.8671 21.3846 19.4475 20.4288 20.4531 18.6923C20.5204 18.5636 20.6131 18.4499 20.7255 18.3579C20.8379 18.2659 20.9678 18.1977 21.1073 18.1572C21.2468 18.1167 21.393 18.1049 21.5372 18.1224C21.6814 18.1399 21.8205 18.1864 21.9463 18.2591C22.072 18.3318 22.1818 18.4292 22.2689 18.5454C22.356 18.6616 22.4188 18.7942 22.4533 18.9353C22.4879 19.0763 22.4935 19.223 22.47 19.3663C22.4464 19.5096 22.3941 19.6467 22.3162 19.7692ZM20.8462 14.9231C20.5267 14.9231 20.2143 14.8283 19.9487 14.6508C19.683 14.4733 19.476 14.221 19.3537 13.9259C19.2315 13.6307 19.1995 13.3059 19.2618 12.9925C19.3241 12.6792 19.478 12.3914 19.7039 12.1654C19.9298 11.9395 20.2177 11.7857 20.531 11.7233C20.8444 11.661 21.1692 11.693 21.4643 11.8153C21.7595 11.9375 22.0118 12.1446 22.1893 12.4102C22.3668 12.6759 22.4615 12.9882 22.4615 13.3077C22.4615 13.7361 22.2913 14.147 21.9884 14.4499C21.6855 14.7529 21.2746 14.9231 20.8462 14.9231Z" fill="#1E78FF"/>
</svg>
