<svg width="59" height="32" viewBox="0 0 59 32" fill="none" xmlns="http://www.w3.org/2000/svg">
<path d="M0 16C0 7.16344 7.16344 0 16 0H43C51.8366 0 59 7.16344 59 16C59 24.8366 51.8366 32 43 32H16C7.16344 32 0 24.8366 0 16Z" fill="#7F3394"/>
<path d="M22.54 8.64V9.9C22.54 11.0867 22.5067 12.2 22.44 13.24C22.3867 14.28 22.2533 15.4733 22.04 16.82L19.88 16.64C20.2133 14.6133 20.38 12.5333 20.38 10.4H13.44V8.64H22.54ZM12.5 19.1C13.9667 19.1 15.1067 19.0933 15.92 19.08V13.74H18.08V19.02C20.3733 18.9133 22.1533 18.78 23.42 18.62L23.54 20.22C20.7933 20.6733 17.1933 20.9 12.74 20.9L12.5 19.1ZM24.34 6.8H26.52V14.08H29.1V15.9H26.52V24.6H24.34V6.8ZM45.3405 6.8V24.6H43.2605V6.8H45.3405ZM29.8405 19.58C31.0538 18.82 31.9605 17.7267 32.5605 16.3C33.1738 14.8733 33.4805 13.3267 33.4805 11.66V10.5H30.4205V8.7H38.4405V10.5H35.6205V11.66C35.6205 13.2733 35.9138 14.7533 36.5005 16.1C37.0871 17.4467 37.9805 18.4733 39.1805 19.18L37.8805 20.76C36.3338 19.8267 35.2271 18.2667 34.5605 16.08C34.2538 17.2133 33.8138 18.22 33.2405 19.1C32.6671 19.98 31.9738 20.68 31.1605 21.2L29.8405 19.58ZM37.1405 13.02H39.6805V7.14H41.7205V23.76H39.6805V14.8H37.1405V13.02Z" fill="white"/>
</svg>
