<svg width="30" height="30" viewBox="0 0 30 30" fill="none" xmlns="http://www.w3.org/2000/svg">
<path d="M6.25 6V5V6ZM23.75 6V5V6ZM3.75 21.5H2.75H3.75ZM8.75 18C8.19772 18 7.75 18.4477 7.75 19C7.75 19.5523 8.19772 20 8.75 20V18ZM21.25 20C21.8023 20 22.25 19.5523 22.25 19C22.25 18.4477 21.8023 18 21.25 18V20ZM15 20C15.5523 20 16 19.5523 16 19C16 18.4477 15.5523 18 15 18V20ZM18.125 18C17.5727 18 17.125 18.4477 17.125 19C17.125 19.5523 17.5727 20 18.125 20V18ZM4.75 8.5C4.75 8.10217 4.90804 7.72064 5.18934 7.43934L3.77513 6.02513C3.11875 6.6815 2.75 7.57174 2.75 8.5H4.75ZM5.18934 7.43934C5.47064 7.15804 5.85217 7 6.25 7V5C5.32174 5 4.4315 5.36875 3.77513 6.02513L5.18934 7.43934ZM6.25 7H23.75V5H6.25V7ZM23.75 7C24.1478 7 24.5294 7.15804 24.8107 7.43934L26.2249 6.02513C25.5685 5.36875 24.6783 5 23.75 5V7ZM24.8107 7.43934C25.092 7.72064 25.25 8.10218 25.25 8.5H27.25C27.25 7.57174 26.8813 6.6815 26.2249 6.02513L24.8107 7.43934ZM25.25 8.5V21.5H27.25V8.5H25.25ZM25.25 21.5C25.25 21.8978 25.092 22.2794 24.8107 22.5607L26.2249 23.9749C26.8813 23.3185 27.25 22.4283 27.25 21.5H25.25ZM24.8107 22.5607C24.5294 22.842 24.1478 23 23.75 23V25C24.6783 25 25.5685 24.6313 26.2249 23.9749L24.8107 22.5607ZM23.75 23H6.25V25H23.75V23ZM6.25 23C5.85218 23 5.47064 22.842 5.18934 22.5607L3.77513 23.9749C4.4315 24.6313 5.32174 25 6.25 25V23ZM5.18934 22.5607C4.90804 22.2794 4.75 21.8978 4.75 21.5H2.75C2.75 22.4283 3.11875 23.3185 3.77513 23.9749L5.18934 22.5607ZM4.75 21.5V8.5H2.75V21.5H4.75ZM8.75 20H15V18H8.75V20ZM18.125 20H21.25V18H18.125V20Z" fill="white"/>
<path d="M21.25 16C21.8023 16 22.25 15.5523 22.25 15C22.25 14.4477 21.8023 14 21.25 14L21.25 16ZM8.75 14C8.19771 14 7.75 14.4477 7.75 15C7.75 15.5523 8.19771 16 8.75 16L8.75 14ZM15 14C14.4477 14 14 14.4477 14 15C14 15.5523 14.4477 16 15 16L15 14ZM11.875 16C12.4273 16 12.875 15.5523 12.875 15C12.875 14.4477 12.4273 14 11.875 14L11.875 16ZM21.25 14L15 14L15 16L21.25 16L21.25 14ZM11.875 14L8.75 14L8.75 16L11.875 16L11.875 14Z" fill="white"/>
</svg>
