<svg width="30" height="30" viewBox="0 0 30 30" fill="none" xmlns="http://www.w3.org/2000/svg">
<path fill-rule="evenodd" clip-rule="evenodd" d="M8.71578 3.30168C8.33011 2.90636 7.69699 2.89854 7.30168 3.28422C6.90636 3.66989 6.89854 4.30301 7.28422 4.69832L7.57854 5H6.25C5.32174 5 4.4315 5.36875 3.77513 6.02513C3.11875 6.6815 2.75 7.57174 2.75 8.5V21.5C2.75 22.4283 3.11875 23.3185 3.77513 23.9749C4.4315 24.6313 5.32174 25 6.25 25H23.75C24.6462 25 25.5069 24.6563 26.156 24.0419L27.2842 25.1983C27.6699 25.5936 28.303 25.6015 28.6983 25.2158C29.0936 24.8301 29.1015 24.197 28.7158 23.8017L8.71578 3.30168ZM24.759 22.6099L21.9417 19.7222C21.7621 19.8943 21.5184 20 21.25 20H18.125C17.5727 20 17.125 19.5523 17.125 19C17.125 18.4477 17.5727 18 18.125 18H20.2615L18.3102 16H15.0005C14.4482 16 14.0005 15.5523 14.0005 15C14.0005 14.4477 14.4482 14 15.0005 14H16.359L9.49922 6.9687C9.41955 6.98913 9.33604 7 9.25 7H6.25C5.85217 7 5.47064 7.15804 5.18934 7.43934C4.90804 7.72064 4.75 8.10218 4.75 8.5V21.5C4.75 21.8978 4.90804 22.2794 5.18934 22.5607C5.47064 22.842 5.85218 23 6.25 23H23.75C24.124 23 24.4835 22.8604 24.759 22.6099ZM8.75 18C8.19772 18 7.75 18.4477 7.75 19C7.75 19.5523 8.19772 20 8.75 20H15C15.5523 20 16 19.5523 16 19C16 18.4477 15.5523 18 15 18H8.75ZM13.25 6C13.25 5.44772 13.6977 5 14.25 5H23.75C24.6783 5 25.5685 5.36875 26.2249 6.02513C26.8813 6.6815 27.25 7.57174 27.25 8.5V18C27.25 18.5523 26.8023 19 26.25 19C25.6977 19 25.25 18.5523 25.25 18V8.5C25.25 8.10218 25.092 7.72064 24.8107 7.43934C24.5294 7.15804 24.1478 7 23.75 7H14.25C13.6977 7 13.25 6.55229 13.25 6ZM11.8755 16C12.4278 16 12.8755 15.5523 12.8755 15C12.8755 14.4477 12.4278 14 11.8755 14H8.75051C8.19822 14 7.75051 14.4477 7.75051 15C7.75051 15.5523 8.19822 16 8.75051 16H11.8755Z" fill="white"/>
</svg>
