<svg width="16" height="20" viewBox="0 0 16 20" fill="none" xmlns="http://www.w3.org/2000/svg">
<path d="M4.97053 0.299683H2.81046C2.23757 0.299683 1.68815 0.548596 1.28306 0.991665C0.877969 1.43473 0.650391 2.03566 0.650391 2.66226V16.8377C0.650391 17.4643 0.877969 18.0652 1.28306 18.5083C1.68815 18.9514 2.23757 19.2003 2.81046 19.2003H4.97053C5.54342 19.2003 6.09284 18.9514 6.49793 18.5083C6.90302 18.0652 7.1306 17.4643 7.1306 16.8377V2.66226C7.1306 2.03566 6.90302 1.43473 6.49793 0.991665C6.09284 0.548596 5.54342 0.299683 4.97053 0.299683Z" fill="white"/>
<path d="M13.6108 0.299683H11.4507C10.8779 0.299683 10.3284 0.548596 9.92334 0.991665C9.51825 1.43473 9.29067 2.03566 9.29067 2.66226V16.8377C9.29067 17.4643 9.51825 18.0652 9.92334 18.5083C10.3284 18.9514 10.8779 19.2003 11.4507 19.2003H13.6108C14.1837 19.2003 14.7331 18.9514 15.1382 18.5083C15.5433 18.0652 15.7709 17.4643 15.7709 16.8377V2.66226C15.7709 2.03566 15.5433 1.43473 15.1382 0.991665C14.7331 0.548596 14.1837 0.299683 13.6108 0.299683Z" fill="white"/>
</svg>
