<svg width="134" height="134" viewBox="0 0 134 134" fill="none" xmlns="http://www.w3.org/2000/svg">
<g filter="url(#filter0_d_125_90060)">
<circle cx="67" cy="63" r="51" fill="#474747" fill-opacity="0.2"/>
<g clip-path="url(#clip0_125_90060)">
<g filter="url(#filter1_d_125_90060)">
<path d="M51.5 42.3333V83.6667C51.4999 84.1263 51.6224 84.5777 51.8549 84.9742C52.0874 85.3707 52.4215 85.698 52.8227 85.9223C53.2239 86.1466 53.6777 86.2598 54.1373 86.2502C54.5968 86.2406 55.0455 86.1085 55.437 85.8677L89.0203 65.201C89.3965 64.9699 89.7071 64.6462 89.9226 64.2609C90.138 63.8756 90.2512 63.4415 90.2512 63C90.2512 62.5585 90.138 62.1244 89.9226 61.7391C89.7071 61.3538 89.3965 61.0301 89.0203 60.799L55.437 40.1323C55.0455 39.8915 54.5968 39.7594 54.1373 39.7498C53.6777 39.7402 53.2239 39.8534 52.8227 40.0777C52.4215 40.302 52.0874 40.6293 51.8549 41.0258C51.6224 41.4223 51.4999 41.8737 51.5 42.3333Z" fill="white"/>
</g>
</g>
</g>
<defs>
<filter id="filter0_d_125_90060" x="0" y="0" width="134" height="134" filterUnits="userSpaceOnUse" color-interpolation-filters="sRGB">
<feFlood flood-opacity="0" result="BackgroundImageFix"/>
<feColorMatrix in="SourceAlpha" type="matrix" values="0 0 0 0 0 0 0 0 0 0 0 0 0 0 0 0 0 0 127 0" result="hardAlpha"/>
<feOffset dy="4"/>
<feGaussianBlur stdDeviation="8"/>
<feComposite in2="hardAlpha" operator="out"/>
<feColorMatrix type="matrix" values="0 0 0 0 0.278431 0 0 0 0 0.286275 0 0 0 0 0.301961 0 0 0 0.24 0"/>
<feBlend mode="normal" in2="BackgroundImageFix" result="effect1_dropShadow_125_90060"/>
<feBlend mode="normal" in="SourceGraphic" in2="effect1_dropShadow_125_90060" result="shape"/>
</filter>
<filter id="filter1_d_125_90060" x="35.5" y="27.7493" width="70.751" height="78.5015" filterUnits="userSpaceOnUse" color-interpolation-filters="sRGB">
<feFlood flood-opacity="0" result="BackgroundImageFix"/>
<feColorMatrix in="SourceAlpha" type="matrix" values="0 0 0 0 0 0 0 0 0 0 0 0 0 0 0 0 0 0 127 0" result="hardAlpha"/>
<feOffset dy="4"/>
<feGaussianBlur stdDeviation="8"/>
<feComposite in2="hardAlpha" operator="out"/>
<feColorMatrix type="matrix" values="0 0 0 0 0.278431 0 0 0 0 0.286275 0 0 0 0 0.301961 0 0 0 0.24 0"/>
<feBlend mode="normal" in2="BackgroundImageFix" result="effect1_dropShadow_125_90060"/>
<feBlend mode="normal" in="SourceGraphic" in2="effect1_dropShadow_125_90060" result="shape"/>
</filter>
<clipPath id="clip0_125_90060">
<rect width="62" height="62" fill="white" transform="translate(36 32)"/>
</clipPath>
</defs>
</svg>
