<svg width="30" height="30" viewBox="0 0 30 30" fill="none" xmlns="http://www.w3.org/2000/svg">
<path d="M12.1143 6H10.0571C9.51155 6 8.98831 6.23705 8.60252 6.65901C8.21673 7.08097 8 7.65326 8 8.25V21.75C8 22.3467 8.21673 22.919 8.60252 23.341C8.98831 23.7629 9.51155 24 10.0571 24H12.1143C12.6599 24 13.1831 23.7629 13.5689 23.341C13.9547 22.919 14.1714 22.3467 14.1714 21.75V8.25C14.1714 7.65326 13.9547 7.08097 13.5689 6.65901C13.1831 6.23705 12.6599 6 12.1143 6Z" fill="white"/>
<path d="M20.3429 6H18.2857C17.7401 6 17.2169 6.23705 16.8311 6.65901C16.4453 7.08097 16.2286 7.65326 16.2286 8.25V21.75C16.2286 22.3467 16.4453 22.919 16.8311 23.341C17.2169 23.7629 17.7401 24 18.2857 24H20.3429C20.8884 24 21.4117 23.7629 21.7975 23.341C22.1833 22.919 22.4 22.3467 22.4 21.75V8.25C22.4 7.65326 22.1833 7.08097 21.7975 6.65901C21.4117 6.23705 20.8884 6 20.3429 6Z" fill="white"/>
<path d="M12.1143 6H10.0571C9.51155 6 8.98831 6.23705 8.60252 6.65901C8.21673 7.08097 8 7.65326 8 8.25V21.75C8 22.3467 8.21673 22.919 8.60252 23.341C8.98831 23.7629 9.51155 24 10.0571 24H12.1143C12.6599 24 13.1831 23.7629 13.5689 23.341C13.9547 22.919 14.1714 22.3467 14.1714 21.75V8.25C14.1714 7.65326 13.9547 7.08097 13.5689 6.65901C13.1831 6.23705 12.6599 6 12.1143 6Z" stroke="white"/>
<path d="M20.3429 6H18.2857C17.7401 6 17.2169 6.23705 16.8311 6.65901C16.4453 7.08097 16.2286 7.65326 16.2286 8.25V21.75C16.2286 22.3467 16.4453 22.919 16.8311 23.341C17.2169 23.7629 17.7401 24 18.2857 24H20.3429C20.8884 24 21.4117 23.7629 21.7975 23.341C22.1833 22.919 22.4 22.3467 22.4 21.75V8.25C22.4 7.65326 22.1833 7.08097 21.7975 6.65901C21.4117 6.23705 20.8884 6 20.3429 6Z" stroke="white"/>
</svg>
