<svg width="30" height="30" viewBox="0 0 30 30" fill="none" xmlns="http://www.w3.org/2000/svg">
<path d="M7.5 5.00035V25.0004C7.49994 25.2228 7.55922 25.4412 7.67173 25.633C7.78424 25.8249 7.9459 25.9832 8.14003 26.0918C8.33416 26.2003 8.55374 26.2551 8.77611 26.2504C8.99847 26.2458 9.21557 26.1819 9.405 26.0654L25.655 16.0654C25.837 15.9535 25.9873 15.7969 26.0916 15.6105C26.1958 15.424 26.2506 15.214 26.2506 15.0004C26.2506 14.7867 26.1958 14.5767 26.0916 14.3902C25.9873 14.2038 25.837 14.0472 25.655 13.9354L9.405 3.93535C9.21557 3.81881 8.99847 3.75492 8.77611 3.75027C8.55374 3.74563 8.33416 3.8004 8.14003 3.90893C7.9459 4.01746 7.78424 4.17582 7.67173 4.36768C7.55922 4.55954 7.49994 4.77794 7.5 5.00035Z" fill="white"/>
</svg>
