<svg width="30" height="30" viewBox="0 0 31 31" fill="none" xmlns="http://www.w3.org/2000/svg">
<path fill-rule="evenodd" clip-rule="evenodd" d="M7.18006 2.88767C6.80426 2.48296 6.17153 2.45952 5.76681 2.83533C5.3621 3.21113 5.33867 3.84386 5.71447 4.24857L26.8844 27.0469C27.2602 27.4517 27.8929 27.4751 28.2976 27.0993C28.7023 26.7235 28.7258 26.0908 28.35 25.686L7.18006 2.88767ZM2 7.92846C2 6.51934 2.84764 5.26899 4.0914 4.76112C4.18933 4.94123 4.31117 5.11212 4.45709 5.26926L5.63425 6.53697C5.56123 6.53203 5.48867 6.52736 5.41666 6.52293C4.66272 6.47659 4 7.09039 4 7.92846V21.8607C4 22.6824 4.68224 23.4055 5.581 23.4617C6.80699 23.5384 8.31096 23.6909 9.50515 24.006C10.9755 24.394 12.6753 25.2133 13.9359 25.8853C14.1175 25.9821 14.3064 26.0608 14.5 26.1214V16.0847L16.5 18.2385V26.1214C16.6936 26.0608 16.8825 25.9821 17.0641 25.8853C18.3247 25.2133 20.0245 24.394 21.4949 24.006C21.5907 23.9807 21.6885 23.9565 21.7879 23.9333L23.3996 25.6689C22.8983 25.7408 22.4216 25.8299 22.0051 25.9398C20.7719 26.2653 19.2429 26.9903 18.0049 27.6502C16.4449 28.4818 14.5551 28.4818 12.9951 27.6502C11.7571 26.9903 10.2281 26.2653 8.99485 25.9398C7.99727 25.6766 6.65371 25.5327 5.45615 25.4578C3.58287 25.3406 2 23.8164 2 21.8607V7.92846ZM6.99254 11.9613L11.7833 13.159L12.75 14.2001C12.7486 14.2741 12.7389 14.3491 12.7201 14.424C12.5862 14.9598 12.0433 15.2855 11.5075 15.1516L6.50746 13.9016C5.97167 13.7676 5.64591 13.2247 5.77986 12.6889C5.91381 12.1531 6.45674 11.8274 6.99254 11.9613ZM18.7509 13.3146L20.2751 14.956L24.4925 13.9016C25.0283 13.7676 25.3541 13.2247 25.2201 12.6889C25.0862 12.1531 24.5433 11.8274 24.0075 11.9613L19.0075 13.2113C18.9153 13.2343 18.8294 13.2695 18.7509 13.3146ZM22.4896 17.3408L24.0432 19.0139L24.4925 18.9016C25.0283 18.7676 25.3541 18.2247 25.2201 17.6889C25.0862 17.1531 24.5433 16.8274 24.0075 16.9613L22.4896 17.3408ZM27 21.8607C27 21.9639 26.9892 22.0655 26.9687 22.1644L28.4469 23.7564C28.7957 23.2104 29 22.5634 29 21.8607V7.8477C29 5.98599 27.5168 4.3861 25.5677 4.45399C24.1439 4.50359 22.2772 4.65173 20.8382 5.08252C19.5871 5.45706 18.1829 6.18743 17.0914 6.81914C16.0871 7.40035 14.837 7.42912 13.8203 6.89151C13.2514 6.59073 12.5997 6.26398 11.9234 5.96186L16.5 10.8905V9.15973C17.0543 9.04331 17.593 8.83961 18.0932 8.55015C19.1553 7.93544 20.3938 7.30326 21.4118 6.9985C22.5901 6.64575 24.2395 6.50147 25.6373 6.45278C26.3677 6.42734 27 7.02828 27 7.8477V21.8607ZM5.77986 17.6889C5.91381 17.1531 6.45674 16.8274 6.99254 16.9613L11.9925 18.2113C12.5283 18.3453 12.8541 18.8882 12.7201 19.424C12.5862 19.9598 12.0433 20.2855 11.5075 20.1516L6.50746 18.9016C5.97167 18.7676 5.64591 18.2247 5.77986 17.6889Z" fill="white"/>
</svg>
