<svg width="30" height="30" viewBox="0 0 30 30" fill="none" xmlns="http://www.w3.org/2000/svg">
<path fill-rule="evenodd" clip-rule="evenodd" d="M28.5 7.16629C28.5 5.30459 27.0168 3.7047 25.0677 3.77259C23.6439 3.82219 21.7772 3.97033 20.3382 4.40112C19.0871 4.77566 17.6829 5.50603 16.5914 6.13774L17.077 6.97673L16.5914 6.13774C15.5871 6.71895 14.337 6.74772 13.3203 6.21011C12.0751 5.55171 10.4328 4.76893 9.00515 4.39221C7.79794 4.07365 6.27366 3.92116 5.03935 3.8453C3.05303 3.72322 1.5 5.33969 1.5 7.24706V21.1793C1.5 23.135 3.08287 24.6592 4.95615 24.7764C6.15371 24.8513 7.49727 24.9952 8.49485 25.2584C9.72815 25.5838 11.2571 26.3089 12.4951 26.9688C14.0551 27.8004 15.9449 27.8004 17.5049 26.9688C18.7429 26.3089 20.2719 25.5838 21.5051 25.2584C22.5027 24.9952 23.8463 24.8513 25.0438 24.7764C26.9171 24.6592 28.5 23.135 28.5 21.1793V7.16629ZM20.9118 6.3171C22.0901 5.96435 23.7395 5.82007 25.1373 5.77138C25.8677 5.74594 26.5 6.34688 26.5 7.16629V21.1793C26.5 22.001 25.8178 22.7241 24.919 22.7803C23.693 22.857 22.189 23.0095 20.9949 23.3246C19.5245 23.7126 17.8247 24.5319 16.5641 25.2039C16.3825 25.3007 16.1936 25.3794 16 25.44V8.47833C16.5543 8.36191 17.093 8.15821 17.5932 7.86875C18.6553 7.25404 19.8938 6.62186 20.9118 6.3171ZM14 8.52179C13.4428 8.42946 12.8971 8.24874 12.3854 7.97815C11.1651 7.33292 9.69024 6.64145 8.49485 6.32601C7.48578 6.05974 6.12327 5.91569 4.91666 5.84153C4.16272 5.79519 3.5 6.40899 3.5 7.24706V21.1793C3.5 22.001 4.18224 22.7241 5.081 22.7803C6.30699 22.857 7.81096 23.0095 9.00515 23.3246C10.4755 23.7126 12.1753 24.5319 13.4359 25.2039C13.6175 25.3007 13.8064 25.3794 14 25.44V8.52179ZM5.27986 12.0075C5.41381 11.4717 5.95674 11.146 6.49254 11.2799L11.4925 12.5299C12.0283 12.6639 12.3541 13.2068 12.2201 13.7426C12.0862 14.2784 11.5433 14.6041 11.0075 14.4702L6.00746 13.2202C5.47167 13.0862 5.14591 12.5433 5.27986 12.0075ZM23.5075 11.2799C24.0433 11.146 24.5862 11.4717 24.7201 12.0075C24.8541 12.5433 24.5283 13.0862 23.9925 13.2202L18.9925 14.4702C18.4567 14.6041 17.9138 14.2784 17.7799 13.7426C17.6459 13.2068 17.9717 12.6639 18.5075 12.5299L23.5075 11.2799ZM5.27986 17.0075C5.41381 16.4717 5.95674 16.146 6.49254 16.2799L11.4925 17.5299C12.0283 17.6639 12.3541 18.2068 12.2201 18.7426C12.0862 19.2784 11.5433 19.6041 11.0075 19.4702L6.00746 18.2202C5.47167 18.0862 5.14591 17.5433 5.27986 17.0075ZM23.5075 16.2799C24.0433 16.146 24.5862 16.4717 24.7201 17.0075C24.8541 17.5433 24.5283 18.0862 23.9925 18.2202L18.9925 19.4702C18.4567 19.6041 17.9138 19.2784 17.7799 18.7426C17.6459 18.2068 17.9717 17.6639 18.5075 17.5299L23.5075 16.2799Z" fill="white"/>
</svg>
