<svg width="30" height="30" viewBox="0 0 30 30" fill="none" xmlns="http://www.w3.org/2000/svg">
<path fill-rule="evenodd" clip-rule="evenodd" d="M15 9.5C14.1716 9.5 13.5 8.82843 13.5 8C13.5 7.17157 14.1716 6.5 15 6.5C15.8284 6.5 16.5 7.17157 16.5 8C16.5 8.82843 15.8284 9.5 15 9.5ZM15 16.5C14.1716 16.5 13.5 15.8284 13.5 15C13.5 14.1716 14.1716 13.5 15 13.5C15.8284 13.5 16.5 14.1716 16.5 15C16.5 15.8284 15.8284 16.5 15 16.5ZM13.5 22C13.5 22.8284 14.1716 23.5 15 23.5C15.8284 23.5 16.5 22.8284 16.5 22C16.5 21.1716 15.8284 20.5 15 20.5C14.1716 20.5 13.5 21.1716 13.5 22Z" fill="white"/>
</svg>
