<svg width="72" height="72" viewBox="0 0 72 72" fill="none" xmlns="http://www.w3.org/2000/svg">
<path d="M14.4428 27.0608C14.866 26.0405 16.0362 25.5565 17.0564 25.9797C18.0767 26.403 18.5607 27.5731 18.1375 28.5934L14.4428 27.0608ZM50.9283 20.7654L52.3272 19.3361L52.3282 19.3371L50.9283 20.7654ZM24.0718 20.7315C23.2047 21.4158 21.9471 21.2675 21.2628 20.4004C20.5785 19.5333 20.7268 18.2757 21.5939 17.5915L24.0718 20.7315ZM23.6888 10.6549C24.2411 9.69831 25.4643 9.37056 26.4209 9.92285C27.3774 10.4751 27.7052 11.6983 27.1529 12.6549L23.6888 10.6549ZM21.5234 18.4055L20.5234 20.1375C19.5668 19.5852 19.2391 18.362 19.7914 17.4055L21.5234 18.4055ZM29.274 20.5708C30.2306 21.1231 30.5583 22.3463 30.006 23.3029C29.4537 24.2595 28.2306 24.5872 27.274 24.0349L29.274 20.5708ZM18.1375 28.5934C16.7928 31.8353 16.3559 35.382 16.8737 38.8533L12.9174 39.4434C12.2925 35.254 12.8198 30.9734 14.4428 27.0608L18.1375 28.5934ZM16.8737 38.8533C17.3915 42.3246 18.8444 45.5894 21.0767 48.2977L17.9901 50.8419C15.2959 47.5733 13.5424 43.6329 12.9174 39.4434L16.8737 38.8533ZM21.0767 48.2977C23.309 51.006 26.2364 53.0555 29.545 54.2265L28.2105 57.9973C24.2173 56.584 20.6842 54.1105 17.9901 50.8419L21.0767 48.2977ZM29.545 54.2265C32.8536 55.3975 36.4185 55.6457 39.8575 54.9446L40.6565 58.864C36.5061 59.7102 32.2036 59.4105 28.2105 57.9973L29.545 54.2265ZM39.8575 54.9446C43.2964 54.2435 46.4797 52.6195 49.0658 50.2468L51.77 53.1942C48.6488 56.0578 44.807 58.0179 40.6565 58.864L39.8575 54.9446ZM49.0658 50.2468C51.6519 47.8741 53.5434 44.8421 54.5373 41.4761L58.3735 42.6089C57.174 46.6713 54.8912 50.3306 51.77 53.1942L49.0658 50.2468ZM54.5373 41.4761C55.5312 38.1101 55.5901 34.537 54.7077 31.1401L58.5792 30.1344C59.6442 34.2341 59.5731 38.5465 58.3735 42.6089L54.5373 41.4761ZM54.7077 31.1401C53.8253 27.7431 52.0348 24.6505 49.5283 22.1938L52.3282 19.3371C55.3533 22.3021 57.5142 26.0346 58.5792 30.1344L54.7077 31.1401ZM49.5293 22.1947C42.5637 15.3771 31.6952 14.7156 24.0718 20.7315L21.5939 17.5915C30.8258 10.3063 43.9508 11.1376 52.3272 19.3361L49.5293 22.1947ZM27.1529 12.6549L23.2555 19.4055L19.7914 17.4055L23.6888 10.6549L27.1529 12.6549ZM22.5234 16.6734L29.274 20.5708L27.274 24.0349L20.5234 20.1375L22.5234 16.6734Z" fill="#E0E2E6"/>
<path d="M30.7786 27.817V43.042L28.7836 43.021V29.98L26.2216 31.513L25.3186 29.875L28.8046 27.817H30.7786ZM38.9123 41.425C41.0753 41.425 42.5453 38.968 42.5453 35.419C42.5453 31.849 41.0753 29.413 38.9123 29.413C36.7493 29.413 35.2793 31.849 35.2793 35.419C35.2793 38.968 36.7493 41.425 38.9123 41.425ZM33.2843 35.419C33.2843 30.862 35.6153 27.649 38.9123 27.649C42.2093 27.649 44.5403 30.862 44.5403 35.419C44.5403 39.976 42.2093 43.189 38.9123 43.189C35.6153 43.189 33.2843 39.976 33.2843 35.419Z" fill="#E0E2E6"/>
</svg>
