<svg width="72" height="72" viewBox="0 0 72 72" fill="none" xmlns="http://www.w3.org/2000/svg">
<path d="M57.5547 27.0608C57.1315 26.0405 55.9613 25.5565 54.941 25.9797C53.9207 26.403 53.4367 27.5731 53.8599 28.5934L57.5547 27.0608ZM21.0692 20.7654L19.6702 19.3361L19.6692 19.3371L21.0692 20.7654ZM47.9257 20.7315C48.7928 21.4158 50.0504 21.2675 50.7346 20.4004C51.4189 19.5333 51.2707 18.2757 50.4036 17.5915L47.9257 20.7315ZM48.3086 10.6549C47.7563 9.69831 46.5332 9.37056 45.5766 9.92285C44.62 10.4751 44.2922 11.6983 44.8445 12.6549L48.3086 10.6549ZM50.474 18.4055L51.474 20.1375C52.4306 19.5852 52.7583 18.362 52.2061 17.4055L50.474 18.4055ZM42.7235 20.5708C41.7669 21.1231 41.4391 22.3463 41.9914 23.3029C42.5437 24.2595 43.7669 24.5872 44.7235 24.0349L42.7235 20.5708ZM53.8599 28.5934C55.2047 31.8353 55.6416 35.382 55.1238 38.8533L59.08 39.4434C59.7049 35.254 59.1776 30.9734 57.5547 27.0608L53.8599 28.5934ZM55.1238 38.8533C54.606 42.3246 53.153 45.5894 50.9207 48.2977L54.0073 50.8419C56.7015 47.5733 58.4551 43.6329 59.08 39.4434L55.1238 38.8533ZM50.9207 48.2977C48.6884 51.006 45.761 53.0555 42.4524 54.2265L43.787 57.9973C47.7801 56.584 51.3132 54.1105 54.0073 50.8419L50.9207 48.2977ZM42.4524 54.2265C39.1438 55.3975 35.5789 55.6457 32.14 54.9446L31.3409 58.864C35.4914 59.7102 39.7939 59.4105 43.787 57.9973L42.4524 54.2265ZM32.14 54.9446C28.701 54.2435 25.5178 52.6195 22.9316 50.2468L20.2274 53.1942C23.3486 56.0578 27.1905 58.0179 31.3409 58.864L32.14 54.9446ZM22.9316 50.2468C20.3455 47.8741 18.4541 44.8421 17.4601 41.4761L13.6239 42.6089C14.8235 46.6713 17.1063 50.3306 20.2274 53.1942L22.9316 50.2468ZM17.4601 41.4761C16.4662 38.1101 16.4073 34.537 17.2897 31.1401L13.4182 30.1344C12.3532 34.2341 12.4243 38.5465 13.6239 42.6089L17.4601 41.4761ZM17.2897 31.1401C18.1721 27.7431 19.9626 24.6505 22.4691 22.1938L19.6692 19.3371C16.6441 22.3021 14.4832 26.0346 13.4182 30.1344L17.2897 31.1401ZM22.4681 22.1947C29.4337 15.3771 40.3022 14.7156 47.9257 20.7315L50.4036 17.5915C41.1717 10.3063 28.0467 11.1376 19.6702 19.3361L22.4681 22.1947ZM44.8445 12.6549L48.742 19.4055L52.2061 17.4055L48.3086 10.6549L44.8445 12.6549ZM49.474 16.6734L42.7235 20.5708L44.7235 24.0349L51.474 20.1375L49.474 16.6734Z" fill="#E0E2E6"/>
<path d="M30.7786 27.817V43.042L28.7836 43.021V29.98L26.2216 31.513L25.3186 29.875L28.8046 27.817H30.7786ZM38.9123 41.425C41.0753 41.425 42.5453 38.968 42.5453 35.419C42.5453 31.849 41.0753 29.413 38.9123 29.413C36.7493 29.413 35.2793 31.849 35.2793 35.419C35.2793 38.968 36.7493 41.425 38.9123 41.425ZM33.2843 35.419C33.2843 30.862 35.6153 27.649 38.9123 27.649C42.2093 27.649 44.5403 30.862 44.5403 35.419C44.5403 39.976 42.2093 43.189 38.9123 43.189C35.6153 43.189 33.2843 39.976 33.2843 35.419Z" fill="#E0E2E6"/>
</svg>
