<svg width="30" height="30" viewBox="0 0 30 30" fill="none" xmlns="http://www.w3.org/2000/svg">
<path d="M4.375 18.75V11.875L7.5 11.25L13.125 5.625V24.375L7.5 18.75H4.375Z" fill="white"/>
<path d="M7.5 18.75L8.28935 18.1361C8.0999 17.8925 7.80859 17.75 7.5 17.75V18.75ZM3.75 17.5H2.75H3.75ZM7.5 11.25V12.25C7.80859 12.25 8.0999 12.1076 8.28935 11.864L7.5 11.25ZM11.875 5.62503L12.6644 6.23897C12.7024 6.1901 12.7357 6.13781 12.7641 6.08276L11.875 5.62503ZM13.75 6.25003L12.7641 6.08276C12.7547 6.13802 12.75 6.19398 12.75 6.25003H13.75ZM13.75 23.75H12.75C12.75 23.8061 12.7547 23.862 12.7641 23.9173L13.75 23.75ZM11.875 24.375L12.7641 23.9173C12.7357 23.8622 12.7024 23.81 12.6644 23.7611L11.875 24.375ZM7.5 17.75H5V19.75H7.5V17.75ZM5 17.75C4.9337 17.75 4.87011 17.7237 4.82322 17.6768L3.40901 19.091C3.83097 19.513 4.40326 19.75 5 19.75V17.75ZM4.82322 17.6768C4.77634 17.6299 4.75 17.5663 4.75 17.5H2.75C2.75 18.0968 2.98705 18.6691 3.40901 19.091L4.82322 17.6768ZM4.75 17.5V12.5H2.75V17.5H4.75ZM4.75 12.5C4.75 12.4337 4.77634 12.3701 4.82322 12.3233L3.40901 10.909C2.98705 11.331 2.75 11.9033 2.75 12.5H4.75ZM4.82322 12.3233C4.87011 12.2764 4.9337 12.25 5 12.25V10.25C4.40326 10.25 3.83097 10.4871 3.40901 10.909L4.82322 12.3233ZM5 12.25H7.5V10.25H5V12.25ZM8.28935 11.864L12.6644 6.23897L11.0856 5.01109L6.71065 10.6361L8.28935 11.864ZM12.7641 6.08276V6.08276L12.0096 4.23052C11.5675 4.4106 11.2044 4.74287 10.9859 5.16729L12.7641 6.08276ZM12.7641 6.08276V6.08276L13.3965 4.1854C12.9437 4.03444 12.4517 4.05044 12.0096 4.23052L12.7641 6.08276ZM12.7641 6.08276V6.08276L14.479 5.05364C14.2334 4.64432 13.8494 4.33635 13.3965 4.1854L12.7641 6.08276ZM12.7641 6.08276V6.08276L14.7359 6.41729C14.8158 5.94665 14.7246 5.46296 14.479 5.05364L12.7641 6.08276ZM12.75 6.25003V23.75H14.75V6.25003H12.75ZM12.7641 23.9173L14.479 24.9464C14.7246 24.5371 14.8158 24.0534 14.7359 23.5828L12.7641 23.9173ZM12.7641 23.9173L13.3965 25.8147C13.8494 25.6637 14.2334 25.3557 14.479 24.9464L12.7641 23.9173ZM12.7641 23.9173L12.0096 25.7695C12.4517 25.9496 12.9437 25.9656 13.3965 25.8147L12.7641 23.9173ZM12.7641 23.9173L10.9859 24.8328C11.2044 25.2572 11.5675 25.5895 12.0096 25.7695L12.7641 23.9173ZM12.6644 23.7611L8.28935 18.1361L6.71065 19.364L11.0856 24.989L12.6644 23.7611Z" fill="white"/>
<path d="M20.6364 10.6136C20.2849 10.2621 19.7151 10.2621 19.3636 10.6136C19.0121 10.9651 19.0121 11.5349 19.3636 11.8864L20.6364 10.6136ZM26.8636 19.3864C27.2151 19.7379 27.7849 19.7379 28.1364 19.3864C28.4879 19.0349 28.4879 18.4651 28.1364 18.1136L26.8636 19.3864ZM28.1364 11.8864C28.4879 11.5349 28.4879 10.9651 28.1364 10.6136C27.7849 10.2621 27.2151 10.2621 26.8636 10.6136L28.1364 11.8864ZM19.3636 18.1136C19.0121 18.4651 19.0121 19.0349 19.3636 19.3864C19.7151 19.7379 20.2849 19.7379 20.6364 19.3864L19.3636 18.1136ZM19.3636 11.8864L26.8636 19.3864L28.1364 18.1136L20.6364 10.6136L19.3636 11.8864ZM26.8636 10.6136L19.3636 18.1136L20.6364 19.3864L28.1364 11.8864L26.8636 10.6136Z" fill="#F9F9FA"/>
</svg>
