<svg width="30" height="30" viewBox="0 0 30 30" fill="none" xmlns="http://www.w3.org/2000/svg">
<path d="M4.375 18.75V11.875L7.5 11.25L13.125 5.625V24.375L7.5 18.75H4.375Z" fill="white"/>
<path d="M18.75 9.99999C19.5262 10.5822 20.1562 11.3371 20.5902 12.2049C21.0241 13.0728 21.25 14.0297 21.25 15C21.25 15.9703 21.0241 16.9272 20.5902 17.7951C20.1562 18.6629 19.5262 19.4178 18.75 20M7.5 18.75H5C4.66848 18.75 4.35054 18.6183 4.11612 18.3839C3.8817 18.1495 3.75 17.8315 3.75 17.5V12.5C3.75 12.1685 3.8817 11.8505 4.11612 11.6161C4.35054 11.3817 4.66848 11.25 5 11.25H7.5L11.875 5.625C11.9843 5.41278 12.1658 5.24665 12.3869 5.15661C12.6079 5.06657 12.8539 5.05857 13.0803 5.13405C13.3068 5.20953 13.4987 5.36351 13.6215 5.56817C13.7444 5.77283 13.7899 6.01467 13.75 6.25V23.75C13.7899 23.9853 13.7444 24.2272 13.6215 24.4318C13.4987 24.6365 13.3068 24.7905 13.0803 24.8659C12.8539 24.9414 12.6079 24.9334 12.3869 24.8434C12.1658 24.7533 11.9843 24.5872 11.875 24.375L7.5 18.75Z" stroke="white" stroke-width="2" stroke-linecap="round" stroke-linejoin="round"/>
<path d="M22.125 6.25C23.43 7.30456 24.4825 8.63766 25.2056 10.1517C25.9287 11.6656 26.3039 13.3222 26.3039 15C26.3039 16.6778 25.9287 18.3344 25.2056 19.8483C24.4825 21.3623 23.43 22.6954 22.125 23.75" stroke="white" stroke-width="1.6" stroke-linecap="round" stroke-linejoin="round"/>
</svg>
