<svg width="30" height="30" viewBox="0 0 30 30" fill="none" xmlns="http://www.w3.org/2000/svg">
<path fill-rule="evenodd" clip-rule="evenodd" d="M5 10.5C5 11.0523 5.44772 11.5 6 11.5L8.3 11.5C10.0673 11.5 11.5 10.0673 11.5 8.3L11.5 6C11.5 5.44771 11.0523 5 10.5 5C9.94771 5 9.5 5.44771 9.5 6L9.5 8.3C9.5 8.96274 8.96274 9.5 8.3 9.5L6 9.5C5.44772 9.5 5 9.94772 5 10.5Z" fill="white"/>
<path fill-rule="evenodd" clip-rule="evenodd" d="M25 10.5C25 11.0523 24.5523 11.5 24 11.5L21.7 11.5C19.9327 11.5 18.5 10.0673 18.5 8.3L18.5 6C18.5 5.44771 18.9477 5 19.5 5C20.0523 5 20.5 5.44771 20.5 6L20.5 8.3C20.5 8.96274 21.0373 9.5 21.7 9.5L24 9.5C24.5523 9.5 25 9.94772 25 10.5Z" fill="white"/>
<path fill-rule="evenodd" clip-rule="evenodd" d="M25 19.5C25 18.9477 24.5523 18.5 24 18.5L21.7 18.5C19.9327 18.5 18.5 19.9327 18.5 21.7L18.5 24C18.5 24.5523 18.9477 25 19.5 25C20.0523 25 20.5 24.5523 20.5 24L20.5 21.7C20.5 21.0373 21.0373 20.5 21.7 20.5L24 20.5C24.5523 20.5 25 20.0523 25 19.5Z" fill="white"/>
<path fill-rule="evenodd" clip-rule="evenodd" d="M5 19.5C5 18.9477 5.44772 18.5 6 18.5L8.3 18.5C10.0673 18.5 11.5 19.9327 11.5 21.7L11.5 24C11.5 24.5523 11.0523 25 10.5 25C9.94771 25 9.5 24.5523 9.5 24L9.5 21.7C9.5 21.0373 8.96274 20.5 8.3 20.5L6 20.5C5.44771 20.5 5 20.0523 5 19.5Z" fill="white"/>
</svg>
