<svg width="22" height="22" viewBox="0 0 22 22" fill="none" xmlns="http://www.w3.org/2000/svg">
<path d="M21.4142 3.41422C22.1953 2.63317 22.1953 1.36684 21.4142 0.585791C20.6332 -0.195258 19.3668 -0.195258 18.5858 0.58579L21.4142 3.41422ZM0.585787 18.5858C-0.195262 19.3668 -0.195262 20.6332 0.585786 21.4142C1.36683 22.1953 2.63316 22.1953 3.41421 21.4142L0.585787 18.5858ZM18.5858 21.4142C19.3668 22.1953 20.6332 22.1953 21.4142 21.4142C22.1953 20.6332 22.1953 19.3668 21.4142 18.5858L18.5858 21.4142ZM3.41421 0.585786C2.63316 -0.195262 1.36683 -0.195262 0.585786 0.585787C-0.195262 1.36684 -0.195262 2.63317 0.585787 3.41421L3.41421 0.585786ZM18.5858 0.58579L9.58579 9.58579L12.4142 12.4142L21.4142 3.41422L18.5858 0.58579ZM9.58579 9.58579L0.585787 18.5858L3.41421 21.4142L12.4142 12.4142L9.58579 9.58579ZM21.4142 18.5858L12.4142 9.58579L9.58579 12.4142L18.5858 21.4142L21.4142 18.5858ZM12.4142 9.58579L3.41421 0.585786L0.585787 3.41421L9.58579 12.4142L12.4142 9.58579Z" fill="black"/>
</svg>
