<svg width="28" height="28" viewBox="0 0 28 28" fill="none" xmlns="http://www.w3.org/2000/svg">
<path d="M14 -0.00390625C11.2311 -0.00390625 8.52431 0.817179 6.22202 2.35552C3.91973 3.89386 2.12532 6.08036 1.06569 8.63852C0.00606598 11.1967 -0.271181 14.0116 0.269012 16.7274C0.809205 19.4431 2.14258 21.9377 4.10051 23.8956C6.05845 25.8535 8.55301 27.1869 11.2687 27.7271C13.9845 28.2673 16.7994 27.99 19.3576 26.9304C21.9157 25.8708 24.1022 24.0764 25.6406 21.7741C27.1789 19.4718 28 16.765 28 13.9961C27.9961 10.2843 26.5198 6.72559 23.8952 4.10093C21.2705 1.47627 17.7118 1.35056e-05 14 -0.00390625ZM14 25.8422C11.6571 25.8422 9.36672 25.1475 7.41863 23.8458C5.47054 22.5441 3.95219 20.694 3.05559 18.5294C2.15898 16.3648 1.92439 13.983 2.38147 11.685C2.83856 9.38709 3.9668 7.27631 5.62351 5.6196C7.28022 3.96288 9.39101 2.83465 11.6889 2.37756C13.9869 1.92047 16.3687 2.15507 18.5333 3.05167C20.6979 3.94828 22.548 5.46663 23.8497 7.41472C25.1514 9.36281 25.8462 11.6531 25.8462 13.9961C25.8426 17.1368 24.5934 20.1478 22.3726 22.3687C20.1518 24.5895 17.1407 25.8387 14 25.8422ZM7.53847 11.3038C7.53847 10.9843 7.63321 10.672 7.81071 10.4063C7.98821 10.1407 8.2405 9.93363 8.53567 9.81136C8.83084 9.6891 9.15564 9.65711 9.469 9.71944C9.78235 9.78177 10.0702 9.93562 10.2961 10.1615C10.522 10.3875 10.6759 10.6753 10.7382 10.9886C10.8005 11.302 10.7685 11.6268 10.6463 11.922C10.524 12.2171 10.317 12.4694 10.0513 12.6469C9.78566 12.8244 9.47334 12.9192 9.15385 12.9192C8.72542 12.9192 8.31454 12.749 8.0116 12.446C7.70866 12.1431 7.53847 11.7322 7.53847 11.3038ZM20.4615 11.3038C20.4615 11.6233 20.3668 11.9356 20.1893 12.2012C20.0118 12.4669 19.7595 12.6739 19.4643 12.7962C19.1692 12.9185 18.8444 12.9505 18.531 12.8881C18.2177 12.8258 17.9298 12.6719 17.7039 12.446C17.478 12.2201 17.3241 11.9323 17.2618 11.6189C17.1995 11.3056 17.2315 10.9808 17.3537 10.6856C17.476 10.3904 17.683 10.1381 17.9487 9.96064C18.2143 9.78314 18.5267 9.6884 18.8462 9.6884C19.2746 9.6884 19.6855 9.85859 19.9884 10.1615C20.2913 10.4645 20.4615 10.8754 20.4615 11.3038ZM20.3162 19.9192C20.3941 20.0417 20.4464 20.1788 20.47 20.3221C20.4935 20.4654 20.4879 20.612 20.4533 20.7531C20.4188 20.8942 20.356 21.0268 20.2689 21.143C20.1818 21.2592 20.072 21.3566 19.9463 21.4293C19.8205 21.502 19.6814 21.5485 19.5372 21.566C19.393 21.5835 19.2468 21.5717 19.1073 21.5312C18.9678 21.4907 18.8379 21.4225 18.7255 21.3305C18.6131 21.2385 18.5204 21.1248 18.4531 20.9961C17.4475 19.2582 15.8671 18.3038 14 18.3038C12.1329 18.3038 10.5525 19.2596 9.54693 20.9961C9.4796 21.1248 9.38694 21.2385 9.27452 21.3305C9.16209 21.4225 9.03223 21.4907 8.89274 21.5312C8.75324 21.5717 8.60701 21.5835 8.46282 21.566C8.31864 21.5485 8.17949 21.502 8.05374 21.4293C7.928 21.3566 7.81825 21.2592 7.73111 21.143C7.64397 21.0268 7.58124 20.8942 7.54668 20.7531C7.51213 20.612 7.50647 20.4654 7.53004 20.3221C7.55361 20.1788 7.60593 20.0417 7.68385 19.9192C9.06904 17.5244 11.371 16.1499 14 16.1499C16.629 16.1499 18.931 17.523 20.3162 19.9192Z" fill="#6A6D73"/>
</svg>
