<svg width="28" height="28" viewBox="0 0 28 28" fill="none" xmlns="http://www.w3.org/2000/svg">
<path d="M14 0C11.2311 0 8.52431 0.821086 6.22202 2.35943C3.91973 3.89776 2.12532 6.08427 1.06569 8.64243C0.00606598 11.2006 -0.271181 14.0155 0.269012 16.7313C0.809205 19.447 2.14258 21.9416 4.10051 23.8995C6.05845 25.8574 8.55301 27.1908 11.2687 27.731C13.9845 28.2712 16.7994 27.9939 19.3576 26.9343C21.9157 25.8747 24.1022 24.0803 25.6406 21.778C27.1789 19.4757 28 16.7689 28 14C27.9961 10.2882 26.5198 6.72949 23.8952 4.10483C21.2705 1.48017 17.7118 0.00391976 14 0ZM9.15385 9.69231C9.47334 9.69231 9.78566 9.78705 10.0513 9.96455C10.317 10.142 10.524 10.3943 10.6463 10.6895C10.7685 10.9847 10.8005 11.3095 10.7382 11.6228C10.6759 11.9362 10.522 12.224 10.2961 12.4499C10.0702 12.6759 9.78235 12.8297 9.469 12.892C9.15564 12.9544 8.83084 12.9224 8.53567 12.8001C8.2405 12.6778 7.98821 12.4708 7.81071 12.2051C7.63321 11.9395 7.53847 11.6272 7.53847 11.3077C7.53847 10.8793 7.70866 10.4684 8.0116 10.1654C8.31454 9.8625 8.72542 9.69231 9.15385 9.69231ZM19.9231 21.3931C19.676 21.5356 19.3824 21.5743 19.1068 21.5006C18.8312 21.4269 18.5961 21.2469 18.4531 21C17.4475 19.2621 15.8671 18.3077 14 18.3077C12.1329 18.3077 10.5525 19.2635 9.54693 21C9.4796 21.1287 9.38694 21.2424 9.27452 21.3344C9.16209 21.4264 9.03223 21.4946 8.89274 21.5351C8.75324 21.5756 8.60701 21.5874 8.46282 21.5699C8.31864 21.5524 8.17949 21.5059 8.05374 21.4332C7.928 21.3605 7.81825 21.2631 7.73111 21.1469C7.64397 21.0307 7.58124 20.8981 7.54668 20.757C7.51213 20.616 7.50647 20.4694 7.53004 20.326C7.55361 20.1827 7.60593 20.0456 7.68385 19.9231C9.06904 17.5283 11.371 16.1538 14 16.1538C16.629 16.1538 18.931 17.5269 20.3162 19.9231C20.4587 20.1702 20.4974 20.4638 20.4237 20.7394C20.35 21.015 20.1699 21.2501 19.9231 21.3931ZM18.8462 12.9231C18.5267 12.9231 18.2143 12.8283 17.9487 12.6508C17.683 12.4733 17.476 12.221 17.3537 11.9259C17.2315 11.6307 17.1995 11.3059 17.2618 10.9925C17.3241 10.6792 17.478 10.3914 17.7039 10.1654C17.9298 9.93953 18.2177 9.78568 18.531 9.72334C18.8444 9.66102 19.1692 9.69301 19.4643 9.81527C19.7595 9.93753 20.0118 10.1446 20.1893 10.4102C20.3668 10.6759 20.4615 10.9882 20.4615 11.3077C20.4615 11.7361 20.2913 12.147 19.9884 12.4499C19.6855 12.7529 19.2746 12.9231 18.8462 12.9231Z" fill="#FE5663"/>
</svg>
