<svg width="28" height="28" viewBox="0 0 28 28" fill="none" xmlns="http://www.w3.org/2000/svg">
<path d="M14 -0.00390625C11.2311 -0.00390625 8.52431 0.817179 6.22202 2.35552C3.91973 3.89386 2.12532 6.08036 1.06569 8.63852C0.00606598 11.1967 -0.271181 14.0116 0.269012 16.7274C0.809205 19.4431 2.14258 21.9377 4.10051 23.8956C6.05845 25.8535 8.55301 27.1869 11.2687 27.7271C13.9845 28.2673 16.7994 27.99 19.3576 26.9304C21.9157 25.8708 24.1022 24.0764 25.6406 21.7741C27.1789 19.4718 28 16.765 28 13.9961C27.9961 10.2843 26.5198 6.72559 23.8952 4.10093C21.2705 1.47627 17.7118 1.35056e-05 14 -0.00390625ZM9.15385 9.6884C9.47334 9.6884 9.78566 9.78314 10.0513 9.96064C10.317 10.1381 10.524 10.3904 10.6463 10.6856C10.7685 10.9808 10.8005 11.3056 10.7382 11.6189C10.6759 11.9323 10.522 12.2201 10.2961 12.446C10.0702 12.6719 9.78235 12.8258 9.469 12.8881C9.15564 12.9505 8.83084 12.9185 8.53567 12.7962C8.2405 12.6739 7.98821 12.4669 7.81071 12.2012C7.63321 11.9356 7.53847 11.6233 7.53847 11.3038C7.53847 10.8754 7.70866 10.4645 8.0116 10.1615C8.31454 9.85859 8.72542 9.6884 9.15385 9.6884ZM20.3162 17.7653C18.931 20.1601 16.629 21.5346 14 21.5346C11.371 21.5346 9.06904 20.1615 7.68385 17.7653C7.60593 17.6427 7.55361 17.5057 7.53004 17.3624C7.50647 17.219 7.51213 17.0724 7.54668 16.9314C7.58124 16.7903 7.64397 16.6577 7.73111 16.5415C7.81825 16.4253 7.928 16.3279 8.05374 16.2552C8.17949 16.1825 8.31864 16.136 8.46282 16.1185C8.60701 16.101 8.75324 16.1128 8.89274 16.1533C9.03223 16.1938 9.16209 16.262 9.27452 16.354C9.38694 16.4459 9.4796 16.5597 9.54693 16.6884C10.5525 18.4263 12.1329 19.3807 14 19.3807C15.8671 19.3807 17.4475 18.4249 18.4531 16.6884C18.5204 16.5597 18.6131 16.4459 18.7255 16.354C18.8379 16.262 18.9678 16.1938 19.1073 16.1533C19.2468 16.1128 19.393 16.101 19.5372 16.1185C19.6814 16.136 19.8205 16.1825 19.9463 16.2552C20.072 16.3279 20.1818 16.4253 20.2689 16.5415C20.356 16.6577 20.4188 16.7903 20.4533 16.9314C20.4879 17.0724 20.4935 17.219 20.47 17.3624C20.4464 17.5057 20.3941 17.6427 20.3162 17.7653ZM18.8462 12.9192C18.5267 12.9192 18.2143 12.8244 17.9487 12.6469C17.683 12.4694 17.476 12.2171 17.3537 11.922C17.2315 11.6268 17.1995 11.302 17.2618 10.9886C17.3241 10.6753 17.478 10.3875 17.7039 10.1615C17.9298 9.93562 18.2177 9.78177 18.531 9.71944C18.8444 9.65711 19.1692 9.6891 19.4643 9.81136C19.7595 9.93363 20.0118 10.1407 20.1893 10.4063C20.3668 10.672 20.4615 10.9843 20.4615 11.3038C20.4615 11.7322 20.2913 12.1431 19.9884 12.446C19.6855 12.749 19.2746 12.9192 18.8462 12.9192Z" fill="#1EAA58"/>
</svg>
