<svg width="28" height="28" viewBox="0 0 28 28" fill="none" xmlns="http://www.w3.org/2000/svg">
<path d="M14 0C11.2311 0 8.52431 0.821086 6.22202 2.35943C3.91973 3.89776 2.12532 6.08427 1.06569 8.64243C0.00606598 11.2006 -0.271181 14.0155 0.269012 16.7313C0.809205 19.447 2.14258 21.9416 4.10051 23.8995C6.05845 25.8574 8.55301 27.1908 11.2687 27.731C13.9845 28.2712 16.7994 27.9939 19.3576 26.9343C21.9157 25.8747 24.1022 24.0803 25.6406 21.778C27.1789 19.4757 28 16.7689 28 14C27.9954 10.2884 26.5189 6.73012 23.8944 4.10562C21.2699 1.48111 17.7116 0.00463083 14 0ZM9.15385 9.69231C9.47334 9.69231 9.78566 9.78705 10.0513 9.96455C10.317 10.142 10.524 10.3943 10.6463 10.6895C10.7685 10.9847 10.8005 11.3095 10.7382 11.6228C10.6759 11.9362 10.522 12.224 10.2961 12.4499C10.0702 12.6759 9.78235 12.8297 9.469 12.892C9.15564 12.9544 8.83084 12.9224 8.53567 12.8001C8.2405 12.6778 7.98821 12.4708 7.81071 12.2051C7.63321 11.9395 7.53847 11.6272 7.53847 11.3077C7.53847 10.8793 7.70866 10.4684 8.0116 10.1654C8.31454 9.8625 8.72542 9.69231 9.15385 9.69231ZM19.3846 19.3846H8.61539C8.32977 19.3846 8.05585 19.2712 7.85389 19.0692C7.65193 18.8672 7.53847 18.5933 7.53847 18.3077C7.53847 18.0221 7.65193 17.7482 7.85389 17.5462C8.05585 17.3442 8.32977 17.2308 8.61539 17.2308H19.3846C19.6702 17.2308 19.9442 17.3442 20.1461 17.5462C20.3481 17.7482 20.4615 18.0221 20.4615 18.3077C20.4615 18.5933 20.3481 18.8672 20.1461 19.0692C19.9442 19.2712 19.6702 19.3846 19.3846 19.3846ZM18.8462 12.9231C18.5267 12.9231 18.2143 12.8283 17.9487 12.6508C17.683 12.4733 17.476 12.221 17.3537 11.9259C17.2315 11.6307 17.1995 11.3059 17.2618 10.9925C17.3241 10.6792 17.478 10.3914 17.7039 10.1654C17.9298 9.93953 18.2177 9.78568 18.531 9.72334C18.8444 9.66102 19.1692 9.69301 19.4643 9.81527C19.7595 9.93753 20.0118 10.1446 20.1893 10.4102C20.3668 10.6759 20.4615 10.9882 20.4615 11.3077C20.4615 11.7361 20.2913 12.147 19.9884 12.4499C19.6855 12.7529 19.2746 12.9231 18.8462 12.9231Z" fill="#1E78FF"/>
</svg>
