<svg width="196" height="40" viewBox="0 0 196 40" fill="none" xmlns="http://www.w3.org/2000/svg">
<rect width="184" height="40" rx="8" fill="#124899"/>
<path d="M14.0218 14.822H22.7718V16.292C22.7718 18.112 22.7718 19.834 22.2118 22.48L20.6858 22.34C20.9378 21.248 21.0778 20.282 21.1478 19.4L13.8818 19.778L13.6858 18.532L21.2178 18.266C21.2458 17.58 21.2458 16.936 21.2458 16.292V16.068H14.0218V14.822ZM12.7338 24.552V23.278H24.0038V24.552H12.7338ZM34.1681 13.66H35.6381V26.12H34.1681V13.66ZM24.8581 22.41C27.4201 20.884 28.5821 18.938 28.8061 16.418H25.4881V15.172H30.3461C30.3461 16.376 30.2061 17.51 29.8701 18.56H31.5501V13.954H32.9921V25.532H31.5501V19.792H29.3661C28.6521 21.22 27.4901 22.48 25.7401 23.502L24.8581 22.41ZM40.433 23.362H45.291V20.926H41.679V14.486H43.205V16.516H48.917V14.486H50.443V20.926H46.817V23.362H51.717V24.622H40.433V23.362ZM43.205 19.694H48.917V17.734H43.205V19.694ZM53.8314 14.794H62.7494V15.998C62.7494 17.552 62.7494 19.288 62.2874 21.892L60.7334 21.724C61.2094 19.302 61.2094 17.524 61.2094 16.04H53.8314V14.794ZM52.6694 24.524V23.264H56.8134V18.924H58.3394V23.264H63.9394V24.524H52.6694ZM76.8683 13.674H78.4083V20.576H76.8683V13.674ZM68.1043 19.176C70.1203 18.532 71.1703 16.936 71.1703 15.298V14.108H72.7243V15.298C72.7243 16.88 73.7743 18.364 75.7203 18.952L74.9783 20.17C73.5503 19.722 72.5283 18.798 71.9683 17.608C71.4083 18.882 70.3443 19.904 68.8603 20.38L68.1043 19.176ZM69.9523 25.98V24.762H71.6183V22.438H70.0643V21.206H78.4783V22.438H76.9383V24.762H78.6043V25.98H69.9523ZM73.1443 24.762H75.4123V22.438H73.1443V24.762ZM85.9966 13.87C88.7966 13.87 90.4626 14.612 90.4626 15.998C90.4626 17.384 88.7966 18.14 85.9966 18.14C83.1966 18.14 81.5306 17.384 81.5306 15.998C81.5306 14.612 83.1966 13.87 85.9966 13.87ZM80.3686 20.044V18.812H91.6246V20.044H80.3686ZM81.6706 22.032V20.87H90.2246V23.922H83.2106V24.86H90.5746V26.022H81.7126V22.844H88.7126V22.032H81.6706ZM83.1266 15.998C83.1266 16.67 84.1066 17.006 85.9966 17.006C87.8726 17.006 88.8666 16.67 88.8666 15.998C88.8666 15.34 87.8726 14.99 85.9966 14.99C84.1066 14.99 83.1266 15.34 83.1266 15.998ZM102.663 13.884H104.091V18.588H105.197V13.66H106.639V26.12H105.197V19.82H104.091V25.532H102.663V13.884ZM96.0835 23.026V15.186H98.7295V16.418H97.4975V21.738C97.8755 21.71 98.2955 21.668 98.7715 21.556L98.8835 22.816C97.9455 23.012 97.2175 23.026 96.6295 23.026H96.0835ZM99.2195 23.026V15.186H101.949V16.418H100.619V21.738C101.081 21.71 101.585 21.654 102.145 21.528L102.271 22.788C101.291 23.012 100.521 23.026 99.7795 23.026H99.2195ZM112.736 13.828H114.248V16.334H121.276V17.566H112.736V13.828ZM111.294 19.652V18.434H122.578V19.652H117.678V20.744H121.206V23.866H114.178V24.846H121.584V26.022H112.638V22.774H119.666V21.92H112.61V20.744H116.138V19.652H111.294ZM132.337 13.646H133.877V26.148H132.337V19.498H130.223V18.252H132.337V13.646ZM123.937 15.998V14.766H129.523V19.316H125.477V21.948C127.325 21.934 128.781 21.864 130.447 21.584L130.587 22.844C128.739 23.152 127.087 23.222 124.959 23.222H123.951V18.098H128.011V15.998H123.937ZM135.767 23.362H140.625V20.926H137.013V14.486H138.539V16.516H144.251V14.486H145.777V20.926H142.151V23.362H147.051V24.622H135.767V23.362ZM138.539 19.694H144.251V17.734H138.539V19.694ZM152.903 17.958H154.639V13.898H156.081V25.532H154.639V19.218H152.903V17.958ZM147.779 22.41C149.571 21.346 150.369 19.106 150.369 16.978V14.794H151.853V16.922C151.853 18.938 152.539 21.024 154.219 22.102L153.365 23.292C152.259 22.62 151.545 21.458 151.125 20.1C150.691 21.584 149.893 22.844 148.731 23.572L147.779 22.41ZM157.173 26.12V13.66H158.643V26.12H157.173ZM160.24 23.362H162.83V20.184C161.85 19.61 161.262 18.728 161.262 17.622C161.262 15.62 163.208 14.332 165.868 14.332C168.542 14.332 170.474 15.62 170.474 17.622C170.474 18.728 169.886 19.61 168.92 20.184V23.362H171.524V24.608H160.24V23.362ZM162.774 17.622C162.774 18.924 164.034 19.708 165.868 19.708C167.702 19.708 168.962 18.924 168.962 17.622C168.962 16.334 167.702 15.536 165.868 15.536C164.034 15.536 162.774 16.334 162.774 17.622ZM164.37 23.362H167.38V20.758C166.918 20.856 166.4 20.912 165.868 20.912C165.336 20.912 164.832 20.856 164.37 20.758V23.362Z" fill="white"/>
<path d="M194.5 19.134C195.167 19.5189 195.167 20.4811 194.5 20.866L181 28.6603C180.333 29.0452 179.5 28.564 179.5 27.7942L179.5 12.2058C179.5 11.436 180.333 10.9548 181 11.3397L194.5 19.134Z" fill="#124899"/>
</svg>
