<svg width="20" height="20" viewBox="0 0 20 20" fill="none" xmlns="http://www.w3.org/2000/svg">
<path d="M2.5 9.16732H3.5H2.5ZM14.1667 9.16732H13.1667H14.1667ZM8.33333 3.33398V2.33398V3.33398ZM5.83333 8.16732C5.28105 8.16732 4.83333 8.61503 4.83333 9.16732C4.83333 9.7196 5.28105 10.1673 5.83333 10.1673V8.16732ZM10.8333 10.1673C11.3856 10.1673 11.8333 9.7196 11.8333 9.16732C11.8333 8.61503 11.3856 8.16732 10.8333 8.16732V10.1673ZM14.7096 16.9578C15.1001 17.3483 15.7332 17.3483 16.1238 16.9578C16.5143 16.5672 16.5143 15.9341 16.1238 15.5435L14.7096 16.9578ZM13.2071 12.6269C12.8166 12.2364 12.1834 12.2364 11.7929 12.6269C11.4024 13.0174 11.4024 13.6506 11.7929 14.0411L13.2071 12.6269ZM1.5 9.16732C1.5 10.0647 1.67675 10.9533 2.02016 11.7823L3.86792 11.017C3.62502 10.4305 3.5 9.80204 3.5 9.16732H1.5ZM2.02016 11.7823C2.36356 12.6114 2.8669 13.3647 3.50144 13.9992L4.91565 12.585C4.46683 12.1362 4.11081 11.6034 3.86792 11.017L2.02016 11.7823ZM3.50144 13.9992C4.13597 14.6337 4.88927 15.1371 5.71833 15.4805L6.4837 13.6327C5.89729 13.3898 5.36447 13.0338 4.91565 12.585L3.50144 13.9992ZM5.71833 15.4805C6.54739 15.8239 7.43597 16.0007 8.33333 16.0007V14.0007C7.69861 14.0007 7.0701 13.8756 6.4837 13.6327L5.71833 15.4805ZM8.33333 16.0007C9.2307 16.0007 10.1193 15.8239 10.9483 15.4805L10.183 13.6327C9.59656 13.8756 8.96806 14.0007 8.33333 14.0007V16.0007ZM10.9483 15.4805C11.7774 15.1371 12.5307 14.6337 13.1652 13.9992L11.751 12.585C11.3022 13.0338 10.7694 13.3898 10.183 13.6327L10.9483 15.4805ZM13.1652 13.9992C13.7998 13.3647 14.3031 12.6114 14.6465 11.7823L12.7988 11.017C12.5559 11.6034 12.1998 12.1362 11.751 12.585L13.1652 13.9992ZM14.6465 11.7823C14.9899 10.9533 15.1667 10.0647 15.1667 9.16732H13.1667C13.1667 9.80204 13.0416 10.4305 12.7988 11.017L14.6465 11.7823ZM15.1667 9.16732C15.1667 8.26995 14.9899 7.38137 14.6465 6.55231L12.7988 7.31768C13.0416 7.90409 13.1667 8.5326 13.1667 9.16732H15.1667ZM14.6465 6.55231C14.3031 5.72326 13.7998 4.96995 13.1652 4.33542L11.751 5.74963C12.1998 6.19845 12.5559 6.73127 12.7988 7.31768L14.6465 6.55231ZM13.1652 4.33542C12.5307 3.70089 11.7774 3.19755 10.9483 2.85414L10.183 4.7019C10.7694 4.9448 11.3022 5.30082 11.751 5.74963L13.1652 4.33542ZM10.9483 2.85414C10.1193 2.51073 9.2307 2.33398 8.33333 2.33398V4.33398C8.96806 4.33398 9.59656 4.459 10.183 4.7019L10.9483 2.85414ZM8.33333 2.33398C7.43597 2.33398 6.54739 2.51073 5.71833 2.85414L6.4837 4.7019C7.0701 4.459 7.69861 4.33398 8.33333 4.33398V2.33398ZM5.71833 2.85414C4.88927 3.19755 4.13597 3.70089 3.50144 4.33542L4.91565 5.74963C5.36447 5.30082 5.89729 4.9448 6.4837 4.7019L5.71833 2.85414ZM3.50144 4.33542C2.8669 4.96996 2.36356 5.72326 2.02016 6.55231L3.86792 7.31768C4.11081 6.73127 4.46683 6.19845 4.91565 5.74963L3.50144 4.33542ZM2.02016 6.55231C1.67675 7.38137 1.5 8.26995 1.5 9.16732H3.5C3.5 8.5326 3.62502 7.90409 3.86792 7.31768L2.02016 6.55231ZM5.83333 10.1673H10.8333V8.16732H5.83333V10.1673ZM16.1238 15.5435L13.2071 12.6269L11.7929 14.0411L14.7096 16.9578L16.1238 15.5435Z" fill="white"/>
</svg>
