<svg width="38" height="10" viewBox="0 0 38 10" fill="none" xmlns="http://www.w3.org/2000/svg">
<path d="M4 9.5H3.5V10H4V9.5ZM37.5 10C37.7761 10 38 9.77614 38 9.5C38 9.22386 37.7761 9 37.5 9V10ZM4.35355 0.646447C4.15829 0.451184 3.84171 0.451184 3.64645 0.646447L0.464466 3.82843C0.269204 4.02369 0.269204 4.34027 0.464466 4.53553C0.659728 4.7308 0.976311 4.7308 1.17157 4.53553L4 1.70711L6.82843 4.53553C7.02369 4.7308 7.34027 4.7308 7.53553 4.53553C7.7308 4.34027 7.7308 4.02369 7.53553 3.82843L4.35355 0.646447ZM4 10H37.5V9H4V10ZM4.5 9.5V1H3.5V9.5H4.5Z" fill="#0091FF"/>
</svg>
