<svg width="174" height="45" viewBox="0 0 174 45" fill="none" xmlns="http://www.w3.org/2000/svg">
<rect x="1" width="40" height="40" rx="20" fill="#44617F"/>
<path d="M18.302 12.33V16.722H20.444V18.666H18.302V24.048H15.908V12.33H18.302ZM6.134 13.608H13.406V15.516H8.546V19.494C10.01 19.482 11.186 19.446 12.074 19.386C12.974 19.314 13.844 19.188 14.684 19.008L14.918 20.88C13.958 21.096 12.944 21.24 11.876 21.312C10.82 21.384 9.362 21.42 7.502 21.42H6.134V13.608ZM7.844 22.806H10.238V26.352H18.878V28.26H7.844V22.806ZM34.9164 12.33V24.606H32.5224V23.346H29.4984V21.726H32.5224V12.33H34.9164ZM21.2004 19.476C23.2644 19.464 25.1184 19.428 26.7624 19.368C28.4184 19.308 29.9964 19.182 31.4964 18.99L31.6404 20.682C30.5484 20.874 29.2824 21.03 27.8424 21.15V24.192H25.5924V26.352H35.2944V28.26H23.1984V23.436H25.4484V21.276C24.2844 21.336 22.9644 21.366 21.4884 21.366L21.2004 19.476ZM22.3524 15.768C22.3524 15.204 22.5204 14.706 22.8564 14.274C23.2044 13.83 23.6844 13.488 24.2964 13.248C24.9204 12.996 25.6224 12.87 26.4024 12.87C27.1824 12.87 27.8784 12.996 28.4904 13.248C29.1024 13.488 29.5764 13.83 29.9124 14.274C30.2604 14.706 30.4344 15.204 30.4344 15.768C30.4344 16.344 30.2604 16.854 29.9124 17.298C29.5764 17.73 29.1024 18.066 28.4904 18.306C27.8904 18.546 27.1944 18.666 26.4024 18.666C25.6104 18.666 24.9084 18.546 24.2964 18.306C23.6844 18.066 23.2044 17.73 22.8564 17.298C22.5204 16.854 22.3524 16.344 22.3524 15.768ZM24.6384 15.768C24.6384 16.14 24.7944 16.428 25.1064 16.632C25.4304 16.824 25.8624 16.92 26.4024 16.92C26.9544 16.92 27.3864 16.824 27.6984 16.632C28.0104 16.428 28.1664 16.14 28.1664 15.768C28.1664 15.396 28.0104 15.114 27.6984 14.922C27.3864 14.718 26.9544 14.616 26.4024 14.616C25.8624 14.616 25.4304 14.718 25.1064 14.922C24.7944 15.114 24.6384 15.396 24.6384 15.768Z" fill="white"/>
<path d="M173 5.5059C171.523 9.83436 166.917 20.6265 157.463 16.5865C148.009 12.5466 149.09 6.70781 151.798 4.54361C159.687 1.15594 164.11 14.4224 162.633 21.6364C158.497 41.8359 144.449 43.7595 136.078 44H14.1235C6.9446 43.5188 1.98615 39.6694 1 35.3388" stroke="#44617F" stroke-width="2" stroke-linecap="round"/>
<path d="M49.43 16.072H58.648V28.942H49.43V16.072ZM51.806 27.006H56.272V17.986H51.806V27.006ZM61.552 33.782V14.202H63.994V21.748H66.964V23.75H63.994V33.782H61.552ZM67.9765 25.312H85.7085V27.248H77.9865V33.804H75.5665V27.248H67.9765V25.312ZM70.0885 23.002V15.214H83.5085V23.002H70.0885ZM72.4645 21.11H81.1545V17.128H72.4645V21.11ZM100.977 14.158H103.397V33.804H100.977V14.158ZM88.239 17.854V15.918H97.413V23.266H90.725V27.182C93.783 27.16 96.423 27.028 99.437 26.522L99.679 28.48C96.357 29.052 93.453 29.162 89.977 29.162H88.283V21.33H94.971V17.854H88.239ZM119.26 14.202H121.68V21.99H124.65V23.992H121.68V33.782H119.26V14.202ZM106.324 19.108V17.172H110.878V14.488H113.32V17.172H117.808V19.108H106.324ZM107.226 25.026C107.226 22.32 109.316 20.428 112.11 20.428C114.948 20.428 117.016 22.32 117.016 25.026C117.016 27.732 114.948 29.624 112.11 29.624C109.316 29.624 107.226 27.732 107.226 25.026ZM109.558 25.026C109.558 26.632 110.614 27.644 112.11 27.644C113.606 27.644 114.684 26.632 114.684 25.026C114.684 23.42 113.606 22.386 112.11 22.386C110.614 22.386 109.558 23.42 109.558 25.026ZM139.434 14.18H141.854V33.76H139.434V14.18ZM125.772 28.414C130.854 25.972 133.164 22.65 133.582 18.184H126.74V16.226H136.068C136.068 22.1 133.846 27.028 127.026 30.328L125.772 28.414Z" fill="black"/>
</svg>
