<svg width="197" height="122" viewBox="0 0 197 122" fill="none" xmlns="http://www.w3.org/2000/svg">
<g clip-path="url(#clip0_4763_74755)">
<rect x="79" width="38" height="36" rx="18" fill="#F4F8FF"/>
<path d="M94.08 14.988C93.016 14.988 92.4 14.204 92.4 13.252C92.4 10.592 94.724 8.352 97.58 8.352C100.856 8.352 103.04 10.312 103.516 13.056C103.544 13.308 103.572 13.644 103.572 13.98C103.572 15.212 103.264 16.052 102.592 17.032C102.004 17.9 101.276 18.656 99.428 20.252C98.448 21.092 98.532 21.008 96.628 22.828L94.976 24.396L97.104 24.424C99.932 24.424 101.612 24.368 101.78 24.284C101.864 24.256 101.976 23.976 102.06 23.696C102.2 23.304 102.228 23.052 102.452 21.792V21.708H103.572V21.792C103.488 21.96 102.872 26.748 102.788 26.916V27H92.4V26.468C92.4 25.992 92.4 25.908 92.456 25.824C92.484 25.796 93.548 24.592 94.808 23.164C97.972 19.664 98.112 19.468 98.728 18.684C99.988 16.976 100.604 15.632 100.604 14.008C100.604 11.656 99.344 9.668 96.936 9.668C95.676 9.668 94.92 10.228 94.304 11.124C94.192 11.348 94.052 11.572 94.052 11.6C94.052 11.628 94.108 11.628 94.192 11.628C95.172 11.628 95.76 12.44 95.76 13.308C95.76 14.204 95.116 14.988 94.08 14.988Z" fill="#232426"/>
</g>
<g clip-path="url(#clip1_4763_74755)">
<rect x="159" y="30" width="38" height="36" rx="18" fill="#F4F8FF"/>
<path d="M173.996 51.008C174.892 51.008 175.592 51.68 175.592 52.632C175.592 53.528 174.78 54.172 174.052 54.172H173.856L173.94 54.312C174.472 55.432 175.62 56.384 177.272 56.384C178.7 56.384 179.596 55.74 180.128 54.704C180.52 53.948 180.66 52.856 180.66 51.12C180.66 48.964 180.464 47.984 179.904 47.228C179.456 46.668 179.036 46.304 178.112 46.304C176.6 46.304 175.452 47.116 174.808 48.208C174.668 48.46 174.612 48.488 174.192 48.488C173.8 48.488 173.716 48.46 173.66 48.32C173.604 48.208 173.604 47.788 173.604 43.42C173.604 41.908 173.576 40.788 173.576 39.976C173.576 38.912 173.604 38.408 173.744 38.408C173.772 38.38 173.828 38.352 173.856 38.352C173.884 38.352 174.108 38.436 174.36 38.52C175.48 38.968 176.628 39.248 178.084 39.248C179.4 39.248 180.716 38.968 181.892 38.464C182.06 38.38 182.172 38.352 182.256 38.352C182.424 38.352 182.48 38.52 182.48 38.856V39.22C181.22 40.732 179.428 41.936 176.74 41.936C176.208 41.936 175.648 41.88 175.172 41.768L174.892 41.712V46.528C175.76 45.828 176.684 45.24 178.168 45.24C178.56 45.24 178.952 45.296 179.316 45.38C181.78 45.996 183.572 48.404 183.572 51.372C183.572 54.732 180.94 57.616 177.412 57.616C176.096 57.616 175.228 57.28 174.416 56.636C174.164 56.468 173.688 55.992 173.492 55.712C172.904 55.012 172.568 54.144 172.428 53.22C172.428 53.052 172.4 52.856 172.4 52.688C172.4 51.596 173.072 51.008 173.996 51.008Z" fill="#232426"/>
</g>
<path d="M2.996 47.008C3.892 47.008 4.592 47.68 4.592 48.632C4.592 49.528 3.78 50.172 3.052 50.172H2.856L2.94 50.312C3.472 51.432 4.62 52.384 6.272 52.384C7.7 52.384 8.596 51.74 9.128 50.704C9.52 49.948 9.66 48.856 9.66 47.12C9.66 44.964 9.464 43.984 8.904 43.228C8.456 42.668 8.036 42.304 7.112 42.304C5.6 42.304 4.452 43.116 3.808 44.208C3.668 44.46 3.612 44.488 3.192 44.488C2.8 44.488 2.716 44.46 2.66 44.32C2.604 44.208 2.604 43.788 2.604 39.42C2.604 37.908 2.576 36.788 2.576 35.976C2.576 34.912 2.604 34.408 2.744 34.408C2.772 34.38 2.828 34.352 2.856 34.352C2.884 34.352 3.108 34.436 3.36 34.52C4.48 34.968 5.628 35.248 7.084 35.248C8.4 35.248 9.716 34.968 10.892 34.464C11.06 34.38 11.172 34.352 11.256 34.352C11.424 34.352 11.48 34.52 11.48 34.856V35.22C10.22 36.732 8.428 37.936 5.74 37.936C5.208 37.936 4.648 37.88 4.172 37.768L3.892 37.712V42.528C4.76 41.828 5.684 41.24 7.168 41.24C7.56 41.24 7.952 41.296 8.316 41.38C10.78 41.996 12.572 44.404 12.572 47.372C12.572 50.732 9.94 53.616 6.412 53.616C5.096 53.616 4.228 53.28 3.416 52.636C3.164 52.468 2.688 51.992 2.492 51.712C1.904 51.012 1.568 50.144 1.428 49.22C1.428 49.052 1.4 48.856 1.4 48.688C1.4 47.596 2.072 47.008 2.996 47.008ZM16.688 36.62C17.612 35.276 19.096 34.352 20.972 34.352C22.288 34.352 23.576 34.856 24.556 35.752C25.088 36.256 25.48 36.844 25.844 37.656C26.572 39.28 26.88 41.156 26.88 44.04C26.88 47.12 26.544 49.024 25.676 50.676C25.116 51.824 24.416 52.524 23.38 53.028C22.596 53.42 21.812 53.616 21 53.616C18.676 53.616 17.136 52.328 16.296 50.676C15.428 49.024 15.092 47.12 15.092 44.04C15.092 40.624 15.484 38.552 16.688 36.62ZM22.988 36.284C22.484 35.724 21.868 35.388 21 35.388C20.272 35.388 19.544 35.696 18.984 36.284C18.172 37.124 17.948 38.02 17.864 41.044C17.864 41.548 17.836 42.584 17.836 43.676C17.836 45.216 17.864 46.896 17.892 47.428C18.032 50.032 18.256 50.872 19.068 51.712C19.544 52.244 20.104 52.552 21 52.552C21.896 52.552 22.428 52.244 22.904 51.712C23.716 50.872 23.94 50.032 24.08 47.428C24.108 46.896 24.136 45.216 24.136 43.676C24.136 42.584 24.108 41.548 24.108 41.044C24.024 38.02 23.8 37.124 22.988 36.284Z" fill="#232426"/>
<path d="M87.08 71.988C86.016 71.988 85.4 71.204 85.4 70.252C85.4 67.592 87.724 65.352 90.58 65.352C93.856 65.352 96.04 67.312 96.516 70.056C96.544 70.308 96.572 70.644 96.572 70.98C96.572 72.212 96.264 73.052 95.592 74.032C95.004 74.9 94.276 75.656 92.428 77.252C91.448 78.092 91.532 78.008 89.628 79.828L87.976 81.396L90.104 81.424C92.932 81.424 94.612 81.368 94.78 81.284C94.864 81.256 94.976 80.976 95.06 80.696C95.2 80.304 95.228 80.052 95.452 78.792V78.708H96.572V78.792C96.488 78.96 95.872 83.748 95.788 83.916V84H85.4V83.468C85.4 82.992 85.4 82.908 85.456 82.824C85.484 82.796 86.548 81.592 87.808 80.164C90.972 76.664 91.112 76.468 91.728 75.684C92.988 73.976 93.604 72.632 93.604 71.008C93.604 68.656 92.344 66.668 89.936 66.668C88.676 66.668 87.92 67.228 87.304 68.124C87.192 68.348 87.052 68.572 87.052 68.6C87.052 68.628 87.108 68.628 87.192 68.628C88.172 68.628 88.76 69.44 88.76 70.308C88.76 71.204 88.116 71.988 87.08 71.988ZM100.996 78.008C101.892 78.008 102.592 78.68 102.592 79.632C102.592 80.528 101.78 81.172 101.052 81.172H100.856L100.94 81.312C101.472 82.432 102.62 83.384 104.272 83.384C105.7 83.384 106.596 82.74 107.128 81.704C107.52 80.948 107.66 79.856 107.66 78.12C107.66 75.964 107.464 74.984 106.904 74.228C106.456 73.668 106.036 73.304 105.112 73.304C103.6 73.304 102.452 74.116 101.808 75.208C101.668 75.46 101.612 75.488 101.192 75.488C100.8 75.488 100.716 75.46 100.66 75.32C100.604 75.208 100.604 74.788 100.604 70.42C100.604 68.908 100.576 67.788 100.576 66.976C100.576 65.912 100.604 65.408 100.744 65.408C100.772 65.38 100.828 65.352 100.856 65.352C100.884 65.352 101.108 65.436 101.36 65.52C102.48 65.968 103.628 66.248 105.084 66.248C106.4 66.248 107.716 65.968 108.892 65.464C109.06 65.38 109.172 65.352 109.256 65.352C109.424 65.352 109.48 65.52 109.48 65.856V66.22C108.22 67.732 106.428 68.936 103.74 68.936C103.208 68.936 102.648 68.88 102.172 68.768L101.892 68.712V73.528C102.76 72.828 103.684 72.24 105.168 72.24C105.56 72.24 105.952 72.296 106.316 72.38C108.78 72.996 110.572 75.404 110.572 78.372C110.572 81.732 107.94 84.616 104.412 84.616C103.096 84.616 102.228 84.28 101.416 83.636C101.164 83.468 100.688 82.992 100.492 82.712C99.904 82.012 99.568 81.144 99.428 80.22C99.428 80.052 99.4 79.856 99.4 79.688C99.4 78.596 100.072 78.008 100.996 78.008Z" fill="#232426"/>
<path d="M74 19L42 47L74 75" stroke="black"/>
<path d="M154 49L122 77L154 105" stroke="black"/>
<g clip-path="url(#clip2_4763_74755)">
<rect x="159" y="86" width="38" height="36" rx="18" fill="#F4F8FF"/>
<path d="M173.996 107.008C174.892 107.008 175.592 107.68 175.592 108.632C175.592 109.528 174.78 110.172 174.052 110.172H173.856L173.94 110.312C174.472 111.432 175.62 112.384 177.272 112.384C178.7 112.384 179.596 111.74 180.128 110.704C180.52 109.948 180.66 108.856 180.66 107.12C180.66 104.964 180.464 103.984 179.904 103.228C179.456 102.668 179.036 102.304 178.112 102.304C176.6 102.304 175.452 103.116 174.808 104.208C174.668 104.46 174.612 104.488 174.192 104.488C173.8 104.488 173.716 104.46 173.66 104.32C173.604 104.208 173.604 103.788 173.604 99.42C173.604 97.908 173.576 96.788 173.576 95.976C173.576 94.912 173.604 94.408 173.744 94.408C173.772 94.38 173.828 94.352 173.856 94.352C173.884 94.352 174.108 94.436 174.36 94.52C175.48 94.968 176.628 95.248 178.084 95.248C179.4 95.248 180.716 94.968 181.892 94.464C182.06 94.38 182.172 94.352 182.256 94.352C182.424 94.352 182.48 94.52 182.48 94.856V95.22C181.22 96.732 179.428 97.936 176.74 97.936C176.208 97.936 175.648 97.88 175.172 97.768L174.892 97.712V102.528C175.76 101.828 176.684 101.24 178.168 101.24C178.56 101.24 178.952 101.296 179.316 101.38C181.78 101.996 183.572 104.404 183.572 107.372C183.572 110.732 180.94 113.616 177.412 113.616C176.096 113.616 175.228 113.28 174.416 112.636C174.164 112.468 173.688 111.992 173.492 111.712C172.904 111.012 172.568 110.144 172.428 109.22C172.428 109.052 172.4 108.856 172.4 108.688C172.4 107.596 173.072 107.008 173.996 107.008Z" fill="#232426"/>
</g>
<defs>
<clipPath id="clip0_4763_74755">
<rect x="79" width="38" height="36" rx="18" fill="white"/>
</clipPath>
<clipPath id="clip1_4763_74755">
<rect x="159" y="30" width="38" height="36" rx="18" fill="white"/>
</clipPath>
<clipPath id="clip2_4763_74755">
<rect x="159" y="86" width="38" height="36" rx="18" fill="white"/>
</clipPath>
</defs>
</svg>
