<svg width="8" height="13" viewBox="0 0 8 13" fill="none" xmlns="http://www.w3.org/2000/svg">
<path d="M4.35355 0.646446C4.15829 0.451184 3.8417 0.451185 3.64644 0.646447L0.464463 3.82843C0.269201 4.02369 0.269201 4.34027 0.464463 4.53554C0.659725 4.7308 0.976308 4.7308 1.17157 4.53553L4 1.70711L6.82842 4.53553C7.02369 4.73079 7.34027 4.73079 7.53553 4.53553C7.73079 4.34027 7.73079 4.02369 7.53553 3.82843L4.35355 0.646446ZM3.5 12C3.5 12.2761 3.72386 12.5 4 12.5C4.27614 12.5 4.5 12.2761 4.5 12L3.5 12ZM3.5 1L3.5 12L4.5 12L4.5 1L3.5 1Z" fill="#FE5663"/>
</svg>
