<svg width="48" height="48" viewBox="0 0 48 48" fill="none" xmlns="http://www.w3.org/2000/svg">
<rect x="0.5" y="0.5" width="47" height="47" rx="7.5" fill="#F8F8F8"/>
<rect x="0.5" y="0.5" width="47" height="47" rx="7.5" stroke="#8D9299" />
<path d="M38.0391 18.6761L22.5699 33.5695C22.4334 33.706 22.2715 33.8143 22.0932 33.8881C21.9149 33.962 21.7238 34 21.5309 34C21.3379 34 21.1468 33.962 20.9685 33.8881C20.7902 33.8143 20.6283 33.706 20.4918 33.5695L10.4295 23.3867C10.1545 23.1112 10 22.7378 10 22.3485C10 21.9593 10.1545 21.5859 10.4295 21.3104L12.6334 19.1066C12.908 18.8319 13.2802 18.6771 13.6685 18.6761C14.0569 18.6751 14.4299 18.8279 14.7059 19.1011L21.5561 25.9111L21.5662 25.9212L33.759 14.4282C34.0343 14.154 34.4071 14 34.7957 14C35.1843 14 35.5571 14.154 35.8325 14.4282L38.0363 16.5916C38.1739 16.728 38.2832 16.8902 38.3579 17.069C38.4326 17.2478 38.4711 17.4396 38.4714 17.6333C38.4716 17.827 38.4336 18.0189 38.3594 18.1979C38.2852 18.3768 38.1763 18.5394 38.0391 18.6761Z" fill="#6A6D73"/>
</svg>
