<svg width="32" height="32" viewBox="0 0 32 32" fill="none" xmlns="http://www.w3.org/2000/svg">
  <rect width="32" height="32" rx="4" fill="#6A6D73"/>
  <path
    d="M26.8129 12.522L14.7745 24.5595C14.6352 24.6989 14.4698 24.8094 14.2878 24.8848C14.1058 24.9602 13.9107 24.999 13.7137 24.999C13.5167 24.999 13.3216 24.9602 13.1396 24.8848C12.9576 24.8094 12.7922 24.6989 12.6529 24.5595L5.93852 17.8095C5.65772 17.5283 5.5 17.1471 5.5 16.7497C5.5 16.3523 5.65772 15.9711 5.93852 15.6899L8.18852 13.4399C8.46886 13.1594 8.84882 13.0014 9.24533 13.0004C9.64184 12.9993 10.0226 13.1553 10.3045 13.4342L13.7395 16.7408L13.7498 16.7511L22.4432 8.18517C22.7243 7.90522 23.1049 7.74805 23.5016 7.74805C23.8984 7.74805 24.279 7.90522 24.5601 8.18517L26.8101 10.3939C26.9506 10.5331 27.0622 10.6988 27.1384 10.8813C27.2146 11.0638 27.254 11.2596 27.2542 11.4574C27.2545 11.6552 27.2156 11.8511 27.1399 12.0338C27.0642 12.2165 26.953 12.3824 26.8129 12.522Z"
    fill="#F9F9FA"/>
</svg>
