<svg width="122" height="17" viewBox="0 0 122 17" fill="none" xmlns="http://www.w3.org/2000/svg">
<path d="M16.9236 0.219727H5.36426V11.7563H16.9236V0.219727Z" fill="#7FC9BB"/>
<path d="M28.4827 0.219727H16.9233V11.7563H28.4827V0.219727Z" fill="#7FC9BB"/>
<path d="M40.0418 0.219727H28.4824V11.7563H40.0418V0.219727Z" fill="#7FC9BB"/>
<path d="M51.6013 0.219727H40.042V11.7563H51.6013V0.219727Z" fill="#7FC9BB"/>
<path d="M63.1819 0.219727H51.6226V11.7563H63.1819V0.219727Z" fill="#7FC9BB"/>
<path d="M74.7415 0.219727H63.1821V11.7563H74.7415V0.219727Z" fill="#7FC9BB"/>
<path d="M86.3005 0.219727H74.7412V11.7563H86.3005V0.219727Z" fill="#7FC9BB"/>
<path d="M97.8601 0.219727H86.3008V11.7563H97.8601V0.219727Z" fill="#7FC9BB"/>
<path d="M109.441 0.219727H97.8813V11.7563H109.441V0.219727Z" fill="#7FC9BB"/>
<path d="M121 0.219727H109.44V11.7563H121V0.219727Z" fill="#7FC9BB"/>
<path d="M12.5593 4.58318H1L5.34274 0.219727H16.8808" fill="#C8E7E9"/>
<path d="M16.9023 11.7563L12.5596 16.0984V4.5619L16.9023 0.219727" fill="#3CB8AA"/>
<path d="M12.5593 4.54126H1V16.0778H12.5593V4.54126Z" fill="#7AC9C8"/>
<path d="M1.04276 4.58371H12.5595V16.099M12.5595 16.099H1.02148V4.56243H1.04276L5.36422 0.22026H16.9023L12.6021 4.49857L16.9023 0.198975V11.7568L12.5595 16.099Z" stroke="#00A19F" stroke-width="0.21" stroke-linecap="round" stroke-linejoin="round"/>
<path d="M24.1186 4.58318H12.5806L16.902 0.219727H28.4614" fill="#C8E7E9"/>
<path d="M28.4614 11.7563L24.1187 16.0984V4.5619L28.4614 0.219727" fill="#3CB8AA"/>
<path d="M24.1189 4.54126H12.5596V16.0778H24.1189V4.54126Z" fill="#7AC9C8"/>
<path d="M12.6018 4.58371H24.1186V16.099M24.1186 16.099H12.5806V4.56243H12.6018L16.9233 0.22026H28.4614L24.1612 4.49857L28.4614 0.198975V11.7568L24.1186 16.099Z" stroke="#00A19F" stroke-width="0.21" stroke-linecap="round" stroke-linejoin="round"/>
<path d="M35.6995 4.58318H24.1401L28.4829 0.219727H40.0209" fill="#C8E7E9"/>
<path d="M40.0205 11.7563L35.6777 16.0984V4.5619L40.0205 0.219727" fill="#3CB8AA"/>
<path d="M35.6995 4.54126H24.1401V16.0778H35.6995V4.54126Z" fill="#7AC9C8"/>
<path d="M24.1614 4.58371H35.6782V16.099M35.6782 16.099H24.1401V4.56243H24.1614L28.4829 0.22026H40.0209L35.7208 4.49857L40.0209 0.198975V11.7568L35.6782 16.099Z" stroke="#00A19F" stroke-width="0.21" stroke-linecap="round" stroke-linejoin="round"/>
<path d="M47.2586 4.58318H35.6992L40.042 0.219727H51.58" fill="#C8E7E9"/>
<path d="M51.6013 11.7563L47.2373 16.0984V4.5619L51.6013 0.219727" fill="#3CB8AA"/>
<path d="M47.2586 4.54126H35.6992V16.0778H47.2586V4.54126Z" fill="#7AC9C8"/>
<path d="M35.7205 4.58371H47.2373V16.099M47.2373 16.099H35.6992V4.56243H35.7205L40.042 0.22026H51.58L47.2798 4.49857L51.58 0.198975V11.7568L47.2373 16.099Z" stroke="#00A19F" stroke-width="0.21" stroke-linecap="round" stroke-linejoin="round"/>
<path d="M58.8181 4.58318H47.2588L51.6015 0.219727H63.1609" fill="#C8E7E9"/>
<path d="M63.1606 11.7563L58.8179 16.0984V4.5619L63.1606 0.219727" fill="#3CB8AA"/>
<path d="M58.8181 4.54126H47.2588V16.0778H58.8181V4.54126Z" fill="#7AC9C8"/>
<path d="M47.3011 4.58371H58.8178V16.099M58.8178 16.099H47.2798V4.56243H47.3011L51.6225 0.22026H63.1606L58.8604 4.49857L63.1606 0.198975V11.7568L58.8178 16.099Z" stroke="#00A19F" stroke-width="0.21" stroke-linecap="round" stroke-linejoin="round"/>
<path d="M70.3987 4.58318H58.8394L63.1821 0.219727H74.7201" fill="#C8E7E9"/>
<path d="M74.7202 11.7563L70.3774 16.0984V4.5619L74.7202 0.219727" fill="#3CB8AA"/>
<path d="M70.3772 4.54126H58.8179V16.0778H70.3772V4.54126Z" fill="#7AC9C8"/>
<path d="M58.8606 4.58371H70.3774V16.099M70.3774 16.099H58.8394V4.56243H58.8606L63.1821 0.22026H74.7201L70.42 4.49857L74.7201 0.198975V11.7568L70.3774 16.099Z" stroke="#00A19F" stroke-width="0.21" stroke-linecap="round" stroke-linejoin="round"/>
<path d="M81.9578 4.58318H70.3984L74.7412 0.219727H86.2792" fill="#C8E7E9"/>
<path d="M86.3006 11.7563L81.9365 16.0984V4.5619L86.3006 0.219727" fill="#3CB8AA"/>
<path d="M81.9365 4.54126H70.3984V16.0778H81.9365V4.54126Z" fill="#7AC9C8"/>
<path d="M70.4197 4.58371H81.9365V16.099M81.9365 16.099H70.3984V4.56243H70.4197L74.7412 0.22026H86.2792L81.9791 4.49857L86.2792 0.198975V11.7568L81.9365 16.099Z" stroke="#00A19F" stroke-width="0.21" stroke-linecap="round" stroke-linejoin="round"/>
<path d="M93.5173 4.58318H81.958L86.3007 0.219727H97.8388" fill="#C8E7E9"/>
<path d="M97.8603 11.7563L93.5176 16.0984V4.5619L97.8603 0.219727" fill="#3CB8AA"/>
<path d="M93.5173 4.54126H81.958V16.0778H93.5173V4.54126Z" fill="#7AC9C8"/>
<path d="M81.9793 4.58371H93.4961V16.099M93.4961 16.099H81.958V4.56243H81.9793L86.3007 0.22026H97.8388L93.5599 4.49857H93.5386L97.8388 0.198975V11.7568L93.4961 16.099Z" stroke="#00A19F" stroke-width="0.21" stroke-linecap="round" stroke-linejoin="round"/>
<path d="M105.077 4.58318H93.5386L97.8601 0.219727H109.419" fill="#C8E7E9"/>
<path d="M109.419 11.7563L105.077 16.0984V4.5619L109.419 0.219727" fill="#3CB8AA"/>
<path d="M105.077 4.54126H93.5176V16.0778H105.077V4.54126Z" fill="#7AC9C8"/>
<path d="M93.5599 4.58371H105.077V16.099M105.077 16.099H93.5386V4.56243H93.5599L97.8813 0.22026H109.419L105.119 4.49857L109.419 0.198975V11.7568L105.077 16.099Z" stroke="#00A19F" stroke-width="0.21" stroke-linecap="round" stroke-linejoin="round"/>
<path d="M116.657 4.58318H105.098L109.441 0.219727H120.979" fill="#C8E7E9"/>
<path d="M121 11.7563L116.636 16.0984V4.5619L121 0.219727" fill="#2AB7B5"/>
<path d="M116.657 4.54126H105.098V16.0778H116.657V4.54126Z" fill="#7AC9C8"/>
<path d="M105.119 4.58371H116.636V16.099M116.636 16.099H105.098V4.56243H105.119L109.441 0.22026H120.979L116.679 4.49857L120.979 0.198975V11.7568L116.636 16.099Z" stroke="#00A19F" stroke-width="0.21" stroke-linecap="round" stroke-linejoin="round"/>
</svg>
