<svg width="248" height="107" viewBox="0 0 248 107" fill="none" xmlns="http://www.w3.org/2000/svg">
<path d="M34.26 68V57.74H42.24V68H62.7V74.48H13.8V68H34.26ZM15.24 53.24C19.2 52.8 22.54 51.92 25.26 50.6C28.02 49.24 30.12 47.66 31.56 45.86C33.04 44.02 33.9 42.1 34.14 40.1H18V33.74H34.26V27.2H42.24V33.74H58.5V40.1H42.36C42.6 42.1 43.44 44.02 44.88 45.86C46.32 47.66 48.42 49.24 51.18 50.6C53.94 51.92 57.3 52.8 61.26 53.24L58.32 59.54C53.56 58.94 49.48 57.72 46.08 55.88C42.68 54.04 40.06 51.72 38.22 48.92C36.42 51.72 33.82 54.04 30.42 55.88C27.02 57.72 22.92 58.94 18.12 59.54L15.24 53.24ZM86.7614 29.42V33.8C86.7614 37.64 87.7214 41.04 89.6414 44C91.6014 46.92 94.6214 49.02 98.7014 50.3L94.5614 56.54C89.2014 54.7 85.3014 51.32 82.8614 46.4C81.6214 49.2 79.9014 51.62 77.7014 53.66C75.5414 55.66 72.9214 57.18 69.8414 58.22L65.6414 51.74C70.0414 50.34 73.3014 48.06 75.4214 44.9C77.5814 41.7 78.6614 38.12 78.6614 34.16V29.42H86.7614ZM74.5214 70.1C74.5214 66.82 76.1814 64.26 79.5014 62.42C82.8214 60.54 87.3614 59.6 93.1214 59.6C98.8414 59.6 103.341 60.54 106.621 62.42C109.941 64.26 111.601 66.82 111.601 70.1C111.601 73.42 109.961 76 106.681 77.84C103.401 79.72 98.8814 80.66 93.1214 80.66C87.3614 80.66 82.8214 79.72 79.5014 77.84C76.1814 76 74.5214 73.42 74.5214 70.1ZM82.5614 70.1C82.5614 73.06 86.0814 74.54 93.1214 74.54C100.161 74.54 103.681 73.06 103.681 70.1C103.681 67.18 100.161 65.72 93.1214 65.72C86.0814 65.72 82.5614 67.18 82.5614 70.1ZM93.7214 36.26H103.381V26.66H111.421V58.22H103.381V42.8H93.7214V36.26ZM163.771 30.08V33.5C163.771 36.74 163.671 39.76 163.471 42.56C163.311 45.36 162.891 48.64 162.211 52.4C163.531 52.32 165.311 52.16 167.551 51.92L168.151 57.74C163.871 58.38 158.991 58.9 153.511 59.3V77.78H145.471V59.66C141.631 59.82 137.531 59.9 133.171 59.9L132.151 53.42C141.831 53.34 149.151 53.18 154.111 52.94C154.591 50.74 154.951 48.66 155.191 46.7L136.231 48.26L135.211 41.66L155.791 41C155.871 39.56 155.911 38.54 155.911 37.94L155.971 36.44H136.531V30.08H163.771ZM170.491 26.6H178.531V80.6H170.491V26.6ZM233.852 67.7V74.18H184.952V67.7H233.852ZM186.812 53.66C190.652 53.1 193.932 52.02 196.652 50.42C199.412 48.78 201.492 46.84 202.892 44.6C204.332 42.32 205.092 39.92 205.172 37.4H189.032V31.04H229.652V37.4H213.512C213.592 39.88 214.332 42.24 215.732 44.48C217.172 46.68 219.272 48.58 222.032 50.18C224.832 51.78 228.212 52.86 232.172 53.42L229.052 59.78C224.372 58.94 220.352 57.46 216.992 55.34C213.632 53.18 211.092 50.52 209.372 47.36C207.652 50.56 205.132 53.28 201.812 55.52C198.532 57.72 194.572 59.24 189.932 60.08L186.812 53.66Z" fill="#7F3394"/>
<g clip-path="url(#clip0_56_9464)">
<path d="M1.8597 70.2457C65.7752 65.6397 181.11 63.6227 245.019 70.2457C247.02 70.4564 247.686 89.1615 246.163 89.0009C182.254 82.3779 66.9193 84.3949 3.00373 89.0009C1.0458 89.1414 0.254784 70.3661 1.8597 70.2457Z" fill="url(#paint0_linear_56_9464)" fill-opacity="0.4" style="mix-blend-mode:multiply"/>
</g>
<defs>
<linearGradient id="paint0_linear_56_9464" x1="1" y1="77.5017" x2="246.998" y2="77.5017" gradientUnits="userSpaceOnUse">
<stop stop-color="#FB6CFF" stop-opacity="0.25"/>
<stop offset="0.2" stop-color="#FB6CFF"/>
<stop offset="0.8" stop-color="#FB6CFF"/>
<stop offset="1" stop-color="#FB6CFF" stop-opacity="0.25"/>
</linearGradient>
<clipPath id="clip0_56_9464">
<rect width="246" height="23" fill="white" transform="matrix(1 0 0 -1 1 89)"/>
</clipPath>
</defs>
</svg>
