<svg width="160" height="133" viewBox="0 0 160 133" fill="none" xmlns="http://www.w3.org/2000/svg">
<path d="M36.7882 14.2173C17.6455 17.1449 2.56 33.3888 0.306031 53.3464C-1.17515 66.4787 2.8176 78.6239 10.1752 87.7245C11.8496 89.9662 13.7655 92.074 15.9872 93.931C38.3177 112.718 64.2545 118.857 87.4543 118.857C107.563 118.857 125.627 114.24 137.46 109.205C151.435 103.282 159.92 89.3305 160 74.5588V74.1071C159.968 69.4397 159.098 64.7054 157.295 60.1217C149.728 40.8666 128.573 31.6489 110.058 39.4948C109.914 39.5617 102.701 42.3555 93.1697 43.3258C88.2432 43.8276 83.5259 41.2012 81.111 36.7178C72.7391 21.1933 55.7377 11.3232 36.7882 14.2173Z" fill="#7D4845"/>
<mask id="path-2-outside-1_4637_19966" maskUnits="userSpaceOnUse" x="57.7139" y="23.1429" width="40" height="79" fill="black">
<rect fill="white" x="57.7139" y="23.1429" width="40" height="79"/>
<path d="M93.6331 97.6229L81.2491 97.4309V40.3109L67.9051 46.6469L63.3931 35.8949L81.3451 27.3509H93.6331V97.6229Z"/>
</mask>
<path d="M93.6331 97.6229L81.2491 97.4309V40.3109L67.9051 46.6469L63.3931 35.8949L81.3451 27.3509H93.6331V97.6229Z" fill="white"/>
<path d="M93.6331 97.6229L93.5711 101.622L97.6331 101.685V97.6229H93.6331ZM81.2491 97.4309H77.2491V101.369L81.1871 101.43L81.2491 97.4309ZM81.2491 40.3109H85.2491V33.9836L79.5334 36.6975L81.2491 40.3109ZM67.9051 46.6469L64.2167 48.1947L65.8374 52.0567L69.6208 50.2602L67.9051 46.6469ZM63.3931 35.8949L61.6741 32.2831L58.2278 33.9233L59.7047 37.4427L63.3931 35.8949ZM81.3451 27.3509V23.3509H80.4418L79.6261 23.7391L81.3451 27.3509ZM93.6331 27.3509H97.6331V23.3509H93.6331V27.3509ZM93.6951 93.6234L81.3111 93.4314L81.1871 101.43L93.5711 101.622L93.6951 93.6234ZM85.2491 97.4309V40.3109H77.2491V97.4309H85.2491ZM79.5334 36.6975L66.1894 43.0335L69.6208 50.2602L82.9648 43.9242L79.5334 36.6975ZM71.5935 45.0991L67.0815 34.3471L59.7047 37.4427L64.2167 48.1947L71.5935 45.0991ZM65.1121 39.5067L83.0641 30.9627L79.6261 23.7391L61.6741 32.2831L65.1121 39.5067ZM81.3451 31.3509H93.6331V23.3509H81.3451V31.3509ZM89.6331 27.3509V97.6229H97.6331V27.3509H89.6331Z" fill="#F4A100" mask="url(#path-2-outside-1_4637_19966)"/>
</svg>
