<svg width="314" height="23" viewBox="0 0 314 23" fill="none" xmlns="http://www.w3.org/2000/svg">
<path d="M1 18L-1.79086e-07 18C-1.84904e-07 18.5523 0.447715 19 1 19L1 18ZM2 1C2 0.447715 1.55228 5.81802e-09 1 0C0.447715 -5.81803e-09 5.81802e-09 0.447715 0 1L2 1ZM-4.47714e-08 5.24999C-5.05895e-08 5.80228 0.447715 6.24999 1 6.24999C1.55228 6.24999 2 5.80228 2 5.24999L-4.47714e-08 5.24999ZM2 13.75C2 13.1977 1.55228 12.75 1 12.75C0.447715 12.75 -1.28496e-07 13.1977 -1.34314e-07 13.75L2 13.75ZM3.96154 19C4.51382 19 4.96154 18.5523 4.96154 18C4.96154 17.4477 4.51382 17 3.96154 17L3.96154 19ZM9.88462 17C9.33233 17 8.88462 17.4477 8.88462 18C8.88462 18.5523 9.33233 19 9.88462 19L9.88462 17ZM15.8077 19C16.36 19 16.8077 18.5523 16.8077 18C16.8077 17.4477 16.36 17 15.8077 17L15.8077 19ZM21.7308 17C21.1785 17 20.7308 17.4477 20.7308 18C20.7308 18.5523 21.1785 19 21.7308 19L21.7308 17ZM27.6538 19C28.2061 19 28.6538 18.5523 28.6538 18C28.6538 17.4477 28.2061 17 27.6538 17L27.6538 19ZM33.5769 17C33.0246 17 32.5769 17.4477 32.5769 18C32.5769 18.5523 33.0246 19 33.5769 19L33.5769 17ZM39.5 19C40.0523 19 40.5 18.5523 40.5 18C40.5 17.4477 40.0523 17 39.5 17L39.5 19ZM45.4231 17C44.8708 17 44.4231 17.4477 44.4231 18C44.4231 18.5523 44.8708 19 45.4231 19L45.4231 17ZM51.3462 19C51.8984 19 52.3462 18.5523 52.3462 18C52.3462 17.4477 51.8984 17 51.3462 17L51.3462 19ZM57.2692 17C56.7169 17 56.2692 17.4477 56.2692 18C56.2692 18.5523 56.7169 19 57.2692 19L57.2692 17ZM63.1923 19C63.7446 19 64.1923 18.5523 64.1923 18C64.1923 17.4477 63.7446 17 63.1923 17L63.1923 19ZM69.1154 17C68.5631 17 68.1154 17.4477 68.1154 18C68.1154 18.5523 68.5631 19 69.1154 19L69.1154 17ZM75.0385 19C75.5908 19 76.0385 18.5523 76.0385 18C76.0385 17.4477 75.5908 17 75.0385 17L75.0385 19ZM80.9615 17C80.4093 17 79.9615 17.4477 79.9615 18C79.9615 18.5523 80.4093 19 80.9615 19L80.9615 17ZM86.8846 19C87.4369 19 87.8846 18.5523 87.8846 18C87.8846 17.4477 87.4369 17 86.8846 17L86.8846 19ZM92.8077 17C92.2554 17 91.8077 17.4477 91.8077 18C91.8077 18.5523 92.2554 19 92.8077 19L92.8077 17ZM98.7308 19C99.2831 19 99.7308 18.5523 99.7308 18C99.7308 17.4477 99.2831 17 98.7308 17L98.7308 19ZM104.654 17C104.102 17 103.654 17.4477 103.654 18C103.654 18.5523 104.102 19 104.654 19L104.654 17ZM110.577 19C111.129 19 111.577 18.5523 111.577 18C111.577 17.4477 111.129 17 110.577 17L110.577 19ZM116.5 17C115.948 17 115.5 17.4477 115.5 18C115.5 18.5523 115.948 19 116.5 19L116.5 17ZM122.423 19C122.975 19 123.423 18.5523 123.423 18C123.423 17.4477 122.975 17 122.423 17L122.423 19ZM128.346 17C127.794 17 127.346 17.4477 127.346 18C127.346 18.5523 127.794 19 128.346 19L128.346 17ZM134.269 19C134.822 19 135.269 18.5523 135.269 18C135.269 17.4477 134.822 17 134.269 17L134.269 19ZM140.192 17C139.64 17 139.192 17.4477 139.192 18C139.192 18.5523 139.64 19 140.192 19L140.192 17ZM146.115 19C146.668 19 147.115 18.5523 147.115 18C147.115 17.4477 146.668 17 146.115 17L146.115 19ZM152.039 17C151.486 17 151.039 17.4477 151.039 18C151.039 18.5523 151.486 19 152.039 19L152.039 17ZM157.962 19C158.514 19 158.962 18.5523 158.962 18C158.962 17.4477 158.514 17 157.962 17L157.962 19ZM163.885 17C163.332 17 162.885 17.4477 162.885 18C162.885 18.5523 163.332 19 163.885 19L163.885 17ZM169.808 19C170.36 19 170.808 18.5523 170.808 18C170.808 17.4477 170.36 17 169.808 17L169.808 19ZM175.731 17C175.179 17 174.731 17.4477 174.731 18C174.731 18.5523 175.179 19 175.731 19L175.731 17ZM181.654 19C182.206 19 182.654 18.5523 182.654 18C182.654 17.4477 182.206 17 181.654 17L181.654 19ZM187.577 17C187.025 17 186.577 17.4477 186.577 18C186.577 18.5523 187.025 19 187.577 19L187.577 17ZM193.5 19C194.052 19 194.5 18.5523 194.5 18C194.5 17.4477 194.052 17 193.5 17L193.5 19ZM199.423 17C198.871 17 198.423 17.4477 198.423 18C198.423 18.5523 198.871 19 199.423 19L199.423 17ZM205.346 19C205.899 19 206.346 18.5523 206.346 18C206.346 17.4477 205.899 17 205.346 17L205.346 19ZM211.269 17C210.717 17 210.269 17.4477 210.269 18C210.269 18.5523 210.717 19 211.269 19L211.269 17ZM217.192 19C217.745 19 218.192 18.5523 218.192 18C218.192 17.4477 217.745 17 217.192 17L217.192 19ZM223.115 17C222.563 17 222.115 17.4477 222.115 18C222.115 18.5523 222.563 19 223.115 19L223.115 17ZM229.039 19C229.591 19 230.039 18.5523 230.039 18C230.039 17.4477 229.591 17 229.039 17L229.039 19ZM234.962 17C234.409 17 233.962 17.4477 233.962 18C233.962 18.5523 234.409 19 234.962 19L234.962 17ZM240.885 19C241.437 19 241.885 18.5523 241.885 18C241.885 17.4477 241.437 17 240.885 17L240.885 19ZM246.808 17C246.256 17 245.808 17.4477 245.808 18C245.808 18.5523 246.256 19 246.808 19L246.808 17ZM252.731 19C253.283 19 253.731 18.5523 253.731 18C253.731 17.4477 253.283 17 252.731 17L252.731 19ZM258.654 17C258.102 17 257.654 17.4477 257.654 18C257.654 18.5523 258.102 19 258.654 19L258.654 17ZM264.577 19C265.129 19 265.577 18.5523 265.577 18C265.577 17.4477 265.129 17 264.577 17L264.577 19ZM270.5 17C269.948 17 269.5 17.4477 269.5 18C269.5 18.5523 269.948 19 270.5 19L270.5 17ZM276.423 19C276.975 19 277.423 18.5523 277.423 18C277.423 17.4477 276.975 17 276.423 17L276.423 19ZM282.346 17C281.794 17 281.346 17.4477 281.346 18C281.346 18.5523 281.794 19 282.346 19L282.346 17ZM288.269 19C288.822 19 289.269 18.5523 289.269 18C289.269 17.4477 288.822 17 288.269 17L288.269 19ZM294.192 17C293.64 17 293.192 17.4477 293.192 18C293.192 18.5523 293.64 19 294.192 19L294.192 17ZM300.115 19C300.668 19 301.115 18.5523 301.115 18C301.115 17.4477 300.668 17 300.115 17L300.115 19ZM306.038 17C305.486 17 305.038 17.4477 305.038 18C305.038 18.5523 305.486 19 306.038 19L306.038 17ZM0 1L-4.47714e-08 5.24999L2 5.24999L2 1L0 1ZM-1.34314e-07 13.75L-1.79086e-07 18L2 18L2 13.75L-1.34314e-07 13.75ZM1 19L3.96154 19L3.96154 17L1 17L1 19ZM9.88462 19L15.8077 19L15.8077 17L9.88462 17L9.88462 19ZM21.7308 19L27.6538 19L27.6538 17L21.7308 17L21.7308 19ZM33.5769 19L39.5 19L39.5 17L33.5769 17L33.5769 19ZM45.4231 19L51.3462 19L51.3462 17L45.4231 17L45.4231 19ZM57.2692 19L63.1923 19L63.1923 17L57.2692 17L57.2692 19ZM69.1154 19L75.0385 19L75.0385 17L69.1154 17L69.1154 19ZM80.9615 19L86.8846 19L86.8846 17L80.9615 17L80.9615 19ZM92.8077 19L98.7308 19L98.7308 17L92.8077 17L92.8077 19ZM104.654 19L110.577 19L110.577 17L104.654 17L104.654 19ZM116.5 19L122.423 19L122.423 17L116.5 17L116.5 19ZM128.346 19L134.269 19L134.269 17L128.346 17L128.346 19ZM140.192 19L146.115 19L146.115 17L140.192 17L140.192 19ZM152.039 19L157.962 19L157.962 17L152.039 17L152.039 19ZM163.885 19L169.808 19L169.808 17L163.885 17L163.885 19ZM175.731 19L181.654 19L181.654 17L175.731 17L175.731 19ZM187.577 19L193.5 19L193.5 17L187.577 17L187.577 19ZM199.423 19L205.346 19L205.346 17L199.423 17L199.423 19ZM211.269 19L217.192 19L217.192 17L211.269 17L211.269 19ZM223.115 19L229.039 19L229.039 17L223.115 17L223.115 19ZM234.962 19L240.885 19L240.885 17L234.962 17L234.962 19ZM246.808 19L252.731 19L252.731 17L246.808 17L246.808 19ZM258.654 19L264.577 19L264.577 17L258.654 17L258.654 19ZM270.5 19L276.423 19L276.423 17L270.5 17L270.5 19ZM282.346 19L288.269 19L288.269 17L282.346 17L282.346 19ZM294.192 19L300.115 19L300.115 17L294.192 17L294.192 19ZM306.038 19L309 19L309 17L306.038 17L306.038 19Z" fill="#EBAA9D"/>
<circle cx="309" cy="18" r="5" fill="#EBAA9D"/>
</svg>
