<svg width="44" height="44" viewBox="0 0 44 44" fill="none" xmlns="http://www.w3.org/2000/svg">
<path d="M24.2219 26.8999H18.4799L18.5879 26.3959C19.1519 26.3959 19.5899 26.3599 19.9019 26.2879C20.2139 26.2039 20.4419 26.0779 20.5859 25.9099C20.7299 25.7299 20.8319 25.4899 20.8919 25.1899L22.5119 17.5759C22.5359 17.4799 22.5539 17.3959 22.5659 17.3239C22.5779 17.2519 22.5839 17.1859 22.5839 17.1259C22.5839 16.8379 22.4279 16.6939 22.1159 16.6939C21.9959 16.6939 21.8459 16.7059 21.6659 16.7299C21.4859 16.7539 21.2939 16.7899 21.0899 16.8379C20.8859 16.8739 20.6819 16.9219 20.4779 16.9819L20.6039 16.3879L24.0419 15.3979H24.5639L22.4759 25.1899C22.4639 25.2499 22.4519 25.3099 22.4399 25.3699C22.4399 25.4299 22.4399 25.4899 22.4399 25.5499C22.4399 25.8499 22.5779 26.0659 22.8539 26.1979C23.1419 26.3299 23.6339 26.3959 24.3299 26.3959L24.2219 26.8999Z" fill="black"/>
</svg>
