<svg width="44" height="44" viewBox="0 0 44 44" fill="none" xmlns="http://www.w3.org/2000/svg">
<path d="M21.0719 27.0979C20.3639 27.0979 19.7939 26.9119 19.3619 26.5399C18.9299 26.1679 18.6179 25.6699 18.4259 25.0459C18.2339 24.4219 18.1379 23.7379 18.1379 22.9939C18.1379 21.9619 18.2519 20.9899 18.4799 20.0779C18.7199 19.1539 19.0559 18.3379 19.4879 17.6299C19.9319 16.9219 20.4719 16.3639 21.1079 15.9559C21.7559 15.5479 22.4819 15.3439 23.2859 15.3439C24.1859 15.3439 24.8939 15.7099 25.4099 16.4419C25.9259 17.1739 26.1839 18.1879 26.1839 19.4839C26.1839 20.1559 26.1179 20.8519 25.9859 21.5719C25.8659 22.2799 25.6739 22.9639 25.4099 23.6239C25.1459 24.2719 24.8099 24.8599 24.4019 25.3879C23.9939 25.9159 23.5139 26.3359 22.9619 26.6479C22.4099 26.9479 21.7799 27.0979 21.0719 27.0979ZM21.2339 26.4499C21.6899 26.4499 22.0919 26.3059 22.4399 26.0179C22.7999 25.7299 23.1119 25.3339 23.3759 24.8299C23.6399 24.3259 23.8559 23.7559 24.0239 23.1199C24.2039 22.4719 24.3359 21.7879 24.4199 21.0679C24.5039 20.3479 24.5459 19.6339 24.5459 18.9259C24.5459 16.9459 24.0539 15.9559 23.0699 15.9559C22.6019 15.9559 22.1879 16.1119 21.8279 16.4239C21.4799 16.7239 21.1739 17.1319 20.9099 17.6479C20.6459 18.1639 20.4299 18.7459 20.2619 19.3939C20.0939 20.0419 19.9679 20.7199 19.8839 21.4279C19.8119 22.1239 19.7759 22.8019 19.7759 23.4619C19.7759 24.4339 19.8959 25.1779 20.1359 25.6939C20.3879 26.1979 20.7539 26.4499 21.2339 26.4499Z" fill="black"/>
</svg>
