<svg width="44" height="44" viewBox="0 0 44 44" fill="none" xmlns="http://www.w3.org/2000/svg">
<path d="M20.9819 27.1159C20.0699 27.1159 19.3439 26.9359 18.8039 26.5759C18.2639 26.2039 17.9939 25.6579 17.9939 24.9379C17.9939 24.4099 18.0899 23.9419 18.2819 23.5339C18.4859 23.1139 18.8219 22.7119 19.2899 22.3279C19.7579 21.9439 20.3819 21.5479 21.1619 21.1399L21.2339 20.9239L21.9179 21.3379C21.3299 21.6859 20.8499 22.0159 20.4779 22.3279C20.1179 22.6279 19.8479 22.9639 19.6679 23.3359C19.4999 23.6959 19.4159 24.1459 19.4159 24.6859C19.4159 25.3339 19.5779 25.8079 19.9019 26.1079C20.2259 26.4079 20.6699 26.5579 21.2339 26.5579C21.6659 26.5579 22.0739 26.4799 22.4579 26.3239C22.8539 26.1679 23.1719 25.9339 23.4119 25.6219C23.6519 25.2979 23.7719 24.8959 23.7719 24.4159C23.7719 23.8159 23.5859 23.2879 23.2139 22.8319C22.8419 22.3759 22.2419 21.8419 21.4139 21.2299C20.7059 20.7019 20.2199 20.2339 19.9559 19.8259C19.7039 19.4179 19.5779 18.9799 19.5779 18.5119C19.5779 17.8279 19.7579 17.2459 20.1179 16.7659C20.4779 16.2739 20.9639 15.8959 21.5759 15.6319C22.1879 15.3679 22.8659 15.2359 23.6099 15.2359C24.4019 15.2359 25.0379 15.4219 25.5179 15.7939C26.0099 16.1539 26.2559 16.6519 26.2559 17.2879C26.2559 17.6239 26.1719 17.9779 26.0039 18.3499C25.8479 18.7099 25.5479 19.0819 25.1039 19.4659C24.6719 19.8499 24.0479 20.2519 23.2319 20.6719L23.1599 20.8879L22.4939 20.4739C23.2259 20.1139 23.8079 19.6579 24.2399 19.1059C24.6839 18.5419 24.9059 17.9419 24.9059 17.3059C24.9059 16.8259 24.7859 16.4599 24.5459 16.2079C24.3059 15.9559 23.9399 15.8299 23.4479 15.8299C22.7159 15.8299 22.1279 16.0219 21.6839 16.4059C21.2399 16.7779 21.0179 17.2699 21.0179 17.8819C21.0179 18.3619 21.1559 18.8059 21.4319 19.2139C21.7199 19.6219 22.1939 20.0539 22.8539 20.5099C23.4659 20.9179 23.9459 21.2959 24.2939 21.6439C24.6539 21.9799 24.9119 22.3099 25.0679 22.6339C25.2239 22.9579 25.3019 23.2999 25.3019 23.6599C25.3019 24.4039 25.1099 25.0339 24.7259 25.5499C24.3539 26.0659 23.8379 26.4559 23.1779 26.7199C22.5299 26.9839 21.7979 27.1159 20.9819 27.1159Z" fill="black"/>
</svg>
