<svg width="44" height="44" viewBox="0 0 44 44" fill="none" xmlns="http://www.w3.org/2000/svg">
<path d="M17.9039 27.1339V26.6479C18.7559 26.5879 19.6019 26.3659 20.4419 25.9819C21.2819 25.5859 22.0379 25.0219 22.7099 24.2899C23.3939 23.5579 23.9159 22.6519 24.2759 21.5719L24.1679 21.5539C23.6879 21.9979 23.2379 22.3339 22.8179 22.5619C22.4099 22.7779 21.9059 22.8859 21.3059 22.8859C20.5019 22.8859 19.8659 22.6159 19.3979 22.0759C18.9419 21.5239 18.7139 20.8099 18.7139 19.9339C18.7139 18.9739 18.8879 18.1459 19.2359 17.4499C19.5839 16.7539 20.0819 16.2199 20.7299 15.8479C21.3899 15.4639 22.1759 15.2719 23.0879 15.2719C23.7839 15.2719 24.3539 15.4339 24.7979 15.7579C25.2419 16.0699 25.5659 16.4899 25.7699 17.0179C25.9859 17.5459 26.0939 18.1399 26.0939 18.7999C26.0939 20.1319 25.8959 21.3199 25.4999 22.3639C25.1159 23.3959 24.5579 24.2719 23.8259 24.9919C23.1059 25.6999 22.2419 26.2399 21.2339 26.6119C20.2379 26.9719 19.1279 27.1459 17.9039 27.1339ZM21.9899 21.8419C22.4099 21.8419 22.8179 21.7459 23.2139 21.5539C23.6219 21.3499 23.9579 20.9959 24.2219 20.4919C24.4979 19.9759 24.6359 19.2559 24.6359 18.3319C24.6359 17.6239 24.4979 17.0479 24.2219 16.6039C23.9579 16.1479 23.5439 15.9199 22.9799 15.9199C22.4279 15.9199 21.9419 16.0579 21.5219 16.3339C21.1019 16.6099 20.7719 17.0299 20.5319 17.5939C20.3039 18.1459 20.1899 18.8359 20.1899 19.6639C20.1899 20.2879 20.3399 20.8099 20.6399 21.2299C20.9519 21.6379 21.4019 21.8419 21.9899 21.8419Z" fill="black"/>
</svg>
