<svg width="44" height="44" viewBox="0 0 44 44" fill="none" xmlns="http://www.w3.org/2000/svg">
<path d="M24.3839 26.8999H17.3639L17.4899 26.2879L20.7839 23.5879C21.4679 22.9879 22.0499 22.4599 22.5299 22.0039C23.0099 21.5479 23.3939 21.1219 23.6819 20.7259C23.9819 20.3299 24.1979 19.9339 24.3299 19.5379C24.4619 19.1299 24.5279 18.6859 24.5279 18.2059C24.5279 17.6779 24.3779 17.2519 24.0779 16.9279C23.7779 16.6039 23.3339 16.4419 22.7459 16.4419C22.1579 16.4419 21.6359 16.5739 21.1799 16.8379C20.7359 17.1019 20.2559 17.5699 19.7399 18.2419L19.3439 18.0619C19.8479 17.2099 20.4239 16.5379 21.0719 16.0459C21.7319 15.5539 22.5299 15.3079 23.4659 15.3079C24.3179 15.3079 24.9899 15.5359 25.4819 15.9919C25.9739 16.4479 26.2199 17.0599 26.2199 17.8279C26.2199 18.4519 26.0759 19.0279 25.7879 19.5559C25.4999 20.0839 25.0619 20.6359 24.4739 21.2119C23.8859 21.7759 23.1359 22.4359 22.2239 23.1919L19.4519 25.4419L19.4339 25.5319L20.6399 25.4779H23.1419C23.4659 25.4779 23.7239 25.4299 23.9159 25.3339C24.1199 25.2379 24.3059 25.0879 24.4739 24.8839C24.6419 24.6679 24.8339 24.3799 25.0499 24.0199H25.5719L24.3839 26.8999Z" fill="black"/>
</svg>
