<svg width="44" height="44" viewBox="0 0 44 44" fill="none" xmlns="http://www.w3.org/2000/svg">
<path d="M19.8839 27.1339C19.2599 27.1339 18.7979 27.0559 18.4979 26.8999C18.2099 26.7439 18.0659 26.5219 18.0659 26.2339C18.0659 25.9939 18.1379 25.7899 18.2819 25.6219C18.4379 25.4419 18.6479 25.3519 18.9119 25.3519C19.0919 25.3519 19.2599 25.3999 19.4159 25.4959C19.5719 25.5799 19.7279 25.6819 19.8839 25.8019C20.0519 25.9099 20.2379 26.0119 20.4419 26.1079C20.6579 26.1919 20.9099 26.2339 21.1979 26.2339C21.7139 26.2339 22.1879 26.1259 22.6199 25.9099C23.0639 25.6939 23.4179 25.3519 23.6819 24.8839C23.9579 24.4159 24.0959 23.8099 24.0959 23.0659C24.0959 22.4659 23.9639 21.9919 23.6999 21.6439C23.4359 21.2959 23.0579 21.0379 22.5659 20.8699C22.0739 20.6899 21.4739 20.5759 20.7659 20.5279C20.5379 20.5039 20.3459 20.4919 20.1899 20.4919C20.0339 20.4919 19.9559 20.4919 19.9559 20.4919L19.7939 20.2219L21.1799 15.5599H26.4539L26.0399 17.0179H21.5759L20.9639 19.1059C21.4559 19.1179 21.9659 19.1779 22.4939 19.2859C23.0339 19.3819 23.5319 19.5439 23.9879 19.7719C24.4559 19.9999 24.8339 20.3239 25.1219 20.7439C25.4099 21.1519 25.5539 21.6859 25.5539 22.3459C25.5539 23.1019 25.4159 23.7739 25.1399 24.3619C24.8639 24.9499 24.4739 25.4539 23.9699 25.8739C23.4659 26.2819 22.8659 26.5939 22.1699 26.8099C21.4859 27.0259 20.7239 27.1339 19.8839 27.1339Z" fill="black"/>
</svg>
