<svg width="44" height="44" viewBox="0 0 44 44" fill="none" xmlns="http://www.w3.org/2000/svg">
<path d="M19.7939 27.1339C19.2899 27.1339 18.9059 27.0919 18.6419 27.0079C18.3899 26.9239 18.2159 26.8099 18.1199 26.6659C18.0239 26.5219 17.9759 26.3719 17.9759 26.2159C17.9759 26.0239 18.0419 25.8319 18.1739 25.6399C18.3179 25.4479 18.5279 25.3519 18.8039 25.3519C18.9959 25.3519 19.1639 25.3999 19.3079 25.4959C19.4639 25.5799 19.6259 25.6819 19.7939 25.8019C19.9619 25.9099 20.1599 26.0119 20.3879 26.1079C20.6159 26.1919 20.8979 26.2339 21.2339 26.2339C21.6779 26.2339 22.1099 26.1499 22.5299 25.9819C22.9619 25.8019 23.3159 25.5139 23.5919 25.1179C23.8679 24.7219 24.0059 24.1939 24.0059 23.5339C24.0059 23.0779 23.8799 22.6819 23.6279 22.3459C23.3759 22.0099 23.0399 21.7519 22.6199 21.5719C22.1999 21.3799 21.7319 21.2839 21.2159 21.2839H20.8559L20.9999 20.5999H21.2699C21.7619 20.5999 22.2479 20.4799 22.7279 20.2399C23.2199 19.9999 23.6279 19.6699 23.9519 19.2499C24.2879 18.8179 24.4559 18.3379 24.4559 17.8099C24.4559 17.3419 24.3119 16.9999 24.0239 16.7839C23.7479 16.5559 23.3699 16.4419 22.8899 16.4419C22.3139 16.4419 21.8279 16.5739 21.4319 16.8379C21.0359 17.0899 20.6339 17.4559 20.2259 17.9359L19.8659 17.7019C20.3939 16.9339 20.9519 16.3459 21.5399 15.9379C22.1279 15.5179 22.8359 15.3079 23.6639 15.3079C24.4439 15.3079 25.0319 15.4999 25.4279 15.8839C25.8359 16.2559 26.0399 16.7299 26.0399 17.3059C26.0399 17.7979 25.9319 18.2299 25.7159 18.6019C25.5119 18.9619 25.2179 19.2859 24.8339 19.5739C24.4619 19.8619 24.0179 20.1499 23.5019 20.4379V20.4919C24.0779 20.6839 24.5639 20.9779 24.9599 21.3739C25.3559 21.7579 25.5539 22.2679 25.5539 22.9039C25.5539 23.5879 25.3919 24.1939 25.0679 24.7219C24.7559 25.2379 24.3239 25.6759 23.7719 26.0359C23.2319 26.3959 22.6199 26.6719 21.9359 26.8639C21.2519 27.0439 20.5379 27.1339 19.7939 27.1339Z" fill="black"/>
</svg>
