<svg width="44" height="44" viewBox="0 0 44 44" fill="none" xmlns="http://www.w3.org/2000/svg">
<path d="M21.2967 27.1339C20.6007 27.1339 20.0307 26.9779 19.5867 26.6659C19.1427 26.3419 18.8127 25.9159 18.5967 25.3879C18.3927 24.8479 18.2907 24.2539 18.2907 23.6059C18.2907 22.3699 18.5007 21.2539 18.9207 20.2579C19.3527 19.2499 19.9467 18.3859 20.7027 17.6659C21.4587 16.9339 22.3347 16.3639 23.3307 15.9559C24.3387 15.5479 25.4187 15.3199 26.5707 15.2719V15.7579C25.7067 15.8779 24.8547 16.1539 24.0147 16.5859C23.1867 17.0179 22.4427 17.5759 21.7827 18.2599C21.1227 18.9439 20.6247 19.7359 20.2887 20.6359L20.4147 20.6539C20.8587 20.2939 21.2907 20.0059 21.7107 19.7899C22.1307 19.5739 22.6287 19.4659 23.2047 19.4659C24.0207 19.4659 24.6447 19.7179 25.0767 20.2219C25.5207 20.7259 25.7427 21.4219 25.7427 22.3099C25.7427 23.2459 25.5627 24.0799 25.2027 24.8119C24.8547 25.5319 24.3447 26.1019 23.6727 26.5219C23.0127 26.9299 22.2207 27.1339 21.2967 27.1339ZM21.4587 26.4859C22.0947 26.4859 22.6107 26.3179 23.0067 25.9819C23.4147 25.6339 23.7147 25.1659 23.9067 24.5779C24.0987 23.9899 24.1947 23.3299 24.1947 22.5979C24.1947 21.9979 24.0507 21.4999 23.7627 21.1039C23.4747 20.7079 23.0307 20.5099 22.4307 20.5099C22.0227 20.5099 21.6087 20.6119 21.1887 20.8159C20.7807 21.0199 20.4387 21.3739 20.1627 21.8779C19.8987 22.3699 19.7667 23.0659 19.7667 23.9659C19.7667 24.6979 19.9047 25.3039 20.1807 25.7839C20.4567 26.2519 20.8827 26.4859 21.4587 26.4859Z" fill="black"/>
</svg>
