<svg width="44" height="44" viewBox="0 0 44 44" fill="none" xmlns="http://www.w3.org/2000/svg">
<path d="M21.7213 27.6359H16.7173L16.8253 27.0959C17.2813 27.0959 17.6293 27.0539 17.8693 26.9699C18.1213 26.8859 18.3073 26.7239 18.4273 26.4839C18.5473 26.2319 18.6553 25.8539 18.7513 25.3499L20.3533 17.6099C20.4493 17.0819 20.3893 16.7399 20.1733 16.5839C19.9693 16.4279 19.5673 16.3499 18.9673 16.3499L19.0753 15.8099H23.4493C24.1933 15.8099 24.8533 15.8879 25.4293 16.0439C26.0173 16.1879 26.4793 16.4399 26.8153 16.7999C27.1633 17.1599 27.3373 17.6579 27.3373 18.2939C27.3373 19.0739 27.1753 19.7339 26.8513 20.2739C26.5273 20.8019 26.0953 21.2339 25.5553 21.5699C25.0273 21.8939 24.4393 22.1279 23.7913 22.2719C23.1553 22.4159 22.5133 22.4879 21.8653 22.4879C21.6493 22.4879 21.4513 22.4699 21.2713 22.4339C21.1033 22.3979 20.9773 22.3499 20.8933 22.2899L21.0193 21.6599C21.1273 21.6719 21.2533 21.6899 21.3973 21.7139C21.5413 21.7379 21.7273 21.7499 21.9553 21.7499C22.6633 21.7499 23.2873 21.6419 23.8273 21.4259C24.3793 21.1979 24.8113 20.8499 25.1233 20.3819C25.4353 19.9019 25.5913 19.2779 25.5913 18.5099C25.5913 17.9099 25.4053 17.4299 25.0333 17.0699C24.6733 16.6979 24.0373 16.5119 23.1253 16.5119C22.9333 16.5119 22.7713 16.5179 22.6393 16.5299C22.5193 16.5419 22.3573 16.5599 22.1533 16.5839L20.3533 25.4219C20.2573 25.9139 20.2333 26.2799 20.2813 26.5199C20.3293 26.7599 20.4793 26.9159 20.7313 26.9879C20.9833 27.0599 21.3493 27.0959 21.8293 27.0959L21.7213 27.6359Z" fill="#232426"/>
</svg>
