<svg width="44" height="44" viewBox="0 0 44 44" fill="none" xmlns="http://www.w3.org/2000/svg">
<path d="M19.8865 26H14.9545L15.0625 25.46C15.5425 25.46 15.9025 25.424 16.1425 25.352C16.3945 25.268 16.5805 25.094 16.7005 24.83C16.8325 24.566 16.9525 24.17 17.0605 23.642L18.5365 16.55C18.6445 16.07 18.6865 15.698 18.6625 15.434C18.6505 15.17 18.5365 14.984 18.3205 14.876C18.1045 14.768 17.7325 14.714 17.2045 14.714L17.3125 14.174H22.2625L22.1725 14.714C21.6205 14.714 21.2185 14.768 20.9665 14.876C20.7265 14.984 20.5525 15.176 20.4445 15.452C20.3485 15.716 20.2465 16.082 20.1385 16.55L18.6985 23.642C18.5905 24.17 18.5425 24.566 18.5545 24.83C18.5785 25.082 18.6985 25.25 18.9145 25.334C19.1425 25.418 19.5025 25.46 19.9945 25.46L19.8865 26ZM25.3765 20.276H19.2025L19.3285 19.574H25.5205L25.3765 20.276ZM27.3205 26H22.5685L22.6585 25.46C23.1265 25.46 23.4685 25.418 23.6845 25.334C23.9125 25.25 24.0745 25.076 24.1705 24.812C24.2785 24.548 24.3865 24.158 24.4945 23.642L25.9705 16.55C26.0785 16.082 26.1325 15.716 26.1325 15.452C26.1445 15.176 26.0485 14.984 25.8445 14.876C25.6525 14.768 25.2865 14.714 24.7465 14.714L24.8545 14.174H29.6785L29.5705 14.714C29.0425 14.714 28.6525 14.768 28.4005 14.876C28.1605 14.984 27.9925 15.17 27.8965 15.434C27.8005 15.698 27.6985 16.07 27.5905 16.55L26.1325 23.642C26.0245 24.158 25.9765 24.548 25.9885 24.812C26.0005 25.064 26.1145 25.238 26.3305 25.334C26.5585 25.418 26.9245 25.46 27.4285 25.46L27.3205 26Z" fill="black"/>
</svg>
