<svg width="44" height="44" viewBox="0 0 44 44" fill="none" xmlns="http://www.w3.org/2000/svg">
<path d="M21.5838 26.198C20.5038 26.198 19.6398 26 18.9918 25.604C18.3438 25.196 17.8758 24.656 17.5878 23.984C17.3118 23.312 17.1738 22.58 17.1738 21.788C17.1738 20.528 17.3658 19.412 17.7498 18.44C18.1338 17.456 18.6558 16.634 19.3158 15.974C19.9878 15.302 20.7438 14.798 21.5838 14.462C22.4238 14.114 23.2998 13.94 24.2118 13.94C24.8238 13.94 25.2978 13.994 25.6338 14.102C25.9818 14.21 26.2518 14.324 26.4438 14.444C26.6358 14.552 26.8038 14.606 26.9478 14.606C27.0918 14.606 27.2178 14.546 27.3258 14.426C27.4338 14.306 27.5598 14.15 27.7038 13.958H28.2258L27.3798 18.08H26.7858C26.8338 16.88 26.6118 16.022 26.1198 15.506C25.6278 14.978 24.9378 14.714 24.0498 14.714C23.3538 14.714 22.6998 14.876 22.0878 15.2C21.4758 15.512 20.9298 15.962 20.4498 16.55C19.9818 17.126 19.6098 17.822 19.3338 18.638C19.0698 19.442 18.9378 20.342 18.9378 21.338C18.9378 22.538 19.2198 23.456 19.7838 24.092C20.3598 24.716 21.2418 25.028 22.4298 25.028C22.8978 25.028 23.3478 24.968 23.7798 24.848C24.2238 24.728 24.6558 24.548 25.0758 24.308C25.4958 24.056 25.9038 23.75 26.2998 23.39L26.6238 23.732C26.2158 24.212 25.7658 24.638 25.2738 25.01C24.7818 25.382 24.2298 25.676 23.6178 25.892C23.0178 26.096 22.3398 26.198 21.5838 26.198Z" fill="black"/>
</svg>
