<svg width="44" height="44" viewBox="0 0 44 44" fill="none" xmlns="http://www.w3.org/2000/svg">
<path d="M23.595 26H18.681L18.789 25.46C19.281 25.46 19.647 25.418 19.887 25.334C20.139 25.25 20.325 25.082 20.445 24.83C20.565 24.566 20.679 24.17 20.787 23.642L22.263 16.55C22.371 16.082 22.419 15.716 22.407 15.452C22.407 15.176 22.299 14.984 22.083 14.876C21.867 14.768 21.483 14.714 20.931 14.714L21.039 14.174H26.025L25.917 14.714C25.389 14.714 24.993 14.768 24.729 14.876C24.465 14.984 24.279 15.176 24.171 15.452C24.063 15.716 23.961 16.082 23.865 16.55L22.389 23.714C22.293 24.23 22.257 24.614 22.281 24.866C22.305 25.118 22.425 25.28 22.641 25.352C22.869 25.424 23.223 25.46 23.703 25.46L23.595 26Z" fill="black"/>
</svg>
