<svg width="44" height="44" viewBox="0 0 44 44" fill="none" xmlns="http://www.w3.org/2000/svg">
<path d="M25.5633 27.4539H16.4913L16.5813 26.9319L25.6893 16.4559V16.3839H22.3953C21.7833 16.3839 21.2913 16.4319 20.9193 16.5279C20.5473 16.6119 20.2353 16.8099 19.9833 17.1219C19.7313 17.4339 19.4733 17.9259 19.2093 18.5979H18.6333L19.2993 15.6279H28.0473L27.9393 16.1319L18.8673 26.6259V26.7159H22.5573C23.2413 26.7159 23.7753 26.6379 24.1593 26.4819C24.5553 26.3259 24.8853 26.0559 25.1493 25.6719C25.4253 25.2879 25.7313 24.7659 26.0673 24.1059H26.6073L25.5633 27.4539Z" fill="#232426"/>
</svg>
