<svg width="44" height="44" viewBox="0 0 44 44" fill="none" xmlns="http://www.w3.org/2000/svg">
<path d="M18.1677 26.7239H17.6277L18.3837 22.8359H18.8877C18.9477 23.6639 19.0617 24.2999 19.2297 24.7439C19.4097 25.1879 19.6797 25.4939 20.0397 25.6619C20.3997 25.8299 20.8797 25.9139 21.4797 25.9139C21.9837 25.9139 22.4277 25.8419 22.8117 25.6979C23.2077 25.5419 23.5197 25.3139 23.7477 25.0139C23.9757 24.7019 24.0897 24.3179 24.0897 23.8619C24.1017 23.3459 23.9877 22.9079 23.7477 22.5479C23.5197 22.1879 23.2197 21.8699 22.8477 21.5939C22.4757 21.3059 22.0737 21.0299 21.6417 20.7659C21.2457 20.5139 20.8797 20.2559 20.5437 19.9919C20.2197 19.7279 19.9557 19.4159 19.7517 19.0559C19.5597 18.6839 19.4637 18.2219 19.4637 17.6699C19.4637 16.9739 19.6497 16.3859 20.0217 15.9059C20.3937 15.4259 20.8797 15.0659 21.4797 14.8259C22.0797 14.5739 22.7157 14.4479 23.3877 14.4479C23.9157 14.4479 24.3237 14.4899 24.6117 14.5739C24.9117 14.6579 25.1457 14.7479 25.3137 14.8439C25.4817 14.9279 25.6317 14.9699 25.7637 14.9699C25.9197 14.9699 26.0517 14.9339 26.1597 14.8619C26.2797 14.7779 26.3817 14.6399 26.4657 14.4479H26.8977L26.2857 17.9399H25.7637C25.7277 16.9439 25.5477 16.2239 25.2237 15.7799C24.8997 15.3239 24.2817 15.0959 23.3697 15.0959C22.6257 15.0959 22.0437 15.2759 21.6237 15.6359C21.2037 15.9959 20.9937 16.4999 20.9937 17.1479C20.9937 17.5079 21.0897 17.8379 21.2817 18.1379C21.4857 18.4379 21.7557 18.7139 22.0917 18.9659C22.4277 19.2179 22.7877 19.4639 23.1717 19.7039C23.6157 19.9919 24.0297 20.2799 24.4137 20.5679C24.8097 20.8559 25.1337 21.1919 25.3857 21.5759C25.6377 21.9599 25.7637 22.4399 25.7637 23.0159C25.7637 23.7839 25.5717 24.4379 25.1877 24.9779C24.8037 25.5179 24.2937 25.9379 23.6577 26.2379C23.0217 26.5259 22.3317 26.6699 21.5877 26.6699C20.9637 26.6699 20.4717 26.6219 20.1117 26.5259C19.7517 26.4419 19.4697 26.3579 19.2657 26.2739C19.0737 26.1779 18.9057 26.1299 18.7617 26.1299C18.6417 26.1299 18.5217 26.1839 18.4017 26.2919C18.2817 26.3999 18.2037 26.5439 18.1677 26.7239Z" fill="#232426"/>
</svg>
