<svg width="44" height="44" viewBox="0 0 44 44" fill="none" xmlns="http://www.w3.org/2000/svg">
<path d="M21.2741 27.6699C20.1701 27.6699 19.2821 27.4659 18.6101 27.0579C17.9501 26.6379 17.4701 26.0739 17.1701 25.3659C16.8701 24.6459 16.7201 23.8479 16.7201 22.9719C16.7201 21.9039 16.8821 20.9139 17.2061 20.0019C17.5421 19.0779 18.0041 18.2739 18.5921 17.5899C19.1921 16.9059 19.8941 16.3719 20.6981 15.9879C21.5141 15.6039 22.4081 15.4119 23.3801 15.4119C24.4721 15.4119 25.3541 15.6339 26.0261 16.0779C26.6981 16.5099 27.1901 17.0799 27.5021 17.7879C27.8141 18.4959 27.9701 19.2579 27.9701 20.0739C27.9701 21.2259 27.8021 22.2699 27.4661 23.2059C27.1301 24.1299 26.6561 24.9279 26.0441 25.5999C25.4441 26.2599 24.7361 26.7699 23.9201 27.1299C23.1041 27.4899 22.2221 27.6699 21.2741 27.6699ZM21.4901 26.8959C22.0781 26.8959 22.6121 26.7879 23.0921 26.5719C23.5721 26.3439 23.9981 26.0259 24.3701 25.6179C24.7541 25.2099 25.0781 24.7239 25.3421 24.1599C25.6061 23.5839 25.8041 22.9479 25.9361 22.2519C26.0681 21.5559 26.1341 20.8059 26.1341 20.0019C26.1341 18.7299 25.8701 17.7759 25.3421 17.1399C24.8261 16.5039 24.1061 16.1859 23.1821 16.1859C22.4741 16.1859 21.8321 16.3659 21.2561 16.7259C20.6921 17.0739 20.2061 17.5659 19.7981 18.2019C19.4021 18.8379 19.0961 19.5699 18.8801 20.3979C18.6761 21.2259 18.5741 22.1199 18.5741 23.0799C18.5741 23.7879 18.6581 24.4359 18.8261 25.0239C19.0061 25.5999 19.3061 26.0559 19.7261 26.3919C20.1581 26.7279 20.7461 26.8959 21.4901 26.8959Z" fill="#232426"/>
</svg>
