<svg width="44" height="44" viewBox="0 0 44 44" fill="none" xmlns="http://www.w3.org/2000/svg">
<path d="M18.52 26H14.758L14.884 25.46C15.22 25.46 15.502 25.406 15.73 25.298C15.958 25.19 16.21 24.974 16.486 24.65C16.762 24.314 17.122 23.804 17.566 23.12L23.794 14.102H24.55L25.972 23.858C26.092 24.446 26.248 24.86 26.44 25.1C26.632 25.34 26.998 25.46 27.538 25.46L27.43 26H22.624L22.732 25.46C23.032 25.46 23.284 25.436 23.488 25.388C23.704 25.34 23.872 25.244 23.992 25.1C24.112 24.956 24.172 24.734 24.172 24.434C24.172 24.29 24.166 24.158 24.154 24.038C24.154 23.906 24.148 23.786 24.136 23.678L23.938 21.878L23.902 21.518L23.29 16.136H23.236L19.636 21.518L19.42 21.878L18.052 23.966C17.932 24.134 17.824 24.302 17.728 24.47C17.644 24.638 17.602 24.806 17.602 24.974C17.602 25.166 17.674 25.298 17.818 25.37C17.974 25.43 18.25 25.46 18.646 25.46L18.52 26ZM24.136 22.058H19.096L19.528 21.338H24.064L24.136 22.058Z" fill="black"/>
</svg>
