<svg width="44" height="44" viewBox="0 0 44 44" fill="none" xmlns="http://www.w3.org/2000/svg">
<path d="M21.7029 26H16.5189L16.6269 25.46C17.0469 25.46 17.3769 25.424 17.6169 25.352C17.8689 25.28 18.0669 25.136 18.2109 24.92C18.3669 24.692 18.4869 24.356 18.5709 23.912L20.1729 16.208C20.2569 15.788 20.2809 15.476 20.2449 15.272C20.2089 15.056 20.0769 14.912 19.8489 14.84C19.6209 14.756 19.2609 14.714 18.7689 14.714L18.8769 14.174H28.1649L27.6789 17.108H27.1389C27.1509 16.532 27.1149 16.082 27.0309 15.758C26.9589 15.434 26.7549 15.206 26.4189 15.074C26.0829 14.942 25.5249 14.876 24.7449 14.876H22.0449L20.1729 24.092C20.1489 24.212 20.1309 24.326 20.1189 24.434C20.1069 24.53 20.1009 24.62 20.1009 24.704C20.1009 25.016 20.2449 25.22 20.5329 25.316C20.8209 25.412 21.2409 25.46 21.7929 25.46L21.7029 26ZM25.0329 21.968H24.4389C24.5349 21.452 24.5589 21.074 24.5109 20.834C24.4629 20.594 24.3069 20.438 24.0429 20.366C23.7909 20.282 23.4069 20.24 22.8909 20.24H20.7669L20.8929 19.556H23.0709C23.5869 19.556 23.9829 19.508 24.2589 19.412C24.5469 19.316 24.7629 19.142 24.9069 18.89C25.0629 18.626 25.1889 18.254 25.2849 17.774H25.8609L25.0329 21.968Z" fill="black"/>
</svg>
