<svg width="44" height="44" viewBox="0 0 44 44" fill="none" xmlns="http://www.w3.org/2000/svg">
<path d="M21.2283 26.4539H16.2603L16.3683 25.9139C16.8123 25.9139 17.1543 25.8779 17.3943 25.8059C17.6343 25.7339 17.8143 25.5779 17.9343 25.3379C18.0663 25.0979 18.1803 24.7259 18.2763 24.2219L19.8603 16.4999C19.9323 16.1639 19.9503 15.8999 19.9143 15.7079C19.8783 15.5159 19.7523 15.3779 19.5363 15.2939C19.3323 15.2099 18.9903 15.1679 18.5103 15.1679L18.6183 14.6279H22.8483C23.6883 14.6279 24.4023 14.7179 24.9903 14.8979C25.5903 15.0659 26.0463 15.3299 26.3583 15.6899C26.6823 16.0499 26.8443 16.5239 26.8443 17.1119C26.8443 17.7479 26.7243 18.2819 26.4843 18.7139C26.2443 19.1459 25.9323 19.4999 25.5483 19.7759C25.1643 20.0519 24.7503 20.2679 24.3063 20.4239C23.8743 20.5679 23.4603 20.6759 23.0643 20.7479V20.8379C23.2803 20.9819 23.4843 21.2039 23.6763 21.5039C23.8683 21.7919 24.1023 22.2119 24.3783 22.7639C24.6663 23.3159 25.0563 24.0599 25.5483 24.9959C25.7523 25.3559 25.9743 25.6019 26.2143 25.7339C26.4663 25.8539 26.7963 25.9139 27.2043 25.9139L27.0963 26.4539H24.3603C24.0243 25.7099 23.7423 25.0919 23.5143 24.5999C23.2863 24.0959 23.0883 23.6759 22.9203 23.3399C22.7523 23.0039 22.6023 22.7039 22.4703 22.4399C22.3503 22.1759 22.2183 21.9059 22.0743 21.6299C21.9423 21.3779 21.7983 21.2159 21.6423 21.1439C21.4863 21.0599 21.2463 21.0179 20.9223 21.0179H20.3823L20.5083 20.3519L21.2283 20.3699C21.9483 20.3459 22.5963 20.2319 23.1723 20.0279C23.7603 19.8119 24.2223 19.4759 24.5583 19.0199C24.8943 18.5639 25.0623 17.9519 25.0623 17.1839C25.0623 16.8599 24.9903 16.5599 24.8463 16.2839C24.7143 15.9959 24.4803 15.7679 24.1443 15.5999C23.8083 15.4199 23.3403 15.3299 22.7403 15.3299C22.5123 15.3299 22.3263 15.3359 22.1823 15.3479C22.0503 15.3479 21.8823 15.3599 21.6783 15.3839L19.8783 24.2219C19.7823 24.7139 19.7463 25.0859 19.7703 25.3379C19.8063 25.5779 19.9443 25.7339 20.1843 25.8059C20.4243 25.8779 20.8023 25.9139 21.3183 25.9139L21.2283 26.4539Z" fill="#232426"/>
</svg>
