<svg width="44" height="44" viewBox="0 0 44 44" fill="none" xmlns="http://www.w3.org/2000/svg">
<path d="M20.8939 27.6359H15.8719L15.9799 27.0959C16.4839 27.0959 16.8559 27.0539 17.0959 26.9699C17.3479 26.8739 17.5279 26.6999 17.6359 26.4479C17.7559 26.1839 17.8699 25.7939 17.9779 25.2779L19.4539 18.1859C19.5499 17.7179 19.5919 17.3519 19.5799 17.0879C19.5679 16.8119 19.4539 16.6199 19.2379 16.5119C19.0219 16.4039 18.6499 16.3499 18.1219 16.3499L18.2299 15.8099H23.3059L23.2159 16.3499C22.6519 16.3499 22.2319 16.4039 21.9559 16.5119C21.6799 16.6199 21.4819 16.8119 21.3619 17.0879C21.2539 17.3519 21.1519 17.7179 21.0559 18.1859L19.6159 25.2779C19.5199 25.7939 19.4779 26.1839 19.4899 26.4479C19.5019 26.6999 19.6219 26.8739 19.8499 26.9699C20.0899 27.0539 20.4739 27.0959 21.0019 27.0959L20.8939 27.6359ZM27.5719 27.6359H22.3879L22.4779 27.0959H22.7119C22.9879 27.0959 23.1979 27.0599 23.3419 26.9879C23.4979 26.9159 23.5759 26.7779 23.5759 26.5739C23.5759 26.3819 23.5159 26.1659 23.3959 25.9259C23.2879 25.6739 23.0899 25.3499 22.8019 24.9539C22.5259 24.5579 22.1299 24.0539 21.6139 23.4419L20.2999 21.8579L21.6139 21.0479L25.7719 26.3219C26.0119 26.6099 26.2759 26.8139 26.5639 26.9339C26.8639 27.0419 27.2359 27.0959 27.6799 27.0959L27.5719 27.6359ZM20.8039 22.0739H20.1379L20.2459 21.5519H20.4439L23.8819 18.7259C24.2299 18.4379 24.5359 18.1799 24.7999 17.9519C25.0639 17.7239 25.2679 17.5139 25.4119 17.3219C25.5559 17.1299 25.6279 16.9439 25.6279 16.7639C25.6279 16.4879 25.4059 16.3499 24.9619 16.3499H24.6559L24.7819 15.8099H29.0119L28.9219 16.3499C28.5859 16.3739 28.2979 16.4279 28.0579 16.5119C27.8299 16.5839 27.5959 16.6979 27.3559 16.8539C27.1159 17.0099 26.8099 17.2379 26.4379 17.5379L20.8039 22.0739Z" fill="#232426"/>
</svg>
