<svg width="44" height="44" viewBox="0 0 44 44" fill="none" xmlns="http://www.w3.org/2000/svg">
<path d="M25.5373 28.0561H16.6453L16.7533 27.5161C17.2213 27.5161 17.5753 27.4741 17.8153 27.3901C18.0673 27.3061 18.2593 27.1441 18.3913 26.9041C18.5233 26.6641 18.6373 26.3041 18.7333 25.8241L20.2813 18.3181C20.3653 17.9221 20.3953 17.6101 20.3713 17.3821C20.3473 17.1541 20.2213 16.9981 19.9933 16.9141C19.7773 16.8181 19.4113 16.7701 18.8953 16.7701L19.0033 16.2301H24.1153L24.0253 16.7701C23.5933 16.7701 23.2333 16.8121 22.9453 16.8961C22.6693 16.9681 22.4473 17.1181 22.2793 17.3461C22.1113 17.5741 21.9793 17.9041 21.8833 18.3361L20.2453 26.4001C20.1613 26.7961 20.2033 27.0601 20.3713 27.1921C20.5393 27.3121 20.8873 27.3721 21.4153 27.3721H22.2613C22.8373 27.3721 23.3053 27.3241 23.6653 27.2281C24.0253 27.1201 24.3313 26.9581 24.5833 26.7421C24.8353 26.5261 25.0693 26.2381 25.2853 25.8781C25.5133 25.5061 25.7653 25.0621 26.0413 24.5461H26.6173L25.5373 28.0561Z" fill="#232426"/>
</svg>
