<svg width="44" height="44" viewBox="0 0 44 44" fill="none" xmlns="http://www.w3.org/2000/svg">
<path d="M19.8934 26.6699C19.5094 26.6699 19.1614 26.6159 18.8494 26.5079C18.5374 26.4119 18.2974 26.2619 18.1294 26.0579C17.9494 25.8539 17.8594 25.6019 17.8594 25.3019C17.8594 25.0019 17.9314 24.7739 18.0754 24.6179C18.2194 24.4619 18.4174 24.3839 18.6694 24.3839C18.8974 24.3839 19.0714 24.4439 19.1914 24.5639C19.3234 24.6719 19.4254 24.8099 19.4974 24.9779C19.5694 25.1339 19.6354 25.2959 19.6954 25.4639C19.7554 25.6319 19.8274 25.7759 19.9114 25.8959C20.0074 26.0039 20.1394 26.0579 20.3074 26.0579C20.6794 26.0579 20.9434 25.9139 21.0994 25.6259C21.2554 25.3259 21.3934 24.8639 21.5134 24.2399L22.9894 17.0039C23.0854 16.5359 23.1334 16.1699 23.1334 15.9059C23.1454 15.6419 23.0374 15.4559 22.8094 15.3479C22.5934 15.2279 22.1974 15.1679 21.6214 15.1679L21.7294 14.6279H26.7154L26.6254 15.1679C26.1334 15.1679 25.7554 15.2219 25.4914 15.3299C25.2274 15.4379 25.0294 15.6299 24.8974 15.9059C24.7774 16.1699 24.6694 16.5359 24.5734 17.0039L23.2054 23.6999C23.0854 24.2999 22.9234 24.7919 22.7194 25.1759C22.5274 25.5599 22.2874 25.8599 21.9994 26.0759C21.7234 26.2919 21.4054 26.4419 21.0454 26.5259C20.6974 26.6219 20.3134 26.6699 19.8934 26.6699Z" fill="#232426"/>
</svg>
