<svg width="44" height="44" viewBox="0 0 44 44" fill="none" xmlns="http://www.w3.org/2000/svg">
<path d="M26.9109 26.4539H22.0689L22.1769 25.9319H22.3569C22.7289 25.9319 23.0109 25.8899 23.2029 25.8059C23.4069 25.7219 23.5089 25.5539 23.5089 25.3019C23.5089 25.1459 23.4789 24.9599 23.4189 24.7439C23.3589 24.5159 23.2569 24.2339 23.1129 23.8979L22.3209 22.1519L21.9249 21.0179L21.6909 20.6939L19.8549 16.6979C19.6629 16.2779 19.4889 15.9599 19.3329 15.7439C19.1889 15.5159 19.0089 15.3659 18.7929 15.2939C18.5769 15.2099 18.2649 15.1679 17.8569 15.1679L17.9649 14.6279H22.7709L22.6629 15.1679H22.4649C22.1289 15.1679 21.8649 15.2099 21.6729 15.2939C21.4809 15.3779 21.3849 15.5279 21.3849 15.7439C21.3849 15.9239 21.4569 16.1759 21.6009 16.4999C21.7449 16.8239 21.9069 17.2139 22.0869 17.6699L22.8069 19.5419L23.0229 19.8479L25.4169 24.8519C25.6209 25.2839 25.8249 25.5719 26.0289 25.7159C26.2449 25.8479 26.5749 25.9199 27.0189 25.9319L26.9109 26.4539ZM19.2429 26.4539H15.2829L15.3729 25.9319C15.6849 25.9199 15.9489 25.8779 16.1649 25.8059C16.3809 25.7219 16.6089 25.5779 16.8489 25.3739C17.0889 25.1699 17.3889 24.8819 17.7489 24.5099L21.7449 20.3699L22.1949 21.2159H21.9429L19.1169 24.2759C19.0209 24.3719 18.9069 24.4979 18.7749 24.6539C18.6429 24.8099 18.5229 24.9599 18.4149 25.1039C18.3189 25.2479 18.2709 25.3679 18.2709 25.4639C18.2709 25.6199 18.3369 25.7399 18.4689 25.8239C18.6129 25.8959 18.9069 25.9319 19.3509 25.9319L19.2429 26.4539ZM26.2449 16.7699L22.9689 20.1359L22.5549 19.3619H22.7889L25.2009 16.6979C25.4049 16.4579 25.5789 16.2419 25.7229 16.0499C25.8669 15.8459 25.9389 15.6839 25.9389 15.5639C25.9389 15.4319 25.8789 15.3359 25.7589 15.2759C25.6389 15.2039 25.3749 15.1679 24.9669 15.1679L25.0569 14.6279H29.1789L29.0889 15.1679C28.7049 15.1799 28.3809 15.2279 28.1169 15.3119C27.8529 15.3959 27.5829 15.5519 27.3069 15.7799C27.0309 15.9959 26.6769 16.3259 26.2449 16.7699Z" fill="#232426"/>
</svg>
