<svg width="44" height="44" viewBox="0 0 44 44" fill="none" xmlns="http://www.w3.org/2000/svg">
<path d="M25.5797 26H16.2377L16.3457 25.46C16.7657 25.46 17.0957 25.424 17.3357 25.352C17.5877 25.28 17.7857 25.142 17.9297 24.938C18.0737 24.722 18.1877 24.404 18.2717 23.984L19.8557 16.37C19.9517 15.914 19.9817 15.566 19.9457 15.326C19.9217 15.086 19.7957 14.924 19.5677 14.84C19.3397 14.756 18.9797 14.714 18.4877 14.714L18.5957 14.174H27.8117L27.3257 17.126H26.7677C26.8037 16.526 26.7617 16.064 26.6417 15.74C26.5217 15.416 26.2757 15.194 25.9037 15.074C25.5437 14.942 24.9917 14.876 24.2477 14.876H21.7457L19.6217 25.298H21.7997C22.4957 25.298 23.0537 25.262 23.4737 25.19C23.8937 25.118 24.2357 24.986 24.4997 24.794C24.7637 24.602 25.0037 24.332 25.2197 23.984C25.4357 23.636 25.6877 23.192 25.9757 22.652H26.5517L25.5797 26ZM24.8777 21.932H24.3197C24.4157 21.428 24.4337 21.056 24.3737 20.816C24.3137 20.576 24.1457 20.42 23.8697 20.348C23.5937 20.276 23.1797 20.24 22.6277 20.24H20.4677L20.5937 19.556H22.7717C23.3237 19.556 23.7557 19.508 24.0677 19.412C24.3797 19.316 24.6137 19.136 24.7697 18.872C24.9257 18.608 25.0517 18.236 25.1477 17.756H25.7237L24.8777 21.932Z" fill="black"/>
</svg>
