<svg width="44" height="44" viewBox="0 0 44 44" fill="none" xmlns="http://www.w3.org/2000/svg">
<path d="M22.7681 28.1641L21.6161 28.2181C20.0321 28.2181 18.8201 27.8461 17.9801 27.1021C17.1521 26.3461 16.7321 25.1521 16.7201 23.5201C16.7201 22.4401 16.8881 21.4441 17.2241 20.5321C17.5601 19.6201 18.0281 18.8281 18.6281 18.1561C19.2281 17.4721 19.9361 16.9441 20.7521 16.5721C21.5681 16.2001 22.4561 16.0141 23.4161 16.0141C24.4841 16.0141 25.3541 16.2361 26.0261 16.6801C26.6981 17.1121 27.1901 17.6881 27.5021 18.4081C27.8141 19.1161 27.9701 19.8781 27.9701 20.6941C27.9701 22.0861 27.7361 23.2921 27.2681 24.3121C26.8001 25.3201 26.1701 26.1361 25.3781 26.7601C24.5981 27.3721 23.7281 27.7861 22.7681 28.0021V28.1641ZM26.6921 31.1701H25.7921C24.8681 31.1701 24.1121 31.0921 23.5241 30.9361C22.9361 30.7801 22.4681 30.5401 22.1201 30.2161C21.7841 29.8921 21.5201 29.4781 21.3281 28.9741L20.9681 27.9301L22.6421 27.8761C22.8341 28.1401 23.0321 28.4341 23.2361 28.7581C23.4401 29.0821 23.6861 29.3881 23.9741 29.6761C24.2741 29.9641 24.6461 30.1981 25.0901 30.3781C25.5341 30.5701 26.0981 30.6661 26.7821 30.6661L26.6921 31.1701ZM21.4721 27.4981C22.0481 27.4981 22.5761 27.3901 23.0561 27.1741C23.5481 26.9581 23.9801 26.6521 24.3521 26.2561C24.7361 25.8481 25.0601 25.3621 25.3241 24.7981C25.5881 24.2221 25.7861 23.5801 25.9181 22.8721C26.0621 22.1641 26.1341 21.4021 26.1341 20.5861C26.1341 19.4701 25.8941 18.5581 25.4141 17.8501C24.9461 17.1421 24.1901 16.7881 23.1461 16.7881C22.3421 16.7881 21.5921 17.0641 20.8961 17.6161C20.2001 18.1561 19.6361 18.9421 19.2041 19.9741C18.7841 20.9941 18.5741 22.2301 18.5741 23.6821C18.5741 24.8341 18.7901 25.7581 19.2221 26.4541C19.6661 27.1501 20.4161 27.4981 21.4721 27.4981Z" fill="#232426"/>
</svg>
