<svg width="44" height="44" viewBox="0 0 44 44" fill="none" xmlns="http://www.w3.org/2000/svg">
<path d="M21.3586 26.198C20.4946 26.198 19.7686 26.078 19.1806 25.838C18.6046 25.598 18.1426 25.274 17.7946 24.866C17.4586 24.446 17.2126 23.972 17.0566 23.444C16.9126 22.916 16.8406 22.364 16.8406 21.788C16.8406 20.492 17.0386 19.352 17.4346 18.368C17.8426 17.384 18.3826 16.568 19.0546 15.92C19.7386 15.26 20.5066 14.768 21.3586 14.444C22.2106 14.108 23.0866 13.94 23.9866 13.94C24.6226 13.94 25.1146 13.994 25.4626 14.102C25.8226 14.21 26.0986 14.324 26.2906 14.444C26.4826 14.552 26.6566 14.606 26.8126 14.606C26.9446 14.606 27.0646 14.546 27.1726 14.426C27.2806 14.306 27.4066 14.15 27.5506 13.958H28.0546L27.2266 18.08H26.6326C26.6686 16.88 26.4406 16.022 25.9486 15.506C25.4566 14.978 24.7486 14.714 23.8246 14.714C23.1406 14.714 22.4866 14.864 21.8626 15.164C21.2386 15.464 20.6866 15.902 20.2066 16.478C19.7386 17.054 19.3606 17.756 19.0726 18.584C18.7966 19.4 18.6586 20.324 18.6586 21.356C18.6586 22.688 18.9046 23.696 19.3966 24.38C19.9006 25.064 20.6986 25.406 21.7906 25.406C22.3426 25.406 22.8286 25.322 23.2486 25.154C23.6686 24.986 24.0766 24.77 24.4726 24.506L24.8506 22.544C24.9466 22.112 24.9766 21.788 24.9406 21.572C24.9166 21.344 24.8026 21.194 24.5986 21.122C24.3946 21.038 24.0646 20.996 23.6086 20.996L23.7166 20.438H28.0366L27.9466 20.996C27.6106 20.996 27.3466 21.032 27.1546 21.104C26.9626 21.176 26.8186 21.314 26.7226 21.518C26.6266 21.71 26.5426 21.992 26.4706 22.364L25.9306 24.974C25.1986 25.346 24.4906 25.646 23.8066 25.874C23.1346 26.09 22.3186 26.198 21.3586 26.198Z" fill="black"/>
</svg>
