<svg width="44" height="44" viewBox="0 0 44 44" fill="none" xmlns="http://www.w3.org/2000/svg">
<path d="M25.6045 26.5979H25.0105L19.5745 16.6799L19.1605 16.3559C18.9805 16.0319 18.8185 15.7859 18.6745 15.6179C18.5305 15.4379 18.3625 15.3179 18.1705 15.2579C17.9905 15.1979 17.7505 15.1679 17.4505 15.1679L17.5585 14.6279H20.3845L25.2445 23.4839H25.3345L26.5765 17.4899C26.6965 16.8779 26.7505 16.4039 26.7385 16.0679C26.7265 15.7319 26.6125 15.4979 26.3965 15.3659C26.1805 15.2339 25.8205 15.1679 25.3165 15.1679L25.4245 14.6279H29.6725L29.5645 15.1679C29.1205 15.1679 28.7605 15.2519 28.4845 15.4199C28.2205 15.5759 28.0105 15.8339 27.8545 16.1939C27.6985 16.5419 27.5605 17.0039 27.4405 17.5799L25.6045 26.5979ZM19.3405 26.4539H15.2005L15.3085 25.9139C15.7765 25.9139 16.1365 25.8659 16.3885 25.7699C16.6405 25.6619 16.8325 25.4519 16.9645 25.1399C17.0965 24.8279 17.2225 24.3719 17.3425 23.7719L19.0165 15.6539L20.2765 16.9319H19.6285L18.2245 23.7719C18.1045 24.3719 18.0565 24.8279 18.0805 25.1399C18.1045 25.4399 18.2245 25.6439 18.4405 25.7519C18.6685 25.8599 19.0045 25.9139 19.4485 25.9139L19.3405 26.4539Z" fill="#232426"/>
</svg>
