<svg width="44" height="44" viewBox="0 0 44 44" fill="none" xmlns="http://www.w3.org/2000/svg">
<path d="M23.6676 26.5619H23.1456L22.5336 19.2719L22.4436 18.5699L22.2996 16.8599C22.2516 16.3439 22.1856 15.9659 22.1016 15.7259C22.0296 15.4859 21.9036 15.3359 21.7236 15.2759C21.5556 15.2039 21.2976 15.1679 20.9496 15.1679L21.0396 14.6279H25.6296L25.5396 15.1679C24.9396 15.1679 24.5196 15.2579 24.2796 15.4379C24.0516 15.6059 23.9376 15.9539 23.9376 16.4819C23.9376 16.5299 23.9376 16.5839 23.9376 16.6439C23.9496 16.7039 23.9556 16.7639 23.9556 16.8239L24.3876 21.6839L24.4596 23.5199H24.5496L28.3836 17.4899C28.5156 17.2859 28.6416 17.0819 28.7616 16.8779C28.8816 16.6619 28.9776 16.4519 29.0496 16.2479C29.1336 16.0319 29.1756 15.8399 29.1756 15.6719C29.1756 15.4919 29.1096 15.3659 28.9776 15.2939C28.8456 15.2099 28.5816 15.1679 28.1856 15.1679L28.2936 14.6279H31.9656L31.9116 15.1679C31.4796 15.1799 31.1316 15.2759 30.8676 15.4559C30.6036 15.6359 30.3156 15.9539 30.0036 16.4099L23.6676 26.5619ZM17.8536 26.5619H17.3496L16.4676 16.7879C16.4196 16.1999 16.2936 15.7859 16.0896 15.5459C15.8856 15.2939 15.5256 15.1679 15.0096 15.1679L15.0996 14.6279H19.5996L19.5096 15.1679C19.1736 15.1679 18.9036 15.1919 18.6996 15.2399C18.4956 15.2879 18.3456 15.3599 18.2496 15.4559C18.1536 15.5519 18.0996 15.6779 18.0876 15.8339C18.0876 15.9179 18.0876 16.0439 18.0876 16.2119C18.0876 16.3679 18.0996 16.5479 18.1236 16.7519L18.5916 21.8279L18.6816 23.5559H18.7896L22.5876 18.0479L22.8396 19.5599H22.4796L17.8536 26.5619Z" fill="#232426"/>
</svg>
