<svg width="44" height="44" viewBox="0 0 44 44" fill="none" xmlns="http://www.w3.org/2000/svg">
<path d="M20.4765 28.1461H19.8825L18.8745 18.4081C18.8265 18.0001 18.7545 17.6821 18.6585 17.4541C18.5625 17.2141 18.4185 17.0401 18.2265 16.9321C18.0465 16.8241 17.7945 16.7701 17.4705 16.7701L17.5065 16.2301H21.9165L21.8625 16.7701C21.4065 16.7701 21.0465 16.8601 20.7825 17.0401C20.5185 17.2201 20.3985 17.5141 20.4225 17.9221C20.4225 17.9821 20.4285 18.0901 20.4405 18.2461C20.4645 18.4021 20.4765 18.5101 20.4765 18.5701L21.0165 23.7001L21.1425 25.8061H21.2325L22.2765 24.2221L26.1465 18.4261C26.3145 18.1861 26.4465 17.9641 26.5425 17.7601C26.6505 17.5561 26.7045 17.3821 26.7045 17.2381C26.7045 17.0581 26.6265 16.9381 26.4705 16.8781C26.3145 16.8061 26.0325 16.7701 25.6245 16.7701L25.6605 16.2301H29.5485L29.5125 16.7701C29.2725 16.7701 29.0565 16.7941 28.8645 16.8421C28.6845 16.8901 28.5105 16.9861 28.3425 17.1301C28.1745 17.2621 27.9885 17.4541 27.7845 17.7061C27.5925 17.9581 27.3585 18.2881 27.0825 18.6961L20.4765 28.1461Z" fill="#232426"/>
</svg>
