<svg width="44" height="44" viewBox="0 0 44 44" fill="none" xmlns="http://www.w3.org/2000/svg">
<path d="M21.0363 27.8519C19.7283 27.8519 18.7803 27.6059 18.1923 27.1139C17.6043 26.6099 17.3103 25.8239 17.3103 24.7559C17.3103 24.5159 17.3283 24.2639 17.3643 23.9999C17.4003 23.7239 17.4483 23.4359 17.5083 23.1359L18.5883 17.9339C18.6123 17.8019 18.6303 17.6759 18.6423 17.5559C18.6663 17.4359 18.6783 17.3339 18.6783 17.2499C18.6783 16.9019 18.5643 16.6679 18.3363 16.5479C18.1083 16.4159 17.7123 16.3499 17.1483 16.3499L17.2563 15.8099H22.4223L22.3143 16.3499C21.8103 16.3499 21.4203 16.3979 21.1443 16.4939C20.8803 16.5779 20.6823 16.7399 20.5503 16.9799C20.4303 17.2199 20.3223 17.5679 20.2263 18.0239L19.1643 23.1179C19.1163 23.3579 19.0743 23.6039 19.0383 23.8559C19.0143 24.0959 19.0023 24.2999 19.0023 24.4679C19.0023 25.2359 19.2003 25.8059 19.5963 26.1779C20.0043 26.5379 20.7123 26.7179 21.7203 26.7179C22.8963 26.7179 23.7783 26.4419 24.3663 25.8899C24.9663 25.3259 25.3923 24.4259 25.6443 23.1899L26.5623 18.6539C26.6223 18.3539 26.6703 18.0899 26.7063 17.8619C26.7423 17.6339 26.7603 17.4419 26.7603 17.2859C26.7603 16.9139 26.6583 16.6679 26.4543 16.5479C26.2503 16.4159 25.8843 16.3499 25.3563 16.3499L25.4463 15.8099H29.8563L29.7663 16.3499C29.2503 16.3499 28.8543 16.4099 28.5783 16.5299C28.3143 16.6499 28.1163 16.8719 27.9843 17.1959C27.8523 17.5079 27.7203 17.9759 27.5883 18.5999L26.7063 22.9379C26.3703 24.5699 25.7643 25.7999 24.8883 26.6279C24.0243 27.4439 22.7403 27.8519 21.0363 27.8519Z" fill="#232426"/>
</svg>
