<svg width="44" height="44" viewBox="0 0 44 44" fill="none" xmlns="http://www.w3.org/2000/svg">
<path d="M20.0187 26H15.4467L15.5547 25.46C16.0107 25.46 16.3647 25.424 16.6167 25.352C16.8687 25.268 17.0607 25.106 17.1927 24.866C17.3247 24.614 17.4387 24.248 17.5347 23.768L19.1007 16.226C19.1847 15.782 19.1967 15.458 19.1367 15.254C19.0767 15.038 18.9267 14.894 18.6867 14.822C18.4587 14.75 18.1287 14.714 17.6967 14.714L17.8047 14.174H22.4847C23.4207 14.174 24.2307 14.288 24.9147 14.516C25.5987 14.732 26.1627 15.044 26.6067 15.452C27.0507 15.86 27.3807 16.352 27.5967 16.928C27.8127 17.492 27.9207 18.128 27.9207 18.836C27.9207 20.108 27.7227 21.2 27.3267 22.112C26.9427 23.012 26.3967 23.75 25.6887 24.326C24.9807 24.902 24.1467 25.328 23.1867 25.604C22.2267 25.868 21.1707 26 20.0187 26ZM20.0187 25.298C21.3147 25.298 22.4127 25.082 23.3127 24.65C24.2247 24.218 24.9207 23.54 25.4007 22.616C25.8807 21.68 26.1207 20.474 26.1207 18.998C26.1207 18.446 26.0547 17.924 25.9227 17.432C25.8027 16.94 25.5867 16.502 25.2747 16.118C24.9627 15.734 24.5187 15.434 23.9427 15.218C23.3787 15.002 22.6527 14.894 21.7647 14.894C21.6087 14.894 21.4767 14.9 21.3687 14.912C21.2727 14.912 21.1407 14.924 20.9727 14.948L18.8487 25.244C19.0167 25.268 19.1967 25.286 19.3887 25.298C19.5807 25.298 19.7907 25.298 20.0187 25.298Z" fill="black"/>
</svg>
