<svg width="44" height="44" viewBox="0 0 44 44" fill="none" xmlns="http://www.w3.org/2000/svg">
<path d="M17.9251 26.4539H13.7671L13.8751 25.9139C14.3431 25.9139 14.7031 25.8719 14.9551 25.7879C15.2071 25.6919 15.4051 25.4939 15.5491 25.1939C15.6931 24.8939 15.8251 24.4379 15.9451 23.8259L17.3671 16.8239C17.4631 16.3679 17.4931 16.0259 17.4571 15.7979C17.4211 15.5579 17.2891 15.3959 17.0611 15.3119C16.8451 15.2159 16.4971 15.1679 16.0171 15.1679L16.1251 14.6279H19.7251L21.6691 23.7359H21.7411L27.2311 14.6279H30.6331L30.5251 15.1679C30.1051 15.1679 29.7691 15.2159 29.5171 15.3119C29.2771 15.3959 29.0911 15.5579 28.9591 15.7979C28.8271 16.0259 28.7131 16.3619 28.6171 16.8059L27.0871 24.3119C26.9551 24.9719 26.9851 25.4039 27.1771 25.6079C27.3811 25.8119 27.8011 25.9139 28.4371 25.9139L28.3291 26.4539H23.5231L23.6311 25.9139C24.0751 25.9139 24.4111 25.8719 24.6391 25.7879C24.8791 25.7039 25.0591 25.5479 25.1791 25.3199C25.2991 25.0799 25.4011 24.7439 25.4851 24.3119L27.0871 16.5359H27.0151L20.9671 26.4539H20.5711L18.3931 16.5539H18.3211L16.8271 23.8259C16.7071 24.4379 16.6531 24.8939 16.6651 25.1939C16.6891 25.4939 16.8091 25.6919 17.0251 25.7879C17.2411 25.8719 17.5771 25.9139 18.0331 25.9139L17.9251 26.4539Z" fill="#232426"/>
</svg>
