<svg width="44" height="44" viewBox="0 0 44 44" fill="none" xmlns="http://www.w3.org/2000/svg">
<path d="M23.6742 27.4539H18.5442L18.6522 26.9139C19.1562 26.9139 19.5402 26.8779 19.8042 26.8059C20.0682 26.7219 20.2662 26.5539 20.3982 26.3019C20.5302 26.0379 20.6502 25.6359 20.7582 25.0959L22.5942 16.0419H24.2142L22.3782 25.0959C22.2702 25.6359 22.2282 26.0379 22.2522 26.3019C22.2882 26.5539 22.4262 26.7219 22.6662 26.8059C22.9062 26.8779 23.2782 26.9139 23.7822 26.9139L23.6742 27.4539ZM18.5262 18.7419H17.9502L18.6882 15.6279H28.3542L27.8142 18.7419H27.2562C27.2562 18.0819 27.2202 17.5839 27.1482 17.2479C27.0882 16.8999 26.9142 16.6599 26.6262 16.5279C26.3382 16.3959 25.8582 16.3299 25.1862 16.3299H21.5142C21.0102 16.3299 20.6082 16.3659 20.3082 16.4379C20.0082 16.5099 19.7622 16.6359 19.5702 16.8159C19.3782 16.9839 19.2042 17.2239 19.0482 17.5359C18.9042 17.8479 18.7302 18.2499 18.5262 18.7419Z" fill="#232426"/>
</svg>
