<svg width="44" height="44" viewBox="0 0 44 44" fill="none" xmlns="http://www.w3.org/2000/svg">
<path d="M26.5626 17.9499L22.8546 22.5759L22.5306 21.7119L26.0406 17.3559C26.1366 17.2359 26.2206 17.1099 26.2926 16.9779C26.3766 16.8339 26.4186 16.7019 26.4186 16.5819C26.4186 16.4499 26.3466 16.3479 26.2026 16.2759C26.0706 16.2039 25.7886 16.1679 25.3566 16.1679L25.4646 15.6279H29.4066L29.2986 16.1679C28.9386 16.1919 28.6266 16.2519 28.3626 16.3479C28.1106 16.4439 27.8466 16.6119 27.5706 16.8519C27.2946 17.0919 26.9586 17.4579 26.5626 17.9499ZM23.8266 27.4539H18.5346L18.6246 26.9139C19.1646 26.9139 19.5726 26.8779 19.8486 26.8059C20.1246 26.7219 20.3286 26.5479 20.4606 26.2839C20.5926 26.0199 20.7126 25.6239 20.8206 25.0959L21.5586 21.5319H23.1786L22.4406 25.0959C22.4046 25.2879 22.3746 25.4559 22.3506 25.5999C22.3266 25.7439 22.3146 25.8819 22.3146 26.0139C22.3146 26.3859 22.4406 26.6319 22.6926 26.7519C22.9446 26.8599 23.3526 26.9139 23.9166 26.9139L23.8266 27.4539ZM22.6746 21.8019L21.4686 22.7559L19.8126 18.6159C19.5126 17.8599 19.2486 17.3139 19.0206 16.9779C18.7926 16.6299 18.5646 16.4079 18.3366 16.3119C18.1206 16.2159 17.8626 16.1679 17.5626 16.1679L17.6706 15.6279H22.3146L22.2066 16.1679C21.7026 16.1679 21.3546 16.2159 21.1626 16.3119C20.9706 16.4079 20.8746 16.5219 20.8746 16.6539C20.8746 16.7739 20.8926 16.8999 20.9286 17.0319C20.9646 17.1519 21.0066 17.2779 21.0546 17.4099L22.0986 20.0379L22.6746 21.8019Z" fill="#232426"/>
</svg>
