<svg xmlns="http://www.w3.org/2000/svg" width="36" height="36" viewBox="0 0 36 36" fill="none">
  <g clip-path="url(#clip0_1960_7926)">
    <circle cx="18" cy="18" r="17.5" fill="white" stroke="#FBA9B3"/>
    <path d="M9.16645 12.8519C9.75904 12.1111 10.4998 11.3704 11.2405 10.7778L9.90719 9.44444C9.3146 8.85185 8.42571 8.85185 7.83312 9.44444C7.24052 10.037 7.24052 10.9259 7.83312 11.5185L9.16645 12.8519ZM26.8331 12.8519L28.1665 11.5185C28.759 10.9259 28.759 10.037 28.1665 9.44444C27.5739 8.85185 26.685 8.85185 26.0924 9.44444L24.759 10.7778C25.4998 11.3704 26.2405 12.1111 26.8331 12.8519Z" fill="#95434D"/>
    <path d="M20.9625 7.54517H15.0363C14.1473 7.54517 13.5547 6.95254 13.5547 6.0636C13.5547 5.17466 14.1473 4.58203 15.0363 4.58203H20.9625C21.8515 4.58203 22.4441 5.17466 22.4441 6.0636C22.4441 6.95254 21.8515 7.54517 20.9625 7.54517Z" fill="#95434D"/>
    <path d="M18.8882 5.76622L18.8882 9.32199C18.8882 9.85536 18.5327 10.2109 17.9993 10.2109C17.4659 10.2109 17.1104 9.85536 17.1104 9.322L17.1104 5.76622C17.1104 5.23286 17.4659 4.87728 17.9993 4.87728C18.5327 4.87728 18.8882 5.23286 18.8882 5.76622Z" fill="#95434D"/>
    <path d="M17.9991 21.0289C17.1102 21.0289 16.5176 20.4363 16.5176 19.5474V15.1027C16.5176 14.2137 17.1102 13.6211 17.9991 13.6211C18.8881 13.6211 19.4807 14.2137 19.4807 15.1027V19.5474C19.4807 20.4363 18.8881 21.0289 17.9991 21.0289Z" fill="white"/>
    <path d="M17.9997 8.43555C11.8886 8.43555 6.88867 13.4355 6.88867 19.5466C6.88867 25.6577 11.8886 30.6576 17.9997 30.6576C24.1108 30.6576 29.1107 25.6577 29.1107 19.5466C29.1107 13.4355 24.1108 8.43555 17.9997 8.43555Z" fill="#FE5663"/>
    <rect x="16.5234" y="13.3438" width="2.71387" height="6.98828" rx="1.35693" fill="white"/>
    <rect x="24.0986" y="18.3164" width="2.71387" height="6.98828" rx="1.35693" transform="rotate(90 24.0986 18.3164)" fill="white"/>
    <circle cx="18" cy="19.5469" r="2" fill="#95434D"/>
  </g>
  <defs>
    <clipPath id="clip0_1960_7926">
      <rect width="36" height="36" fill="white"/>
    </clipPath>
  </defs>
</svg>