<svg width="215" height="160" viewBox="0 0 215 160" fill="none" xmlns="http://www.w3.org/2000/svg">
<path d="M8 110.607L18.9627 121.593" stroke="#F37259" stroke-width="3" stroke-linecap="round"/>
<path d="M19.2148 121.777L31.0009 110.832" stroke="#F37259" stroke-width="3" stroke-linecap="round"/>
<path d="M8 122.607L18.9627 133.593" stroke="#F37259" stroke-width="3" stroke-linecap="round"/>
<path d="M19.2148 133.777L31.0009 122.832" stroke="#F37259" stroke-width="3" stroke-linecap="round"/>
<path d="M8 134.607L18.9627 145.593" stroke="#F37259" stroke-width="3" stroke-linecap="round"/>
<path d="M19.2148 145.777L31.0009 134.832" stroke="#F37259" stroke-width="3" stroke-linecap="round"/>
<path d="M8 146.607L18.9627 157.593" stroke="#F37259" stroke-width="3" stroke-linecap="round"/>
<path d="M19.2148 157.777L31.0009 146.832" stroke="#F37259" stroke-width="3" stroke-linecap="round"/>
<path d="M154.5 18H60C37.3563 18 19 36.3563 19 59V88" stroke="#F37259" stroke-width="36" stroke-linecap="round"/>
<path d="M62.84 10.576H67.808V8.44H70.448V10.576H75.416V12.688H62.84V10.576ZM63.944 17.44C63.944 15.088 66.056 13.504 69.128 13.504C72.2 13.504 74.336 15.088 74.336 17.44C74.336 19.768 72.2 21.328 69.128 21.328C66.056 21.328 63.944 19.768 63.944 17.44ZM65.432 25.048V22.936H79.52V29.944H76.88V25.048H65.432ZM66.464 17.44C66.464 18.616 67.544 19.336 69.128 19.336C70.712 19.336 71.792 18.616 71.792 17.44C71.792 16.216 70.712 15.52 69.128 15.52C67.544 15.52 66.464 16.216 66.464 17.44ZM76.88 21.952V8.584H79.52V14.224H82.496V16.384H79.52V21.952H76.88ZM86.1206 21.352H88.7126V23.416H98.0006V21.352H100.617V29.68H86.1206V21.352ZM83.7926 20.152V18.064H103.089V20.152H83.7926ZM84.8006 14.824C89.2406 14.272 92.0726 11.944 92.0726 9.568V8.8H94.7846V9.568C94.7846 11.896 97.6646 14.296 102.081 14.824L101.145 16.888C97.6166 16.408 94.8086 14.824 93.4406 12.664C92.0966 14.848 89.2886 16.408 85.7366 16.888L84.8006 14.824ZM88.7126 27.592H98.0006V25.432H88.7126V27.592ZM125.972 8.56H128.492V29.92H125.972V19.12H123.644V28.864H121.196V8.992H123.644V16.984H125.972V8.56ZM111.212 24.616V11.032H113.828V22.312C115.628 22.288 117.668 22.12 119.876 21.688L120.14 23.968C117.308 24.496 114.86 24.616 112.652 24.616H111.212ZM131.277 18.88H135.765V16.144C134.181 15.448 133.269 14.368 133.269 12.976C133.269 10.432 136.245 8.92 140.925 8.92C145.605 8.92 148.581 10.432 148.581 12.976C148.581 14.368 147.669 15.472 146.037 16.168V18.88H150.573V20.944H131.277V18.88ZM133.509 26.08C133.509 23.632 136.293 22.24 140.901 22.24C145.485 22.24 148.269 23.632 148.269 26.08C148.269 28.552 145.485 29.944 140.901 29.944C136.293 29.944 133.509 28.552 133.509 26.08ZM135.981 12.976C135.981 14.296 137.805 15.016 140.925 15.016C144.021 15.016 145.845 14.296 145.845 12.976C145.845 11.656 144.021 10.936 140.925 10.936C137.805 10.936 135.981 11.656 135.981 12.976ZM136.173 26.08C136.173 27.304 137.829 27.928 140.901 27.928C143.949 27.928 145.605 27.304 145.605 26.08C145.605 24.88 143.949 24.256 140.901 24.256C137.829 24.256 136.173 24.88 136.173 26.08ZM138.381 18.88H143.421V16.84C142.653 16.96 141.813 17.008 140.925 17.008C140.013 17.008 139.149 16.96 138.381 16.84V18.88Z" fill="white"/>
</svg>
