<svg width="215" height="160" viewBox="0 0 215 160" fill="none" xmlns="http://www.w3.org/2000/svg">
<path d="M8 110.607L18.9627 121.593" stroke="#F37259" stroke-width="3" stroke-linecap="round"/>
<path d="M19.2148 121.777L31.0009 110.832" stroke="#F37259" stroke-width="3" stroke-linecap="round"/>
<path d="M8 122.607L18.9627 133.593" stroke="#F37259" stroke-width="3" stroke-linecap="round"/>
<path d="M19.2148 133.777L31.0009 122.832" stroke="#F37259" stroke-width="3" stroke-linecap="round"/>
<path d="M8 134.607L18.9627 145.593" stroke="#F37259" stroke-width="3" stroke-linecap="round"/>
<path d="M19.2148 145.777L31.0009 134.832" stroke="#F37259" stroke-width="3" stroke-linecap="round"/>
<path d="M8 146.607L18.9627 157.593" stroke="#F37259" stroke-width="3" stroke-linecap="round"/>
<path d="M19.2148 157.777L31.0009 146.832" stroke="#F37259" stroke-width="3" stroke-linecap="round"/>
<path d="M191 18H60C37.3563 18 19 36.3563 19 59V88" stroke="#F37259" stroke-width="36" stroke-linecap="round"/>
<path d="M62.672 10.864H66.68V8.704H69.272V10.864H73.232V12.904H62.672V10.864ZM63.416 17.56C63.416 15.304 65.312 13.744 67.976 13.744C70.664 13.744 72.56 15.304 72.56 17.56C72.56 19.792 70.664 21.352 67.976 21.352C65.312 21.352 63.416 19.792 63.416 17.56ZM65.744 17.56C65.744 18.712 66.656 19.432 67.976 19.432C69.296 19.432 70.232 18.712 70.232 17.56C70.232 16.384 69.296 15.688 67.976 15.688C66.656 15.688 65.744 16.384 65.744 17.56ZM66.344 25.12V23.008H80.912V29.944H78.296V25.12H66.344ZM73.952 21.808V8.944H76.424V14.344H78.392V8.584H80.912V21.928H78.392V16.456H76.424V21.808H73.952ZM98.7686 8.584H101.409V20.68H98.7686V8.584ZM83.7686 18.16C87.2006 17.056 88.9766 14.248 88.9766 11.416V9.376H91.6406V11.416C91.6406 14.176 93.4406 16.744 96.8006 17.8L95.5286 19.84C93.0566 19.072 91.3046 17.488 90.3446 15.424C89.3846 17.632 87.5846 19.384 85.0406 20.224L83.7686 18.16ZM87.3686 29.68V21.736H101.409V29.68H87.3686ZM89.9366 27.592H98.8406V23.824H89.9366V27.592ZM116.012 10.096C119.204 10.096 121.508 13.024 121.508 17.656C121.508 22.312 119.204 25.24 116.012 25.24C112.796 25.24 110.492 22.312 110.492 17.656C110.492 13.024 112.796 10.096 116.012 10.096ZM113.012 17.656C113.012 20.944 114.236 22.864 116.012 22.864C117.788 22.864 118.988 20.944 118.988 17.656C118.988 14.392 117.788 12.496 116.012 12.496C114.236 12.496 113.012 14.392 113.012 17.656ZM124.268 29.944V8.584H126.932V16.816H130.172V19H126.932V29.944H124.268ZM146.229 8.536H148.893V29.968H146.229V8.536ZM131.925 17.656C131.925 13.024 134.253 10.096 137.469 10.096C140.685 10.096 143.013 13.024 143.013 17.656C143.013 22.312 140.685 25.24 137.469 25.24C134.253 25.24 131.925 22.312 131.925 17.656ZM134.469 17.656C134.469 20.944 135.693 22.864 137.469 22.864C139.245 22.864 140.469 20.944 140.469 17.656C140.469 14.392 139.245 12.496 137.469 12.496C135.693 12.496 134.469 14.392 134.469 17.656ZM167.23 8.56H169.87V29.992H167.23V8.56ZM153.574 24.808V10.528H163.798V12.664H156.19V22.6C160.078 22.576 162.574 22.456 165.382 21.928L165.622 24.112C162.574 24.712 159.838 24.808 155.374 24.808H153.574ZM178.99 10.096C181.87 10.096 184.006 12.52 184.39 16.432H188.374V8.536H190.99V29.968H188.374V18.544H184.414C184.126 22.672 181.942 25.24 178.99 25.24C175.846 25.24 173.566 22.312 173.566 17.656C173.566 13.024 175.846 10.096 178.99 10.096ZM176.062 17.656C176.062 20.944 177.262 22.864 178.99 22.864C180.766 22.864 181.942 20.944 181.942 17.656C181.942 14.392 180.766 12.496 178.99 12.496C177.262 12.496 176.062 14.392 176.062 17.656Z" fill="white"/>
</svg>
