<svg width="841" height="34" viewBox="0 0 841 34" fill="none" xmlns="http://www.w3.org/2000/svg">
<path d="M6.18 8.88V11.06C6.18 12.0867 6.46667 13.04 7.04 13.92C7.62667 14.7867 8.48 15.44 9.6 15.88L8.44 17.54C7.68 17.2333 7.02 16.8133 6.46 16.28C5.91333 15.7467 5.48 15.12 5.16 14.4C4.81333 15.24 4.34667 15.98 3.76 16.62C3.17333 17.2467 2.47333 17.7333 1.66 18.08L0.5 16.38C1.64667 15.8733 2.52667 15.1333 3.14 14.16C3.75333 13.1733 4.06 12.14 4.06 11.06V8.88H6.18ZM3.74 22.32C3.74 21.3067 4.28 20.5067 5.36 19.92C6.45333 19.3333 7.92667 19.04 9.78 19.04C11.6467 19.04 13.12 19.3333 14.2 19.92C15.2933 20.5067 15.84 21.3067 15.84 22.32C15.84 23.3467 15.2933 24.1467 14.2 24.72C13.12 25.3067 11.6467 25.6 9.78 25.6C7.91333 25.6 6.44 25.3067 5.36 24.72C4.28 24.1467 3.74 23.3467 3.74 22.32ZM5.92 22.32C5.92 22.84 6.25333 23.24 6.92 23.52C7.6 23.8 8.55333 23.94 9.78 23.94C11.0067 23.94 11.9533 23.8 12.62 23.52C13.3 23.24 13.64 22.84 13.64 22.32C13.64 21.8 13.3067 21.4067 12.64 21.14C11.9733 20.86 11.02 20.72 9.78 20.72C8.55333 20.72 7.6 20.86 6.92 21.14C6.25333 21.4067 5.92 21.8 5.92 22.32ZM9.88 8.16H11.94V12.32H13.66V7.82H15.76V18.74H13.66V14.1H11.94V18.18H9.88V8.16ZM32.0805 7.8V12.08H34.5605V13.9H32.0805V18.18H29.8805V7.8H32.0805ZM18.0005 16.4C20.0271 15.8933 21.6205 15.1333 22.7805 14.12C23.9538 13.1067 24.6338 11.94 24.8205 10.62H18.8605V8.86H27.1605C27.1605 11.1533 26.4405 13.0933 25.0005 14.68C23.5738 16.2667 21.5405 17.4133 18.9005 18.12L18.0005 16.4ZM20.3405 18.96H32.0805V25.62H29.8805V20.7H20.3405V18.96Z" fill="#232426"/>
<path d="M43.4303 8.62V14.74C46.0303 14.7133 48.3903 14.4933 50.5103 14.08L50.7903 15.88C48.3103 16.3333 45.6103 16.56 42.6903 16.56H41.2303V8.62H43.4303ZM42.3303 17.98H48.2103V22.38H44.4903V23.78C45.3836 23.7667 46.117 23.74 46.6903 23.7C47.277 23.66 47.8836 23.58 48.5103 23.46L48.6903 25.1C47.9703 25.2467 47.2636 25.3333 46.5703 25.36C45.877 25.4 44.8103 25.42 43.3703 25.42H42.3503V20.82H46.0903V19.62H42.3303V17.98ZM48.2503 10.48H52.8303V7.8H55.0303V17.16H52.8303V12.26H48.2503V10.48ZM49.1503 17.82H51.1303V19.86H53.0503V17.82H55.0303V25.42H49.1503V17.82ZM53.0503 23.74V21.52H51.1303V23.74H53.0503ZM72.4108 7.8V25.6H70.1908V7.8H72.4108ZM58.0908 10.56H62.2908V8.04H64.4908V10.56H68.6908V12.32H58.0908V10.56ZM58.9308 17.66C58.9308 16.8467 59.1241 16.1267 59.5108 15.5C59.8974 14.86 60.4308 14.3667 61.1108 14.02C61.7908 13.66 62.5574 13.48 63.4108 13.48C64.2641 13.48 65.0308 13.66 65.7108 14.02C66.4041 14.3667 66.9441 14.86 67.3308 15.5C67.7174 16.1267 67.9108 16.8467 67.9108 17.66C67.9108 18.4733 67.7174 19.2 67.3308 19.84C66.9441 20.4667 66.4041 20.96 65.7108 21.32C65.0308 21.6667 64.2641 21.84 63.4108 21.84C62.5574 21.84 61.7908 21.6667 61.1108 21.32C60.4308 20.96 59.8974 20.4667 59.5108 19.84C59.1241 19.2 58.9308 18.4733 58.9308 17.66ZM61.0108 17.66C61.0108 18.38 61.2308 18.96 61.6708 19.4C62.1241 19.8267 62.7041 20.04 63.4108 20.04C64.1174 20.04 64.6908 19.8267 65.1308 19.4C65.5708 18.96 65.7908 18.38 65.7908 17.66C65.7908 16.94 65.5708 16.36 65.1308 15.92C64.6908 15.48 64.1174 15.26 63.4108 15.26C62.7174 15.26 62.1441 15.48 61.6908 15.92C61.2374 16.36 61.0108 16.94 61.0108 17.66ZM89.9313 7.8V25.6H87.7313V7.8H89.9313ZM75.3113 20.74C77.5779 19.6467 79.2779 18.34 80.4112 16.82C81.5446 15.3 82.2113 13.5067 82.4113 11.44H76.1913V9.66H84.6713C84.6713 12.5133 84.0379 15.0067 82.7713 17.14C81.5046 19.2733 79.3979 21.0533 76.4513 22.48L75.3113 20.74Z" fill="#EE7017"/>
<path d="M105 17H840" stroke="url(#paint0_linear_65_12606)" stroke-width="2" stroke-linecap="round" stroke-dasharray="4 4"/>
<defs>
<linearGradient id="paint0_linear_65_12606" x1="105" y1="17.5" x2="840" y2="17.5" gradientUnits="userSpaceOnUse">
<stop stop-color="#EE7017"/>
<stop offset="1" stop-color="#9CA1C9"/>
</linearGradient>
</defs>
</svg>
