<svg width="181" height="34" viewBox="0 0 181 34" fill="none" xmlns="http://www.w3.org/2000/svg">
<g clip-path="url(#clip0_9954_40735)">
<path d="M13.9997 29.1386C20.7036 29.1386 26.1381 23.704 26.1381 17.0002C26.1381 10.2964 20.7036 4.86182 13.9997 4.86182C7.29587 4.86182 1.86133 10.2964 1.86133 17.0002C1.86133 23.704 7.29587 29.1386 13.9997 29.1386Z" fill="#FBA9B3"/>
<path d="M11.5799 18.2995C11.1395 18.2996 10.6945 18.2222 10.2578 18.0383C9.09013 17.5464 8.38248 16.5492 8.21136 15.1547C8.08924 14.1596 8.28923 13.3053 8.29782 13.2694C8.36798 12.9756 8.66308 12.7942 8.9568 12.8646C9.25015 12.9347 9.43127 13.2291 9.36188 13.5224C9.36018 13.5295 9.19595 14.2458 9.30041 15.0493C9.4281 16.0313 9.89305 16.6978 10.6824 17.0303C12.7053 17.8826 15.3127 15.372 15.3388 15.3466C15.5549 15.1358 15.901 15.1399 16.112 15.3557C16.3229 15.5715 16.3193 15.9173 16.1036 16.1284C15.9969 16.233 13.8553 18.2992 11.5799 18.2995ZM18.5138 13.1362C18.4494 13.1362 18.3838 13.1247 18.32 13.1005L16.1922 12.2934C16.012 12.225 15.8811 12.0668 15.8476 11.877C15.8142 11.6871 15.8832 11.4937 16.0292 11.3678L18.1569 9.53425C18.3857 9.33716 18.731 9.3627 18.9282 9.59151C19.1253 9.82032 19.0997 10.1656 18.8709 10.3628L17.4392 11.5966L18.7079 12.0779C18.9903 12.185 19.1324 12.5008 19.0253 12.7832C18.9424 13.0017 18.7345 13.1361 18.5138 13.1362ZM10.6633 11.6319H8.31543C8.01339 11.6319 7.76855 11.3871 7.76855 11.085C7.76855 10.783 8.01339 10.5382 8.31543 10.5382H9.80424L9.0028 8.82233C8.87499 8.54868 8.99323 8.22323 9.26688 8.09543C9.54059 7.96768 9.86604 8.08586 9.99379 8.35951L11.1587 10.8536C11.2378 11.023 11.225 11.221 11.1246 11.3787C11.0242 11.5364 10.8502 11.6319 10.6633 11.6319Z" fill="#232426"/>
</g>
<path d="M48.848 10.986H44.272V25.176H41.918V10.986H37.32V8.94H48.848V10.986ZM53.957 25.242C52.9743 25.242 52.1017 25.022 51.339 24.582C50.5763 24.1273 49.975 23.504 49.535 22.712C49.1097 21.9053 48.897 20.996 48.897 19.984C48.897 18.9573 49.1097 18.048 49.535 17.256C49.975 16.4493 50.5763 15.826 51.339 15.386C52.1017 14.9313 52.9743 14.704 53.957 14.704C55.321 14.704 56.3403 15.0487 57.015 15.738C57.6897 16.4127 58.1223 17.014 58.313 17.542C58.621 18.2607 58.775 19.1187 58.775 20.116C58.775 20.38 58.7677 20.5707 58.753 20.688C58.753 20.7907 58.753 20.8567 58.753 20.886H51.185C51.317 21.59 51.647 22.162 52.175 22.602C52.703 23.042 53.297 23.262 53.957 23.262C54.705 23.262 55.2843 23.1153 55.695 22.822C56.1057 22.5287 56.399 22.2353 56.575 21.942L58.445 22.778C58.1517 23.4527 57.6163 24.032 56.839 24.516C56.0763 25 55.1157 25.242 53.957 25.242ZM56.553 19.038C56.4357 18.334 56.1643 17.7693 55.739 17.344C55.3137 16.904 54.7197 16.684 53.957 16.684C53.2677 16.684 52.6663 16.904 52.153 17.344C51.6397 17.784 51.317 18.3487 51.185 19.038H56.553ZM63.3948 9.468V25.176H61.0628V9.468H63.3948ZM68.594 9.468V25.176H66.262V9.468H68.594ZM84.4736 18.84V25.176H82.1416V18.84L76.4876 8.94H79.1936L83.3076 16.266L87.4216 8.94H90.1276L84.4736 18.84ZM94.0253 23.284C94.8467 23.284 95.5067 22.9833 96.0053 22.382C96.504 21.7807 96.7533 20.9813 96.7533 19.984C96.7533 19.0013 96.504 18.2093 96.0053 17.608C95.5067 16.992 94.8467 16.684 94.0253 16.684C93.204 16.684 92.544 16.9847 92.0453 17.586C91.5467 18.1873 91.2973 18.9867 91.2973 19.984C91.2973 20.9813 91.5467 21.7807 92.0453 22.382C92.544 22.9833 93.204 23.284 94.0253 23.284ZM88.9653 19.984C88.9653 18.9573 89.178 18.048 89.6033 17.256C90.0433 16.4493 90.6447 15.8187 91.4073 15.364C92.17 14.9093 93.0427 14.682 94.0253 14.682C95.008 14.682 95.8807 14.9093 96.6433 15.364C97.406 15.8187 98 16.4493 98.4253 17.256C98.8653 18.048 99.0853 18.9573 99.0853 19.984C99.0853 20.996 98.8653 21.9053 98.4253 22.712C98 23.5187 97.406 24.1493 96.6433 24.604C95.8807 25.0587 95.008 25.286 94.0253 25.286C93.0427 25.286 92.17 25.0587 91.4073 24.604C90.6447 24.1493 90.0433 23.5187 89.6033 22.712C89.178 21.9053 88.9653 20.996 88.9653 19.984ZM104.026 20.688C104.026 21.48 104.239 22.1107 104.664 22.58C105.09 23.0493 105.654 23.284 106.358 23.284C107.106 23.284 107.708 23.0567 108.162 22.602C108.617 22.1327 108.837 21.502 108.822 20.71V14.704H111.176V25.198H108.822V23.988C108.5 24.384 108.089 24.6993 107.59 24.934C107.092 25.1687 106.578 25.286 106.05 25.286C105.214 25.286 104.466 25.0953 103.806 24.714C103.146 24.3327 102.626 23.8047 102.244 23.13C101.878 22.4407 101.694 21.656 101.694 20.776V14.704H104.026V20.688ZM114.066 14.704H116.398V16.244C116.75 15.7453 117.22 15.3493 117.806 15.056C118.393 14.7627 118.994 14.6307 119.61 14.66V16.816C119.009 16.7867 118.459 16.926 117.96 17.234C117.476 17.5273 117.095 17.9233 116.816 18.422C116.538 18.9207 116.398 19.4413 116.398 19.984V25.198H114.066V14.704ZM129.154 20.556C129.624 21.4653 130.181 22.1547 130.826 22.624C131.486 23.0933 132.183 23.328 132.916 23.328C133.928 23.328 134.713 23.1007 135.27 22.646C135.828 22.1767 136.106 21.5533 136.106 20.776C136.106 20.2627 135.952 19.83 135.644 19.478C135.351 19.126 134.977 18.8473 134.522 18.642C134.082 18.422 133.466 18.1653 132.674 17.872C131.662 17.5053 130.841 17.1533 130.21 16.816C129.58 16.4787 129.044 16.002 128.604 15.386C128.164 14.77 127.944 13.978 127.944 13.01C127.944 12.1447 128.164 11.3893 128.604 10.744C129.044 10.0987 129.653 9.60733 130.43 9.27C131.208 8.93267 132.095 8.764 133.092 8.764C134.222 8.764 135.234 9.07933 136.128 9.71C137.038 10.326 137.712 11.25 138.152 12.482L136.062 13.23C135.784 12.4233 135.388 11.822 134.874 11.426C134.361 11.0153 133.782 10.8027 133.136 10.788C132.271 10.788 131.574 10.9933 131.046 11.404C130.533 11.8 130.276 12.3353 130.276 13.01C130.276 13.5233 130.423 13.956 130.716 14.308C131.024 14.66 131.406 14.9533 131.86 15.188C132.33 15.408 132.953 15.6647 133.73 15.958C134.742 16.354 135.556 16.7207 136.172 17.058C136.788 17.3953 137.316 17.872 137.756 18.488C138.196 19.0893 138.416 19.8593 138.416 20.798C138.416 21.6927 138.196 22.4847 137.756 23.174C137.316 23.8633 136.678 24.3987 135.842 24.78C135.021 25.1613 134.053 25.352 132.938 25.352C131.75 25.352 130.672 25.0367 129.704 24.406C128.736 23.7607 127.908 22.8367 127.218 21.634L129.154 20.556ZM142.588 16.706H140.608V14.682H142.588V11.008H144.92V14.682H147.406V16.706H144.92V25.198H142.588V16.706ZM154.117 23.284C154.938 23.284 155.598 22.9833 156.097 22.382C156.596 21.7807 156.845 20.9813 156.845 19.984C156.845 19.0013 156.596 18.2093 156.097 17.608C155.598 16.992 154.938 16.684 154.117 16.684C153.296 16.684 152.636 16.9847 152.137 17.586C151.638 18.1873 151.389 18.9867 151.389 19.984C151.389 20.9813 151.638 21.7807 152.137 22.382C152.636 22.9833 153.296 23.284 154.117 23.284ZM149.057 19.984C149.057 18.9573 149.27 18.048 149.695 17.256C150.135 16.4493 150.736 15.8187 151.499 15.364C152.262 14.9093 153.134 14.682 154.117 14.682C155.1 14.682 155.972 14.9093 156.735 15.364C157.498 15.8187 158.092 16.4493 158.517 17.256C158.957 18.048 159.177 18.9573 159.177 19.984C159.177 20.996 158.957 21.9053 158.517 22.712C158.092 23.5187 157.498 24.1493 156.735 24.604C155.972 25.0587 155.1 25.286 154.117 25.286C153.134 25.286 152.262 25.0587 151.499 24.604C150.736 24.1493 150.135 23.5187 149.695 22.712C149.27 21.9053 149.057 20.996 149.057 19.984ZM161.439 14.704H163.771V16.244C164.123 15.7453 164.593 15.3493 165.179 15.056C165.766 14.7627 166.367 14.6307 166.983 14.66V16.816C166.382 16.7867 165.832 16.926 165.333 17.234C164.849 17.5273 164.468 17.9233 164.189 18.422C163.911 18.9207 163.771 19.4413 163.771 19.984V25.198H161.439V14.704ZM170.863 29.752L173.151 24.318L168.927 14.704H171.501L174.383 21.656L177.155 14.704H179.685L175.769 24.142L173.415 29.752H170.863Z" fill="#646DB4"/>
<defs>
<clipPath id="clip0_9954_40735">
<rect width="28" height="28" fill="white" transform="translate(0 3)"/>
</clipPath>
</defs>
</svg>
