<svg width="95" height="30" viewBox="0 0 95 30" fill="none" xmlns="http://www.w3.org/2000/svg">
<rect x="10" width="85" height="30" rx="15" fill="#CF8900"/>
<path d="M33.92 8.056H35.68V11.656H37.664V13.096H35.68V16.616H33.92V8.056ZM24.56 10.808V9.416H27.872V7.944H29.632V9.416H32.944V10.808H24.56ZM25.296 13.896C25.296 12.36 26.704 11.336 28.752 11.336C30.816 11.336 32.224 12.36 32.224 13.896C32.224 15.432 30.816 16.44 28.752 16.44C26.704 16.44 25.296 15.432 25.296 13.896ZM26.544 22.12V17.304H35.68V22.12H26.544ZM26.976 13.896C26.976 14.68 27.696 15.144 28.752 15.144C29.808 15.144 30.528 14.68 30.528 13.896C30.528 13.096 29.808 12.648 28.752 12.648C27.696 12.648 26.976 13.096 26.976 13.896ZM28.272 20.728H33.968V18.712H28.272V20.728ZM41.9844 9.704C41.9844 13.08 41.6164 16.344 39.7604 19.144L38.3844 18.392C39.9364 16.152 40.4004 13.848 40.4964 11.128H38.8004V9.704H41.9844ZM41.5524 19.16C43.2644 16.696 43.6004 13.96 43.6484 11.128H42.4164V9.704H45.1524C45.1524 10.936 45.1204 12.216 44.9924 13.48H46.4004V8.376H48.0484V21.608H46.4004V14.904H44.8004C44.4964 16.664 43.9364 18.376 42.9124 19.928L41.5524 19.16ZM49.1044 22.296V8.056H50.7844V22.296H49.1044Z" fill="white"/>
<path d="M64.872 8.056H66.632V13.72H68.792V15.176H66.632V22.296H64.872V8.056ZM55.464 11.624V10.216H58.776V8.264H60.552V10.216H63.816V11.624H55.464ZM56.12 15.928C56.12 13.96 57.64 12.584 59.672 12.584C61.736 12.584 63.24 13.96 63.24 15.928C63.24 17.896 61.736 19.272 59.672 19.272C57.64 19.272 56.12 17.896 56.12 15.928ZM57.816 15.928C57.816 17.096 58.584 17.832 59.672 17.832C60.76 17.832 61.544 17.096 61.544 15.928C61.544 14.76 60.76 14.008 59.672 14.008C58.584 14.008 57.816 14.76 57.816 15.928ZM79.5444 8.04H81.3044V22.28H79.5444V8.04ZM69.6084 18.392C73.3044 16.616 74.9844 14.2 75.2884 10.952H70.3124V9.528H77.0964C77.0964 13.8 75.4804 17.384 70.5204 19.784L69.6084 18.392Z" fill="white"/>
<g clip-path="url(#clip0_6_531)">
<path d="M8.33277 16.3761C10.0081 16.3761 11.4048 16.113 12.4267 15.5305L13.2516 15.6221C13.6465 15.666 14.066 15.6875 14.5084 15.6875C16.1238 15.6875 17.4598 15.3982 18.3884 14.7455C19.3485 14.0707 19.8103 13.0515 19.744 11.7736L19.745 11.0632V11.0625C19.745 9.6473 18.5978 8.50004 17.1826 8.5C17.1826 8.5 17.1826 8.5 17.1825 8.5L13.5001 8.49943L12.1771 8.49923L12.2496 8.56314C12.0669 8.52182 11.8769 8.5 11.6817 8.5H4.8125C3.39727 8.5 2.25 9.64727 2.25 11.0625V12.1275C2.25 13.5357 2.821 14.6356 3.91796 15.3589C4.98191 16.0604 6.49183 16.3761 8.33277 16.3761ZM12.1419 3.58314C11.8509 1.69539 10.2192 0.25 8.25 0.25C6.07507 0.25 4.31194 2.01313 4.31194 4.18806C4.31194 6.36299 6.07507 8.12611 8.25 8.12611C9.94554 8.12611 11.3908 7.05456 11.9456 5.55172C12.2569 7.02184 13.5621 8.125 15.125 8.125C16.9199 8.125 18.375 6.66993 18.375 4.875C18.375 3.08007 16.9199 1.625 15.125 1.625C13.7891 1.625 12.6415 2.43096 12.1419 3.58314Z" fill="#D0D3D9" stroke="white"/>
<path d="M13.1692 9.37497C13.6373 9.78789 13.9314 10.3906 13.9316 11.0626C13.9316 11.0627 13.9316 11.0629 13.9316 11.0631L13.9294 12.0525L13.9294 12.0603L13.9296 12.0681L13.938 12.3582C13.9377 13.3992 13.5906 14.183 12.9674 14.7584L12.1624 15.5017L13.2515 15.6227C13.6464 15.6665 14.0658 15.6881 14.5083 15.6881C16.1237 15.6881 17.4597 15.3988 18.3882 14.7461C19.3483 14.0712 19.8102 13.0521 19.7439 11.7741L19.7449 11.0638V11.0631C19.7449 9.64786 18.5977 8.50061 17.1825 8.50057C17.1824 8.50057 17.1824 8.50057 17.1824 8.50057L13.5 8.5L12.177 8.4998L13.1692 9.37497Z" fill="#B0B6C0" stroke="white"/>
<path d="M11.6881 4.18806C11.6881 2.28927 10.1489 0.75 8.25007 0.75C6.35128 0.75 4.81201 2.28927 4.81201 4.18806C4.81201 6.08684 6.35128 7.62611 8.25007 7.62611C10.1489 7.62611 11.6881 6.08684 11.6881 4.18806Z" fill="#FFD266"/>
<path d="M13.7442 11.0625C13.7442 9.92341 12.8208 9 11.6817 9H4.8125C3.67341 9 2.75 9.92341 2.75 11.0625V12.1275C2.75 14.6332 4.73759 15.8761 8.33277 15.8761C11.9396 15.8761 13.8846 14.6168 13.7431 12.0915L13.7442 11.0625Z" fill="#FFB400"/>
</g>
<defs>
<clipPath id="clip0_6_531">
<rect width="22" height="20" fill="white"/>
</clipPath>
</defs>
</svg>
