<svg width="222" height="34" viewBox="0 0 222 34" fill="none" xmlns="http://www.w3.org/2000/svg">
<path d="M26.9999 18.8694V25.2608C26.9999 25.9873 26.696 26.684 26.155 27.1977C25.6141 27.7114 24.8803 28 24.1153 28H22.1922C21.4272 28 20.6935 27.7114 20.1525 27.1977C19.6115 26.684 19.3076 25.9873 19.3076 25.2608V20.6955C19.3076 19.969 19.6115 19.2723 20.1525 18.7586C20.6935 18.2449 21.4272 17.9563 22.1922 17.9563H25.0348C24.8038 15.4706 23.6035 13.1565 21.6692 11.4674C19.7348 9.77841 17.2059 8.83628 14.5781 8.82574H14.5C11.8612 8.82562 9.31761 9.76216 7.36869 11.4515C5.41976 13.1408 4.20623 15.461 3.96634 17.9563H6.80767C7.57272 17.9563 8.30643 18.2449 8.8474 18.7586C9.38837 19.2723 9.69228 19.969 9.69228 20.6955V25.2608C9.69228 25.9873 9.38837 26.684 8.8474 27.1977C8.30643 27.7114 7.57272 28 6.80767 28H4.8846C4.11956 28 3.38585 27.7114 2.84488 27.1977C2.30391 26.684 2 25.9873 2 25.2608V18.8694C2.0027 16.5182 2.73993 14.2205 4.11839 12.2673C5.49684 10.3141 7.45455 8.79318 9.74371 7.89699C12.0329 7.0008 14.5506 6.76966 16.9781 7.23283C19.4057 7.696 21.634 8.83266 23.3809 10.4989C24.5343 11.5995 25.4477 12.9054 26.0687 14.3418C26.6897 15.7781 27.0062 17.3167 26.9999 18.8694Z" fill="#FFB400"/>
<path d="M40.07 8.94V23.13H47.418V25.176H37.738V8.94H40.07ZM50.5222 14.682H52.8542V25.176H50.5222V14.682ZM50.3682 10.766C50.3682 9.996 50.9182 9.446 51.6882 9.446C52.4582 9.446 53.0082 9.996 53.0082 10.766C53.0082 11.536 52.4582 12.086 51.6882 12.086C50.9182 12.086 50.3682 11.536 50.3682 10.766ZM57.556 21.59C58.018 22.734 59.162 23.262 59.866 23.262C60.966 23.262 61.67 22.844 61.67 22.118C61.67 21.458 60.702 21.15 59.624 20.776C58.194 20.27 56.17 19.588 56.17 17.564C56.17 15.716 57.864 14.594 60.02 14.594C61.318 14.594 63.254 15.342 63.782 17.234L61.824 17.938C61.472 16.772 60.526 16.596 60.02 16.596C59.096 16.596 58.502 16.97 58.502 17.564C58.502 18.224 59.404 18.488 60.526 18.884C62.022 19.412 64.002 20.094 64.002 22.096C64.002 24.01 62.308 25.264 59.866 25.264C58.26 25.264 56.5 24.252 55.73 22.646L57.556 21.59ZM67.6506 25.198V16.706H65.6706V14.682H67.6506V11.008H69.9826V14.682H72.4686V16.706H69.9826V25.198H67.6506ZM79.1796 25.242C76.2096 25.242 74.1196 23.064 74.1196 19.984C74.1196 16.882 76.2096 14.704 79.1796 14.704C82.4356 14.704 83.4696 17.366 83.5356 17.542C84.1736 19.038 83.9756 20.71 83.9756 20.886H76.4076C76.6716 22.294 77.8596 23.262 79.1796 23.262C80.9176 23.262 81.6216 22.25 81.7976 21.942L83.6676 22.778C83.1616 23.966 81.6876 25.242 79.1796 25.242ZM76.4076 19.038H81.7756C81.5556 17.74 80.8076 16.684 79.1796 16.684C77.7716 16.684 76.6716 17.674 76.4076 19.038ZM93.6115 19.412C93.6115 17.74 92.7535 16.728 91.3015 16.728C89.8715 16.75 88.7715 17.872 88.7935 19.412V25.198H86.4615V14.704H88.7935V16.134C89.4535 15.32 90.5755 14.726 91.5875 14.726C93.5675 14.726 95.9435 16.024 95.9435 19.324V25.198H93.6115V19.412ZM108.568 25.286C105.664 25.286 103.596 23.086 103.596 20.006C103.596 16.926 105.664 14.726 108.568 14.726C109.602 14.726 110.746 15.21 111.582 16.2V14.704H113.914V25.198H111.582V23.79C110.746 24.846 109.602 25.286 108.568 25.286ZM105.928 20.006C105.928 21.986 107.05 23.306 108.722 23.306C110.262 23.306 111.582 21.92 111.604 20.006C111.582 18.092 110.262 16.706 108.722 16.706C107.05 16.706 105.928 18.004 105.928 20.006ZM123.926 19.412C123.926 17.74 123.068 16.728 121.616 16.728C120.186 16.75 119.086 17.872 119.108 19.412V25.198H116.776V14.704H119.108V16.134C119.768 15.32 120.89 14.726 121.902 14.726C123.882 14.726 126.258 16.024 126.258 19.324V25.198H123.926V19.412ZM133.62 25.286C130.716 25.286 128.626 23.086 128.626 19.984C128.626 16.882 130.716 14.682 133.62 14.682C134.478 14.682 135.776 15.056 136.678 16.244V9.468H139.01V25.198H136.678V23.724C135.754 24.846 134.478 25.286 133.62 25.286ZM130.958 20.006C130.958 22.008 132.08 23.328 133.774 23.328C135.358 23.328 136.678 21.876 136.678 20.006C136.678 18.158 135.358 16.684 133.774 16.684C132.08 16.684 130.958 18.004 130.958 20.006ZM155.291 25.352C150.583 25.352 147.283 21.92 147.283 17.058C147.283 12.174 150.583 8.764 155.291 8.764C157.513 8.764 159.493 9.71 160.945 11.184L159.405 12.702C158.437 11.558 156.897 10.81 155.269 10.81C151.903 10.81 149.637 13.318 149.637 17.058C149.637 20.798 151.903 23.306 155.269 23.306C157.007 23.306 158.393 22.514 159.317 21.458L160.945 22.932C159.493 24.406 157.623 25.374 155.291 25.352ZM170.87 19.456C170.87 17.718 170.034 16.618 168.78 16.618C167.328 16.618 166.206 17.982 166.206 19.676V25H163.874V9.468H166.206V15.936C166.844 15.122 167.878 14.594 168.78 14.594C171.376 14.594 173.224 16.53 173.224 19.192V25H170.87V19.456ZM180.844 23.284C182.472 23.284 183.572 21.986 183.572 19.984C183.572 18.004 182.472 16.684 180.844 16.684C179.216 16.684 178.116 17.982 178.116 19.984C178.116 21.986 179.194 23.284 180.844 23.284ZM175.784 19.984C175.784 16.882 177.874 14.682 180.844 14.682C183.814 14.682 185.904 16.882 185.904 19.984C185.904 23.064 183.814 25.286 180.844 25.286C177.874 25.286 175.784 23.064 175.784 19.984ZM193.004 23.284C194.632 23.284 195.732 21.986 195.732 19.984C195.732 18.004 194.632 16.684 193.004 16.684C191.376 16.684 190.276 17.982 190.276 19.984C190.276 21.986 191.354 23.284 193.004 23.284ZM187.944 19.984C187.944 16.882 190.034 14.682 193.004 14.682C195.974 14.682 198.064 16.882 198.064 19.984C198.064 23.064 195.974 25.286 193.004 25.286C190.034 25.286 187.944 23.064 187.944 19.984ZM201.888 21.59C202.35 22.734 203.494 23.262 204.198 23.262C205.298 23.262 206.002 22.844 206.002 22.118C206.002 21.458 205.034 21.15 203.956 20.776C202.526 20.27 200.502 19.588 200.502 17.564C200.502 15.716 202.196 14.594 204.352 14.594C205.65 14.594 207.586 15.342 208.114 17.234L206.156 17.938C205.804 16.772 204.858 16.596 204.352 16.596C203.428 16.596 202.834 16.97 202.834 17.564C202.834 18.224 203.736 18.488 204.858 18.884C206.354 19.412 208.334 20.094 208.334 22.096C208.334 24.01 206.64 25.264 204.198 25.264C202.592 25.264 200.832 24.252 200.062 22.646L201.888 21.59ZM215.627 25.242C212.657 25.242 210.567 23.064 210.567 19.984C210.567 16.882 212.657 14.704 215.627 14.704C218.883 14.704 219.917 17.366 219.983 17.542C220.621 19.038 220.423 20.71 220.423 20.886H212.855C213.119 22.294 214.307 23.262 215.627 23.262C217.365 23.262 218.069 22.25 218.245 21.942L220.115 22.778C219.609 23.966 218.135 25.242 215.627 25.242ZM212.855 19.038H218.223C218.003 17.74 217.255 16.684 215.627 16.684C214.219 16.684 213.119 17.674 212.855 19.038Z" fill="#275CE7"/>
</svg>
