<svg width="127" height="32" viewBox="0 0 127 32" fill="none" xmlns="http://www.w3.org/2000/svg">
<mask id="path-1-inside-1_3143_36911" fill="white">
<path d="M0 0H127V32H0V0Z"/>
</mask>
<path d="M127 29H0V35H127V29Z" fill="#BADDFF" mask="url(#path-1-inside-1_3143_36911)"/>
<path d="M11.14 15.78C11.9133 15.78 12.5267 15.5467 12.98 15.08C13.4333 14.6133 13.66 13.9667 13.66 13.14C13.66 12.3133 13.4333 11.6733 12.98 11.22C12.5267 10.7533 11.9133 10.52 11.14 10.52H8.1V15.78H11.14ZM5.52 8.3H11.6C12.52 8.3 13.3267 8.5 14.02 8.9C14.7267 9.3 15.2733 9.86667 15.66 10.6C16.0467 11.32 16.24 12.1667 16.24 13.14C16.24 14.1133 16 14.9733 15.52 15.72C15.0533 16.4533 14.2733 17.0733 13.18 17.58L16.96 23.26H13.86L10.36 18H8.1V23.26H5.52V8.3ZM22.9631 23.3C22.0431 23.3 21.2231 23.0933 20.5031 22.68C19.7965 22.2667 19.2431 21.6933 18.8431 20.96C18.4431 20.2267 18.2431 19.3867 18.2431 18.44C18.2431 17.4933 18.4431 16.6467 18.8431 15.9C19.2431 15.1533 19.7965 14.5733 20.5031 14.16C21.2231 13.7467 22.0431 13.54 22.9631 13.54C23.8698 13.54 24.6231 13.7267 25.2231 14.1C25.8231 14.4733 26.2565 14.86 26.5231 15.26C26.8031 15.66 26.9765 15.96 27.0431 16.16C27.3365 16.7733 27.4831 17.58 27.4831 18.58L27.4631 19.36H20.7031C20.8231 19.8933 21.0965 20.3267 21.5231 20.66C21.9631 20.9933 22.4431 21.16 22.9631 21.16C23.5498 21.16 24.0098 21.0533 24.3431 20.84C24.6898 20.6133 24.9298 20.38 25.0631 20.14L27.1631 20.98C26.8965 21.62 26.4031 22.1667 25.6831 22.62C24.9631 23.0733 24.0565 23.3 22.9631 23.3ZM25.0831 17.62C24.9631 17.02 24.7231 16.5467 24.3631 16.2C24.0165 15.8533 23.5498 15.68 22.9631 15.68C22.3898 15.68 21.8965 15.86 21.4831 16.22C21.0831 16.5667 20.8231 17.0333 20.7031 17.62H25.0831ZM33.9741 23.34C33.0807 23.34 32.2941 23.1333 31.6141 22.72C30.9341 22.2933 30.4007 21.7133 30.0141 20.98C29.6407 20.2333 29.4541 19.3867 29.4541 18.44C29.4541 17.4933 29.6407 16.6533 30.0141 15.92C30.4007 15.1733 30.9341 14.5933 31.6141 14.18C32.2941 13.7667 33.0807 13.56 33.9741 13.56C34.4541 13.56 34.9341 13.6667 35.4141 13.88C35.8941 14.0933 36.3007 14.4133 36.6341 14.84V13.54H39.2141V23.28H36.6341V22.06C36.3007 22.5 35.8941 22.82 35.4141 23.02C34.9341 23.2333 34.4541 23.34 33.9741 23.34ZM32.0341 18.44C32.0341 19.2933 32.2341 19.9667 32.6341 20.46C33.0341 20.9533 33.5807 21.2 34.2741 21.2C34.9274 21.2 35.4807 20.94 35.9341 20.42C36.4007 19.8867 36.6407 19.2267 36.6541 18.44C36.6407 17.6533 36.4007 17 35.9341 16.48C35.4807 15.9467 34.9274 15.68 34.2741 15.68C33.5807 15.68 33.0341 15.9267 32.6341 16.42C32.2341 16.9133 32.0341 17.5867 32.0341 18.44ZM46.0448 23.32C45.1515 23.32 44.3582 23.1133 43.6648 22.7C42.9848 22.2867 42.4515 21.7067 42.0648 20.96C41.6915 20.2133 41.5048 19.3667 41.5048 18.42C41.5048 17.4733 41.6915 16.6333 42.0648 15.9C42.4515 15.1533 42.9848 14.5733 43.6648 14.16C44.3582 13.7333 45.1515 13.52 46.0448 13.52C46.4315 13.52 46.8782 13.62 47.3848 13.82C47.9048 14.02 48.3582 14.3733 48.7448 14.88V8.82H51.3248V23.28H48.7448V21.98C48.3582 22.46 47.9048 22.8 47.3848 23C46.8648 23.2133 46.4182 23.32 46.0448 23.32ZM44.0848 18.48C44.0848 19.3333 44.2848 20.0067 44.6848 20.5C45.0848 20.9933 45.6315 21.24 46.3248 21.24C46.7648 21.24 47.1715 21.12 47.5448 20.88C47.9182 20.64 48.2115 20.3067 48.4248 19.88C48.6382 19.4533 48.7448 18.9867 48.7448 18.48C48.7448 17.96 48.6382 17.4933 48.4248 17.08C48.2115 16.6533 47.9182 16.32 47.5448 16.08C47.1715 15.8267 46.7648 15.7 46.3248 15.7C45.6315 15.7 45.0848 15.9533 44.6848 16.46C44.2848 16.9533 44.0848 17.6267 44.0848 18.48ZM64.73 23.24L63.63 22.06C62.3633 23.14 60.9567 23.68 59.41 23.68C57.9567 23.68 56.8433 23.3733 56.07 22.76C55.31 22.1467 54.8167 21.5 54.59 20.82C54.3633 20.1267 54.25 19.5533 54.25 19.1C54.25 18.82 54.31 18.44 54.43 17.96C54.55 17.48 54.7833 16.9533 55.13 16.38C55.49 15.7933 55.99 15.2733 56.63 14.82C56.2167 14.3933 55.89 13.96 55.65 13.52C55.4233 13.0667 55.31 12.54 55.31 11.94C55.31 11.3533 55.47 10.76 55.79 10.16C56.11 9.56 56.5767 9.06667 57.19 8.68C57.8167 8.28 58.5567 8.08 59.41 8.08C60.2633 8.08 61.0033 8.27333 61.63 8.66C62.27 9.04667 62.7567 9.54 63.09 10.14C63.4233 10.7267 63.59 11.3267 63.59 11.94C63.59 12.66 63.3833 13.3067 62.97 13.88C62.5567 14.44 61.9367 14.9733 61.11 15.48L63.51 18.06C63.67 17.7933 64.01 17.1933 64.53 16.26L66.87 17.56C66.8167 17.6533 66.65 17.9667 66.37 18.5C66.09 19.02 65.77 19.5333 65.41 20.04L68.43 23.24H64.73ZM56.93 19.1C56.93 19.5267 57.09 19.9533 57.41 20.38C57.73 20.7933 58.3967 21 59.41 21C60.25 21 61.0367 20.7133 61.77 20.14L58.59 16.76C57.95 17.1067 57.51 17.5067 57.27 17.96C57.0433 18.4133 56.93 18.7933 56.93 19.1ZM57.99 11.94C57.99 12.1533 58.0567 12.3467 58.19 12.52C58.3233 12.6933 58.5433 12.92 58.85 13.2L59.19 13.52C59.83 13.2133 60.2767 12.9467 60.53 12.72C60.7833 12.48 60.91 12.22 60.91 11.94C60.91 11.5933 60.7833 11.3133 60.53 11.1C60.2767 10.8733 59.9033 10.76 59.41 10.76C58.4633 10.76 57.99 11.1533 57.99 11.94ZM86.2991 23.26H83.9991L80.5191 12.64L77.3591 23.26H75.0391L70.3391 8.3H73.0391L76.1991 18.62L79.1191 8.32H81.8991L84.9391 18.62L87.6191 8.3H90.3191L86.2991 23.26ZM91.5309 13.54H94.0909V14.94C94.4109 14.4867 94.8243 14.1333 95.3309 13.88C95.8509 13.6267 96.3509 13.5133 96.8309 13.54V15.86C96.2843 15.8333 95.8043 15.9533 95.3909 16.22C94.9776 16.4733 94.6576 16.8133 94.4309 17.24C94.2043 17.6667 94.0909 18.1 94.0909 18.54V23.28H91.5309V13.54ZM101.794 13.52V23.26H99.2138V13.52H101.794ZM99.1138 10C99.1138 9.6 99.2404 9.27333 99.4938 9.02C99.7604 8.75333 100.1 8.62 100.514 8.62C100.914 8.62 101.24 8.75333 101.494 9.02C101.76 9.27333 101.894 9.6 101.894 10C101.894 10.4133 101.76 10.7533 101.494 11.02C101.24 11.2733 100.914 11.4 100.514 11.4C100.1 11.4 99.7604 11.2733 99.4938 11.02C99.2404 10.7533 99.1138 10.4133 99.1138 10ZM105.977 15.72H104.077V13.5H105.977V10.06H108.557V13.5H110.857V15.72H108.557V23.28H105.977V15.72ZM116.987 23.3C116.067 23.3 115.247 23.0933 114.527 22.68C113.82 22.2667 113.267 21.6933 112.867 20.96C112.467 20.2267 112.267 19.3867 112.267 18.44C112.267 17.4933 112.467 16.6467 112.867 15.9C113.267 15.1533 113.82 14.5733 114.527 14.16C115.247 13.7467 116.067 13.54 116.987 13.54C117.893 13.54 118.647 13.7267 119.247 14.1C119.847 14.4733 120.28 14.86 120.547 15.26C120.827 15.66 121 15.96 121.067 16.16C121.36 16.7733 121.507 17.58 121.507 18.58L121.487 19.36H114.727C114.847 19.8933 115.12 20.3267 115.547 20.66C115.987 20.9933 116.467 21.16 116.987 21.16C117.573 21.16 118.033 21.0533 118.367 20.84C118.713 20.6133 118.953 20.38 119.087 20.14L121.187 20.98C120.92 21.62 120.427 22.1667 119.707 22.62C118.987 23.0733 118.08 23.3 116.987 23.3ZM119.107 17.62C118.987 17.02 118.747 16.5467 118.387 16.2C118.04 15.8533 117.573 15.68 116.987 15.68C116.413 15.68 115.92 15.86 115.507 16.22C115.107 16.5667 114.847 17.0333 114.727 17.62H119.107Z" fill="#1E6EFA"/>
</svg>
