<svg width="149" height="34" viewBox="0 0 149 34" fill="none" xmlns="http://www.w3.org/2000/svg">
<mask id="path-1-outside-1_1960_5595" maskUnits="userSpaceOnUse" x="-2" y="5" width="121" height="24" fill="black">
<rect fill="white" x="-2" y="5" width="121" height="24"/>
<path d="M3.586 20.556C4.532 22.404 5.874 23.328 7.282 23.328C9.372 23.35 10.538 22.338 10.538 20.776C10.538 17.08 2.376 18.664 2.376 13.01C2.376 10.326 4.576 8.742 7.59 8.764C9.68 8.786 11.682 9.952 12.584 12.482L10.494 13.23C9.922 11.536 8.778 10.81 7.568 10.788C5.83 10.788 4.708 11.646 4.708 13.01C4.708 16.662 12.848 15.276 12.848 20.798C12.848 23.526 10.714 25.396 7.26 25.352C4.884 25.33 2.992 23.966 1.65 21.634L3.586 20.556ZM20.3418 25.242C17.3718 25.242 15.2818 23.064 15.2818 19.984C15.2818 16.882 17.3718 14.704 20.3418 14.704C23.5978 14.704 24.6318 17.366 24.6978 17.542C25.3358 19.038 25.1378 20.71 25.1378 20.886H17.5698C17.8338 22.294 19.0218 23.262 20.3418 23.262C22.0798 23.262 22.7838 22.25 22.9598 21.942L24.8298 22.778C24.3238 23.966 22.8498 25.242 20.3418 25.242ZM17.5698 19.038H22.9378C22.7178 17.74 21.9698 16.684 20.3418 16.684C18.9338 16.684 17.8338 17.674 17.5698 19.038ZM27.4476 9.468H29.7796V25.176H27.4476V9.468ZM36.3208 25.198H33.9888V16.728H32.1408V14.66H33.9888V12.46C33.9888 10.524 35.3308 9.05 37.2668 8.918C38.1688 8.852 39.2908 9.204 39.8188 9.732L38.6308 11.448C38.1468 11.03 37.8388 10.942 37.4648 10.986C36.7828 11.052 36.3208 11.624 36.3208 12.46V14.66H39.2688V16.728H36.3208V25.198ZM42.0784 15.738H51.6704V18.07H42.0784V15.738ZM62.6794 25.352C57.9714 25.352 54.6714 21.92 54.6714 17.058C54.6714 12.174 57.9714 8.764 62.6794 8.764C64.9014 8.764 66.8814 9.71 68.3334 11.184L66.7934 12.702C65.8254 11.558 64.2854 10.81 62.6574 10.81C59.2914 10.81 57.0254 13.318 57.0254 17.058C57.0254 20.798 59.2914 23.306 62.6574 23.306C64.3954 23.306 65.7814 22.514 66.7054 21.458L68.3334 22.932C66.8814 24.406 65.0114 25.374 62.6794 25.352ZM78.2585 19.456C78.2585 17.718 77.4225 16.618 76.1685 16.618C74.7165 16.618 73.5945 17.982 73.5945 19.676V25H71.2625V9.468H73.5945V15.936C74.2325 15.122 75.2665 14.594 76.1685 14.594C78.7645 14.594 80.6125 16.53 80.6125 19.192V25H78.2585V19.456ZM88.2324 25.242C85.2624 25.242 83.1724 23.064 83.1724 19.984C83.1724 16.882 85.2624 14.704 88.2324 14.704C91.4884 14.704 92.5224 17.366 92.5884 17.542C93.2264 19.038 93.0284 20.71 93.0284 20.886H85.4604C85.7244 22.294 86.9124 23.262 88.2324 23.262C89.9704 23.262 90.6744 22.25 90.8504 21.942L92.7204 22.778C92.2144 23.966 90.7404 25.242 88.2324 25.242ZM85.4604 19.038H90.8284C90.6084 17.74 89.8604 16.684 88.2324 16.684C86.8244 16.684 85.7244 17.674 85.4604 19.038ZM99.9561 23.042C100.77 23.042 101.716 22.624 102.31 21.964L103.916 23.57C103.014 24.56 101.364 25.264 100.044 25.264C96.9201 25.264 94.7201 23.064 94.7201 19.984C94.7201 16.882 96.9201 14.682 100.044 14.682C101.43 14.682 102.97 15.386 103.916 16.398L102.31 17.982C101.716 17.322 100.77 16.904 99.9561 16.904C98.2181 16.904 97.0521 18.114 97.0521 19.984C97.0521 21.832 98.2181 23.042 99.9561 23.042ZM108.376 9.468V19.038L112.116 14.704H115.262L111.17 19.39L115.174 25.198H112.336L109.498 21.128L108.376 22.448V25.198H106.044V9.468H108.376Z"/>
</mask>
<path d="M3.586 20.556C4.532 22.404 5.874 23.328 7.282 23.328C9.372 23.35 10.538 22.338 10.538 20.776C10.538 17.08 2.376 18.664 2.376 13.01C2.376 10.326 4.576 8.742 7.59 8.764C9.68 8.786 11.682 9.952 12.584 12.482L10.494 13.23C9.922 11.536 8.778 10.81 7.568 10.788C5.83 10.788 4.708 11.646 4.708 13.01C4.708 16.662 12.848 15.276 12.848 20.798C12.848 23.526 10.714 25.396 7.26 25.352C4.884 25.33 2.992 23.966 1.65 21.634L3.586 20.556ZM20.3418 25.242C17.3718 25.242 15.2818 23.064 15.2818 19.984C15.2818 16.882 17.3718 14.704 20.3418 14.704C23.5978 14.704 24.6318 17.366 24.6978 17.542C25.3358 19.038 25.1378 20.71 25.1378 20.886H17.5698C17.8338 22.294 19.0218 23.262 20.3418 23.262C22.0798 23.262 22.7838 22.25 22.9598 21.942L24.8298 22.778C24.3238 23.966 22.8498 25.242 20.3418 25.242ZM17.5698 19.038H22.9378C22.7178 17.74 21.9698 16.684 20.3418 16.684C18.9338 16.684 17.8338 17.674 17.5698 19.038ZM27.4476 9.468H29.7796V25.176H27.4476V9.468ZM36.3208 25.198H33.9888V16.728H32.1408V14.66H33.9888V12.46C33.9888 10.524 35.3308 9.05 37.2668 8.918C38.1688 8.852 39.2908 9.204 39.8188 9.732L38.6308 11.448C38.1468 11.03 37.8388 10.942 37.4648 10.986C36.7828 11.052 36.3208 11.624 36.3208 12.46V14.66H39.2688V16.728H36.3208V25.198ZM42.0784 15.738H51.6704V18.07H42.0784V15.738ZM62.6794 25.352C57.9714 25.352 54.6714 21.92 54.6714 17.058C54.6714 12.174 57.9714 8.764 62.6794 8.764C64.9014 8.764 66.8814 9.71 68.3334 11.184L66.7934 12.702C65.8254 11.558 64.2854 10.81 62.6574 10.81C59.2914 10.81 57.0254 13.318 57.0254 17.058C57.0254 20.798 59.2914 23.306 62.6574 23.306C64.3954 23.306 65.7814 22.514 66.7054 21.458L68.3334 22.932C66.8814 24.406 65.0114 25.374 62.6794 25.352ZM78.2585 19.456C78.2585 17.718 77.4225 16.618 76.1685 16.618C74.7165 16.618 73.5945 17.982 73.5945 19.676V25H71.2625V9.468H73.5945V15.936C74.2325 15.122 75.2665 14.594 76.1685 14.594C78.7645 14.594 80.6125 16.53 80.6125 19.192V25H78.2585V19.456ZM88.2324 25.242C85.2624 25.242 83.1724 23.064 83.1724 19.984C83.1724 16.882 85.2624 14.704 88.2324 14.704C91.4884 14.704 92.5224 17.366 92.5884 17.542C93.2264 19.038 93.0284 20.71 93.0284 20.886H85.4604C85.7244 22.294 86.9124 23.262 88.2324 23.262C89.9704 23.262 90.6744 22.25 90.8504 21.942L92.7204 22.778C92.2144 23.966 90.7404 25.242 88.2324 25.242ZM85.4604 19.038H90.8284C90.6084 17.74 89.8604 16.684 88.2324 16.684C86.8244 16.684 85.7244 17.674 85.4604 19.038ZM99.9561 23.042C100.77 23.042 101.716 22.624 102.31 21.964L103.916 23.57C103.014 24.56 101.364 25.264 100.044 25.264C96.9201 25.264 94.7201 23.064 94.7201 19.984C94.7201 16.882 96.9201 14.682 100.044 14.682C101.43 14.682 102.97 15.386 103.916 16.398L102.31 17.982C101.716 17.322 100.77 16.904 99.9561 16.904C98.2181 16.904 97.0521 18.114 97.0521 19.984C97.0521 21.832 98.2181 23.042 99.9561 23.042ZM108.376 9.468V19.038L112.116 14.704H115.262L111.17 19.39L115.174 25.198H112.336L109.498 21.128L108.376 22.448V25.198H106.044V9.468H108.376Z" fill="#00A42E"/>
<path d="M3.586 20.556L6.25644 19.189C5.88561 18.4646 5.23637 17.9219 4.45766 17.6854C3.67894 17.449 2.83757 17.539 2.12654 17.9349L3.586 20.556ZM7.282 23.328L7.31358 20.3282C7.30305 20.3281 7.29253 20.328 7.282 20.328V23.328ZM7.59 8.764L7.62158 5.76415L7.6119 5.76408L7.59 8.764ZM12.584 12.482L13.5949 15.3066C15.1535 14.7487 15.9657 13.0338 15.4098 11.4745L12.584 12.482ZM10.494 13.23L7.65166 14.1897C7.90921 14.9525 8.46249 15.5797 9.18713 15.9304C9.91176 16.2811 10.7469 16.3258 11.5049 16.0546L10.494 13.23ZM7.568 10.788L7.62254 7.7885C7.60436 7.78816 7.58618 7.788 7.568 7.788V10.788ZM7.26 25.352L7.29821 22.3522L7.28778 22.3521L7.26 25.352ZM1.65 21.634L0.190543 19.0129C-0.511024 19.4036 -1.0267 20.0592 -1.24109 20.833C-1.45549 21.6069 -1.3507 22.4344 -0.950189 23.1303L1.65 21.634ZM0.915556 21.923C2.18286 24.3987 4.38116 26.328 7.282 26.328V20.328C7.26695 20.328 7.19283 20.3317 7.0353 20.2161C6.85856 20.0865 6.56472 19.7912 6.25644 19.189L0.915556 21.923ZM7.25042 26.3278C8.74762 26.3436 10.3185 25.9956 11.5763 24.9818C12.9093 23.9075 13.538 22.3656 13.538 20.776H7.538C7.538 20.7904 7.53641 20.7185 7.5893 20.6015C7.64474 20.4788 7.72873 20.3767 7.81117 20.3102C7.887 20.2491 7.91619 20.254 7.84182 20.2755C7.76432 20.2978 7.59601 20.3311 7.31358 20.3282L7.25042 26.3278ZM13.538 20.776C13.538 18.4111 12.0844 16.9937 10.8074 16.2266C9.73694 15.5837 8.28267 15.1107 7.51948 14.8217C6.52065 14.4434 5.98669 14.1612 5.68306 13.8817C5.52618 13.7373 5.376 13.5728 5.376 13.01H-0.624C-0.624 15.2742 0.24607 17.0319 1.61956 18.2962C2.84631 19.4254 4.35285 20.0383 5.39452 20.4328C6.67183 20.9165 7.25806 21.0939 7.71801 21.3702C7.97134 21.5223 7.538 21.2929 7.538 20.776H13.538ZM5.376 13.01C5.376 12.5745 5.51438 12.3821 5.70714 12.2305C5.97211 12.0221 6.55953 11.7566 7.5681 11.7639L7.6119 5.76408C5.60647 5.74944 3.58689 6.26488 1.99836 7.51402C0.337619 8.81995 -0.624 10.7615 -0.624 13.01H5.376ZM7.55842 11.7638C8.44056 11.7731 9.2945 12.1888 9.75822 13.4895L15.4098 11.4745C14.0695 7.71522 10.9194 5.79888 7.62158 5.76417L7.55842 11.7638ZM11.5731 9.65745L9.48311 10.4054L11.5049 16.0546L13.5949 15.3066L11.5731 9.65745ZM13.3363 12.2702C12.4066 9.51665 10.2417 7.83612 7.62254 7.7885L7.51346 13.7875C7.52355 13.7877 7.51223 13.7887 7.48713 13.7801C7.46025 13.771 7.43854 13.7579 7.42754 13.7494C7.39458 13.7237 7.51952 13.7984 7.65166 14.1897L13.3363 12.2702ZM7.568 7.788C6.24186 7.788 4.81731 8.11223 3.65079 9.01451C2.40538 9.97781 1.708 11.4161 1.708 13.01H7.708C7.708 13.0879 7.68984 13.2318 7.60857 13.399C7.52709 13.5666 7.41623 13.6874 7.32171 13.7605C7.15069 13.8928 7.15614 13.788 7.568 13.788V7.788ZM1.708 13.01C1.708 15.3614 3.15764 16.7763 4.40688 17.5456C5.46992 18.2002 6.90735 18.6908 7.68011 18.9946C8.68058 19.3881 9.2274 19.6801 9.54248 19.9706C9.71415 20.1289 9.848 20.2881 9.848 20.798H15.848C15.848 18.5469 14.9644 16.8086 13.6098 15.5596C12.3986 14.4428 10.9104 13.8177 9.87589 13.4109C8.61365 12.9145 8.01608 12.7217 7.55287 12.4365C7.27586 12.2659 7.708 12.4846 7.708 13.01H1.708ZM9.848 20.798C9.848 21.3218 9.67249 21.607 9.43064 21.8082C9.14149 22.0488 8.49609 22.3675 7.29821 22.3522L7.22179 28.3518C9.47791 28.3805 11.6265 27.7862 13.2679 26.4208C14.9565 25.016 15.848 23.0022 15.848 20.798H9.848ZM7.28778 22.3521C6.26344 22.3426 5.22336 21.8287 4.25019 20.1377L-0.950189 23.1303C0.760644 26.1033 3.50456 28.3174 7.23222 28.3519L7.28778 22.3521ZM3.10946 24.2551L5.04546 23.1771L2.12654 17.9349L0.190543 19.0129L3.10946 24.2551ZM24.6978 17.542L21.8888 18.5954C21.9043 18.6369 21.9208 18.6781 21.9382 18.7189L24.6978 17.542ZM25.1378 20.886V23.886C26.7946 23.886 28.1378 22.5429 28.1378 20.886H25.1378ZM17.5697 20.886V17.886C16.6773 17.886 15.8312 18.2833 15.2612 18.9701C14.6913 19.6568 14.4567 20.5617 14.6211 21.4389L17.5697 20.886ZM22.9598 21.942L24.1841 19.2032C22.7761 18.5738 21.1202 19.1145 20.355 20.4536L22.9598 21.942ZM24.8298 22.778L27.5898 23.9536C28.2309 22.4483 27.5478 20.707 26.0541 20.0392L24.8298 22.778ZM17.5697 19.038L14.6244 18.4679C14.4542 19.3471 14.6857 20.2564 15.2556 20.9472C15.8255 21.6379 16.6742 22.038 17.5697 22.038V19.038ZM22.9377 19.038V22.038C23.821 22.038 24.6595 21.6487 25.2295 20.974C25.7995 20.2992 26.0432 19.4076 25.8956 18.5367L22.9377 19.038ZM20.3418 22.242C19.6182 22.242 19.1519 21.9917 18.8605 21.6887C18.561 21.3772 18.2817 20.8349 18.2817 19.984H12.2817C12.2817 22.2131 13.0475 24.2998 14.5355 25.8473C16.0316 27.4033 18.0953 28.242 20.3418 28.242V22.242ZM18.2817 19.984C18.2817 19.1166 18.5646 18.5688 18.8636 18.2569C19.1541 17.9539 19.6186 17.704 20.3418 17.704V11.704C18.0949 11.704 16.0294 12.5431 14.5324 14.1046C13.0439 15.6572 12.2817 17.7494 12.2817 19.984H18.2817ZM20.3418 17.704C20.7329 17.704 20.9848 17.7809 21.1467 17.8544C21.3165 17.9315 21.4555 18.0365 21.5734 18.1568C21.8351 18.4239 21.9277 18.6992 21.8888 18.5954L27.5067 16.4886C27.3676 16.1177 25.6392 11.704 20.3418 11.704V17.704ZM21.9382 18.7189C22.0665 19.0197 22.1397 19.4232 22.1605 19.8536C22.1702 20.0544 22.1673 20.2332 22.1614 20.3739C22.1584 20.4442 22.1548 20.5047 22.1511 20.5626C22.1496 20.5858 22.1468 20.6286 22.1449 20.6619C22.144 20.6763 22.1378 20.7757 22.1378 20.886H28.1378C28.1378 21.1636 28.4066 18.5912 27.4573 16.3651L21.9382 18.7189ZM25.1378 17.886H17.5697V23.886H25.1378V17.886ZM14.6211 21.4389C15.143 24.222 17.534 26.262 20.3418 26.262V20.262C20.5095 20.262 20.5245 20.366 20.5184 20.3331L14.6211 21.4389ZM20.3418 26.262C23.525 26.262 25.0667 24.3016 25.5645 23.4304L20.355 20.4536C20.3871 20.3974 20.4147 20.359 20.4387 20.331C20.4631 20.3023 20.488 20.2795 20.5128 20.2621C20.5403 20.2428 20.5564 20.2381 20.5493 20.2404C20.5425 20.2426 20.4805 20.262 20.3418 20.262V26.262ZM21.7354 24.6808L23.6054 25.5168L26.0541 20.0392L24.1841 19.2032L21.7354 24.6808ZM22.0697 21.6024C22.0788 21.5809 21.7635 22.242 20.3418 22.242V28.242C23.936 28.242 26.5687 26.3511 27.5898 23.9536L22.0697 21.6024ZM17.5697 22.038H22.9377V16.038H17.5697V22.038ZM25.8956 18.5367C25.7206 17.5043 25.2902 16.2736 24.3097 15.2738C23.2625 14.2059 21.8637 13.684 20.3418 13.684V19.684C20.4219 19.684 20.3942 19.6962 20.3028 19.6601C20.2057 19.6219 20.1057 19.5562 20.0258 19.4747C19.9519 19.3994 19.9286 19.345 19.9318 19.3522C19.9363 19.3623 19.9597 19.42 19.9799 19.5393L25.8956 18.5367ZM20.3418 13.684C17.3814 13.684 15.139 15.8094 14.6244 18.4679L20.5151 19.6081C20.5246 19.5592 20.5346 19.5794 20.4876 19.62C20.4652 19.6394 20.4357 19.6575 20.4023 19.67C20.3863 19.676 20.3719 19.6797 20.3602 19.6818C20.3545 19.6829 20.3499 19.6834 20.3467 19.6837C20.3434 19.684 20.3417 19.684 20.3418 19.684V13.684ZM27.4476 9.468V6.468C25.7907 6.468 24.4476 7.81115 24.4476 9.468H27.4476ZM29.7796 9.468H32.7796C32.7796 7.81115 31.4364 6.468 29.7796 6.468V9.468ZM29.7796 25.176V28.176C31.4364 28.176 32.7796 26.8329 32.7796 25.176H29.7796ZM27.4476 25.176H24.4476C24.4476 26.8329 25.7907 28.176 27.4476 28.176V25.176ZM27.4476 12.468H29.7796V6.468H27.4476V12.468ZM26.7796 9.468V25.176H32.7796V9.468H26.7796ZM29.7796 22.176H27.4476V28.176H29.7796V22.176ZM30.4476 25.176V9.468H24.4476V25.176H30.4476ZM36.3208 25.198V28.198C37.9776 28.198 39.3208 26.8549 39.3208 25.198H36.3208ZM33.9888 25.198H30.9888C30.9888 26.8549 32.3319 28.198 33.9888 28.198V25.198ZM33.9888 16.728H36.9888C36.9888 15.0711 35.6457 13.728 33.9888 13.728V16.728ZM32.1408 16.728H29.1408C29.1408 18.3849 30.4839 19.728 32.1408 19.728V16.728ZM32.1408 14.66V11.66C30.4839 11.66 29.1408 13.0031 29.1408 14.66H32.1408ZM33.9888 14.66V17.66C35.6457 17.66 36.9888 16.3169 36.9888 14.66H33.9888ZM37.2668 8.918L37.4709 11.9111C37.4758 11.9107 37.4808 11.9104 37.4857 11.91L37.2668 8.918ZM39.8188 9.732L42.2854 11.4396C43.1106 10.2476 42.9653 8.63589 41.9401 7.61068L39.8188 9.732ZM38.6308 11.448L36.6699 13.7185C37.3142 14.2749 38.1646 14.5314 39.0091 14.424C39.8536 14.3167 40.6128 13.8556 41.0974 13.1556L38.6308 11.448ZM37.4648 10.986L37.7538 13.972C37.7743 13.9701 37.7948 13.9679 37.8153 13.9655L37.4648 10.986ZM36.3208 14.66H33.3208C33.3208 16.3169 34.6639 17.66 36.3208 17.66V14.66ZM39.2688 14.66H42.2688C42.2688 13.0031 40.9257 11.66 39.2688 11.66V14.66ZM39.2688 16.728V19.728C40.9257 19.728 42.2688 18.3849 42.2688 16.728H39.2688ZM36.3208 16.728V13.728C34.6639 13.728 33.3208 15.0711 33.3208 16.728H36.3208ZM36.3208 22.198H33.9888V28.198H36.3208V22.198ZM36.9888 25.198V16.728H30.9888V25.198H36.9888ZM33.9888 13.728H32.1408V19.728H33.9888V13.728ZM35.1408 16.728V14.66H29.1408V16.728H35.1408ZM32.1408 17.66H33.9888V11.66H32.1408V17.66ZM36.9888 14.66V12.46H30.9888V14.66H36.9888ZM36.9888 12.46C36.9888 12.1995 37.0712 12.0854 37.1084 12.0449C37.1425 12.0079 37.2336 11.9272 37.4709 11.9111L37.0627 5.92495C33.5145 6.16688 30.9888 8.985 30.9888 12.46H36.9888ZM37.4857 11.91C37.4787 11.9105 37.5102 11.9081 37.5762 11.9169C37.6402 11.9254 37.7103 11.941 37.7756 11.9617C37.8069 11.9717 37.8327 11.9814 37.8522 11.9896C37.8719 11.9979 37.8812 12.003 37.8807 12.0027C37.8806 12.0027 37.8646 11.9939 37.8361 11.9733C37.8082 11.9532 37.7588 11.9147 37.6975 11.8533L41.9401 7.61068C41.219 6.88956 40.3176 6.47355 39.5905 6.2428C38.8287 6.00103 37.9384 5.86084 37.0479 5.926L37.4857 11.91ZM37.3522 8.02437L36.1642 9.74037L41.0974 13.1556L42.2854 11.4396L37.3522 8.02437ZM40.5917 9.17753C40.211 8.84878 39.7039 8.47506 39.0553 8.23304C38.3375 7.96519 37.6725 7.94087 37.1143 8.00655L37.8153 13.9655C37.7449 13.9737 37.6153 13.9831 37.4485 13.967C37.2758 13.9503 37.1089 13.9109 36.9578 13.8545C36.6777 13.7499 36.5666 13.6292 36.6699 13.7185L40.5917 9.17753ZM37.1758 7.99995C34.5862 8.25056 33.3208 10.4812 33.3208 12.46H39.3208C39.3208 12.5855 39.2836 12.9213 38.9969 13.2866C38.6876 13.6806 38.2231 13.9266 37.7538 13.972L37.1758 7.99995ZM33.3208 12.46V14.66H39.3208V12.46H33.3208ZM36.3208 17.66H39.2688V11.66H36.3208V17.66ZM36.2688 14.66V16.728H42.2688V14.66H36.2688ZM39.2688 13.728H36.3208V19.728H39.2688V13.728ZM33.3208 16.728V25.198H39.3208V16.728H33.3208ZM42.0784 15.738V12.738C40.4216 12.738 39.0784 14.0811 39.0784 15.738H42.0784ZM51.6704 15.738H54.6704C54.6704 14.0811 53.3273 12.738 51.6704 12.738V15.738ZM51.6704 18.07V21.07C53.3273 21.07 54.6704 19.7269 54.6704 18.07H51.6704ZM42.0784 18.07H39.0784C39.0784 19.7269 40.4216 21.07 42.0784 21.07V18.07ZM42.0784 18.738H51.6704V12.738H42.0784V18.738ZM48.6704 15.738V18.07H54.6704V15.738H48.6704ZM51.6704 15.07H42.0784V21.07H51.6704V15.07ZM45.0784 18.07V15.738H39.0784V18.07H45.0784ZM62.6794 25.352L62.7077 22.3521C62.6982 22.352 62.6888 22.352 62.6794 22.352V25.352ZM68.3334 11.184L70.4394 13.3205C71.6191 12.1577 71.633 10.2588 70.4706 9.07869L68.3334 11.184ZM66.7934 12.702L64.5032 14.6398C65.0427 15.2774 65.8236 15.6612 66.6579 15.6989C67.4923 15.7367 68.3046 15.4248 68.8994 14.8385L66.7934 12.702ZM66.7054 21.458L68.7189 19.2341C68.1226 18.6942 67.3343 18.4164 66.5312 18.4631C65.7281 18.5098 64.9774 18.8771 64.4476 19.4825L66.7054 21.458ZM68.3334 22.932L70.4706 25.0373C71.0443 24.4549 71.3555 23.6635 71.3322 22.8463C71.3088 22.0291 70.9529 21.2568 70.3469 20.7081L68.3334 22.932ZM62.6794 22.352C61.0817 22.352 59.8783 21.7846 59.0693 20.9458C58.2527 20.0989 57.6714 18.7994 57.6714 17.058H51.6714C51.6714 20.1786 52.7401 23.0261 54.7504 25.1107C56.7685 27.2034 59.569 28.352 62.6794 28.352V22.352ZM57.6714 17.058C57.6714 15.3029 58.2543 14.0055 59.0674 13.164C59.8734 12.3298 61.0761 11.764 62.6794 11.764V5.764C59.5747 5.764 56.7734 6.90321 54.7524 8.99499C52.7384 11.0795 51.6714 13.9291 51.6714 17.058H57.6714ZM62.6794 11.764C64.0181 11.764 65.2495 12.3283 66.1962 13.2893L70.4706 9.07869C68.5133 7.09174 65.7846 5.764 62.6794 5.764V11.764ZM66.2274 9.04747L64.6874 10.5655L68.8994 14.8385L70.4394 13.3205L66.2274 9.04747ZM69.0835 10.7642C67.5486 8.95017 65.1726 7.81 62.6574 7.81V13.81C63.3982 13.81 64.1021 14.1658 64.5032 14.6398L69.0835 10.7642ZM62.6574 7.81C60.1872 7.81 57.9479 8.75229 56.3515 10.5221C54.7794 12.265 54.0254 14.5879 54.0254 17.058H60.0254C60.0254 15.7881 60.4043 14.987 60.8068 14.5409C61.1849 14.1217 61.7616 13.81 62.6574 13.81V7.81ZM54.0254 17.058C54.0254 19.5281 54.7794 21.851 56.3515 23.5939C57.9479 25.3637 60.1872 26.306 62.6574 26.306V20.306C61.7616 20.306 61.1849 19.9943 60.8068 19.5751C60.4043 19.129 60.0254 18.3279 60.0254 17.058H54.0254ZM62.6574 26.306C65.3725 26.306 67.5476 25.0512 68.9631 23.4335L64.4476 19.4825C64.0152 19.9768 63.4183 20.306 62.6574 20.306V26.306ZM64.6918 23.6819L66.3198 25.1559L70.3469 20.7081L68.7189 19.2341L64.6918 23.6819ZM66.1962 20.8267C65.2158 21.8219 64.0952 22.3652 62.7077 22.3521L62.6511 28.3519C65.9275 28.3828 68.547 26.9901 70.4706 25.0373L66.1962 20.8267ZM73.5945 25V28C75.2513 28 76.5945 26.6569 76.5945 25H73.5945ZM71.2625 25H68.2625C68.2625 26.6569 69.6056 28 71.2625 28V25ZM71.2625 9.468V6.468C69.6056 6.468 68.2625 7.81115 68.2625 9.468H71.2625ZM73.5945 9.468H76.5945C76.5945 7.81115 75.2513 6.468 73.5945 6.468V9.468ZM73.5945 15.936H70.5945C70.5945 17.2156 71.406 18.3543 72.6156 18.7718C73.8251 19.1893 75.1663 18.7937 75.9556 17.7866L73.5945 15.936ZM80.6125 25V28C82.2693 28 83.6125 26.6569 83.6125 25H80.6125ZM78.2585 25H75.2585C75.2585 26.6569 76.6016 28 78.2585 28V25ZM81.2585 19.456C81.2585 18.1437 80.9467 16.7466 80.0918 15.596C79.1786 14.367 77.7751 13.618 76.1685 13.618V19.618C76.0331 19.618 75.8488 19.5855 75.658 19.4879C75.4695 19.3915 75.3449 19.2677 75.2757 19.1745C75.1522 19.0084 75.2585 19.0303 75.2585 19.456H81.2585ZM76.1685 13.618C72.5782 13.618 70.5945 16.8515 70.5945 19.676H76.5945C76.5945 19.4802 76.6602 19.4101 76.6388 19.4357C76.6256 19.4515 76.5814 19.498 76.493 19.5421C76.3996 19.5886 76.2848 19.618 76.1685 19.618V13.618ZM70.5945 19.676V25H76.5945V19.676H70.5945ZM73.5945 22H71.2625V28H73.5945V22ZM74.2625 25V9.468H68.2625V25H74.2625ZM71.2625 12.468H73.5945V6.468H71.2625V12.468ZM70.5945 9.468V15.936H76.5945V9.468H70.5945ZM75.9556 17.7866C75.9706 17.7676 75.9971 17.7387 76.0367 17.7064C76.0763 17.674 76.1201 17.6455 76.1629 17.6233C76.2063 17.6008 76.2365 17.5911 76.2471 17.5883C76.2588 17.5852 76.2325 17.594 76.1685 17.594V11.594C74.2356 11.594 72.3691 12.6362 71.2333 14.0854L75.9556 17.7866ZM76.1685 17.594C77.0019 17.594 77.6125 18.0791 77.6125 19.192H83.6125C83.6125 14.9809 80.527 11.594 76.1685 11.594V17.594ZM77.6125 19.192V25H83.6125V19.192H77.6125ZM80.6125 22H78.2585V28H80.6125V22ZM81.2585 25V19.456H75.2585V25H81.2585ZM92.5884 17.542L89.7794 18.5954C89.795 18.6369 89.8114 18.6781 89.8288 18.7189L92.5884 17.542ZM93.0284 20.886V23.886C94.6852 23.886 96.0284 22.5429 96.0284 20.886H93.0284ZM85.4604 20.886V17.886C84.5679 17.886 83.7218 18.2833 83.1518 18.9701C82.5819 19.6568 82.3473 20.5617 82.5118 21.4389L85.4604 20.886ZM90.8504 21.942L92.0748 19.2032C90.6667 18.5738 89.0108 19.1145 88.2456 20.4536L90.8504 21.942ZM92.7204 22.778L95.4804 23.9536C96.1216 22.4483 95.4384 20.707 93.9448 20.0392L92.7204 22.778ZM85.4604 19.038L82.515 18.4679C82.3449 19.3471 82.5764 20.2564 83.1463 20.9472C83.7162 21.6379 84.5649 22.038 85.4604 22.038V19.038ZM90.8284 19.038V22.038C91.7117 22.038 92.5501 21.6487 93.1201 20.974C93.6901 20.2992 93.9338 19.4076 93.7862 18.5367L90.8284 19.038ZM88.2324 22.242C87.5089 22.242 87.0425 21.9917 86.7511 21.6887C86.4517 21.3772 86.1724 20.8349 86.1724 19.984H80.1724C80.1724 22.2131 80.9381 24.2998 82.4261 25.8473C83.9222 27.4033 85.9859 28.242 88.2324 28.242V22.242ZM86.1724 19.984C86.1724 19.1166 86.4552 18.5688 86.7542 18.2569C87.0447 17.9539 87.5092 17.704 88.2324 17.704V11.704C85.9855 11.704 83.9201 12.5431 82.4231 14.1046C80.9345 15.6572 80.1724 17.7494 80.1724 19.984H86.1724ZM88.2324 17.704C88.6236 17.704 88.8754 17.7809 89.0373 17.8544C89.2071 17.9315 89.3461 18.0365 89.464 18.1568C89.7258 18.4239 89.8183 18.6992 89.7794 18.5954L95.3974 16.4886C95.2583 16.1177 93.5299 11.704 88.2324 11.704V17.704ZM89.8288 18.7189C89.9571 19.0197 90.0303 19.4232 90.0511 19.8536C90.0608 20.0544 90.0579 20.2332 90.052 20.3739C90.049 20.4442 90.0454 20.5047 90.0417 20.5626C90.0402 20.5858 90.0374 20.6286 90.0355 20.6619C90.0347 20.6763 90.0284 20.7757 90.0284 20.886H96.0284C96.0284 21.1636 96.2972 18.5912 95.3479 16.3651L89.8288 18.7189ZM93.0284 17.886H85.4604V23.886H93.0284V17.886ZM82.5118 21.4389C83.0336 24.222 85.4246 26.262 88.2324 26.262V20.262C88.4002 20.262 88.4152 20.366 88.409 20.3331L82.5118 21.4389ZM88.2324 26.262C91.4156 26.262 92.9573 24.3016 93.4551 23.4304L88.2456 20.4536C88.2777 20.3974 88.3054 20.359 88.3293 20.331C88.3538 20.3023 88.3786 20.2795 88.4035 20.2621C88.431 20.2428 88.447 20.2381 88.4399 20.2404C88.4332 20.2426 88.3711 20.262 88.2324 20.262V26.262ZM89.626 24.6808L91.496 25.5168L93.9448 20.0392L92.0748 19.2032L89.626 24.6808ZM89.9603 21.6024C89.9695 21.5809 89.6541 22.242 88.2324 22.242V28.242C91.8267 28.242 94.4593 26.3511 95.4804 23.9536L89.9603 21.6024ZM85.4604 22.038H90.8284V16.038H85.4604V22.038ZM93.7862 18.5367C93.6112 17.5043 93.1808 16.2736 92.2003 15.2738C91.1531 14.2059 89.7543 13.684 88.2324 13.684V19.684C88.3125 19.684 88.2849 19.6962 88.1934 19.6601C88.0963 19.6219 87.9963 19.5562 87.9164 19.4747C87.8425 19.3994 87.8192 19.345 87.8224 19.3522C87.827 19.3623 87.8503 19.42 87.8706 19.5393L93.7862 18.5367ZM88.2324 13.684C85.272 13.684 83.0296 15.8094 82.515 18.4679L88.4057 19.6081C88.4152 19.5592 88.4252 19.5794 88.3782 19.62C88.3558 19.6394 88.3264 19.6575 88.293 19.67C88.2769 19.676 88.2625 19.6797 88.2508 19.6818C88.2451 19.6829 88.2406 19.6834 88.2373 19.6837C88.234 19.684 88.2323 19.684 88.2324 19.684V13.684ZM102.31 21.964L104.431 19.8427C103.85 19.2607 103.054 18.9434 102.231 18.965C101.409 18.9867 100.631 19.3454 100.08 19.9571L102.31 21.964ZM103.916 23.57L106.134 25.5905C107.213 24.4058 107.171 22.5819 106.037 21.4487L103.916 23.57ZM103.916 16.398L106.023 18.5339C107.18 17.3924 107.218 15.5368 106.108 14.3493L103.916 16.398ZM102.31 17.982L100.08 19.9889C100.628 20.598 101.402 20.9563 102.221 20.9807C103.04 21.005 103.833 20.6933 104.417 20.1179L102.31 17.982ZM99.9561 26.042C101.649 26.042 103.397 25.2413 104.54 23.9709L100.08 19.9571C100.09 19.9464 100.086 19.953 100.063 19.9691C100.041 19.9849 100.011 20.0026 99.977 20.0182C99.9425 20.0338 99.9159 20.0416 99.903 20.0446C99.889 20.0479 99.9063 20.042 99.9561 20.042V26.042ZM100.189 24.0853L101.795 25.6913L106.037 21.4487L104.431 19.8427L100.189 24.0853ZM101.699 21.5495C101.383 21.8955 100.548 22.264 100.044 22.264V28.264C102.181 28.264 104.645 27.2245 106.134 25.5905L101.699 21.5495ZM100.044 22.264C99.2047 22.264 98.6563 21.9802 98.3257 21.6515C97.9957 21.3233 97.7201 20.7896 97.7201 19.984H91.7201C91.7201 22.2584 92.5446 24.3647 94.0956 25.9065C95.6459 27.4478 97.7596 28.264 100.044 28.264V22.264ZM97.7201 19.984C97.7201 19.1617 97.9995 18.6225 98.3288 18.2942C98.6585 17.9655 99.205 17.682 100.044 17.682V11.682C97.7593 11.682 95.6438 12.4985 94.0924 14.0453C92.5407 15.5925 91.7201 17.7043 91.7201 19.984H97.7201ZM100.044 17.682C100.552 17.682 101.313 18.0062 101.725 18.4467L106.108 14.3493C104.627 12.7658 102.308 11.682 100.044 11.682V17.682ZM101.81 14.2621L100.203 15.8461L104.417 20.1179L106.023 18.5339L101.81 14.2621ZM104.54 15.9751C103.397 14.7047 101.649 13.904 99.9561 13.904V19.904C99.9063 19.904 99.889 19.8981 99.903 19.9014C99.9159 19.9044 99.9425 19.9122 99.977 19.9278C100.011 19.9434 100.041 19.9611 100.063 19.9769C100.086 19.993 100.09 19.9996 100.08 19.9889L104.54 15.9751ZM99.9561 13.904C98.3646 13.904 96.8169 14.4754 95.676 15.678C94.5482 16.8668 94.0521 18.4227 94.0521 19.984H100.052C100.052 19.8275 100.076 19.7513 100.082 19.7364C100.085 19.7288 100.083 19.7344 100.074 19.7491C100.065 19.764 100.05 19.7847 100.029 19.8075C100.007 19.8305 99.9822 19.8515 99.9561 19.8692C99.93 19.8869 99.9073 19.8981 99.8913 19.9045C99.8573 19.9182 99.8712 19.904 99.9561 19.904V13.904ZM94.0521 19.984C94.0521 21.5433 94.5536 23.0938 95.6813 24.2764C96.8207 25.4712 98.3652 26.042 99.9561 26.042V20.042C99.8712 20.042 99.8564 20.0278 99.8889 20.0409C99.9042 20.047 99.9263 20.0578 99.9518 20.075C99.9773 20.0923 100.002 20.1129 100.023 20.1356C100.045 20.1583 100.06 20.1791 100.07 20.1947C100.079 20.2101 100.081 20.217 100.079 20.2114C100.075 20.2007 100.052 20.1311 100.052 19.984H94.0521ZM108.376 9.468H111.376C111.376 7.81115 110.033 6.468 108.376 6.468V9.468ZM108.376 19.038H105.376C105.376 20.2916 106.156 21.413 107.331 21.8499C108.506 22.2868 109.828 21.947 110.647 20.998L108.376 19.038ZM112.116 14.704V11.704C111.244 11.704 110.415 12.0837 109.845 12.744L112.116 14.704ZM115.262 14.704L117.522 16.6773C118.296 15.791 118.48 14.5342 117.993 13.463C117.507 12.3918 116.439 11.704 115.262 11.704V14.704ZM111.17 19.39L108.91 17.4167C108.008 18.4499 107.922 19.9634 108.7 21.0928L111.17 19.39ZM115.174 25.198V28.198C116.289 28.198 117.312 27.5799 117.83 26.5929C118.348 25.606 118.277 24.413 117.644 23.4952L115.174 25.198ZM112.336 25.198L109.875 26.9139C110.436 27.7185 111.355 28.198 112.336 28.198V25.198ZM109.498 21.128L111.959 19.4121C111.427 18.6489 110.571 18.1759 109.641 18.1314C108.712 18.087 107.815 18.4762 107.212 19.1851L109.498 21.128ZM108.376 22.448L106.09 20.5051C105.629 21.0475 105.376 21.7361 105.376 22.448H108.376ZM108.376 25.198V28.198C110.033 28.198 111.376 26.8549 111.376 25.198H108.376ZM106.044 25.198H103.044C103.044 26.8549 104.387 28.198 106.044 28.198V25.198ZM106.044 9.468V6.468C104.387 6.468 103.044 7.81115 103.044 9.468H106.044ZM105.376 9.468V19.038H111.376V9.468H105.376ZM110.647 20.998L114.387 16.664L109.845 12.744L106.105 17.078L110.647 20.998ZM112.116 17.704H115.262V11.704H112.116V17.704ZM113.002 12.7307L108.91 17.4167L113.43 21.3633L117.522 16.6773L113.002 12.7307ZM108.7 21.0928L112.704 26.9008L117.644 23.4952L113.64 17.6872L108.7 21.0928ZM115.174 22.198H112.336V28.198H115.174V22.198ZM114.797 23.4821L111.959 19.4121L107.037 22.8439L109.875 26.9139L114.797 23.4821ZM107.212 19.1851L106.09 20.5051L110.662 24.3909L111.784 23.0709L107.212 19.1851ZM105.376 22.448V25.198H111.376V22.448H105.376ZM108.376 22.198H106.044V28.198H108.376V22.198ZM109.044 25.198V9.468H103.044V25.198H109.044ZM106.044 12.468H108.376V6.468H106.044V12.468Z" fill="#E2F4DD" mask="url(#path-1-outside-1_1960_5595)"/>
<path d="M123 14.0743C123.103 13.7068 123.31 13.3772 123.597 13.1257C123.857 12.9132 124.176 12.7862 124.51 12.7622C124.845 12.7382 125.179 12.8184 125.466 12.9916C126.51 13.587 127.456 14.3407 128.269 15.226C129.265 16.2728 130.162 17.4105 130.946 18.6243C130.981 18.6771 131.019 18.7259 131.06 18.7807C131.432 18.084 131.779 17.3893 132.165 16.7149C134.375 12.8271 137.219 9.49586 140.908 6.93242C142.699 5.70051 144.64 4.70254 146.684 3.96274C147.854 3.53211 148.935 4.33242 148.963 5.36633C148.97 5.39738 148.983 5.42696 149 5.45367V5.50242C148.978 5.60196 148.959 5.70555 148.935 5.80102C148.878 6.08089 148.747 6.34042 148.556 6.55286C148.365 6.7653 148.121 6.92296 147.848 7.00961C146.003 7.65776 144.256 8.55655 142.656 9.68071C139.978 11.5878 137.695 13.9959 135.933 16.7718C134.649 18.724 133.613 20.8291 132.852 23.0382C132.764 23.3152 132.6 23.5621 132.379 23.7512C132.159 23.9403 131.89 24.0641 131.602 24.1087C131.558 24.1211 131.514 24.1367 131.472 24.1554H131.18C131.16 24.1432 131.141 24.1229 131.119 24.1188C130.836 24.0817 130.567 23.972 130.338 23.8005C130.11 23.629 129.93 23.4014 129.815 23.1398C128.965 21.4547 127.935 19.8665 126.744 18.4029C125.98 17.4827 125.169 16.6012 124.129 15.9898C123.593 15.6749 123.177 15.3113 123 14.706V14.0743Z" fill="#FE5663"/>
</svg>
