<svg width="54" height="34" viewBox="0 0 54 34" fill="none" xmlns="http://www.w3.org/2000/svg">
<g clip-path="url(#clip0_1319_711)">
<path fill-rule="evenodd" clip-rule="evenodd" d="M35.1576 -0.000161986C35.033 -0.000161986 34.9088 0.00117178 34.7848 0.00382567C32.9147 -0.0618932 30.9548 0.0862685 28.9624 0.47315C22.5444 1.71938 17.367 5.13604 14.8885 9.23936C14.5726 9.76231 13.9999 10.0819 13.3889 10.0819C7.099 10.0819 2 15.1809 2 21.4708C2 27.7608 7.099 32.8598 13.3889 32.8598C15.0161 32.8598 16.5635 32.5185 17.9636 31.9037C20.6691 30.7157 24.2274 30.5412 26.8037 31.9882C29.2735 33.3755 32.1232 34.1667 35.1576 34.1667C44.5925 34.1667 52.241 26.5181 52.241 17.0832C52.241 7.64834 44.5925 -0.000161986 35.1576 -0.000161986Z" fill="#00A42E"/>
<g clip-path="url(#clip1_1319_711)">
<path d="M7.57961 18.5508L9.89289 20.0856C10.2968 20.3537 10.7907 20.4503 11.2659 20.3543L11.2689 20.3537C11.7441 20.2575 12.1616 19.9765 12.4296 19.5725L20.3139 7.68968L20.5977 1.44122L14.9508 4.13124L7.06649 16.0141C6.79842 16.418 6.70179 16.9119 6.79786 17.3871L6.79847 17.3901C6.89463 17.8652 7.17562 18.2828 7.57961 18.5508Z" fill="#007120"/>
<path d="M13.1953 18.4159L12.4279 19.5726C12.1599 19.9765 11.7424 20.2575 11.2672 20.3537L11.2642 20.3543C10.7892 20.4504 10.2952 20.3537 9.89119 20.0857L7.57791 18.5508C7.17392 18.2828 6.89294 17.8653 6.79677 17.3901L6.79616 17.3871C6.70009 16.912 6.79672 16.4181 7.06479 16.0141L7.83222 14.8575L13.1953 18.4159Z" fill="#70C954"/>
<path d="M14.2422 16.833L13.1921 18.4157L7.82918 14.8573L8.87927 13.2747L14.2422 16.833Z" fill="#E2F4DD"/>
<path d="M17.6289 5.91016L11.5619 15.054L8.88016 13.2746L14.9471 4.13079L17.6289 5.91016Z" fill="#A0D476"/>
<path d="M20.3112 7.68968L20.4531 4.56545L17.7716 2.78623L14.9481 4.13124L20.3112 7.68968Z" fill="#FFE199"/>
<path d="M20.3086 7.68945L14.2416 16.8333L11.5599 15.0539L17.6268 5.91008L20.3086 7.68945Z" fill="#338D4D"/>
</g>
</g>
<defs>
<clipPath id="clip0_1319_711">
<rect width="54" height="34" fill="white"/>
</clipPath>
<clipPath id="clip1_1319_711">
<rect width="18.2045" height="18.2045" fill="white" transform="translate(24.8008 18.3906) rotate(168.564)"/>
</clipPath>
</defs>
</svg>
