<svg width="75" height="42" viewBox="0 0 75 42" fill="none" xmlns="http://www.w3.org/2000/svg">
<path fill-rule="evenodd" clip-rule="evenodd" d="M2.66269 8.77745C7.90898 0.161539 19.1603 -2.57849 27.7933 2.65743C32.573 5.55633 39.8259 7.16177 47.1636 2.68369C55.782 -2.57602 67.0409 0.132966 72.311 8.73438C77.5812 17.3358 74.8668 28.5724 66.2484 33.8321C43.9769 47.4241 21.6206 41.6373 8.79482 33.8584C0.161859 28.6225 -2.58359 17.3934 2.66269 8.77745Z" fill="#1E78FF"/>
<path d="M18.748 27.558H23.324V23.532H20.266V21.596H22.994V15.766H20.178V13.83H34.94V15.766H32.146V21.596H34.896V23.532H31.816V27.558H36.48V29.516H18.748V27.558ZM25.414 21.596H29.748V15.766H25.414V21.596ZM25.722 27.558H29.44V23.532H25.722V27.558ZM39.5825 13.082H54.0805V15.018H48.4925C48.7345 16.866 51.0445 18.626 54.7845 19.044L53.8825 20.98C50.4065 20.54 47.8545 18.978 46.8205 16.888C45.7865 18.978 43.2345 20.54 39.7585 20.98L38.8565 19.044C42.5965 18.626 44.9065 16.844 45.1485 15.018H39.5825V13.082ZM37.9545 24.016V22.08H55.6865V24.016H48.2285V27.58H45.8085V24.016H37.9545ZM40.0885 31.408V25.798H42.5085V29.472H53.7285V31.408H40.0885Z" fill="white"/>
</svg>
