<svg width="87" height="32" viewBox="0 0 87 32" fill="none" xmlns="http://www.w3.org/2000/svg">
<path d="M10 2C10 2.82843 9.32843 3.5 8.5 3.5C7.67157 3.5 7 2.82843 7 2C7 1.17157 7.67157 0.5 8.5 0.5C9.32843 0.5 10 1.17157 10 2Z" fill="#7F3394"/>
<path d="M27.5 2C27.5 2.82843 26.8284 3.5 26 3.5C25.1716 3.5 24.5 2.82843 24.5 2C24.5 1.17157 25.1716 0.5 26 0.5C26.8284 0.5 27.5 1.17157 27.5 2Z" fill="#7F3394"/>
<path d="M62 2.5C62 3.32843 61.3284 4 60.5 4C59.6716 4 59 3.32843 59 2.5C59 1.67157 59.6716 1 60.5 1C61.3284 1 62 1.67157 62 2.5Z" fill="#E54D90"/>
<path d="M79.5 2.5C79.5 3.32843 78.8284 4 78 4C77.1716 4 76.5 3.32843 76.5 2.5C76.5 1.67157 77.1716 1 78 1C78.8284 1 79.5 1.67157 79.5 2.5Z" fill="#E54D90"/>
<path d="M1.24 7.72H9.72V9.84H3.92V11.14H9.34V13.2H3.92V14.54C6.74 14.52 8.6 14.44 10.68 14.06L10.94 16.14C8.54 16.56 6.34 16.64 2.76 16.64H1.24V7.72ZM3.06 24.52V18H14.78V24.52H3.06ZM5.68 22.42H12.2V20.08H5.68V22.42ZM12.12 17.22V6.72H14.78V10.88H17.16V13.08H14.78V17.22H12.12ZM19.9405 7.74H32.4805V9.34C32.4805 11.04 32.4805 12.88 32.0405 15.4H34.3605V17.56H27.4805V24.74H24.8005V17.56H18.0805V15.4H29.3805C29.8205 13.16 29.8605 11.42 29.8605 9.86H19.9405V7.74ZM50.6409 23.24H46.9409L45.8409 22.06C44.7409 23 43.3609 23.68 41.6209 23.68C36.7609 23.68 36.4609 19.7 36.4609 19.1C36.4609 18.58 36.7009 16.34 38.8409 14.82C38.1809 14.12 37.5209 13.26 37.5209 11.94C37.5209 10.28 38.9209 8.08 41.6209 8.08C44.3009 8.08 45.8009 10.18 45.8009 11.94C45.8009 13.44 44.9009 14.52 43.3209 15.48L45.7209 18.06C46.0809 17.48 46.4209 16.84 46.7409 16.26L49.0809 17.56C48.7009 18.26 48.2409 19.16 47.6209 20.04L50.6409 23.24ZM39.1409 19.1C39.1409 19.52 39.2609 21 41.6209 21C42.5409 21 43.3209 20.66 43.9809 20.14L40.8009 16.76C39.3009 17.56 39.1409 18.78 39.1409 19.1ZM40.2009 11.94C40.2009 12.5 40.7409 12.88 41.4009 13.52C42.7009 12.9 43.1209 12.5 43.1209 11.94C43.1209 11.28 42.6409 10.76 41.6209 10.76C40.5009 10.76 40.2009 11.32 40.2009 11.94Z" fill="#7F3394"/>
<path d="M51.85 14.76H68.11V16.86H64.57V19.02C65.61 19.58 66.19 20.4 66.19 21.44C66.19 23.54 63.83 24.74 59.95 24.74C56.05 24.74 53.69 23.54 53.69 21.44C53.69 20.38 54.29 19.54 55.41 18.98V16.86H51.85V14.76ZM53.45 10.48C53.45 8.32 56.01 7 59.99 7C63.97 7 66.53 8.32 66.53 10.48C66.53 12.64 63.97 13.94 59.99 13.94C56.01 13.94 53.45 12.64 53.45 10.48ZM56.19 10.48C56.19 11.46 57.55 11.92 59.99 11.92C62.41 11.92 63.77 11.46 63.77 10.48C63.77 9.5 62.41 9.02 59.99 9.02C57.55 9.02 56.19 9.5 56.19 10.48ZM56.37 21.44C56.37 22.32 57.55 22.72 59.95 22.72C62.33 22.72 63.51 22.32 63.51 21.44C63.51 20.54 62.33 20.14 59.95 20.14C57.55 20.14 56.37 20.54 56.37 21.44ZM58.07 18.24C58.65 18.18 59.27 18.14 59.95 18.14C60.65 18.14 61.31 18.18 61.91 18.26V16.86H58.07V18.24ZM80.8305 6.72H83.5105V11H85.8705V13.18H83.5105V17.24H80.8305V6.72ZM69.3305 10.34V8.24H73.2905V6.56H75.9505V8.24H79.9105V10.34H69.3305ZM70.1905 13.96C70.1905 12.06 72.0105 10.78 74.6305 10.78C77.2505 10.78 79.0705 12.06 79.0705 13.96C79.0705 15.88 77.2505 17.16 74.6305 17.16C72.0105 17.16 70.1905 15.88 70.1905 13.96ZM71.7705 24.52V17.94H74.4105V19.26H80.8705V17.94H83.5105V24.52H71.7705ZM72.7505 13.96C72.7505 14.8 73.5105 15.24 74.6305 15.24C75.7305 15.24 76.4905 14.8 76.4905 13.96C76.4905 13.16 75.7305 12.72 74.6305 12.72C73.5105 12.72 72.7505 13.16 72.7505 13.96ZM74.4105 22.44H80.8705V21.24H74.4105V22.44Z" fill="#E54D90"/>
</svg>
