<svg width="91" height="44" viewBox="0 0 91 44" fill="none" xmlns="http://www.w3.org/2000/svg">
<rect x="7" y="3" width="77" height="38" rx="19" stroke="#78AEFF" stroke-width="2"/>
<path d="M39.706 12.18H42.126V16.954H44.766V18.956H42.126V23.708H39.706V12.18ZM26.55 21.75C28.002 21.75 29.696 21.75 31.456 21.706V20.694C29.3 20.474 27.958 19.572 27.958 18.186C27.958 16.58 29.784 15.612 32.622 15.612C35.504 15.612 37.33 16.58 37.33 18.186C37.33 19.572 36.01 20.452 33.854 20.694V21.618C35.526 21.53 37.176 21.398 38.738 21.2L38.914 22.674C34.778 23.4 30.224 23.444 26.814 23.444L26.55 21.75ZM27.056 15.15V13.5H31.456V12.004H33.854V13.5H38.21V15.15H27.056ZM29.168 26.106V24.5H42.126V28.746H31.588V29.978H42.83V31.606H29.19V27.228H39.75V26.106H29.168ZM30.246 18.186C30.246 18.868 31.148 19.242 32.622 19.242C34.14 19.242 35.042 18.868 35.042 18.186C35.042 17.504 34.14 17.13 32.622 17.13C31.148 17.13 30.246 17.504 30.246 18.186ZM45.9985 21.574H53.6325V19.726H48.1765V13.06H61.5305V14.996H50.5525V17.79H61.6625V19.726H56.0305V21.574H63.6865V23.51H45.9985V21.574ZM48.0225 28.218C48.0225 25.93 50.5745 24.654 54.7985 24.654C59.0005 24.654 61.5525 25.93 61.5525 28.218C61.5525 30.506 59.0005 31.782 54.7985 31.782C50.5745 31.782 48.0225 30.506 48.0225 28.218ZM50.4645 28.218C50.4645 29.384 52.0045 29.934 54.7985 29.934C57.5925 29.934 59.1105 29.384 59.1105 28.218C59.1105 27.096 57.5925 26.502 54.7985 26.502C52.0045 26.502 50.4645 27.096 50.4645 28.218Z" fill="#124899"/>
</svg>
