<svg width="118" height="34" viewBox="0 0 118 34" fill="none" xmlns="http://www.w3.org/2000/svg">
<path d="M0 17C0 7.61116 7.61116 0 17 0H101C110.389 0 118 7.61116 118 17C118 26.3888 110.389 34 101 34H17C7.61116 34 0 26.3888 0 17Z" fill="#007067"/>
<path d="M12 17C12 8.16344 19.1634 1 28 1H90C98.8366 1 106 8.16344 106 17C106 25.8366 98.8366 33 90 33H28C19.1634 33 12 25.8366 12 17Z" fill="#007067"/>
<path d="M37.24 11.86V7.8H39.44V19.22H37.24V17.14H34.66V15.38H37.24V13.6H34.7V11.86H37.24ZM24.7 9.56H28.62V7.66H30.84V9.56H34.56V11.28H24.7V9.56ZM25.6 15.32C25.6 14.68 25.7733 14.1133 26.12 13.62C26.4667 13.1133 26.9533 12.72 27.58 12.44C28.2067 12.16 28.9133 12.02 29.7 12.02C30.5 12.02 31.2133 12.16 31.84 12.44C32.4667 12.72 32.9533 13.1133 33.3 13.62C33.6467 14.1133 33.82 14.68 33.82 15.32C33.82 15.9733 33.6467 16.5533 33.3 17.06C32.9533 17.5667 32.4667 17.96 31.84 18.24C31.2133 18.52 30.5 18.66 29.7 18.66C28.9 18.66 28.1867 18.52 27.56 18.24C26.9467 17.96 26.4667 17.5667 26.12 17.06C25.7733 16.5533 25.6 15.9733 25.6 15.32ZM27.48 22.5C27.48 21.54 28.0133 20.7867 29.08 20.24C30.16 19.6933 31.6333 19.42 33.5 19.42C35.3667 19.42 36.84 19.6933 37.92 20.24C39 20.7867 39.54 21.54 39.54 22.5C39.54 23.4733 39 24.2333 37.92 24.78C36.84 25.3267 35.3667 25.6 33.5 25.6C31.6333 25.6 30.16 25.3267 29.08 24.78C28.0133 24.2333 27.48 23.4733 27.48 22.5ZM27.66 15.32C27.66 15.84 27.8467 16.2533 28.22 16.56C28.5933 16.8533 29.0867 17 29.7 17C30.3267 17 30.8267 16.8533 31.2 16.56C31.5867 16.2533 31.78 15.84 31.78 15.32C31.78 14.8133 31.5867 14.4133 31.2 14.12C30.8267 13.8267 30.3267 13.68 29.7 13.68C29.0867 13.68 28.5933 13.8267 28.22 14.12C27.8467 14.4133 27.66 14.8133 27.66 15.32ZM29.78 22.5C29.78 22.9667 30.1 23.32 30.74 23.56C31.3933 23.8 32.3133 23.92 33.5 23.92C34.6867 23.92 35.6 23.8 36.24 23.56C36.8933 23.32 37.22 22.9667 37.22 22.5C37.22 22.0333 36.9 21.6867 36.26 21.46C35.62 21.22 34.7 21.1 33.5 21.1C32.3 21.1 31.38 21.22 30.74 21.46C30.1 21.6867 29.78 22.0333 29.78 22.5ZM48.6205 8.78V10.36C48.6205 11.6133 48.9738 12.74 49.6805 13.74C50.3871 14.74 51.4071 15.4533 52.7405 15.88L51.5805 17.6C50.6471 17.28 49.8405 16.8133 49.1605 16.2C48.4938 15.5733 47.9671 14.8333 47.5805 13.98C47.1805 14.9667 46.6071 15.82 45.8605 16.54C45.1271 17.2467 44.2338 17.78 43.1805 18.14L42.0405 16.36C43.4405 15.8933 44.5205 15.1267 45.2805 14.06C46.0405 12.98 46.4205 11.7733 46.4205 10.44V8.78H48.6205ZM44.9205 22.18C44.9205 21.1 45.4605 20.26 46.5405 19.66C47.6205 19.06 49.1005 18.76 50.9805 18.76C52.8471 18.76 54.3138 19.06 55.3805 19.66C56.4605 20.26 57.0005 21.1 57.0005 22.18C57.0005 23.26 56.4671 24.1 55.4005 24.7C54.3338 25.3 52.8605 25.6 50.9805 25.6C49.1005 25.6 47.6205 25.3 46.5405 24.7C45.4605 24.1 44.9205 23.26 44.9205 22.18ZM47.1405 22.18C47.1405 22.74 47.4671 23.1667 48.1205 23.46C48.7871 23.7533 49.7405 23.9 50.9805 23.9C52.2071 23.9 53.1538 23.7533 53.8205 23.46C54.4871 23.1667 54.8205 22.74 54.8205 22.18C54.8205 21.62 54.4871 21.1933 53.8205 20.9C53.1538 20.6067 52.2071 20.46 50.9805 20.46C49.7405 20.46 48.7871 20.6067 48.1205 20.9C47.4671 21.1933 47.1405 21.62 47.1405 22.18ZM51.2405 11.24H54.7205V7.82H56.9205V18.28H54.7205V13.06H51.2405V11.24ZM72.2009 10.8V7.82H74.4009V18.74H72.2009V15.84H69.8409L69.9609 17.32C68.4676 17.5733 66.8876 17.74 65.2209 17.82C63.5676 17.8867 61.7809 17.92 59.8609 17.92L59.6409 16.12H61.6209V10.82H60.1009V9.04H69.4809V10.82H67.9209V15.88C68.5876 15.84 69.2209 15.78 69.8209 15.7V14.06H72.2009V12.54H69.8209V10.8H72.2009ZM62.4209 22.32C62.4209 21.28 62.9543 20.4733 64.0209 19.9C65.0876 19.3267 66.5676 19.04 68.4609 19.04C70.3409 19.04 71.8143 19.3267 72.8809 19.9C73.9476 20.4733 74.4809 21.28 74.4809 22.32C74.4809 23.36 73.9476 24.1667 72.8809 24.74C71.8143 25.3133 70.3409 25.6 68.4609 25.6C66.5676 25.6 65.0876 25.3133 64.0209 24.74C62.9543 24.1667 62.4209 23.36 62.4209 22.32ZM63.7609 16.08C64.6943 16.0533 65.3809 16.0267 65.8209 16V10.82H63.7609V16.08ZM64.6009 22.32C64.6009 22.84 64.9276 23.24 65.5809 23.52C66.2476 23.8 67.2076 23.94 68.4609 23.94C69.6876 23.94 70.6343 23.8 71.3009 23.52C71.9676 23.24 72.3009 22.84 72.3009 22.32C72.3009 21.8 71.9676 21.4067 71.3009 21.14C70.6476 20.86 69.7009 20.72 68.4609 20.72C67.2076 20.72 66.2476 20.86 65.5809 21.14C64.9276 21.4067 64.6009 21.8 64.6009 22.32ZM90.9614 7.78V14.76H93.5814V16.58H90.9614V25.6H88.7414V7.78H90.9614ZM77.0414 20.74C79.1881 19.6333 80.8414 18.3133 82.0014 16.78C83.1614 15.2467 83.8481 13.4667 84.0614 11.44H77.9814V9.66H86.2814C86.2814 15.4733 83.6147 19.72 78.2814 22.4L77.0414 20.74Z" fill="white"/>
</svg>
