<svg width="111" height="28" viewBox="0 0 111 28" fill="none" xmlns="http://www.w3.org/2000/svg">
<rect width="111" height="28" rx="10" fill="#F4A100"/>
<path d="M25.7119 6.276H29.2399V8.058H19.6819V6.276H23.2459V5.16H25.7119V6.276ZM20.0599 10.542C20.0599 9.912 20.3479 9.444 20.8879 9.12C21.6439 8.652 22.8679 8.436 24.4519 8.436C26.0359 8.436 27.2599 8.652 28.0159 9.12C28.5559 9.444 28.8439 9.912 28.8439 10.542C28.8439 11.154 28.5559 11.64 28.0159 11.964C27.4759 12.306 26.7019 12.504 25.7119 12.576V13.206H27.8179C29.1859 13.206 29.9779 13.044 30.5359 12.63V5.646H33.0019V9.516H35.3419V11.658H33.0019V15.222H30.5359V14.322C29.9599 14.79 28.9879 15.024 27.1519 15.024H19.4839V13.206H23.2459V12.576C22.2379 12.504 21.4459 12.306 20.8879 11.964C20.3479 11.64 20.0599 11.154 20.0599 10.542ZM22.3819 10.542C22.3819 10.65 22.4719 10.74 22.5799 10.812C22.9039 10.974 23.6239 10.992 24.4519 10.992C25.2799 10.992 25.9999 10.974 26.3239 10.812C26.4319 10.74 26.5039 10.65 26.5039 10.542C26.5039 10.416 26.4319 10.326 26.3239 10.272C25.9999 10.092 25.2799 10.074 24.4519 10.074C23.6239 10.074 22.9039 10.092 22.5799 10.272C22.4719 10.326 22.3819 10.416 22.3819 10.542ZM23.1739 20.568H33.1999V22.35H20.7079V18.174H30.5359V17.508H20.7079V15.762H33.0019V19.902H23.1739V20.568ZM40.2912 7.914V9.786H50.7132V11.82H45.4032V13.098H51.6492V15.204H36.7812V13.098H42.9552V11.82H37.8252V5.844H50.6052V7.914H40.2912ZM37.5372 19.362C37.5372 18.246 38.0412 17.49 38.9592 16.968C40.1292 16.32 41.9652 16.086 44.2332 16.086C46.5012 16.086 48.3372 16.32 49.5072 16.968C50.4432 17.49 50.9292 18.246 50.9292 19.362C50.9292 20.478 50.4432 21.234 49.5072 21.738C48.3372 22.404 46.5012 22.638 44.2332 22.638C41.9652 22.638 40.1292 22.404 38.9592 21.738C38.0412 21.234 37.5372 20.478 37.5372 19.362ZM40.0032 19.362C40.0032 19.686 40.1652 19.938 40.4892 20.1C41.1552 20.46 42.3972 20.55 44.2332 20.55C46.0692 20.55 47.3112 20.46 47.9772 20.1C48.3012 19.938 48.4632 19.686 48.4632 19.362C48.4632 19.038 48.3012 18.786 47.9772 18.606C47.3112 18.264 46.0692 18.156 44.2332 18.156C42.3972 18.156 41.1552 18.264 40.4892 18.606C40.1652 18.786 40.0032 19.038 40.0032 19.362ZM65.4895 8.31V5.844H67.9015V14.574H59.6755V5.844H62.0875V8.31H65.4895ZM65.4895 10.398H62.0875V12.486H65.4895V10.398ZM72.8515 9.282H75.1375V11.442H72.8515V15.276H70.3855V5.646H72.8515V9.282ZM60.3775 19.038C60.3775 17.832 60.9175 17.004 61.8175 16.464C62.9875 15.762 64.8055 15.528 66.8035 15.528C68.8015 15.528 70.6195 15.762 71.7895 16.464C72.6895 17.004 73.2295 17.832 73.2295 19.038C73.2295 20.226 72.6895 21.054 71.7895 21.594C70.6195 22.296 68.8015 22.53 66.8035 22.53C64.8055 22.53 62.9875 22.296 61.8175 21.594C60.9175 21.054 60.3775 20.226 60.3775 19.038ZM62.8435 19.038C62.8435 19.38 63.0055 19.668 63.3295 19.884C63.9775 20.28 65.1835 20.442 66.8035 20.442C68.4235 20.442 69.6295 20.28 70.2775 19.884C70.6015 19.668 70.7635 19.38 70.7635 19.038C70.7635 18.678 70.6015 18.39 70.2775 18.174C69.6295 17.778 68.4235 17.616 66.8035 17.616C65.1835 17.616 63.9775 17.778 63.3295 18.174C63.0055 18.39 62.8435 18.678 62.8435 19.038ZM82.9668 8.112V5.844H85.3788V9.03H88.0968V5.646H90.5628V14.7H88.0968V11.154H85.3788V14.196H77.1528V5.844H79.5648V8.112H82.9668ZM82.9668 10.218H79.5648V12.09H82.9668V10.218ZM88.0968 15.276H90.5628V22.35H78.1068V15.276H80.5728V16.896H88.0968V15.276ZM80.5728 18.984V20.244H88.0968V18.984H80.5728Z" fill="white"/>
</svg>
