<svg width="147" height="34" viewBox="0 0 147 34" fill="none" xmlns="http://www.w3.org/2000/svg">
<g clip-path="url(#clip0_1960_5556)">
<mask id="mask0_1960_5556" style="mask-type:luminance" maskUnits="userSpaceOnUse" x="0" y="1" width="32" height="32">
<path d="M0 1H32V33H0V1Z" fill="white"/>
</mask>
<g mask="url(#mask0_1960_5556)">
<path d="M31.1576 20.3693C31.1576 26.6481 24.3711 30.4746 15.9997 30.4746C7.62832 30.4746 0.841797 26.6481 0.841797 20.3693C0.841797 14.0906 7.62832 7.73777 15.9997 7.73777C24.3711 7.73777 31.1576 14.0906 31.1576 20.3693Z" fill="#C6E5B3"/>
<path d="M27.5828 12.5177C28.1731 12.0452 28.6495 11.4459 28.9768 10.7643C29.304 10.0827 29.4738 9.33618 29.4734 8.58006C29.4715 7.33807 29.0121 6.1403 28.183 5.21556C27.3539 4.29081 26.2132 3.70389 24.9788 3.56691C23.7444 3.42992 22.5027 3.75248 21.4911 4.47295C20.4794 5.19343 19.7686 6.26134 19.4944 7.47269C18.3773 7.05163 17.1935 6.83541 15.9997 6.83438C14.766 6.83438 13.5904 7.06596 12.5058 7.47269C12.2544 6.35342 11.6296 5.35302 10.7341 4.636C9.83862 3.91898 8.7258 3.52803 7.57864 3.52743C6.2386 3.52743 4.95344 4.05976 4.00589 5.00731C3.05834 5.95486 2.52601 7.24002 2.52601 8.58006C2.52601 10.1725 3.26538 11.5914 4.41653 12.5177C2.18917 14.7746 0.841797 17.578 0.841797 20.3695C0.841797 26.6483 7.62832 21.2116 15.9997 21.2116C24.3719 21.2116 31.1576 26.6483 31.1576 20.3695C31.1576 17.578 29.8111 14.7746 27.5828 12.5177Z" fill="#77B255"/>
<path d="M10.1047 8.1581C10.1047 8.93979 9.79417 9.68947 9.24143 10.2422C8.68869 10.7949 7.93902 11.1055 7.15733 11.1055C6.37564 11.1055 5.62596 10.7949 5.07323 10.2422C4.52049 9.68947 4.20996 8.93979 4.20996 8.1581C4.20996 7.37641 4.52049 6.62673 5.07323 6.074C5.62596 5.52126 6.37564 5.21073 7.15733 5.21073C7.93902 5.21073 8.68869 5.52126 9.24143 6.074C9.79417 6.62673 10.1047 7.37641 10.1047 8.1581Z" fill="white"/>
<path d="M8.42042 8.15889C8.42482 8.32746 8.39544 8.4952 8.33399 8.65223C8.27254 8.80926 8.18027 8.9524 8.06263 9.0732C7.94498 9.19401 7.80434 9.29003 7.64899 9.35562C7.49364 9.4212 7.32673 9.45502 7.15811 9.45508C6.98949 9.45513 6.82256 9.42143 6.66717 9.35595C6.51177 9.29046 6.37107 9.19453 6.25334 9.07381C6.13561 8.95308 6.04325 8.81 5.9817 8.65302C5.92014 8.49603 5.89064 8.3283 5.89494 8.15973C5.90333 7.83048 6.04 7.51752 6.2758 7.28757C6.51161 7.05762 6.8279 6.92887 7.15727 6.92876C7.48663 6.92865 7.80301 7.05719 8.03897 7.28698C8.27493 7.51677 8.4118 7.82964 8.42042 8.15889Z" fill="#292F33"/>
<path d="M27.7893 8.1581C27.7893 8.93979 27.4787 9.68947 26.926 10.2422C26.3733 10.7949 25.6236 11.1055 24.8419 11.1055C24.0602 11.1055 23.3105 10.7949 22.7578 10.2422C22.2051 9.68947 21.8945 8.93979 21.8945 8.1581C21.8945 7.37641 22.2051 6.62673 22.7578 6.074C23.3105 5.52126 24.0602 5.21073 24.8419 5.21073C25.6236 5.21073 26.3733 5.52126 26.926 6.074C27.4787 6.62673 27.7893 7.37641 27.7893 8.1581Z" fill="white"/>
<path d="M26.1054 8.15872C26.1054 8.49373 25.9723 8.81502 25.7354 9.0519C25.4986 9.28879 25.1773 9.42188 24.8423 9.42188C24.5072 9.42188 24.186 9.28879 23.9491 9.0519C23.7122 8.81502 23.5791 8.49373 23.5791 8.15872C23.5791 7.82371 23.7122 7.50242 23.9491 7.26553C24.186 7.02864 24.5072 6.89556 24.8423 6.89556C25.1773 6.89556 25.4986 7.02864 25.7354 7.26553C25.9723 7.50242 26.1054 7.82371 26.1054 8.15872Z" fill="#292F33"/>
<path d="M13.4733 18.6852C13.4733 18.9086 13.3846 19.1228 13.2266 19.2807C13.0687 19.4386 12.8545 19.5273 12.6312 19.5273C12.4078 19.5273 12.1936 19.4386 12.0357 19.2807C11.8778 19.1228 11.7891 18.9086 11.7891 18.6852C11.7891 18.4619 11.8778 18.2477 12.0357 18.0898C12.1936 17.9319 12.4078 17.8431 12.6312 17.8431C12.8545 17.8431 13.0687 17.9319 13.2266 18.0898C13.3846 18.2477 13.4733 18.4619 13.4733 18.6852ZM20.2101 18.6852C20.2101 18.9086 20.1214 19.1228 19.9635 19.2807C19.8055 19.4386 19.5914 19.5273 19.368 19.5273C19.1447 19.5273 18.9305 19.4386 18.7726 19.2807C18.6146 19.1228 18.5259 18.9086 18.5259 18.6852C18.5259 18.4619 18.6146 18.2477 18.7726 18.0898C18.9305 17.9319 19.1447 17.8431 19.368 17.8431C19.5914 17.8431 19.8055 17.9319 19.9635 18.0898C20.1214 18.2477 20.2101 18.4619 20.2101 18.6852Z" fill="#5C913B"/>
</g>
</g>
<path d="M55.336 16.662C55.336 17.212 55.314 17.85 55.314 18.07C55.314 22.624 52.212 25.286 47.702 25.352C42.972 25.352 39.628 21.92 39.628 17.058C39.628 12.196 42.972 8.786 47.702 8.786C52.784 8.786 54.566 12.702 54.566 12.702L52.564 13.736C52.564 13.736 51.288 10.832 47.702 10.832C44.27 10.832 41.96 13.34 41.96 17.058C41.96 20.798 44.27 23.306 47.702 23.306C50.65 23.218 53.004 21.788 53.026 18.598H47.966V16.662H55.336ZM62.5312 25.242C59.5612 25.242 57.4712 23.064 57.4712 19.984C57.4712 16.882 59.5612 14.704 62.5312 14.704C65.7872 14.704 66.8212 17.366 66.8872 17.542C67.5252 19.038 67.3272 20.71 67.3272 20.886H59.7592C60.0232 22.294 61.2112 23.262 62.5312 23.262C64.2692 23.262 64.9732 22.25 65.1492 21.942L67.0192 22.778C66.5132 23.966 65.0392 25.242 62.5312 25.242ZM59.7592 19.038H65.1272C64.9072 17.74 64.1592 16.684 62.5312 16.684C61.1232 16.684 60.0232 17.674 59.7592 19.038ZM70.6819 25.198V16.706H68.7019V14.682H70.6819V11.008H73.0139V14.682H75.4999V16.706H73.0139V25.198H70.6819ZM89.5056 17.036C91.2876 17.036 92.4976 15.87 92.4976 14C92.4976 12.13 91.2876 10.986 89.5056 10.986H85.9636V17.036H89.5056ZM83.6316 25.176V8.94H89.7916C92.7616 8.94 94.8296 10.964 94.8296 13.956C94.8516 16.068 93.7076 17.872 91.2656 18.752L95.5996 25.176H92.7836L88.6696 19.082H85.9636V25.176H83.6316ZM102.191 25.242C99.2214 25.242 97.1314 23.064 97.1314 19.984C97.1314 16.882 99.2214 14.704 102.191 14.704C105.447 14.704 106.481 17.366 106.547 17.542C107.185 19.038 106.987 20.71 106.987 20.886H99.4194C99.6834 22.294 100.871 23.262 102.191 23.262C103.929 23.262 104.633 22.25 104.809 21.942L106.679 22.778C106.173 23.966 104.699 25.242 102.191 25.242ZM99.4194 19.038H104.787C104.567 17.74 103.819 16.684 102.191 16.684C100.783 16.684 99.6834 17.674 99.4194 19.038ZM114.113 25.286C111.209 25.286 109.141 23.086 109.141 20.006C109.141 16.926 111.209 14.726 114.113 14.726C115.147 14.726 116.291 15.21 117.127 16.2V14.704H119.459V25.198H117.127V23.79C116.291 24.846 115.147 25.286 114.113 25.286ZM111.473 20.006C111.473 21.986 112.595 23.306 114.267 23.306C115.807 23.306 117.127 21.92 117.149 20.006C117.127 18.092 115.807 16.706 114.267 16.706C112.595 16.706 111.473 18.004 111.473 20.006ZM127.047 25.286C124.143 25.286 122.053 23.086 122.053 19.984C122.053 16.882 124.143 14.682 127.047 14.682C127.905 14.682 129.203 15.056 130.105 16.244V9.468H132.437V25.198H130.105V23.724C129.181 24.846 127.905 25.286 127.047 25.286ZM124.385 20.006C124.385 22.008 125.507 23.328 127.201 23.328C128.785 23.328 130.105 21.876 130.105 20.006C130.105 18.158 128.785 16.684 127.201 16.684C125.507 16.684 124.385 18.004 124.385 20.006ZM139.407 29.752H136.855L139.143 24.318L134.919 14.704H137.493L140.375 21.656L143.147 14.704H145.677L141.761 24.142L139.407 29.752Z" fill="#00A42E"/>
<defs>
<clipPath id="clip0_1960_5556">
<rect width="32" height="32" fill="white" transform="translate(0 1)"/>
</clipPath>
</defs>
</svg>
