<svg width="162" height="36" viewBox="0 0 162 36" fill="none" xmlns="http://www.w3.org/2000/svg">
<path d="M27.1292 17.1811C21.0884 17.1811 16.1811 22.0884 16.1811 28.1292C16.1811 28.1758 16.15 28.2069 16.1034 28.2069C16.0569 28.2069 16.0258 28.1758 16.0258 28.1292C16.0258 22.0884 11.1185 17.1811 5.07765 17.1811C5.03106 17.1811 5 17.15 5 17.1034C5 17.0569 5.03106 17.0258 5.07765 17.0258C11.1185 17.0258 16.0258 12.1185 16.0258 6.07765C16.0258 6.03106 16.0569 6 16.1034 6C16.15 6 16.1811 6.03106 16.1811 6.07765C16.1811 12.1185 21.0884 17.0258 27.1292 17.0258C27.1758 17.0258 27.2069 17.0569 27.2069 17.1034C27.2069 17.15 27.1758 17.1811 27.1292 17.1811Z" fill="#E54D90"/>
<path d="M20.2639 7.81818C22.3199 7.81818 23.9842 6.15385 23.9842 4.0979C23.9842 4.03916 24.0234 4 24.0821 4C24.1408 4 24.18 4.03916 24.18 4.0979C24.18 6.15385 25.8443 7.81818 27.9003 7.81818C27.959 7.81818 27.9982 7.85734 27.9982 7.91608C27.9982 7.97483 27.959 8.01399 27.9003 8.01399C25.8443 8.01399 24.18 9.67832 24.18 11.7343C24.18 11.793 24.1408 11.8322 24.0821 11.8322C24.0234 11.8322 23.9842 11.793 23.9842 11.7343C23.9842 9.67832 22.3199 8.01399 20.2639 8.01399C20.2052 8.01399 20.166 7.97483 20.166 7.91608C20.166 7.85734 20.2052 7.81818 20.2639 7.81818Z" fill="#C59BFF"/>
<path d="M9.58621 25.5C7.6 25.5 6 26.9 6 28.6379C6 28.7103 5.94483 28.7586 5.86207 28.7586C5.77931 28.7586 5.72414 28.7103 5.72414 28.6379C5.72414 26.9 4.12414 25.5 2.13793 25.5C2.05517 25.5 2 25.4517 2 25.3793C2 25.3069 2.05517 25.2586 2.13793 25.2586C4.12414 25.2586 5.72414 23.8586 5.72414 22.1207C5.72414 22.0483 5.77931 22 5.86207 22C5.94483 22 6 22.0483 6 22.1207C6 23.8586 7.6 25.2586 9.58621 25.2586C9.66897 25.2586 9.72414 25.3069 9.72414 25.3793C9.72414 25.4517 9.66897 25.5 9.58621 25.5Z" fill="#FF3B4B"/>
<mask id="path-4-outside-1_9954_40641" maskUnits="userSpaceOnUse" x="34" y="8" width="128" height="24" fill="black">
<rect fill="white" x="34" y="8" width="128" height="24"/>
<path d="M46.342 12.272H38.466V16.804H45.176V19.246H38.466V26.286H35.628V9.83H46.342V12.272ZM50.9259 21.578C50.9259 22.3553 51.1239 22.9493 51.5199 23.36C51.9159 23.7707 52.4586 23.976 53.1479 23.976C53.8372 23.976 54.3799 23.756 54.7759 23.316C55.1719 22.876 55.3626 22.2673 55.3479 21.49V15.594H58.1859V26.308H55.3479V25.032C55.0252 25.4573 54.6072 25.78 54.0939 26C53.5952 26.2347 53.0746 26.352 52.5319 26.352C51.6666 26.352 50.8966 26.1613 50.2219 25.78C49.5472 25.384 49.0192 24.834 48.6379 24.13C48.2712 23.4113 48.0879 22.5753 48.0879 21.622V15.594H50.9259V21.578ZM68.3454 20.654C68.3454 19.8033 68.1548 19.1507 67.7734 18.696C67.4068 18.2413 66.8641 18.014 66.1454 18.014C65.5001 18.0287 64.9648 18.278 64.5394 18.762C64.1141 19.2313 63.9088 19.862 63.9234 20.654V26.308H61.0854V15.594H63.9234V17.112C64.2608 16.6573 64.6861 16.298 65.1994 16.034C65.7128 15.77 66.2261 15.638 66.7394 15.638C67.3994 15.638 68.0668 15.792 68.7414 16.1C69.4308 16.408 70.0101 16.936 70.4794 17.684C70.9488 18.4173 71.1834 19.3927 71.1834 20.61V26.308H68.3454V20.654Z"/>
<path d="M94.4438 26.286H91.4298L89.8678 21.974H83.5098L81.8818 26.286H78.8678L85.0058 9.83H88.4378L94.4438 26.286ZM88.9658 19.532L86.7218 13.372L84.4118 19.532H88.9658ZM99.9909 23.668C100.343 23.668 100.717 23.5727 101.113 23.382C101.509 23.1913 101.846 22.9347 102.125 22.612L104.017 24.592C103.577 25.1053 102.976 25.5307 102.213 25.868C101.465 26.1907 100.746 26.352 100.057 26.352C99.0156 26.352 98.0842 26.1247 97.2629 25.67C96.4416 25.2007 95.7962 24.5627 95.3269 23.756C94.8722 22.9347 94.6449 22.0033 94.6449 20.962C94.6449 19.9207 94.8722 18.9893 95.3269 18.168C95.7962 17.3467 96.4416 16.7087 97.2629 16.254C98.0842 15.7993 99.0156 15.572 100.057 15.572C100.79 15.572 101.509 15.7333 102.213 16.056C102.917 16.364 103.518 16.7893 104.017 17.332L102.125 19.29C101.832 18.9673 101.487 18.718 101.091 18.542C100.71 18.3513 100.343 18.256 99.9909 18.256C99.2136 18.256 98.5976 18.498 98.1429 18.982C97.7029 19.466 97.4829 20.126 97.4829 20.962C97.4829 21.798 97.7029 22.458 98.1429 22.942C98.5976 23.426 99.2136 23.668 99.9909 23.668ZM107.309 17.992H105.219V15.55H107.309V11.766H110.147V15.55H112.677V17.992H110.147V26.308H107.309V17.992ZM118.005 15.572V26.286H115.167V15.572H118.005ZM115.057 11.7C115.057 11.26 115.196 10.9007 115.475 10.622C115.768 10.3287 116.142 10.182 116.597 10.182C117.037 10.182 117.396 10.3287 117.675 10.622C117.968 10.9007 118.115 11.26 118.115 11.7C118.115 12.1547 117.968 12.5287 117.675 12.822C117.396 13.1007 117.037 13.24 116.597 13.24C116.142 13.24 115.768 13.1007 115.475 12.822C115.196 12.5287 115.057 12.1547 115.057 11.7ZM127.253 26.308H124.877L120.367 15.594H123.447L126.065 22.502L128.727 15.594H131.851L127.253 26.308ZM136.975 15.572V26.286H134.137V15.572H136.975ZM134.027 11.7C134.027 11.26 134.167 10.9007 134.445 10.622C134.739 10.3287 135.113 10.182 135.567 10.182C136.007 10.182 136.367 10.3287 136.645 10.622C136.939 10.9007 137.085 11.26 137.085 11.7C137.085 12.1547 136.939 12.5287 136.645 12.822C136.367 13.1007 136.007 13.24 135.567 13.24C135.113 13.24 134.739 13.1007 134.445 12.822C134.167 12.5287 134.027 12.1547 134.027 11.7ZM141.577 17.992H139.487V15.55H141.577V11.766H144.415V15.55H146.945V17.992H144.415V26.308H141.577V17.992ZM150.469 30.774L152.867 25.164L148.577 15.594H151.701L154.363 22.018L156.937 15.594H160.017L156.035 25.01L153.571 30.774H150.469Z"/>
</mask>
<path d="M46.342 12.272H38.466V16.804H45.176V19.246H38.466V26.286H35.628V9.83H46.342V12.272ZM50.9259 21.578C50.9259 22.3553 51.1239 22.9493 51.5199 23.36C51.9159 23.7707 52.4586 23.976 53.1479 23.976C53.8372 23.976 54.3799 23.756 54.7759 23.316C55.1719 22.876 55.3626 22.2673 55.3479 21.49V15.594H58.1859V26.308H55.3479V25.032C55.0252 25.4573 54.6072 25.78 54.0939 26C53.5952 26.2347 53.0746 26.352 52.5319 26.352C51.6666 26.352 50.8966 26.1613 50.2219 25.78C49.5472 25.384 49.0192 24.834 48.6379 24.13C48.2712 23.4113 48.0879 22.5753 48.0879 21.622V15.594H50.9259V21.578ZM68.3454 20.654C68.3454 19.8033 68.1548 19.1507 67.7734 18.696C67.4068 18.2413 66.8641 18.014 66.1454 18.014C65.5001 18.0287 64.9648 18.278 64.5394 18.762C64.1141 19.2313 63.9088 19.862 63.9234 20.654V26.308H61.0854V15.594H63.9234V17.112C64.2608 16.6573 64.6861 16.298 65.1994 16.034C65.7128 15.77 66.2261 15.638 66.7394 15.638C67.3994 15.638 68.0668 15.792 68.7414 16.1C69.4308 16.408 70.0101 16.936 70.4794 17.684C70.9488 18.4173 71.1834 19.3927 71.1834 20.61V26.308H68.3454V20.654Z" fill="#B90AA7"/>
<path d="M94.4438 26.286H91.4298L89.8678 21.974H83.5098L81.8818 26.286H78.8678L85.0058 9.83H88.4378L94.4438 26.286ZM88.9658 19.532L86.7218 13.372L84.4118 19.532H88.9658ZM99.9909 23.668C100.343 23.668 100.717 23.5727 101.113 23.382C101.509 23.1913 101.846 22.9347 102.125 22.612L104.017 24.592C103.577 25.1053 102.976 25.5307 102.213 25.868C101.465 26.1907 100.746 26.352 100.057 26.352C99.0156 26.352 98.0842 26.1247 97.2629 25.67C96.4416 25.2007 95.7962 24.5627 95.3269 23.756C94.8722 22.9347 94.6449 22.0033 94.6449 20.962C94.6449 19.9207 94.8722 18.9893 95.3269 18.168C95.7962 17.3467 96.4416 16.7087 97.2629 16.254C98.0842 15.7993 99.0156 15.572 100.057 15.572C100.79 15.572 101.509 15.7333 102.213 16.056C102.917 16.364 103.518 16.7893 104.017 17.332L102.125 19.29C101.832 18.9673 101.487 18.718 101.091 18.542C100.71 18.3513 100.343 18.256 99.9909 18.256C99.2136 18.256 98.5976 18.498 98.1429 18.982C97.7029 19.466 97.4829 20.126 97.4829 20.962C97.4829 21.798 97.7029 22.458 98.1429 22.942C98.5976 23.426 99.2136 23.668 99.9909 23.668ZM107.309 17.992H105.219V15.55H107.309V11.766H110.147V15.55H112.677V17.992H110.147V26.308H107.309V17.992ZM118.005 15.572V26.286H115.167V15.572H118.005ZM115.057 11.7C115.057 11.26 115.196 10.9007 115.475 10.622C115.768 10.3287 116.142 10.182 116.597 10.182C117.037 10.182 117.396 10.3287 117.675 10.622C117.968 10.9007 118.115 11.26 118.115 11.7C118.115 12.1547 117.968 12.5287 117.675 12.822C117.396 13.1007 117.037 13.24 116.597 13.24C116.142 13.24 115.768 13.1007 115.475 12.822C115.196 12.5287 115.057 12.1547 115.057 11.7ZM127.253 26.308H124.877L120.367 15.594H123.447L126.065 22.502L128.727 15.594H131.851L127.253 26.308ZM136.975 15.572V26.286H134.137V15.572H136.975ZM134.027 11.7C134.027 11.26 134.167 10.9007 134.445 10.622C134.739 10.3287 135.113 10.182 135.567 10.182C136.007 10.182 136.367 10.3287 136.645 10.622C136.939 10.9007 137.085 11.26 137.085 11.7C137.085 12.1547 136.939 12.5287 136.645 12.822C136.367 13.1007 136.007 13.24 135.567 13.24C135.113 13.24 134.739 13.1007 134.445 12.822C134.167 12.5287 134.027 12.1547 134.027 11.7ZM141.577 17.992H139.487V15.55H141.577V11.766H144.415V15.55H146.945V17.992H144.415V26.308H141.577V17.992ZM150.469 30.774L152.867 25.164L148.577 15.594H151.701L154.363 22.018L156.937 15.594H160.017L156.035 25.01L153.571 30.774H150.469Z" fill="#4C58BA"/>
<path d="M46.342 12.272V13.272C46.8943 13.272 47.342 12.8243 47.342 12.272H46.342ZM38.466 12.272V11.272C37.9137 11.272 37.466 11.7197 37.466 12.272H38.466ZM38.466 16.804H37.466C37.466 17.3563 37.9137 17.804 38.466 17.804V16.804ZM45.176 16.804H46.176C46.176 16.2517 45.7283 15.804 45.176 15.804V16.804ZM45.176 19.246V20.246C45.7283 20.246 46.176 19.7983 46.176 19.246H45.176ZM38.466 19.246V18.246C37.9137 18.246 37.466 18.6937 37.466 19.246H38.466ZM38.466 26.286V27.286C39.0183 27.286 39.466 26.8383 39.466 26.286H38.466ZM35.628 26.286H34.628C34.628 26.8383 35.0757 27.286 35.628 27.286V26.286ZM35.628 9.83V8.83C35.0757 8.83 34.628 9.27771 34.628 9.83H35.628ZM46.342 9.83H47.342C47.342 9.27771 46.8943 8.83 46.342 8.83V9.83ZM46.342 11.272H38.466V13.272H46.342V11.272ZM37.466 12.272V16.804H39.466V12.272H37.466ZM38.466 17.804H45.176V15.804H38.466V17.804ZM44.176 16.804V19.246H46.176V16.804H44.176ZM45.176 18.246H38.466V20.246H45.176V18.246ZM37.466 19.246V26.286H39.466V19.246H37.466ZM38.466 25.286H35.628V27.286H38.466V25.286ZM36.628 26.286V9.83H34.628V26.286H36.628ZM35.628 10.83H46.342V8.83H35.628V10.83ZM45.342 9.83V12.272H47.342V9.83H45.342ZM55.3479 21.49H54.3479C54.3479 21.4963 54.348 21.5026 54.3481 21.5089L55.3479 21.49ZM55.3479 15.594V14.594C54.7956 14.594 54.3479 15.0417 54.3479 15.594H55.3479ZM58.1859 15.594H59.1859C59.1859 15.0417 58.7382 14.594 58.1859 14.594V15.594ZM58.1859 26.308V27.308C58.7382 27.308 59.1859 26.8603 59.1859 26.308H58.1859ZM55.3479 26.308H54.3479C54.3479 26.8603 54.7956 27.308 55.3479 27.308V26.308ZM55.3479 25.032H56.3479C56.3479 24.6026 56.0737 24.2211 55.6667 24.0842C55.2597 23.9473 54.8108 24.0855 54.5512 24.4276L55.3479 25.032ZM54.0939 26L53.7 25.0809C53.6893 25.0854 53.6787 25.0902 53.6681 25.0952L54.0939 26ZM50.2219 25.78L49.7157 26.6424C49.7204 26.6452 49.7251 26.6479 49.7298 26.6506L50.2219 25.78ZM48.6379 24.13L47.7471 24.5845C47.7509 24.5918 47.7547 24.5991 47.7586 24.6063L48.6379 24.13ZM48.0879 15.594V14.594C47.5356 14.594 47.0879 15.0417 47.0879 15.594H48.0879ZM50.9259 15.594H51.9259C51.9259 15.0417 51.4782 14.594 50.9259 14.594V15.594ZM49.9259 21.578C49.9259 22.5186 50.1674 23.398 50.8001 24.0541L52.2397 22.6659C52.0804 22.5007 51.9259 22.1921 51.9259 21.578H49.9259ZM50.8001 24.0541C51.4229 24.7001 52.2478 24.976 53.1479 24.976V22.976C52.6693 22.976 52.4089 22.8413 52.2397 22.6659L50.8001 24.0541ZM53.1479 24.976C54.0695 24.976 54.9018 24.671 55.5192 23.985L54.0326 22.647C53.858 22.841 53.605 22.976 53.1479 22.976V24.976ZM55.5192 23.985C56.1325 23.3035 56.3656 22.4203 56.3477 21.4711L54.3481 21.5089C54.3595 22.1144 54.2113 22.4485 54.0326 22.647L55.5192 23.985ZM56.3479 21.49V15.594H54.3479V21.49H56.3479ZM55.3479 16.594H58.1859V14.594H55.3479V16.594ZM57.1859 15.594V26.308H59.1859V15.594H57.1859ZM58.1859 25.308H55.3479V27.308H58.1859V25.308ZM56.3479 26.308V25.032H54.3479V26.308H56.3479ZM54.5512 24.4276C54.3382 24.7084 54.0617 24.9258 53.7 25.0809L54.4878 26.9191C55.1528 26.6342 55.7123 26.2062 56.1446 25.6364L54.5512 24.4276ZM53.6681 25.0952C53.3005 25.2682 52.925 25.352 52.5319 25.352V27.352C53.2241 27.352 53.89 27.2012 54.5197 26.9048L53.6681 25.0952ZM52.5319 25.352C51.8185 25.352 51.2216 25.1964 50.714 24.9094L49.7298 26.6506C50.5715 27.1263 51.5147 27.352 52.5319 27.352V25.352ZM50.7281 24.9176C50.2145 24.6161 49.8138 24.2014 49.5172 23.6537L47.7586 24.6063C48.2246 25.4666 48.88 26.1519 49.7157 26.6424L50.7281 24.9176ZM49.5287 23.6755C49.2458 23.121 49.0879 22.4459 49.0879 21.622H47.0879C47.0879 22.7047 47.2967 23.7016 47.7471 24.5845L49.5287 23.6755ZM49.0879 21.622V15.594H47.0879V21.622H49.0879ZM48.0879 16.594H50.9259V14.594H48.0879V16.594ZM49.9259 15.594V21.578H51.9259V15.594H49.9259ZM67.7734 18.696L66.995 19.3238C66.9991 19.3287 67.0031 19.3337 67.0072 19.3386L67.7734 18.696ZM66.1454 18.014V17.014C66.1379 17.014 66.1303 17.0141 66.1227 17.0143L66.1454 18.014ZM64.5394 18.762L65.2804 19.4335C65.2838 19.4297 65.2872 19.4259 65.2906 19.4221L64.5394 18.762ZM63.9234 20.654H64.9234C64.9234 20.6478 64.9234 20.6417 64.9233 20.6355L63.9234 20.654ZM63.9234 26.308V27.308C64.4757 27.308 64.9234 26.8603 64.9234 26.308H63.9234ZM61.0854 26.308H60.0854C60.0854 26.8603 60.5332 27.308 61.0854 27.308V26.308ZM61.0854 15.594V14.594C60.5332 14.594 60.0854 15.0417 60.0854 15.594H61.0854ZM63.9234 15.594H64.9234C64.9234 15.0417 64.4757 14.594 63.9234 14.594V15.594ZM63.9234 17.112H62.9234C62.9234 17.5434 63.2001 17.9261 63.6097 18.0615C64.0193 18.1969 64.4695 18.0543 64.7265 17.7078L63.9234 17.112ZM65.1994 16.034L65.6568 16.9233V16.9233L65.1994 16.034ZM68.7414 16.1L68.3261 17.0097L68.3335 17.013L68.7414 16.1ZM70.4794 17.684L69.6323 18.2155L69.6372 18.2231L70.4794 17.684ZM71.1834 26.308V27.308C71.7357 27.308 72.1834 26.8603 72.1834 26.308H71.1834ZM68.3454 26.308H67.3454C67.3454 26.8603 67.7932 27.308 68.3454 27.308V26.308ZM69.3454 20.654C69.3454 19.6682 69.1257 18.7522 68.5396 18.0534L67.0072 19.3386C67.1838 19.5491 67.3454 19.9384 67.3454 20.654H69.3454ZM68.5518 18.0682C67.9519 17.3244 67.0898 17.014 66.1454 17.014V19.014C66.6384 19.014 66.8616 19.1583 66.995 19.3238L68.5518 18.0682ZM66.1227 17.0143C65.1983 17.0353 64.3986 17.4074 63.7883 18.1019L65.2906 19.4221C65.5309 19.1486 65.8019 19.0221 66.1682 19.0137L66.1227 17.0143ZM63.7985 18.0905C63.162 18.7927 62.9055 19.6927 62.9236 20.6725L64.9233 20.6355C64.9121 20.0313 65.0662 19.6699 65.2804 19.4335L63.7985 18.0905ZM62.9234 20.654V26.308H64.9234V20.654H62.9234ZM63.9234 25.308H61.0854V27.308H63.9234V25.308ZM62.0854 26.308V15.594H60.0854V26.308H62.0854ZM61.0854 16.594H63.9234V14.594H61.0854V16.594ZM62.9234 15.594V17.112H64.9234V15.594H62.9234ZM64.7265 17.7078C64.9708 17.3787 65.2769 17.1187 65.6568 16.9233L64.7421 15.1447C64.0953 15.4773 63.5508 15.936 63.1203 16.5162L64.7265 17.7078ZM65.6568 16.9233C66.0465 16.7229 66.4041 16.638 66.7394 16.638V14.638C66.0481 14.638 65.3791 14.8171 64.7421 15.1447L65.6568 16.9233ZM66.7394 16.638C67.2394 16.638 67.7657 16.7538 68.3261 17.0097L69.1567 15.1903C68.3679 14.8302 67.5595 14.638 66.7394 14.638V16.638ZM68.3335 17.013C68.8128 17.2272 69.2501 17.6062 69.6324 18.2155L71.3265 17.1525C70.7701 16.2658 70.0487 15.5888 69.1494 15.187L68.3335 17.013ZM69.6372 18.2231C69.9702 18.7434 70.1834 19.5107 70.1834 20.61H72.1834C72.1834 19.2746 71.9274 18.0913 71.3217 17.1449L69.6372 18.2231ZM70.1834 20.61V26.308H72.1834V20.61H70.1834ZM71.1834 25.308H68.3454V27.308H71.1834V25.308ZM69.3454 26.308V20.654H67.3454V26.308H69.3454ZM94.4438 26.286V27.286C94.7702 27.286 95.0761 27.1267 95.2632 26.8592C95.4503 26.5917 95.4951 26.2498 95.3832 25.9431L94.4438 26.286ZM91.4298 26.286L90.4896 26.6266C90.633 27.0224 91.0088 27.286 91.4298 27.286V26.286ZM89.8678 21.974L90.808 21.6334C90.6646 21.2376 90.2888 20.974 89.8678 20.974V21.974ZM83.5098 21.974V20.974C83.0938 20.974 82.7212 21.2316 82.5743 21.6208L83.5098 21.974ZM81.8818 26.286V27.286C82.2978 27.286 82.6704 27.0284 82.8173 26.6392L81.8818 26.286ZM78.8678 26.286L77.9309 25.9365C77.8163 26.2435 77.8595 26.5872 78.0464 26.8563C78.2332 27.1255 78.5401 27.286 78.8678 27.286V26.286ZM85.0058 9.83V8.83C84.5883 8.83 84.2148 9.08936 84.0689 9.48052L85.0058 9.83ZM88.4378 9.83L89.3772 9.48715C89.2332 9.09253 88.8579 8.83 88.4378 8.83V9.83ZM88.9658 19.532V20.532C89.2921 20.532 89.5979 20.3728 89.785 20.1055C89.9722 19.8381 90.0171 19.4963 89.9054 19.1897L88.9658 19.532ZM86.7218 13.372L87.6614 13.0297C87.5181 12.6364 87.1451 12.374 86.7265 12.372C86.3079 12.37 85.9324 12.629 85.7855 13.0209L86.7218 13.372ZM84.4118 19.532L83.4755 19.1809C83.3603 19.488 83.4031 19.832 83.5899 20.1016C83.7767 20.3712 84.0838 20.532 84.4118 20.532V19.532ZM94.4438 25.286H91.4298V27.286H94.4438V25.286ZM92.37 25.9454L90.808 21.6334L88.9276 22.3146L90.4896 26.6266L92.37 25.9454ZM89.8678 20.974H83.5098V22.974H89.8678V20.974ZM82.5743 21.6208L80.9463 25.9328L82.8173 26.6392L84.4453 22.3272L82.5743 21.6208ZM81.8818 25.286H78.8678V27.286H81.8818V25.286ZM79.8047 26.6355L85.9427 10.1795L84.0689 9.48052L77.9309 25.9365L79.8047 26.6355ZM85.0058 10.83H88.4378V8.83H85.0058V10.83ZM87.4984 10.1729L93.5044 26.6289L95.3832 25.9431L89.3772 9.48715L87.4984 10.1729ZM89.9054 19.1897L87.6614 13.0297L85.7822 13.7143L88.0262 19.8743L89.9054 19.1897ZM85.7855 13.0209L83.4755 19.1809L85.3481 19.8831L87.6581 13.7231L85.7855 13.0209ZM84.4118 20.532H88.9658V18.532H84.4118V20.532ZM102.125 22.612L102.848 21.9211C102.653 21.7174 102.381 21.6052 102.1 21.6123C101.818 21.6194 101.552 21.7451 101.368 21.9584L102.125 22.612ZM104.017 24.592L104.776 25.2428C105.111 24.8527 105.095 24.2726 104.74 23.9011L104.017 24.592ZM102.213 25.868L102.609 26.7862L102.617 26.7825L102.213 25.868ZM97.2629 25.67L96.7667 26.5383L96.7786 26.5449L97.2629 25.67ZM95.3269 23.756L94.452 24.2403C94.4554 24.2465 94.459 24.2527 94.4625 24.2589L95.3269 23.756ZM95.3269 18.168L94.4586 17.6718L94.452 17.6837L95.3269 18.168ZM97.2629 16.254L97.7472 17.1289L97.2629 16.254ZM102.213 16.056L101.796 16.9651C101.801 16.9675 101.807 16.9698 101.812 16.9722L102.213 16.056ZM104.017 17.332L104.736 18.0269C105.104 17.6463 105.111 17.0451 104.753 16.6554L104.017 17.332ZM102.125 19.29L101.385 19.9627C101.571 20.1672 101.833 20.2857 102.11 20.2899C102.386 20.2941 102.652 20.1837 102.844 19.9849L102.125 19.29ZM101.091 18.542L100.644 19.4364C100.657 19.4432 100.671 19.4497 100.685 19.4558L101.091 18.542ZM98.1429 18.982L97.414 18.2973C97.4103 18.3013 97.4066 18.3053 97.403 18.3093L98.1429 18.982ZM98.1429 22.942L97.403 23.6147C97.4066 23.6187 97.4103 23.6227 97.414 23.6267L98.1429 22.942ZM99.9909 24.668C100.526 24.668 101.048 24.523 101.547 24.283L100.679 22.481C100.386 22.6223 100.16 22.668 99.9909 22.668V24.668ZM101.547 24.283C102.062 24.0348 102.511 23.6952 102.882 23.2656L101.368 21.9584C101.182 22.1741 100.955 22.3479 100.679 22.481L101.547 24.283ZM101.402 23.3029L103.294 25.2829L104.74 23.9011L102.848 21.9211L101.402 23.3029ZM103.258 23.9412C102.935 24.318 102.466 24.6627 101.808 24.9535L102.617 26.7825C103.485 26.3986 104.219 25.8927 104.776 25.2428L103.258 23.9412ZM101.817 24.9498C101.171 25.2282 100.588 25.352 100.057 25.352V27.352C100.905 27.352 101.758 27.1532 102.609 26.7862L101.817 24.9498ZM100.057 25.352C99.1661 25.352 98.4046 25.159 97.7472 24.7951L96.7786 26.5449C97.7638 27.0903 98.865 27.352 100.057 27.352V25.352ZM97.759 24.8018C97.0882 24.4185 96.5709 23.9056 96.1912 23.2531L94.4625 24.2589C95.0216 25.2198 95.7949 25.9829 96.7668 26.5382L97.759 24.8018ZM96.2018 23.2717C95.8379 22.6143 95.6449 21.8528 95.6449 20.962H93.6449C93.6449 22.1539 93.9066 23.255 94.452 24.2403L96.2018 23.2717ZM95.6449 20.962C95.6449 20.0712 95.8379 19.3097 96.2018 18.6523L94.452 17.6837C93.9066 18.669 93.6449 19.7701 93.6449 20.962H95.6449ZM96.1951 18.6641C96.5743 18.0005 97.0874 17.4941 97.7472 17.1289L96.7786 15.3791C95.7957 15.9232 95.0181 16.6928 94.4586 17.6719L96.1951 18.6641ZM97.7472 17.1289C98.4046 16.765 99.1661 16.572 100.057 16.572V14.572C98.865 14.572 97.7638 14.8337 96.7786 15.3791L97.7472 17.1289ZM100.057 16.572C100.638 16.572 101.215 16.6989 101.796 16.9651L102.63 15.1469C101.802 14.7678 100.942 14.572 100.057 14.572V16.572ZM101.812 16.9722C102.394 17.2269 102.88 17.5726 103.281 18.0086L104.753 16.6554C104.157 16.0061 103.439 15.5011 102.614 15.1398L101.812 16.9722ZM103.298 16.6371L101.406 18.5951L102.844 19.9849L104.736 18.0269L103.298 16.6371ZM102.865 18.6173C102.479 18.1927 102.021 17.8609 101.497 17.6282L100.685 19.4558C100.953 19.5751 101.184 19.742 101.385 19.9627L102.865 18.6173ZM101.538 17.6476C101.047 17.4019 100.528 17.256 99.9909 17.256V19.256C100.158 19.256 100.372 19.3007 100.644 19.4364L101.538 17.6476ZM99.9909 17.256C98.9888 17.256 98.0902 17.5776 97.414 18.2973L98.8717 19.6667C99.1049 19.4184 99.4383 19.256 99.9909 19.256V17.256ZM97.403 18.3093C96.753 19.0242 96.4829 19.9487 96.4829 20.962H98.4829C98.4829 20.3033 98.6527 19.9078 98.8828 19.6547L97.403 18.3093ZM96.4829 20.962C96.4829 21.9753 96.753 22.8998 97.403 23.6147L98.8828 22.2693C98.6527 22.0162 98.4829 21.6207 98.4829 20.962H96.4829ZM97.414 23.6267C98.0902 24.3464 98.9888 24.668 99.9909 24.668V22.668C99.4383 22.668 99.1049 22.5056 98.8717 22.2573L97.414 23.6267ZM107.309 17.992H108.309C108.309 17.4397 107.862 16.992 107.309 16.992V17.992ZM105.219 17.992H104.219C104.219 18.5443 104.667 18.992 105.219 18.992V17.992ZM105.219 15.55V14.55C104.667 14.55 104.219 14.9977 104.219 15.55H105.219ZM107.309 15.55V16.55C107.862 16.55 108.309 16.1023 108.309 15.55H107.309ZM107.309 11.766V10.766C106.757 10.766 106.309 11.2137 106.309 11.766H107.309ZM110.147 11.766H111.147C111.147 11.2137 110.7 10.766 110.147 10.766V11.766ZM110.147 15.55H109.147C109.147 16.1023 109.595 16.55 110.147 16.55V15.55ZM112.677 15.55H113.677C113.677 14.9977 113.23 14.55 112.677 14.55V15.55ZM112.677 17.992V18.992C113.23 18.992 113.677 18.5443 113.677 17.992H112.677ZM110.147 17.992V16.992C109.595 16.992 109.147 17.4397 109.147 17.992H110.147ZM110.147 26.308V27.308C110.7 27.308 111.147 26.8603 111.147 26.308H110.147ZM107.309 26.308H106.309C106.309 26.8603 106.757 27.308 107.309 27.308V26.308ZM107.309 16.992H105.219V18.992H107.309V16.992ZM106.219 17.992V15.55H104.219V17.992H106.219ZM105.219 16.55H107.309V14.55H105.219V16.55ZM108.309 15.55V11.766H106.309V15.55H108.309ZM107.309 12.766H110.147V10.766H107.309V12.766ZM109.147 11.766V15.55H111.147V11.766H109.147ZM110.147 16.55H112.677V14.55H110.147V16.55ZM111.677 15.55V17.992H113.677V15.55H111.677ZM112.677 16.992H110.147V18.992H112.677V16.992ZM109.147 17.992V26.308H111.147V17.992H109.147ZM110.147 25.308H107.309V27.308H110.147V25.308ZM108.309 26.308V17.992H106.309V26.308H108.309ZM118.005 15.572H119.005C119.005 15.0197 118.557 14.572 118.005 14.572V15.572ZM118.005 26.286V27.286C118.557 27.286 119.005 26.8383 119.005 26.286H118.005ZM115.167 26.286H114.167C114.167 26.8383 114.614 27.286 115.167 27.286V26.286ZM115.167 15.572V14.572C114.614 14.572 114.167 15.0197 114.167 15.572H115.167ZM115.475 10.622L114.768 9.91489L114.768 9.91489L115.475 10.622ZM117.675 10.622L116.95 11.3107C116.962 11.3231 116.974 11.3352 116.986 11.347L117.675 10.622ZM117.675 12.822L116.968 12.1149L117.675 12.822ZM115.475 12.822L114.75 13.5107C114.762 13.5231 114.774 13.5352 114.786 13.547L115.475 12.822ZM117.005 15.572V26.286H119.005V15.572H117.005ZM118.005 25.286H115.167V27.286H118.005V25.286ZM116.167 26.286V15.572H114.167V26.286H116.167ZM115.167 16.572H118.005V14.572H115.167V16.572ZM116.057 11.7C116.057 11.4914 116.113 11.3976 116.182 11.3291L114.768 9.91489C114.279 10.4037 114.057 11.0286 114.057 11.7H116.057ZM116.182 11.3291C116.269 11.2422 116.379 11.182 116.597 11.182V9.182C115.905 9.182 115.267 9.41511 114.768 9.91489L116.182 11.3291ZM116.597 11.182C116.789 11.182 116.877 11.2347 116.95 11.3107L118.4 9.93325C117.915 9.42265 117.284 9.182 116.597 9.182V11.182ZM116.986 11.347C117.062 11.4193 117.115 11.5075 117.115 11.7H119.115C119.115 11.0125 118.874 10.3821 118.364 9.897L116.986 11.347ZM117.115 11.7C117.115 11.9175 117.055 12.028 116.968 12.1149L118.382 13.5291C118.882 13.0293 119.115 12.3919 119.115 11.7H117.115ZM116.968 12.1149C116.899 12.1834 116.805 12.24 116.597 12.24V14.24C117.268 14.24 117.893 14.0179 118.382 13.5291L116.968 12.1149ZM116.597 12.24C116.364 12.24 116.247 12.1768 116.164 12.097L114.786 13.547C115.289 14.0246 115.92 14.24 116.597 14.24V12.24ZM116.2 12.1332C116.12 12.0493 116.057 11.9327 116.057 11.7H114.057C114.057 12.3766 114.272 13.0081 114.75 13.5107L116.2 12.1332ZM127.253 26.308V27.308C127.653 27.308 128.015 27.0698 128.172 26.7024L127.253 26.308ZM124.877 26.308L123.956 26.696C124.112 27.0668 124.475 27.308 124.877 27.308V26.308ZM120.367 15.594V14.594C120.032 14.594 119.72 14.7617 119.534 15.0408C119.349 15.3199 119.316 15.6732 119.446 15.982L120.367 15.594ZM123.447 15.594L124.382 15.2396C124.235 14.851 123.863 14.594 123.447 14.594V15.594ZM126.065 22.502L125.13 22.8564C125.277 23.244 125.648 23.5008 126.063 23.502C126.477 23.5031 126.849 23.2484 126.998 22.8616L126.065 22.502ZM128.727 15.594V14.594C128.314 14.594 127.943 14.8485 127.794 15.2344L128.727 15.594ZM131.851 15.594L132.77 15.9884C132.903 15.6794 132.871 15.3245 132.686 15.0437C132.501 14.763 132.188 14.594 131.851 14.594V15.594ZM127.253 25.308H124.877V27.308H127.253V25.308ZM125.799 25.92L121.289 15.206L119.446 15.982L123.956 26.696L125.799 25.92ZM120.367 16.594H123.447V14.594H120.367V16.594ZM122.512 15.9484L125.13 22.8564L127 22.1476L124.382 15.2396L122.512 15.9484ZM126.998 22.8616L129.66 15.9536L127.794 15.2344L125.132 22.1424L126.998 22.8616ZM128.727 16.594H131.851V14.594H128.727V16.594ZM130.932 15.1996L126.334 25.9136L128.172 26.7024L132.77 15.9884L130.932 15.1996ZM136.975 15.572H137.975C137.975 15.0197 137.528 14.572 136.975 14.572V15.572ZM136.975 26.286V27.286C137.528 27.286 137.975 26.8383 137.975 26.286H136.975ZM134.137 26.286H133.137C133.137 26.8383 133.585 27.286 134.137 27.286V26.286ZM134.137 15.572V14.572C133.585 14.572 133.137 15.0197 133.137 15.572H134.137ZM134.445 10.622L133.738 9.91489L133.738 9.91489L134.445 10.622ZM136.645 10.622L135.92 11.3107C135.932 11.3231 135.944 11.3352 135.957 11.347L136.645 10.622ZM136.645 12.822L135.938 12.1149L136.645 12.822ZM134.445 12.822L133.72 13.5107C133.732 13.5231 133.744 13.5352 133.757 13.547L134.445 12.822ZM135.975 15.572V26.286H137.975V15.572H135.975ZM136.975 25.286H134.137V27.286H136.975V25.286ZM135.137 26.286V15.572H133.137V26.286H135.137ZM134.137 16.572H136.975V14.572H134.137V16.572ZM135.027 11.7C135.027 11.4914 135.084 11.3976 135.153 11.3291L133.738 9.91489C133.25 10.4037 133.027 11.0286 133.027 11.7H135.027ZM135.153 11.3291C135.239 11.2422 135.35 11.182 135.567 11.182V9.182C134.876 9.182 134.238 9.41511 133.738 9.91489L135.153 11.3291ZM135.567 11.182C135.76 11.182 135.848 11.2347 135.92 11.3107L137.37 9.93325C136.885 9.42265 136.255 9.182 135.567 9.182V11.182ZM135.957 11.347C136.033 11.4193 136.085 11.5075 136.085 11.7H138.085C138.085 11.0125 137.845 10.3821 137.334 9.897L135.957 11.347ZM136.085 11.7C136.085 11.9175 136.025 12.028 135.938 12.1149L137.353 13.5291C137.852 13.0293 138.085 12.3919 138.085 11.7H136.085ZM135.938 12.1149C135.87 12.1834 135.776 12.24 135.567 12.24V14.24C136.239 14.24 136.864 14.0179 137.353 13.5291L135.938 12.1149ZM135.567 12.24C135.335 12.24 135.218 12.1768 135.134 12.097L133.757 13.547C134.259 14.0246 134.891 14.24 135.567 14.24V12.24ZM135.17 12.1332C135.091 12.0493 135.027 11.9327 135.027 11.7H133.027C133.027 12.3766 133.243 13.0081 133.72 13.5107L135.17 12.1332ZM141.577 17.992H142.577C142.577 17.4397 142.129 16.992 141.577 16.992V17.992ZM139.487 17.992H138.487C138.487 18.5443 138.935 18.992 139.487 18.992V17.992ZM139.487 15.55V14.55C138.935 14.55 138.487 14.9977 138.487 15.55H139.487ZM141.577 15.55V16.55C142.129 16.55 142.577 16.1023 142.577 15.55H141.577ZM141.577 11.766V10.766C141.025 10.766 140.577 11.2137 140.577 11.766H141.577ZM144.415 11.766H145.415C145.415 11.2137 144.967 10.766 144.415 10.766V11.766ZM144.415 15.55H143.415C143.415 16.1023 143.863 16.55 144.415 16.55V15.55ZM146.945 15.55H147.945C147.945 14.9977 147.497 14.55 146.945 14.55V15.55ZM146.945 17.992V18.992C147.497 18.992 147.945 18.5443 147.945 17.992H146.945ZM144.415 17.992V16.992C143.863 16.992 143.415 17.4397 143.415 17.992H144.415ZM144.415 26.308V27.308C144.967 27.308 145.415 26.8603 145.415 26.308H144.415ZM141.577 26.308H140.577C140.577 26.8603 141.025 27.308 141.577 27.308V26.308ZM141.577 16.992H139.487V18.992H141.577V16.992ZM140.487 17.992V15.55H138.487V17.992H140.487ZM139.487 16.55H141.577V14.55H139.487V16.55ZM142.577 15.55V11.766H140.577V15.55H142.577ZM141.577 12.766H144.415V10.766H141.577V12.766ZM143.415 11.766V15.55H145.415V11.766H143.415ZM144.415 16.55H146.945V14.55H144.415V16.55ZM145.945 15.55V17.992H147.945V15.55H145.945ZM146.945 16.992H144.415V18.992H146.945V16.992ZM143.415 17.992V26.308H145.415V17.992H143.415ZM144.415 25.308H141.577V27.308H144.415V25.308ZM142.577 26.308V17.992H140.577V26.308H142.577ZM150.469 30.774L149.55 30.381C149.418 30.6899 149.45 31.0445 149.635 31.3249C149.82 31.6053 150.133 31.774 150.469 31.774V30.774ZM152.867 25.164L153.787 25.557C153.897 25.3004 153.894 25.0096 153.78 24.7549L152.867 25.164ZM148.577 15.594V14.594C148.238 14.594 147.922 14.7658 147.738 15.0504C147.554 15.335 147.526 15.6936 147.665 16.0031L148.577 15.594ZM151.701 15.594L152.625 15.2112C152.47 14.8376 152.106 14.594 151.701 14.594V15.594ZM154.363 22.018L153.44 22.4008C153.595 22.7764 153.963 23.0204 154.369 23.018C154.776 23.0156 155.14 22.7673 155.292 22.3899L154.363 22.018ZM156.937 15.594V14.594C156.529 14.594 156.161 14.8427 156.009 15.2221L156.937 15.594ZM160.017 15.594L160.938 15.9835C161.069 15.6747 161.036 15.321 160.851 15.0415C160.666 14.762 160.353 14.594 160.017 14.594V15.594ZM156.035 25.01L156.955 25.4031L156.956 25.3995L156.035 25.01ZM153.571 30.774V31.774C153.972 31.774 154.334 31.5352 154.491 31.1671L153.571 30.774ZM151.389 31.167L153.787 25.557L151.948 24.771L149.55 30.381L151.389 31.167ZM153.78 24.7549L149.49 15.1849L147.665 16.0031L151.955 25.5731L153.78 24.7549ZM148.577 16.594H151.701V14.594H148.577V16.594ZM150.778 15.9768L153.44 22.4008L155.287 21.6352L152.625 15.2112L150.778 15.9768ZM155.292 22.3899L157.866 15.9659L156.009 15.2221L153.435 21.6461L155.292 22.3899ZM156.937 16.594H160.017V14.594H156.937V16.594ZM159.096 15.2045L155.114 24.6205L156.956 25.3995L160.938 15.9835L159.096 15.2045ZM155.116 24.6169L152.652 30.3809L154.491 31.1671L156.955 25.4031L155.116 24.6169ZM153.571 29.774H150.469V31.774H153.571V29.774Z" fill="#E5D0FF" mask="url(#path-4-outside-1_9954_40641)"/>
</svg>
