<svg width="104" height="34" viewBox="0 0 104 34" fill="none" xmlns="http://www.w3.org/2000/svg">
<path d="M14.6667 16H5.33333C4.04467 16 3 17.0447 3 18.3333V27.6667C3 28.9553 4.04467 30 5.33333 30H14.6667C15.9553 30 17 28.9553 17 27.6667V18.3333C17 17.0447 15.9553 16 14.6667 16Z" fill="#FBC02D"/>
<path d="M26.6667 16H17.3333C16.0447 16 15 17.0447 15 18.3333V27.6667C15 28.9553 16.0447 30 17.3333 30H26.6667C27.9553 30 29 28.9553 29 27.6667V18.3333C29 17.0447 27.9553 16 26.6667 16Z" fill="#42A5F5"/>
<path d="M20.6667 4H11.3333C10.0447 4 9 5.04467 9 6.33333V15.6667C9 16.9553 10.0447 18 11.3333 18H20.6667C21.9553 18 23 16.9553 23 15.6667V6.33333C23 5.04467 21.9553 4 20.6667 4Z" fill="#EF5350"/>
<path d="M19.4135 14.0398L16.7468 7.37315C16.6761 7.23603 16.5691 7.12103 16.4374 7.04073C16.3057 6.96044 16.1544 6.91797 16.0001 6.91797C15.8459 6.91797 15.6946 6.96044 15.5629 7.04073C15.4312 7.12103 15.3241 7.23603 15.2535 7.37315L12.5868 14.0398C12.5483 14.1379 12.5295 14.2425 12.5314 14.3479C12.5333 14.4532 12.556 14.5571 12.5981 14.6537C12.6402 14.7503 12.7009 14.8376 12.7767 14.9107C12.8526 14.9838 12.9421 15.0413 13.0401 15.0798C13.1382 15.1183 13.2429 15.1372 13.3482 15.1352C13.4535 15.1333 13.5575 15.1106 13.654 15.0685C13.7506 15.0264 13.8379 14.9657 13.911 14.8899C13.9842 14.814 14.0416 14.7245 14.0801 14.6265L14.6668 13.1331H17.3335L17.9335 14.6265C17.9925 14.7763 18.0953 14.9047 18.2286 14.9951C18.3618 15.0855 18.5191 15.1336 18.6801 15.1331C18.777 15.1522 18.8766 15.1522 18.9735 15.1331C19.0759 15.0925 19.169 15.0314 19.2472 14.9537C19.3253 14.8759 19.3868 14.7831 19.4279 14.6808C19.4691 14.5786 19.489 14.469 19.4865 14.3588C19.484 14.2486 19.4592 14.1401 19.4135 14.0398ZM15.3201 11.5331L16.0001 9.82648L16.6801 11.5331H15.3201Z" fill="#EF9A9A"/>
<path d="M24.333 27.1339H22.773C21.6768 27.1339 20.6254 26.6984 19.8503 25.9232C19.0751 25.1481 18.6396 24.0967 18.6396 23.0005C18.6396 21.9043 19.0751 20.853 19.8503 20.0778C20.6254 19.3027 21.6768 18.8672 22.773 18.8672H24.333C24.5452 18.8672 24.7486 18.9515 24.8987 19.1015C25.0487 19.2515 25.133 19.455 25.133 19.6672C25.133 19.8794 25.0487 20.0828 24.8987 20.2329C24.7486 20.3829 24.5452 20.4672 24.333 20.4672H22.773C22.1459 20.5316 21.565 20.8263 21.1427 21.2942C20.7204 21.7622 20.4866 22.3702 20.4866 23.0005C20.4866 23.6309 20.7204 24.2388 21.1427 24.7068C21.565 25.1747 22.1459 25.4694 22.773 25.5339H24.333C24.5452 25.5339 24.7486 25.6181 24.8987 25.7682C25.0487 25.9182 25.133 26.1217 25.133 26.3339C25.133 26.546 25.0487 26.7495 24.8987 26.8995C24.7486 27.0496 24.5452 27.1339 24.333 27.1339Z" fill="#90CAF9"/>
<path d="M10.6672 27.1339H7.66719C7.56213 27.1339 7.4581 27.1132 7.36104 27.073C7.26398 27.0328 7.17579 26.9738 7.1015 26.8995C7.02722 26.8253 6.96829 26.7371 6.92808 26.64C6.88788 26.5429 6.86719 26.4389 6.86719 26.3339V19.6672C6.86719 19.455 6.95147 19.2515 7.1015 19.1015C7.25153 18.9515 7.45501 18.8672 7.66719 18.8672H10.6672C11.3214 18.8672 11.9488 19.1271 12.4114 19.5897C12.874 20.0522 13.1339 20.6797 13.1339 21.3339C13.1378 21.9526 12.9039 22.5493 12.4805 23.0005C12.9039 23.4518 13.1378 24.0484 13.1339 24.6672C13.1339 25.3214 12.874 25.9488 12.4114 26.4114C11.9488 26.874 11.3214 27.1339 10.6672 27.1339ZM8.46719 25.5339H10.6672C10.897 25.5339 11.1175 25.4425 11.28 25.28C11.4425 25.1175 11.5339 24.897 11.5339 24.6672C11.5339 24.4373 11.4425 24.2169 11.28 24.0544C11.1175 23.8918 10.897 23.8005 10.6672 23.8005H8.46719V25.5339ZM8.46719 22.2005H10.6672C10.897 22.2005 11.1175 22.1092 11.28 21.9467C11.4425 21.7841 11.5339 21.5637 11.5339 21.3339C11.5339 21.104 11.4425 20.8836 11.28 20.721C11.1175 20.5585 10.897 20.4672 10.6672 20.4672H8.46719V22.2005Z" fill="#FDD835"/>
<path d="M60.77 8.94L56.26 25.176H54.082L50.276 12.966L46.69 25.176H44.49L39.54 8.94H41.982L45.59 20.996L49.022 8.962H51.508L55.028 20.996L58.328 8.94H60.77ZM66.3769 23.284C68.0049 23.284 69.1049 21.986 69.1049 19.984C69.1049 18.004 68.0049 16.684 66.3769 16.684C64.7489 16.684 63.6489 17.982 63.6489 19.984C63.6489 21.986 64.7269 23.284 66.3769 23.284ZM61.3169 19.984C61.3169 16.882 63.4069 14.682 66.3769 14.682C69.3469 14.682 71.4369 16.882 71.4369 19.984C71.4369 23.064 69.3469 25.286 66.3769 25.286C63.4069 25.286 61.3169 23.064 61.3169 19.984ZM73.6991 25.198V14.704H76.0311V16.244C76.7351 15.254 78.0111 14.594 79.2431 14.66V16.816C77.3731 16.728 76.0311 18.378 76.0311 19.984V25.198H73.6991ZM85.432 25.286C82.528 25.286 80.438 23.086 80.438 19.984C80.438 16.882 82.528 14.682 85.432 14.682C86.29 14.682 87.588 15.056 88.49 16.244V9.468H90.822V25.198H88.49V23.724C87.566 24.846 86.29 25.286 85.432 25.286ZM82.77 20.006C82.77 22.008 83.892 23.328 85.586 23.328C87.17 23.328 88.49 21.876 88.49 20.006C88.49 18.158 87.17 16.684 85.586 16.684C83.892 16.684 82.77 18.004 82.77 20.006ZM95.5209 21.59C95.9829 22.734 97.1269 23.262 97.8309 23.262C98.9309 23.262 99.6349 22.844 99.6349 22.118C99.6349 21.458 98.6669 21.15 97.5889 20.776C96.1589 20.27 94.1349 19.588 94.1349 17.564C94.1349 15.716 95.8289 14.594 97.9849 14.594C99.2829 14.594 101.219 15.342 101.747 17.234L99.7889 17.938C99.4369 16.772 98.4909 16.596 97.9849 16.596C97.0609 16.596 96.4669 16.97 96.4669 17.564C96.4669 18.224 97.3689 18.488 98.4909 18.884C99.9869 19.412 101.967 20.094 101.967 22.096C101.967 24.01 100.273 25.264 97.8309 25.264C96.2249 25.264 94.4649 24.252 93.6949 22.646L95.5209 21.59Z" fill="#2D5122"/>
</svg>
