<svg width="111" height="33" viewBox="0 0 111 33" fill="none" xmlns="http://www.w3.org/2000/svg">
<rect x="11.7422" y="1" width="87.5161" height="31" rx="11" stroke="#FFB400" stroke-width="2"/>
<path d="M25.856 10.432V8.83H27.836V10.432H31.562V12.016H22.13V10.432H25.856ZM22.958 15.58C22.958 15.004 23.12 14.494 23.444 14.05C23.768 13.594 24.224 13.246 24.812 13.006C25.412 12.754 26.09 12.628 26.846 12.628C27.602 12.628 28.274 12.754 28.862 13.006C29.462 13.246 29.924 13.594 30.248 14.05C30.584 14.494 30.752 15.004 30.752 15.58C30.752 16.156 30.584 16.666 30.248 17.11C29.924 17.542 29.462 17.884 28.862 18.136C28.274 18.376 27.602 18.496 26.846 18.496C26.09 18.496 25.412 18.376 24.812 18.136C24.224 17.884 23.768 17.542 23.444 17.11C23.12 16.666 22.958 16.156 22.958 15.58ZM24.074 19.702H34.64V24.958H32.66V21.286H24.074V19.702ZM24.848 15.58C24.848 16.012 25.028 16.36 25.388 16.624C25.76 16.876 26.246 17.002 26.846 17.002C27.446 17.002 27.926 16.876 28.286 16.624C28.658 16.36 28.844 16.012 28.844 15.58C28.844 15.124 28.658 14.77 28.286 14.518C27.926 14.266 27.446 14.14 26.846 14.14C26.246 14.14 25.76 14.266 25.388 14.518C25.028 14.77 24.848 15.124 24.848 15.58ZM32.66 8.938H34.64V13.168H36.872V14.788H34.64V18.964H32.66V8.938ZM41.5344 18.514V20.062H48.5004V18.514H50.4624V24.76H39.5904V18.514H41.5344ZM37.8444 16.048H52.3164V17.614H37.8444V16.048ZM38.6004 13.618C39.6804 13.486 40.6344 13.222 41.4624 12.826C42.2904 12.43 42.9264 11.956 43.3704 11.404C43.8264 10.852 44.0544 10.276 44.0544 9.676V9.1H46.0884V9.676C46.0884 10.264 46.3164 10.84 46.7724 11.404C47.2284 11.956 47.8704 12.43 48.6984 12.826C49.5384 13.222 50.4924 13.486 51.5604 13.618L50.8584 15.166C49.5504 14.986 48.3864 14.62 47.3664 14.068C46.3584 13.504 45.5964 12.814 45.0804 11.998C44.5764 12.814 43.8204 13.504 42.8124 14.068C41.8044 14.62 40.6344 14.986 39.3024 15.166L38.6004 13.618ZM48.5004 23.194V21.574H41.5344V23.194H48.5004Z" fill="#061833"/>
<path d="M70.748 9.586V15.166H66.32V16.876H72.584V18.442H58.112V16.876H64.34V15.166H59.912V9.586H70.748ZM59.714 19.792H70.82V24.958H68.858V21.358H59.714V19.792ZM68.804 13.6V11.152H61.856V13.6H68.804ZM77.5884 21.502V18.208H75.0864V16.624H77.3184V11.854H75.0144V10.27H87.0924V11.854H84.8064V16.624H87.0564V18.208H84.5364V21.502H88.3524V23.104H73.8444V21.502H77.5884ZM82.8444 16.624V11.854H79.2984V16.624H82.8444ZM82.5924 21.502V18.208H79.5504V21.502H82.5924Z" fill="#DF9E00"/>
<path d="M7.95161 16.5C7.95161 18.1506 6.47385 19.625 4.47581 19.625C2.47776 19.625 1 18.1506 1 16.5C1 14.8494 2.47776 13.375 4.47581 13.375C6.47385 13.375 7.95161 14.8494 7.95161 16.5Z" fill="white" stroke="#FFB400" stroke-width="2"/>
<path d="M110 16.5C110 18.1506 108.523 19.625 106.525 19.625C104.527 19.625 103.049 18.1506 103.049 16.5C103.049 14.8494 104.527 13.375 106.525 13.375C108.523 13.375 110 14.8494 110 16.5Z" fill="white" stroke="#FFB400" stroke-width="2"/>
</svg>
