<svg width="82" height="34" viewBox="0 0 82 34" fill="none" xmlns="http://www.w3.org/2000/svg">
<path d="M6.23449 6.88957C6.29076 6.38314 6.71883 6 7.22838 6H9.88274C10.4787 6 10.9424 6.51807 10.8766 7.11043L8.76551 26.1104C8.70924 26.6169 8.28117 27 7.77162 27H5.11726C4.52125 27 4.05756 26.4819 4.12338 25.8896L6.23449 6.88957Z" fill="#FFB400"/>
<path d="M13.2345 6.88957C13.2908 6.38314 13.7188 6 14.2284 6H16.8827C17.4787 6 17.9424 6.51807 17.8766 7.11043L15.7655 26.1104C15.7092 26.6169 15.2812 27 14.7716 27H12.1173C11.5213 27 11.0576 26.4819 11.1234 25.8896L13.2345 6.88957Z" fill="#FFB400"/>
<rect y="15" width="4" height="22" rx="1" transform="rotate(-90 0 15)" fill="#FFB400"/>
<rect y="22" width="4" height="22" rx="1" transform="rotate(-90 0 22)" fill="#FFB400"/>
<path d="M41.0707 8.94V10.986H36.4947V25.176H34.1407V10.986H29.5427V8.94H41.0707ZM46.1796 23.284C47.8076 23.284 48.9076 21.986 48.9076 19.984C48.9076 18.004 47.8076 16.684 46.1796 16.684C44.5516 16.684 43.4516 17.982 43.4516 19.984C43.4516 21.986 44.5296 23.284 46.1796 23.284ZM41.1196 19.984C41.1196 16.882 43.2096 14.682 46.1796 14.682C49.1496 14.682 51.2396 16.882 51.2396 19.984C51.2396 23.064 49.1496 25.286 46.1796 25.286C43.2096 25.286 41.1196 23.064 41.1196 19.984ZM58.9799 23.284C60.6739 23.284 61.7739 21.964 61.7739 19.962C61.7739 17.96 60.6739 16.64 58.9799 16.64C57.3959 16.64 56.0979 18.114 56.0979 19.962C56.0979 21.81 57.3959 23.284 58.9799 23.284ZM53.7439 29.84V14.682H56.0759V16.222C56.9119 15.122 58.2979 14.682 59.1119 14.682C62.0379 14.682 64.1059 16.86 64.1059 19.962C64.1059 23.086 62.0379 25.264 59.1119 25.264C58.2759 25.264 56.9119 24.802 56.0759 23.702V29.84H53.7439ZM66.6355 14.682H68.9675V25.176H66.6355V14.682ZM66.4815 10.766C66.4815 9.996 67.0315 9.446 67.8015 9.446C68.5715 9.446 69.1215 9.996 69.1215 10.766C69.1215 11.536 68.5715 12.086 67.8015 12.086C67.0315 12.086 66.4815 11.536 66.4815 10.766ZM76.5733 23.042C77.3873 23.042 78.3333 22.624 78.9273 21.964L80.5333 23.57C79.6313 24.56 77.9813 25.264 76.6613 25.264C73.5373 25.264 71.3373 23.064 71.3373 19.984C71.3373 16.882 73.5373 14.682 76.6613 14.682C78.0473 14.682 79.5873 15.386 80.5333 16.398L78.9273 17.982C78.3333 17.322 77.3873 16.904 76.5733 16.904C74.8353 16.904 73.6693 18.114 73.6693 19.984C73.6693 21.832 74.8353 23.042 76.5733 23.042Z" fill="#2D5122"/>
</svg>
