<svg width="99" height="34" viewBox="0 0 99 34" fill="none" xmlns="http://www.w3.org/2000/svg">
<mask id="path-1-outside-1_1960_5612" maskUnits="userSpaceOnUse" x="0" y="5" width="65" height="28" fill="black">
<rect fill="white" y="5" width="65" height="28"/>
<path d="M5.586 20.556C6.05533 21.4653 6.61267 22.1547 7.258 22.624C7.918 23.0933 8.61467 23.328 9.348 23.328C10.36 23.328 11.1447 23.1007 11.702 22.646C12.2593 22.1767 12.538 21.5533 12.538 20.776C12.538 20.2627 12.384 19.83 12.076 19.478C11.7827 19.126 11.4087 18.8473 10.954 18.642C10.514 18.422 9.898 18.1653 9.106 17.872C8.094 17.5053 7.27267 17.1533 6.642 16.816C6.01133 16.4787 5.476 16.002 5.036 15.386C4.596 14.77 4.376 13.978 4.376 13.01C4.376 12.1447 4.596 11.3893 5.036 10.744C5.476 10.0987 6.08467 9.60733 6.862 9.27C7.63933 8.93267 8.52667 8.764 9.524 8.764C10.6533 8.764 11.6653 9.07933 12.56 9.71C13.4693 10.326 14.144 11.25 14.584 12.482L12.494 13.23C12.2153 12.4233 11.8193 11.822 11.306 11.426C10.7927 11.0153 10.2133 10.8027 9.568 10.788C8.70267 10.788 8.006 10.9933 7.478 11.404C6.96467 11.8 6.708 12.3353 6.708 13.01C6.708 13.5233 6.85467 13.956 7.148 14.308C7.456 14.66 7.83733 14.9533 8.292 15.188C8.76133 15.408 9.38467 15.6647 10.162 15.958C11.174 16.354 11.988 16.7207 12.604 17.058C13.22 17.3953 13.748 17.872 14.188 18.488C14.628 19.0893 14.848 19.8593 14.848 20.798C14.848 21.6927 14.628 22.4847 14.188 23.174C13.748 23.8633 13.11 24.3987 12.274 24.78C11.4527 25.1613 10.4847 25.352 9.37 25.352C8.182 25.352 7.104 25.0367 6.136 24.406C5.168 23.7607 4.33933 22.8367 3.65 21.634L5.586 20.556ZM19.0198 16.706H17.0398V14.682H19.0198V11.008H21.3518V14.682H23.8378V16.706H21.3518V25.198H19.0198V16.706ZM30.5488 25.242C29.5661 25.242 28.6934 25.022 27.9308 24.582C27.1681 24.1273 26.5668 23.504 26.1268 22.712C25.7014 21.9053 25.4888 20.996 25.4888 19.984C25.4888 18.9573 25.7014 18.048 26.1268 17.256C26.5668 16.4493 27.1681 15.826 27.9308 15.386C28.6934 14.9313 29.5661 14.704 30.5488 14.704C31.9128 14.704 32.9321 15.0487 33.6068 15.738C34.2814 16.4127 34.7141 17.014 34.9048 17.542C35.2128 18.2607 35.3668 19.1187 35.3668 20.116C35.3668 20.38 35.3594 20.5707 35.3448 20.688C35.3448 20.7907 35.3448 20.8567 35.3448 20.886H27.7768C27.9088 21.59 28.2388 22.162 28.7668 22.602C29.2948 23.042 29.8888 23.262 30.5488 23.262C31.2968 23.262 31.8761 23.1153 32.2868 22.822C32.6974 22.5287 32.9908 22.2353 33.1668 21.942L35.0368 22.778C34.7434 23.4527 34.2081 24.032 33.4308 24.516C32.6681 25 31.7074 25.242 30.5488 25.242ZM33.1448 19.038C33.0274 18.334 32.7561 17.7693 32.3308 17.344C31.9054 16.904 31.3114 16.684 30.5488 16.684C29.8594 16.684 29.2581 16.904 28.7448 17.344C28.2314 17.784 27.9088 18.3487 27.7768 19.038H33.1448ZM43.1986 23.284C44.0493 23.284 44.7239 22.9833 45.2226 22.382C45.7359 21.766 45.9926 20.9593 45.9926 19.962C45.9926 18.9647 45.7359 18.1653 45.2226 17.564C44.7239 16.948 44.0493 16.64 43.1986 16.64C42.6853 16.64 42.2013 16.7867 41.7466 17.08C41.3066 17.3733 40.9546 17.7767 40.6906 18.29C40.4413 18.8033 40.3166 19.3607 40.3166 19.962C40.3166 20.5633 40.4413 21.1207 40.6906 21.634C40.9546 22.1473 41.3066 22.5507 41.7466 22.844C42.2013 23.1373 42.6853 23.284 43.1986 23.284ZM37.9626 14.682H40.2946V16.222C40.6759 15.7233 41.1599 15.342 41.7466 15.078C42.3333 14.814 42.8613 14.682 43.3306 14.682C44.2986 14.682 45.1566 14.9093 45.9046 15.364C46.6673 15.804 47.2613 16.4273 47.6866 17.234C48.1119 18.026 48.3246 18.9353 48.3246 19.962C48.3246 20.9887 48.1119 21.9053 47.6866 22.712C47.2613 23.5187 46.6673 24.1493 45.9046 24.604C45.1566 25.044 44.2986 25.264 43.3306 25.264C42.8466 25.264 42.3113 25.132 41.7246 24.868C41.1526 24.604 40.6759 24.2153 40.2946 23.702V29.84H37.9626V14.682ZM61.6123 25.066L59.2803 25.044V11.558L56.4643 13.12L55.4963 11.162L59.3023 9.072H61.6123V25.066Z"/>
</mask>
<path d="M5.586 20.556C6.05533 21.4653 6.61267 22.1547 7.258 22.624C7.918 23.0933 8.61467 23.328 9.348 23.328C10.36 23.328 11.1447 23.1007 11.702 22.646C12.2593 22.1767 12.538 21.5533 12.538 20.776C12.538 20.2627 12.384 19.83 12.076 19.478C11.7827 19.126 11.4087 18.8473 10.954 18.642C10.514 18.422 9.898 18.1653 9.106 17.872C8.094 17.5053 7.27267 17.1533 6.642 16.816C6.01133 16.4787 5.476 16.002 5.036 15.386C4.596 14.77 4.376 13.978 4.376 13.01C4.376 12.1447 4.596 11.3893 5.036 10.744C5.476 10.0987 6.08467 9.60733 6.862 9.27C7.63933 8.93267 8.52667 8.764 9.524 8.764C10.6533 8.764 11.6653 9.07933 12.56 9.71C13.4693 10.326 14.144 11.25 14.584 12.482L12.494 13.23C12.2153 12.4233 11.8193 11.822 11.306 11.426C10.7927 11.0153 10.2133 10.8027 9.568 10.788C8.70267 10.788 8.006 10.9933 7.478 11.404C6.96467 11.8 6.708 12.3353 6.708 13.01C6.708 13.5233 6.85467 13.956 7.148 14.308C7.456 14.66 7.83733 14.9533 8.292 15.188C8.76133 15.408 9.38467 15.6647 10.162 15.958C11.174 16.354 11.988 16.7207 12.604 17.058C13.22 17.3953 13.748 17.872 14.188 18.488C14.628 19.0893 14.848 19.8593 14.848 20.798C14.848 21.6927 14.628 22.4847 14.188 23.174C13.748 23.8633 13.11 24.3987 12.274 24.78C11.4527 25.1613 10.4847 25.352 9.37 25.352C8.182 25.352 7.104 25.0367 6.136 24.406C5.168 23.7607 4.33933 22.8367 3.65 21.634L5.586 20.556ZM19.0198 16.706H17.0398V14.682H19.0198V11.008H21.3518V14.682H23.8378V16.706H21.3518V25.198H19.0198V16.706ZM30.5488 25.242C29.5661 25.242 28.6934 25.022 27.9308 24.582C27.1681 24.1273 26.5668 23.504 26.1268 22.712C25.7014 21.9053 25.4888 20.996 25.4888 19.984C25.4888 18.9573 25.7014 18.048 26.1268 17.256C26.5668 16.4493 27.1681 15.826 27.9308 15.386C28.6934 14.9313 29.5661 14.704 30.5488 14.704C31.9128 14.704 32.9321 15.0487 33.6068 15.738C34.2814 16.4127 34.7141 17.014 34.9048 17.542C35.2128 18.2607 35.3668 19.1187 35.3668 20.116C35.3668 20.38 35.3594 20.5707 35.3448 20.688C35.3448 20.7907 35.3448 20.8567 35.3448 20.886H27.7768C27.9088 21.59 28.2388 22.162 28.7668 22.602C29.2948 23.042 29.8888 23.262 30.5488 23.262C31.2968 23.262 31.8761 23.1153 32.2868 22.822C32.6974 22.5287 32.9908 22.2353 33.1668 21.942L35.0368 22.778C34.7434 23.4527 34.2081 24.032 33.4308 24.516C32.6681 25 31.7074 25.242 30.5488 25.242ZM33.1448 19.038C33.0274 18.334 32.7561 17.7693 32.3308 17.344C31.9054 16.904 31.3114 16.684 30.5488 16.684C29.8594 16.684 29.2581 16.904 28.7448 17.344C28.2314 17.784 27.9088 18.3487 27.7768 19.038H33.1448ZM43.1986 23.284C44.0493 23.284 44.7239 22.9833 45.2226 22.382C45.7359 21.766 45.9926 20.9593 45.9926 19.962C45.9926 18.9647 45.7359 18.1653 45.2226 17.564C44.7239 16.948 44.0493 16.64 43.1986 16.64C42.6853 16.64 42.2013 16.7867 41.7466 17.08C41.3066 17.3733 40.9546 17.7767 40.6906 18.29C40.4413 18.8033 40.3166 19.3607 40.3166 19.962C40.3166 20.5633 40.4413 21.1207 40.6906 21.634C40.9546 22.1473 41.3066 22.5507 41.7466 22.844C42.2013 23.1373 42.6853 23.284 43.1986 23.284ZM37.9626 14.682H40.2946V16.222C40.6759 15.7233 41.1599 15.342 41.7466 15.078C42.3333 14.814 42.8613 14.682 43.3306 14.682C44.2986 14.682 45.1566 14.9093 45.9046 15.364C46.6673 15.804 47.2613 16.4273 47.6866 17.234C48.1119 18.026 48.3246 18.9353 48.3246 19.962C48.3246 20.9887 48.1119 21.9053 47.6866 22.712C47.2613 23.5187 46.6673 24.1493 45.9046 24.604C45.1566 25.044 44.2986 25.264 43.3306 25.264C42.8466 25.264 42.3113 25.132 41.7246 24.868C41.1526 24.604 40.6759 24.2153 40.2946 23.702V29.84H37.9626V14.682ZM61.6123 25.066L59.2803 25.044V11.558L56.4643 13.12L55.4963 11.162L59.3023 9.072H61.6123V25.066Z" fill="#00A42E"/>
<path d="M5.586 20.556L8.25186 19.1801C7.87941 18.4584 7.2303 17.9186 6.45286 17.684C5.67541 17.4493 4.83605 17.5399 4.12654 17.9349L5.586 20.556ZM7.258 22.624L5.49349 25.0502C5.5021 25.0565 5.51075 25.0627 5.51943 25.0689L7.258 22.624ZM11.702 22.646L13.5984 24.9706C13.6105 24.9607 13.6225 24.9508 13.6344 24.9407L11.702 22.646ZM12.076 19.478L9.77134 21.3986C9.78676 21.4171 9.80241 21.4354 9.81827 21.4535L12.076 19.478ZM10.954 18.642L9.61236 21.3253C9.64765 21.3429 9.68328 21.3599 9.71924 21.3761L10.954 18.642ZM9.106 17.872L10.1479 15.0588C10.1413 15.0563 10.1346 15.0538 10.1279 15.0514L9.106 17.872ZM6.642 16.816L5.22704 19.4614L6.642 16.816ZM5.036 15.386L2.5948 17.1297H2.5948L5.036 15.386ZM5.036 10.744L7.51468 12.434L7.51468 12.434L5.036 10.744ZM6.862 9.27L5.66772 6.51796L6.862 9.27ZM12.56 9.71L10.8315 12.162C10.8467 12.1727 10.8621 12.1833 10.8775 12.1938L12.56 9.71ZM14.584 12.482L15.5949 15.3066C17.1541 14.7485 17.9662 13.0326 17.4092 11.473L14.584 12.482ZM12.494 13.23L9.65843 14.2096C9.9201 14.967 10.474 15.5883 11.1966 15.9349C11.9191 16.2815 12.7504 16.3246 13.5049 16.0546L12.494 13.23ZM11.306 11.426L9.43191 13.7686C9.44571 13.7796 9.4596 13.7906 9.47359 13.8013L11.306 11.426ZM9.568 10.788L9.63616 7.78877C9.61345 7.78826 9.59072 7.788 9.568 7.788V10.788ZM7.478 11.404L9.31043 13.7794L9.31982 13.7721L7.478 11.404ZM7.148 14.308L4.84334 16.2286C4.85876 16.2471 4.87441 16.2654 4.89027 16.2835L7.148 14.308ZM8.292 15.188L6.91607 17.8539C6.94996 17.8714 6.98417 17.8882 7.0187 17.9044L8.292 15.188ZM10.162 15.958L11.2552 13.1643C11.2439 13.1598 11.2325 13.1555 11.2212 13.1512L10.162 15.958ZM12.604 17.058L14.0449 14.4267H14.0449L12.604 17.058ZM14.188 18.488L11.7468 20.2317C11.7534 20.241 11.7602 20.2503 11.7669 20.2595L14.188 18.488ZM14.188 23.174L11.6592 21.5599L11.6592 21.5599L14.188 23.174ZM12.274 24.78L11.029 22.0505C11.0229 22.0533 11.0168 22.0561 11.0107 22.059L12.274 24.78ZM6.136 24.406L4.4719 26.9022C4.48069 26.908 4.48951 26.9138 4.49836 26.9196L6.136 24.406ZM3.65 21.634L2.19054 19.0129C1.48976 19.4031 0.974423 20.0577 0.759599 20.8305C0.544776 21.6033 0.648362 22.4299 1.04723 23.1258L3.65 21.634ZM2.92014 21.9319C3.54525 23.1431 4.3785 24.2393 5.49349 25.0502L9.02252 20.1978C8.84683 20.07 8.56541 19.7876 8.25186 19.1801L2.92014 21.9319ZM5.51943 25.0689C6.63172 25.8598 7.92672 26.328 9.348 26.328V20.328C9.30261 20.328 9.20428 20.3268 8.99657 20.1791L5.51943 25.0689ZM9.348 26.328C10.7742 26.328 12.3245 26.0098 13.5984 24.9706L9.80562 20.3214C9.87944 20.2612 9.91774 20.2595 9.86067 20.276C9.79526 20.2949 9.63595 20.328 9.348 20.328V26.328ZM13.6344 24.9407C14.9186 23.8593 15.538 22.3708 15.538 20.776H9.538C9.538 20.801 9.53504 20.7256 9.59023 20.6021C9.6478 20.4733 9.72594 20.388 9.76959 20.3513L13.6344 24.9407ZM15.538 20.776C15.538 19.6124 15.1682 18.4562 14.3337 17.5025L9.81827 21.4535C9.72805 21.3504 9.64831 21.2189 9.59619 21.0725C9.54555 20.9302 9.538 20.8221 9.538 20.776H15.538ZM14.3807 17.5574C13.7717 16.8267 13.0197 16.2831 12.1888 15.9079L9.71924 21.3761C9.76299 21.3959 9.78114 21.4092 9.78306 21.4106C9.78436 21.4116 9.78314 21.4108 9.7803 21.4081C9.77745 21.4054 9.77429 21.4021 9.77134 21.3986L14.3807 17.5574ZM12.2956 15.9587C11.7134 15.6676 10.981 15.3673 10.1479 15.0588L8.06406 20.6852C8.81504 20.9634 9.31457 21.1764 9.61236 21.3253L12.2956 15.9587ZM10.1279 15.0514C9.19082 14.7119 8.5149 14.4156 8.05696 14.1706L5.22704 19.4614C6.03044 19.8911 6.99718 20.2988 8.08405 20.6926L10.1279 15.0514ZM8.05696 14.1706C7.85686 14.0636 7.66508 13.9053 7.4772 13.6423L2.5948 17.1297C3.28692 18.0987 4.16581 18.8937 5.22704 19.4614L8.05696 14.1706ZM7.4772 13.6423C7.47583 13.6404 7.47095 13.6333 7.46363 13.6177C7.45613 13.6017 7.44427 13.5728 7.43155 13.5271C7.4057 13.434 7.376 13.2694 7.376 13.01H1.376C1.376 14.4287 1.70159 15.8792 2.5948 17.1297L7.4772 13.6423ZM7.376 13.01C7.376 12.6798 7.45061 12.528 7.51468 12.434L2.55732 9.05399C1.74139 10.2507 1.376 11.6095 1.376 13.01H7.376ZM7.51468 12.434C7.60839 12.2966 7.75291 12.1537 8.05628 12.022L5.66772 6.51796C4.41643 7.06098 3.34361 7.90076 2.55732 9.05399L7.51468 12.434ZM8.05628 12.022C8.39603 11.8746 8.86579 11.764 9.524 11.764V5.764C8.18754 5.764 6.88264 5.99073 5.66772 6.51796L8.05628 12.022ZM9.524 11.764C10.0554 11.764 10.4595 11.8998 10.8315 12.162L14.2885 7.25798C12.8711 6.25886 11.2513 5.764 9.524 5.764V11.764ZM10.8775 12.1938C11.1638 12.3877 11.4911 12.7416 11.7588 13.491L17.4092 11.473C16.7969 9.75842 15.7749 8.26427 14.2425 7.22624L10.8775 12.1938ZM13.5731 9.65745L11.4831 10.4054L13.5049 16.0546L15.5949 15.3066L13.5731 9.65745ZM15.3296 12.2504C14.9192 11.0626 14.2408 9.90107 13.1384 9.05065L9.47359 13.8013C9.39787 13.7429 9.51143 13.784 9.65843 14.2096L15.3296 12.2504ZM13.1801 9.08339C12.1633 8.26994 10.9521 7.81868 9.63616 7.78877L9.49984 13.7872C9.50615 13.7874 9.50285 13.7877 9.49209 13.7857C9.48115 13.7837 9.46737 13.7801 9.45269 13.7747C9.43805 13.7694 9.42753 13.764 9.42209 13.7609C9.41687 13.7579 9.42023 13.7593 9.43191 13.7686L13.1801 9.08339ZM9.568 7.788C8.233 7.788 6.8279 8.10905 5.63618 9.03594L9.31982 13.7721C9.26288 13.8163 9.22545 13.8253 9.24464 13.8196C9.27085 13.8119 9.36928 13.788 9.568 13.788V7.788ZM5.64559 9.02865C4.36174 10.019 3.708 11.4494 3.708 13.01H9.708C9.708 13.0602 9.69632 13.2104 9.60565 13.3995C9.51314 13.5924 9.39013 13.7178 9.31041 13.7793L5.64559 9.02865ZM3.708 13.01C3.708 14.1353 4.04636 15.2722 4.84334 16.2286L9.45266 12.3874C9.54148 12.494 9.61372 12.6222 9.6592 12.7564C9.70315 12.886 9.708 12.9792 9.708 13.01H3.708ZM4.89027 16.2835C5.4686 16.9445 6.15827 17.4627 6.91607 17.8539L9.66793 12.5221C9.5164 12.4439 9.4434 12.3755 9.40573 12.3325L4.89027 16.2835ZM7.0187 17.9044C7.58699 18.1708 8.2905 18.4583 9.10283 18.7648L11.2212 13.1512C10.4788 12.8711 9.93568 12.6452 9.5653 12.4716L7.0187 17.9044ZM9.0688 18.7517C10.0185 19.1233 10.7026 19.4371 11.1631 19.6893L14.0449 14.4267C13.2734 14.0042 12.3295 13.5847 11.2552 13.1643L9.0688 18.7517ZM11.1631 19.6893C11.3528 19.7932 11.5484 19.9539 11.7468 20.2317L16.6292 16.7443C15.9476 15.7901 15.0872 14.9974 14.0449 14.4267L11.1631 19.6893ZM11.7669 20.2595C11.7669 20.2595 11.7674 20.2601 11.7683 20.2617C11.7692 20.2632 11.771 20.2664 11.7735 20.2716C11.7784 20.2818 11.7878 20.3035 11.7984 20.3407C11.82 20.4162 11.848 20.5608 11.848 20.798H17.848C17.848 19.3894 17.5132 17.952 16.6091 16.7165L11.7669 20.2595ZM11.848 20.798C11.848 21.1765 11.7628 21.3977 11.6592 21.5599L16.7168 24.7881C17.4932 23.5717 17.848 22.2088 17.848 20.798H11.848ZM11.6592 21.5599C11.5681 21.7027 11.4056 21.8787 11.029 22.0505L13.519 27.5095C14.8144 26.9186 15.9279 26.024 16.7168 24.7881L11.6592 21.5599ZM11.0107 22.059C10.6657 22.2192 10.1467 22.352 9.37 22.352V28.352C10.8226 28.352 12.2397 28.1035 13.5373 27.501L11.0107 22.059ZM9.37 22.352C8.74608 22.352 8.24006 22.1963 7.77364 21.8924L4.49836 26.9196C5.96794 27.877 7.61792 28.352 9.37 28.352V22.352ZM7.8001 21.9098C7.28576 21.567 6.75503 21.0184 6.25277 20.1422L1.04723 23.1258C1.92364 24.6549 3.05024 25.9544 4.4719 26.9022L7.8001 21.9098ZM5.10946 24.2551L7.04546 23.1771L4.12654 17.9349L2.19054 19.0129L5.10946 24.2551ZM19.0198 16.706H22.0198C22.0198 15.0491 20.6766 13.706 19.0198 13.706V16.706ZM17.0398 16.706H14.0398C14.0398 18.3629 15.3829 19.706 17.0398 19.706V16.706ZM17.0398 14.682V11.682C15.3829 11.682 14.0398 13.0251 14.0398 14.682H17.0398ZM19.0198 14.682V17.682C20.6766 17.682 22.0198 16.3389 22.0198 14.682H19.0198ZM19.0198 11.008V8.008C17.3629 8.008 16.0197 9.35114 16.0197 11.008H19.0198ZM21.3517 11.008H24.3517C24.3517 9.35114 23.0086 8.008 21.3517 8.008V11.008ZM21.3517 14.682H18.3517C18.3517 16.3389 19.6949 17.682 21.3517 17.682V14.682ZM23.8378 14.682H26.8378C26.8378 13.0251 25.4946 11.682 23.8378 11.682V14.682ZM23.8378 16.706V19.706C25.4946 19.706 26.8378 18.3629 26.8378 16.706H23.8378ZM21.3517 16.706V13.706C19.6949 13.706 18.3517 15.0491 18.3517 16.706H21.3517ZM21.3517 25.198V28.198C23.0086 28.198 24.3517 26.8549 24.3517 25.198H21.3517ZM19.0198 25.198H16.0197C16.0197 26.8549 17.3629 28.198 19.0198 28.198V25.198ZM19.0198 13.706H17.0398V19.706H19.0198V13.706ZM20.0397 16.706V14.682H14.0398V16.706H20.0397ZM17.0398 17.682H19.0198V11.682H17.0398V17.682ZM22.0198 14.682V11.008H16.0197V14.682H22.0198ZM19.0198 14.008H21.3517V8.008H19.0198V14.008ZM18.3517 11.008V14.682H24.3517V11.008H18.3517ZM21.3517 17.682H23.8378V11.682H21.3517V17.682ZM20.8378 14.682V16.706H26.8378V14.682H20.8378ZM23.8378 13.706H21.3517V19.706H23.8378V13.706ZM18.3517 16.706V25.198H24.3517V16.706H18.3517ZM21.3517 22.198H19.0198V28.198H21.3517V22.198ZM22.0198 25.198V16.706H16.0197V25.198H22.0198ZM27.9308 24.582L26.3946 27.1588C26.4069 27.1662 26.4192 27.1734 26.4316 27.1806L27.9308 24.582ZM26.1268 22.712L23.4731 24.1112C23.4833 24.1306 23.4937 24.1498 23.5043 24.1689L26.1268 22.712ZM26.1268 17.256L23.4931 15.8194C23.49 15.8252 23.4869 15.8309 23.4838 15.8366L26.1268 17.256ZM27.9308 15.386L29.4299 17.9846C29.4423 17.9774 29.4547 17.9702 29.467 17.9628L27.9308 15.386ZM33.6068 15.738L31.4628 17.8364C31.4703 17.8441 31.4779 17.8517 31.4855 17.8593L33.6068 15.738ZM34.9048 17.542L32.0831 18.5609C32.1029 18.6158 32.1244 18.6701 32.1473 18.7238L34.9048 17.542ZM35.3448 20.688L32.3679 20.3159C32.3525 20.4393 32.3448 20.5636 32.3448 20.688H35.3448ZM35.3448 20.886V23.886C37.0016 23.886 38.3448 22.5429 38.3448 20.886H35.3448ZM27.7768 20.886V17.886C26.8843 17.886 26.0382 18.2833 25.4683 18.9701C24.8983 19.6568 24.6637 20.5617 24.8282 21.4389L27.7768 20.886ZM28.7668 22.602L26.8462 24.9067L28.7668 22.602ZM32.2868 22.822L30.5431 20.3808L30.5431 20.3808L32.2868 22.822ZM33.1668 21.942L34.3912 19.2032C33.0054 18.5837 31.3753 19.0969 30.5943 20.3985L33.1668 21.942ZM35.0368 22.778L37.788 23.9742C38.4438 22.4658 37.7628 20.7105 36.2612 20.0392L35.0368 22.778ZM33.4308 24.516L31.8451 21.9693C31.8378 21.9738 31.8306 21.9784 31.8233 21.983L33.4308 24.516ZM33.1448 19.038V22.038C34.0266 22.038 34.8638 21.65 35.4338 20.9771C36.0039 20.3043 36.2489 19.4147 36.104 18.5448L33.1448 19.038ZM32.3308 17.344L30.1738 19.4291C30.1856 19.4412 30.1975 19.4533 30.2095 19.4653L32.3308 17.344ZM28.7448 17.344L26.7924 15.0662L28.7448 17.344ZM27.7768 19.038L24.8303 18.4738C24.6621 19.3523 24.8947 20.2601 25.4646 20.9495C26.0345 21.6389 26.8823 22.038 27.7768 22.038V19.038ZM30.5488 22.242C30.0299 22.242 29.6855 22.1309 29.4299 21.9834L26.4316 27.1806C27.7014 27.9131 29.1023 28.242 30.5488 28.242V22.242ZM29.467 22.0052C29.1685 21.8272 28.9378 21.5944 28.7493 21.2551L23.5043 24.1689C24.1958 25.4136 25.1678 26.4275 26.3946 27.1588L29.467 22.0052ZM28.7805 21.3128C28.6067 20.9831 28.4888 20.5628 28.4888 19.984H22.4888C22.4888 21.4292 22.7962 22.8275 23.4731 24.1112L28.7805 21.3128ZM28.4888 19.984C28.4888 19.3816 28.6103 18.9724 28.7698 18.6754L23.4838 15.8366C22.7926 17.1236 22.4888 18.533 22.4888 19.984H28.4888ZM28.7605 18.6926C28.9484 18.3481 29.1664 18.1366 29.4299 17.9846L26.4316 12.7874C25.1698 13.5154 24.1852 14.5506 23.4931 15.8194L28.7605 18.6926ZM29.467 17.9628C29.7166 17.814 30.0476 17.704 30.5488 17.704V11.704C29.0846 11.704 27.6703 12.0487 26.3946 12.8092L29.467 17.9628ZM30.5488 17.704C31.4449 17.704 31.5521 17.9277 31.4628 17.8364L35.7508 13.6396C34.3121 12.1696 32.3806 11.704 30.5488 11.704V17.704ZM31.4855 17.8593C31.7392 18.113 31.9027 18.3089 32.0021 18.4471C32.1048 18.5898 32.1066 18.626 32.0831 18.5609L37.7264 16.5231C37.3162 15.387 36.5255 14.4141 35.7281 13.6167L31.4855 17.8593ZM32.1473 18.7238C32.2578 18.9814 32.3668 19.4173 32.3668 20.116H38.3668C38.3668 18.82 38.1678 17.54 37.6622 16.3602L32.1473 18.7238ZM32.3668 20.116C32.3668 20.2229 32.3652 20.2962 32.3635 20.3417C32.3626 20.3638 32.362 20.3733 32.362 20.3725C32.3621 20.3718 32.3624 20.3668 32.3633 20.358C32.3641 20.3495 32.3655 20.3351 32.3679 20.3159L38.3216 21.0601C38.3613 20.7429 38.3668 20.3911 38.3668 20.116H32.3668ZM32.3448 20.688C32.3448 20.6882 32.3448 20.6884 32.3448 20.6886C32.3448 20.6888 32.3448 20.689 32.3448 20.6892C32.3448 20.6894 32.3448 20.6896 32.3448 20.6898C32.3448 20.69 32.3448 20.6902 32.3448 20.6904C32.3448 20.6906 32.3448 20.6908 32.3448 20.691C32.3448 20.6912 32.3448 20.6914 32.3448 20.6916C32.3448 20.6918 32.3448 20.692 32.3448 20.6922C32.3448 20.6924 32.3448 20.6926 32.3448 20.6928C32.3448 20.693 32.3448 20.6932 32.3448 20.6934C32.3448 20.6936 32.3448 20.6938 32.3448 20.694C32.3448 20.6942 32.3448 20.6944 32.3448 20.6946C32.3448 20.6948 32.3448 20.695 32.3448 20.6952C32.3448 20.6954 32.3448 20.6956 32.3448 20.6957C32.3448 20.6959 32.3448 20.6961 32.3448 20.6963C32.3448 20.6965 32.3448 20.6967 32.3448 20.6969C32.3448 20.6971 32.3448 20.6973 32.3448 20.6975C32.3448 20.6977 32.3448 20.6979 32.3448 20.6981C32.3448 20.6983 32.3448 20.6985 32.3448 20.6987C32.3448 20.6989 32.3448 20.6991 32.3448 20.6993C32.3448 20.6995 32.3448 20.6997 32.3448 20.6999C32.3448 20.7001 32.3448 20.7003 32.3448 20.7004C32.3448 20.7006 32.3448 20.7008 32.3448 20.701C32.3448 20.7012 32.3448 20.7014 32.3448 20.7016C32.3448 20.7018 32.3448 20.702 32.3448 20.7022C32.3448 20.7024 32.3448 20.7026 32.3448 20.7028C32.3448 20.703 32.3448 20.7032 32.3448 20.7034C32.3448 20.7036 32.3448 20.7037 32.3448 20.7039C32.3448 20.7041 32.3448 20.7043 32.3448 20.7045C32.3448 20.7047 32.3448 20.7049 32.3448 20.7051C32.3448 20.7053 32.3448 20.7055 32.3448 20.7057C32.3448 20.7059 32.3448 20.7061 32.3448 20.7062C32.3448 20.7064 32.3448 20.7066 32.3448 20.7068C32.3448 20.707 32.3448 20.7072 32.3448 20.7074C32.3448 20.7076 32.3448 20.7078 32.3448 20.708C32.3448 20.7082 32.3448 20.7083 32.3448 20.7085C32.3448 20.7087 32.3448 20.7089 32.3448 20.7091C32.3448 20.7093 32.3448 20.7095 32.3448 20.7097C32.3448 20.7099 32.3448 20.7101 32.3448 20.7103C32.3448 20.7104 32.3448 20.7106 32.3448 20.7108C32.3448 20.711 32.3448 20.7112 32.3448 20.7114C32.3448 20.7116 32.3448 20.7118 32.3448 20.712C32.3448 20.7121 32.3448 20.7123 32.3448 20.7125C32.3448 20.7127 32.3448 20.7129 32.3448 20.7131C32.3448 20.7133 32.3448 20.7135 32.3448 20.7137C32.3448 20.7138 32.3448 20.714 32.3448 20.7142C32.3448 20.7144 32.3448 20.7146 32.3448 20.7148C32.3448 20.715 32.3448 20.7152 32.3448 20.7153C32.3448 20.7155 32.3448 20.7157 32.3448 20.7159C32.3448 20.7161 32.3448 20.7163 32.3448 20.7165C32.3448 20.7167 32.3448 20.7168 32.3448 20.717C32.3448 20.7172 32.3448 20.7174 32.3448 20.7176C32.3448 20.7178 32.3448 20.718 32.3448 20.7181C32.3448 20.7183 32.3448 20.7185 32.3448 20.7187C32.3448 20.7189 32.3448 20.7191 32.3448 20.7193C32.3448 20.7194 32.3448 20.7196 32.3448 20.7198C32.3448 20.72 32.3448 20.7202 32.3448 20.7204C32.3448 20.7206 32.3448 20.7207 32.3448 20.7209C32.3448 20.7211 32.3448 20.7213 32.3448 20.7215C32.3448 20.7217 32.3448 20.7218 32.3448 20.722C32.3448 20.7222 32.3448 20.7224 32.3448 20.7226C32.3448 20.7228 32.3448 20.7229 32.3448 20.7231C32.3448 20.7233 32.3448 20.7235 32.3448 20.7237C32.3448 20.7239 32.3448 20.7241 32.3448 20.7242C32.3448 20.7244 32.3448 20.7246 32.3448 20.7248C32.3448 20.725 32.3448 20.7251 32.3448 20.7253C32.3448 20.7255 32.3448 20.7257 32.3448 20.7259C32.3448 20.7261 32.3448 20.7262 32.3448 20.7264C32.3448 20.7266 32.3448 20.7268 32.3448 20.727C32.3448 20.7271 32.3448 20.7273 32.3448 20.7275C32.3448 20.7277 32.3448 20.7279 32.3448 20.7281C32.3448 20.7282 32.3448 20.7284 32.3448 20.7286C32.3448 20.7288 32.3448 20.729 32.3448 20.7291C32.3448 20.7293 32.3448 20.7295 32.3448 20.7297C32.3448 20.7299 32.3448 20.73 32.3448 20.7302C32.3448 20.7304 32.3448 20.7306 32.3448 20.7308C32.3448 20.7309 32.3448 20.7311 32.3448 20.7313C32.3448 20.7315 32.3448 20.7317 32.3448 20.7318C32.3448 20.732 32.3448 20.7322 32.3448 20.7324C32.3448 20.7325 32.3448 20.7327 32.3448 20.7329C32.3448 20.7331 32.3448 20.7333 32.3448 20.7334C32.3448 20.7336 32.3448 20.7338 32.3448 20.734C32.3448 20.7342 32.3448 20.7343 32.3448 20.7345C32.3448 20.7347 32.3448 20.7349 32.3448 20.735C32.3448 20.7352 32.3448 20.7354 32.3448 20.7356C32.3448 20.7357 32.3448 20.7359 32.3448 20.7361C32.3448 20.7363 32.3448 20.7365 32.3448 20.7366C32.3448 20.7368 32.3448 20.737 32.3448 20.7372C32.3448 20.7373 32.3448 20.7375 32.3448 20.7377C32.3448 20.7379 32.3448 20.738 32.3448 20.7382C32.3448 20.7384 32.3448 20.7386 32.3448 20.7387C32.3448 20.7389 32.3448 20.7391 32.3448 20.7393C32.3448 20.7394 32.3448 20.7396 32.3448 20.7398C32.3448 20.74 32.3448 20.7401 32.3448 20.7403C32.3448 20.7405 32.3448 20.7407 32.3448 20.7408C32.3448 20.741 32.3448 20.7412 32.3448 20.7414C32.3448 20.7415 32.3448 20.7417 32.3448 20.7419C32.3448 20.7421 32.3448 20.7422 32.3448 20.7424C32.3448 20.7426 32.3448 20.7428 32.3448 20.7429C32.3448 20.7431 32.3448 20.7433 32.3448 20.7434C32.3448 20.7436 32.3448 20.7438 32.3448 20.744C32.3448 20.7441 32.3448 20.7443 32.3448 20.7445C32.3448 20.7446 32.3448 20.7448 32.3448 20.745C32.3448 20.7452 32.3448 20.7453 32.3448 20.7455C32.3448 20.7457 32.3448 20.7459 32.3448 20.746C32.3448 20.7462 32.3448 20.7464 32.3448 20.7465C32.3448 20.7467 32.3448 20.7469 32.3448 20.7471C32.3448 20.7472 32.3448 20.7474 32.3448 20.7476C32.3448 20.7477 32.3448 20.7479 32.3448 20.7481C32.3448 20.7482 32.3448 20.7484 32.3448 20.7486C32.3448 20.7488 32.3448 20.7489 32.3448 20.7491C32.3448 20.7493 32.3448 20.7494 32.3448 20.7496C32.3448 20.7498 32.3448 20.7499 32.3448 20.7501C32.3448 20.7503 32.3448 20.7505 32.3448 20.7506C32.3448 20.7508 32.3448 20.751 32.3448 20.7511C32.3448 20.7513 32.3448 20.7515 32.3448 20.7516C32.3448 20.7518 32.3448 20.752 32.3448 20.7521C32.3448 20.7523 32.3448 20.7525 32.3448 20.7526C32.3448 20.7528 32.3448 20.753 32.3448 20.7531C32.3448 20.7533 32.3448 20.7535 32.3448 20.7536C32.3448 20.7538 32.3448 20.754 32.3448 20.7541C32.3448 20.7543 32.3448 20.7545 32.3448 20.7546C32.3448 20.7548 32.3448 20.755 32.3448 20.7551C32.3448 20.7553 32.3448 20.7555 32.3448 20.7556C32.3448 20.7558 32.3448 20.756 32.3448 20.7561C32.3448 20.7563 32.3448 20.7565 32.3448 20.7566C32.3448 20.7568 32.3448 20.757 32.3448 20.7571C32.3448 20.7573 32.3448 20.7575 32.3448 20.7576C32.3448 20.7578 32.3448 20.758 32.3448 20.7581C32.3448 20.7583 32.3448 20.7585 32.3448 20.7586C32.3448 20.7588 32.3448 20.7589 32.3448 20.7591C32.3448 20.7593 32.3448 20.7594 32.3448 20.7596C32.3448 20.7598 32.3448 20.7599 32.3448 20.7601C32.3448 20.7603 32.3448 20.7604 32.3448 20.7606C32.3448 20.7607 32.3448 20.7609 32.3448 20.7611C32.3448 20.7612 32.3448 20.7614 32.3448 20.7616C32.3448 20.7617 32.3448 20.7619 32.3448 20.7621C32.3448 20.7622 32.3448 20.7624 32.3448 20.7625C32.3448 20.7627 32.3448 20.7629 32.3448 20.763C32.3448 20.7632 32.3448 20.7633 32.3448 20.7635C32.3448 20.7637 32.3448 20.7638 32.3448 20.764C32.3448 20.7642 32.3448 20.7643 32.3448 20.7645C32.3448 20.7646 32.3448 20.7648 32.3448 20.765C32.3448 20.7651 32.3448 20.7653 32.3448 20.7654C32.3448 20.7656 32.3448 20.7658 32.3448 20.7659C32.3448 20.7661 32.3448 20.7662 32.3448 20.7664C32.3448 20.7666 32.3448 20.7667 32.3448 20.7669C32.3448 20.767 32.3448 20.7672 32.3448 20.7674C32.3448 20.7675 32.3448 20.7677 32.3448 20.7678C32.3448 20.768 32.3448 20.7682 32.3448 20.7683C32.3448 20.7685 32.3448 20.7686 32.3448 20.7688C32.3448 20.769 32.3448 20.7691 32.3448 20.7693C32.3448 20.7694 32.3448 20.7696 32.3448 20.7697C32.3448 20.7699 32.3448 20.7701 32.3448 20.7702C32.3448 20.7704 32.3448 20.7705 32.3448 20.7707C32.3448 20.7708 32.3448 20.771 32.3448 20.7712C32.3448 20.7713 32.3448 20.7715 32.3448 20.7716C32.3448 20.7718 32.3448 20.7719 32.3448 20.7721C32.3448 20.7723 32.3448 20.7724 32.3448 20.7726C32.3448 20.7727 32.3448 20.7729 32.3448 20.773C32.3448 20.7732 32.3448 20.7734 32.3448 20.7735C32.3448 20.7737 32.3448 20.7738 32.3448 20.774C32.3448 20.7741 32.3448 20.7743 32.3448 20.7744C32.3448 20.7746 32.3448 20.7748 32.3448 20.7749C32.3448 20.7751 32.3448 20.7752 32.3448 20.7754C32.3448 20.7755 32.3448 20.7757 32.3448 20.7758C32.3448 20.776 32.3448 20.7761 32.3448 20.7763C32.3448 20.7765 32.3448 20.7766 32.3448 20.7768C32.3448 20.7769 32.3448 20.7771 32.3448 20.7772C32.3448 20.7774 32.3448 20.7775 32.3448 20.7777C32.3448 20.7778 32.3448 20.778 32.3448 20.7781C32.3448 20.7783 32.3448 20.7784 32.3448 20.7786C32.3448 20.7787 32.3448 20.7789 32.3448 20.7791C32.3448 20.7792 32.3448 20.7794 32.3448 20.7795C32.3448 20.7797 32.3448 20.7798 32.3448 20.78C32.3448 20.7801 32.3448 20.7803 32.3448 20.7804C32.3448 20.7806 32.3448 20.7807 32.3448 20.7809C32.3448 20.781 32.3448 20.7812 32.3448 20.7813C32.3448 20.7815 32.3448 20.7816 32.3448 20.7818C32.3448 20.7819 32.3448 20.7821 32.3448 20.7822C32.3448 20.7824 32.3448 20.7825 32.3448 20.7827C32.3448 20.7828 32.3448 20.783 32.3448 20.7831C32.3448 20.7833 32.3448 20.7834 32.3448 20.7836C32.3448 20.7837 32.3448 20.7839 32.3448 20.784C32.3448 20.7842 32.3448 20.7843 32.3448 20.7845C32.3448 20.7846 32.3448 20.7848 32.3448 20.7849C32.3448 20.7851 32.3448 20.7852 32.3448 20.7854C32.3448 20.7855 32.3448 20.7857 32.3448 20.7858C32.3448 20.786 32.3448 20.7861 32.3448 20.7863C32.3448 20.7864 32.3448 20.7866 32.3448 20.7867C32.3448 20.7869 32.3448 20.787 32.3448 20.7871C32.3448 20.7873 32.3448 20.7874 32.3448 20.7876C32.3448 20.7877 32.3448 20.7879 32.3448 20.788C32.3448 20.7882 32.3448 20.7883 32.3448 20.7885C32.3448 20.7886 32.3448 20.7888 32.3448 20.7889C32.3448 20.7891 32.3448 20.7892 32.3448 20.7893C32.3448 20.7895 32.3448 20.7896 32.3448 20.7898C32.3448 20.7899 32.3448 20.7901 32.3448 20.7902C32.3448 20.7904 32.3448 20.7905 32.3448 20.7907C32.3448 20.7908 32.3448 20.7909 32.3448 20.7911C32.3448 20.7912 32.3448 20.7914 32.3448 20.7915C32.3448 20.7917 32.3448 20.7918 32.3448 20.792C32.3448 20.7921 32.3448 20.7922 32.3448 20.7924C32.3448 20.7925 32.3448 20.7927 32.3448 20.7928C32.3448 20.793 32.3448 20.7931 32.3448 20.7933C32.3448 20.7934 32.3448 20.7935 32.3448 20.7937C32.3448 20.7938 32.3448 20.794 32.3448 20.7941C32.3448 20.7943 32.3448 20.7944 32.3448 20.7945C32.3448 20.7947 32.3448 20.7948 32.3448 20.795C32.3448 20.7951 32.3448 20.7953 32.3448 20.7954C32.3448 20.7955 32.3448 20.7957 32.3448 20.7958C32.3448 20.796 32.3448 20.7961 32.3448 20.7962C32.3448 20.7964 32.3448 20.7965 32.3448 20.7967C32.3448 20.7968 32.3448 20.797 32.3448 20.7971C32.3448 20.7972 32.3448 20.7974 32.3448 20.7975C32.3448 20.7977 32.3448 20.7978 32.3448 20.7979C32.3448 20.7981 32.3448 20.7982 32.3448 20.7984C32.3448 20.7985 32.3448 20.7986 32.3448 20.7988C32.3448 20.7989 32.3448 20.7991 32.3448 20.7992C32.3448 20.7993 32.3448 20.7995 32.3448 20.7996C32.3448 20.7998 32.3448 20.7999 32.3448 20.8C32.3448 20.8002 32.3448 20.8003 32.3448 20.8005C32.3448 20.8006 32.3448 20.8007 32.3448 20.8009C32.3448 20.801 32.3448 20.8011 32.3448 20.8013C32.3448 20.8014 32.3448 20.8016 32.3448 20.8017C32.3448 20.8018 32.3448 20.802 32.3448 20.8021C32.3448 20.8022 32.3448 20.8024 32.3448 20.8025C32.3448 20.8027 32.3448 20.8028 32.3448 20.8029C32.3448 20.8031 32.3448 20.8032 32.3448 20.8033C32.3448 20.8035 32.3448 20.8036 32.3448 20.8038C32.3448 20.8039 32.3448 20.804 32.3448 20.8042C32.3448 20.8043 32.3448 20.8044 32.3448 20.8046C32.3448 20.8047 32.3448 20.8048 32.3448 20.805C32.3448 20.8051 32.3448 20.8052 32.3448 20.8054C32.3448 20.8055 32.3448 20.8057 32.3448 20.8058C32.3448 20.8059 32.3448 20.8061 32.3448 20.8062C32.3448 20.8063 32.3448 20.8065 32.3448 20.8066C32.3448 20.8067 32.3448 20.8069 32.3448 20.807C32.3448 20.8071 32.3448 20.8073 32.3448 20.8074C32.3448 20.8075 32.3448 20.8077 32.3448 20.8078C32.3448 20.8079 32.3448 20.8081 32.3448 20.8082C32.3448 20.8083 32.3448 20.8085 32.3448 20.8086C32.3448 20.8087 32.3448 20.8089 32.3448 20.809C32.3448 20.8091 32.3448 20.8093 32.3448 20.8094C32.3448 20.8095 32.3448 20.8097 32.3448 20.8098C32.3448 20.8099 32.3448 20.8101 32.3448 20.8102C32.3448 20.8103 32.3448 20.8105 32.3448 20.8106C32.3448 20.8107 32.3448 20.8109 32.3448 20.811C32.3448 20.8111 32.3448 20.8112 32.3448 20.8114C32.3448 20.8115 32.3448 20.8116 32.3448 20.8118C32.3448 20.8119 32.3448 20.812 32.3448 20.8122C32.3448 20.8123 32.3448 20.8124 32.3448 20.8126C32.3448 20.8127 32.3448 20.8128 32.3448 20.8129C32.3448 20.8131 32.3448 20.8132 32.3448 20.8133C32.3448 20.8135 32.3448 20.8136 32.3448 20.8137C32.3448 20.8139 32.3448 20.814 32.3448 20.8141C32.3448 20.8142 32.3448 20.8144 32.3448 20.8145C32.3448 20.8146 32.3448 20.8148 32.3448 20.8149C32.3448 20.815 32.3448 20.8151 32.3448 20.8153C32.3448 20.8154 32.3448 20.8155 32.3448 20.8157C32.3448 20.8158 32.3448 20.8159 32.3448 20.816C32.3448 20.8162 32.3448 20.8163 32.3448 20.8164C32.3448 20.8166 32.3448 20.8167 32.3448 20.8168C32.3448 20.8169 32.3448 20.8171 32.3448 20.8172C32.3448 20.8173 32.3448 20.8174 32.3448 20.8176C32.3448 20.8177 32.3448 20.8178 32.3448 20.8179C32.3448 20.8181 32.3448 20.8182 32.3448 20.8183C32.3448 20.8185 32.3448 20.8186 32.3448 20.8187C32.3448 20.8188 32.3448 20.819 32.3448 20.8191C32.3448 20.8192 32.3448 20.8193 32.3448 20.8195C32.3448 20.8196 32.3448 20.8197 32.3448 20.8198C32.3448 20.82 32.3448 20.8201 32.3448 20.8202C32.3448 20.8203 32.3448 20.8205 32.3448 20.8206C32.3448 20.8207 32.3448 20.8208 32.3448 20.821C32.3448 20.8211 32.3448 20.8212 32.3448 20.8213C32.3448 20.8214 32.3448 20.8216 32.3448 20.8217C32.3448 20.8218 32.3448 20.8219 32.3448 20.8221C32.3448 20.8222 32.3448 20.8223 32.3448 20.8224C32.3448 20.8226 32.3448 20.8227 32.3448 20.8228C32.3448 20.8229 32.3448 20.823 32.3448 20.8232C32.3448 20.8233 32.3448 20.8234 32.3448 20.8235C32.3448 20.8237 32.3448 20.8238 32.3448 20.8239C32.3448 20.824 32.3448 20.8242 32.3448 20.8243C32.3448 20.8244 32.3448 20.8245 32.3448 20.8246C32.3448 20.8248 32.3448 20.8249 32.3448 20.825C32.3448 20.8251 32.3448 20.8252 32.3448 20.8254C32.3448 20.8255 32.3448 20.8256 32.3448 20.8257C32.3448 20.8258 32.3448 20.826 32.3448 20.8261C32.3448 20.8262 32.3448 20.8263 32.3448 20.8264C32.3448 20.8266 32.3448 20.8267 32.3448 20.8268C32.3448 20.8269 32.3448 20.827 32.3448 20.8272C32.3448 20.8273 32.3448 20.8274 32.3448 20.8275C32.3448 20.8276 32.3448 20.8278 32.3448 20.8279C32.3448 20.828 32.3448 20.8281 32.3448 20.8282C32.3448 20.8284 32.3448 20.8285 32.3448 20.8286C32.3448 20.8287 32.3448 20.8288 32.3448 20.8289C32.3448 20.8291 32.3448 20.8292 32.3448 20.8293C32.3448 20.8294 32.3448 20.8295 32.3448 20.8296C32.3448 20.8298 32.3448 20.8299 32.3448 20.83C32.3448 20.8301 32.3448 20.8302 32.3448 20.8304C32.3448 20.8305 32.3448 20.8306 32.3448 20.8307C32.3448 20.8308 32.3448 20.8309 32.3448 20.8311C32.3448 20.8312 32.3448 20.8313 32.3448 20.8314C32.3448 20.8315 32.3448 20.8316 32.3448 20.8317C32.3448 20.8319 32.3448 20.832 32.3448 20.8321C32.3448 20.8322 32.3448 20.8323 32.3448 20.8324C32.3448 20.8326 32.3448 20.8327 32.3448 20.8328C32.3448 20.8329 32.3448 20.833 32.3448 20.8331C32.3448 20.8332 32.3448 20.8334 32.3448 20.8335C32.3448 20.8336 32.3448 20.8337 32.3448 20.8338C32.3448 20.8339 32.3448 20.834 32.3448 20.8342C32.3448 20.8343 32.3448 20.8344 32.3448 20.8345C32.3448 20.8346 32.3448 20.8347 32.3448 20.8348C32.3448 20.835 32.3448 20.8351 32.3448 20.8352C32.3448 20.8353 32.3448 20.8354 32.3448 20.8355C32.3448 20.8356 32.3448 20.8357 32.3448 20.8359C32.3448 20.836 32.3448 20.8361 32.3448 20.8362C32.3448 20.8363 32.3448 20.8364 32.3448 20.8365C32.3448 20.8366 32.3448 20.8368 32.3448 20.8369C32.3448 20.837 32.3448 20.8371 32.3448 20.8372C32.3448 20.8373 32.3448 20.8374 32.3448 20.8375C32.3448 20.8376 32.3448 20.8378 32.3448 20.8379C32.3448 20.838 32.3448 20.8381 32.3448 20.8382C32.3448 20.8383 32.3448 20.8384 32.3448 20.8385C32.3448 20.8386 32.3448 20.8387 32.3448 20.8389C32.3448 20.839 32.3448 20.8391 32.3448 20.8392C32.3448 20.8393 32.3448 20.8394 32.3448 20.8395C32.3448 20.8396 32.3448 20.8397 32.3448 20.8398C32.3448 20.84 32.3448 20.8401 32.3448 20.8402C32.3448 20.8403 32.3448 20.8404 32.3448 20.8405C32.3448 20.8406 32.3448 20.8407 32.3448 20.8408C32.3448 20.8409 32.3448 20.841 32.3448 20.8411C32.3448 20.8413 32.3448 20.8414 32.3448 20.8415C32.3448 20.8416 32.3448 20.8417 32.3448 20.8418C32.3448 20.8419 32.3448 20.842 32.3448 20.8421C32.3448 20.8422 32.3448 20.8423 32.3448 20.8424C32.3448 20.8425 32.3448 20.8426 32.3448 20.8428C32.3448 20.8429 32.3448 20.843 32.3448 20.8431C32.3448 20.8432 32.3448 20.8433 32.3448 20.8434C32.3448 20.8435 32.3448 20.8436 32.3448 20.8437C32.3448 20.8438 32.3448 20.8439 32.3448 20.844C32.3448 20.8441 32.3448 20.8442 32.3448 20.8443C32.3448 20.8444 32.3448 20.8445 32.3448 20.8447C32.3448 20.8448 32.3448 20.8449 32.3448 20.845C32.3448 20.8451 32.3448 20.8452 32.3448 20.8453C32.3448 20.8454 32.3448 20.8455 32.3448 20.8456C32.3448 20.8457 32.3448 20.8458 32.3448 20.8459C32.3448 20.846 32.3448 20.8461 32.3448 20.8462C32.3448 20.8463 32.3448 20.8464 32.3448 20.8465C32.3448 20.8466 32.3448 20.8467 32.3448 20.8468C32.3448 20.8469 32.3448 20.847 32.3448 20.8471C32.3448 20.8472 32.3448 20.8473 32.3448 20.8475C32.3448 20.8476 32.3448 20.8477 32.3448 20.8478C32.3448 20.8479 32.3448 20.848 32.3448 20.8481C32.3448 20.8482 32.3448 20.8483 32.3448 20.8484C32.3448 20.8485 32.3448 20.8486 32.3448 20.8487C32.3448 20.8488 32.3448 20.8489 32.3448 20.849C32.3448 20.8491 32.3448 20.8492 32.3448 20.8493C32.3448 20.8494 32.3448 20.8495 32.3448 20.8496C32.3448 20.8497 32.3448 20.8498 32.3448 20.8499C32.3448 20.85 32.3448 20.8501 32.3448 20.8502C32.3448 20.8503 32.3448 20.8504 32.3448 20.8505C32.3448 20.8506 32.3448 20.8507 32.3448 20.8508C32.3448 20.8509 32.3448 20.851 32.3448 20.8511C32.3448 20.8512 32.3448 20.8513 32.3448 20.8514C32.3448 20.8515 32.3448 20.8516 32.3448 20.8517C32.3448 20.8518 32.3448 20.8519 32.3448 20.852C32.3448 20.8521 32.3448 20.8522 32.3448 20.8523C32.3448 20.8524 32.3448 20.8525 32.3448 20.8525C32.3448 20.8526 32.3448 20.8527 32.3448 20.8528C32.3448 20.8529 32.3448 20.853 32.3448 20.8531C32.3448 20.8532 32.3448 20.8533 32.3448 20.8534C32.3448 20.8535 32.3448 20.8536 32.3448 20.8537C32.3448 20.8538 32.3448 20.8539 32.3448 20.854C32.3448 20.8541 32.3448 20.8542 32.3448 20.8543C32.3448 20.8544 32.3448 20.8545 32.3448 20.8546C32.3448 20.8547 32.3448 20.8548 32.3448 20.8549C32.3448 20.855 32.3448 20.8551 32.3448 20.8551C32.3448 20.8552 32.3448 20.8553 32.3448 20.8554C32.3448 20.8555 32.3448 20.8556 32.3448 20.8557C32.3448 20.8558 32.3448 20.8559 32.3448 20.856C32.3448 20.8561 32.3448 20.8562 32.3448 20.8563C32.3448 20.8564 32.3448 20.8565 32.3448 20.8566C32.3448 20.8567 32.3448 20.8568 32.3448 20.8568C32.3448 20.8569 32.3448 20.857 32.3448 20.8571C32.3448 20.8572 32.3448 20.8573 32.3448 20.8574C32.3448 20.8575 32.3448 20.8576 32.3448 20.8577C32.3448 20.8578 32.3448 20.8579 32.3448 20.858C32.3448 20.8581 32.3448 20.8581 32.3448 20.8582C32.3448 20.8583 32.3448 20.8584 32.3448 20.8585C32.3448 20.8586 32.3448 20.8587 32.3448 20.8588C32.3448 20.8589 32.3448 20.859 32.3448 20.8591C32.3448 20.8591 32.3448 20.8592 32.3448 20.8593C32.3448 20.8594 32.3448 20.8595 32.3448 20.8596C32.3448 20.8597 32.3448 20.8598 32.3448 20.8599C32.3448 20.86 32.3448 20.8601 32.3448 20.8601C32.3448 20.8602 32.3448 20.8603 32.3448 20.8604C32.3448 20.8605 32.3448 20.8606 32.3448 20.8607C32.3448 20.8608 32.3448 20.8609 32.3448 20.861C32.3448 20.861 32.3448 20.8611 32.3448 20.8612C32.3448 20.8613 32.3448 20.8614 32.3448 20.8615C32.3448 20.8616 32.3448 20.8617 32.3448 20.8618C32.3448 20.8618 32.3448 20.8619 32.3448 20.862C32.3448 20.8621 32.3448 20.8622 32.3448 20.8623C32.3448 20.8624 32.3448 20.8625 32.3448 20.8625C32.3448 20.8626 32.3448 20.8627 32.3448 20.8628C32.3448 20.8629 32.3448 20.863 32.3448 20.8631C32.3448 20.8632 32.3448 20.8632 32.3448 20.8633C32.3448 20.8634 32.3448 20.8635 32.3448 20.8636C32.3448 20.8637 32.3448 20.8638 32.3448 20.8638C32.3448 20.8639 32.3448 20.864 32.3448 20.8641C32.3448 20.8642 32.3448 20.8643 32.3448 20.8644C32.3448 20.8644 32.3448 20.8645 32.3448 20.8646C32.3448 20.8647 32.3448 20.8648 32.3448 20.8649C32.3448 20.865 32.3448 20.865 32.3448 20.8651C32.3448 20.8652 32.3448 20.8653 32.3448 20.8654C32.3448 20.8655 32.3448 20.8655 32.3448 20.8656C32.3448 20.8657 32.3448 20.8658 32.3448 20.8659C32.3448 20.866 32.3448 20.8661 32.3448 20.8661C32.3448 20.8662 32.3448 20.8663 32.3448 20.8664C32.3448 20.8665 32.3448 20.8666 32.3448 20.8666C32.3448 20.8667 32.3448 20.8668 32.3448 20.8669C32.3448 20.867 32.3448 20.8671 32.3448 20.8671C32.3448 20.8672 32.3448 20.8673 32.3448 20.8674C32.3448 20.8675 32.3448 20.8675 32.3448 20.8676C32.3448 20.8677 32.3448 20.8678 32.3448 20.8679C32.3448 20.868 32.3448 20.868 32.3448 20.8681C32.3448 20.8682 32.3448 20.8683 32.3448 20.8684C32.3448 20.8684 32.3448 20.8685 32.3448 20.8686C32.3448 20.8687 32.3448 20.8688 32.3448 20.8688C32.3448 20.8689 32.3448 20.869 32.3448 20.8691C32.3448 20.8692 32.3448 20.8692 32.3448 20.8693C32.3448 20.8694 32.3448 20.8695 32.3448 20.8696C32.3448 20.8696 32.3448 20.8697 32.3448 20.8698C32.3448 20.8699 32.3448 20.87 32.3448 20.87C32.3448 20.8701 32.3448 20.8702 32.3448 20.8703C32.3448 20.8704 32.3448 20.8704 32.3448 20.8705C32.3448 20.8706 32.3448 20.8707 32.3448 20.8707C32.3448 20.8708 32.3448 20.8709 32.3448 20.871C32.3448 20.8711 32.3448 20.8711 32.3448 20.8712C32.3448 20.8713 32.3448 20.8714 32.3448 20.8715C32.3448 20.8715 32.3448 20.8716 32.3448 20.8717C32.3448 20.8718 32.3448 20.8718 32.3448 20.8719C32.3448 20.872 32.3448 20.8721 32.3448 20.8721C32.3448 20.8722 32.3448 20.8723 32.3448 20.8724C32.3448 20.8724 32.3448 20.8725 32.3448 20.8726C32.3448 20.8727 32.3448 20.8728 32.3448 20.8728C32.3448 20.8729 32.3448 20.873 32.3448 20.8731C32.3448 20.8731 32.3448 20.8732 32.3448 20.8733C32.3448 20.8734 32.3448 20.8734 32.3448 20.8735C32.3448 20.8736 32.3448 20.8737 32.3448 20.8737C32.3448 20.8738 32.3448 20.8739 32.3448 20.874C32.3448 20.874 32.3448 20.8741 32.3448 20.8742C32.3448 20.8743 32.3448 20.8743 32.3448 20.8744C32.3448 20.8745 32.3448 20.8745 32.3448 20.8746C32.3448 20.8747 32.3448 20.8748 32.3448 20.8748C32.3448 20.8749 32.3448 20.875 32.3448 20.8751C32.3448 20.8751 32.3448 20.8752 32.3448 20.8753C32.3448 20.8754 32.3448 20.8754 32.3448 20.8755C32.3448 20.8756 32.3448 20.8756 32.3448 20.8757C32.3448 20.8758 32.3448 20.8759 32.3448 20.8759C32.3448 20.876 32.3448 20.8761 32.3448 20.8761C32.3448 20.8762 32.3448 20.8763 32.3448 20.8764C32.3448 20.8764 32.3448 20.8765 32.3448 20.8766C32.3448 20.8766 32.3448 20.8767 32.3448 20.8768C32.3448 20.8769 32.3448 20.8769 32.3448 20.877C32.3448 20.8771 32.3448 20.8771 32.3448 20.8772C32.3448 20.8773 32.3448 20.8773 32.3448 20.8774C32.3448 20.8775 32.3448 20.8776 32.3448 20.8776C32.3448 20.8777 32.3448 20.8778 32.3448 20.8778C32.3448 20.8779 32.3448 20.878 32.3448 20.878C32.3448 20.8781 32.3448 20.8782 32.3448 20.8782C32.3448 20.8783 32.3448 20.8784 32.3448 20.8785C32.3448 20.8785 32.3448 20.8786 32.3448 20.8787C32.3448 20.8787 32.3448 20.8788 32.3448 20.8789C32.3448 20.8789 32.3448 20.879 32.3448 20.8791C32.3448 20.8791 32.3448 20.8792 32.3448 20.8793C32.3448 20.8793 32.3448 20.8794 32.3448 20.8795C32.3448 20.8795 32.3448 20.8796 32.3448 20.8797C32.3448 20.8797 32.3448 20.8798 32.3448 20.8799C32.3448 20.8799 32.3448 20.88 32.3448 20.8801C32.3448 20.8801 32.3448 20.8802 32.3448 20.8803C32.3448 20.8803 32.3448 20.8804 32.3448 20.8805C32.3448 20.8805 32.3448 20.8806 32.3448 20.8807C32.3448 20.8807 32.3448 20.8808 32.3448 20.8809C32.3448 20.8809 32.3448 20.881 32.3448 20.8811C32.3448 20.8811 32.3448 20.8812 32.3448 20.8812C32.3448 20.8813 32.3448 20.8814 32.3448 20.8814C32.3448 20.8815 32.3448 20.8816 32.3448 20.8816C32.3448 20.8817 32.3448 20.8818 32.3448 20.8818C32.3448 20.8819 32.3448 20.882 32.3448 20.882C32.3448 20.8821 32.3448 20.8821 32.3448 20.8822C32.3448 20.8823 32.3448 20.8823 32.3448 20.8824C32.3448 20.8825 32.3448 20.8825 32.3448 20.8826C32.3448 20.8826 32.3448 20.8827 32.3448 20.8828C32.3448 20.8828 32.3448 20.8829 32.3448 20.883C32.3448 20.883 32.3448 20.8831 32.3448 20.8831C32.3448 20.8832 32.3448 20.8833 32.3448 20.8833C32.3448 20.8834 32.3448 20.8834 32.3448 20.8835C32.3448 20.8836 32.3448 20.8836 32.3448 20.8837C32.3448 20.8838 32.3448 20.8838 32.3448 20.8839C32.3448 20.8839 32.3448 20.884 32.3448 20.8841C32.3448 20.8841 32.3448 20.8842 32.3448 20.8842C32.3448 20.8843 32.3448 20.8844 32.3448 20.8844C32.3448 20.8845 32.3448 20.8845 32.3448 20.8846C32.3448 20.8847 32.3448 20.8847 32.3448 20.8848C32.3448 20.8848 32.3448 20.8849 32.3448 20.885C32.3448 20.885 32.3448 20.8851 32.3448 20.8851C32.3448 20.8852 32.3448 20.8852 32.3448 20.8853C32.3448 20.8854 32.3448 20.8854 32.3448 20.8855C32.3448 20.8855 32.3448 20.8856 32.3448 20.8857C32.3448 20.8857 32.3448 20.8858 32.3448 20.8858C32.3448 20.8859 32.3448 20.8859 32.3448 20.886H38.3448C38.3448 20.8859 38.3448 20.8859 38.3448 20.8858C38.3448 20.8858 38.3448 20.8857 38.3448 20.8857C38.3448 20.8856 38.3448 20.8855 38.3448 20.8855C38.3448 20.8854 38.3448 20.8854 38.3448 20.8853C38.3448 20.8852 38.3448 20.8852 38.3448 20.8851C38.3448 20.8851 38.3448 20.885 38.3448 20.885C38.3448 20.8849 38.3448 20.8848 38.3448 20.8848C38.3448 20.8847 38.3448 20.8847 38.3448 20.8846C38.3448 20.8845 38.3448 20.8845 38.3448 20.8844C38.3448 20.8844 38.3448 20.8843 38.3448 20.8842C38.3448 20.8842 38.3448 20.8841 38.3448 20.8841C38.3448 20.884 38.3448 20.8839 38.3448 20.8839C38.3448 20.8838 38.3448 20.8838 38.3448 20.8837C38.3448 20.8836 38.3448 20.8836 38.3448 20.8835C38.3448 20.8834 38.3448 20.8834 38.3448 20.8833C38.3448 20.8833 38.3448 20.8832 38.3448 20.8831C38.3448 20.8831 38.3448 20.883 38.3448 20.883C38.3448 20.8829 38.3448 20.8828 38.3448 20.8828C38.3448 20.8827 38.3448 20.8826 38.3448 20.8826C38.3448 20.8825 38.3448 20.8825 38.3448 20.8824C38.3448 20.8823 38.3448 20.8823 38.3448 20.8822C38.3448 20.8821 38.3448 20.8821 38.3448 20.882C38.3448 20.882 38.3448 20.8819 38.3448 20.8818C38.3448 20.8818 38.3448 20.8817 38.3448 20.8816C38.3448 20.8816 38.3448 20.8815 38.3448 20.8814C38.3448 20.8814 38.3448 20.8813 38.3448 20.8812C38.3448 20.8812 38.3448 20.8811 38.3448 20.8811C38.3448 20.881 38.3448 20.8809 38.3448 20.8809C38.3448 20.8808 38.3448 20.8807 38.3448 20.8807C38.3448 20.8806 38.3448 20.8805 38.3448 20.8805C38.3448 20.8804 38.3448 20.8803 38.3448 20.8803C38.3448 20.8802 38.3448 20.8801 38.3448 20.8801C38.3448 20.88 38.3448 20.8799 38.3448 20.8799C38.3448 20.8798 38.3448 20.8797 38.3448 20.8797C38.3448 20.8796 38.3448 20.8795 38.3448 20.8795C38.3448 20.8794 38.3448 20.8793 38.3448 20.8793C38.3448 20.8792 38.3448 20.8791 38.3448 20.8791C38.3448 20.879 38.3448 20.8789 38.3448 20.8789C38.3448 20.8788 38.3448 20.8787 38.3448 20.8787C38.3448 20.8786 38.3448 20.8785 38.3448 20.8785C38.3448 20.8784 38.3448 20.8783 38.3448 20.8782C38.3448 20.8782 38.3448 20.8781 38.3448 20.878C38.3448 20.878 38.3448 20.8779 38.3448 20.8778C38.3448 20.8778 38.3448 20.8777 38.3448 20.8776C38.3448 20.8776 38.3448 20.8775 38.3448 20.8774C38.3448 20.8773 38.3448 20.8773 38.3448 20.8772C38.3448 20.8771 38.3448 20.8771 38.3448 20.877C38.3448 20.8769 38.3448 20.8769 38.3448 20.8768C38.3448 20.8767 38.3448 20.8766 38.3448 20.8766C38.3448 20.8765 38.3448 20.8764 38.3448 20.8764C38.3448 20.8763 38.3448 20.8762 38.3448 20.8761C38.3448 20.8761 38.3448 20.876 38.3448 20.8759C38.3448 20.8759 38.3448 20.8758 38.3448 20.8757C38.3448 20.8756 38.3448 20.8756 38.3448 20.8755C38.3448 20.8754 38.3448 20.8754 38.3448 20.8753C38.3448 20.8752 38.3448 20.8751 38.3448 20.8751C38.3448 20.875 38.3448 20.8749 38.3448 20.8748C38.3448 20.8748 38.3448 20.8747 38.3448 20.8746C38.3448 20.8745 38.3448 20.8745 38.3448 20.8744C38.3448 20.8743 38.3448 20.8743 38.3448 20.8742C38.3448 20.8741 38.3448 20.874 38.3448 20.874C38.3448 20.8739 38.3448 20.8738 38.3448 20.8737C38.3448 20.8737 38.3448 20.8736 38.3448 20.8735C38.3448 20.8734 38.3448 20.8734 38.3448 20.8733C38.3448 20.8732 38.3448 20.8731 38.3448 20.8731C38.3448 20.873 38.3448 20.8729 38.3448 20.8728C38.3448 20.8728 38.3448 20.8727 38.3448 20.8726C38.3448 20.8725 38.3448 20.8724 38.3448 20.8724C38.3448 20.8723 38.3448 20.8722 38.3448 20.8721C38.3448 20.8721 38.3448 20.872 38.3448 20.8719C38.3448 20.8718 38.3448 20.8718 38.3448 20.8717C38.3448 20.8716 38.3448 20.8715 38.3448 20.8715C38.3448 20.8714 38.3448 20.8713 38.3448 20.8712C38.3448 20.8711 38.3448 20.8711 38.3448 20.871C38.3448 20.8709 38.3448 20.8708 38.3448 20.8707C38.3448 20.8707 38.3448 20.8706 38.3448 20.8705C38.3448 20.8704 38.3448 20.8704 38.3448 20.8703C38.3448 20.8702 38.3448 20.8701 38.3448 20.87C38.3448 20.87 38.3448 20.8699 38.3448 20.8698C38.3448 20.8697 38.3448 20.8696 38.3448 20.8696C38.3448 20.8695 38.3448 20.8694 38.3448 20.8693C38.3448 20.8692 38.3448 20.8692 38.3448 20.8691C38.3448 20.869 38.3448 20.8689 38.3448 20.8688C38.3448 20.8688 38.3448 20.8687 38.3448 20.8686C38.3448 20.8685 38.3448 20.8684 38.3448 20.8684C38.3448 20.8683 38.3448 20.8682 38.3448 20.8681C38.3448 20.868 38.3448 20.868 38.3448 20.8679C38.3448 20.8678 38.3448 20.8677 38.3448 20.8676C38.3448 20.8675 38.3448 20.8675 38.3448 20.8674C38.3448 20.8673 38.3448 20.8672 38.3448 20.8671C38.3448 20.8671 38.3448 20.867 38.3448 20.8669C38.3448 20.8668 38.3448 20.8667 38.3448 20.8666C38.3448 20.8666 38.3448 20.8665 38.3448 20.8664C38.3448 20.8663 38.3448 20.8662 38.3448 20.8661C38.3448 20.8661 38.3448 20.866 38.3448 20.8659C38.3448 20.8658 38.3448 20.8657 38.3448 20.8656C38.3448 20.8655 38.3448 20.8655 38.3448 20.8654C38.3448 20.8653 38.3448 20.8652 38.3448 20.8651C38.3448 20.865 38.3448 20.865 38.3448 20.8649C38.3448 20.8648 38.3448 20.8647 38.3448 20.8646C38.3448 20.8645 38.3448 20.8644 38.3448 20.8644C38.3448 20.8643 38.3448 20.8642 38.3448 20.8641C38.3448 20.864 38.3448 20.8639 38.3448 20.8638C38.3448 20.8638 38.3448 20.8637 38.3448 20.8636C38.3448 20.8635 38.3448 20.8634 38.3448 20.8633C38.3448 20.8632 38.3448 20.8632 38.3448 20.8631C38.3448 20.863 38.3448 20.8629 38.3448 20.8628C38.3448 20.8627 38.3448 20.8626 38.3448 20.8625C38.3448 20.8625 38.3448 20.8624 38.3448 20.8623C38.3448 20.8622 38.3448 20.8621 38.3448 20.862C38.3448 20.8619 38.3448 20.8618 38.3448 20.8618C38.3448 20.8617 38.3448 20.8616 38.3448 20.8615C38.3448 20.8614 38.3448 20.8613 38.3448 20.8612C38.3448 20.8611 38.3448 20.861 38.3448 20.861C38.3448 20.8609 38.3448 20.8608 38.3448 20.8607C38.3448 20.8606 38.3448 20.8605 38.3448 20.8604C38.3448 20.8603 38.3448 20.8602 38.3448 20.8601C38.3448 20.8601 38.3448 20.86 38.3448 20.8599C38.3448 20.8598 38.3448 20.8597 38.3448 20.8596C38.3448 20.8595 38.3448 20.8594 38.3448 20.8593C38.3448 20.8592 38.3448 20.8591 38.3448 20.8591C38.3448 20.859 38.3448 20.8589 38.3448 20.8588C38.3448 20.8587 38.3448 20.8586 38.3448 20.8585C38.3448 20.8584 38.3448 20.8583 38.3448 20.8582C38.3448 20.8581 38.3448 20.8581 38.3448 20.858C38.3448 20.8579 38.3448 20.8578 38.3448 20.8577C38.3448 20.8576 38.3448 20.8575 38.3448 20.8574C38.3448 20.8573 38.3448 20.8572 38.3448 20.8571C38.3448 20.857 38.3448 20.8569 38.3448 20.8568C38.3448 20.8568 38.3448 20.8567 38.3448 20.8566C38.3448 20.8565 38.3448 20.8564 38.3448 20.8563C38.3448 20.8562 38.3448 20.8561 38.3448 20.856C38.3448 20.8559 38.3448 20.8558 38.3448 20.8557C38.3448 20.8556 38.3448 20.8555 38.3448 20.8554C38.3448 20.8553 38.3448 20.8552 38.3448 20.8551C38.3448 20.8551 38.3448 20.855 38.3448 20.8549C38.3448 20.8548 38.3448 20.8547 38.3448 20.8546C38.3448 20.8545 38.3448 20.8544 38.3448 20.8543C38.3448 20.8542 38.3448 20.8541 38.3448 20.854C38.3448 20.8539 38.3448 20.8538 38.3448 20.8537C38.3448 20.8536 38.3448 20.8535 38.3448 20.8534C38.3448 20.8533 38.3448 20.8532 38.3448 20.8531C38.3448 20.853 38.3448 20.8529 38.3448 20.8528C38.3448 20.8527 38.3448 20.8526 38.3448 20.8525C38.3448 20.8525 38.3448 20.8524 38.3448 20.8523C38.3448 20.8522 38.3448 20.8521 38.3448 20.852C38.3448 20.8519 38.3448 20.8518 38.3448 20.8517C38.3448 20.8516 38.3448 20.8515 38.3448 20.8514C38.3448 20.8513 38.3448 20.8512 38.3448 20.8511C38.3448 20.851 38.3448 20.8509 38.3448 20.8508C38.3448 20.8507 38.3448 20.8506 38.3448 20.8505C38.3448 20.8504 38.3448 20.8503 38.3448 20.8502C38.3448 20.8501 38.3448 20.85 38.3448 20.8499C38.3448 20.8498 38.3448 20.8497 38.3448 20.8496C38.3448 20.8495 38.3448 20.8494 38.3448 20.8493C38.3448 20.8492 38.3448 20.8491 38.3448 20.849C38.3448 20.8489 38.3448 20.8488 38.3448 20.8487C38.3448 20.8486 38.3448 20.8485 38.3448 20.8484C38.3448 20.8483 38.3448 20.8482 38.3448 20.8481C38.3448 20.848 38.3448 20.8479 38.3448 20.8478C38.3448 20.8477 38.3448 20.8476 38.3448 20.8475C38.3448 20.8473 38.3448 20.8472 38.3448 20.8471C38.3448 20.847 38.3448 20.8469 38.3448 20.8468C38.3448 20.8467 38.3448 20.8466 38.3448 20.8465C38.3448 20.8464 38.3448 20.8463 38.3448 20.8462C38.3448 20.8461 38.3448 20.846 38.3448 20.8459C38.3448 20.8458 38.3448 20.8457 38.3448 20.8456C38.3448 20.8455 38.3448 20.8454 38.3448 20.8453C38.3448 20.8452 38.3448 20.8451 38.3448 20.845C38.3448 20.8449 38.3448 20.8448 38.3448 20.8447C38.3448 20.8445 38.3448 20.8444 38.3448 20.8443C38.3448 20.8442 38.3448 20.8441 38.3448 20.844C38.3448 20.8439 38.3448 20.8438 38.3448 20.8437C38.3448 20.8436 38.3448 20.8435 38.3448 20.8434C38.3448 20.8433 38.3448 20.8432 38.3448 20.8431C38.3448 20.843 38.3448 20.8429 38.3448 20.8428C38.3448 20.8426 38.3448 20.8425 38.3448 20.8424C38.3448 20.8423 38.3448 20.8422 38.3448 20.8421C38.3448 20.842 38.3448 20.8419 38.3448 20.8418C38.3448 20.8417 38.3448 20.8416 38.3448 20.8415C38.3448 20.8414 38.3448 20.8413 38.3448 20.8411C38.3448 20.841 38.3448 20.8409 38.3448 20.8408C38.3448 20.8407 38.3448 20.8406 38.3448 20.8405C38.3448 20.8404 38.3448 20.8403 38.3448 20.8402C38.3448 20.8401 38.3448 20.84 38.3448 20.8398C38.3448 20.8397 38.3448 20.8396 38.3448 20.8395C38.3448 20.8394 38.3448 20.8393 38.3448 20.8392C38.3448 20.8391 38.3448 20.839 38.3448 20.8389C38.3448 20.8387 38.3448 20.8386 38.3448 20.8385C38.3448 20.8384 38.3448 20.8383 38.3448 20.8382C38.3448 20.8381 38.3448 20.838 38.3448 20.8379C38.3448 20.8378 38.3448 20.8376 38.3448 20.8375C38.3448 20.8374 38.3448 20.8373 38.3448 20.8372C38.3448 20.8371 38.3448 20.837 38.3448 20.8369C38.3448 20.8368 38.3448 20.8366 38.3448 20.8365C38.3448 20.8364 38.3448 20.8363 38.3448 20.8362C38.3448 20.8361 38.3448 20.836 38.3448 20.8359C38.3448 20.8357 38.3448 20.8356 38.3448 20.8355C38.3448 20.8354 38.3448 20.8353 38.3448 20.8352C38.3448 20.8351 38.3448 20.835 38.3448 20.8348C38.3448 20.8347 38.3448 20.8346 38.3448 20.8345C38.3448 20.8344 38.3448 20.8343 38.3448 20.8342C38.3448 20.834 38.3448 20.8339 38.3448 20.8338C38.3448 20.8337 38.3448 20.8336 38.3448 20.8335C38.3448 20.8334 38.3448 20.8332 38.3448 20.8331C38.3448 20.833 38.3448 20.8329 38.3448 20.8328C38.3448 20.8327 38.3448 20.8326 38.3448 20.8324C38.3448 20.8323 38.3448 20.8322 38.3448 20.8321C38.3448 20.832 38.3448 20.8319 38.3448 20.8317C38.3448 20.8316 38.3448 20.8315 38.3448 20.8314C38.3448 20.8313 38.3448 20.8312 38.3448 20.8311C38.3448 20.8309 38.3448 20.8308 38.3448 20.8307C38.3448 20.8306 38.3448 20.8305 38.3448 20.8304C38.3448 20.8302 38.3448 20.8301 38.3448 20.83C38.3448 20.8299 38.3448 20.8298 38.3448 20.8296C38.3448 20.8295 38.3448 20.8294 38.3448 20.8293C38.3448 20.8292 38.3448 20.8291 38.3448 20.8289C38.3448 20.8288 38.3448 20.8287 38.3448 20.8286C38.3448 20.8285 38.3448 20.8284 38.3448 20.8282C38.3448 20.8281 38.3448 20.828 38.3448 20.8279C38.3448 20.8278 38.3448 20.8276 38.3448 20.8275C38.3448 20.8274 38.3448 20.8273 38.3448 20.8272C38.3448 20.827 38.3448 20.8269 38.3448 20.8268C38.3448 20.8267 38.3448 20.8266 38.3448 20.8264C38.3448 20.8263 38.3448 20.8262 38.3448 20.8261C38.3448 20.826 38.3448 20.8258 38.3448 20.8257C38.3448 20.8256 38.3448 20.8255 38.3448 20.8254C38.3448 20.8252 38.3448 20.8251 38.3448 20.825C38.3448 20.8249 38.3448 20.8248 38.3448 20.8246C38.3448 20.8245 38.3448 20.8244 38.3448 20.8243C38.3448 20.8242 38.3448 20.824 38.3448 20.8239C38.3448 20.8238 38.3448 20.8237 38.3448 20.8235C38.3448 20.8234 38.3448 20.8233 38.3448 20.8232C38.3448 20.823 38.3448 20.8229 38.3448 20.8228C38.3448 20.8227 38.3448 20.8226 38.3448 20.8224C38.3448 20.8223 38.3448 20.8222 38.3448 20.8221C38.3448 20.8219 38.3448 20.8218 38.3448 20.8217C38.3448 20.8216 38.3448 20.8214 38.3448 20.8213C38.3448 20.8212 38.3448 20.8211 38.3448 20.821C38.3448 20.8208 38.3448 20.8207 38.3448 20.8206C38.3448 20.8205 38.3448 20.8203 38.3448 20.8202C38.3448 20.8201 38.3448 20.82 38.3448 20.8198C38.3448 20.8197 38.3448 20.8196 38.3448 20.8195C38.3448 20.8193 38.3448 20.8192 38.3448 20.8191C38.3448 20.819 38.3448 20.8188 38.3448 20.8187C38.3448 20.8186 38.3448 20.8185 38.3448 20.8183C38.3448 20.8182 38.3448 20.8181 38.3448 20.8179C38.3448 20.8178 38.3448 20.8177 38.3448 20.8176C38.3448 20.8174 38.3448 20.8173 38.3448 20.8172C38.3448 20.8171 38.3448 20.8169 38.3448 20.8168C38.3448 20.8167 38.3448 20.8166 38.3448 20.8164C38.3448 20.8163 38.3448 20.8162 38.3448 20.816C38.3448 20.8159 38.3448 20.8158 38.3448 20.8157C38.3448 20.8155 38.3448 20.8154 38.3448 20.8153C38.3448 20.8151 38.3448 20.815 38.3448 20.8149C38.3448 20.8148 38.3448 20.8146 38.3448 20.8145C38.3448 20.8144 38.3448 20.8142 38.3448 20.8141C38.3448 20.814 38.3448 20.8139 38.3448 20.8137C38.3448 20.8136 38.3448 20.8135 38.3448 20.8133C38.3448 20.8132 38.3448 20.8131 38.3448 20.8129C38.3448 20.8128 38.3448 20.8127 38.3448 20.8126C38.3448 20.8124 38.3448 20.8123 38.3448 20.8122C38.3448 20.812 38.3448 20.8119 38.3448 20.8118C38.3448 20.8116 38.3448 20.8115 38.3448 20.8114C38.3448 20.8112 38.3448 20.8111 38.3448 20.811C38.3448 20.8109 38.3448 20.8107 38.3448 20.8106C38.3448 20.8105 38.3448 20.8103 38.3448 20.8102C38.3448 20.8101 38.3448 20.8099 38.3448 20.8098C38.3448 20.8097 38.3448 20.8095 38.3448 20.8094C38.3448 20.8093 38.3448 20.8091 38.3448 20.809C38.3448 20.8089 38.3448 20.8087 38.3448 20.8086C38.3448 20.8085 38.3448 20.8083 38.3448 20.8082C38.3448 20.8081 38.3448 20.8079 38.3448 20.8078C38.3448 20.8077 38.3448 20.8075 38.3448 20.8074C38.3448 20.8073 38.3448 20.8071 38.3448 20.807C38.3448 20.8069 38.3448 20.8067 38.3448 20.8066C38.3448 20.8065 38.3448 20.8063 38.3448 20.8062C38.3448 20.8061 38.3448 20.8059 38.3448 20.8058C38.3448 20.8057 38.3448 20.8055 38.3448 20.8054C38.3448 20.8052 38.3448 20.8051 38.3448 20.805C38.3448 20.8048 38.3448 20.8047 38.3448 20.8046C38.3448 20.8044 38.3448 20.8043 38.3448 20.8042C38.3448 20.804 38.3448 20.8039 38.3448 20.8038C38.3448 20.8036 38.3448 20.8035 38.3448 20.8033C38.3448 20.8032 38.3448 20.8031 38.3448 20.8029C38.3448 20.8028 38.3448 20.8027 38.3448 20.8025C38.3448 20.8024 38.3448 20.8022 38.3448 20.8021C38.3448 20.802 38.3448 20.8018 38.3448 20.8017C38.3448 20.8016 38.3448 20.8014 38.3448 20.8013C38.3448 20.8011 38.3448 20.801 38.3448 20.8009C38.3448 20.8007 38.3448 20.8006 38.3448 20.8005C38.3448 20.8003 38.3448 20.8002 38.3448 20.8C38.3448 20.7999 38.3448 20.7998 38.3448 20.7996C38.3448 20.7995 38.3448 20.7993 38.3448 20.7992C38.3448 20.7991 38.3448 20.7989 38.3448 20.7988C38.3448 20.7986 38.3448 20.7985 38.3448 20.7984C38.3448 20.7982 38.3448 20.7981 38.3448 20.7979C38.3448 20.7978 38.3448 20.7977 38.3448 20.7975C38.3448 20.7974 38.3448 20.7972 38.3448 20.7971C38.3448 20.797 38.3448 20.7968 38.3448 20.7967C38.3448 20.7965 38.3448 20.7964 38.3448 20.7962C38.3448 20.7961 38.3448 20.796 38.3448 20.7958C38.3448 20.7957 38.3448 20.7955 38.3448 20.7954C38.3448 20.7953 38.3448 20.7951 38.3448 20.795C38.3448 20.7948 38.3448 20.7947 38.3448 20.7945C38.3448 20.7944 38.3448 20.7943 38.3448 20.7941C38.3448 20.794 38.3448 20.7938 38.3448 20.7937C38.3448 20.7935 38.3448 20.7934 38.3448 20.7933C38.3448 20.7931 38.3448 20.793 38.3448 20.7928C38.3448 20.7927 38.3448 20.7925 38.3448 20.7924C38.3448 20.7922 38.3448 20.7921 38.3448 20.792C38.3448 20.7918 38.3448 20.7917 38.3448 20.7915C38.3448 20.7914 38.3448 20.7912 38.3448 20.7911C38.3448 20.7909 38.3448 20.7908 38.3448 20.7907C38.3448 20.7905 38.3448 20.7904 38.3448 20.7902C38.3448 20.7901 38.3448 20.7899 38.3448 20.7898C38.3448 20.7896 38.3448 20.7895 38.3448 20.7893C38.3448 20.7892 38.3448 20.7891 38.3448 20.7889C38.3448 20.7888 38.3448 20.7886 38.3448 20.7885C38.3448 20.7883 38.3448 20.7882 38.3448 20.788C38.3448 20.7879 38.3448 20.7877 38.3448 20.7876C38.3448 20.7874 38.3448 20.7873 38.3448 20.7871C38.3448 20.787 38.3448 20.7869 38.3448 20.7867C38.3448 20.7866 38.3448 20.7864 38.3448 20.7863C38.3448 20.7861 38.3448 20.786 38.3448 20.7858C38.3448 20.7857 38.3448 20.7855 38.3448 20.7854C38.3448 20.7852 38.3448 20.7851 38.3448 20.7849C38.3448 20.7848 38.3448 20.7846 38.3448 20.7845C38.3448 20.7843 38.3448 20.7842 38.3448 20.784C38.3448 20.7839 38.3448 20.7837 38.3448 20.7836C38.3448 20.7834 38.3448 20.7833 38.3448 20.7831C38.3448 20.783 38.3448 20.7828 38.3448 20.7827C38.3448 20.7825 38.3448 20.7824 38.3448 20.7822C38.3448 20.7821 38.3448 20.7819 38.3448 20.7818C38.3448 20.7816 38.3448 20.7815 38.3448 20.7813C38.3448 20.7812 38.3448 20.781 38.3448 20.7809C38.3448 20.7807 38.3448 20.7806 38.3448 20.7804C38.3448 20.7803 38.3448 20.7801 38.3448 20.78C38.3448 20.7798 38.3448 20.7797 38.3448 20.7795C38.3448 20.7794 38.3448 20.7792 38.3448 20.7791C38.3448 20.7789 38.3448 20.7787 38.3448 20.7786C38.3448 20.7784 38.3448 20.7783 38.3448 20.7781C38.3448 20.778 38.3448 20.7778 38.3448 20.7777C38.3448 20.7775 38.3448 20.7774 38.3448 20.7772C38.3448 20.7771 38.3448 20.7769 38.3448 20.7768C38.3448 20.7766 38.3448 20.7765 38.3448 20.7763C38.3448 20.7761 38.3448 20.776 38.3448 20.7758C38.3448 20.7757 38.3448 20.7755 38.3448 20.7754C38.3448 20.7752 38.3448 20.7751 38.3448 20.7749C38.3448 20.7748 38.3448 20.7746 38.3448 20.7744C38.3448 20.7743 38.3448 20.7741 38.3448 20.774C38.3448 20.7738 38.3448 20.7737 38.3448 20.7735C38.3448 20.7734 38.3448 20.7732 38.3448 20.773C38.3448 20.7729 38.3448 20.7727 38.3448 20.7726C38.3448 20.7724 38.3448 20.7723 38.3448 20.7721C38.3448 20.7719 38.3448 20.7718 38.3448 20.7716C38.3448 20.7715 38.3448 20.7713 38.3448 20.7712C38.3448 20.771 38.3448 20.7708 38.3448 20.7707C38.3448 20.7705 38.3448 20.7704 38.3448 20.7702C38.3448 20.7701 38.3448 20.7699 38.3448 20.7697C38.3448 20.7696 38.3448 20.7694 38.3448 20.7693C38.3448 20.7691 38.3448 20.769 38.3448 20.7688C38.3448 20.7686 38.3448 20.7685 38.3448 20.7683C38.3448 20.7682 38.3448 20.768 38.3448 20.7678C38.3448 20.7677 38.3448 20.7675 38.3448 20.7674C38.3448 20.7672 38.3448 20.767 38.3448 20.7669C38.3448 20.7667 38.3448 20.7666 38.3448 20.7664C38.3448 20.7662 38.3448 20.7661 38.3448 20.7659C38.3448 20.7658 38.3448 20.7656 38.3448 20.7654C38.3448 20.7653 38.3448 20.7651 38.3448 20.765C38.3448 20.7648 38.3448 20.7646 38.3448 20.7645C38.3448 20.7643 38.3448 20.7642 38.3448 20.764C38.3448 20.7638 38.3448 20.7637 38.3448 20.7635C38.3448 20.7633 38.3448 20.7632 38.3448 20.763C38.3448 20.7629 38.3448 20.7627 38.3448 20.7625C38.3448 20.7624 38.3448 20.7622 38.3448 20.7621C38.3448 20.7619 38.3448 20.7617 38.3448 20.7616C38.3448 20.7614 38.3448 20.7612 38.3448 20.7611C38.3448 20.7609 38.3448 20.7607 38.3448 20.7606C38.3448 20.7604 38.3448 20.7603 38.3448 20.7601C38.3448 20.7599 38.3448 20.7598 38.3448 20.7596C38.3448 20.7594 38.3448 20.7593 38.3448 20.7591C38.3448 20.7589 38.3448 20.7588 38.3448 20.7586C38.3448 20.7585 38.3448 20.7583 38.3448 20.7581C38.3448 20.758 38.3448 20.7578 38.3448 20.7576C38.3448 20.7575 38.3448 20.7573 38.3448 20.7571C38.3448 20.757 38.3448 20.7568 38.3448 20.7566C38.3448 20.7565 38.3448 20.7563 38.3448 20.7561C38.3448 20.756 38.3448 20.7558 38.3448 20.7556C38.3448 20.7555 38.3448 20.7553 38.3448 20.7551C38.3448 20.755 38.3448 20.7548 38.3448 20.7546C38.3448 20.7545 38.3448 20.7543 38.3448 20.7541C38.3448 20.754 38.3448 20.7538 38.3448 20.7536C38.3448 20.7535 38.3448 20.7533 38.3448 20.7531C38.3448 20.753 38.3448 20.7528 38.3448 20.7526C38.3448 20.7525 38.3448 20.7523 38.3448 20.7521C38.3448 20.752 38.3448 20.7518 38.3448 20.7516C38.3448 20.7515 38.3448 20.7513 38.3448 20.7511C38.3448 20.751 38.3448 20.7508 38.3448 20.7506C38.3448 20.7505 38.3448 20.7503 38.3448 20.7501C38.3448 20.7499 38.3448 20.7498 38.3448 20.7496C38.3448 20.7494 38.3448 20.7493 38.3448 20.7491C38.3448 20.7489 38.3448 20.7488 38.3448 20.7486C38.3448 20.7484 38.3448 20.7482 38.3448 20.7481C38.3448 20.7479 38.3448 20.7477 38.3448 20.7476C38.3448 20.7474 38.3448 20.7472 38.3448 20.7471C38.3448 20.7469 38.3448 20.7467 38.3448 20.7465C38.3448 20.7464 38.3448 20.7462 38.3448 20.746C38.3448 20.7459 38.3448 20.7457 38.3448 20.7455C38.3448 20.7453 38.3448 20.7452 38.3448 20.745C38.3448 20.7448 38.3448 20.7446 38.3448 20.7445C38.3448 20.7443 38.3448 20.7441 38.3448 20.744C38.3448 20.7438 38.3448 20.7436 38.3448 20.7434C38.3448 20.7433 38.3448 20.7431 38.3448 20.7429C38.3448 20.7428 38.3448 20.7426 38.3448 20.7424C38.3448 20.7422 38.3448 20.7421 38.3448 20.7419C38.3448 20.7417 38.3448 20.7415 38.3448 20.7414C38.3448 20.7412 38.3448 20.741 38.3448 20.7408C38.3448 20.7407 38.3448 20.7405 38.3448 20.7403C38.3448 20.7401 38.3448 20.74 38.3448 20.7398C38.3448 20.7396 38.3448 20.7394 38.3448 20.7393C38.3448 20.7391 38.3448 20.7389 38.3448 20.7387C38.3448 20.7386 38.3448 20.7384 38.3448 20.7382C38.3448 20.738 38.3448 20.7379 38.3448 20.7377C38.3448 20.7375 38.3448 20.7373 38.3448 20.7372C38.3448 20.737 38.3448 20.7368 38.3448 20.7366C38.3448 20.7365 38.3448 20.7363 38.3448 20.7361C38.3448 20.7359 38.3448 20.7357 38.3448 20.7356C38.3448 20.7354 38.3448 20.7352 38.3448 20.735C38.3448 20.7349 38.3448 20.7347 38.3448 20.7345C38.3448 20.7343 38.3448 20.7342 38.3448 20.734C38.3448 20.7338 38.3448 20.7336 38.3448 20.7334C38.3448 20.7333 38.3448 20.7331 38.3448 20.7329C38.3448 20.7327 38.3448 20.7325 38.3448 20.7324C38.3448 20.7322 38.3448 20.732 38.3448 20.7318C38.3448 20.7317 38.3448 20.7315 38.3448 20.7313C38.3448 20.7311 38.3448 20.7309 38.3448 20.7308C38.3448 20.7306 38.3448 20.7304 38.3448 20.7302C38.3448 20.73 38.3448 20.7299 38.3448 20.7297C38.3448 20.7295 38.3448 20.7293 38.3448 20.7291C38.3448 20.729 38.3448 20.7288 38.3448 20.7286C38.3448 20.7284 38.3448 20.7282 38.3448 20.7281C38.3448 20.7279 38.3448 20.7277 38.3448 20.7275C38.3448 20.7273 38.3448 20.7271 38.3448 20.727C38.3448 20.7268 38.3448 20.7266 38.3448 20.7264C38.3448 20.7262 38.3448 20.7261 38.3448 20.7259C38.3448 20.7257 38.3448 20.7255 38.3448 20.7253C38.3448 20.7251 38.3448 20.725 38.3448 20.7248C38.3448 20.7246 38.3448 20.7244 38.3448 20.7242C38.3448 20.7241 38.3448 20.7239 38.3448 20.7237C38.3448 20.7235 38.3448 20.7233 38.3448 20.7231C38.3448 20.7229 38.3448 20.7228 38.3448 20.7226C38.3448 20.7224 38.3448 20.7222 38.3448 20.722C38.3448 20.7218 38.3448 20.7217 38.3448 20.7215C38.3448 20.7213 38.3448 20.7211 38.3448 20.7209C38.3448 20.7207 38.3448 20.7206 38.3448 20.7204C38.3448 20.7202 38.3448 20.72 38.3448 20.7198C38.3448 20.7196 38.3448 20.7194 38.3448 20.7193C38.3448 20.7191 38.3448 20.7189 38.3448 20.7187C38.3448 20.7185 38.3448 20.7183 38.3448 20.7181C38.3448 20.718 38.3448 20.7178 38.3448 20.7176C38.3448 20.7174 38.3448 20.7172 38.3448 20.717C38.3448 20.7168 38.3448 20.7167 38.3448 20.7165C38.3448 20.7163 38.3448 20.7161 38.3448 20.7159C38.3448 20.7157 38.3448 20.7155 38.3448 20.7153C38.3448 20.7152 38.3448 20.715 38.3448 20.7148C38.3448 20.7146 38.3448 20.7144 38.3448 20.7142C38.3448 20.714 38.3448 20.7138 38.3448 20.7137C38.3448 20.7135 38.3448 20.7133 38.3448 20.7131C38.3448 20.7129 38.3448 20.7127 38.3448 20.7125C38.3448 20.7123 38.3448 20.7121 38.3448 20.712C38.3448 20.7118 38.3448 20.7116 38.3448 20.7114C38.3448 20.7112 38.3448 20.711 38.3448 20.7108C38.3448 20.7106 38.3448 20.7104 38.3448 20.7103C38.3448 20.7101 38.3448 20.7099 38.3448 20.7097C38.3448 20.7095 38.3448 20.7093 38.3448 20.7091C38.3448 20.7089 38.3448 20.7087 38.3448 20.7085C38.3448 20.7083 38.3448 20.7082 38.3448 20.708C38.3448 20.7078 38.3448 20.7076 38.3448 20.7074C38.3448 20.7072 38.3448 20.707 38.3448 20.7068C38.3448 20.7066 38.3448 20.7064 38.3448 20.7062C38.3448 20.7061 38.3448 20.7059 38.3448 20.7057C38.3448 20.7055 38.3448 20.7053 38.3448 20.7051C38.3448 20.7049 38.3448 20.7047 38.3448 20.7045C38.3448 20.7043 38.3448 20.7041 38.3448 20.7039C38.3448 20.7037 38.3448 20.7036 38.3448 20.7034C38.3448 20.7032 38.3448 20.703 38.3448 20.7028C38.3448 20.7026 38.3448 20.7024 38.3448 20.7022C38.3448 20.702 38.3448 20.7018 38.3448 20.7016C38.3448 20.7014 38.3448 20.7012 38.3448 20.701C38.3448 20.7008 38.3448 20.7006 38.3448 20.7004C38.3448 20.7003 38.3448 20.7001 38.3448 20.6999C38.3448 20.6997 38.3448 20.6995 38.3448 20.6993C38.3448 20.6991 38.3448 20.6989 38.3448 20.6987C38.3448 20.6985 38.3448 20.6983 38.3448 20.6981C38.3448 20.6979 38.3448 20.6977 38.3448 20.6975C38.3448 20.6973 38.3448 20.6971 38.3448 20.6969C38.3448 20.6967 38.3448 20.6965 38.3448 20.6963C38.3448 20.6961 38.3448 20.6959 38.3448 20.6957C38.3448 20.6956 38.3448 20.6954 38.3448 20.6952C38.3448 20.695 38.3448 20.6948 38.3448 20.6946C38.3448 20.6944 38.3448 20.6942 38.3448 20.694C38.3448 20.6938 38.3448 20.6936 38.3448 20.6934C38.3448 20.6932 38.3448 20.693 38.3448 20.6928C38.3448 20.6926 38.3448 20.6924 38.3448 20.6922C38.3448 20.692 38.3448 20.6918 38.3448 20.6916C38.3448 20.6914 38.3448 20.6912 38.3448 20.691C38.3448 20.6908 38.3448 20.6906 38.3448 20.6904C38.3448 20.6902 38.3448 20.69 38.3448 20.6898C38.3448 20.6896 38.3448 20.6894 38.3448 20.6892C38.3448 20.689 38.3448 20.6888 38.3448 20.6886C38.3448 20.6884 38.3448 20.6882 38.3448 20.688H32.3448ZM35.3448 17.886H27.7768V23.886H35.3448V17.886ZM24.8282 21.4389C25.0829 22.7972 25.7583 24 26.8462 24.9067L30.6873 20.2973C30.6834 20.2941 30.6876 20.2971 30.6962 20.3072C30.7048 20.3174 30.7139 20.3301 30.7218 20.3438C30.7297 20.3574 30.7332 20.3665 30.7337 20.3679C30.7341 20.369 30.7302 20.3586 30.7254 20.3331L24.8282 21.4389ZM26.8462 24.9067C27.8892 25.7758 29.1561 26.262 30.5488 26.262V20.262C30.5512 20.262 30.564 20.2623 30.5846 20.2659C30.6053 20.2695 30.628 20.2755 30.6502 20.2838C30.6723 20.2919 30.688 20.3001 30.6962 20.3049C30.7041 20.3096 30.701 20.3087 30.6873 20.2973L26.8462 24.9067ZM30.5488 26.262C31.6358 26.262 32.9193 26.0569 34.0305 25.2632L30.5431 20.3808C30.6919 20.2745 30.801 20.2455 30.808 20.2438C30.8114 20.2429 30.7931 20.2477 30.7487 20.2526C30.7043 20.2576 30.6386 20.262 30.5488 20.262V26.262ZM34.0305 25.2632C34.6307 24.8345 35.2757 24.2581 35.7393 23.4855L30.5943 20.3985C30.6258 20.3461 30.653 20.3094 30.6702 20.2879C30.6874 20.2664 30.6965 20.2576 30.6935 20.2607C30.6905 20.2637 30.6777 20.2761 30.6522 20.2973C30.6269 20.3185 30.5911 20.3465 30.5431 20.3808L34.0305 25.2632ZM31.9424 24.6808L33.8124 25.5168L36.2612 20.0392L34.3912 19.2032L31.9424 24.6808ZM32.2856 21.5818C32.2825 21.5889 32.2677 21.6221 32.2119 21.6825C32.1529 21.7464 32.0416 21.8469 31.8451 21.9693L35.0165 27.0627C36.183 26.3363 37.1985 25.33 37.788 23.9742L32.2856 21.5818ZM31.8233 21.983C31.6599 22.0867 31.2972 22.242 30.5488 22.242V28.242C32.1177 28.242 33.6763 27.9133 35.0383 27.049L31.8233 21.983ZM36.104 18.5448C35.9035 17.3421 35.3973 16.1679 34.4521 15.2227L30.2095 19.4653C30.1932 19.4491 30.1789 19.4319 30.1675 19.4156C30.1561 19.3995 30.1505 19.3885 30.1493 19.3858C30.1466 19.3802 30.1671 19.4205 30.1856 19.5312L36.104 18.5448ZM34.4877 15.2589C33.3646 14.097 31.9118 13.684 30.5488 13.684V19.684C30.645 19.684 30.6211 19.6981 30.5243 19.6622C30.415 19.6218 30.2847 19.5437 30.1738 19.4291L34.4877 15.2589ZM30.5488 13.684C29.1587 13.684 27.861 14.1503 26.7924 15.0662L30.6972 19.6218C30.699 19.6202 30.6917 19.6267 30.6748 19.6367C30.6576 19.6468 30.636 19.6574 30.6115 19.6664C30.5871 19.6753 30.5665 19.6802 30.5524 19.6826C30.5386 19.6849 30.5365 19.684 30.5488 19.684V13.684ZM26.7924 15.0662C25.7424 15.9662 25.0848 17.1446 24.8303 18.4738L30.7232 19.6022C30.7256 19.5898 30.7278 19.581 30.7293 19.5754C30.7308 19.5698 30.7318 19.5671 30.7319 19.567C30.7319 19.5668 30.7312 19.5687 30.7296 19.5723C30.7279 19.5758 30.7256 19.5805 30.7225 19.5859C30.7159 19.5974 30.7085 19.608 30.7016 19.6163C30.6948 19.6244 30.6922 19.626 30.6972 19.6218L26.7924 15.0662ZM27.7768 22.038H33.1448V16.038H27.7768V22.038ZM45.2226 22.382L42.9179 20.4614L42.9133 20.467L45.2226 22.382ZM45.2226 17.564L42.8909 19.4516C42.9073 19.4719 42.924 19.4919 42.9409 19.5118L45.2226 17.564ZM41.7466 17.08L40.1202 14.5591C40.1076 14.5673 40.095 14.5755 40.0825 14.5838L41.7466 17.08ZM40.6906 18.29L38.0227 16.918C38.0123 16.9383 38.0021 16.9587 37.9921 16.9793L40.6906 18.29ZM40.6906 21.634L37.9921 22.9447C38.0021 22.9653 38.0123 22.9857 38.0227 23.006L40.6906 21.634ZM41.7466 22.844L40.0825 25.3402C40.095 25.3485 40.1076 25.3567 40.1202 25.3649L41.7466 22.844ZM37.9626 14.682V11.682C36.3058 11.682 34.9626 13.0251 34.9626 14.682H37.9626ZM40.2946 14.682H43.2946C43.2946 13.0251 41.9515 11.682 40.2946 11.682V14.682ZM40.2946 16.222H37.2946C37.2946 17.5081 38.1144 18.6512 39.3326 19.0636C40.5509 19.476 41.8964 19.066 42.6777 18.0443L40.2946 16.222ZM41.7466 15.078L40.5155 12.3422H40.5155L41.7466 15.078ZM45.9046 15.364L44.3464 17.9276C44.3659 17.9395 44.3856 17.9511 44.4054 17.9626L45.9046 15.364ZM47.6866 17.234L45.0329 18.6332C45.0365 18.64 45.04 18.6467 45.0436 18.6534L47.6866 17.234ZM47.6866 22.712L50.3403 24.1112L47.6866 22.712ZM45.9046 24.604L47.4257 27.1898C47.4307 27.1868 47.4358 27.1838 47.4408 27.1808L45.9046 24.604ZM41.7246 24.868L40.4674 27.5919C40.4761 27.5959 40.4848 27.5998 40.4935 27.6038L41.7246 24.868ZM40.2946 23.702L42.7028 21.913C41.9313 20.8744 40.5808 20.4475 39.3525 20.8538C38.1241 21.2601 37.2946 22.4082 37.2946 23.702H40.2946ZM40.2946 29.84V32.84C41.9515 32.84 43.2946 31.4969 43.2946 29.84H40.2946ZM37.9626 29.84H34.9626C34.9626 31.4969 36.3058 32.84 37.9626 32.84V29.84ZM43.1986 26.284C44.8519 26.284 46.4081 25.6522 47.5319 24.297L42.9133 20.467C42.9233 20.455 42.9473 20.4289 42.9872 20.3982C43.0276 20.3671 43.0737 20.3396 43.1214 20.3183C43.2225 20.2733 43.2667 20.284 43.1986 20.284V26.284ZM47.5273 24.3026C48.5911 23.0259 48.9926 21.4848 48.9926 19.962H42.9926C42.9926 20.2055 42.9611 20.3432 42.9413 20.4054C42.9316 20.436 42.9238 20.4514 42.9211 20.4563C42.9197 20.459 42.9188 20.4603 42.9186 20.4606C42.9184 20.4609 42.9183 20.4611 42.9179 20.4614L47.5273 24.3026ZM48.9926 19.962C48.9926 18.4427 48.5923 16.8908 47.5043 15.6162L42.9409 19.5118C42.924 19.492 42.9292 19.4865 42.9438 19.5317C42.961 19.5853 42.9926 19.7179 42.9926 19.962H48.9926ZM47.5543 15.6764C46.4399 14.2997 44.8784 13.64 43.1986 13.64V19.64C43.2571 19.64 43.204 19.649 43.0967 19.6001C43.0464 19.5771 42.9994 19.5481 42.9595 19.5167C42.9203 19.4857 42.8982 19.4607 42.8909 19.4516L47.5543 15.6764ZM43.1986 13.64C42.0765 13.64 41.0322 13.9708 40.1202 14.5591L43.373 19.6009C43.3821 19.595 43.3638 19.608 43.3206 19.6211C43.2763 19.6345 43.2322 19.64 43.1986 19.64V13.64ZM40.0825 14.5838C39.1795 15.1858 38.4983 15.9933 38.0227 16.918L43.3585 19.662C43.388 19.6046 43.4085 19.5801 43.4129 19.5751C43.4164 19.5711 43.4145 19.5736 43.4107 19.5762L40.0825 14.5838ZM37.9921 16.9793C37.5337 17.923 37.3166 18.9316 37.3166 19.962H43.3166C43.3166 19.7897 43.3488 19.6837 43.3891 19.6007L37.9921 16.9793ZM37.3166 19.962C37.3166 20.9924 37.5337 22.001 37.9921 22.9447L43.3891 20.3233C43.3488 20.2403 43.3166 20.1343 43.3166 19.962H37.3166ZM38.0227 23.006C38.4983 23.9307 39.1795 24.7382 40.0825 25.3402L43.4107 20.3478C43.4145 20.3504 43.4164 20.3529 43.4129 20.3489C43.4085 20.3439 43.388 20.3194 43.3585 20.262L38.0227 23.006ZM40.1202 25.3649C41.0322 25.9532 42.0765 26.284 43.1986 26.284V20.284C43.2322 20.284 43.2763 20.2895 43.3206 20.3029C43.3638 20.316 43.3821 20.329 43.373 20.3231L40.1202 25.3649ZM37.9626 17.682H40.2946V11.682H37.9626V17.682ZM37.2946 14.682V16.222H43.2946V14.682H37.2946ZM42.6777 18.0443C42.749 17.9511 42.8331 17.8788 42.9777 17.8138L40.5155 12.3422C39.4868 12.8052 38.6029 13.4956 37.9115 14.3996L42.6777 18.0443ZM42.9777 17.8138C43.1371 17.742 43.2467 17.7073 43.3102 17.6914C43.3731 17.6757 43.3765 17.682 43.3306 17.682V11.682C42.3103 11.682 41.3543 11.9648 40.5155 12.3422L42.9777 17.8138ZM43.3306 17.682C43.809 17.682 44.1167 17.788 44.3464 17.9276L47.4629 12.8004C46.1965 12.0307 44.7882 11.682 43.3306 11.682V17.682ZM44.4054 17.9626C44.6597 18.1093 44.8616 18.3084 45.0329 18.6332L50.3403 15.8348C49.6609 14.5462 48.6748 13.4987 47.4038 12.7654L44.4054 17.9626ZM45.0436 18.6534C45.2031 18.9504 45.3246 19.3596 45.3246 19.962H51.3246C51.3246 18.511 51.0208 17.1016 50.3296 15.8146L45.0436 18.6534ZM45.3246 19.962C45.3246 20.5632 45.2035 20.9892 45.0329 21.3128L50.3403 24.1112C51.0204 22.8214 51.3246 21.4142 51.3246 19.962H45.3246ZM45.0329 21.3128C44.8574 21.6455 44.6441 21.8628 44.3684 22.0272L47.4408 27.1808C48.6904 26.4359 49.6651 25.3918 50.3403 24.1112L45.0329 21.3128ZM44.3835 22.0182C44.1482 22.1566 43.827 22.264 43.3306 22.264V28.264C44.7702 28.264 46.165 27.9314 47.4257 27.1898L44.3835 22.0182ZM43.3306 22.264C43.3863 22.264 43.2764 22.2766 42.9557 22.1322L40.4935 27.6038C41.3461 27.9874 42.3069 28.264 43.3306 28.264V22.264ZM42.9818 22.1441C42.8728 22.0938 42.7895 22.0297 42.7028 21.913L37.8864 25.491C38.5624 26.401 39.4324 27.1142 40.4674 27.5919L42.9818 22.1441ZM37.2946 23.702V29.84H43.2946V23.702H37.2946ZM40.2946 26.84H37.9626V32.84H40.2946V26.84ZM40.9626 29.84V14.682H34.9626V29.84H40.9626ZM61.6123 25.066L61.584 28.0659C62.3845 28.0734 63.1548 27.7607 63.7236 27.1973C64.2923 26.6339 64.6123 25.8666 64.6123 25.066H61.6123ZM59.2803 25.044H56.2803C56.2803 26.6898 57.6062 28.0283 59.252 28.0439L59.2803 25.044ZM59.2803 11.558H62.2803C62.2803 10.4954 61.7182 9.51207 60.8025 8.97289C59.8869 8.43371 58.7543 8.41913 57.8251 8.93456L59.2803 11.558ZM56.4643 13.12L53.775 14.4495C54.1385 15.1848 54.7872 15.7392 55.5702 15.9837C56.3532 16.2281 57.2022 16.1413 57.9195 15.7434L56.4643 13.12ZM55.4963 11.162L54.0523 8.53239C52.644 9.30573 52.0949 11.0513 52.807 12.4915L55.4963 11.162ZM59.3023 9.072V6.072C58.7974 6.072 58.3008 6.1994 57.8583 6.44239L59.3023 9.072ZM61.6123 9.072H64.6123C64.6123 7.41514 63.2691 6.072 61.6123 6.072V9.072ZM61.6406 22.0661L59.3086 22.0441L59.252 28.0439L61.584 28.0659L61.6406 22.0661ZM62.2803 25.044V11.558H56.2803V25.044H62.2803ZM57.8251 8.93456L55.0091 10.4966L57.9195 15.7434L60.7355 14.1814L57.8251 8.93456ZM59.1536 11.7905L58.1856 9.83246L52.807 12.4915L53.775 14.4495L59.1536 11.7905ZM56.9403 13.7916L60.7463 11.7016L57.8583 6.44239L54.0523 8.53239L56.9403 13.7916ZM59.3023 12.072H61.6123V6.072H59.3023V12.072ZM58.6123 9.072V25.066H64.6123V9.072H58.6123Z" fill="#E2F4DD" mask="url(#path-1-outside-1_1960_5612)"/>
<path d="M93.6363 9.23047H87.5463C87.3048 9.23047 87.1088 9.42647 87.1088 9.66797V15.3196H81.4563C81.2148 15.3196 81.0188 15.5156 81.0188 15.7571V21.4096H75.3672C75.1257 21.4096 74.9297 21.6056 74.9297 21.8471V27.9371C74.9297 28.1786 75.1257 28.3746 75.3672 28.3746H93.6363C93.8778 28.3746 94.0738 28.1786 94.0738 27.9371V9.66797C94.0738 9.42647 93.8778 9.23047 93.6363 9.23047Z" fill="#8DD476"/>
</svg>
