<svg width="211" height="44" viewBox="0 0 211 44" fill="none" xmlns="http://www.w3.org/2000/svg">
<g clip-path="url(#clip0_4959_11740)">
<path d="M14.131 6C6.33804 6 0 14.4951 0 25C0 35.5049 6.31811 44 14.131 44H187.869C195.662 44 202 35.5049 202 25C202 14.4951 195.682 6 187.869 6H14.131Z" fill="#4B6F98"/>
<mask id="mask0_4959_11740" style="mask-type:luminance" maskUnits="userSpaceOnUse" x="0" y="6" width="205" height="38">
<path d="M14.3409 6.49766C6.41194 6.49766 0 14.8874 0 25.2356C0 35.5838 6.41194 44 14.3409 44H190.659C198.568 44 205 35.6103 205 25.2356C205 14.8609 198.588 6.47119 190.659 6.47119H14.3409V6.49766Z" fill="white"/>
</mask>
<g mask="url(#mask0_4959_11740)">
<g style="mix-blend-mode:multiply">
<mask id="mask1_4959_11740" style="mask-type:luminance" maskUnits="userSpaceOnUse" x="156" y="-9" width="36" height="54">
<path d="M191.752 -8.34961H156.193V44.7148H191.752V-8.34961Z" fill="white"/>
</mask>
<g mask="url(#mask1_4959_11740)">
<mask id="mask2_4959_11740" style="mask-type:luminance" maskUnits="userSpaceOnUse" x="156" y="-9" width="36" height="56">
<path d="M191.693 -8.03223H156.194V46.1437H191.693V-8.03223Z" fill="white"/>
</mask>
<g mask="url(#mask2_4959_11740)">
<path d="M179.152 36.4309C179.152 36.4309 167.441 34.3136 158.945 5.67742L180.042 4.06299L179.152 36.4574V36.4309Z" fill="#898989"/>
</g>
</g>
</g>
</g>
<path d="M189.471 43.9765C201.169 43.9765 210.674 34.135 210.674 21.9779C210.674 9.82079 201.189 0 189.471 0C177.754 0 168.269 9.84147 168.269 21.9986C168.269 34.1557 177.754 43.9971 189.471 43.9971" fill="#4B6F98"/>
<path d="M204.895 21.3784C204.138 23.8594 202.145 24.8725 200.331 24.0662C198.498 23.2598 197.502 20.9855 198.279 18.4632C199.196 15.4446 201.427 13.6251 203.241 14.4315C205.074 15.2378 205.812 18.3391 204.895 21.3784Z" fill="white"/>
<path d="M204.895 21.3784C204.138 23.8594 202.145 24.8725 200.331 24.0662C198.498 23.2598 197.502 20.9855 198.279 18.4632C199.196 15.4446 201.427 13.6251 203.241 14.4315C205.074 15.2378 205.812 18.3391 204.895 21.3784Z" stroke="#231815" stroke-width="0.4" stroke-miterlimit="10"/>
<path d="M205.114 19.2281C204.935 20.6134 203.859 21.6058 202.703 21.4404C201.547 21.275 200.75 20.0345 200.93 18.6492C201.109 17.264 202.185 16.2716 203.341 16.437C204.497 16.6024 205.294 17.8429 205.114 19.2281Z" fill="#231815"/>
<path d="M195.987 21.2955C195.15 23.8593 192.938 24.8931 190.906 24.066C188.873 23.239 187.777 20.9027 188.614 18.2769C189.63 15.155 192.101 13.2942 194.134 14.1212C196.166 14.9482 196.983 18.1529 195.967 21.2749" fill="white"/>
<path d="M195.987 21.2955C195.15 23.8593 192.938 24.8931 190.906 24.066C188.873 23.239 187.777 20.9027 188.614 18.2769C189.63 15.155 192.101 13.2942 194.134 14.1212C196.166 14.9482 196.983 18.1529 195.967 21.2749L195.987 21.2955Z" stroke="#231815" stroke-width="0.4" stroke-miterlimit="10"/>
<path d="M196.267 19.2281C196.087 20.6134 195.011 21.6058 193.855 21.4404C192.7 21.275 191.902 20.0345 192.082 18.6492C192.261 17.264 193.337 16.2716 194.493 16.437C195.649 16.6024 196.446 17.8429 196.267 19.2281Z" fill="#231815"/>
<path d="M191.205 28.8835C191.823 28.8835 192.859 28.346 193.497 27.1675M200.372 28.3873C200.372 28.3873 196.426 32.1089 192.52 28.3873" stroke="#231815" stroke-width="0.4" stroke-miterlimit="10" stroke-linecap="round"/>
<path d="M197.642 24.2521C197.642 24.2521 200.312 22.35 204.497 24.2521C204.497 24.2521 203.162 26.3403 201.069 26.3403C198.977 26.3403 198.22 25.3066 197.642 24.2521Z" fill="#4B6F98"/>
<path d="M188.534 24.4592C188.534 24.4592 191.204 22.557 195.389 24.4592C195.389 24.4592 194.054 26.5474 191.962 26.5474C189.869 26.5474 189.112 25.5136 188.534 24.4592Z" fill="#4B6F98"/>
<path d="M198.479 23.9009C198.479 23.9009 201.029 22.5983 204.198 24.2524" stroke="#231815" stroke-width="0.4" stroke-miterlimit="10" stroke-linecap="round"/>
<path d="M189.292 24.2729C189.292 24.2729 191.843 22.9704 195.011 24.6244" stroke="#231815" stroke-width="0.4" stroke-miterlimit="10" stroke-linecap="round"/>
<path d="M19 14.88H21.784V16.464C21.784 19.776 24.952 23.088 29.392 23.856L28.24 26.04C24.664 25.32 21.76 23.16 20.392 20.304C19 23.136 16.096 25.32 12.544 26.04L11.416 23.856C15.784 23.064 19 19.752 19 16.464V14.88ZM10.816 32.208V30.048H30.16V32.208H10.816ZM39.9766 14.88H42.7606V16.464C42.7606 19.776 45.9286 23.088 50.3686 23.856L49.2166 26.04C45.6406 25.32 42.7366 23.16 41.3686 20.304C39.9766 23.136 37.0726 25.32 33.5206 26.04L32.3926 23.856C36.7606 23.064 39.9766 19.752 39.9766 16.464V14.88ZM31.7926 32.208V30.048H51.1366V32.208H31.7926ZM52.7691 30.312H61.0971V26.808H55.0731V19.8H67.2411V17.112H55.0251V15.024H69.8571V21.888H57.6651V24.696H70.3371V26.808H63.7131V30.312H72.1131V32.448H52.7691V30.312ZM81.7489 14.352H96.1009V16.44H84.3649V18.792H96.3169V20.88H90.2449V22.464H98.5729V24.552H79.2769V22.464H87.6049V20.88H81.7489V14.352ZM81.5089 27.912V25.944H96.1729V31.176H84.1489V32.736H96.7729V34.752H81.5809V29.304H93.5809V27.912H81.5089ZM105.966 15.096C109.158 15.096 111.462 18.024 111.462 22.656C111.462 27.312 109.158 30.24 105.966 30.24C102.75 30.24 100.446 27.312 100.446 22.656C100.446 18.024 102.75 15.096 105.966 15.096ZM102.965 22.656C102.965 25.944 104.19 27.864 105.966 27.864C107.742 27.864 108.942 25.944 108.942 22.656C108.942 19.392 107.742 17.496 105.966 17.496C104.19 17.496 102.965 19.392 102.965 22.656ZM114.222 34.944V13.584H116.886V21.816H120.126V24H116.886V34.944H114.222ZM121.23 30.192H129.558V26.016H123.366V14.976H125.982V18.456H135.774V14.976H138.39V26.016H132.174V30.192H140.574V32.352H121.23V30.192ZM125.982 23.904H135.774V20.544H125.982V23.904ZM157.231 13.56H159.871V34.92H157.231V13.56ZM142.327 29.088C147.871 26.424 150.391 22.8 150.847 17.928H143.383V15.792H153.559C153.559 22.2 151.135 27.576 143.695 31.176L142.327 29.088Z" fill="white"/>
</g>
<defs>
<clipPath id="clip0_4959_11740">
<rect width="210.674" height="44" fill="white"/>
</clipPath>
</defs>
</svg>
