<svg width="106" height="34" viewBox="0 0 106 34" fill="none" xmlns="http://www.w3.org/2000/svg">
<path d="M0 0H90C98.8366 0 106 7.16344 106 16V18C106 26.8366 98.8366 34 90 34H0V0Z" fill="#FFC333"/>
<path d="M18.096 17.08C19.614 17.08 20.67 15.936 20.67 14.33C20.67 12.724 19.614 11.58 18.096 11.58H14.862V17.08H18.096ZM11.518 25.396V8.72H18.206C21.616 8.72 24.014 11.03 24.014 14.33C24.014 17.63 21.616 19.94 18.206 19.94H14.862V25.396H11.518ZM26.1028 25.44V14.506H29.4028V16.046C30.1508 14.968 31.4048 14.462 32.2188 14.528V17.476C30.3268 17.344 29.4028 19.06 29.4028 20.226V25.44H26.1028ZM38.8449 25.462C35.8089 25.462 33.8729 23.196 33.8729 19.984C33.8729 16.772 35.8089 14.506 38.8449 14.506C39.7469 14.506 40.9569 14.836 41.7049 15.848V14.484H45.0489V25.44H41.7049V24.142C40.9569 25.132 39.7469 25.462 38.8449 25.462ZM37.2169 19.984C37.2169 21.744 38.0089 22.756 39.3729 22.756C40.6709 22.756 41.6829 21.59 41.7049 19.984C41.6829 18.378 40.6709 17.212 39.3729 17.212C38.0089 17.212 37.2169 18.224 37.2169 19.984ZM52.4236 22.294C53.0396 22.294 53.7876 21.898 54.3596 21.282L56.5156 23.636C55.6136 24.692 53.8976 25.44 52.4896 25.44C49.2556 25.44 46.9676 23.174 46.9676 19.962C46.9676 16.728 49.2556 14.462 52.4896 14.462C54.0736 14.462 55.5476 15.166 56.5156 16.266L54.3596 18.598C53.7656 17.982 53.0396 17.608 52.4236 17.608C51.0816 17.608 50.3116 18.466 50.3116 19.962C50.3116 21.436 51.0816 22.294 52.4236 22.294ZM59.7625 25.44V17.3H57.5845V14.44H59.7625V10.546H63.1065V14.44H65.6805V17.3H63.1065V25.44H59.7625ZM68.2429 14.462H71.5869V25.396H68.2429V14.462ZM68.1769 10.656C68.1769 9.644 68.9029 8.918 69.9149 8.918C70.9269 8.918 71.6529 9.644 71.6529 10.656C71.6529 11.668 70.9269 12.394 69.9149 12.394C68.9029 12.394 68.1769 11.668 68.1769 10.656ZM78.8923 22.294C79.5083 22.294 80.2563 21.898 80.8283 21.282L82.9843 23.636C82.0823 24.692 80.3663 25.44 78.9583 25.44C75.7243 25.44 73.4363 23.174 73.4363 19.962C73.4363 16.728 75.7243 14.462 78.9583 14.462C80.5423 14.462 82.0163 15.166 82.9843 16.266L80.8283 18.598C80.2343 17.982 79.5083 17.608 78.8923 17.608C77.5503 17.608 76.7803 18.466 76.7803 19.962C76.7803 21.436 77.5503 22.294 78.8923 22.294ZM89.4704 25.44C86.3464 25.44 84.1464 23.196 84.1464 19.984C84.1464 16.75 86.3464 14.484 89.4704 14.484C92.9464 14.484 94.0684 17.344 94.1124 17.432C94.7724 18.73 94.5964 20.71 94.5964 21.106H87.2704C87.5564 22.096 88.5684 22.69 89.4924 22.69C90.6584 22.69 91.2524 22.206 91.4724 21.766L94.2224 22.8C93.7164 24.054 92.1764 25.44 89.4704 25.44ZM87.2924 19.148H91.5384C91.2744 17.96 90.5924 17.212 89.4704 17.212C88.3704 17.212 87.5564 17.894 87.2924 19.148Z" fill="#1860CC"/>
</svg>
