<svg width="154" height="34" viewBox="0 0 154 34" fill="none" xmlns="http://www.w3.org/2000/svg">
<path d="M26.9999 18.8694V25.2608C26.9999 25.9873 26.696 26.684 26.155 27.1977C25.6141 27.7114 24.8803 28 24.1153 28H22.1922C21.4272 28 20.6935 27.7114 20.1525 27.1977C19.6115 26.684 19.3076 25.9873 19.3076 25.2608V20.6955C19.3076 19.969 19.6115 19.2723 20.1525 18.7586C20.6935 18.2449 21.4272 17.9563 22.1922 17.9563H25.0348C24.8038 15.4706 23.6035 13.1565 21.6692 11.4674C19.7348 9.77841 17.2059 8.83628 14.5781 8.82574H14.5C11.8612 8.82562 9.31761 9.76216 7.36869 11.4515C5.41976 13.1408 4.20623 15.461 3.96634 17.9563H6.80767C7.57272 17.9563 8.30643 18.2449 8.8474 18.7586C9.38837 19.2723 9.69228 19.969 9.69228 20.6955V25.2608C9.69228 25.9873 9.38837 26.684 8.8474 27.1977C8.30643 27.7114 7.57272 28 6.80767 28H4.8846C4.11956 28 3.38585 27.7114 2.84488 27.1977C2.30391 26.684 2 25.9873 2 25.2608V18.8694C2.0027 16.5182 2.73993 14.2205 4.11839 12.2673C5.49684 10.3141 7.45455 8.79318 9.74371 7.89699C12.0329 7.0008 14.5506 6.76966 16.9781 7.23283C19.4057 7.696 21.634 8.83266 23.3809 10.4989C24.5343 11.5995 25.4477 12.9054 26.0687 14.3418C26.6897 15.7781 27.0062 17.3167 26.9999 18.8694Z" fill="#FFB400"/>
<path d="M40.07 8.94V23.13H47.418V25.176H37.738V8.94H40.07ZM50.5222 14.682H52.8542V25.176H50.5222V14.682ZM50.3682 10.766C50.3682 9.996 50.9182 9.446 51.6882 9.446C52.4582 9.446 53.0082 9.996 53.0082 10.766C53.0082 11.536 52.4582 12.086 51.6882 12.086C50.9182 12.086 50.3682 11.536 50.3682 10.766ZM57.556 21.59C58.018 22.734 59.162 23.262 59.866 23.262C60.966 23.262 61.67 22.844 61.67 22.118C61.67 21.458 60.702 21.15 59.624 20.776C58.194 20.27 56.17 19.588 56.17 17.564C56.17 15.716 57.864 14.594 60.02 14.594C61.318 14.594 63.254 15.342 63.782 17.234L61.824 17.938C61.472 16.772 60.526 16.596 60.02 16.596C59.096 16.596 58.502 16.97 58.502 17.564C58.502 18.224 59.404 18.488 60.526 18.884C62.022 19.412 64.002 20.094 64.002 22.096C64.002 24.01 62.308 25.264 59.866 25.264C58.26 25.264 56.5 24.252 55.73 22.646L57.556 21.59ZM67.6506 25.198V16.706H65.6706V14.682H67.6506V11.008H69.9826V14.682H72.4686V16.706H69.9826V25.198H67.6506ZM79.1796 25.242C76.2096 25.242 74.1196 23.064 74.1196 19.984C74.1196 16.882 76.2096 14.704 79.1796 14.704C82.4356 14.704 83.4696 17.366 83.5356 17.542C84.1736 19.038 83.9756 20.71 83.9756 20.886H76.4076C76.6716 22.294 77.8596 23.262 79.1796 23.262C80.9176 23.262 81.6216 22.25 81.7976 21.942L83.6676 22.778C83.1616 23.966 81.6876 25.242 79.1796 25.242ZM76.4076 19.038H81.7756C81.5556 17.74 80.8076 16.684 79.1796 16.684C77.7716 16.684 76.6716 17.674 76.4076 19.038ZM93.6115 19.412C93.6115 17.74 92.7535 16.728 91.3015 16.728C89.8715 16.75 88.7715 17.872 88.7935 19.412V25.198H86.4615V14.704H88.7935V16.134C89.4535 15.32 90.5755 14.726 91.5875 14.726C93.5675 14.726 95.9435 16.024 95.9435 19.324V25.198H93.6115V19.412ZM111.318 21.788L106.5 13.23V25.176H104.168V8.94H106.698L112.352 18.862L117.984 8.94H120.536V25.176H118.204V13.23L113.364 21.788H111.318ZM128.465 23.284C130.093 23.284 131.193 21.986 131.193 19.984C131.193 18.004 130.093 16.684 128.465 16.684C126.837 16.684 125.737 17.982 125.737 19.984C125.737 21.986 126.815 23.284 128.465 23.284ZM123.405 19.984C123.405 16.882 125.495 14.682 128.465 14.682C131.435 14.682 133.525 16.882 133.525 19.984C133.525 23.064 131.435 25.286 128.465 25.286C125.495 25.286 123.405 23.064 123.405 19.984ZM135.787 25.198V14.704H138.119V16.244C138.823 15.254 140.099 14.594 141.331 14.66V16.816C139.461 16.728 138.119 18.378 138.119 19.984V25.198H135.787ZM147.586 25.242C144.616 25.242 142.526 23.064 142.526 19.984C142.526 16.882 144.616 14.704 147.586 14.704C150.842 14.704 151.876 17.366 151.942 17.542C152.58 19.038 152.382 20.71 152.382 20.886H144.814C145.078 22.294 146.266 23.262 147.586 23.262C149.324 23.262 150.028 22.25 150.204 21.942L152.074 22.778C151.568 23.966 150.094 25.242 147.586 25.242ZM144.814 19.038H150.182C149.962 17.74 149.214 16.684 147.586 16.684C146.178 16.684 145.078 17.674 144.814 19.038Z" fill="#275CE7"/>
</svg>
