<svg width="99" height="34" viewBox="0 0 99 34" fill="none" xmlns="http://www.w3.org/2000/svg">
<path d="M0 0H87L99 17L87 34H0V0Z" fill="#FE5663"/>
<mask id="path-2-outside-1_1960_5591" maskUnits="userSpaceOnUse" x="8" y="4" width="65" height="28" fill="black">
<rect fill="white" x="8" y="4" width="65" height="28"/>
<path d="M13.586 19.556C14.532 21.404 15.874 22.328 17.282 22.328C19.372 22.35 20.538 21.338 20.538 19.776C20.538 16.08 12.376 17.664 12.376 12.01C12.376 9.326 14.576 7.742 17.59 7.764C19.68 7.786 21.682 8.952 22.584 11.482L20.494 12.23C19.922 10.536 18.778 9.81 17.568 9.788C15.83 9.788 14.708 10.646 14.708 12.01C14.708 15.662 22.848 14.276 22.848 19.798C22.848 22.526 20.714 24.396 17.26 24.352C14.884 24.33 12.992 22.966 11.65 20.634L13.586 19.556ZM27.0198 24.198V15.706H25.0398V13.682H27.0198V10.008H29.3518V13.682H31.8378V15.706H29.3518V24.198H27.0198ZM38.5488 24.242C35.5788 24.242 33.4888 22.064 33.4888 18.984C33.4888 15.882 35.5788 13.704 38.5488 13.704C41.8048 13.704 42.8388 16.366 42.9048 16.542C43.5428 18.038 43.3448 19.71 43.3448 19.886H35.7768C36.0408 21.294 37.2288 22.262 38.5488 22.262C40.2868 22.262 40.9908 21.25 41.1668 20.942L43.0368 21.778C42.5308 22.966 41.0568 24.242 38.5488 24.242ZM35.7768 18.038H41.1448C40.9248 16.74 40.1768 15.684 38.5488 15.684C37.1408 15.684 36.0408 16.674 35.7768 18.038ZM51.1986 22.284C52.8926 22.284 53.9926 20.964 53.9926 18.962C53.9926 16.96 52.8926 15.64 51.1986 15.64C49.6146 15.64 48.3166 17.114 48.3166 18.962C48.3166 20.81 49.6146 22.284 51.1986 22.284ZM45.9626 28.84V13.682H48.2946V15.222C49.1306 14.122 50.5166 13.682 51.3306 13.682C54.2566 13.682 56.3246 15.86 56.3246 18.962C56.3246 22.086 54.2566 24.264 51.3306 24.264C50.4946 24.264 49.1306 23.802 48.2946 22.702V28.84H45.9626ZM69.6123 8.072V24.066L67.2803 24.044V10.558L64.4643 12.12L63.4963 10.162L67.3023 8.072H69.6123Z"/>
</mask>
<path d="M13.586 19.556C14.532 21.404 15.874 22.328 17.282 22.328C19.372 22.35 20.538 21.338 20.538 19.776C20.538 16.08 12.376 17.664 12.376 12.01C12.376 9.326 14.576 7.742 17.59 7.764C19.68 7.786 21.682 8.952 22.584 11.482L20.494 12.23C19.922 10.536 18.778 9.81 17.568 9.788C15.83 9.788 14.708 10.646 14.708 12.01C14.708 15.662 22.848 14.276 22.848 19.798C22.848 22.526 20.714 24.396 17.26 24.352C14.884 24.33 12.992 22.966 11.65 20.634L13.586 19.556ZM27.0198 24.198V15.706H25.0398V13.682H27.0198V10.008H29.3518V13.682H31.8378V15.706H29.3518V24.198H27.0198ZM38.5488 24.242C35.5788 24.242 33.4888 22.064 33.4888 18.984C33.4888 15.882 35.5788 13.704 38.5488 13.704C41.8048 13.704 42.8388 16.366 42.9048 16.542C43.5428 18.038 43.3448 19.71 43.3448 19.886H35.7768C36.0408 21.294 37.2288 22.262 38.5488 22.262C40.2868 22.262 40.9908 21.25 41.1668 20.942L43.0368 21.778C42.5308 22.966 41.0568 24.242 38.5488 24.242ZM35.7768 18.038H41.1448C40.9248 16.74 40.1768 15.684 38.5488 15.684C37.1408 15.684 36.0408 16.674 35.7768 18.038ZM51.1986 22.284C52.8926 22.284 53.9926 20.964 53.9926 18.962C53.9926 16.96 52.8926 15.64 51.1986 15.64C49.6146 15.64 48.3166 17.114 48.3166 18.962C48.3166 20.81 49.6146 22.284 51.1986 22.284ZM45.9626 28.84V13.682H48.2946V15.222C49.1306 14.122 50.5166 13.682 51.3306 13.682C54.2566 13.682 56.3246 15.86 56.3246 18.962C56.3246 22.086 54.2566 24.264 51.3306 24.264C50.4946 24.264 49.1306 23.802 48.2946 22.702V28.84H45.9626ZM69.6123 8.072V24.066L67.2803 24.044V10.558L64.4643 12.12L63.4963 10.162L67.3023 8.072H69.6123Z" fill="white"/>
<path d="M13.586 19.556L16.2564 18.189C15.8856 17.4646 15.2364 16.9219 14.4577 16.6854C13.6789 16.449 12.8376 16.539 12.1265 16.9349L13.586 19.556ZM17.282 22.328L17.3136 19.3282C17.3031 19.3281 17.2925 19.328 17.282 19.328V22.328ZM17.59 7.764L17.6216 4.76415L17.6119 4.76408L17.59 7.764ZM22.584 11.482L23.5949 14.3066C25.1535 13.7487 25.9657 12.0338 25.4098 10.4745L22.584 11.482ZM20.494 12.23L17.6517 13.1897C17.9092 13.9525 18.4625 14.5797 19.1871 14.9304C19.9118 15.2811 20.7469 15.3258 21.5049 15.0546L20.494 12.23ZM17.568 9.788L17.6225 6.7885C17.6044 6.78816 17.5862 6.788 17.568 6.788V9.788ZM17.26 24.352L17.2982 21.3522L17.2878 21.3521L17.26 24.352ZM11.65 20.634L10.1905 18.0129C9.48898 18.4036 8.9733 19.0592 8.75891 19.833C8.54451 20.6069 8.6493 21.4344 9.04981 22.1303L11.65 20.634ZM10.9156 20.923C12.1829 23.3987 14.3812 25.328 17.282 25.328V19.328C17.267 19.328 17.1928 19.3317 17.0353 19.2161C16.8586 19.0865 16.5647 18.7912 16.2564 18.189L10.9156 20.923ZM17.2504 25.3278C18.7476 25.3436 20.3185 24.9956 21.5763 23.9818C22.9093 22.9075 23.538 21.3656 23.538 19.776H17.538C17.538 19.7904 17.5364 19.7185 17.5893 19.6015C17.6447 19.4788 17.7287 19.3767 17.8112 19.3102C17.887 19.2491 17.9162 19.254 17.8418 19.2755C17.7643 19.2978 17.596 19.3311 17.3136 19.3282L17.2504 25.3278ZM23.538 19.776C23.538 17.4111 22.0844 15.9937 20.8074 15.2266C19.7369 14.5837 18.2827 14.1107 17.5195 13.8217C16.5206 13.4434 15.9867 13.1612 15.6831 12.8817C15.5262 12.7373 15.376 12.5728 15.376 12.01H9.376C9.376 14.2742 10.2461 16.0319 11.6196 17.2962C12.8463 18.4254 14.3529 19.0383 15.3945 19.4328C16.6718 19.9165 17.2581 20.0939 17.718 20.3702C17.9713 20.5223 17.538 20.2929 17.538 19.776H23.538ZM15.376 12.01C15.376 11.5745 15.5144 11.3821 15.7071 11.2305C15.9721 11.0221 16.5595 10.7566 17.5681 10.7639L17.6119 4.76408C15.6065 4.74944 13.5869 5.26488 11.9984 6.51402C10.3376 7.81995 9.376 9.76149 9.376 12.01H15.376ZM17.5584 10.7638C18.4406 10.7731 19.2945 11.1888 19.7582 12.4895L25.4098 10.4745C24.0695 6.71522 20.9194 4.79888 17.6216 4.76417L17.5584 10.7638ZM21.5731 8.65745L19.4831 9.40545L21.5049 15.0546L23.5949 14.3066L21.5731 8.65745ZM23.3363 11.2702C22.4066 8.51665 20.2417 6.83612 17.6225 6.7885L17.5135 12.7875C17.5235 12.7877 17.5122 12.7887 17.4871 12.7801C17.4603 12.771 17.4385 12.7579 17.4275 12.7494C17.3946 12.7237 17.5195 12.7984 17.6517 13.1897L23.3363 11.2702ZM17.568 6.788C16.2419 6.788 14.8173 7.11223 13.6508 8.01451C12.4054 8.97781 11.708 10.4161 11.708 12.01H17.708C17.708 12.0879 17.6898 12.2318 17.6086 12.399C17.5271 12.5666 17.4162 12.6874 17.3217 12.7605C17.1507 12.8928 17.1561 12.788 17.568 12.788V6.788ZM11.708 12.01C11.708 14.3614 13.1576 15.7763 14.4069 16.5456C15.4699 17.2002 16.9074 17.6908 17.6801 17.9946C18.6806 18.3881 19.2274 18.6801 19.5425 18.9706C19.7141 19.1289 19.848 19.2881 19.848 19.798H25.848C25.848 17.5469 24.9644 15.8086 23.6098 14.5596C22.3986 13.4428 20.9104 12.8177 19.8759 12.4109C18.6137 11.9145 18.0161 11.7217 17.5529 11.4365C17.2759 11.2659 17.708 11.4846 17.708 12.01H11.708ZM19.848 19.798C19.848 20.3218 19.6725 20.607 19.4306 20.8082C19.1415 21.0488 18.4961 21.3675 17.2982 21.3522L17.2218 27.3518C19.4779 27.3805 21.6265 26.7862 23.2679 25.4208C24.9565 24.016 25.848 22.0022 25.848 19.798H19.848ZM17.2878 21.3521C16.2634 21.3426 15.2234 20.8287 14.2502 19.1377L9.04981 22.1303C10.7606 25.1033 13.5046 27.3174 17.2322 27.3519L17.2878 21.3521ZM13.1095 23.2551L15.0455 22.1771L12.1265 16.9349L10.1905 18.0129L13.1095 23.2551ZM27.0198 24.198H24.0197C24.0197 25.8549 25.3629 27.198 27.0198 27.198V24.198ZM27.0198 15.706H30.0198C30.0198 14.0491 28.6766 12.706 27.0198 12.706V15.706ZM25.0398 15.706H22.0398C22.0398 17.3629 23.3829 18.706 25.0398 18.706V15.706ZM25.0398 13.682V10.682C23.3829 10.682 22.0398 12.0251 22.0398 13.682H25.0398ZM27.0198 13.682V16.682C28.6766 16.682 30.0198 15.3389 30.0198 13.682H27.0198ZM27.0198 10.008V7.008C25.3629 7.008 24.0197 8.35114 24.0197 10.008H27.0198ZM29.3517 10.008H32.3517C32.3517 8.35114 31.0086 7.008 29.3517 7.008V10.008ZM29.3517 13.682H26.3517C26.3517 15.3389 27.6949 16.682 29.3517 16.682V13.682ZM31.8378 13.682H34.8378C34.8378 12.0251 33.4946 10.682 31.8378 10.682V13.682ZM31.8378 15.706V18.706C33.4946 18.706 34.8378 17.3629 34.8378 15.706H31.8378ZM29.3517 15.706V12.706C27.6949 12.706 26.3517 14.0491 26.3517 15.706H29.3517ZM29.3517 24.198V27.198C31.0086 27.198 32.3517 25.8549 32.3517 24.198H29.3517ZM30.0198 24.198V15.706H24.0197V24.198H30.0198ZM27.0198 12.706H25.0398V18.706H27.0198V12.706ZM28.0397 15.706V13.682H22.0398V15.706H28.0397ZM25.0398 16.682H27.0198V10.682H25.0398V16.682ZM30.0198 13.682V10.008H24.0197V13.682H30.0198ZM27.0198 13.008H29.3517V7.008H27.0198V13.008ZM26.3517 10.008V13.682H32.3517V10.008H26.3517ZM29.3517 16.682H31.8378V10.682H29.3517V16.682ZM28.8378 13.682V15.706H34.8378V13.682H28.8378ZM31.8378 12.706H29.3517V18.706H31.8378V12.706ZM26.3517 15.706V24.198H32.3517V15.706H26.3517ZM29.3517 21.198H27.0198V27.198H29.3517V21.198ZM42.9048 16.542L40.0958 17.5954C40.1114 17.6369 40.1279 17.6781 40.1453 17.7189L42.9048 16.542ZM43.3448 19.886V22.886C45.0016 22.886 46.3448 21.5429 46.3448 19.886H43.3448ZM35.7768 19.886V16.886C34.8843 16.886 34.0382 17.2833 33.4683 17.9701C32.8983 18.6568 32.6637 19.5617 32.8282 20.4389L35.7768 19.886ZM41.1668 20.942L42.3912 18.2032C40.9832 17.5738 39.3273 18.1145 38.5621 19.4536L41.1668 20.942ZM43.0368 21.778L45.7969 22.9536C46.438 21.4483 45.7548 19.707 44.2612 19.0392L43.0368 21.778ZM35.7768 18.038L32.8314 17.4679C32.6613 18.3471 32.8928 19.2564 33.4627 19.9472C34.0326 20.6379 34.8813 21.038 35.7768 21.038V18.038ZM41.1448 18.038V21.038C42.0281 21.038 42.8665 20.6487 43.4365 19.974C44.0065 19.2992 44.2502 18.4076 44.1026 17.5367L41.1448 18.038ZM38.5488 21.242C37.8253 21.242 37.3589 20.9917 37.0675 20.6887C36.7681 20.3772 36.4888 19.8349 36.4888 18.984H30.4888C30.4888 21.2131 31.2545 23.2998 32.7425 24.8473C34.2386 26.4033 36.3023 27.242 38.5488 27.242V21.242ZM36.4888 18.984C36.4888 18.1166 36.7716 17.5688 37.0706 17.2569C37.3611 16.9539 37.8256 16.704 38.5488 16.704V10.704C36.3019 10.704 34.2365 11.5431 32.7395 13.1046C31.251 14.6572 30.4888 16.7494 30.4888 18.984H36.4888ZM38.5488 16.704C38.94 16.704 39.1918 16.7809 39.3537 16.8544C39.5236 16.9315 39.6625 17.0365 39.7804 17.1568C40.0422 17.4239 40.1347 17.6992 40.0958 17.5954L45.7138 15.4886C45.5747 15.1177 43.8463 10.704 38.5488 10.704V16.704ZM40.1453 17.7189C40.2735 18.0197 40.3468 18.4232 40.3675 18.8536C40.3772 19.0544 40.3743 19.2332 40.3684 19.3739C40.3654 19.4442 40.3618 19.5047 40.3581 19.5626C40.3566 19.5858 40.3538 19.6286 40.3519 19.6619C40.3511 19.6763 40.3448 19.7757 40.3448 19.886H46.3448C46.3448 20.1636 46.6136 17.5912 45.6643 15.3651L40.1453 17.7189ZM43.3448 16.886H35.7768V22.886H43.3448V16.886ZM32.8282 20.4389C33.35 23.222 35.741 25.262 38.5488 25.262V19.262C38.7166 19.262 38.7316 19.366 38.7254 19.3331L32.8282 20.4389ZM38.5488 25.262C41.7321 25.262 43.2737 23.3016 43.7715 22.4304L38.5621 19.4536C38.5941 19.3974 38.6218 19.359 38.6457 19.331C38.6702 19.3023 38.695 19.2795 38.7199 19.2621C38.7474 19.2428 38.7634 19.2381 38.7563 19.2404C38.7496 19.2426 38.6875 19.262 38.5488 19.262V25.262ZM39.9424 23.6808L41.8124 24.5168L44.2612 19.0392L42.3912 18.2032L39.9424 23.6808ZM40.2767 20.6024C40.2859 20.5809 39.9705 21.242 38.5488 21.242V27.242C42.1431 27.242 44.7757 25.3511 45.7969 22.9536L40.2767 20.6024ZM35.7768 21.038H41.1448V15.038H35.7768V21.038ZM44.1026 17.5367C43.9276 16.5043 43.4972 15.2736 42.5167 14.2738C41.4695 13.2059 40.0707 12.684 38.5488 12.684V18.684C38.6289 18.684 38.6013 18.6962 38.5098 18.6601C38.4127 18.6219 38.3127 18.5562 38.2328 18.4747C38.1589 18.3994 38.1356 18.345 38.1388 18.3522C38.1434 18.3623 38.1667 18.42 38.187 18.5393L44.1026 17.5367ZM38.5488 12.684C35.5884 12.684 33.346 14.8094 32.8314 17.4679L38.7221 18.6081C38.7316 18.5592 38.7417 18.5794 38.6946 18.62C38.6722 18.6394 38.6428 18.6575 38.6094 18.67C38.5933 18.676 38.5789 18.6797 38.5672 18.6818C38.5615 18.6829 38.557 18.6834 38.5537 18.6837C38.5504 18.684 38.5487 18.684 38.5488 18.684V12.684ZM45.9626 28.84H42.9626C42.9626 30.4969 44.3058 31.84 45.9626 31.84V28.84ZM45.9626 13.682V10.682C44.3058 10.682 42.9626 12.0251 42.9626 13.682H45.9626ZM48.2946 13.682H51.2946C51.2946 12.0251 49.9515 10.682 48.2946 10.682V13.682ZM48.2946 15.222H45.2946C45.2946 16.5098 46.1165 17.6539 47.3369 18.065C48.5573 18.4761 49.9039 18.0625 50.6831 17.0372L48.2946 15.222ZM48.2946 22.702L50.6831 20.8867C49.9039 19.8615 48.5573 19.4479 47.3369 19.859C46.1165 20.2701 45.2946 21.4142 45.2946 22.702H48.2946ZM48.2946 28.84V31.84C49.9515 31.84 51.2946 30.4969 51.2946 28.84H48.2946ZM51.1986 25.284C52.8876 25.284 54.4442 24.5953 55.5293 23.3018C56.5714 22.0595 56.9926 20.4909 56.9926 18.962H50.9926C50.9926 19.4351 50.8638 19.5275 50.9325 19.4457C50.9686 19.4027 51.0303 19.3509 51.1092 19.315C51.1866 19.2798 51.2273 19.284 51.1986 19.284V25.284ZM56.9926 18.962C56.9926 17.4331 56.5714 15.8645 55.5293 14.6222C54.4442 13.3287 52.8876 12.64 51.1986 12.64V18.64C51.2273 18.64 51.1866 18.6442 51.1092 18.609C51.0303 18.5731 50.9686 18.5213 50.9325 18.4783C50.8638 18.3965 50.9926 18.4889 50.9926 18.962H56.9926ZM51.1986 12.64C47.5837 12.64 45.3166 15.8577 45.3166 18.962H51.3166C51.3166 18.7371 51.3953 18.6134 51.4252 18.5791C51.4387 18.5636 51.4312 18.5781 51.3893 18.5984C51.3434 18.6207 51.2754 18.64 51.1986 18.64V12.64ZM45.3166 18.962C45.3166 22.0663 47.5837 25.284 51.1986 25.284V19.284C51.2754 19.284 51.3434 19.3033 51.3893 19.3256C51.4312 19.3459 51.4387 19.3604 51.4252 19.3449C51.3953 19.3106 51.3166 19.1869 51.3166 18.962H45.3166ZM48.9626 28.84V13.682H42.9626V28.84H48.9626ZM45.9626 16.682H48.2946V10.682H45.9626V16.682ZM45.2946 13.682V15.222H51.2946V13.682H45.2946ZM50.6831 17.0372C50.7364 16.9672 50.8517 16.8649 51.0469 16.7776C51.1389 16.7363 51.226 16.709 51.2944 16.6935C51.3689 16.6766 51.3837 16.682 51.3306 16.682V10.682C49.7623 10.682 47.4118 11.4256 45.9061 13.4067L50.6831 17.0372ZM51.3306 16.682C52.0178 16.682 52.4627 16.9217 52.7465 17.2214C53.041 17.5324 53.3246 18.0853 53.3246 18.962H59.3246C59.3246 16.7367 58.5743 14.6496 57.1032 13.0961C55.6216 11.5313 53.5694 10.682 51.3306 10.682V16.682ZM53.3246 18.962C53.3246 19.8551 53.0375 20.4135 52.7435 20.725C52.4605 21.0247 52.0174 21.264 51.3306 21.264V27.264C53.5698 27.264 55.6237 26.4143 57.1063 24.844C58.5777 23.2855 59.3246 21.1929 59.3246 18.962H53.3246ZM51.3306 21.264C51.3854 21.264 51.3745 21.2699 51.3048 21.2536C51.2407 21.2386 51.1568 21.2117 51.0663 21.17C50.8759 21.0824 50.7499 20.9746 50.6831 20.8867L45.9061 24.5173C47.3863 26.4648 49.6918 27.264 51.3306 27.264V21.264ZM45.2946 22.702V28.84H51.2946V22.702H45.2946ZM48.2946 25.84H45.9626V31.84H48.2946V25.84ZM69.6123 8.072H72.6123C72.6123 6.41514 71.2691 5.072 69.6123 5.072V8.072ZM69.6123 24.066L69.584 27.0659C70.3845 27.0734 71.1548 26.7607 71.7236 26.1973C72.2923 25.6339 72.6123 24.8666 72.6123 24.066H69.6123ZM67.2803 24.044H64.2803C64.2803 25.6898 65.6062 27.0283 67.252 27.0439L67.2803 24.044ZM67.2803 10.558H70.2803C70.2803 9.4954 69.7182 8.51207 68.8025 7.97289C67.8869 7.43371 66.7543 7.41913 65.8251 7.93456L67.2803 10.558ZM64.4643 12.12L61.775 13.4495C62.1385 14.1848 62.7872 14.7392 63.5702 14.9837C64.3532 15.2281 65.2022 15.1413 65.9195 14.7434L64.4643 12.12ZM63.4963 10.162L62.0523 7.53239C60.644 8.30573 60.0949 10.0513 60.807 11.4915L63.4963 10.162ZM67.3023 8.072V5.072C66.7974 5.072 66.3008 5.1994 65.8583 5.44239L67.3023 8.072ZM66.6123 8.072V24.066H72.6123V8.072H66.6123ZM69.6406 21.0661L67.3086 21.0441L67.252 27.0439L69.584 27.0659L69.6406 21.0661ZM70.2803 24.044V10.558H64.2803V24.044H70.2803ZM65.8251 7.93456L63.0091 9.49656L65.9195 14.7434L68.7355 13.1814L65.8251 7.93456ZM67.1536 10.7905L66.1856 8.83246L60.807 11.4915L61.775 13.4495L67.1536 10.7905ZM64.9403 12.7916L68.7463 10.7016L65.8583 5.44239L62.0523 7.53239L64.9403 12.7916ZM67.3023 11.072H69.6123V5.072H67.3023V11.072Z" fill="#95434D" mask="url(#path-2-outside-1_1960_5591)"/>
</svg>
