<svg width="137" height="44" viewBox="0 0 137 44" fill="none" xmlns="http://www.w3.org/2000/svg">
<rect x="17" y="2" width="114" height="40" rx="20" fill="#1E78FF"/>
<path d="M46.64 12.202H49.06V17.152H51.788V19.132H49.06V23.972H46.64V12.202ZM33.77 15.986V14.072H38.324V12.048H40.744V14.072H45.298V15.986H33.77ZM34.782 20.232C34.782 18.12 36.718 16.712 39.534 16.712C42.372 16.712 44.308 18.12 44.308 20.232C44.308 22.344 42.372 23.73 39.534 23.73C36.718 23.73 34.782 22.344 34.782 20.232ZM36.498 31.54V24.918H49.06V31.54H36.498ZM37.092 20.232C37.092 21.31 38.082 21.948 39.534 21.948C40.986 21.948 41.976 21.31 41.976 20.232C41.976 19.132 40.986 18.516 39.534 18.516C38.082 18.516 37.092 19.132 37.092 20.232ZM38.874 29.626H46.706V26.854H38.874V29.626ZM57.7285 14.468C57.7285 19.11 57.2225 23.598 54.6705 27.448L52.7785 26.414C54.9125 23.334 55.5505 20.166 55.6825 16.426H53.3505V14.468H57.7285ZM57.1345 27.47C59.4885 24.082 59.9505 20.32 60.0165 16.426H58.3225V14.468H62.0845C62.0845 16.162 62.0405 17.922 61.8645 19.66H63.8005V12.642H66.0665V30.836H63.8005V21.618H61.6005C61.1825 24.038 60.4125 26.392 59.0045 28.526L57.1345 27.47ZM67.5185 31.782V12.202H69.8285V31.782H67.5185Z" fill="white"/>
<path d="M89.574 12.202H91.994V19.99H94.964V21.992H91.994V31.782H89.574V12.202ZM76.638 17.108V15.172H81.192V12.488H83.634V15.172H88.122V17.108H76.638ZM77.54 23.026C77.54 20.32 79.63 18.428 82.424 18.428C85.262 18.428 87.33 20.32 87.33 23.026C87.33 25.732 85.262 27.624 82.424 27.624C79.63 27.624 77.54 25.732 77.54 23.026ZM79.872 23.026C79.872 24.632 80.928 25.644 82.424 25.644C83.92 25.644 84.998 24.632 84.998 23.026C84.998 21.42 83.92 20.386 82.424 20.386C80.928 20.386 79.872 21.42 79.872 23.026ZM109.749 12.18H112.169V31.76H109.749V12.18ZM96.0865 26.414C101.169 23.972 103.479 20.65 103.897 16.184H97.0545V14.226H106.383C106.383 20.1 104.161 25.028 97.3405 28.328L96.0865 26.414Z" fill="white"/>
<g clip-path="url(#clip0_1960_5717)">
<path d="M11.3328 18.3761C13.0081 18.3761 14.4048 18.113 15.4267 17.5305L16.2516 17.6221C16.6465 17.666 17.066 17.6875 17.5084 17.6875C19.1238 17.6875 20.4598 17.3982 21.3884 16.7455C22.3485 16.0707 22.8103 15.0515 22.744 13.7736L22.745 13.0632V13.0625C22.745 11.6473 21.5978 10.5 20.1826 10.5C20.1826 10.5 20.1826 10.5 20.1825 10.5L16.5001 10.4994L15.1771 10.4992L15.2496 10.5631C15.0669 10.5218 14.8769 10.5 14.6817 10.5H7.8125C6.39727 10.5 5.25 11.6473 5.25 13.0625V14.1275C5.25 15.5357 5.821 16.6356 6.91796 17.3589C7.98191 18.0604 9.49183 18.3761 11.3328 18.3761ZM15.1419 5.58314C14.8509 3.69539 13.2192 2.25 11.25 2.25C9.07507 2.25 7.31194 4.01313 7.31194 6.18806C7.31194 8.36299 9.07507 10.1261 11.25 10.1261C12.9455 10.1261 14.3908 9.05457 14.9456 7.55172C15.2569 9.02184 16.5621 10.125 18.125 10.125C19.9199 10.125 21.375 8.66993 21.375 6.875C21.375 5.08007 19.9199 3.625 18.125 3.625C16.7891 3.625 15.6415 4.43096 15.1419 5.58314Z" fill="#D0D3D9" stroke="white"/>
<path d="M22.7449 13.0638V13.0631C22.7449 11.6479 21.5977 10.5006 20.1825 10.5006C20.1824 10.5006 20.1824 10.5006 20.1824 10.5006L16.5 10.5L15.177 10.4998L16.1692 11.375C16.6373 11.7879 16.9314 12.3906 16.9316 13.0626C16.9316 13.0627 16.9316 13.0629 16.9316 13.0631L16.9294 14.0525L16.9294 14.0603L16.9296 14.0681L16.938 14.3582C16.9377 15.3992 16.5906 16.183 15.9674 16.7584L15.1624 17.5017L16.2515 17.6227C16.6464 17.6665 17.0658 17.6881 17.5083 17.6881C19.1237 17.6881 20.4597 17.3988 21.3882 16.7461C22.3483 16.0712 22.8102 15.0521 22.7439 13.7741L22.7449 13.0638Z" fill="#B0B6C0" stroke="white"/>
<path d="M14.6876 6.18806C14.6876 4.28927 13.1484 2.75 11.2496 2.75C9.35079 2.75 7.81152 4.28927 7.81152 6.18806C7.81152 8.08684 9.35079 9.62611 11.2496 9.62611C13.1484 9.62611 14.6876 8.08684 14.6876 6.18806Z" fill="#FFD266"/>
<path d="M16.7442 13.0625C16.7442 11.9234 15.8208 11 14.6817 11H7.8125C6.67341 11 5.75 11.9234 5.75 13.0625V14.1275C5.75 16.6332 7.73759 17.8761 11.3328 17.8761C14.9396 17.8761 16.8846 16.6168 16.7431 14.0915L16.7442 13.0625Z" fill="#FFB400"/>
</g>
<defs>
<clipPath id="clip0_1960_5717">
<rect width="22" height="20" fill="white" transform="translate(3 2)"/>
</clipPath>
</defs>
</svg>
