<svg width="209" height="34" viewBox="0 0 209 34" fill="none" xmlns="http://www.w3.org/2000/svg">
<path d="M26.9999 18.8694V25.2608C26.9999 25.9873 26.696 26.684 26.155 27.1977C25.6141 27.7114 24.8803 28 24.1153 28H22.1922C21.4272 28 20.6935 27.7114 20.1525 27.1977C19.6115 26.684 19.3076 25.9873 19.3076 25.2608V20.6955C19.3076 19.969 19.6115 19.2723 20.1525 18.7586C20.6935 18.2449 21.4272 17.9563 22.1922 17.9563H25.0348C24.8038 15.4706 23.6035 13.1565 21.6692 11.4674C19.7348 9.77841 17.2059 8.83628 14.5781 8.82574H14.5C11.8612 8.82562 9.31761 9.76216 7.36869 11.4515C5.41976 13.1408 4.20623 15.461 3.96634 17.9563H6.80767C7.57272 17.9563 8.30643 18.2449 8.8474 18.7586C9.38837 19.2723 9.69228 19.969 9.69228 20.6955V25.2608C9.69228 25.9873 9.38837 26.684 8.8474 27.1977C8.30643 27.7114 7.57272 28 6.80767 28H4.8846C4.11956 28 3.38585 27.7114 2.84488 27.1977C2.30391 26.684 2 25.9873 2 25.2608V18.8694C2.0027 16.5182 2.73993 14.2205 4.11839 12.2673C5.49684 10.3141 7.45455 8.79318 9.74371 7.89699C12.0329 7.0008 14.5506 6.76966 16.9781 7.23283C19.4057 7.696 21.634 8.83266 23.3809 10.4989C24.5343 11.5995 25.4477 12.9054 26.0687 14.3418C26.6897 15.7781 27.0062 17.3167 26.9999 18.8694Z" fill="#FFB400"/>
<path d="M40.07 23.13H47.418V25.176H37.738V8.94H40.07V23.13ZM52.8542 14.682V25.176H50.5222V14.682H52.8542ZM50.3682 10.766C50.3682 10.3847 50.4929 10.0693 50.7422 9.82C50.9916 9.57067 51.3069 9.446 51.6882 9.446C52.0696 9.446 52.3849 9.57067 52.6342 9.82C52.8836 10.0693 53.0082 10.3847 53.0082 10.766C53.0082 11.1473 52.8836 11.4627 52.6342 11.712C52.3849 11.9613 52.0696 12.086 51.6882 12.086C51.3069 12.086 50.9916 11.9613 50.7422 11.712C50.4929 11.4627 50.3682 11.1473 50.3682 10.766ZM57.556 21.59C57.776 22.118 58.1134 22.5287 58.568 22.822C59.0227 23.1153 59.4554 23.262 59.866 23.262C60.4234 23.262 60.8634 23.1667 61.186 22.976C61.5087 22.7707 61.67 22.4847 61.67 22.118C61.67 21.8247 61.5087 21.59 61.186 21.414C60.8634 21.238 60.3427 21.0253 59.624 20.776C58.92 20.5267 58.3407 20.292 57.886 20.072C57.4314 19.852 57.028 19.5367 56.676 19.126C56.3387 18.7007 56.17 18.18 56.17 17.564C56.17 16.6547 56.5367 15.936 57.27 15.408C58.0034 14.8653 58.92 14.594 60.02 14.594C60.4894 14.594 60.9807 14.6893 61.494 14.88C62.022 15.0707 62.4914 15.364 62.902 15.76C63.3274 16.156 63.6207 16.6473 63.782 17.234L61.824 17.938C61.6627 17.4247 61.406 17.0727 61.054 16.882C60.7167 16.6913 60.372 16.596 60.02 16.596C59.5507 16.596 59.1767 16.684 58.898 16.86C58.634 17.036 58.502 17.2707 58.502 17.564C58.502 17.8573 58.6487 18.0847 58.942 18.246C59.2354 18.4073 59.7634 18.62 60.526 18.884C61.23 19.1333 61.8094 19.3753 62.264 19.61C62.7334 19.83 63.1367 20.1453 63.474 20.556C63.826 20.9667 64.002 21.48 64.002 22.096C64.002 23.0493 63.6207 23.8193 62.858 24.406C62.0954 24.978 61.098 25.264 59.866 25.264C59.0447 25.264 58.2454 25.0293 57.468 24.56C56.6907 24.076 56.1114 23.438 55.73 22.646L57.556 21.59ZM67.6506 16.706H65.6706V14.682H67.6506V11.008H69.9826V14.682H72.4686V16.706H69.9826V25.198H67.6506V16.706ZM79.1796 25.242C78.197 25.242 77.3243 25.022 76.5616 24.582C75.799 24.1273 75.1976 23.504 74.7576 22.712C74.3323 21.9053 74.1196 20.996 74.1196 19.984C74.1196 18.9573 74.3323 18.048 74.7576 17.256C75.1976 16.4493 75.799 15.826 76.5616 15.386C77.3243 14.9313 78.197 14.704 79.1796 14.704C80.5436 14.704 81.563 15.0487 82.2376 15.738C82.9123 16.4127 83.345 17.014 83.5356 17.542C83.8436 18.2607 83.9976 19.1187 83.9976 20.116C83.9976 20.38 83.9903 20.5707 83.9756 20.688C83.9756 20.7907 83.9756 20.8567 83.9756 20.886H76.4076C76.5396 21.59 76.8696 22.162 77.3976 22.602C77.9256 23.042 78.5196 23.262 79.1796 23.262C79.9276 23.262 80.507 23.1153 80.9176 22.822C81.3283 22.5287 81.6216 22.2353 81.7976 21.942L83.6676 22.778C83.3743 23.4527 82.839 24.032 82.0616 24.516C81.299 25 80.3383 25.242 79.1796 25.242ZM81.7756 19.038C81.6583 18.334 81.387 17.7693 80.9616 17.344C80.5363 16.904 79.9423 16.684 79.1796 16.684C78.4903 16.684 77.889 16.904 77.3756 17.344C76.8623 17.784 76.5396 18.3487 76.4076 19.038H81.7756ZM93.6115 19.412C93.6115 18.576 93.4061 17.9233 92.9955 17.454C92.5848 16.97 92.0201 16.728 91.3015 16.728C90.5828 16.7427 89.9815 17.0067 89.4975 17.52C89.0135 18.0187 88.7788 18.6493 88.7935 19.412V25.198H86.4615V14.704H88.7935V16.134C89.1308 15.7233 89.5561 15.386 90.0695 15.122C90.5828 14.858 91.0888 14.726 91.5875 14.726C92.3061 14.726 92.9955 14.8873 93.6555 15.21C94.3155 15.5327 94.8581 16.0387 95.2835 16.728C95.7235 17.4173 95.9435 18.2827 95.9435 19.324V25.198H93.6115V19.412ZM108.568 25.286C107.615 25.286 106.757 25.0587 105.994 24.604C105.246 24.1493 104.66 23.526 104.234 22.734C103.809 21.9273 103.596 21.018 103.596 20.006C103.596 18.994 103.809 18.092 104.234 17.3C104.66 16.4933 105.246 15.8627 105.994 15.408C106.757 14.9533 107.615 14.726 108.568 14.726C109.111 14.726 109.646 14.8507 110.174 15.1C110.702 15.3493 111.172 15.716 111.582 16.2V14.704H113.914V25.198H111.582V23.79C111.186 24.2887 110.724 24.6627 110.196 24.912C109.668 25.1613 109.126 25.286 108.568 25.286ZM105.928 20.006C105.928 20.9887 106.185 21.788 106.698 22.404C107.212 23.0053 107.886 23.306 108.722 23.306C109.236 23.306 109.712 23.1667 110.152 22.888C110.592 22.5947 110.944 22.1987 111.208 21.7C111.472 21.1867 111.604 20.622 111.604 20.006C111.604 19.39 111.472 18.8327 111.208 18.334C110.944 17.8207 110.592 17.4247 110.152 17.146C109.712 16.8527 109.236 16.706 108.722 16.706C107.886 16.706 107.212 17.0067 106.698 17.608C106.185 18.2093 105.928 19.0087 105.928 20.006ZM123.926 19.412C123.926 18.576 123.721 17.9233 123.31 17.454C122.899 16.97 122.335 16.728 121.616 16.728C120.897 16.7427 120.296 17.0067 119.812 17.52C119.328 18.0187 119.093 18.6493 119.108 19.412V25.198H116.776V14.704H119.108V16.134C119.445 15.7233 119.871 15.386 120.384 15.122C120.897 14.858 121.403 14.726 121.902 14.726C122.621 14.726 123.31 14.8873 123.97 15.21C124.63 15.5327 125.173 16.0387 125.598 16.728C126.038 17.4173 126.258 18.2827 126.258 19.324V25.198H123.926V19.412ZM133.62 25.286C132.666 25.286 131.808 25.0587 131.046 24.604C130.283 24.1493 129.689 23.526 129.264 22.734C128.838 21.9273 128.626 21.0107 128.626 19.984C128.626 18.9573 128.838 18.048 129.264 17.256C129.689 16.4493 130.283 15.8187 131.046 15.364C131.808 14.9093 132.666 14.682 133.62 14.682C134.118 14.682 134.646 14.8067 135.204 15.056C135.776 15.3053 136.267 15.7013 136.678 16.244V9.468H139.01V25.198H136.678V23.724C136.252 24.252 135.754 24.648 135.182 24.912C134.624 25.1613 134.104 25.286 133.62 25.286ZM130.958 20.006C130.958 21.0033 131.214 21.81 131.728 22.426C132.241 23.0273 132.923 23.328 133.774 23.328C134.302 23.328 134.786 23.1813 135.226 22.888C135.666 22.5947 136.018 22.1987 136.282 21.7C136.546 21.1867 136.678 20.622 136.678 20.006C136.678 19.4047 136.546 18.8473 136.282 18.334C136.018 17.8207 135.658 17.4173 135.204 17.124C134.764 16.8307 134.287 16.684 133.774 16.684C132.923 16.684 132.241 16.992 131.728 17.608C131.214 18.2093 130.958 19.0087 130.958 20.006ZM155.291 25.352C153.736 25.352 152.35 25 151.133 24.296C149.93 23.592 148.984 22.6093 148.295 21.348C147.62 20.0867 147.283 18.6567 147.283 17.058C147.283 15.4447 147.62 14.0147 148.295 12.768C148.984 11.5067 149.93 10.524 151.133 9.82C152.35 9.116 153.736 8.764 155.291 8.764C156.376 8.764 157.403 8.97667 158.371 9.402C159.339 9.82733 160.197 10.4213 160.945 11.184L159.405 12.702C158.906 12.1153 158.29 11.6533 157.557 11.316C156.838 10.9787 156.075 10.81 155.269 10.81C154.154 10.81 153.171 11.074 152.321 11.602C151.47 12.1153 150.81 12.8487 150.341 13.802C149.871 14.7407 149.637 15.826 149.637 17.058C149.637 18.29 149.871 19.3827 150.341 20.336C150.81 21.2747 151.47 22.008 152.321 22.536C153.171 23.0493 154.154 23.306 155.269 23.306C156.09 23.306 156.845 23.1373 157.535 22.8C158.224 22.4627 158.818 22.0153 159.317 21.458L160.945 22.932C159.331 24.56 157.447 25.3667 155.291 25.352ZM170.87 19.456C170.87 18.5907 170.679 17.9013 170.298 17.388C169.916 16.8747 169.41 16.618 168.78 16.618C168.31 16.618 167.878 16.7573 167.482 17.036C167.086 17.3 166.77 17.6667 166.536 18.136C166.316 18.6053 166.206 19.1187 166.206 19.676V25H163.874V9.468H166.206V15.936C166.528 15.5253 166.924 15.2027 167.394 14.968C167.863 14.7187 168.325 14.594 168.78 14.594C169.63 14.594 170.393 14.792 171.068 15.188C171.742 15.584 172.27 16.134 172.652 16.838C173.033 17.5273 173.224 18.312 173.224 19.192V25H170.87V19.456ZM180.844 25.242C179.861 25.242 178.988 25.022 178.226 24.582C177.463 24.1273 176.862 23.504 176.422 22.712C175.996 21.9053 175.784 20.996 175.784 19.984C175.784 18.9573 175.996 18.048 176.422 17.256C176.862 16.4493 177.463 15.826 178.226 15.386C178.988 14.9313 179.861 14.704 180.844 14.704C182.208 14.704 183.227 15.0487 183.902 15.738C184.576 16.4127 185.009 17.014 185.2 17.542C185.508 18.2607 185.662 19.1187 185.662 20.116C185.662 20.38 185.654 20.5707 185.64 20.688C185.64 20.7907 185.64 20.8567 185.64 20.886H178.072C178.204 21.59 178.534 22.162 179.062 22.602C179.59 23.042 180.184 23.262 180.844 23.262C181.592 23.262 182.171 23.1153 182.582 22.822C182.992 22.5287 183.286 22.2353 183.462 21.942L185.332 22.778C185.038 23.4527 184.503 24.032 183.726 24.516C182.963 25 182.002 25.242 180.844 25.242ZM183.44 19.038C183.322 18.334 183.051 17.7693 182.626 17.344C182.2 16.904 181.606 16.684 180.844 16.684C180.154 16.684 179.553 16.904 179.04 17.344C178.526 17.784 178.204 18.3487 178.072 19.038H183.44ZM192.567 23.042C192.978 23.042 193.396 22.9467 193.821 22.756C194.261 22.5507 194.628 22.2867 194.921 21.964L196.527 23.57C196.073 24.0687 195.479 24.4793 194.745 24.802C194.012 25.11 193.315 25.264 192.655 25.264C191.629 25.264 190.712 25.044 189.905 24.604C189.099 24.1493 188.468 23.5187 188.013 22.712C187.559 21.9053 187.331 20.996 187.331 19.984C187.331 18.9573 187.559 18.048 188.013 17.256C188.468 16.4493 189.099 15.8187 189.905 15.364C190.712 14.9093 191.629 14.682 192.655 14.682C193.345 14.682 194.041 14.8433 194.745 15.166C195.449 15.474 196.043 15.8847 196.527 16.398L194.921 17.982C194.628 17.6593 194.261 17.4027 193.821 17.212C193.396 17.0067 192.978 16.904 192.567 16.904C191.702 16.904 190.998 17.1827 190.455 17.74C189.927 18.2973 189.663 19.0453 189.663 19.984C189.663 20.908 189.927 21.6487 190.455 22.206C190.998 22.7633 191.702 23.042 192.567 23.042ZM200.987 19.038L204.727 14.704H207.873L203.781 19.39L207.785 25.198H204.947L202.109 21.128L200.987 22.448V25.198H198.655V9.468H200.987V19.038Z" fill="#275CE7"/>
</svg>
