<svg width="34" height="34" viewBox="0 0 34 34" fill="none" xmlns="http://www.w3.org/2000/svg">
<g clip-path="url(#clip0_2796_32801)">
<rect width="34" height="34" rx="10" fill="#D0C8FF"/>
<path d="M24.6367 8H12.2935C11.4802 8 10.7003 8.32307 10.1252 8.89815C9.55012 9.47322 9.22705 10.2532 9.22705 11.0665V18.426V21.4925H16.5866C16.9119 21.4925 17.2239 21.6217 17.4539 21.8517C17.6839 22.0817 17.8132 22.3937 17.8132 22.719V24.0609C17.8132 25.4151 18.911 26.3988 20.2663 26.3988C21.6094 26.3988 22.7011 25.4335 22.7195 24.0928V18.426V10.9144H22.7232C22.7568 10.2344 23.0158 9.5849 23.4593 9.06833C23.9028 8.55176 24.5056 8.19748 25.1727 8.06133C24.9962 8.02518 24.8168 8.00465 24.6367 8Z" fill="white"/>
<path d="M26.0397 12.5471C25.8097 12.7771 25.4977 12.9063 25.1724 12.9063H22.7192V11.0665V9.83988C22.7192 9.35191 22.9131 8.88393 23.2581 8.53889C23.6032 8.19384 24.0712 8 24.5591 8C25.0471 8 25.5151 8.19384 25.8601 8.53889C26.2052 8.88393 26.399 9.35191 26.399 9.83988V11.6798C26.399 12.0051 26.2698 12.3171 26.0397 12.5471Z" fill="#787DF7"/>
<path d="M24.5591 8C25.0471 8 25.5151 8.19384 25.8601 8.53889L22.7192 11.0665V9.83988C22.7192 9.35191 22.9131 8.88393 23.2581 8.53889C23.6032 8.19384 24.0712 8 24.5591 8Z" fill="#4C51BE"/>
<path d="M19.0393 24.0621C19.0392 24.915 19.3353 25.7413 19.877 26.4H10.9131C9.33207 26.4 8 25.1979 8 23.5641V22.1069C8 21.9443 8.06461 21.7883 8.17963 21.6733C8.29464 21.5583 8.45064 21.4937 8.61329 21.4937H19.0393V24.0621Z" fill="#6952F6"/>
<path d="M11.6797 11.6802H20.2658" stroke="#827FF8" stroke-width="1.22659" stroke-linecap="round"/>
<path d="M11.6797 14.1328H20.2658" stroke="#827FF8" stroke-width="1.22659" stroke-linecap="round"/>
<path d="M11.6797 16.5869H20.2658" stroke="#827FF8" stroke-width="1.22659" stroke-linecap="round"/>
<path d="M11.6797 19.0396H17.8126" stroke="#827FF8" stroke-width="1.22659" stroke-linecap="round"/>
</g>
<defs>
<clipPath id="clip0_2796_32801">
<rect width="34" height="34" fill="white"/>
</clipPath>
</defs>
</svg>
