<svg width="112" height="34" viewBox="0 0 112 34" fill="none" xmlns="http://www.w3.org/2000/svg">
<path fill-rule="evenodd" clip-rule="evenodd" d="M7.5 3C3.35786 3 0 6.35786 0 10.5C0 13.2785 1.51086 15.704 3.75583 17C1.51086 18.296 0 20.7215 0 23.5C0 27.6421 3.35786 31 7.5 31H104.5C108.642 31 112 27.6421 112 23.5C112 20.7215 110.489 18.296 108.244 17C110.489 15.704 112 13.2785 112 10.5C112 6.35786 108.642 3 104.5 3H7.5Z" fill="#664300"/>
<path d="M25.1798 14.478V8.934H27.5378V24.072H21.1118V8.934H23.4698V14.478H25.1798ZM25.1798 16.584H23.4698V21.966H25.1798V16.584ZM32.3438 25.17V17.142H31.0658V24.972H28.6718V8.736H31.0658V14.982H32.3438V8.646H34.7378V25.17H32.3438ZM38.6251 12.12C38.6251 11.112 39.0031 10.374 39.6511 9.852C40.8751 8.898 42.9991 8.646 45.3211 8.646C47.6611 8.646 49.7671 8.898 50.9911 9.852C51.6391 10.374 52.0171 11.112 52.0171 12.12C52.0171 13.11 51.6391 13.848 50.9911 14.37C49.7671 15.324 47.6611 15.576 45.3211 15.576C42.9991 15.576 40.8751 15.324 39.6511 14.37C39.0031 13.848 38.6251 13.11 38.6251 12.12ZM41.0911 12.12C41.0911 12.462 41.2351 12.714 41.5231 12.912C42.1711 13.38 43.4851 13.524 45.3211 13.524C47.1571 13.524 48.4891 13.38 49.1191 12.912C49.4071 12.714 49.5511 12.462 49.5511 12.12C49.5511 11.76 49.4071 11.508 49.1191 11.31C48.4891 10.842 47.1571 10.698 45.3211 10.698C43.4851 10.698 42.1711 10.842 41.5231 11.31C41.2351 11.508 41.0911 11.76 41.0911 12.12ZM37.8691 16.746H52.7371V18.888H46.7071V21.75H44.2591V18.888H37.8691V16.746ZM41.3791 23.082H51.9811V25.242H38.9131V20.256H41.3791V23.082Z" fill="#68E6CE"/>
<path d="M62.2336 21.93H64.5196C65.7436 21.93 66.6436 21.75 67.1656 21.354V8.736H69.5416V14.982H71.0176V8.646H73.4116V25.17H71.0176V17.142H69.5416V24.972H67.1656V23.352C66.6076 23.82 65.5456 24.072 64.0336 24.072H59.7856V8.844H62.2336V21.93ZM77.2989 11.904C77.2989 10.95 77.6769 10.266 78.3249 9.78C79.5309 8.898 81.6009 8.646 83.9949 8.646C86.3889 8.646 88.4589 8.898 89.6649 9.78C90.3129 10.266 90.6909 10.95 90.6909 11.904C90.6909 12.84 90.3129 13.542 89.6649 14.01C89.2329 14.334 88.7109 14.568 88.0989 14.73V16.098H91.4109V18.204H76.5429V16.098H79.9449V14.748C79.3149 14.586 78.7569 14.334 78.3249 14.01C77.6769 13.542 77.2989 12.84 77.2989 11.904ZM85.6689 15.108C85.1289 15.144 84.5709 15.162 83.9949 15.162C83.4369 15.162 82.8969 15.144 82.3749 15.108V16.098H85.6689V15.108ZM79.7649 11.904C79.7649 12.156 79.8729 12.354 80.1069 12.516C80.7369 12.966 82.1589 13.074 83.9949 13.074C85.8309 13.074 87.2529 12.966 87.8829 12.516C88.1169 12.354 88.2249 12.156 88.2249 11.904C88.2249 11.652 88.1169 11.436 87.8829 11.292C87.2529 10.842 85.8309 10.716 83.9949 10.716C82.1589 10.716 80.7369 10.842 80.1069 11.292C79.8729 11.436 79.7649 11.652 79.7649 11.904ZM77.2989 22.362C77.2989 21.246 77.8029 20.49 78.7209 19.968C79.8909 19.32 81.7269 19.086 83.9949 19.086C86.2629 19.086 88.0989 19.32 89.2689 19.968C90.2049 20.49 90.6909 21.246 90.6909 22.362C90.6909 23.478 90.2049 24.234 89.2689 24.738C88.0989 25.404 86.2629 25.638 83.9949 25.638C81.7269 25.638 79.8909 25.404 78.7209 24.738C77.8029 24.234 77.2989 23.478 77.2989 22.362ZM79.7649 22.362C79.7649 22.686 79.9269 22.938 80.2509 23.1C80.9169 23.46 82.1589 23.55 83.9949 23.55C85.8309 23.55 87.0729 23.46 87.7389 23.1C88.0629 22.938 88.2249 22.686 88.2249 22.362C88.2249 22.038 88.0629 21.786 87.7389 21.606C87.0729 21.264 85.8309 21.156 83.9949 21.156C82.1589 21.156 80.9169 21.264 80.2509 21.606C79.9269 21.786 79.7649 22.038 79.7649 22.362Z" fill="white"/>
</svg>
