<svg width="57" height="32" viewBox="0 0 57 32" fill="none" xmlns="http://www.w3.org/2000/svg">
<mask id="path-1-inside-1_3624_56267" fill="white">
<path d="M0 0H57V32H0V0Z"/>
</mask>
<path d="M57 29H0V35H57V29Z" fill="#BADDFF" mask="url(#path-1-inside-1_3624_56267)"/>
<path d="M11.14 15.78C12.66 15.78 13.66 14.82 13.66 13.14C13.66 11.46 12.66 10.52 11.14 10.52H8.1V15.78H11.14ZM5.52 23.26V8.3H11.6C14.34 8.3 16.24 10.18 16.24 13.06C16.26 14.92 15.5 16.5 13.18 17.58L16.96 23.26H13.86L10.36 18H8.1V23.26H5.52ZM22.9631 23.3C20.1831 23.3 18.2431 21.3 18.2431 18.44C18.2431 15.56 20.1831 13.54 22.9631 13.54C26.0231 13.54 27.0031 16.04 27.0431 16.16C27.6431 17.44 27.4631 19.1 27.4631 19.36H20.7031C20.9431 20.44 21.9431 21.16 22.9631 21.16C24.2831 21.16 24.8831 20.48 25.0631 20.14L27.1631 20.98C26.7031 22.1 25.3231 23.3 22.9631 23.3ZM20.7031 17.62H25.0831C24.8631 16.5 24.2031 15.68 22.9631 15.68C21.8231 15.68 20.9431 16.44 20.7031 17.62ZM33.9741 23.34C31.2741 23.34 29.4541 21.3 29.4541 18.44C29.4541 15.58 31.2741 13.56 33.9741 13.56C34.8541 13.56 35.9141 13.92 36.6341 14.84V13.54H39.2141V23.28H36.6341V22.06C35.9141 23 34.8541 23.34 33.9741 23.34ZM32.0341 18.44C32.0341 20.14 32.8941 21.2 34.2741 21.2C35.5741 21.2 36.6341 20.04 36.6541 18.44C36.6341 16.84 35.5741 15.68 34.2741 15.68C32.8941 15.68 32.0341 16.74 32.0341 18.44ZM46.0448 23.32C43.3448 23.32 41.5048 21.3 41.5048 18.42C41.5048 15.56 43.3448 13.52 46.0448 13.52C46.5648 13.52 47.8648 13.72 48.7448 14.88V8.82H51.3248V23.28H48.7448V21.98C47.8648 23.06 46.5648 23.32 46.0448 23.32ZM44.0848 18.48C44.0848 20.18 44.9448 21.24 46.3248 21.24C47.6648 21.24 48.7448 20.04 48.7448 18.48C48.7448 16.9 47.6648 15.7 46.3248 15.7C44.9448 15.7 44.0848 16.76 44.0848 18.48Z" fill="#1E6EFA"/>
</svg>
