<svg width="329" height="46" viewBox="0 0 329 46" fill="none" xmlns="http://www.w3.org/2000/svg">
<path d="M32.651 26.5667C30.946 19.4425 26.2296 15.9724 19.6987 19.2317C14.0046 24.8765 21.6929 29.3758 38.6427 27.6116" stroke="#4B6F98" stroke-width="35" stroke-miterlimit="10" stroke-linecap="round"/>
<path d="M17.7625 22.2472C17.2573 23.7649 15.92 24.3792 14.6916 23.8914C13.4633 23.4036 12.7897 22.0214 13.3147 20.4675C13.9289 18.6245 15.4247 17.5224 16.653 18.0193C17.8814 18.5071 18.3767 20.4043 17.7625 22.2472Z" fill="white"/>
<path d="M17.7625 22.2472C17.2573 23.7649 15.92 24.3792 14.6916 23.8914C13.4633 23.4036 12.7897 22.0214 13.3147 20.4675C13.9289 18.6245 15.4247 17.5224 16.653 18.0193C17.8814 18.5071 18.3767 20.4043 17.7625 22.2472Z" stroke="#231815" stroke-width="0.5" stroke-miterlimit="10"/>
<path d="M17.9296 21.0277C17.8107 21.8498 17.0777 22.428 16.305 22.3376C15.5323 22.2473 14.9974 21.5065 15.1163 20.6844C15.2351 19.8713 15.9583 19.2841 16.7409 19.3744C17.5135 19.4648 18.0485 20.2056 17.9296 21.0277Z" fill="#231815"/>
<path d="M24.1801 22.2472C23.6155 23.7649 22.1295 24.3792 20.7625 23.8914C19.3955 23.4036 18.6525 22.0214 19.2271 20.4675C19.9106 18.6245 21.5748 17.5224 22.9418 18.0193C24.3089 18.5071 24.8636 20.4043 24.1801 22.2472Z" fill="white"/>
<path d="M24.1801 22.2472C23.6155 23.7649 22.1295 24.3792 20.7625 23.8914C19.3955 23.4036 18.6525 22.0214 19.2271 20.4675C19.9106 18.6245 21.5748 17.5224 22.9418 18.0193C24.3089 18.5071 24.8636 20.4043 24.1801 22.2472Z" stroke="#231815" stroke-width="0.5" stroke-miterlimit="10"/>
<path d="M24.3689 21.0276C24.2501 21.8497 23.517 22.4279 22.7443 22.3376C21.9717 22.2472 21.4367 21.5064 21.5556 20.6843C21.6745 19.8713 22.3976 19.2841 23.1802 19.3744C23.9529 19.4647 24.4878 20.2055 24.3689 21.0276Z" fill="#231815"/>
<path d="M21.6655 26.7281C21.2494 26.7281 20.556 26.4119 20.1301 25.7163M15.5039 26.439C15.5039 26.439 18.1488 28.6343 20.7839 26.439" stroke="#231815" stroke-width="0.5" stroke-miterlimit="10" stroke-linecap="round"/>
<path d="M12.8867 23.9909C12.8867 23.9909 14.6797 22.8616 17.4931 23.9909C17.4931 23.9909 16.5916 25.2195 15.1849 25.2195C13.7783 25.2195 13.2731 24.6052 12.8867 23.9909Z" fill="#4B6F98"/>
<path d="M19.158 24.1172C19.158 24.1172 20.951 22.988 23.7643 24.1172C23.7643 24.1172 22.8628 25.3459 21.4562 25.3459C20.0495 25.3459 19.5443 24.7315 19.158 24.1172Z" fill="#4B6F98"/>
<path d="M13.4629 23.783C13.4629 23.783 15.1766 23.0151 17.3065 23.9908" stroke="#231815" stroke-width="0.5" stroke-miterlimit="10" stroke-linecap="round"/>
<path d="M19.6736 23.9998C19.6736 23.9998 21.3873 23.2319 23.5172 24.2076" stroke="#231815" stroke-width="0.5" stroke-miterlimit="10" stroke-linecap="round"/>
<path d="M24.7256 17.6669C24.7256 17.6669 23.3388 16.2485 21.0802 17.1519" stroke="#231815" stroke-width="0.5" stroke-miterlimit="10" stroke-linecap="round"/>
<path d="M17.841 17.6669C17.841 17.6669 16.7216 16.2214 14.4729 17.2604" stroke="#231815" stroke-width="0.5" stroke-miterlimit="10" stroke-linecap="round"/>
<rect x="26" y="9" width="186" height="36" rx="18" fill="#4B6F98"/>
<path d="M35.364 18.984H37.63V23.538H40.732V18.984H42.976V32.03H35.364V18.984ZM37.63 30.094H40.732V25.43H37.63V30.094ZM44.868 35.836V17.554H47.134V24.77H49.18V17.18H51.468V36.76H49.18V26.728H47.134V35.836H44.868ZM53.9765 26.882H71.7085V28.796H64.2065V32.404H61.7425V28.796H53.9765V26.882ZM55.8465 21.624C55.8465 19.16 58.6405 17.598 62.8205 17.598C67.0225 17.598 69.7945 19.16 69.7945 21.624C69.7945 24.088 67.0225 25.628 62.8205 25.628C58.6405 25.628 55.8465 24.088 55.8465 21.624ZM56.1105 36.386V30.578H58.5525V34.428H69.7505V36.386H56.1105ZM58.4425 21.624C58.4425 22.944 60.1585 23.692 62.8205 23.692C65.4825 23.692 67.1985 22.944 67.1985 21.624C67.1985 20.282 65.4825 19.534 62.8205 19.534C60.1585 19.534 58.4425 20.282 58.4425 21.624ZM92.6413 17.18H94.9513V36.76H92.6413V26.86H90.5073V35.792H88.2633V17.576H90.5073V24.902H92.6413V17.18ZM79.1113 31.898V19.446H81.5093V29.786C83.1593 29.764 85.0293 29.61 87.0533 29.214L87.2953 31.304C84.6993 31.788 82.4553 31.898 80.4313 31.898H79.1113ZM97.5039 26.64H101.618V24.132C100.166 23.494 99.3299 22.504 99.3299 21.228C99.3299 18.896 102.058 17.51 106.348 17.51C110.638 17.51 113.366 18.896 113.366 21.228C113.366 22.504 112.53 23.516 111.034 24.154V26.64H115.192V28.532H97.5039V26.64ZM99.5499 33.24C99.5499 30.996 102.102 29.72 106.326 29.72C110.528 29.72 113.08 30.996 113.08 33.24C113.08 35.506 110.528 36.782 106.326 36.782C102.102 36.782 99.5499 35.506 99.5499 33.24ZM101.816 21.228C101.816 22.438 103.488 23.098 106.348 23.098C109.186 23.098 110.858 22.438 110.858 21.228C110.858 20.018 109.186 19.358 106.348 19.358C103.488 19.358 101.816 20.018 101.816 21.228ZM101.992 33.24C101.992 34.362 103.51 34.934 106.326 34.934C109.12 34.934 110.638 34.362 110.638 33.24C110.638 32.14 109.12 31.568 106.326 31.568C103.51 31.568 101.992 32.14 101.992 33.24ZM104.016 26.64H108.636V24.77C107.932 24.88 107.162 24.924 106.348 24.924C105.512 24.924 104.72 24.88 104.016 24.77V26.64ZM134.761 17.202H137.181V22.922H139.821V24.902H137.181V30.446H134.761V17.202ZM121.605 28.114C123.079 28.114 124.773 28.114 126.511 28.07V26.838C124.355 26.574 123.013 25.54 123.013 24C123.013 22.196 124.861 21.096 127.677 21.096C130.537 21.096 132.385 22.196 132.385 24C132.385 25.54 131.065 26.552 128.909 26.838V27.982C130.581 27.894 132.231 27.762 133.793 27.542L133.991 29.236C129.855 29.962 125.323 29.984 121.913 30.006L121.605 28.114ZM122.111 20.524V18.742H126.511V17.026H128.909V18.742H133.265V20.524H122.111ZM124.069 33.196V31.304H137.181V36.782H134.761V33.196H124.069ZM125.301 24C125.301 24.814 126.203 25.32 127.677 25.32C129.173 25.32 130.097 24.814 130.097 24C130.097 23.164 129.173 22.68 127.677 22.68C126.203 22.68 125.301 23.164 125.301 24ZM154.781 17.202H157.201V31.348H154.781V17.202ZM141.361 23.406C141.361 20.524 143.649 18.478 146.597 18.478C149.567 18.478 151.833 20.524 151.833 23.406C151.833 26.244 149.567 28.312 146.597 28.312C143.649 28.312 141.361 26.244 141.361 23.406ZM143.715 23.406C143.715 25.1 144.969 26.2 146.597 26.2C148.225 26.2 149.479 25.1 149.479 23.406C149.479 21.668 148.225 20.568 146.597 20.568C144.969 20.568 143.715 21.668 143.715 23.406ZM144.353 36.386V29.94H146.751V34.45H157.729V36.386H144.353ZM173.086 17.202H175.506V24.99H178.476V26.992H175.506V36.782H173.086V17.202ZM160.15 22.108V20.172H164.704V17.488H167.146V20.172H171.634V22.108H160.15ZM161.052 28.026C161.052 25.32 163.142 23.428 165.936 23.428C168.774 23.428 170.842 25.32 170.842 28.026C170.842 30.732 168.774 32.624 165.936 32.624C163.142 32.624 161.052 30.732 161.052 28.026ZM163.384 28.026C163.384 29.632 164.44 30.644 165.936 30.644C167.432 30.644 168.51 29.632 168.51 28.026C168.51 26.42 167.432 25.386 165.936 25.386C164.44 25.386 163.384 26.42 163.384 28.026ZM193.26 17.18H195.68V36.76H193.26V17.18ZM179.598 31.414C184.68 28.972 186.99 25.65 187.408 21.184H180.566V19.226H189.894C189.894 25.1 187.672 30.028 180.852 33.328L179.598 31.414Z" fill="white"/>
<path d="M311.08 44.96L220.391 45C220.391 45 229.367 32.0222 233.001 26.0222C243.311 9 243.311 9 243.311 9H311.08C321 9 329 17.02 329 26.98C329 36.94 320.96 45 311.08 45" fill="#259CD3"/>
<path d="M259.56 23.516H263.63V17.158H266.028V36.804H263.63V25.474H259.56V23.516ZM249.55 30.82C252.696 29.324 254.478 25.54 254.478 21.866V18.764H256.898V21.866C256.898 25.496 258.592 29.082 261.694 30.49L260.264 32.426C258.086 31.348 256.546 29.28 255.688 26.75C254.83 29.434 253.246 31.634 251.046 32.756L249.55 30.82ZM276.567 17.29H279.053V17.818C279.053 19.886 281.693 21.822 285.741 22.24L284.949 24.066C281.671 23.67 279.075 22.372 277.821 20.48C276.567 22.372 273.971 23.67 270.671 24.066L269.879 22.24C273.949 21.822 276.567 19.886 276.567 17.818V17.29ZM268.977 26.97V25.034H286.665V26.97H279.009V28.488H284.465V33.328H273.443V34.78H285.015V36.606H271.089V31.634H282.089V30.292H271.023V28.488H276.589V26.97H268.977ZM299.227 21.646H302.021V17.18H304.441V29.742H302.021V27.454H299.183V25.518H302.021V23.56H299.227V21.646ZM288.227 21.008V19.116H292.539V17.026H294.981V19.116H299.073V21.008H288.227ZM289.217 25.452C289.217 23.296 291.087 21.822 293.727 21.822C296.411 21.822 298.259 23.296 298.259 25.452C298.259 27.652 296.411 29.126 293.727 29.126C291.087 29.126 289.217 27.652 289.217 25.452ZM291.285 33.35C291.285 31.216 293.815 29.962 297.907 29.962C301.999 29.962 304.551 31.216 304.551 33.35C304.551 35.506 301.999 36.76 297.907 36.76C293.815 36.76 291.285 35.506 291.285 33.35ZM291.483 25.452C291.483 26.618 292.385 27.3 293.727 27.3C295.091 27.3 296.015 26.618 296.015 25.452C296.015 24.308 295.091 23.648 293.727 23.648C292.385 23.648 291.483 24.308 291.483 25.452ZM293.815 33.35C293.815 34.384 295.311 34.912 297.907 34.912C300.503 34.912 301.999 34.384 301.999 33.35C301.999 32.316 300.503 31.81 297.907 31.81C295.311 31.81 293.815 32.316 293.815 33.35Z" fill="white"/>
<path d="M220.861 43.9875L222.769 27.4778L237.877 2.05127L248.702 8.12561L234.139 34.292L220.861 43.9875Z" fill="white"/>
<path d="M243.675 15.4459L234.369 10.0724L235.459 8.20341L237.017 5.51669L237.757 4.27067C238.146 3.60872 239.003 3.37509 239.665 3.76447L246.518 7.73616C247.18 8.12554 247.413 8.98217 247.063 9.64412L246.362 10.8901L244.805 13.5769L243.714 15.4459H243.675ZM241.339 19.4565L232.033 14.0831L233.435 11.6689L242.741 17.0424L241.339 19.4565ZM233.746 32.6176C233.396 32.2671 232.967 31.9556 232.539 31.6831C231.644 31.1379 230.631 30.9043 229.658 30.8654L235.343 20.9751L236.589 18.8335L240.405 21.053L233.746 32.6176ZM224.44 27.2441L231.098 15.6795L234.914 17.899L232.461 22.1432L227.944 29.9308C227.438 29.0742 226.698 28.3344 225.803 27.8282C225.374 27.5556 224.907 27.3609 224.401 27.2441M226.192 38.8866L222.727 36.9008L223.7 29.0353C224.09 29.1131 224.479 29.2689 224.868 29.5025C225.959 30.1255 226.698 31.1769 226.776 32.345C226.776 32.6565 226.971 32.9291 227.244 33.0848C227.516 33.2406 227.828 33.2406 228.1 33.1238C229.151 32.6565 230.436 32.7344 231.527 33.3574C231.877 33.5521 232.228 33.8247 232.5 34.1362L226.192 38.9255V38.8866ZM241.183 23.4671L246.362 14.5114L247.92 11.8247L249.321 9.37155L249.555 8.94323C249.944 8.28129 249.711 7.42465 249.01 7.03527L248.582 6.80164L239.353 1.42819L238.925 1.19456C238.263 0.805181 237.406 1.03881 237.017 1.70076L236.783 2.12908L235.382 4.58217L233.824 7.2689L222.143 27.5167C222.104 27.6335 222.065 27.7114 222.065 27.8282L220.897 37.2123H220.858L220.001 43.9485C219.962 44.3379 220.157 44.6884 220.468 44.8831C220.468 44.8831 220.546 44.8831 220.546 44.922C220.741 44.9999 220.974 45.0388 221.169 44.9609C221.286 44.9609 221.403 44.8831 221.481 44.8052L226.854 40.7167L234.408 34.9928C234.486 34.9149 234.564 34.837 234.642 34.7592L241.144 23.4671H241.183Z" fill="#005BA0"/>
</svg>
