<svg width="34" height="34" viewBox="0 0 34 34" fill="none" xmlns="http://www.w3.org/2000/svg">
<g clip-path="url(#clip0_2796_32796)">
<path fill-rule="evenodd" clip-rule="evenodd" d="M11.7105 2.7008C12.7423 1.66929 14.0533 0.962048 15.4819 0.66617C16.9106 0.370292 18.3946 0.498694 19.7513 1.03556C21.1079 1.57244 22.2779 2.49434 23.1172 3.68775C23.9565 4.88116 24.4285 6.29397 24.475 7.75223C26.3296 7.21769 28.3191 7.42313 30.0253 8.32536C31.7314 9.22758 33.0213 10.7563 33.6235 12.5899C34.2183 14.4179 34.0798 16.4079 33.237 18.1356C32.3942 19.8634 30.9131 21.1961 29.1063 21.8525C30.1779 23.4462 30.5863 25.3947 30.2449 27.2845C29.9034 29.1744 28.8391 30.8568 27.2776 31.9748C25.7133 33.1046 23.7739 33.5883 21.8622 33.3255C19.9505 33.0628 18.2136 32.0737 17.012 30.5638C16.2638 31.5051 15.3003 32.2529 14.2028 32.7441C13.1052 33.2352 11.9056 33.4555 10.7051 33.3862C9.50467 33.3169 8.33841 32.9602 7.30461 32.346C6.27081 31.7318 5.39974 30.8782 4.76476 29.8571C4.0177 28.6507 3.63414 27.2545 3.65998 25.8358C3.68583 24.417 4.11998 23.0358 4.91047 21.8574C3.10737 21.1904 1.63266 19.8509 0.795762 18.1201C-0.0411401 16.3893 -0.175196 14.4016 0.421721 12.5741C1.01864 10.7466 2.30013 9.22132 3.99734 8.31823C5.69455 7.41513 7.67557 7.20445 9.52476 7.73037C9.59093 5.83845 10.372 4.04198 11.7105 2.70323V2.7008Z" fill="#FF8AC2"/>
</g>
<defs>
<clipPath id="clip0_2796_32796">
<rect width="34" height="34" fill="white"/>
</clipPath>
</defs>
</svg>
