<svg width="144" height="44" viewBox="0 0 144 44" fill="none" xmlns="http://www.w3.org/2000/svg">
<mask id="path-1-inside-1_1960_5746" fill="white">
<path d="M4 2H128C134.627 2 140 7.37258 140 14V42H16C9.37259 42 4 36.6274 4 30V2Z"/>
</mask>
<path d="M4 2H140H4ZM140 44H16C8.26801 44 2 37.732 2 30H6C6 35.5228 10.4772 40 16 40H140V44ZM16 44C8.26801 44 2 37.732 2 30V2H6V30C6 35.5228 10.4772 40 16 40V44ZM140 2V42V2Z" fill="#70C954" mask="url(#path-1-inside-1_1960_5746)"/>
<path d="M25.966 13.368H28.298V15.766C28.298 17.922 29.508 20.056 32.06 21.068L30.784 22.894C29.068 22.212 27.858 20.98 27.176 19.44C26.45 21.2 25.196 22.696 23.326 23.488L22.05 21.618C24.712 20.452 25.966 17.988 25.966 15.766V13.368ZM25.614 28.152C25.614 25.908 28.188 24.544 32.258 24.544C36.35 24.544 38.924 25.908 38.924 28.152C38.924 30.418 36.35 31.76 32.258 31.76C28.188 31.76 25.614 30.418 25.614 28.152ZM28.012 28.152C28.012 29.296 29.574 29.934 32.258 29.934C34.964 29.934 36.504 29.296 36.504 28.152C36.504 27.008 34.964 26.392 32.258 26.392C29.574 26.392 28.012 27.008 28.012 28.152ZM32.368 23.598V12.576H34.634V17.152H36.526V12.202H38.836V24.214H36.526V19.11H34.634V23.598H32.368ZM54.3685 12.18H56.7885V16.888H59.5165V18.89H56.7885V23.598H54.3685V12.18ZM41.3005 21.64C45.8325 20.496 48.4065 18.142 48.8025 15.282H42.2465V13.346H51.3765C51.3765 18.45 48.0545 21.992 42.2905 23.532L41.3005 21.64ZM43.8745 26.37V24.456H56.7885V31.782H54.3685V26.37H43.8745Z" fill="#162811"/>
<path d="M66.326 13.082H68.746V19.814C71.342 19.792 73.85 19.616 76.534 19.088L76.842 21.068C73.718 21.64 70.902 21.816 67.932 21.816H66.326V13.082ZM67.536 25.182V23.378H74.004V28.218H69.912V29.758C71.76 29.736 72.904 29.67 74.334 29.406L74.532 31.21C72.794 31.562 71.386 31.562 68.68 31.562H67.558V26.502H71.672V25.182H67.536ZM74.048 17.086V15.128H79.086V12.18H81.506V22.476H79.086V17.086H74.048ZM75.038 31.562V23.202H77.216V25.446H79.328V23.202H81.506V31.562H75.038ZM77.216 29.714H79.328V27.272H77.216V29.714ZM98.1825 12.18H100.625V31.76H98.1825V12.18ZM84.8725 17.152V15.216H89.4925V12.444H91.9125V15.216H96.5325V17.152H84.8725ZM85.7965 23.026C85.7965 20.32 87.8645 18.428 90.7245 18.428C93.5845 18.428 95.6745 20.32 95.6745 23.026C95.6745 25.732 93.5845 27.624 90.7245 27.624C87.8645 27.624 85.7965 25.732 85.7965 23.026ZM88.0845 23.026C88.0845 24.632 89.2065 25.644 90.7245 25.644C92.2645 25.644 93.3425 24.632 93.3425 23.026C93.3425 21.42 92.2645 20.386 90.7245 20.386C89.2065 20.386 88.0845 21.42 88.0845 23.026ZM117.477 12.18H119.897V31.76H117.477V12.18ZM103.815 26.414C108.897 23.972 111.207 20.65 111.625 16.184H104.783V14.226H114.111C114.111 20.1 111.889 25.028 105.069 28.328L103.815 26.414Z" fill="#00A42E"/>
</svg>
