<svg width="20" height="20" viewBox="0 0 20 20" fill="none" xmlns="http://www.w3.org/2000/svg">
<g clip-path="url(#clip0_1633_1974)">
<path d="M20 9.99265C20 15.518 15.518 19.9853 10.0073 19.9853C4.49669 19.9853 0 15.518 0 9.99265C0 4.4673 4.482 0 9.99265 0C15.5033 0 19.9853 4.482 19.9853 9.99265" fill="#9CA1C9"/>
<path d="M14.9596 16.0177C14.3718 16.0177 13.8868 15.5328 13.8868 14.945C13.8868 14.3572 14.3718 13.8722 14.9596 13.8722C15.5474 13.8722 16.0323 14.3572 16.0323 14.945C16.0323 15.5328 15.5474 16.0177 14.9596 16.0177ZM11.6532 11.0067C11.4181 11.4035 11.0507 11.6974 10.5951 11.8149C10.1543 11.9325 9.68405 11.8737 9.28728 11.6386C8.89051 11.4035 8.59661 11.0361 8.47905 10.5805C8.36149 10.1397 8.42027 9.66944 8.65539 9.27268C8.89051 8.87591 9.25789 8.58201 9.69874 8.46445C9.84569 8.42036 10.0073 8.40567 10.1543 8.40567C10.3012 8.40567 10.4482 8.42036 10.5951 8.46445C10.7421 8.50853 10.8743 8.56731 11.0066 8.64079C11.4034 8.87591 11.6973 9.24329 11.8148 9.69883C11.9324 10.1544 11.8736 10.6099 11.6385 11.0067M4.51138 12.4468C4.21748 12.9611 3.5562 13.1375 3.05656 12.8436C2.54224 12.5497 2.3659 11.9031 2.6598 11.3888C2.80675 11.139 3.02717 10.9626 3.30638 10.8891C3.58559 10.8157 3.86479 10.845 4.11461 10.992C4.36443 11.139 4.54077 11.3594 4.61424 11.6386C4.68772 11.9178 4.64363 12.197 4.51138 12.4468ZM10.9772 4.1147C10.6833 3.60038 10.8597 2.95379 11.374 2.65989C11.8883 2.36599 12.5349 2.54233 12.8288 3.05666C13.1227 3.57099 12.9464 4.21757 12.432 4.51147C11.9177 4.80537 11.2711 4.62903 10.9772 4.1147ZM14.9596 13.1963C14.5922 13.1963 14.2689 13.2991 13.9897 13.4902L12.094 11.5945C12.1528 11.521 12.2116 11.4329 12.2557 11.3594C12.917 10.1985 12.5202 8.71426 11.374 8.05298C11.2858 8.0089 11.2123 7.96481 11.1242 7.92073L11.8148 5.3344C11.8148 5.3344 11.8883 5.3344 11.9324 5.3344C12.2263 5.3344 12.5349 5.26092 12.8141 5.09927C13.6517 4.61434 13.9456 3.5416 13.4607 2.68928C12.9757 1.85166 11.903 1.55776 11.0507 2.0427C10.2131 2.52764 9.91917 3.60038 10.4041 4.438C10.5804 4.74659 10.845 4.98171 11.1536 5.12866L10.4629 7.715C10.1543 7.68561 9.84569 7.7003 9.55179 7.77378C8.9199 7.93542 8.40557 8.34689 8.08228 8.9053C7.81777 9.37554 7.7149 9.90456 7.77368 10.4042L5.18735 11.0949C5.0404 10.7863 4.79058 10.5218 4.48199 10.3454C4.07053 10.1103 3.60028 10.0515 3.14474 10.1691C2.68919 10.2866 2.30712 10.5805 2.07199 10.992C1.58706 11.8296 1.88096 12.9024 2.71858 13.3873C2.99778 13.5489 3.29169 13.6224 3.60028 13.6224C4.20278 13.6224 4.80528 13.3138 5.12857 12.7407C5.30491 12.4321 5.37839 12.0941 5.36369 11.7561L7.95003 11.0655C8.15576 11.5357 8.49374 11.9325 8.96399 12.2117C9.33136 12.4321 9.75752 12.535 10.169 12.535C10.3747 12.535 10.5951 12.5056 10.8009 12.4468C11.1095 12.3733 11.3887 12.2264 11.6238 12.05L13.5195 13.9457C13.3284 14.2249 13.2256 14.5629 13.2256 14.9156C13.2256 15.8855 14.0191 16.679 14.989 16.679C15.9588 16.679 16.7524 15.8855 16.7524 14.9156C16.7524 13.9457 15.9588 13.1522 14.989 13.1522" fill="white"/>
<path d="M14.9596 16.0177C14.3718 16.0177 13.8868 15.5328 13.8868 14.945C13.8868 14.3572 14.3718 13.8722 14.9596 13.8722C15.5474 13.8722 16.0323 14.3572 16.0323 14.945C16.0323 15.5328 15.5474 16.0177 14.9596 16.0177ZM11.6532 11.0067C11.4181 11.4035 11.0507 11.6974 10.5951 11.8149C10.1543 11.9325 9.68405 11.8737 9.28728 11.6386C8.89051 11.4035 8.59661 11.0361 8.47905 10.5805C8.36149 10.1397 8.42027 9.66944 8.65539 9.27268C8.89051 8.87591 9.25789 8.58201 9.69874 8.46445C9.84569 8.42036 10.0073 8.40567 10.1543 8.40567C10.3012 8.40567 10.4482 8.42036 10.5951 8.46445C10.7421 8.50853 10.8743 8.56731 11.0066 8.64079C11.4034 8.87591 11.6973 9.24329 11.8148 9.69883C11.9324 10.1544 11.8736 10.6099 11.6385 11.0067H11.6532ZM4.51138 12.4468C4.21748 12.9611 3.5562 13.1375 3.05656 12.8436C2.54224 12.5497 2.3659 11.9031 2.6598 11.3888C2.80675 11.139 3.02717 10.9626 3.30638 10.8891C3.58559 10.8157 3.86479 10.845 4.11461 10.992C4.36443 11.139 4.54077 11.3594 4.61424 11.6386C4.68772 11.9178 4.64363 12.197 4.51138 12.4468ZM10.9772 4.1147C10.6833 3.60038 10.8597 2.95379 11.374 2.65989C11.8883 2.36599 12.5349 2.54233 12.8288 3.05666C13.1227 3.57099 12.9464 4.21757 12.432 4.51147C11.9177 4.80537 11.2711 4.62903 10.9772 4.1147ZM14.9596 13.1963C14.5922 13.1963 14.2689 13.2991 13.9897 13.4902L12.094 11.5945C12.1528 11.521 12.2116 11.4329 12.2557 11.3594C12.917 10.1985 12.5202 8.71426 11.374 8.05298C11.2858 8.0089 11.2123 7.96481 11.1242 7.92073L11.8148 5.3344C11.8148 5.3344 11.8883 5.3344 11.9324 5.3344C12.2263 5.3344 12.5349 5.26092 12.8141 5.09927C13.6517 4.61434 13.9456 3.5416 13.4607 2.68928C12.9757 1.85166 11.903 1.55776 11.0507 2.0427C10.2131 2.52764 9.91917 3.60038 10.4041 4.438C10.5804 4.74659 10.845 4.98171 11.1536 5.12866L10.4629 7.715C10.1543 7.68561 9.84569 7.7003 9.55179 7.77378C8.9199 7.93542 8.40557 8.34689 8.08228 8.9053C7.81777 9.37554 7.7149 9.90456 7.77368 10.4042L5.18735 11.0949C5.0404 10.7863 4.79058 10.5218 4.48199 10.3454C4.07053 10.1103 3.60028 10.0515 3.14474 10.1691C2.68919 10.2866 2.30712 10.5805 2.07199 10.992C1.58706 11.8296 1.88096 12.9024 2.71858 13.3873C2.99778 13.5489 3.29169 13.6224 3.60028 13.6224C4.20278 13.6224 4.80528 13.3138 5.12857 12.7407C5.30491 12.4321 5.37839 12.0941 5.36369 11.7561L7.95003 11.0655C8.15576 11.5357 8.49374 11.9325 8.96399 12.2117C9.33136 12.4321 9.75752 12.535 10.169 12.535C10.3747 12.535 10.5951 12.5056 10.8009 12.4468C11.1095 12.3733 11.3887 12.2264 11.6238 12.05L13.5195 13.9457C13.3284 14.2249 13.2256 14.5629 13.2256 14.9156C13.2256 15.8855 14.0191 16.679 14.989 16.679C15.9588 16.679 16.7524 15.8855 16.7524 14.9156C16.7524 13.9457 15.9588 13.1522 14.989 13.1522L14.9596 13.1963Z" stroke="white" stroke-width="0.07" stroke-miterlimit="10"/>
<path d="M10.1543 8.93462C9.71346 8.93462 9.3167 9.16974 9.09627 9.53711C8.99341 9.69876 9.05219 9.91919 9.22853 10.0074C9.28731 10.0367 9.34609 10.0514 9.40487 10.0514C9.52243 10.0514 9.63999 9.99266 9.69877 9.8751C9.78694 9.71346 9.96328 9.61059 10.1543 9.61059C10.3454 9.61059 10.4923 9.46364 10.4923 9.2726C10.4923 9.08157 10.3307 8.91992 10.1543 8.91992" fill="white"/>
</g>
<defs>
<clipPath id="clip0_1633_1974">
<rect width="20" height="20" fill="white"/>
</clipPath>
</defs>
</svg>
