<svg width="80" height="31" viewBox="0 0 80 31" fill="none" xmlns="http://www.w3.org/2000/svg">
<path d="M26.1256 26.7759C24.3767 25.9555 22.2633 25.9555 20.5144 26.7759C18.8404 27.5612 16.9714 28 15 28C7.8203 28 2 22.1797 2 15C2 7.8203 7.8203 2 15 2C16.9714 2 18.8404 2.43883 20.5144 3.22413C22.2633 4.04452 24.3767 4.04452 26.1256 3.22413C27.7997 2.43883 29.6686 2 31.64 2C33.6114 2 35.4804 2.43883 37.1544 3.22413C38.9033 4.04452 41.0167 4.04452 42.7656 3.22412C44.4397 2.43883 46.3086 2 48.28 2C50.2514 2 52.1204 2.43883 53.7944 3.22413C55.5433 4.04452 57.6567 4.04452 59.4056 3.22412C61.0797 2.43883 62.9486 2 64.92 2C72.0997 2 77.92 7.8203 77.92 15C77.92 22.1797 72.0997 28 64.92 28C62.9486 28 61.0796 27.5612 59.4056 26.7759C57.6567 25.9555 55.5433 25.9555 53.7944 26.7759C52.1204 27.5612 50.2514 28 48.28 28C46.3086 28 44.4397 27.5612 42.7656 26.7759C41.0167 25.9555 38.9033 25.9555 37.1544 26.7759C35.4804 27.5612 33.6114 28 31.64 28C29.6686 28 27.7996 27.5612 26.1256 26.7759Z" fill="#0C3066"/>
<path d="M21.968 8.056H23.728V12.216H25.648V13.656H23.728V17.688H21.968V8.056ZM12.4 15.992C13.472 15.992 14.704 15.992 15.968 15.96V15.064C14.4 14.872 13.424 14.12 13.424 13C13.424 11.688 14.768 10.888 16.816 10.888C18.896 10.888 20.24 11.688 20.24 13C20.24 14.12 19.28 14.856 17.712 15.064V15.896C18.928 15.832 20.128 15.736 21.264 15.576L21.408 16.808C18.4 17.336 15.104 17.352 12.624 17.368L12.4 15.992ZM12.768 10.472V9.176H15.968V7.928H17.712V9.176H20.88V10.472H12.768ZM14.192 19.688V18.312H23.728V22.296H21.968V19.688H14.192ZM15.088 13C15.088 13.592 15.744 13.96 16.816 13.96C17.904 13.96 18.576 13.592 18.576 13C18.576 12.392 17.904 12.04 16.816 12.04C15.744 12.04 15.088 12.392 15.088 13ZM36.5284 8.056H38.2884V18.344H36.5284V8.056ZM26.7684 12.568C26.7684 10.472 28.4324 8.984 30.5764 8.984C32.7364 8.984 34.3844 10.472 34.3844 12.568C34.3844 14.632 32.7364 16.136 30.5764 16.136C28.4324 16.136 26.7684 14.632 26.7684 12.568ZM28.4804 12.568C28.4804 13.8 29.3924 14.6 30.5764 14.6C31.7604 14.6 32.6724 13.8 32.6724 12.568C32.6724 11.304 31.7604 10.504 30.5764 10.504C29.3924 10.504 28.4804 11.304 28.4804 12.568ZM28.9444 22.008V17.32H30.6884V20.6H38.6724V22.008H28.9444ZM49.8408 8.056H51.6008V13.72H53.7608V15.176H51.6008V22.296H49.8408V8.056ZM40.4328 11.624V10.216H43.7448V8.264H45.5208V10.216H48.7847V11.624H40.4328ZM41.0888 15.928C41.0888 13.96 42.6088 12.584 44.6408 12.584C46.7048 12.584 48.2088 13.96 48.2088 15.928C48.2088 17.896 46.7048 19.272 44.6408 19.272C42.6088 19.272 41.0888 17.896 41.0888 15.928ZM42.7848 15.928C42.7848 17.096 43.5528 17.832 44.6408 17.832C45.7288 17.832 46.5128 17.096 46.5128 15.928C46.5128 14.76 45.7288 14.008 44.6408 14.008C43.5528 14.008 42.7848 14.76 42.7848 15.928ZM64.5131 8.04H66.2731V22.28H64.5131V8.04ZM54.5771 18.392C58.2731 16.616 59.9531 14.2 60.2571 10.952H55.2811V9.528H62.0651C62.0651 13.8 60.4491 17.384 55.4891 19.784L54.5771 18.392Z" fill="white"/>
</svg>
