<svg width="150" height="34" viewBox="0 0 150 34" fill="none" xmlns="http://www.w3.org/2000/svg">
<g clip-path="url(#clip0_9954_40545)">
<path d="M14.625 2.375C11.7325 2.375 8.90486 3.23274 6.49979 4.83976C4.09472 6.44677 2.2202 8.73089 1.11327 11.4033C0.00633679 14.0756 -0.283287 17.0162 0.281022 19.8532C0.845331 22.6902 2.23823 25.2961 4.28357 27.3414C6.32891 29.3868 8.93484 30.7797 11.7718 31.344C14.6088 31.9083 17.5494 31.6187 20.2218 30.5117C22.8941 29.4048 25.1782 27.5303 26.7852 25.1252C28.3923 22.7201 29.25 19.8926 29.25 17C29.2452 13.1227 27.7028 9.40558 24.9611 6.66391C22.2194 3.92223 18.5023 2.37984 14.625 2.375ZM19.7494 17.9366L12.9994 22.4366C12.8142 22.5593 12.5971 22.6248 12.375 22.625C12.0766 22.625 11.7905 22.5065 11.5795 22.2955C11.3685 22.0845 11.25 21.7984 11.25 21.5V12.5C11.2499 12.2963 11.3051 12.0963 11.4097 11.9215C11.5143 11.7467 11.6644 11.6036 11.844 11.5075C12.0236 11.4113 12.226 11.3657 12.4294 11.3756C12.6329 11.3854 12.8299 11.4504 12.9994 11.5634L19.7494 16.0634C19.9037 16.1661 20.0302 16.3054 20.1178 16.4688C20.2053 16.6321 20.2511 16.8146 20.2511 17C20.2511 17.1854 20.2053 17.3679 20.1178 17.5312C20.0302 17.6946 19.9037 17.8339 19.7494 17.9366Z" fill="#E71C2C"/>
</g>
<path d="M46.45 24.16H43.97L38.51 9.4H40.77L45.19 21.3L49.33 9.4H51.59L46.45 24.16ZM55.7752 14.62V24.16H53.6552V14.62H55.7752ZM53.5152 11.06C53.5152 10.7133 53.6285 10.4267 53.8552 10.2C54.0818 9.97333 54.3685 9.86 54.7152 9.86C55.0618 9.86 55.3485 9.97333 55.5752 10.2C55.8018 10.4267 55.9152 10.7133 55.9152 11.06C55.9152 11.4067 55.8018 11.6933 55.5752 11.92C55.3485 12.1467 55.0618 12.26 54.7152 12.26C54.3685 12.26 54.0818 12.1467 53.8552 11.92C53.6285 11.6933 53.5152 11.4067 53.5152 11.06ZM62.9495 24.22C62.0562 24.22 61.2629 24.02 60.5695 23.62C59.8762 23.2067 59.3295 22.64 58.9295 21.92C58.5429 21.1867 58.3495 20.36 58.3495 19.44C58.3495 18.5067 58.5429 17.68 58.9295 16.96C59.3295 16.2267 59.8762 15.66 60.5695 15.26C61.2629 14.8467 62.0562 14.64 62.9495 14.64C64.1895 14.64 65.1162 14.9533 65.7295 15.58C66.3429 16.1933 66.7362 16.74 66.9095 17.22C67.1895 17.8733 67.3295 18.6533 67.3295 19.56C67.3295 19.8 67.3229 19.9733 67.3095 20.08C67.3095 20.1733 67.3095 20.2333 67.3095 20.26H60.4295C60.5495 20.9 60.8495 21.42 61.3295 21.82C61.8095 22.22 62.3495 22.42 62.9495 22.42C63.6295 22.42 64.1562 22.2867 64.5295 22.02C64.9029 21.7533 65.1695 21.4867 65.3295 21.22L67.0295 21.98C66.7629 22.5933 66.2762 23.12 65.5695 23.56C64.8762 24 64.0029 24.22 62.9495 24.22ZM65.3095 18.58C65.2029 17.94 64.9562 17.4267 64.5695 17.04C64.1829 16.64 63.6429 16.44 62.9495 16.44C62.3229 16.44 61.7762 16.64 61.3095 17.04C60.8429 17.44 60.5495 17.9533 60.4295 18.58H65.3095ZM78.7886 24.18H76.8286L74.9486 18.02L73.1086 24.18H71.1486L68.2886 14.64H70.4886L72.1486 20.74L73.8686 14.64H75.9886L77.7686 20.74L79.3886 14.64H81.5886L78.7886 24.18ZM101.934 24.16H99.6742L98.1942 20.14H92.1342L90.5942 24.16H88.3342L93.9142 9.4H96.4542L101.934 24.16ZM97.4942 18.3L95.1942 12.08L92.8142 18.3H97.4942ZM110.367 18.96C110.367 18.1733 110.193 17.5467 109.847 17.08C109.5 16.6133 109.04 16.38 108.467 16.38C108.04 16.38 107.647 16.5067 107.287 16.76C106.927 17 106.64 17.3333 106.427 17.76C106.227 18.1867 106.127 18.6533 106.127 19.16V24H104.007V9.88H106.127V15.76C106.42 15.3867 106.78 15.0933 107.207 14.88C107.633 14.6533 108.053 14.54 108.467 14.54C109.24 14.54 109.933 14.72 110.547 15.08C111.16 15.44 111.64 15.94 111.987 16.58C112.333 17.2067 112.507 17.92 112.507 18.72V24H110.367V18.96ZM119.434 24.22C118.541 24.22 117.747 24.02 117.054 23.62C116.361 23.2067 115.814 22.64 115.414 21.92C115.027 21.1867 114.834 20.36 114.834 19.44C114.834 18.5067 115.027 17.68 115.414 16.96C115.814 16.2267 116.361 15.66 117.054 15.26C117.747 14.8467 118.541 14.64 119.434 14.64C120.674 14.64 121.601 14.9533 122.214 15.58C122.827 16.1933 123.221 16.74 123.394 17.22C123.674 17.8733 123.814 18.6533 123.814 19.56C123.814 19.8 123.807 19.9733 123.794 20.08C123.794 20.1733 123.794 20.2333 123.794 20.26H116.914C117.034 20.9 117.334 21.42 117.814 21.82C118.294 22.22 118.834 22.42 119.434 22.42C120.114 22.42 120.641 22.2867 121.014 22.02C121.387 21.7533 121.654 21.4867 121.814 21.22L123.514 21.98C123.247 22.5933 122.761 23.12 122.054 23.56C121.361 24 120.487 24.22 119.434 24.22ZM121.794 18.58C121.687 17.94 121.441 17.4267 121.054 17.04C120.667 16.64 120.127 16.44 119.434 16.44C118.807 16.44 118.261 16.64 117.794 17.04C117.327 17.44 117.034 17.9533 116.914 18.58H121.794ZM130.272 24.26C129.405 24.26 128.625 24.0533 127.932 23.64C127.252 23.2267 126.719 22.66 126.332 21.94C125.945 21.2067 125.752 20.38 125.752 19.46C125.752 18.54 125.945 17.72 126.332 17C126.719 16.2667 127.252 15.6933 127.932 15.28C128.625 14.8667 129.405 14.66 130.272 14.66C130.765 14.66 131.252 14.7733 131.732 15C132.212 15.2267 132.639 15.56 133.012 16V14.64H135.132V24.18H133.012V22.9C132.652 23.3533 132.232 23.6933 131.752 23.92C131.272 24.1467 130.779 24.26 130.272 24.26ZM127.872 19.46C127.872 20.3533 128.105 21.08 128.572 21.64C129.039 22.1867 129.652 22.46 130.412 22.46C130.879 22.46 131.312 22.3333 131.712 22.08C132.112 21.8133 132.432 21.4533 132.672 21C132.912 20.5333 133.032 20.02 133.032 19.46C133.032 18.9 132.912 18.3933 132.672 17.94C132.432 17.4733 132.112 17.1133 131.712 16.86C131.312 16.5933 130.879 16.46 130.412 16.46C129.652 16.46 129.039 16.7333 128.572 17.28C128.105 17.8267 127.872 18.5533 127.872 19.46ZM142.03 24.26C141.163 24.26 140.383 24.0533 139.69 23.64C138.997 23.2267 138.457 22.66 138.07 21.94C137.683 21.2067 137.49 20.3733 137.49 19.44C137.49 18.5067 137.683 17.68 138.07 16.96C138.457 16.2267 138.997 15.6533 139.69 15.24C140.383 14.8267 141.163 14.62 142.03 14.62C142.483 14.62 142.963 14.7333 143.47 14.96C143.99 15.1867 144.437 15.5467 144.81 16.04V9.88H146.93V24.18H144.81V22.84C144.423 23.32 143.97 23.68 143.45 23.92C142.943 24.1467 142.47 24.26 142.03 24.26ZM139.61 19.46C139.61 20.3667 139.843 21.1 140.31 21.66C140.777 22.2067 141.397 22.48 142.17 22.48C142.65 22.48 143.09 22.3467 143.49 22.08C143.89 21.8133 144.21 21.4533 144.45 21C144.69 20.5333 144.81 20.02 144.81 19.46C144.81 18.9133 144.69 18.4067 144.45 17.94C144.21 17.4733 143.883 17.1067 143.47 16.84C143.07 16.5733 142.637 16.44 142.17 16.44C141.397 16.44 140.777 16.72 140.31 17.28C139.843 17.8267 139.61 18.5533 139.61 19.46Z" fill="#2F38C7"/>
<defs>
<clipPath id="clip0_9954_40545">
<rect width="29.25" height="34" fill="white"/>
</clipPath>
</defs>
</svg>
