<svg width="20" height="20" viewBox="0 0 20 20" fill="none" xmlns="http://www.w3.org/2000/svg">
<g clip-path="url(#clip0_1633_304)">
<path d="M20 9.99265C20 15.518 15.518 19.9853 10.0073 19.9853C4.49669 19.9853 0 15.518 0 9.99265C0 4.4673 4.482 0 9.99265 0C15.5033 0 19.9853 4.482 19.9853 9.99265" fill="#9CA1C9"/>
<path d="M17.4871 8.47909C17.4871 9.58122 16.5907 10.4776 15.4886 10.4776C15.2829 10.4776 15.1065 10.654 15.1065 10.8597V11.9324L13.255 10.5511C13.255 10.5511 13.108 10.4776 13.0198 10.4776H12.2263V9.6547C12.2263 8.12641 10.9772 6.87733 9.44894 6.87733H8.53784V6.58343C8.53784 5.4813 9.43424 4.5849 10.5364 4.5849H15.4739C16.576 4.5849 17.4724 5.4813 17.4724 6.58343V8.4644L17.4871 8.47909ZM11.4622 10.4923H10.5511C9.44894 10.4923 8.55254 9.59592 8.55254 8.49379V7.67086H9.46363C10.5658 7.67086 11.4622 8.56726 11.4622 9.6694V10.4923ZM11.4622 11.5504C11.4622 12.6525 10.5658 13.5489 9.46363 13.5489H6.99486C6.90669 13.5489 6.83321 13.5783 6.75974 13.6224L4.90816 15.0037V13.931C4.90816 13.7105 4.73182 13.5489 4.52609 13.5489C3.42395 13.5489 2.52755 12.6525 2.52755 11.5504V9.6694C2.52755 8.56726 3.42395 7.67086 4.52609 7.67086H7.78839V8.49379C7.78839 10.0221 9.03747 11.2712 10.5658 11.2712H11.4769V11.5651L11.4622 11.5504ZM15.4886 3.83545H10.5511C9.02278 3.83545 7.7737 5.08453 7.7737 6.61282V6.90672H4.51139C2.9831 6.90672 1.73402 8.1558 1.73402 9.68409V11.5651C1.73402 12.9611 2.77737 14.122 4.11462 14.313V15.7972C4.11462 15.9442 4.20279 16.0764 4.32035 16.1352C4.37913 16.1646 4.43791 16.1793 4.49669 16.1793C4.57017 16.1793 4.65834 16.1499 4.73182 16.1058L7.09772 14.3424H9.44894C10.9772 14.3424 12.2263 13.0933 12.2263 11.5651V11.2712H12.8876L15.2535 13.0346C15.2535 13.0346 15.4004 13.108 15.4886 13.108C15.5474 13.108 15.6062 13.108 15.665 13.064C15.7972 13.0052 15.8707 12.8729 15.8707 12.726V11.2418C17.2226 11.0507 18.2513 9.88982 18.2513 8.49379V6.61282C18.2513 5.08453 17.0022 3.83545 15.4739 3.83545" fill="white"/>
</g>
<defs>
<clipPath id="clip0_1633_304">
<rect width="20" height="20" fill="white"/>
</clipPath>
</defs>
</svg>
