<svg width="84" height="34" viewBox="0 0 84 34" fill="none" xmlns="http://www.w3.org/2000/svg">
<path d="M8.64 18.9C9.93333 18.9 11.06 19.04 12.02 19.32C12.98 19.5867 13.72 19.98 14.24 20.5C14.7733 21.02 15.04 21.6267 15.04 22.32C15.04 23.0133 14.7733 23.6133 14.24 24.12C13.72 24.64 12.98 25.0333 12.02 25.3C11.06 25.58 9.93333 25.72 8.64 25.72C7.34667 25.72 6.21333 25.58 5.24 25.3C4.28 25.0333 3.54 24.64 3.02 24.12C2.5 23.6133 2.24 23.0133 2.24 22.32C2.24 21.6267 2.5 21.02 3.02 20.5C3.54 19.98 4.28 19.5867 5.24 19.32C6.21333 19.04 7.34667 18.9 8.64 18.9ZM0.64 15.72H6.58V12.62H9.24V15.72H16.84V17.84H0.64V15.72ZM2.44 8.52H14.92V9.98C14.92 10.94 14.8933 11.78 14.84 12.5C14.7867 13.2067 14.6533 13.9733 14.44 14.8L11.8 14.52C11.9867 13.8133 12.1067 13.16 12.16 12.56C12.2267 11.96 12.2667 11.3067 12.28 10.6H2.44V8.52ZM4.9 22.32C4.9 22.7867 5.22 23.14 5.86 23.38C6.5 23.6067 7.42667 23.72 8.64 23.72C9.85333 23.72 10.78 23.6067 11.42 23.38C12.06 23.14 12.38 22.7867 12.38 22.32C12.38 21.8533 12.06 21.5 11.42 21.26C10.78 21.02 9.85333 20.9 8.64 20.9C7.42667 20.9 6.5 21.02 5.86 21.26C5.22 21.5 4.9 21.8533 4.9 22.32ZM22.0405 9.24V7.6H24.7005V9.24H28.6605V11.34H18.0805V9.24H22.0405ZM18.9405 15.22C18.9405 14.5667 19.1271 13.9867 19.5005 13.48C19.8871 12.96 20.4138 12.56 21.0805 12.28C21.7605 12 22.5271 11.86 23.3805 11.86C24.2338 11.86 24.9938 12 25.6605 12.28C26.3405 12.56 26.8671 12.96 27.2405 13.48C27.6271 13.9867 27.8205 14.5667 27.8205 15.22C27.8205 15.86 27.6271 16.4333 27.2405 16.94C26.8671 17.4333 26.3405 17.82 25.6605 18.1C24.9938 18.38 24.2338 18.52 23.3805 18.52C22.5271 18.52 21.7605 18.38 21.0805 18.1C20.4138 17.82 19.8871 17.4333 19.5005 16.94C19.1271 16.4333 18.9405 15.86 18.9405 15.22ZM20.2205 19.72H32.2605V25.72H29.5805V21.84H20.2205V19.72ZM21.5005 15.22C21.5005 15.6467 21.6671 15.9733 22.0005 16.2C22.3471 16.4267 22.8071 16.54 23.3805 16.54C23.9405 16.54 24.3871 16.4267 24.7205 16.2C25.0671 15.9733 25.2405 15.6467 25.2405 15.22C25.2405 14.78 25.0738 14.4467 24.7405 14.22C24.4071 13.9933 23.9538 13.88 23.3805 13.88C22.8071 13.88 22.3471 13.9933 22.0005 14.22C21.6671 14.4467 21.5005 14.78 21.5005 15.22ZM29.5805 7.72H32.2605V12.32H34.6205V14.48H32.2605V19H29.5805V7.72Z" fill="#385CAA"/>
<path d="M54.5903 8.92V11.04H44.7103V15.68H54.7303V17.8H49.6303V21.52H56.4703V23.68H40.1703V21.52H46.9703V17.8H42.0503V8.92H54.5903ZM72.0508 8.74V10.34C72.0508 11.5 72.0241 12.52 71.9708 13.4C71.9308 14.28 71.8108 15.28 71.6108 16.4H73.9308V18.56H67.0508V25.74H64.3708V18.56H57.6508V16.4H68.9508C69.1508 15.3867 69.2774 14.4533 69.3308 13.6C69.3974 12.7467 69.4308 11.8333 69.4308 10.86H59.5108V8.74H72.0508Z" fill="#60CAE1"/>
<path d="M0.0225774 32.2882C0.0643276 32.2742 0.266527 32.1928 0.205916 32.2244C0.166337 32.2924 0.347148 32.1919 0.404222 32.1813C0.59409 32.0885 0.53997 32.22 0.386404 32.3225C0.284142 32.3722 0.142798 32.4498 0.112782 32.4754C0.0827709 32.501 0.163479 32.47 0.507235 32.3201C0.76105 32.2138 0.886767 32.1686 0.930828 32.1558C0.974882 32.143 0.937389 32.1636 0.865901 32.1991C0.722926 32.2699 0.444563 32.4046 0.408629 32.4372C0.25854 32.5481 0.489564 32.4403 0.39792 32.5427C0.303819 32.5764 0.209791 32.6109 0.115828 32.6462C0.128638 32.7032 0.272247 32.6011 0.339861 32.5921C0.431459 32.5367 0.204024 32.6825 0.0990268 32.7664C0.0465322 32.8084 0.0244907 32.8341 0.0876781 32.8095C0.150865 32.7848 0.299059 32.7086 0.589153 32.5591C0.874079 32.4218 1.04751 32.3496 1.1475 32.3125C1.24748 32.2755 1.27414 32.2743 1.26701 32.289C1.25274 32.3184 1.10373 32.4137 1.13656 32.4243C1.22718 32.379 1.46887 32.2765 1.78085 32.1627C2.09284 32.0489 2.4752 31.9253 2.84543 31.825C3.58588 31.6245 4.27692 31.5227 4.24616 31.5752C3.59715 31.6928 3.10384 31.8231 2.71663 31.9373C2.32943 32.0516 2.04826 32.1511 1.82448 32.2359C1.3769 32.4056 1.15817 32.5124 0.789445 32.6877C0.410212 32.8486 0.394851 32.9481 0.492306 32.8643C0.528942 32.9028 0.369974 33.039 0.357822 33.0838C0.351745 33.1063 0.382201 33.1054 0.492035 33.0585C0.601869 33.0119 0.790944 32.9188 1.10405 32.7691C1.4841 32.5848 1.87688 32.4651 2.07465 32.432C2.27243 32.3989 2.27453 32.4418 1.87931 32.6063C1.71069 32.66 1.35082 32.7751 1.08174 32.8748C0.812661 32.9745 0.633974 33.0521 0.824812 33.0005C1.29632 32.8231 1.86595 32.6263 2.28378 32.5196C1.89188 32.6219 1.71977 32.6946 1.73782 32.7012C1.75587 32.7077 1.96389 32.6495 2.33553 32.5335C2.5678 32.5154 1.95941 32.7221 1.46794 32.9184C1.22221 33.0166 1.00538 33.1096 0.934683 33.145C0.863986 33.1805 0.938951 33.1535 1.27889 33.0352C1.47338 32.9694 1.35913 33.0296 1.4417 33.0139C1.48299 33.0061 1.57341 32.9788 1.7767 32.9137C1.97999 32.8485 2.29604 32.7435 2.79069 32.6074C3.00613 32.5892 3.03451 32.6105 2.94476 32.6518C2.85501 32.6933 2.6472 32.7573 2.39035 32.8379C2.13351 32.9184 1.8277 33.0163 1.54129 33.1159C1.25487 33.2155 0.987859 33.3162 0.807449 33.3882C0.483315 33.5014 0.368825 33.5604 0.361278 33.5746C0.353727 33.5887 0.45326 33.5611 0.558661 33.5185C0.647209 33.4692 0.570086 33.5138 0.604507 33.5141C0.638928 33.5141 0.783962 33.4623 1.32117 33.2636C1.76338 33.0999 2.30481 32.9407 2.56209 32.8877C2.69072 32.8611 2.74815 32.8586 2.68663 32.8908C2.62512 32.923 2.44452 32.9887 2.09901 33.1188C1.9142 33.19 1.57234 33.3122 1.37137 33.3946C1.1704 33.477 1.10942 33.5082 1.4855 33.3977C1.72134 33.3017 2.06879 33.1832 2.57984 33.046C3.0909 32.9088 3.76572 32.7506 4.65764 32.6293C4.97019 32.6061 5.16718 32.6039 5.27162 32.6083C5.37606 32.6127 5.38797 32.6236 5.33057 32.639C5.21578 32.6696 4.82373 32.7187 4.3402 32.804C3.85668 32.8893 3.28198 33.0153 2.80029 33.1471C2.31861 33.2788 1.92984 33.4117 1.814 33.4587C1.54776 33.5396 1.25156 33.6431 1.01044 33.7337C0.769326 33.8243 0.583186 33.9008 0.535727 33.9166C0.570509 33.9441 0.928332 33.7941 1.52058 33.5894C2.11282 33.3846 2.94093 33.1312 3.91091 32.9753C4.41008 32.893 5.05882 32.8027 5.80379 32.7603C6.54882 32.7179 7.39009 32.7248 8.271 32.8167C9.4847 32.9419 10.7983 33.2402 12.0765 33.4818C13.1382 33.6848 14.1656 33.8379 15.0681 33.9234C16.1768 34.0216 17.2921 34.0337 18.4118 33.9106C20.8167 33.6366 23.1089 32.7639 25.3428 32.5153C27.1375 32.3059 28.9627 32.4894 30.8193 32.7345C31.2547 32.7414 32.0727 32.8325 33.087 32.9473C34.036 33.0567 35.1517 33.1778 36.2732 33.2672C37.3949 33.3566 38.5225 33.4133 39.4933 33.4278C41.7168 33.4712 43.9432 33.3722 46.1682 33.0877C45.9161 33.0958 45.2416 33.1724 44.3688 33.2448C43.496 33.3171 42.4249 33.3812 41.38 33.4032C40.3352 33.425 39.3168 33.4063 38.5494 33.3662C37.7821 33.326 37.2657 33.2684 37.2238 33.2212C36.8067 33.2071 36.131 33.165 35.3808 33.0966C34.6306 33.0282 33.8061 32.9329 33.0905 32.8357C32.1711 32.7127 31.4361 32.5963 31.2625 32.5582C31.1757 32.5391 31.2291 32.5379 31.4714 32.5623C31.7137 32.5863 32.1447 32.6381 32.8163 32.7165C32.9086 32.7281 33.0008 32.7396 33.0932 32.7511C37.5214 33.3054 41.9787 33.4569 46.4274 32.8584C47.5418 32.709 48.6484 32.5131 49.7477 32.3281C48.7974 32.4733 47.6735 32.6677 46.4263 32.8299C44.4663 33.0858 42.2241 33.2304 39.9261 33.2082C37.6282 33.186 35.2751 33.0019 33.0938 32.728C32.1121 32.6066 31.1698 32.4701 30.2856 32.3616C28.6141 32.1635 26.963 32.0412 25.3344 32.2384C23.0866 32.5001 20.7938 33.3818 18.4044 33.6599C16.276 33.9002 14.1644 33.6455 12.088 33.2422C10.7961 32.9936 9.52887 32.6926 8.27812 32.5565C6.91935 32.4072 5.55475 32.4452 4.19737 32.669C3.85426 32.6978 3.83091 32.6859 4.01567 32.64C4.20044 32.5941 4.59359 32.5205 5.08368 32.4647C5.57377 32.409 6.16077 32.3741 6.73136 32.376C7.30198 32.3791 7.85599 32.4162 8.28077 32.459C8.29583 32.459 8.31074 32.4621 8.32549 32.4633C8.99077 32.5336 9.62305 32.6481 10.2436 32.7725C10.864 32.8969 11.4727 33.0324 12.0921 33.1564C12.765 33.2922 13.4478 33.4142 14.169 33.5068C14.8901 33.5994 15.6495 33.6636 16.4754 33.6646C17.1163 33.6702 17.7586 33.6405 18.4016 33.5659C20.7937 33.2806 23.0858 32.3978 25.3315 32.1406C27.88 31.8376 30.471 32.3197 33.0959 32.6582C34.3468 32.8218 35.5985 32.9533 36.8505 33.0452C37.6566 33.0951 38.7979 33.1643 39.8096 33.1857C40.8213 33.2069 41.7031 33.1825 41.9879 33.1395C43.2034 33.0531 44.7698 32.9441 46.4227 32.7234C48.0279 32.5096 49.6989 32.1966 51.1997 31.964C52.69 31.7404 54.1688 31.5839 55.6383 31.639C56.0455 31.6528 56.4538 31.683 56.8629 31.7252C56.6727 31.6867 56.2285 31.6312 55.6385 31.6076C55.0345 31.5813 54.274 31.5963 53.4688 31.6632C52.6636 31.73 51.8135 31.8455 51.0323 31.9647C50.2512 32.0838 49.5392 32.203 49.0137 32.2787C48.4882 32.3544 48.1496 32.3879 48.1158 32.3574C47.728 32.4317 47.1133 32.5368 46.4194 32.6307C45.7468 32.7219 45.0023 32.7993 44.3236 32.8502C43.6448 32.901 43.0318 32.9263 42.6222 32.9349C42.2126 32.9436 42.0064 32.938 42.1409 32.922C42.2754 32.9064 42.7506 32.8852 43.7037 32.8096C44.608 32.7468 45.5122 32.656 46.4161 32.5342C49.5353 32.1149 52.6042 31.331 55.64 31.4441C57.2174 31.498 58.8055 31.7947 60.4102 32.094C59.8308 31.9728 59.1129 31.8272 58.3028 31.6946C57.4926 31.5619 56.5903 31.4432 55.6403 31.4107C54.8985 31.3831 54.1235 31.4107 53.3351 31.4786C52.5468 31.5469 51.7452 31.6556 50.9509 31.7797C49.3623 32.0278 47.8018 32.325 46.441 32.5032C46.4324 32.5032 46.4238 32.5063 46.4152 32.5066C45.5788 32.618 44.425 32.7426 43.1651 32.8149C41.9051 32.8871 40.5391 32.9064 39.2792 32.8767C38.0194 32.847 36.8657 32.7714 36.0291 32.7011C35.1925 32.6308 34.6726 32.5698 34.6791 32.5635C36.8059 32.7982 38.7176 32.8848 40.6078 32.8652C42.498 32.8455 44.3673 32.7237 46.4134 32.4505C47.0246 32.3691 47.6499 32.2733 48.2946 32.1713C49.5904 31.9635 50.839 31.7427 52.0576 31.5884C53.2763 31.4341 54.465 31.345 55.6406 31.3884C56.9359 31.4325 58.2276 31.6365 59.5393 31.8718C60.8509 32.107 62.1823 32.3762 63.5582 32.542C63.8727 32.5736 64.0299 32.5828 64.0601 32.5814C64.0903 32.5814 63.9934 32.5673 63.801 32.5432C63.4163 32.4947 62.6501 32.39 61.7564 32.2344C60.8628 32.0788 59.8421 31.8795 58.9383 31.7252C58.0346 31.5707 57.2473 31.4699 56.8136 31.4238C56.4222 31.3846 56.0314 31.3564 55.641 31.343C52.5955 31.2299 49.5122 32.0129 46.4122 32.4139C45.9564 32.473 45.5012 32.5239 45.0466 32.5669C44.7203 32.5982 44.1925 32.6435 43.6347 32.6767C43.0769 32.7099 42.4893 32.7307 42.0435 32.7362C41.5978 32.7415 41.294 32.7331 41.3037 32.7184C41.3134 32.7031 41.6366 32.6847 42.4446 32.6283C41.7917 32.6283 41.5909 32.6167 41.651 32.6098C41.7112 32.6026 42.0325 32.5964 42.4241 32.5817C42.8157 32.567 43.2777 32.5427 43.6194 32.5141C43.9609 32.4853 44.1821 32.4545 44.0922 32.4353C44.8664 32.3675 45.6371 32.2814 46.4041 32.1747C49.2911 31.7738 52.0992 31.0972 54.8537 31.0304C55.1155 31.0263 55.3789 31.0273 55.6437 31.0376C57.2106 31.088 58.8354 31.3939 60.4734 31.7072C62.1114 32.0204 63.7631 32.3305 65.3817 32.3871C67.1739 32.4462 68.8859 32.2135 70.4539 31.9954C71.1822 31.9066 72.3751 31.7527 73.3752 31.6775C74.2535 31.6115 74.9881 31.6026 75.1354 31.5967C75.2091 31.5935 75.136 31.5901 74.861 31.592C74.5859 31.5951 74.1087 31.5995 73.3746 31.6501C73.3611 31.6501 73.3474 31.6532 73.3337 31.6532C70.7221 31.843 68.0689 32.421 65.382 32.3369C63.7232 32.2819 62.0832 31.9751 60.4608 31.6684C58.8383 31.3619 57.2333 31.0564 55.6439 30.9929C54.6389 30.9507 53.636 31.0042 52.636 31.107C52.7612 31.0854 53.1452 31.0341 53.682 30.9901C54.2187 30.9462 54.9081 30.9122 55.6444 30.9347C56.3604 30.955 57.1228 31.0315 57.8351 31.1313C58.5474 31.2312 59.2096 31.3509 59.7237 31.4477C59.5618 31.3962 58.9859 31.2789 58.2288 31.1606C57.4718 31.0422 56.5339 30.9313 55.6446 30.9044C54.7397 30.8754 53.8819 30.9301 53.3132 30.972C52.7445 31.014 52.4653 31.0347 52.7186 30.9751C52.3766 30.9879 52.7168 30.9309 53.3384 30.8717C53.96 30.8125 54.8624 30.7703 55.6456 30.7991C56.4228 30.8263 57.0846 30.9095 57.2392 30.926C57.3166 30.9341 57.2671 30.926 57.042 30.8972C56.8169 30.8691 56.4164 30.8178 55.7918 30.7836C55.7428 30.7805 55.6942 30.7798 55.6458 30.7783C55.0233 30.7573 54.4451 30.7711 53.8873 30.803C53.3294 30.8348 52.792 30.885 52.251 30.9479C51.169 31.0737 50.0733 31.2537 48.7703 31.4702C47.9801 31.5997 47.1873 31.7267 46.3923 31.8299C43.2228 32.242 40.0376 32.2707 36.8895 32.0396C36.9906 32.0149 36.4621 31.9709 35.7025 31.9007C34.9429 31.8305 33.9522 31.7285 33.1283 31.6227C32.7431 31.5734 32.3944 31.5247 32.1226 31.4836C31.2838 31.367 30.7805 31.299 30.5333 31.2672C30.2862 31.2353 30.2952 31.2366 30.4826 31.2597C30.8574 31.3064 31.9462 31.4609 33.1287 31.61C33.8081 31.696 34.5183 31.7744 35.1404 31.8321C35.7624 31.8899 36.2962 31.9277 36.6229 31.9447C39.8476 32.1604 43.1212 32.1314 46.3876 31.6914C48.193 31.4485 49.9913 31.0816 51.7789 30.8367C52.8308 30.6922 54.2286 30.5545 55.6474 30.6166C56.967 30.6728 58.3067 30.9015 59.409 31.102C60.5114 31.3025 61.3763 31.463 61.7389 31.5041C61.0548 31.3827 60.3101 31.2373 59.6486 31.1141C58.987 30.991 58.4084 30.893 58.0557 30.8378C57.703 30.7826 57.5761 30.7641 57.8187 30.7968C58.0613 30.8296 58.6731 30.9182 59.8008 31.1267C61.6527 31.4661 63.5114 31.8509 65.3855 31.9105C68.0231 31.9918 70.6386 31.4277 73.2444 31.2306C72.875 31.2469 72.3903 31.2845 71.8232 31.344C71.2562 31.4035 70.6068 31.4853 69.908 31.5717C68.5103 31.7446 66.9145 31.9291 65.3856 31.8844C64.2659 31.8506 63.192 31.701 62.2663 31.5437C61.3428 31.3839 60.2259 31.1623 59.0714 30.9655C57.917 30.7687 56.7248 30.6114 55.6477 30.5739C54.1793 30.5212 52.9234 30.66 52.2726 30.6993C53.2748 30.5523 54.4414 30.453 55.6483 30.4998C56.899 30.5472 58.1926 30.7565 59.3957 30.9696C60.5182 31.1839 61.4987 31.373 62.457 31.516C63.4153 31.659 64.351 31.7649 65.3863 31.7943C65.8901 31.808 66.4161 31.8018 66.9782 31.778C67.3332 31.7552 67.52 31.7356 67.5735 31.7282C67.6271 31.7207 67.5474 31.7248 67.3689 31.7345C67.0119 31.7542 66.2597 31.7988 65.3865 31.77C64.8219 31.7509 64.209 31.6985 63.6221 31.6265C63.0353 31.5545 62.4745 31.465 62.0136 31.3865C61.0917 31.2295 60.5682 31.1275 61.0349 31.214C59.2367 30.8826 57.4439 30.5165 55.6487 30.4535C52.5651 30.343 49.4811 31.127 46.3824 31.541C43.1544 31.9726 39.9196 32.0015 36.6964 31.7632C37.7295 31.8042 39.3083 31.8784 41.0075 31.8622C41.8571 31.854 42.7366 31.8242 43.5928 31.7692C44.4489 31.7143 45.2815 31.6342 46.0371 31.5384C46.1495 31.5231 46.2641 31.5071 46.3808 31.4906C47.0862 31.3905 47.8657 31.2648 48.6761 31.1305C49.4865 30.9962 50.3278 30.8547 51.157 30.7347C51.9864 30.6147 52.8036 30.5176 53.5665 30.4601C54.3293 30.4026 55.0376 30.3851 55.6491 30.395C56.0374 30.4009 56.3866 30.4169 56.6857 30.4305C56.3379 30.3968 55.9928 30.3724 55.6495 30.3591C54.1212 30.2992 52.6322 30.4548 51.111 30.6792C49.5898 30.9036 48.0364 31.2066 46.3784 31.4273C45.2752 31.5743 44.1259 31.6812 42.9105 31.7425C42.5915 31.7456 42.5089 31.7394 42.5993 31.73C42.6898 31.7203 42.9533 31.7066 43.3266 31.6831C44.0733 31.6364 45.259 31.5419 46.3772 31.3925C47.5317 31.2383 48.6138 31.0429 49.0702 30.9451C51.2636 30.5721 53.4548 30.1983 55.6502 30.2755C58.8949 30.3884 62.1256 31.4874 65.3878 31.5901C68.0531 31.6732 70.7068 31.0901 73.3611 30.9014C76.9187 30.6486 80.4889 31.1057 84 32.2626C82.7018 31.8143 81.0596 31.3679 79.2311 31.0943C77.4027 30.8206 75.3888 30.7242 73.3606 30.8715C71.9831 30.9716 70.5978 31.1787 69.2528 31.3385C67.9078 31.4982 66.603 31.6047 65.3879 31.5636C65.2389 31.5586 65.0913 31.5514 64.9452 31.5423C64.2456 31.4999 63.5127 31.4134 62.7573 31.2979C62.002 31.1824 61.2244 31.0382 60.4354 30.8921C58.8574 30.5999 57.2337 30.3048 55.6504 30.2512C54.0905 30.1978 52.5756 30.3703 51.1907 30.573C49.8056 30.7757 48.5501 31.0024 47.5116 31.1534C48.5156 30.9681 49.8602 30.7101 51.299 30.4992C52.0184 30.3938 52.7612 30.3035 53.4968 30.2489C54.2323 30.1942 54.9606 30.1761 55.6508 30.2016C56.5146 30.2333 57.3167 30.3296 57.9979 30.4241C58.6792 30.5186 59.2396 30.6106 59.6192 30.662C58.2989 30.4234 56.9771 30.2139 55.6511 30.1681C52.5564 30.0609 49.468 30.8479 46.3731 31.2664C43.4865 31.6567 40.5925 31.7256 37.706 31.5709C37.312 31.5382 38.119 31.5884 39.1792 31.6164C39.7093 31.6305 40.3027 31.6373 40.8408 31.6339C41.379 31.6305 41.8618 31.617 42.1709 31.6045C43.5726 31.5546 44.9735 31.4405 46.3725 31.2512C49.4664 30.8325 52.5533 30.0463 55.6512 30.1546C58.9031 30.2682 62.1336 31.3671 65.3887 31.4692C66.4452 31.5023 67.5003 31.4303 68.5552 31.3196C67.6823 31.3954 66.6013 31.4826 65.389 31.44C64.6715 31.4146 63.9096 31.3393 63.1193 31.2273C62.3288 31.1153 61.5098 30.9672 60.6776 30.8136C59.0133 30.5065 57.2967 30.1864 55.6516 30.1303C54.333 30.0853 53.0663 30.2009 51.9162 30.348C51.128 30.4477 50.243 30.591 49.3046 30.7507C48.3662 30.9104 47.3743 31.0847 46.3718 31.2226C44.4466 31.4874 42.4808 31.6035 40.7871 31.6115C39.0933 31.6196 37.6722 31.5286 36.8344 31.4437C38.0417 31.5066 39.5922 31.568 41.2579 31.5416C42.9236 31.5154 44.704 31.3961 46.37 31.1708C47.0953 31.0727 47.7993 30.9567 48.4633 30.8423C50.8515 30.4403 53.2493 29.9853 55.6523 30.0702C58.5998 30.1747 61.5203 31.0839 64.4261 31.3511C64.7614 31.3798 65.0866 31.3975 65.3895 31.4047C66.3458 31.4279 67.0773 31.3561 67.2043 31.3364C67.2677 31.3263 67.18 31.3285 66.8936 31.3398C66.6071 31.351 66.122 31.3766 65.39 31.357C65.2795 31.3539 65.1636 31.3498 65.0418 31.3442C64.3914 31.3064 63.6518 31.226 62.8655 31.108C62.0792 30.99 61.2459 30.8358 60.4077 30.6801C59.5695 30.5244 58.7262 30.3694 57.9197 30.2517C57.1132 30.1341 56.3434 30.0553 55.6529 30.0235C54.5516 29.973 53.6568 30.0266 53.139 30.0379C53.8658 29.9476 54.7706 29.8996 55.6537 29.9339C56.4035 29.9633 57.1348 30.049 57.7271 30.1263C58.3194 30.2035 58.7729 30.2691 58.9675 30.268C59.8033 30.397 60.8425 30.5998 61.9558 30.7921C63.069 30.9843 64.2566 31.1549 65.3914 31.1934C66.4788 31.2308 67.5167 31.1538 68.391 31.0614C69.2654 30.969 69.9762 30.8641 70.4085 30.7891C68.7349 31.0013 67.0634 31.2148 65.3916 31.1625C62.1542 31.0632 58.9216 29.965 55.6544 29.8493C53.2303 29.765 50.8201 30.2218 48.4183 30.6229C47.9744 30.6768 47.7779 30.6881 47.5332 30.7108C47.2885 30.7337 46.9955 30.7706 46.3595 30.8528C46.0158 30.8972 45.5716 30.954 44.9799 31.0167C45.3895 30.9714 45.8563 30.9161 46.3594 30.8473C47.1213 30.7431 47.9676 30.6057 48.8264 30.4625C49.6853 30.3193 50.5569 30.1732 51.3689 30.0571C52.181 29.941 52.9336 29.8565 53.5537 29.8053C54.1738 29.754 54.6616 29.7339 54.9434 29.7154C52.0716 29.7398 49.2118 30.4389 46.3585 30.825C45.2295 30.9777 44.0991 31.0813 42.9684 31.1421C43.4184 31.0646 44.757 30.9771 46.3563 30.7624C47.7231 30.5786 49.285 30.2977 50.6528 30.0845C51.3367 29.9779 51.972 29.8892 52.5094 29.8231C53.0468 29.7569 53.4863 29.7126 53.7783 29.6774C51.2934 29.8367 48.8213 30.407 46.3556 30.7418C43.1131 31.1817 39.8579 31.215 36.6127 30.9774C36.6309 30.9677 37.9283 31.0688 39.5014 31.1009C40.2879 31.1168 41.1433 31.1146 41.9418 31.0909C42.7404 31.0671 43.4821 31.0217 44.0419 30.9763C44.8136 30.9159 45.5848 30.8344 46.3553 30.7301C49.4388 30.312 52.5331 29.5254 55.6563 29.6325C58.9345 29.7485 62.1648 30.8474 65.3933 30.947C66.385 30.9787 67.3781 30.916 68.3731 30.8155C67.536 30.8854 66.5217 30.9596 65.3936 30.9187C64.6878 30.894 63.9365 30.8196 63.154 30.7087C62.3715 30.5978 61.5579 30.4506 60.7272 30.2972C59.0661 29.9904 57.3368 29.6652 55.6567 29.6076C54.1012 29.5562 52.6066 29.7238 51.2658 29.9154C49.6671 30.1473 48.0151 30.4754 46.3545 30.7019C44.2855 30.9838 42.1924 31.0998 40.1697 31.086C38.147 31.0723 36.1951 30.931 34.4077 30.7264C33.8435 30.6614 33.4371 30.6077 33.1616 30.5699C32.4596 30.4732 32.6073 30.4867 33.1621 30.5533C33.6029 30.6058 34.3011 30.6865 35.0348 30.7568C35.7684 30.8271 36.5375 30.886 37.1196 30.9211C37.7017 30.9562 38.0969 30.9702 38.0827 30.9653C38.0686 30.9603 37.6452 30.9425 36.5908 30.8575C35.9578 30.8165 35.2531 30.7553 34.6306 30.6903C34.0081 30.6253 33.4678 30.5575 33.1632 30.5161C32.8428 30.4725 32.7832 30.4606 33.1636 30.5046C33.4598 30.5386 34.0228 30.6075 34.9379 30.6965C38.7437 31.0738 42.5561 31.1182 46.3511 30.6057C47.5997 30.4369 48.8509 30.2075 50.1055 30.0015C51.0651 29.7947 50.5165 29.8697 49.5325 30.0344C49.0406 30.1168 48.4402 30.2225 47.8653 30.3182C47.2903 30.4138 46.7407 30.4974 46.3491 30.548C46.3186 30.5521 46.2891 30.5558 46.2606 30.5593C45.0506 30.7163 43.7804 30.8312 42.5337 30.8865C41.2871 30.9419 40.0644 30.9386 38.951 30.8834C40.0589 30.9122 41.264 30.9118 42.5143 30.8587C43.7646 30.8053 45.0601 30.6983 46.3484 30.5259C48.0687 30.2955 49.7859 29.9564 51.3787 29.7247C52.1751 29.6088 52.9403 29.5186 53.6588 29.4643C54.3773 29.41 55.049 29.3917 55.6583 29.4039C55.9506 29.4101 56.2278 29.4233 56.4882 29.4392C56.212 29.417 55.9355 29.4006 55.6584 29.3912C52.5298 29.2896 49.4301 30.0766 46.3473 30.4946C42.4475 31.0226 38.5255 30.9597 34.6203 30.5563C35.365 30.6099 34.1391 30.4179 34.0507 30.4162C36.0898 30.6323 38.1643 30.7796 40.2288 30.7961C42.2933 30.8127 44.3477 30.6974 46.3444 30.4114C46.5211 30.386 46.6975 30.3594 46.8734 30.3316C49.7762 29.9036 52.6999 29.2108 55.6591 29.3114C58.9533 29.4294 62.1835 30.5282 65.3958 30.626C68.0208 30.7105 70.6662 30.1273 73.3443 29.9373C75.3039 29.798 77.2672 29.8723 79.2228 30.1586C78.6167 30.0525 77.7482 29.938 76.7303 29.879C75.7124 29.8201 74.545 29.8194 73.3438 29.9069C72.3355 29.9801 71.3074 30.113 70.3252 30.2383C69.3429 30.3636 68.4065 30.477 67.5797 30.537C66.8501 30.5931 66.1223 30.6206 65.3961 30.5971C62.1865 30.4988 58.956 29.4009 55.6594 29.284C52.5193 29.1787 49.4199 29.9663 46.3436 30.3831C41.9628 30.9755 37.5586 30.8212 33.1711 30.2637C31.9948 30.1131 30.8127 29.9335 29.6258 29.8093C30.7091 29.9123 31.9344 30.0875 33.1718 30.2394C34.6233 30.4162 36.103 30.5486 37.4067 30.617C38.7104 30.6854 39.8382 30.6912 40.5871 30.6699C42.5077 30.6655 44.4264 30.5483 46.3403 30.2889C49.415 29.8714 52.5156 29.0845 55.6601 29.1904C58.3899 29.2882 61.0717 30.0568 63.7312 30.3748C62.7046 30.2363 61.4747 29.9985 60.1078 29.7411C58.7407 29.4837 57.2363 29.2122 55.6605 29.157C54.0967 29.1057 52.4907 29.2823 50.9139 29.5258C49.3372 29.7692 47.7896 30.0696 46.3395 30.2653C45.6787 30.3543 45.0363 30.4231 44.4195 30.475C40.6873 30.7973 36.9228 30.627 33.1742 30.1606C30.5582 29.8322 27.9131 29.364 25.2574 29.6663C24.2338 29.7854 23.2247 30.0163 22.226 30.2586C23.2136 30.0063 24.2234 29.7646 25.2565 29.6374C26.5684 29.4793 27.8911 29.5121 29.2143 29.6289C30.5375 29.7459 31.8611 29.946 33.1756 30.1103C34.4573 30.2689 35.7396 30.393 37.0141 30.4727C40.125 30.6733 43.2374 30.6254 46.3371 30.2051C49.4098 29.7876 52.512 29.0008 55.6605 29.1066C58.9658 29.2252 62.1964 30.3238 65.397 30.4193C66.0177 30.4393 66.6399 30.4224 67.2637 30.3802C67.0223 30.3717 66.2969 30.4167 65.3973 30.3868C64.7644 30.3671 64.0421 30.3038 63.3358 30.21C62.6295 30.1162 61.9391 29.9959 61.3726 29.889C59.4885 29.5464 57.5876 29.1444 55.6608 29.0752C52.5107 28.9695 49.4086 29.7566 46.336 30.174C43.8291 30.5138 41.3135 30.6097 38.7963 30.5267C37.7216 30.4764 37.2221 30.4265 37.1064 30.4114C36.9906 30.3961 37.2585 30.4114 37.7186 30.4314C38.1787 30.453 38.8311 30.4793 39.4839 30.4923C40.1368 30.5054 40.7904 30.5044 41.2533 30.4979C42.1907 30.4813 42.6071 30.4514 42.6769 30.4441C42.7467 30.4369 42.4698 30.4472 42.0193 30.4575C41.5688 30.4682 40.9446 30.4766 40.3201 30.4732C39.6956 30.4698 39.0709 30.4544 38.6195 30.4418C37.9514 30.4168 37.5761 30.3925 37.4281 30.3833C37.28 30.3739 37.3593 30.3786 37.6002 30.3911C38.082 30.4164 39.2105 30.4695 40.4596 30.4692C41.7089 30.469 43.0784 30.4071 44.0442 30.3304C45.01 30.2537 45.5726 30.1819 45.2105 30.2194C45.5125 30.1894 45.8998 30.1456 46.333 30.0874C47.0574 29.9898 47.9129 29.8482 48.7156 29.7094C49.5185 29.5707 50.2688 29.4404 50.7789 29.3573C51.2889 29.2742 51.558 29.2335 51.3983 29.2525C51.2385 29.2716 50.649 29.3522 49.4525 29.5525C48.4079 29.7291 47.368 29.9121 46.3319 30.0529C43.4214 30.4475 40.4988 30.5129 37.5754 30.3513C38.7664 30.4017 40.2419 30.4364 41.7762 30.3913C43.3106 30.3462 44.9037 30.2176 46.3308 30.0189C47.2176 29.8952 48.0445 29.7493 48.7565 29.6202C49.4685 29.4911 50.0654 29.3787 50.4912 29.2943C49.0972 29.5202 47.7096 29.7837 46.329 29.9703C42.5806 30.4756 38.809 30.4164 35.0815 30.0335C35.0601 30.0195 34.2112 29.9319 33.185 29.8C32.5756 29.7208 31.9008 29.6264 31.2973 29.5468C30.6939 29.4673 30.162 29.4046 29.8418 29.3703C29.5215 29.3359 29.4132 29.3257 29.6555 29.3496C29.8977 29.3737 30.4914 29.4355 31.5643 29.5753C32.1042 29.6523 32.6708 29.7295 33.1852 29.7912C34.1043 29.8999 34.8633 29.9586 35.013 29.9609C35.0878 29.9609 35.0104 29.95 34.7247 29.918C34.439 29.8861 33.9449 29.835 33.1867 29.7448C33.0574 29.7292 32.9202 29.7125 32.7749 29.6945C32.2005 29.6236 31.3095 29.4984 30.383 29.3871C29.4565 29.2759 28.4945 29.1925 27.7895 29.1633C27.0844 29.1342 26.6372 29.1451 26.7437 29.1364C26.7969 29.132 26.9885 29.1229 27.3539 29.1242C27.7193 29.1242 28.2586 29.1385 29.0045 29.1971C30.4111 29.3124 31.8062 29.5259 33.1882 29.7002C37.5705 30.2458 41.9613 30.3951 46.3234 29.8034C48.7391 29.4747 51.1813 28.916 53.6586 28.7454C53.5041 28.7416 53.1724 28.7579 52.7322 28.7996C52.292 28.8413 51.7435 28.9097 51.1549 28.9974C49.9779 29.173 48.6422 29.4218 47.6739 29.5721C47.2226 29.6449 46.7722 29.7139 46.3226 29.775C41.9618 30.3654 37.5628 30.2207 33.1892 29.6703C32.6703 29.6041 32.1498 29.5322 31.6277 29.462C31.7968 29.4589 31.0277 29.3311 30.4874 29.2493C30.2173 29.2084 30.0048 29.1786 29.9981 29.1741C29.9913 29.1697 30.1908 29.1885 30.7408 29.2594C31.5625 29.361 32.3797 29.4771 33.192 29.5795C34.8672 29.7879 36.5434 29.9385 38.2188 30.0119C37.9597 29.9761 37.1886 29.934 36.2395 29.8596C35.2904 29.7851 34.1633 29.6752 33.1928 29.5543C32.8725 29.5138 32.5685 29.4728 32.2931 29.4342C31.6769 29.3584 31.0688 29.2778 30.5626 29.2142C30.0563 29.1506 29.6521 29.1037 29.4452 29.0773C29.2383 29.0511 29.2289 29.042 29.5102 29.063C29.7915 29.0839 30.3641 29.1384 31.3121 29.2606C31.9424 29.3429 32.5699 29.4299 33.1944 29.5089C37.4012 30.0331 41.6145 30.1905 45.8019 29.6787C45.2265 29.7274 44.3273 29.815 43.257 29.8771C42.1868 29.9392 40.9453 29.9738 39.6875 29.9559C38.4298 29.9381 37.1558 29.8687 36.022 29.7681C34.8882 29.6675 33.8947 29.5377 33.1972 29.4187C32.9463 29.3754 32.7331 29.3337 32.5653 29.2954C32.8118 29.3179 33.0227 29.3362 33.1993 29.3501C33.6812 29.3869 33.91 29.394 33.9042 29.3804C33.8984 29.3667 33.658 29.3321 33.2018 29.2716C32.727 29.2077 32.0168 29.1095 31.0842 28.9952C29.1618 28.7493 27.2092 28.5618 25.2312 28.7919C22.833 29.0824 20.5415 29.969 18.3035 30.2271C17.8937 30.276 17.4825 30.3045 17.0701 30.3155C17.254 30.2899 17.5135 30.2582 17.7425 30.2237C17.9716 30.1891 18.1702 30.1523 18.2342 30.1337C18.2982 30.1152 18.2279 30.1193 17.9174 30.144C17.6069 30.1687 17.0565 30.2174 16.1526 30.1966C14.8631 30.1595 13.562 29.9743 12.2552 29.7323C10.9884 29.4947 9.69658 29.1972 8.37208 29.0574C6.46526 28.8584 4.55062 29.007 2.65868 29.4975C2.03199 29.6036 1.30534 29.9136 0.841581 30.0893C0.616264 30.1741 0.546368 30.2134 0.552239 30.2262C0.558105 30.2391 0.639823 30.2262 0.718448 30.2172C0.797066 30.2072 0.872578 30.1993 0.866063 30.2174C0.859546 30.2355 0.770889 30.2776 0.522059 30.3776C0.0983255 30.5609 0.0560334 30.5285 0.0573487 30.5957C0.133224 30.5588 0.0947272 30.5744 0.574293 30.3858C0.459884 30.4318 0.25409 30.5294 0.186636 30.5691C0.11918 30.6089 0.189088 30.5826 0.628329 30.4051C0.945401 30.2708 1.01865 30.2746 1.09606 30.2683C1.17347 30.2621 1.25496 30.2456 1.59226 30.1017C1.88644 29.979 1.81446 30.0357 1.94021 30.025C2.00309 30.0197 2.11539 29.9976 2.3483 29.9367C2.58119 29.8758 2.93455 29.774 3.48206 29.6405C3.85221 29.559 4.61542 29.4141 5.5157 29.3446C6.416 29.2752 7.45273 29.29 8.36308 29.3885C8.92996 29.4503 9.44327 29.5363 9.84509 29.6098C10.2469 29.6832 10.5374 29.7439 10.6588 29.7711C10.7802 29.7983 10.7327 29.7924 10.4542 29.7433C10.1757 29.6941 9.66685 29.5931 8.85333 29.4884C8.69104 29.4662 8.52712 29.4462 8.36199 29.4283C7.55554 29.342 6.72903 29.3183 5.9369 29.3566C5.14481 29.3949 4.38731 29.4947 3.71771 29.6261C2.37847 29.8887 1.39235 30.2697 1.15749 30.3995C0.759683 30.5455 0.945338 30.5248 1.07707 30.5168C1.14294 30.5127 1.19544 30.5128 1.15523 30.539C1.11503 30.5653 0.982008 30.6156 0.677869 30.7264C0.228018 30.9095 0.155992 30.9232 0.154457 30.9846C0.362942 30.8711 0.0548609 31.0914 0.233758 31.0133C0.392185 30.9374 0.424033 31.0283 0.302866 31.0919C0.327643 31.2102 0.141073 31.2123 0.044605 31.2638C-0.0891978 31.334 0.114891 31.2779 0.175592 31.2441C0.196777 31.2366 0.396243 31.1563 0.520974 31.1094C0.645698 31.0625 0.695183 31.0441 0.416407 31.1589C0.0595176 31.2906 0.0835837 31.2887 0.223502 31.2601C0.2798 31.2411 0.48394 31.157 0.749403 31.0572C1.01488 30.9575 1.34182 30.8437 1.64232 30.7536C1.69677 30.7433 1.95273 30.6586 2.18164 30.591C2.41056 30.5233 2.61224 30.4712 2.55602 30.5C3.18082 30.3032 3.51115 30.2339 3.63933 30.209C3.76751 30.184 3.69412 30.209 3.51666 30.2581C3.33921 30.3077 3.05787 30.3849 2.77006 30.4671C2.48226 30.5493 2.18798 30.6368 1.98288 30.6877C1.63806 30.7852 1.45922 30.8529 1.27845 30.922C1.09766 30.9911 0.914887 31.0616 0.56437 31.1957C0.249537 31.3482 0.31018 31.3867 0.263253 31.4232C0.32745 31.3763 0.703803 31.2465 0.915717 31.1953C1.02167 31.1697 1.08636 31.1619 1.05011 31.1875C1.01387 31.2131 0.876562 31.2704 0.579799 31.3898C0.574979 31.4577 0.230519 31.5541 0.354153 31.5776C0.272108 31.5992 0.165507 31.6367 0.0931989 31.6726C0.115145 31.7173 0.264355 31.6191 0.340985 31.6059C0.471124 31.6356 0.330003 31.7747 0.199178 31.7855C0.046996 31.855 0.225129 31.8201 0.298779 31.778C0.486329 31.7233 0.345175 31.7368 0.313253 31.8087C0.500052 31.7018 0.438537 31.8437 0.291317 31.9363C0.0854626 32.037 0.245265 32.0201 0.364476 31.9536C0.447203 31.9059 0.2804 32.0293 0.410412 31.9856C0.52284 31.9396 0.497211 32.1424 0.345454 32.1414C0.236548 32.1804 0.127731 32.2206 0.0190026 32.262C0.0198638 32.2714 0.0207391 32.2805 0.0216065 32.2895L0.0225774 32.2882ZM50.8729 31.4599C50.8677 31.4599 50.9048 31.4546 50.8729 31.4599V31.4599ZM40.032 32.883C40.0267 32.883 40.0644 32.8831 40.032 32.883V32.883ZM0.55875 30.8876C0.714225 30.8443 0.866897 30.7673 0.55875 30.8876V30.8876ZM0.861683 30.9888C1.13878 30.8981 1.17758 30.8433 0.861683 30.9888V30.9888ZM2.63823 32.3528C2.71484 32.2993 3.09428 32.1752 3.5725 32.0649C4.05071 31.9546 4.62765 31.8633 5.09476 31.8195C5.56186 31.7756 5.91875 31.773 5.95708 31.7888C5.97625 31.7966 5.91582 31.8088 5.75002 31.8301C5.58424 31.8514 5.31304 31.8813 4.91133 31.9413C4.48394 31.992 3.85403 32.1039 3.36273 32.2133C2.87143 32.3227 2.51799 32.4171 2.63823 32.3528ZM2.88772 32.4882C2.96976 32.4285 3.75552 32.2063 4.72266 32.0715C5.20624 32.0041 5.73485 31.9586 6.2414 31.9418C6.74795 31.925 7.23236 31.9369 7.6278 31.9591C7.87923 31.9778 8.10047 32.0009 8.29374 32.0245C8.73175 32.0777 9.02767 32.1316 9.20534 32.1657C9.38301 32.1999 9.44245 32.2162 9.4086 32.216C9.3409 32.216 8.90019 32.1453 8.29202 32.0885C7.65802 32.0288 6.83784 31.9981 6.06061 32.0351C5.28343 32.0721 4.54991 32.1741 4.08678 32.2549C3.84953 32.3088 3.48466 32.3842 3.21187 32.4428C2.93909 32.5013 2.75812 32.5377 2.88772 32.4882ZM4.52912 31.5754C4.31752 31.5754 4.33264 31.5557 4.50338 31.5198C4.67413 31.4838 5.00058 31.4353 5.41137 31.4005C5.82215 31.3658 6.31724 31.3464 6.82433 31.3552C7.33143 31.3639 7.85041 31.4012 8.30925 31.4526C8.48139 31.4717 8.64519 31.4927 8.79688 31.5133C9.87247 31.672 10.9905 31.9349 12.1409 32.1609C14.1595 32.5588 16.2746 32.824 18.3742 32.5835C19.8458 32.4132 21.289 32.0039 22.6857 31.6631C23.4001 31.495 24.3126 31.2817 25.3037 31.1671C26.0464 31.08 26.8351 31.0544 27.6187 31.0776C28.4024 31.1007 29.181 31.1705 29.9024 31.253C30.624 31.3354 31.2883 31.429 31.8432 31.5084C32.3981 31.5877 32.8436 31.6531 33.1272 31.698C33.2546 31.7183 33.3493 31.7346 33.4067 31.7469C33.3135 31.736 33.2201 31.725 33.1267 31.7137C30.5507 31.4047 27.9058 30.9141 25.3051 31.2189C24.5821 31.3023 23.8606 31.4473 23.1414 31.615C21.5718 31.9783 19.9858 32.4508 18.3756 32.6357C16.2809 32.8736 14.189 32.6164 12.1378 32.2212C11.7999 32.1564 11.4632 32.0879 11.1277 32.0198C10.8883 31.9775 10.4824 31.8987 9.98672 31.8099C9.49105 31.7211 8.90575 31.6238 8.306 31.5599C7.39534 31.4625 6.44773 31.4548 5.72997 31.4918C5.01228 31.5288 4.5247 31.5944 4.52912 31.5754ZM4.71056 31.6057C5.26494 31.5316 5.36606 31.536 5.27774 31.5465C5.1894 31.5571 4.91205 31.5869 4.71056 31.6057ZM5.62341 31.6301C5.85179 31.5922 6.243 31.5562 6.71684 31.5491C7.19066 31.5419 7.74701 31.5657 8.30454 31.6271C8.89818 31.6922 9.49501 31.7989 9.99857 31.9004C10.502 32.0018 10.9122 32.0958 11.1305 32.1485C11.3489 32.2011 11.3751 32.2142 11.1119 32.1659C10.9804 32.1419 10.7765 32.1018 10.4889 32.0455C10.2012 31.9893 9.8297 31.9156 9.36304 31.8365C9.00925 31.7773 8.65596 31.726 8.303 31.6873C7.41094 31.589 6.51654 31.5701 5.62341 31.6301ZM10.0046 32.1981C10.6999 32.3237 11.4049 32.4717 12.1197 32.6052C14.161 32.9889 16.2681 33.2456 18.3865 33.0022C20.5731 32.7464 22.7046 31.9738 24.7838 31.6449C24.9597 31.6181 25.1371 31.5938 25.3158 31.5733C26.5395 31.4297 27.8371 31.4622 29.1551 31.5859C30.4732 31.7095 31.8118 31.918 33.115 32.086C35.1191 32.3465 37.0307 32.5071 38.6471 32.5818C38.0093 32.5893 37.1065 32.5503 36.123 32.4707C35.1395 32.391 34.0753 32.2704 33.1131 32.1488C32.9074 32.1232 32.7064 32.0974 32.5119 32.0726C30.089 31.7505 27.6886 31.3666 25.318 31.6474C25.1351 31.6686 24.952 31.6937 24.7687 31.7222C24.4323 31.7666 24.0315 31.8348 23.5781 31.9288C23.1248 32.0227 22.6189 32.1424 22.072 32.2762C20.9782 32.5438 19.7202 32.876 18.3872 33.0315C17.3309 33.1525 16.2435 33.15 15.1807 33.0637C14.1177 32.9774 13.0792 32.8104 12.1188 32.6242C11.3556 32.4773 10.6434 32.322 10.0046 32.1981ZM10.984 30.4383C11.4296 30.5171 11.8569 30.5994 12.2125 30.6664C12.7259 30.7625 13.0917 30.8287 13.1461 30.8441C13.2006 30.8594 12.9438 30.8294 12.2114 30.6891C11.896 30.6284 11.492 30.5445 10.984 30.4383ZM11.2856 29.9659C11.6021 30.027 11.9194 30.0886 12.2373 30.1473C14.2289 30.511 16.2847 30.7708 18.3143 30.5315C19.7307 30.3692 21.1644 29.9597 22.603 29.6075C23.0285 29.5003 23.4966 29.3928 23.9547 29.3057C24.4127 29.2186 24.8606 29.1532 25.2428 29.1148C25.831 29.058 26.2553 29.0587 26.3214 29.0694C26.3544 29.0747 26.2978 29.0828 26.1268 29.0982C25.9559 29.1135 25.6705 29.1345 25.2449 29.1869C24.9672 29.2221 24.6312 29.2721 24.2319 29.3456C23.7754 29.4318 23.4189 29.5129 23.142 29.5768C22.8652 29.6406 22.6682 29.6882 22.5328 29.72C22.2619 29.7835 22.237 29.7844 22.3208 29.7556C22.4883 29.698 23.0943 29.5284 23.0422 29.5132C21.4423 29.8885 19.8704 30.3668 18.3148 30.5467C16.3107 30.7852 14.2746 30.5377 12.237 30.1537C11.9209 30.0936 11.6038 30.0298 11.2856 29.9659ZM13.4299 33.0345C14.6978 33.2268 15.5746 33.2714 15.7321 33.2813C15.8108 33.2863 15.7099 33.2844 15.3903 33.2616C15.0708 33.2391 14.5324 33.1953 13.74 33.0808C13.6456 33.0671 13.5513 33.053 13.457 33.0385C13.448 33.0385 13.4389 33.0354 13.4299 33.0345ZM15.092 32.4885C16.0737 32.5328 17.1839 32.5419 18.3687 32.3962C19.4635 32.2608 20.6127 31.9852 21.7797 31.6979C22.9466 31.4105 24.1313 31.1186 25.2983 30.9853C25.7036 30.9386 26.1068 30.9107 26.5063 30.8972C28.7073 30.8313 30.9177 31.2207 33.1333 31.5087C34.5849 31.698 36.0388 31.8439 37.4937 31.9341C38.0717 31.9566 38.9113 31.9916 39.8402 32.0048C40.7692 32.018 41.7874 32.008 42.7223 31.9697C43.6573 31.9316 44.5087 31.8664 45.1047 31.81C45.7005 31.7535 46.0407 31.7104 45.9532 31.7184C41.6842 32.2466 37.3977 32.0921 33.1316 31.5592C30.5089 31.233 27.8948 30.7641 25.3007 31.0717C23.8893 31.2373 22.4803 31.6333 21.062 31.9757C20.5473 32.0722 19.5085 32.3321 18.3706 32.4678C17.7913 32.5363 17.1891 32.5682 16.623 32.5669C16.0569 32.5669 15.5272 32.5326 15.092 32.4885ZM16.048 30.5794C16.6398 30.6041 17.0829 30.5916 17.1571 30.5904C17.1942 30.5904 17.1391 30.5935 16.9638 30.5947C16.7884 30.5979 16.4929 30.5994 16.048 30.5794ZM19.5229 32.8895C19.9771 32.8045 20.3537 32.7198 20.6616 32.6483C20.9696 32.5769 21.2088 32.5181 21.3872 32.4743C21.7441 32.3866 21.8578 32.3579 21.7848 32.3764C21.7118 32.3948 21.4518 32.4607 21.0575 32.5557C20.6633 32.6507 20.1346 32.7759 19.5229 32.8895ZM21.1197 30.2646C21.4644 30.1567 21.9484 30.0222 22.4169 29.903C22.8853 29.7839 23.3382 29.6836 23.6145 29.6309C23.8907 29.5782 23.9893 29.5677 23.7503 29.624C23.5113 29.6805 22.9337 29.8117 21.8759 30.0761C21.6232 30.1393 21.3711 30.2028 21.1197 30.2646ZM28.3505 31.0778C28.5819 31.0822 29.1314 31.1326 29.3484 31.159C29.4569 31.1721 29.4821 31.1771 29.3428 31.1643C29.2035 31.1515 28.8996 31.1174 28.3505 31.0778ZM35.5674 30.4429C36.8576 30.5542 37.7557 30.5957 37.8821 30.6033C37.9453 30.6071 37.8156 30.6033 37.4456 30.5818C37.0756 30.5608 36.4653 30.5238 35.5674 30.4429ZM37.015 32.0763C37.7582 32.1294 39.4034 32.2266 41.2133 32.2084C42.1183 32.1994 43.0643 32.1625 43.9586 32.0993C44.853 32.0362 45.6957 31.947 46.3947 31.8562C47.1867 31.7535 47.7929 31.6549 48.0817 31.6094C48.3704 31.5639 48.342 31.5703 47.8623 31.6472C47.4157 31.7157 46.9209 31.7908 46.3949 31.8613C45.5356 31.9765 44.5945 32.0763 43.6474 32.1441C42.7002 32.212 41.747 32.248 40.8637 32.255C39.0975 32.269 37.6123 32.1677 37.015 32.0763ZM41.6428 32.2976C43.1297 32.2398 44.7624 32.1325 46.3969 31.919C47.3557 31.7939 48.3129 31.6341 49.2402 31.4759C48.3508 31.6406 47.389 31.8098 46.3977 31.942C44.8204 32.1526 43.1753 32.2595 41.6428 32.2976ZM49.8473 30.8974C50.8241 30.7352 51.2602 30.6748 51.2342 30.6787C51.2083 30.6828 50.7202 30.753 49.8473 30.8974Z" fill="#385CAA" fill-opacity="0.75"/>
</svg>
