<svg width="112" height="34" viewBox="0 0 112 34" fill="none" xmlns="http://www.w3.org/2000/svg">
<rect y="3" width="112" height="28" rx="10" fill="#2D5122"/>
<path d="M24.6798 14.478V8.934H27.0378V24.072H20.6118V8.934H22.9698V14.478H24.6798ZM24.6798 16.584H22.9698V21.966H24.6798V16.584ZM31.8438 25.17V17.142H30.5658V24.972H28.1718V8.736H30.5658V14.982H31.8438V8.646H34.2378V25.17H31.8438ZM38.1251 11.346C38.1251 10.626 38.3951 10.086 38.9171 9.69C39.9251 8.898 41.9411 8.646 44.8211 8.646C47.7191 8.646 49.7171 8.898 50.7431 9.69C51.2471 10.086 51.5171 10.626 51.5171 11.346C51.5171 12.048 51.2471 12.588 50.7431 13.002C49.7171 13.794 47.7191 14.046 44.8211 14.046C41.9411 14.046 39.9251 13.794 38.9171 13.002C38.3951 12.588 38.1251 12.048 38.1251 11.346ZM40.5911 11.346C40.5911 11.472 40.6631 11.598 40.8251 11.688C41.3111 11.976 42.6611 12.048 44.8211 12.048C46.9811 12.048 48.3311 11.976 48.8351 11.688C48.9791 11.598 49.0511 11.472 49.0511 11.346C49.0511 11.202 48.9791 11.094 48.8351 10.986C48.3311 10.698 46.9811 10.626 44.8211 10.626C42.6611 10.626 41.3111 10.698 40.8251 10.986C40.6631 11.094 40.5911 11.202 40.5911 11.346ZM43.5791 17.826V16.854H37.3691V14.784H52.2371V16.854H46.0091V17.826H51.1931V22.578H40.8791V23.352H51.5711V25.35H38.4131V20.598H48.7271V19.824H38.4131V17.826H43.5791Z" fill="#FFB400"/>
<path d="M61.7336 21.93H64.0196C65.2436 21.93 66.1436 21.75 66.6656 21.354V8.736H69.0416V14.982H70.5176V8.646H72.9116V25.17H70.5176V17.142H69.0416V24.972H66.6656V23.352C66.1076 23.82 65.0456 24.072 63.5336 24.072H59.2856V8.844H61.7336V21.93ZM76.7989 11.904C76.7989 10.95 77.1769 10.266 77.8249 9.78C79.0309 8.898 81.1009 8.646 83.4949 8.646C85.8889 8.646 87.9589 8.898 89.1649 9.78C89.8129 10.266 90.1909 10.95 90.1909 11.904C90.1909 12.84 89.8129 13.542 89.1649 14.01C88.7329 14.334 88.2109 14.568 87.5989 14.73V16.098H90.9109V18.204H76.0429V16.098H79.4449V14.748C78.8149 14.586 78.2569 14.334 77.8249 14.01C77.1769 13.542 76.7989 12.84 76.7989 11.904ZM85.1689 15.108C84.6289 15.144 84.0709 15.162 83.4949 15.162C82.9369 15.162 82.3969 15.144 81.8749 15.108V16.098H85.1689V15.108ZM79.2649 11.904C79.2649 12.156 79.3729 12.354 79.6069 12.516C80.2369 12.966 81.6589 13.074 83.4949 13.074C85.3309 13.074 86.7529 12.966 87.3829 12.516C87.6169 12.354 87.7249 12.156 87.7249 11.904C87.7249 11.652 87.6169 11.436 87.3829 11.292C86.7529 10.842 85.3309 10.716 83.4949 10.716C81.6589 10.716 80.2369 10.842 79.6069 11.292C79.3729 11.436 79.2649 11.652 79.2649 11.904ZM76.7989 22.362C76.7989 21.246 77.3029 20.49 78.2209 19.968C79.3909 19.32 81.2269 19.086 83.4949 19.086C85.7629 19.086 87.5989 19.32 88.7689 19.968C89.7049 20.49 90.1909 21.246 90.1909 22.362C90.1909 23.478 89.7049 24.234 88.7689 24.738C87.5989 25.404 85.7629 25.638 83.4949 25.638C81.2269 25.638 79.3909 25.404 78.2209 24.738C77.3029 24.234 76.7989 23.478 76.7989 22.362ZM79.2649 22.362C79.2649 22.686 79.4269 22.938 79.7509 23.1C80.4169 23.46 81.6589 23.55 83.4949 23.55C85.3309 23.55 86.5729 23.46 87.2389 23.1C87.5629 22.938 87.7249 22.686 87.7249 22.362C87.7249 22.038 87.5629 21.786 87.2389 21.606C86.5729 21.264 85.3309 21.156 83.4949 21.156C81.6589 21.156 80.4169 21.264 79.7509 21.606C79.4269 21.786 79.2649 22.038 79.2649 22.362Z" fill="white"/>
</svg>
