<svg width="137" height="44" viewBox="0 0 137 44" fill="none" xmlns="http://www.w3.org/2000/svg">
<rect x="17" y="2" width="114" height="40" rx="20" fill="#1E78FF"/>
<path d="M35.354 13.082H49.852V15.018H44.264C44.506 16.866 46.816 18.626 50.556 19.044L49.654 20.98C46.178 20.54 43.626 18.978 42.592 16.888C41.558 18.978 39.006 20.54 35.53 20.98L34.628 19.044C38.368 18.626 40.678 16.844 40.92 15.018H35.354V13.082ZM33.726 24.016V22.08H51.458V24.016H44V27.58H41.58V24.016H33.726ZM35.86 31.408V25.798H38.28V29.472H49.5V31.408H35.86ZM66.7045 12.158H69.1245V31.804H66.7045V12.158ZM53.9885 27.162V13.786H56.3865V18.692H61.0725V13.786H63.4485V27.162H53.9885ZM56.3865 25.226H61.0725V20.584H56.3865V25.226Z" fill="white"/>
<path d="M76.77 14.028H81.324V12.07H83.744V14.028H88.298V15.964H76.77V14.028ZM77.782 20.32C77.782 18.164 79.718 16.712 82.534 16.712C85.35 16.712 87.308 18.164 87.308 20.32C87.308 22.454 85.35 23.884 82.534 23.884C79.718 23.884 77.782 22.454 77.782 20.32ZM79.146 27.294V25.358H92.06V31.782H89.64V27.294H79.146ZM80.092 20.32C80.092 21.398 81.082 22.058 82.534 22.058C83.986 22.058 84.976 21.398 84.976 20.32C84.976 19.198 83.986 18.56 82.534 18.56C81.082 18.56 80.092 19.198 80.092 20.32ZM89.64 24.456V12.202H92.06V17.372H94.788V19.352H92.06V24.456H89.64ZM98.1105 23.906H100.487V25.798H109.001V23.906H111.399V31.54H98.1105V23.906ZM95.9765 22.806V20.892H113.665V22.806H95.9765ZM96.9005 17.922C100.971 17.416 103.567 15.282 103.567 13.104V12.4H106.053V13.104C106.053 15.238 108.693 17.438 112.741 17.922L111.883 19.814C108.649 19.374 106.075 17.922 104.821 15.942C103.589 17.944 101.015 19.374 97.7585 19.814L96.9005 17.922ZM100.487 29.626H109.001V27.646H100.487V29.626Z" fill="white"/>
<mask id="mask0_1960_5702" style="mask-type:luminance" maskUnits="userSpaceOnUse" x="2" y="0" width="26" height="26">
<path d="M9.61304 0.000110149L27.0211 7.61315L19.4081 25.0212L2 17.4082L9.61304 0.000110149Z" fill="white"/>
</mask>
<g mask="url(#mask0_1960_5702)">
<path d="M20.6954 19.5808C20.4829 20.0668 20.086 20.4484 19.592 20.6418C19.0981 20.8352 18.5476 20.8244 18.0616 20.6119L6.15079 15.4029C5.6648 15.1904 5.28314 14.7935 5.08978 14.2996C4.89642 13.8056 4.90719 13.2551 5.11973 12.7691L9.06389 3.75037C9.50644 2.73841 12.9816 2.01852 13.9935 2.46108L23.442 6.59315C24.8594 7.21301 25.4409 8.7296 24.8275 10.1323L20.6954 19.5808Z" fill="#CF8900"/>
<path d="M18.9782 21.0118C18.7657 21.4978 18.3688 21.8795 17.8748 22.0729C17.3809 22.2662 16.8304 22.2554 16.3444 22.0429L6.26603 17.6354C5.78003 17.4228 5.39838 17.0259 5.20502 16.532C5.01166 16.0381 5.02243 15.4875 5.23497 15.0016L10.0432 4.00697C10.8684 2.12002 10.835 2.17033 13.1351 3.17625L22.7554 7.38346C23.2414 7.59599 23.623 7.99289 23.8164 8.48682C24.0097 8.98075 23.999 9.53127 23.7864 10.0173L18.9782 21.0118Z" fill="#EFF0F2"/>
<path d="M17.8609 21.0696C17.7015 21.4341 17.4038 21.7203 17.0333 21.8653C16.6629 22.0103 16.25 22.0023 15.8855 21.8429L4.89092 17.0346C4.52643 16.8752 4.24019 16.5776 4.09517 16.2071C3.95015 15.8367 3.95823 15.4238 4.11763 15.0593L8.92586 4.06469C9.08527 3.70019 9.38293 3.41395 9.75339 3.26893C10.1238 3.12391 10.5367 3.13199 10.9012 3.29139L21.8958 8.09962C22.2603 8.25903 22.5465 8.5567 22.6916 8.92715C22.8366 9.2976 22.8285 9.71048 22.6691 10.075L17.8609 21.0696Z" fill="white"/>
<path d="M17.6607 21.5283C17.4482 22.0143 17.0513 22.3959 16.5574 22.5893C16.0634 22.7827 15.5129 22.7719 15.0269 22.5594L5.40665 18.3522C4.92066 18.1396 4.539 17.7427 4.34564 17.2488C4.15228 16.7549 4.16305 16.2043 4.37559 15.7184L8.78314 5.63998C8.99567 5.15399 9.39257 4.77233 9.8865 4.57897C10.3804 4.38561 10.931 4.39639 11.4169 4.60892L21.0372 8.81613C21.5232 9.02866 21.9048 9.42555 22.0982 9.91949C22.2916 10.4134 22.2808 10.9639 22.0683 11.4499L17.6607 21.5283Z" fill="#FFB400"/>
<path d="M16.7445 21.1276C16.532 21.6136 16.1351 21.9953 15.6411 22.1886C15.1472 22.382 14.5967 22.3712 14.1107 22.1587L5.40665 18.3522C4.92066 18.1396 4.539 17.7427 4.34564 17.2488C4.15228 16.7549 4.16305 16.2043 4.37559 15.7184L8.38245 6.5562C8.59499 6.07021 8.99188 5.68855 9.48581 5.49519C9.97975 5.30183 10.5303 5.3126 11.0163 5.52514L19.8738 9.39877C20.8857 9.84133 21.261 10.8 20.8185 11.812L16.7445 21.1276Z" fill="#FFD266"/>
<path d="M11.417 4.60809C10.6442 4.27011 11.0091 3.38082 11.5099 3.14795C12.0795 2.88356 12.7338 3.00105 13.7934 3.46444L14.509 3.77738L14.9096 2.86116L13.664 2.31643C11.8463 1.52147 9.8277 2.003 9.25172 3.32006L3.91758 15.5172C3.70505 16.0032 3.69427 16.5537 3.88763 17.0476C4.08099 17.5416 4.46265 17.9384 4.94864 18.151L5.86486 18.5517L11.8751 4.80844L11.417 4.60809Z" fill="#CF8900"/>
</g>
</svg>
