<svg width="51" height="34" viewBox="0 0 51 34" fill="none" xmlns="http://www.w3.org/2000/svg">
<path fill-rule="evenodd" clip-rule="evenodd" d="M49.4003 16.9677C49.4003 24.0941 44.732 30.1301 38.2866 32.1843C35.6512 33.3341 32.5252 33.9999 29.1729 33.9999C22.4407 33.9999 16.6208 31.3147 13.8556 27.4171C12.6885 25.7721 11.0106 24.3872 9.14646 23.6172C5.28196 22.021 2.5625 18.2152 2.5625 13.7742C2.5625 7.89501 7.3285 3.12901 13.2077 3.12901C14.4204 3.12901 15.5859 3.33182 16.6718 3.70538C19.4038 4.64513 22.8605 4.65755 25.351 3.1932C27.7216 1.79936 30.4837 1 33.4326 1C42.2513 1 49.4003 8.149 49.4003 16.9677Z" fill="#FFA800"/>
<path fill-rule="evenodd" clip-rule="evenodd" d="M11.1679 9.16608C11.4282 8.90574 11.8504 8.90574 12.1107 9.16608L16.1107 13.1661C16.371 13.4264 16.371 13.8485 16.1107 14.1089C15.8504 14.3692 15.4282 14.3692 15.1679 14.1089L11.1679 10.1089C10.9076 9.84854 10.9076 9.42641 11.1679 9.16608Z" fill="#B07400"/>
<path fill-rule="evenodd" clip-rule="evenodd" d="M2.66797 6.66699C2.66797 3.35329 5.35426 0.666992 8.66797 0.666992C11.9817 0.666992 14.668 3.35329 14.668 6.66699C14.668 9.98073 11.9817 12.667 8.66797 12.667C5.35426 12.667 2.66797 9.98073 2.66797 6.66699Z" fill="white"/>
<path fill-rule="evenodd" clip-rule="evenodd" d="M8.66536 9.33349C10.1381 9.33349 11.332 8.13963 11.332 6.66683V1.29053C13.3077 2.27233 14.6654 4.31103 14.6654 6.66683C14.6654 9.98056 11.9791 12.6668 8.66536 12.6668C6.30957 12.6668 4.27086 11.3092 3.28906 9.33349H8.66536Z" fill="#FFF0CC"/>
<path fill-rule="evenodd" clip-rule="evenodd" d="M8.66797 1.99984C6.09064 1.99984 4.0013 4.08918 4.0013 6.6665C4.0013 9.24384 6.09064 11.3332 8.66797 11.3332C11.2453 11.3332 13.3346 9.24384 13.3346 6.6665C13.3346 4.08918 11.2453 1.99984 8.66797 1.99984ZM2.66797 6.6665C2.66797 3.3528 5.35426 0.666504 8.66797 0.666504C11.9817 0.666504 14.668 3.3528 14.668 6.6665C14.668 9.98024 11.9817 12.6665 8.66797 12.6665C5.35426 12.6665 2.66797 9.98024 2.66797 6.6665Z" fill="#FFD265"/>
</svg>
