<svg width="202" height="34" viewBox="0 0 202 34" fill="none" xmlns="http://www.w3.org/2000/svg">
<path fill-rule="evenodd" clip-rule="evenodd" d="M7.5 3C3.35786 3 0 6.35786 0 10.5C0 13.2785 1.51086 15.704 3.75582 17C1.51086 18.296 0 20.7215 0 23.5C0 27.6421 3.35786 31 7.49999 31H194.5C198.642 31 202 27.6421 202 23.5C202 20.7215 200.489 18.296 198.244 17C200.489 15.704 202 13.2785 202 10.5C202 6.35786 198.642 3 194.5 3H7.5Z" fill="#664300"/>
<path d="M22.1905 14.478V8.934H24.5485V24.072H18.1225V8.934H20.4805V14.478H22.1905ZM22.1905 16.584H20.4805V21.966H22.1905V16.584ZM29.3545 25.17V17.142H28.0765V24.972H25.6825V8.736H28.0765V14.982H29.3545V8.646H31.7485V25.17H29.3545ZM35.6358 12.12C35.6358 11.112 36.0138 10.374 36.6618 9.852C37.8858 8.898 40.0098 8.646 42.3318 8.646C44.6718 8.646 46.7778 8.898 48.0018 9.852C48.6498 10.374 49.0278 11.112 49.0278 12.12C49.0278 13.11 48.6498 13.848 48.0018 14.37C46.7778 15.324 44.6718 15.576 42.3318 15.576C40.0098 15.576 37.8858 15.324 36.6618 14.37C36.0138 13.848 35.6358 13.11 35.6358 12.12ZM38.1018 12.12C38.1018 12.462 38.2458 12.714 38.5338 12.912C39.1818 13.38 40.4958 13.524 42.3318 13.524C44.1678 13.524 45.4998 13.38 46.1298 12.912C46.4178 12.714 46.5618 12.462 46.5618 12.12C46.5618 11.76 46.4178 11.508 46.1298 11.31C45.4998 10.842 44.1678 10.698 42.3318 10.698C40.4958 10.698 39.1818 10.842 38.5338 11.31C38.2458 11.508 38.1018 11.76 38.1018 12.12ZM34.8798 16.746H49.7478V18.888H43.7178V21.75H41.2698V18.888H34.8798V16.746ZM38.3898 23.082H48.9918V25.242H35.9238V20.256H38.3898V23.082ZM59.2444 21.93H61.5304C62.7544 21.93 63.6544 21.75 64.1764 21.354V8.736H66.5524V14.982H68.0284V8.646H70.4224V25.17H68.0284V17.142H66.5524V24.972H64.1764V23.352C63.6184 23.82 62.5564 24.072 61.0444 24.072H56.7964V8.844H59.2444V21.93ZM74.3097 11.904C74.3097 10.95 74.6877 10.266 75.3357 9.78C76.5417 8.898 78.6117 8.646 81.0057 8.646C83.3997 8.646 85.4697 8.898 86.6757 9.78C87.3237 10.266 87.7017 10.95 87.7017 11.904C87.7017 12.84 87.3237 13.542 86.6757 14.01C86.2437 14.334 85.7217 14.568 85.1097 14.73V16.098H88.4217V18.204H73.5537V16.098H76.9557V14.748C76.3257 14.586 75.7677 14.334 75.3357 14.01C74.6877 13.542 74.3097 12.84 74.3097 11.904ZM82.6797 15.108C82.1397 15.144 81.5817 15.162 81.0057 15.162C80.4477 15.162 79.9077 15.144 79.3857 15.108V16.098H82.6797V15.108ZM76.7757 11.904C76.7757 12.156 76.8837 12.354 77.1177 12.516C77.7477 12.966 79.1697 13.074 81.0057 13.074C82.8417 13.074 84.2637 12.966 84.8937 12.516C85.1277 12.354 85.2357 12.156 85.2357 11.904C85.2357 11.652 85.1277 11.436 84.8937 11.292C84.2637 10.842 82.8417 10.716 81.0057 10.716C79.1697 10.716 77.7477 10.842 77.1177 11.292C76.8837 11.436 76.7757 11.652 76.7757 11.904ZM74.3097 22.362C74.3097 21.246 74.8137 20.49 75.7317 19.968C76.9017 19.32 78.7377 19.086 81.0057 19.086C83.2737 19.086 85.1097 19.32 86.2797 19.968C87.2157 20.49 87.7017 21.246 87.7017 22.362C87.7017 23.478 87.2157 24.234 86.2797 24.738C85.1097 25.404 83.2737 25.638 81.0057 25.638C78.7377 25.638 76.9017 25.404 75.7317 24.738C74.8137 24.234 74.3097 23.478 74.3097 22.362ZM76.7757 22.362C76.7757 22.686 76.9377 22.938 77.2617 23.1C77.9277 23.46 79.1697 23.55 81.0057 23.55C82.8417 23.55 84.0837 23.46 84.7497 23.1C85.0737 22.938 85.2357 22.686 85.2357 22.362C85.2357 22.038 85.0737 21.786 84.7497 21.606C84.0837 21.264 82.8417 21.156 81.0057 21.156C79.1697 21.156 77.9277 21.264 77.2617 21.606C76.9377 21.786 76.7757 22.038 76.7757 22.362ZM154.297 15.288V8.844H167.077V15.288H154.297ZM164.611 10.896H156.763V13.236H164.611V10.896ZM153.253 16.746H168.121V18.888H162.091V21.75H159.643V18.888H153.253V16.746ZM156.763 23.082H167.365V25.242H154.297V20.256H156.763V23.082ZM177.786 8.934V11.076H175.644V15.936C175.644 19.824 176.4 21.012 177.966 21.822V24.072C176.31 23.586 175.158 22.668 174.42 21.534C173.682 22.668 172.53 23.586 170.874 24.072V21.822C172.44 21.012 173.232 19.824 173.232 15.936V11.076H171.054V8.934H177.786ZM176.76 14.838H178.938V8.736H181.314V24.972H178.938V16.98H176.76V14.838ZM182.286 25.17V8.646H184.68V25.17H182.286Z" fill="white"/>
<path d="M101.29 17.628C100.444 17.142 99.598 16.368 99.058 15.54C98.32 16.476 97.24 17.232 95.872 17.628V15.486C97.258 14.712 97.798 13.614 97.798 11.058V8.844H100.228V10.95C100.228 13.038 100.624 14.244 101.29 15.09C101.938 14.244 102.352 13.056 102.352 10.95V8.844H104.764V11.058C104.764 13.56 105.268 14.622 106.69 15.486V17.628C105.322 17.214 104.188 16.458 103.522 15.54C103 16.35 102.136 17.124 101.29 17.628ZM112.108 12.21V14.37H109.912V18.33H107.446V8.646H109.912V12.21H112.108ZM97.15 21.984C97.15 20.778 97.762 19.95 98.77 19.392C99.994 18.69 101.794 18.456 103.666 18.456C105.556 18.456 107.356 18.69 108.58 19.392C109.588 19.95 110.2 20.778 110.2 21.984C110.2 23.208 109.588 24.036 108.58 24.594C107.356 25.278 105.556 25.53 103.666 25.53C101.794 25.53 99.994 25.278 98.77 24.594C97.762 24.036 97.15 23.208 97.15 21.984ZM99.616 21.984C99.616 22.344 99.796 22.614 100.138 22.812C100.822 23.262 102.136 23.424 103.666 23.424C105.214 23.424 106.528 23.262 107.212 22.812C107.536 22.614 107.734 22.344 107.734 21.984C107.734 21.642 107.536 21.372 107.212 21.156C106.528 20.724 105.214 20.562 103.666 20.562C102.136 20.562 100.822 20.724 100.138 21.156C99.796 21.372 99.616 21.642 99.616 21.984ZM116.913 10.914V12.786H127.335V14.82H114.447V8.844H127.227V10.914H116.913ZM122.043 18.042V19.104C123.771 19.176 125.175 19.446 126.129 19.968C127.065 20.49 127.551 21.246 127.551 22.362C127.551 23.478 127.065 24.234 126.129 24.738C124.959 25.404 123.123 25.638 120.855 25.638C118.587 25.638 116.751 25.404 115.581 24.738C114.663 24.234 114.159 23.478 114.159 22.362C114.159 21.246 114.663 20.49 115.581 19.968C116.535 19.446 117.921 19.194 119.613 19.104V18.042H113.403V15.936H128.271V18.042H122.043ZM116.625 22.362C116.625 22.686 116.787 22.938 117.111 23.1C117.777 23.46 119.019 23.55 120.855 23.55C122.691 23.55 123.933 23.46 124.599 23.1C124.923 22.938 125.085 22.686 125.085 22.362C125.085 22.038 124.923 21.786 124.599 21.606C123.933 21.264 122.691 21.156 120.855 21.156C119.019 21.156 117.777 21.264 117.111 21.606C116.787 21.786 116.625 22.038 116.625 22.362ZM139.737 16.476C139.737 19.374 139.503 21.588 138.495 22.902C137.811 23.802 136.713 24.288 135.417 24.288C134.139 24.288 133.041 23.802 132.339 22.902C131.331 21.588 131.115 19.374 131.115 16.476C131.115 13.596 131.331 11.382 132.339 10.068C133.041 9.168 134.139 8.664 135.417 8.664C136.713 8.664 137.811 9.168 138.495 10.068C139.503 11.382 139.737 13.596 139.737 16.476ZM133.545 16.476C133.545 18.924 133.671 20.742 134.211 21.552C134.481 21.948 134.913 22.164 135.417 22.164C135.921 22.164 136.371 21.948 136.641 21.552C137.181 20.742 137.289 18.924 137.289 16.476C137.289 14.046 137.181 12.228 136.641 11.418C136.371 11.022 135.921 10.806 135.417 10.806C134.913 10.806 134.481 11.022 134.211 11.418C133.671 12.228 133.545 14.046 133.545 16.476ZM144.597 25.17H142.131V8.646H144.597V25.17Z" fill="#68E6CE"/>
</svg>
