<svg width="153" height="34" viewBox="0 0 153 34" fill="none" xmlns="http://www.w3.org/2000/svg">
<g clip-path="url(#clip0_9954_40760)">
<path d="M18.3081 4.80908H1.98197C0.991205 4.80908 0.21582 5.58447 0.21582 6.57524V16.526C0.21582 17.5168 0.991205 18.2922 1.98197 18.2922H3.0589V22.5568L7.32351 18.2922H18.3512C19.342 18.2922 20.1174 17.5168 20.1174 16.526V6.57524C20.0743 5.62754 19.2989 4.80908 18.3081 4.80908Z" fill="#4AB670"/>
<path d="M9.69291 11.4429H26.0191C27.0098 11.4429 27.7852 12.2183 27.7852 13.209V23.1598C27.7852 24.1506 27.0098 24.9259 26.0191 24.9259H24.9421V29.1906L20.6775 24.9259H9.69291C8.70214 24.9259 7.92676 24.1506 7.92676 23.1598V13.209C7.92676 12.2183 8.70214 11.4429 9.69291 11.4429Z" fill="#FFC333"/>
<path d="M18.3081 4.80908H1.98197C0.991205 4.80908 0.21582 5.58447 0.21582 6.57524V7.30754C0.21582 6.31677 0.991205 5.54139 1.98197 5.54139H18.3081C19.2989 5.54139 20.0743 6.31677 20.0743 7.30754V6.57524C20.0743 5.62754 19.2989 4.80908 18.3081 4.80908Z" fill="#4AB670"/>
<path d="M9.69291 11.4429H26.0191C27.0098 11.4429 27.7852 12.2183 27.7852 13.209V23.1598C27.7852 24.1506 27.0098 24.9259 26.0191 24.9259H24.9421V29.1906L20.6775 24.9259H9.69291C8.70214 24.9259 7.92676 24.1506 7.92676 23.1598V13.209C7.92676 12.2183 8.70214 11.4429 9.69291 11.4429Z" fill="#FFC333"/>
<path d="M12.8802 19.6276C13.808 19.6276 14.5602 18.8754 14.5602 17.9476C14.5602 17.0197 13.808 16.2676 12.8802 16.2676C11.9524 16.2676 11.2002 17.0197 11.2002 17.9476C11.2002 18.8754 11.9524 19.6276 12.8802 19.6276Z" fill="white"/>
<path d="M17.8343 19.6276C18.7621 19.6276 19.5143 18.8754 19.5143 17.9476C19.5143 17.0197 18.7621 16.2676 17.8343 16.2676C16.9065 16.2676 16.1543 17.0197 16.1543 17.9476C16.1543 18.8754 16.9065 19.6276 17.8343 19.6276Z" fill="white"/>
<path d="M22.8314 19.6276C23.7592 19.6276 24.5114 18.8754 24.5114 17.9476C24.5114 17.0197 23.7592 16.2676 22.8314 16.2676C21.9035 16.2676 21.1514 17.0197 21.1514 17.9476C21.1514 18.8754 21.9035 19.6276 22.8314 19.6276Z" fill="white"/>
<path d="M26.0191 11.4429H9.69291C8.70214 11.4429 7.92676 12.2183 7.92676 13.209V13.9413C7.92676 12.9506 8.70214 12.1752 9.69291 12.1752H26.0191C27.0098 12.1752 27.7852 12.9506 27.7852 13.9413V13.209C27.7852 12.2183 27.0098 11.4429 26.0191 11.4429Z" fill="#FFC333"/>
</g>
<path d="M48.848 8.94V10.986H44.272V25.176H41.918V10.986H37.32V8.94H48.848ZM53.869 25.286C50.965 25.286 48.897 23.086 48.897 20.006C48.897 16.926 50.965 14.726 53.869 14.726C54.903 14.726 56.047 15.21 56.883 16.2V14.704H59.215V25.198H56.883V23.79C56.047 24.846 54.903 25.286 53.869 25.286ZM51.229 20.006C51.229 21.986 52.351 23.306 54.023 23.306C55.563 23.306 56.883 21.92 56.905 20.006C56.883 18.092 55.563 16.706 54.023 16.706C52.351 16.706 51.229 18.004 51.229 20.006ZM62.0511 9.468H64.3831V25.176H62.0511V9.468ZM69.8683 9.468V19.038L73.6083 14.704H76.7543L72.6623 19.39L76.6663 25.198H73.8283L70.9903 21.128L69.8683 22.448V25.198H67.5363V9.468H69.8683ZM85.7834 25.198V16.706H83.8034V14.682H85.7834V11.008H88.1154V14.682H90.6014V16.706H88.1154V25.198H85.7834ZM97.3125 23.284C98.9405 23.284 100.04 21.986 100.04 19.984C100.04 18.004 98.9405 16.684 97.3125 16.684C95.6845 16.684 94.5845 17.982 94.5845 19.984C94.5845 21.986 95.6625 23.284 97.3125 23.284ZM92.2525 19.984C92.2525 16.882 94.3425 14.682 97.3125 14.682C100.282 14.682 102.372 16.882 102.372 19.984C102.372 23.064 100.282 25.286 97.3125 25.286C94.3425 25.286 92.2525 23.064 92.2525 19.984ZM116.317 17.036C118.077 17.036 119.309 15.782 119.309 14C119.309 12.24 118.055 10.986 116.295 10.986H112.731V17.036H116.317ZM110.399 25.176V8.94H116.383C119.463 8.94 121.619 11.03 121.619 14C121.619 16.97 119.463 19.06 116.383 19.06H112.731V25.176H110.399ZM123.582 9.468H125.914V25.176H123.582V9.468ZM133.082 25.286C130.178 25.286 128.11 23.086 128.11 20.006C128.11 16.926 130.178 14.726 133.082 14.726C134.116 14.726 135.26 15.21 136.096 16.2V14.704H138.428V25.198H136.096V23.79C135.26 24.846 134.116 25.286 133.082 25.286ZM130.442 20.006C130.442 21.986 131.564 23.306 133.236 23.306C134.776 23.306 136.096 21.92 136.118 20.006C136.096 18.092 134.776 16.706 133.236 16.706C131.564 16.706 130.442 18.004 130.442 20.006ZM144.927 29.752H142.375L144.663 24.318L140.439 14.704H143.013L145.895 21.656L148.667 14.704H151.197L147.281 24.142L144.927 29.752Z" fill="#996500"/>
<defs>
<clipPath id="clip0_9954_40760">
<rect width="28" height="28" fill="white" transform="translate(0 3)"/>
</clipPath>
</defs>
</svg>
