<svg width="36" height="36" viewBox="0 0 36 36" fill="none" xmlns="http://www.w3.org/2000/svg">
<g clip-path="url(#clip0_2796_32799)">
<rect width="36" height="36" rx="10" fill="#D0C8FF"/>
<path d="M26.53 6.99902H12.0402C11.0855 6.99902 10.1699 7.37828 9.49478 8.05337C8.81969 8.72846 8.44043 9.64407 8.44043 10.5988V19.2382V22.838H17.0799C17.4618 22.838 17.828 22.9897 18.098 23.2597C18.3681 23.5298 18.5198 23.896 18.5198 24.2779V25.8532C18.5198 27.4428 19.8085 28.5976 21.3996 28.5976C22.9763 28.5976 24.2578 27.4644 24.2794 25.8906V19.2382V10.4202H24.2837C24.3232 9.62198 24.6272 8.85955 25.1479 8.25315C25.6685 7.64675 26.3761 7.23085 27.1592 7.07102C26.952 7.02858 26.7414 7.00449 26.53 6.99902Z" fill="white"/>
<path d="M28.1768 12.3369C27.9068 12.6069 27.5405 12.7586 27.1586 12.7586H24.2788V10.5988V9.15888C24.2788 8.58605 24.5064 8.03668 24.9114 7.63163C25.3165 7.22658 25.8658 6.99902 26.4387 6.99902C27.0115 6.99902 27.5609 7.22658 27.9659 7.63163C28.371 8.03668 28.5985 8.58605 28.5985 9.15888V11.3187C28.5985 11.7006 28.4468 12.0669 28.1768 12.3369Z" fill="#787DF7"/>
<path d="M26.4387 6.99902C27.0115 6.99902 27.5609 7.22658 27.9659 7.63163L24.2788 10.5988V9.15888C24.2788 8.58605 24.5064 8.03668 24.9114 7.63163C25.3165 7.22658 25.8658 6.99902 26.4387 6.99902Z" fill="#4C51BE"/>
<path d="M19.9592 25.8545C19.959 26.8557 20.3067 27.8258 20.9426 28.599H10.4198C8.56374 28.599 7 27.1879 7 25.2699V23.5593C7 23.3684 7.07585 23.1852 7.21087 23.0502C7.34589 22.9152 7.52901 22.8394 7.71995 22.8394H19.9592V25.8545Z" fill="#6952F6"/>
<path d="M11.3193 11.3193H21.3987" stroke="#827FF8" stroke-width="1.43991" stroke-linecap="round"/>
<path d="M11.3193 14.1987H21.3987" stroke="#827FF8" stroke-width="1.43991" stroke-linecap="round"/>
<path d="M11.3193 17.0796H21.3987" stroke="#827FF8" stroke-width="1.43991" stroke-linecap="round"/>
<path d="M11.3193 19.9585H18.5189" stroke="#827FF8" stroke-width="1.43991" stroke-linecap="round"/>
</g>
<defs>
<clipPath id="clip0_2796_32799">
<rect width="36" height="36" fill="white"/>
</clipPath>
</defs>
</svg>
