<svg width="127" height="44" viewBox="0 0 127 44" fill="none" xmlns="http://www.w3.org/2000/svg">
<rect x="6.69531" y="2" width="113.61" height="40" rx="20" fill="#124899"/>
<path d="M27.3113 14.3763H31.3593V12.1543H33.7573V14.3763H37.8053V16.3123H33.7573V16.4003C33.7573 18.5563 35.3193 20.6463 38.3773 21.4823L37.2773 23.3523C35.0553 22.7363 33.4933 21.4383 32.6133 19.7883C31.7553 21.6583 30.1273 23.1323 27.8393 23.8363L26.6953 21.9663C29.7533 21.0643 31.3593 18.7983 31.3593 16.4003V16.3123H27.3113V14.3763ZM29.2033 28.1483C29.2033 25.8603 31.7113 24.5183 35.7593 24.5183C39.8073 24.5183 42.2933 25.8603 42.2933 28.1483C42.2933 30.4583 39.8073 31.7783 35.7593 31.7783C31.7113 31.7783 29.2033 30.4583 29.2033 28.1483ZM31.6013 28.1483C31.6013 29.3143 33.0753 29.9523 35.7593 29.9523C38.3993 29.9523 39.9173 29.3143 39.9173 28.1483C39.9173 26.9823 38.3993 26.3663 35.7593 26.3663C33.0753 26.3663 31.6013 26.9823 31.6013 28.1483ZM39.6533 24.1003V12.2423H42.0733V17.0163H44.8013V19.0183H42.0733V24.1003H39.6533Z" fill="white"/>
<path d="M52.2818 13.5623C55.3398 13.5623 57.6058 15.5423 57.6058 18.3143C57.6058 21.1083 55.3398 23.0663 52.2818 23.0663C49.2018 23.0663 46.9358 21.1083 46.9358 18.3143C46.9358 15.5423 49.2018 13.5623 52.2818 13.5623ZM46.0558 25.7723C49.5318 25.7723 54.4158 25.7503 58.5738 25.1123L58.7498 26.8723C54.4598 27.7083 49.7738 27.7523 46.3418 27.7523L46.0558 25.7723ZM49.2898 18.3143C49.2898 19.9423 50.5658 20.9983 52.2818 20.9983C53.9758 20.9983 55.2518 19.9423 55.2518 18.3143C55.2518 16.6643 53.9758 15.6523 52.2818 15.6523C50.5658 15.6523 49.2898 16.6643 49.2898 18.3143ZM59.7398 31.8443V12.1983H62.1378V31.8443H59.7398Z" fill="white"/>
<path d="M77.6587 30.4803C73.6107 30.4803 71.2347 27.6863 71.2347 23.7483V13.8703H74.0727V23.7263C74.0727 26.2123 75.2167 27.8403 77.6587 27.8403C80.1007 27.8403 81.2667 26.2123 81.2667 23.7263V13.8703H84.1047V23.7483C84.1047 27.6863 81.7067 30.4803 77.6587 30.4803Z" fill="white"/>
<path d="M94.6949 22.0983C96.3229 22.0983 97.4669 20.8883 97.4669 19.1943C97.4669 17.5223 96.3229 16.3123 94.6729 16.3123H91.2849V22.0983H94.6949ZM88.4469 30.3263V13.8703H94.7829C98.0169 13.8703 100.305 16.0703 100.305 19.1943C100.305 22.3403 98.0169 24.5403 94.7829 24.5403H91.2849V30.3263H88.4469Z" fill="white"/>
<path d="M82.627 9.89453L86.3926 13.7515H82.627H78.8613L82.627 9.89453Z" fill="white"/>
<rect x="81.2637" y="13.332" width="2.8501" height="3.47803" fill="white"/>
<rect x="71.2305" y="13.8633" width="2.85341" height="1.67192" fill="#124899"/>
</svg>
