<svg width="153" height="34" viewBox="0 0 153 34" fill="none" xmlns="http://www.w3.org/2000/svg">
<mask id="path-1-outside-1_1960_5607" maskUnits="userSpaceOnUse" x="0" y="5" width="123" height="28" fill="black">
<rect fill="white" y="5" width="123" height="28"/>
<path d="M16.124 8.94V25.176H13.77V17.85H6.114V25.176H3.782V8.94H6.114V15.826H13.77V8.94H16.124ZM24.0175 23.284C25.6455 23.284 26.7455 21.986 26.7455 19.984C26.7455 18.004 25.6455 16.684 24.0175 16.684C22.3895 16.684 21.2895 17.982 21.2895 19.984C21.2895 21.986 22.3675 23.284 24.0175 23.284ZM18.9575 19.984C18.9575 16.882 21.0475 14.682 24.0175 14.682C26.9875 14.682 29.0775 16.882 29.0775 19.984C29.0775 23.064 26.9875 25.286 24.0175 25.286C21.0475 25.286 18.9575 23.064 18.9575 19.984ZM44.6709 14.704L41.5909 25.198H39.4349L37.3669 18.422L35.3429 25.198H33.1869L30.0409 14.704H32.4609L34.2869 21.414L36.1789 14.704H38.5109L40.4689 21.414L42.2509 14.704H44.6709ZM53.6311 25.198V16.706H51.6511V14.682H53.6311V11.008H55.9631V14.682H58.4491V16.706H55.9631V25.198H53.6311ZM65.1601 23.284C66.7881 23.284 67.8881 21.986 67.8881 19.984C67.8881 18.004 66.7881 16.684 65.1601 16.684C63.5321 16.684 62.4321 17.982 62.4321 19.984C62.4321 21.986 63.5101 23.284 65.1601 23.284ZM60.1001 19.984C60.1001 16.882 62.1901 14.682 65.1601 14.682C68.1301 14.682 70.2201 16.882 70.2201 19.984C70.2201 23.064 68.1301 25.286 65.1601 25.286C62.1901 25.286 60.1001 23.064 60.1001 19.984ZM84.1643 17.036C85.9243 17.036 87.1563 15.782 87.1563 14C87.1563 12.24 85.9023 10.986 84.1423 10.986H80.5783V17.036H84.1643ZM78.2463 25.176V8.94H84.2303C87.3103 8.94 89.4663 11.03 89.4663 14C89.4663 16.97 87.3103 19.06 84.2303 19.06H80.5783V25.176H78.2463ZM91.43 9.468H93.762V25.176H91.43V9.468ZM100.93 25.286C98.0255 25.286 95.9575 23.086 95.9575 20.006C95.9575 16.926 98.0255 14.726 100.93 14.726C101.964 14.726 103.108 15.21 103.944 16.2V14.704H106.276V25.198H103.944V23.79C103.108 24.846 101.964 25.286 100.93 25.286ZM98.2895 20.006C98.2895 21.986 99.4115 23.306 101.084 23.306C102.624 23.306 103.944 21.92 103.966 20.006C103.944 18.092 102.624 16.706 101.084 16.706C99.4115 16.706 98.2895 18.004 98.2895 20.006ZM112.774 29.752H110.222L112.51 24.318L108.286 14.704H110.86L113.742 21.656L116.514 14.704H119.044L115.128 24.142L112.774 29.752Z"/>
</mask>
<path d="M16.124 8.94V25.176H13.77V17.85H6.114V25.176H3.782V8.94H6.114V15.826H13.77V8.94H16.124ZM24.0175 23.284C25.6455 23.284 26.7455 21.986 26.7455 19.984C26.7455 18.004 25.6455 16.684 24.0175 16.684C22.3895 16.684 21.2895 17.982 21.2895 19.984C21.2895 21.986 22.3675 23.284 24.0175 23.284ZM18.9575 19.984C18.9575 16.882 21.0475 14.682 24.0175 14.682C26.9875 14.682 29.0775 16.882 29.0775 19.984C29.0775 23.064 26.9875 25.286 24.0175 25.286C21.0475 25.286 18.9575 23.064 18.9575 19.984ZM44.6709 14.704L41.5909 25.198H39.4349L37.3669 18.422L35.3429 25.198H33.1869L30.0409 14.704H32.4609L34.2869 21.414L36.1789 14.704H38.5109L40.4689 21.414L42.2509 14.704H44.6709ZM53.6311 25.198V16.706H51.6511V14.682H53.6311V11.008H55.9631V14.682H58.4491V16.706H55.9631V25.198H53.6311ZM65.1601 23.284C66.7881 23.284 67.8881 21.986 67.8881 19.984C67.8881 18.004 66.7881 16.684 65.1601 16.684C63.5321 16.684 62.4321 17.982 62.4321 19.984C62.4321 21.986 63.5101 23.284 65.1601 23.284ZM60.1001 19.984C60.1001 16.882 62.1901 14.682 65.1601 14.682C68.1301 14.682 70.2201 16.882 70.2201 19.984C70.2201 23.064 68.1301 25.286 65.1601 25.286C62.1901 25.286 60.1001 23.064 60.1001 19.984ZM84.1643 17.036C85.9243 17.036 87.1563 15.782 87.1563 14C87.1563 12.24 85.9023 10.986 84.1423 10.986H80.5783V17.036H84.1643ZM78.2463 25.176V8.94H84.2303C87.3103 8.94 89.4663 11.03 89.4663 14C89.4663 16.97 87.3103 19.06 84.2303 19.06H80.5783V25.176H78.2463ZM91.43 9.468H93.762V25.176H91.43V9.468ZM100.93 25.286C98.0255 25.286 95.9575 23.086 95.9575 20.006C95.9575 16.926 98.0255 14.726 100.93 14.726C101.964 14.726 103.108 15.21 103.944 16.2V14.704H106.276V25.198H103.944V23.79C103.108 24.846 101.964 25.286 100.93 25.286ZM98.2895 20.006C98.2895 21.986 99.4115 23.306 101.084 23.306C102.624 23.306 103.944 21.92 103.966 20.006C103.944 18.092 102.624 16.706 101.084 16.706C99.4115 16.706 98.2895 18.004 98.2895 20.006ZM112.774 29.752H110.222L112.51 24.318L108.286 14.704H110.86L113.742 21.656L116.514 14.704H119.044L115.128 24.142L112.774 29.752Z" fill="#F55320"/>
<path d="M16.124 8.94H19.124C19.124 7.28315 17.7809 5.94 16.124 5.94V8.94ZM16.124 25.176V28.176C17.7809 28.176 19.124 26.8329 19.124 25.176H16.124ZM13.77 25.176H10.77C10.77 26.8329 12.1131 28.176 13.77 28.176V25.176ZM13.77 17.85H16.77C16.77 16.1931 15.4269 14.85 13.77 14.85V17.85ZM6.114 17.85V14.85C4.45715 14.85 3.114 16.1931 3.114 17.85H6.114ZM6.114 25.176V28.176C7.77085 28.176 9.114 26.8329 9.114 25.176H6.114ZM3.782 25.176H0.782C0.782 26.8329 2.12515 28.176 3.782 28.176V25.176ZM3.782 8.94V5.94C2.12515 5.94 0.782 7.28315 0.782 8.94H3.782ZM6.114 8.94H9.114C9.114 7.28315 7.77085 5.94 6.114 5.94V8.94ZM6.114 15.826H3.114C3.114 17.4829 4.45715 18.826 6.114 18.826V15.826ZM13.77 15.826V18.826C15.4269 18.826 16.77 17.4829 16.77 15.826H13.77ZM13.77 8.94V5.94C12.1131 5.94 10.77 7.28315 10.77 8.94H13.77ZM13.124 8.94V25.176H19.124V8.94H13.124ZM16.124 22.176H13.77V28.176H16.124V22.176ZM16.77 25.176V17.85H10.77V25.176H16.77ZM13.77 14.85H6.114V20.85H13.77V14.85ZM3.114 17.85V25.176H9.114V17.85H3.114ZM6.114 22.176H3.782V28.176H6.114V22.176ZM6.782 25.176V8.94H0.782V25.176H6.782ZM3.782 11.94H6.114V5.94H3.782V11.94ZM3.114 8.94V15.826H9.114V8.94H3.114ZM6.114 18.826H13.77V12.826H6.114V18.826ZM16.77 15.826V8.94H10.77V15.826H16.77ZM13.77 11.94H16.124V5.94H13.77V11.94ZM24.0175 26.284C25.6931 26.284 27.2307 25.5858 28.2976 24.3042C29.324 23.0714 29.7455 21.514 29.7455 19.984H23.7455C23.7455 20.456 23.6171 20.5486 23.6865 20.4653C23.7228 20.4216 23.7875 20.3656 23.8754 20.3251C23.9624 20.285 24.0201 20.284 24.0175 20.284V26.284ZM29.7455 19.984C29.7455 18.4584 29.3207 16.9067 28.3021 15.6774C27.2439 14.4003 25.7093 13.684 24.0175 13.684V19.684C24.0177 19.684 24.0012 19.6839 23.9716 19.6776C23.9418 19.6712 23.9046 19.6596 23.8638 19.6406C23.7763 19.5998 23.7147 19.5451 23.682 19.5056C23.6204 19.4313 23.7455 19.5296 23.7455 19.984H29.7455ZM24.0175 13.684C22.342 13.684 20.8044 14.3822 19.7375 15.6638C18.7111 16.8966 18.2895 18.454 18.2895 19.984H24.2895C24.2895 19.512 24.418 19.4194 24.3486 19.5027C24.3122 19.5464 24.2475 19.6024 24.1597 19.6429C24.0726 19.683 24.0149 19.684 24.0175 19.684V13.684ZM18.2895 19.984C18.2895 21.4995 18.6981 23.0585 19.7238 24.2977C20.7951 25.5919 22.3397 26.284 24.0175 26.284V20.284C24.0039 20.284 24.0583 20.2828 24.1472 20.3236C24.2376 20.3651 24.3061 20.4239 24.3458 20.4718C24.42 20.5615 24.2895 20.4705 24.2895 19.984H18.2895ZM21.9575 19.984C21.9575 19.1155 22.2413 18.5586 22.5454 18.2395C22.8397 17.9307 23.3037 17.682 24.0175 17.682V11.682C21.7614 11.682 19.6953 12.5333 18.2021 14.1C16.7187 15.6564 15.9575 17.7505 15.9575 19.984H21.9575ZM24.0175 17.682C24.7314 17.682 25.1953 17.9307 25.4896 18.2395C25.7937 18.5586 26.0775 19.1155 26.0775 19.984H32.0775C32.0775 17.7505 31.3163 15.6564 29.8329 14.1C28.3397 12.5333 26.2737 11.682 24.0175 11.682V17.682ZM26.0775 19.984C26.0775 21.5531 25.1884 22.286 24.0175 22.286V28.286C28.7867 28.286 32.0775 24.5749 32.0775 19.984H26.0775ZM24.0175 22.286C22.8467 22.286 21.9575 21.5531 21.9575 19.984H15.9575C15.9575 24.5749 19.2484 28.286 24.0175 28.286V22.286ZM44.6709 14.704L47.5495 15.5489C47.8156 14.642 47.6389 13.6626 47.0724 12.906C46.506 12.1494 45.6161 11.704 44.6709 11.704V14.704ZM41.5909 25.198V28.198C42.9223 28.198 44.0945 27.3204 44.4695 26.0429L41.5909 25.198ZM39.4349 25.198L36.5655 26.0737C36.9507 27.3358 38.1153 28.198 39.4349 28.198V25.198ZM37.3669 18.422L40.2362 17.5463C39.8501 16.2811 38.6808 15.4181 37.358 15.422C36.0351 15.4259 34.871 16.2959 34.4924 17.5634L37.3669 18.422ZM35.3429 25.198V28.198C36.669 28.198 37.8378 27.3273 38.2174 26.0566L35.3429 25.198ZM33.1869 25.198L30.3132 26.0595C30.6937 27.3287 31.8619 28.198 33.1869 28.198V25.198ZM30.0409 14.704V11.704C29.0927 11.704 28.2003 12.1523 27.6342 12.913C27.0681 13.6737 26.895 14.6572 27.1672 15.5655L30.0409 14.704ZM32.4609 14.704L35.3556 13.9163C35.0002 12.6103 33.8144 11.704 32.4609 11.704V14.704ZM34.2869 21.414L31.3922 22.2017C31.7462 23.5028 32.9248 24.4078 34.2732 24.414C35.6216 24.4201 36.8084 23.5259 37.1743 22.2282L34.2869 21.414ZM36.1789 14.704V11.704C34.8356 11.704 33.656 12.597 33.2915 13.8898L36.1789 14.704ZM38.5109 14.704L41.3908 13.8636C41.0173 12.5838 39.8441 11.704 38.5109 11.704V14.704ZM40.4689 21.414L37.589 22.2544C37.9662 23.5472 39.1588 24.4302 40.5054 24.4138C41.852 24.3974 43.0227 23.4856 43.3684 22.184L40.4689 21.414ZM42.2509 14.704V11.704C40.8906 11.704 39.7006 12.6193 39.3514 13.934L42.2509 14.704ZM41.7923 13.8591L38.7123 24.3531L44.4695 26.0429L47.5495 15.5489L41.7923 13.8591ZM41.5909 22.198H39.4349V28.198H41.5909V22.198ZM42.3042 24.3223L40.2362 17.5463L34.4975 19.2977L36.5655 26.0737L42.3042 24.3223ZM34.4924 17.5634L32.4684 24.3394L38.2174 26.0566L40.2414 19.2806L34.4924 17.5634ZM35.3429 22.198H33.1869V28.198H35.3429V22.198ZM36.0605 24.3365L32.9145 13.8425L27.1672 15.5655L30.3132 26.0595L36.0605 24.3365ZM30.0409 17.704H32.4609V11.704H30.0409V17.704ZM29.5662 15.4917L31.3922 22.2017L37.1816 20.6263L35.3556 13.9163L29.5662 15.4917ZM37.1743 22.2282L39.0663 15.5182L33.2915 13.8898L31.3995 20.5998L37.1743 22.2282ZM36.1789 17.704H38.5109V11.704H36.1789V17.704ZM35.631 15.5444L37.589 22.2544L43.3488 20.5736L41.3908 13.8636L35.631 15.5444ZM43.3684 22.184L45.1504 15.474L39.3514 13.934L37.5694 20.644L43.3684 22.184ZM42.2509 17.704H44.6709V11.704H42.2509V17.704ZM53.6311 25.198H50.6311C50.6311 26.8549 51.9742 28.198 53.6311 28.198V25.198ZM53.6311 16.706H56.6311C56.6311 15.0491 55.2879 13.706 53.6311 13.706V16.706ZM51.6511 16.706H48.6511C48.6511 18.3629 49.9942 19.706 51.6511 19.706V16.706ZM51.6511 14.682V11.682C49.9942 11.682 48.6511 13.0251 48.6511 14.682H51.6511ZM53.6311 14.682V17.682C55.2879 17.682 56.6311 16.3389 56.6311 14.682H53.6311ZM53.6311 11.008V8.008C51.9742 8.008 50.6311 9.35114 50.6311 11.008H53.6311ZM55.9631 11.008H58.9631C58.9631 9.35114 57.6199 8.008 55.9631 8.008V11.008ZM55.9631 14.682H52.9631C52.9631 16.3389 54.3062 17.682 55.9631 17.682V14.682ZM58.4491 14.682H61.4491C61.4491 13.0251 60.1059 11.682 58.4491 11.682V14.682ZM58.4491 16.706V19.706C60.1059 19.706 61.4491 18.3629 61.4491 16.706H58.4491ZM55.9631 16.706V13.706C54.3062 13.706 52.9631 15.0491 52.9631 16.706H55.9631ZM55.9631 25.198V28.198C57.6199 28.198 58.9631 26.8549 58.9631 25.198H55.9631ZM56.6311 25.198V16.706H50.6311V25.198H56.6311ZM53.6311 13.706H51.6511V19.706H53.6311V13.706ZM54.6511 16.706V14.682H48.6511V16.706H54.6511ZM51.6511 17.682H53.6311V11.682H51.6511V17.682ZM56.6311 14.682V11.008H50.6311V14.682H56.6311ZM53.6311 14.008H55.9631V8.008H53.6311V14.008ZM52.9631 11.008V14.682H58.9631V11.008H52.9631ZM55.9631 17.682H58.4491V11.682H55.9631V17.682ZM55.4491 14.682V16.706H61.4491V14.682H55.4491ZM58.4491 13.706H55.9631V19.706H58.4491V13.706ZM52.9631 16.706V25.198H58.9631V16.706H52.9631ZM55.9631 22.198H53.6311V28.198H55.9631V22.198ZM65.1601 26.284C66.8357 26.284 68.3732 25.5858 69.4402 24.3042C70.4665 23.0714 70.8881 21.514 70.8881 19.984H64.8881C64.8881 20.456 64.7597 20.5486 64.829 20.4653C64.8654 20.4216 64.9301 20.3656 65.018 20.3251C65.105 20.285 65.1627 20.284 65.1601 20.284V26.284ZM70.8881 19.984C70.8881 18.4584 70.4632 16.9067 69.4447 15.6774C68.3864 14.4003 66.8519 13.684 65.1601 13.684V19.684C65.1603 19.684 65.1438 19.6839 65.1142 19.6776C65.0844 19.6712 65.0472 19.6596 65.0064 19.6406C64.9189 19.5998 64.8573 19.5451 64.8245 19.5056C64.763 19.4313 64.8881 19.5296 64.8881 19.984H70.8881ZM65.1601 13.684C63.4845 13.684 61.947 14.3822 60.88 15.6638C59.8537 16.8966 59.4321 18.454 59.4321 19.984H65.4321C65.4321 19.512 65.5605 19.4194 65.4912 19.5027C65.4548 19.5464 65.3901 19.6024 65.3023 19.6429C65.2152 19.683 65.1575 19.684 65.1601 19.684V13.684ZM59.4321 19.984C59.4321 21.4995 59.8406 23.0585 60.8664 24.2977C61.9376 25.5919 63.4822 26.284 65.1601 26.284V20.284C65.1464 20.284 65.2009 20.2828 65.2898 20.3236C65.3801 20.3651 65.4487 20.4239 65.4884 20.4718C65.5626 20.5615 65.4321 20.4705 65.4321 19.984H59.4321ZM63.1001 19.984C63.1001 19.1155 63.3839 18.5586 63.688 18.2395C63.9823 17.9307 64.4462 17.682 65.1601 17.682V11.682C62.904 11.682 60.8379 12.5333 59.3447 14.1C57.8613 15.6564 57.1001 17.7505 57.1001 19.984H63.1001ZM65.1601 17.682C65.874 17.682 66.3379 17.9307 66.6322 18.2395C66.9363 18.5586 67.2201 19.1155 67.2201 19.984H73.2201C73.2201 17.7505 72.4589 15.6564 70.9755 14.1C69.4823 12.5333 67.4162 11.682 65.1601 11.682V17.682ZM67.2201 19.984C67.2201 21.5531 66.331 22.286 65.1601 22.286V28.286C69.9293 28.286 73.2201 24.5749 73.2201 19.984H67.2201ZM65.1601 22.286C63.9893 22.286 63.1001 21.5531 63.1001 19.984H57.1001C57.1001 24.5749 60.391 28.286 65.1601 28.286V22.286ZM80.5783 10.986V7.986C78.9215 7.986 77.5783 9.32915 77.5783 10.986H80.5783ZM80.5783 17.036H77.5783C77.5783 18.6929 78.9215 20.036 80.5783 20.036V17.036ZM78.2463 25.176H75.2463C75.2463 26.8329 76.5895 28.176 78.2463 28.176V25.176ZM78.2463 8.94V5.94C76.5895 5.94 75.2463 7.28315 75.2463 8.94H78.2463ZM80.5783 19.06V16.06C78.9215 16.06 77.5783 17.4031 77.5783 19.06H80.5783ZM80.5783 25.176V28.176C82.2352 28.176 83.5783 26.8329 83.5783 25.176H80.5783ZM84.1643 20.036C85.7792 20.036 87.3196 19.4473 88.458 18.2911C89.593 17.1384 90.1563 15.5976 90.1563 14H84.1563C84.1563 14.0498 84.152 14.085 84.148 14.1071C84.1441 14.1291 84.1401 14.1393 84.1399 14.14C84.1396 14.1405 84.1423 14.1337 84.1498 14.122C84.1574 14.1101 84.1683 14.096 84.1826 14.0814C84.197 14.0669 84.2123 14.0544 84.2271 14.0446C84.2419 14.0348 84.2533 14.0296 84.2588 14.0273C84.2643 14.0251 84.2612 14.0271 84.2472 14.0297C84.233 14.0323 84.206 14.036 84.1643 14.036V20.036ZM90.1563 14C90.1563 10.5831 87.5592 7.986 84.1423 7.986V13.986C84.184 13.986 84.2122 13.9897 84.2283 13.9927C84.2444 13.9957 84.2502 13.9983 84.2479 13.9974C84.2456 13.9965 84.2375 13.9929 84.2257 13.9852C84.2138 13.9774 84.2008 13.9671 84.188 13.9543C84.1752 13.9415 84.1649 13.9285 84.1571 13.9167C84.1494 13.9049 84.1459 13.8967 84.1449 13.8944C84.144 13.8921 84.1467 13.898 84.1496 13.914C84.1526 13.9302 84.1563 13.9583 84.1563 14H90.1563ZM84.1423 7.986H80.5783V13.986H84.1423V7.986ZM77.5783 10.986V17.036H83.5783V10.986H77.5783ZM80.5783 20.036H84.1643V14.036H80.5783V20.036ZM81.2463 25.176V8.94H75.2463V25.176H81.2463ZM78.2463 11.94H84.2303V5.94H78.2463V11.94ZM84.2303 11.94C85.0801 11.94 85.6133 12.2183 85.9176 12.5126C86.215 12.8002 86.4663 13.2672 86.4663 14H92.4663C92.4663 11.7628 91.6397 9.6998 90.0891 8.19993C88.5453 6.70672 86.4606 5.94 84.2303 5.94V11.94ZM86.4663 14C86.4663 14.7328 86.215 15.1998 85.9176 15.4874C85.6133 15.7817 85.0801 16.06 84.2303 16.06V22.06C86.4606 22.06 88.5453 21.2933 90.0891 19.8001C91.6397 18.3002 92.4663 16.2372 92.4663 14H86.4663ZM84.2303 16.06H80.5783V22.06H84.2303V16.06ZM77.5783 19.06V25.176H83.5783V19.06H77.5783ZM80.5783 22.176H78.2463V28.176H80.5783V22.176ZM91.43 9.468V6.468C89.7731 6.468 88.43 7.81115 88.43 9.468H91.43ZM93.762 9.468H96.762C96.762 7.81115 95.4189 6.468 93.762 6.468V9.468ZM93.762 25.176V28.176C95.4189 28.176 96.762 26.8329 96.762 25.176H93.762ZM91.43 25.176H88.43C88.43 26.8329 89.7731 28.176 91.43 28.176V25.176ZM91.43 12.468H93.762V6.468H91.43V12.468ZM90.762 9.468V25.176H96.762V9.468H90.762ZM93.762 22.176H91.43V28.176H93.762V22.176ZM94.43 25.176V9.468H88.43V25.176H94.43ZM103.944 16.2L101.651 18.1355C102.464 19.0978 103.791 19.4501 104.974 19.0175C106.157 18.5849 106.944 17.4595 106.944 16.2H103.944ZM103.944 14.704V11.704C102.287 11.704 100.944 13.0471 100.944 14.704H103.944ZM106.276 14.704H109.276C109.276 13.0471 107.932 11.704 106.276 11.704V14.704ZM106.276 25.198V28.198C107.932 28.198 109.276 26.8549 109.276 25.198H106.276ZM103.944 25.198H100.944C100.944 26.8549 102.287 28.198 103.944 28.198V25.198ZM103.944 23.79H106.944C106.944 22.5131 106.135 21.3762 104.929 20.9566C103.723 20.537 102.384 20.9268 101.591 21.9279L103.944 23.79ZM103.966 20.006L106.965 20.0405C106.966 20.0175 106.966 19.9945 106.965 19.9715L103.966 20.006ZM100.93 22.286C99.8511 22.286 98.9575 21.6031 98.9575 20.006H92.9575C92.9575 24.5689 96.1999 28.286 100.93 28.286V22.286ZM98.9575 20.006C98.9575 18.4089 99.8511 17.726 100.93 17.726V11.726C96.1999 11.726 92.9575 15.4431 92.9575 20.006H98.9575ZM100.93 17.726C101.057 17.726 101.37 17.8025 101.651 18.1355L106.236 14.2645C104.845 12.6175 102.87 11.726 100.93 11.726V17.726ZM106.944 16.2V14.704H100.944V16.2H106.944ZM103.944 17.704H106.276V11.704H103.944V17.704ZM103.276 14.704V25.198H109.276V14.704H103.276ZM106.276 22.198H103.944V28.198H106.276V22.198ZM106.944 25.198V23.79H100.944V25.198H106.944ZM101.591 21.9279C101.467 22.0848 101.346 22.1672 101.244 22.2143C101.136 22.265 101.025 22.286 100.93 22.286V28.286C102.813 28.286 104.85 27.4777 106.296 25.6521L101.591 21.9279ZM95.2895 20.006C95.2895 21.5457 95.7279 23.1077 96.771 24.3383C97.8509 25.6123 99.398 26.306 101.084 26.306V20.306C101.066 20.306 101.109 20.3039 101.183 20.3377C101.258 20.3718 101.315 20.4201 101.348 20.4587C101.412 20.5343 101.29 20.4463 101.29 20.006H95.2895ZM101.084 26.306C104.595 26.306 106.928 23.2494 106.965 20.0405L100.966 19.9715C100.963 20.2434 100.872 20.3573 100.86 20.3709C100.853 20.3793 100.864 20.3632 100.906 20.3436C100.95 20.3229 101.013 20.306 101.084 20.306V26.306ZM106.965 19.9715C106.928 16.7626 104.595 13.706 101.084 13.706V19.706C101.013 19.706 100.95 19.6891 100.906 19.6684C100.864 19.6488 100.853 19.6327 100.86 19.6411C100.872 19.6547 100.963 19.7686 100.966 20.0405L106.965 19.9715ZM101.084 13.706C99.414 13.706 97.864 14.3821 96.7756 15.6601C95.7245 16.8942 95.2895 18.462 95.2895 20.006H101.29C101.29 19.548 101.416 19.4658 101.343 19.5504C101.307 19.5932 101.247 19.6425 101.172 19.6764C101.098 19.7095 101.058 19.706 101.084 19.706V13.706ZM112.774 29.752V32.752C113.983 32.752 115.073 32.027 115.541 30.9128L112.774 29.752ZM110.222 29.752L107.458 28.5878C107.068 29.5141 107.167 30.5742 107.723 31.4114C108.279 32.2487 109.217 32.752 110.222 32.752V29.752ZM112.51 24.318L115.275 25.4822C115.595 24.7229 115.588 23.8655 115.257 23.1113L112.51 24.318ZM108.286 14.704V11.704C107.273 11.704 106.328 12.2155 105.774 13.0639C105.221 13.9123 105.132 14.9831 105.54 15.9107L108.286 14.704ZM110.86 14.704L113.632 13.5551C113.167 12.4345 112.074 11.704 110.86 11.704V14.704ZM113.742 21.656L110.971 22.8049C111.439 23.9323 112.542 24.6642 113.763 24.6559C114.983 24.6476 116.077 23.9008 116.529 22.7671L113.742 21.656ZM116.514 14.704V11.704C115.287 11.704 114.183 12.4523 113.728 13.5929L116.514 14.704ZM119.044 14.704L121.815 15.8537C122.2 14.928 122.096 13.8716 121.539 13.038C120.983 12.2045 120.047 11.704 119.044 11.704V14.704ZM115.128 24.142L117.895 25.3028L117.899 25.2917L115.128 24.142ZM112.774 26.752H110.222V32.752H112.774V26.752ZM112.987 30.9162L115.275 25.4822L109.746 23.1538L107.458 28.5878L112.987 30.9162ZM115.257 23.1113L111.033 13.4973L105.54 15.9107L109.764 25.5247L115.257 23.1113ZM108.286 17.704H110.86V11.704H108.286V17.704ZM108.089 15.8529L110.971 22.8049L116.514 20.5071L113.632 13.5551L108.089 15.8529ZM116.529 22.7671L119.301 15.8151L113.728 13.5929L110.956 20.5449L116.529 22.7671ZM116.514 17.704H119.044V11.704H116.514V17.704ZM116.274 13.5543L112.358 22.9923L117.899 25.2917L121.815 15.8537L116.274 13.5543ZM112.362 22.9812L110.008 28.5912L115.541 30.9128L117.895 25.3028L112.362 22.9812Z" fill="#FFF0CC" mask="url(#path-1-outside-1_1960_5607)"/>
<path d="M149.594 12.8436C149.287 12.7561 149.025 12.7124 148.719 12.7561C148.019 12.8436 147.319 13.1936 146.619 13.2811C146.137 13.3249 145.7 12.9749 145.656 12.4499C145.525 10.8311 145.525 9.21238 145.656 7.59363C145.656 7.37488 145.481 7.19988 145.262 7.19988C143.425 7.15613 141.631 7.33113 139.794 7.76863C139.312 7.89988 138.919 8.29363 138.962 8.77488C139.05 9.78113 139.706 10.8311 139.4 11.8811C139.137 12.7999 138.394 13.4561 137.475 13.6311C136.556 13.8061 135.594 13.3686 135.069 12.6249C134.456 11.7499 134.762 10.5249 134.5 9.51863C134.369 9.03738 133.887 8.77488 133.406 8.81863C131.569 8.99363 129.775 9.43113 128.069 10.0874C127.85 10.1749 127.719 10.3936 127.85 10.5686C128.506 12.0561 129.031 13.5874 129.425 15.1624C129.556 15.6436 129.25 16.1249 128.769 16.2561C128.069 16.4311 127.281 16.2999 126.625 16.4749C126.319 16.5186 126.056 16.6499 125.837 16.8249C125.006 17.3499 124.612 18.3124 124.744 19.1874C124.875 20.0624 125.531 20.8061 126.362 21.1124C127.412 21.4624 128.331 20.8061 129.381 20.7186C129.862 20.6749 130.3 21.0249 130.344 21.5499C130.475 23.1686 130.475 24.7874 130.344 26.4061C130.344 26.6249 130.519 26.7999 130.737 26.7999C132.575 26.9311 134.412 26.6686 136.206 26.2311C136.687 26.0999 137.081 25.7061 137.037 25.2249C136.95 24.1749 136.25 23.1249 136.556 22.0749C136.819 21.1999 137.65 20.4999 138.525 20.3686C139.4 20.2374 140.406 20.6311 140.931 21.3749C141.587 22.2499 141.237 23.5186 141.5 24.5249C141.631 25.0061 142.112 25.2686 142.594 25.2249C144.431 25.0499 146.269 24.6999 147.931 23.9561C148.15 23.8686 148.281 23.6499 148.15 23.4749C147.494 21.9874 146.969 20.4561 146.575 18.8811C146.444 18.3999 146.75 17.9186 147.231 17.7874C148.237 17.5686 149.287 17.8749 150.206 17.1749C150.906 16.6499 151.3 15.7311 151.125 14.8561C151.125 13.8936 150.425 13.1061 149.594 12.8436Z" fill="#F55320"/>
</svg>
