<svg width="14" height="26" viewBox="0 0 14 26" fill="none" xmlns="http://www.w3.org/2000/svg">
<g clip-path="url(#clip0_378_745)">
<path d="M7.12668 25.1392C4.70807 25.1392 2.41871 23.6437 1.5325 21.2436C-1.92001 11.8646 1.42173 4.86726 1.82791 4.11029C3.34184 1.17473 6.92359 0.0115858 9.85915 1.52552C12.7393 3.00253 13.9025 6.52889 12.4808 9.42752C12.3701 9.70446 11.1146 12.7693 12.7209 17.1264C13.8471 20.2097 12.2778 23.6253 9.19449 24.77C8.51138 25.0284 7.82826 25.1392 7.14514 25.1392" fill="#49C0B6"/>
<mask id="mask0_378_745" style="mask-type:alpha" maskUnits="userSpaceOnUse" x="-1" y="0" width="15" height="26">
<path d="M7.12668 25.1392C4.70807 25.1392 2.41871 23.6437 1.5325 21.2436C-1.92001 11.8646 1.42173 4.86726 1.82791 4.11029C3.34184 1.17473 6.92359 0.0115858 9.85915 1.52552C12.7393 3.00253 13.9025 6.52889 12.4808 9.42752C12.3701 9.70446 11.1146 12.7693 12.7209 17.1264C13.8471 20.2097 12.2778 23.6253 9.19449 24.77C8.51138 25.0284 7.82826 25.1392 7.14514 25.1392" fill="#49C0B6"/>
</mask>
<g mask="url(#mask0_378_745)">
<path d="M17.0785 4.25803L-1.8457 12.6954L3.39768 -0.985352L17.0785 4.25803Z" fill="#007067"/>
</g>
</g>
<defs>
<clipPath id="clip0_378_745">
<rect width="13.09" height="24.2783" fill="white" transform="translate(0 0.86084)"/>
</clipPath>
</defs>
</svg>
