<svg width="81" height="40" viewBox="0 0 81 40" fill="none" xmlns="http://www.w3.org/2000/svg">
<rect y="6" width="18" height="34" rx="9" fill="#FFB400"/>
<path d="M5.248 16.904H6.944V18.648C6.944 20.216 7.824 21.768 9.68 22.504L8.752 23.832C7.504 23.336 6.624 22.44 6.128 21.32C5.6 22.6 4.688 23.688 3.328 24.264L2.4 22.904C4.336 22.056 5.248 20.264 5.248 18.648V16.904ZM4.992 27.656C4.992 26.024 6.864 25.032 9.824 25.032C12.8 25.032 14.672 26.024 14.672 27.656C14.672 29.304 12.8 30.28 9.824 30.28C6.864 30.28 4.992 29.304 4.992 27.656ZM6.736 27.656C6.736 28.488 7.872 28.952 9.824 28.952C11.792 28.952 12.912 28.488 12.912 27.656C12.912 26.824 11.792 26.376 9.824 26.376C7.872 26.376 6.736 26.824 6.736 27.656ZM9.904 24.344V16.328H11.552V19.656H12.928V16.056H14.608V24.792H12.928V21.08H11.552V24.344H9.904Z" fill="white"/>
<rect x="21" y="2" width="18" height="34" rx="9" fill="#FFB400"/>
<path d="M32.92 12.04H34.68V15.464H36.664V16.92H34.68V20.344H32.92V12.04ZM23.416 18.92C26.712 18.088 28.584 16.376 28.872 14.296H24.104V12.888H30.744C30.744 16.6 28.328 19.176 24.136 20.296L23.416 18.92ZM25.288 22.36V20.968H34.68V26.296H32.92V22.36H25.288Z" fill="white"/>
<rect x="42" y="5" width="18" height="34" rx="9" fill="#1860CC"/>
<path d="M44.528 22.656H50.08V21.456H46.176V15.408H55.888V16.752H47.92V17.744H55.552V19.04H47.92V20.112H55.984V21.456H51.84V22.656H57.392V24.048H44.528V22.656ZM45.968 26.448V25.056H55.792V29.296H54.032V26.448H45.968Z" fill="white"/>
<rect x="63" width="18" height="34" rx="9" fill="#124899"/>
<path d="M65.528 17.656H71.08V16.456H67.176V10.408H76.888V11.752H68.92V12.744H76.552V14.04H68.92V15.112H76.984V16.456H72.84V17.656H78.392V19.048H65.528V17.656ZM66.968 21.448V20.056H76.792V24.296H75.032V21.448H66.968Z" fill="white"/>
</svg>
