<svg width="109" height="44" viewBox="0 0 109 44" fill="none" xmlns="http://www.w3.org/2000/svg">
<rect x="0.5" y="0.5" width="108" height="43" rx="11.5" fill="#2D8712"/>
<rect x="0.5" y="0.5" width="108" height="43" rx="11.5" stroke="#ADE29C"/>
<path d="M27.77 16.646H30.564V12.18H32.984V24.742H30.564V22.454H27.726V20.518H30.564V18.56H27.77V16.646ZM16.77 16.008V14.116H21.082V12.026H23.524V14.116H27.616V16.008H16.77ZM17.76 20.452C17.76 18.296 19.63 16.822 22.27 16.822C24.954 16.822 26.802 18.296 26.802 20.452C26.802 22.652 24.954 24.126 22.27 24.126C19.63 24.126 17.76 22.652 17.76 20.452ZM19.828 28.35C19.828 26.216 22.358 24.962 26.45 24.962C30.542 24.962 33.094 26.216 33.094 28.35C33.094 30.506 30.542 31.76 26.45 31.76C22.358 31.76 19.828 30.506 19.828 28.35ZM20.026 20.452C20.026 21.618 20.928 22.3 22.27 22.3C23.634 22.3 24.558 21.618 24.558 20.452C24.558 19.308 23.634 18.648 22.27 18.648C20.928 18.648 20.026 19.308 20.026 20.452ZM22.358 28.35C22.358 29.384 23.854 29.912 26.45 29.912C29.046 29.912 30.542 29.384 30.542 28.35C30.542 27.316 29.046 26.81 26.45 26.81C23.854 26.81 22.358 27.316 22.358 28.35ZM40.6625 13.258H43.0825V14.996C43.0825 17.658 44.6005 20.1 47.6145 21.068L46.3385 22.96C44.2485 22.234 42.7745 20.804 41.9385 18.978C41.0805 21.09 39.4525 22.74 37.0985 23.554L35.8445 21.596C39.0345 20.54 40.6625 17.922 40.6625 15.084V13.258ZM39.0125 27.998C39.0125 25.622 41.5645 24.236 45.6785 24.236C49.7705 24.236 52.3005 25.622 52.3005 27.998C52.3005 30.396 49.7705 31.76 45.6785 31.76C41.5645 31.76 39.0125 30.396 39.0125 27.998ZM41.4545 27.998C41.4545 29.23 42.9505 29.89 45.6785 29.89C48.3625 29.89 49.9025 29.23 49.9025 27.998C49.9025 26.766 48.3625 26.106 45.6785 26.106C42.9505 26.106 41.4545 26.766 41.4545 27.998ZM45.9645 17.966V15.964H49.7925V12.202H52.2125V23.708H49.7925V17.966H45.9645ZM66.403 15.48H69.021V12.202H71.441V24.214H69.021V21.024H66.425L66.557 22.652C62.861 23.268 58.571 23.312 55.447 23.312L55.205 21.332H57.383V15.502H55.711V13.544H66.029V15.502H64.313V21.068C65.039 21.024 65.743 20.958 66.403 20.87V19.066H69.021V17.394H66.403V15.48ZM58.263 28.152C58.263 25.864 60.771 24.544 64.907 24.544C69.021 24.544 71.529 25.864 71.529 28.152C71.529 30.44 69.021 31.76 64.907 31.76C60.771 31.76 58.263 30.44 58.263 28.152ZM59.737 21.288C60.485 21.266 61.255 21.244 62.003 21.2V15.502H59.737V21.288ZM60.661 28.152C60.661 29.296 62.157 29.934 64.907 29.934C67.613 29.934 69.131 29.296 69.131 28.152C69.131 27.008 67.613 26.392 64.907 26.392C62.157 26.392 60.661 27.008 60.661 28.152ZM87.2155 12.158H89.6575V19.836H92.5395V21.838H89.6575V31.76H87.2155V12.158ZM74.3455 26.414C79.0755 23.994 81.6055 20.65 82.0675 16.184H75.3795V14.226H84.5095C84.5095 19.99 82.1555 25.006 75.7095 28.24L74.3455 26.414Z" fill="white"/>
</svg>
