<svg width="34" height="34" viewBox="0 0 34 34" fill="none" xmlns="http://www.w3.org/2000/svg">
<path d="M26.1924 23.6274L17 33L7.80756 23.6274C5.98949 21.7736 4.75138 19.4118 4.24979 16.8407C3.74819 14.2695 4.00564 11.6044 4.98959 9.18239C5.97353 6.7604 7.63977 4.69028 9.77761 3.23383C11.9154 1.77738 14.4289 1 17 1C19.5711 1 22.0846 1.77738 24.2224 3.23383C26.3602 4.69028 28.0265 6.7604 29.0104 9.18239C29.9944 11.6044 30.2518 14.2695 29.7502 16.8407C29.2486 19.4118 28.0105 21.7736 26.1924 23.6274Z" fill="#C74FFF"/>
<path d="M18.9798 22.03H16.8498V12.31L14.1948 13.495V11.515L17.1648 10.165H18.9798V22.03Z" fill="white"/>
</svg>
