<svg width="117" height="44" viewBox="0 0 117 44" fill="none" xmlns="http://www.w3.org/2000/svg">
<g clip-path="url(#clip0_4959_13879)">
<path d="M13.8385 41.3961C24.6508 45.327 36.5137 39.5198 40.3357 28.4232C44.1659 17.3267 38.5074 5.15186 27.6951 1.22944C16.8828 -2.70148 5.01989 3.10575 1.19794 14.2023C-2.63228 25.2904 3.02619 37.4652 13.8385 41.3961Z" fill="#7D4845"/>
<path d="M20.8628 35.6908C20.292 36.7775 18.836 37.2105 17.5041 36.8369C16.1805 36.4634 15.4773 35.4615 16.0647 34.3493C16.7596 33.0249 18.4058 32.2438 19.7294 32.6173C21.053 32.9909 21.5659 34.3663 20.8628 35.6908Z" fill="white"/>
<path d="M20.8628 35.6908C20.292 36.7775 18.836 37.2105 17.5041 36.8369C16.1805 36.4634 15.4773 35.4615 16.0647 34.3493C16.7596 33.0249 18.4058 32.2438 19.7294 32.6173C21.053 32.9909 21.5659 34.3663 20.8628 35.6908Z" stroke="#231815" stroke-width="0.4" stroke-miterlimit="10"/>
<path d="M20.2598 35.92C20.0198 36.5568 19.3911 36.9049 18.8534 36.6926C18.3157 36.4804 18.0758 35.7927 18.3157 35.1559C18.5556 34.5192 19.1843 34.1711 19.722 34.3833C20.2598 34.5956 20.4997 35.2833 20.2598 35.92Z" fill="#231815"/>
<path d="M26.5229 36.3019C25.9521 37.3886 24.4961 37.8216 23.1642 37.4481C21.8406 37.0745 21.1375 36.0642 21.7248 34.952C22.4197 33.619 24.066 32.8464 25.3896 33.22C26.7132 33.5936 27.2261 34.969 26.5229 36.3019Z" fill="white"/>
<path d="M26.5229 36.3019C25.9521 37.3886 24.4961 37.8216 23.1642 37.4481C21.8406 37.0745 21.1375 36.0642 21.7248 34.952C22.4197 33.619 24.066 32.8464 25.3896 33.22C26.7132 33.5936 27.2261 34.969 26.5229 36.3019Z" stroke="#231815" stroke-width="0.4" stroke-miterlimit="10"/>
<path d="M25.9316 36.5228C25.6917 37.1596 25.063 37.5077 24.5253 37.2954C23.9876 37.0832 23.7477 36.3955 23.9876 35.7587C24.2275 35.122 24.8562 34.7739 25.3939 34.9861C25.9316 35.1984 26.1715 35.8861 25.9316 36.5228Z" fill="#231815"/>
<path d="M22.9715 38.2717C23.079 38.3056 23.1865 38.3481 23.2858 38.399C23.5175 38.5094 23.6829 38.6877 23.7574 38.9084C23.8153 39.0867 23.807 39.248 23.7904 39.3924C23.7325 39.8933 23.5423 40.3942 23.1948 40.9036C22.26 42.3129 20.5476 43.51 18.9923 42.8223C18.3388 42.5337 17.7763 41.9309 17.3792 41.0819C16.9738 40.2159 16.6677 38.5858 17.5777 37.8981C17.9086 37.6519 18.3057 37.6264 18.678 37.6519C19.4473 37.6943 20.225 37.7707 20.986 37.8896L21.3831 37.949C21.8877 38.017 22.4586 38.0934 22.9549 38.2717H22.9715Z" fill="#231815"/>
<mask id="mask0_4959_13879" style="mask-type:luminance" maskUnits="userSpaceOnUse" x="17" y="38" width="7" height="5">
<path d="M17.8219 38.2463C17.1104 38.7812 17.433 40.2415 17.7474 40.9037C18.0535 41.549 18.5085 42.1518 19.1537 42.4404C20.5601 43.0602 22.0905 41.8037 22.8516 40.6745C23.1163 40.2755 23.3231 39.834 23.3728 39.35C23.381 39.2566 23.3893 39.1548 23.3562 39.0614C23.3149 38.9425 23.2156 38.8491 23.0998 38.7982C23.0088 38.7557 22.9178 38.7218 22.8268 38.6878C22.2312 38.4756 21.5197 38.4161 20.9241 38.3227C20.1713 38.2039 19.4185 38.1275 18.6574 38.0935C18.5995 38.0935 18.5333 38.0935 18.4754 38.0935C18.2438 38.0935 18.0038 38.1275 17.8219 38.2633" fill="white"/>
</mask>
<g mask="url(#mask0_4959_13879)">
<path d="M15.74 41.0735H15.7896C16.6086 40.5811 17.5269 40.1991 18.4782 40.2415C19.4296 40.284 20.3975 40.8018 20.8028 41.6848C20.96 42.0159 21.0179 42.4319 20.8359 42.7461C20.6126 43.1281 20.1162 43.23 19.686 43.264C19.016 43.3234 18.3376 43.3064 17.6841 43.1366C17.0305 42.9583 16.4184 42.6102 16.0047 42.0669C15.7814 41.7782 15.6986 41.4386 15.7483 41.0735" fill="#EB6168"/>
<path d="M17.0059 38.3482C19.2395 39.2566 20.6624 39.7066 23.0201 39.2396L23.1855 38.102L17.4029 37.4822L17.0059 38.3482Z" fill="white"/>
</g>
<path d="M22.9715 38.2717C23.079 38.3056 23.1865 38.3481 23.2858 38.399C23.5175 38.5094 23.6829 38.6877 23.7574 38.9084C23.8153 39.0867 23.807 39.248 23.7904 39.3924C23.7325 39.8933 23.5423 40.3942 23.1948 40.9036C22.26 42.3129 20.5476 43.51 18.9923 42.8223C18.3388 42.5337 17.7763 41.9309 17.3792 41.0819C16.9738 40.2159 16.6677 38.5858 17.5777 37.8981C17.9086 37.6519 18.3057 37.6264 18.678 37.6519C19.4473 37.6943 20.225 37.7707 20.986 37.8896L21.3831 37.949C21.8877 38.017 22.4586 38.0934 22.9549 38.2717H22.9715Z" stroke="#7D4845" stroke-miterlimit="10"/>
<path d="M16.4375 32.9994C16.4375 32.9994 18.3402 33.3135 20.4001 32.3457C20.4001 32.3457 19.5563 30.6137 18.1499 30.8005C16.7436 30.9957 16.4375 32.4645 16.4375 32.9909" fill="#7D4845"/>
<path d="M16.6035 33.0502C16.6035 33.0502 19.1846 33.1266 20.1938 32.354" stroke="#231815" stroke-width="0.4" stroke-miterlimit="10" stroke-linecap="round"/>
<path d="M21.9707 33.7804C21.9707 33.7804 23.8734 34.0945 25.9333 33.1267C25.9333 33.1267 25.0895 31.3947 23.6831 31.5815C22.2768 31.7767 21.9707 33.2455 21.9707 33.7719" fill="#7D4845"/>
<path d="M22.3184 33.755C22.3184 33.755 24.8994 33.8314 25.9087 33.0588" stroke="#231815" stroke-width="0.4" stroke-miterlimit="10" stroke-linecap="round"/>
<path d="M18 4C18 1.79086 19.7909 0 22 0H99C108.941 0 117 8.05888 117 18C117 27.9411 108.941 36 99 36H37C26.5066 36 18 27.4934 18 17V4Z" fill="#7D4845"/>
<path d="M28.354 9.082H42.852V11.018H37.264C37.506 12.866 39.816 14.626 43.556 15.044L42.654 16.98C39.178 16.54 36.626 14.978 35.592 12.888C34.558 14.978 32.006 16.54 28.53 16.98L27.628 15.044C31.368 14.626 33.678 12.844 33.92 11.018H28.354V9.082ZM26.726 20.016V18.08H44.458V20.016H37V23.58H34.58V20.016H26.726ZM28.86 27.408V21.798H31.28V25.472H42.5V27.408H28.86ZM59.7045 8.158H62.1245V27.804H59.7045V8.158ZM46.9885 23.162V9.786H49.3865V14.692H54.0725V9.786H56.4485V23.162H46.9885ZM49.3865 21.226H54.0725V16.584H49.3865V21.226ZM65.227 10.028H69.781V8.07H72.201V10.028H76.755V11.964H65.227V10.028ZM66.239 16.32C66.239 14.164 68.175 12.712 70.991 12.712C73.807 12.712 75.765 14.164 75.765 16.32C75.765 18.454 73.807 19.884 70.991 19.884C68.175 19.884 66.239 18.454 66.239 16.32ZM67.603 23.294V21.358H80.517V27.782H78.097V23.294H67.603ZM68.549 16.32C68.549 17.398 69.539 18.058 70.991 18.058C72.443 18.058 73.433 17.398 73.433 16.32C73.433 15.198 72.443 14.56 70.991 14.56C69.539 14.56 68.549 15.198 68.549 16.32ZM78.097 20.456V8.202H80.517V13.372H83.245V15.352H80.517V20.456H78.097ZM86.5675 19.906H88.9435V21.798H97.4575V19.906H99.8555V27.54H86.5675V19.906ZM84.4335 18.806V16.892H102.122V18.806H84.4335ZM85.3575 13.922C89.4275 13.416 92.0235 11.282 92.0235 9.104V8.4H94.5095V9.104C94.5095 11.238 97.1495 13.438 101.198 13.922L100.34 15.814C97.1055 15.374 94.5315 13.922 93.2775 11.942C92.0455 13.944 89.4715 15.374 86.2155 15.814L85.3575 13.922ZM88.9435 25.626H97.4575V23.646H88.9435V25.626Z" fill="white"/>
</g>
<defs>
<clipPath id="clip0_4959_13879">
<rect width="117" height="44" fill="white"/>
</clipPath>
</defs>
</svg>
