<svg width="34" height="34" viewBox="0 0 34 34" fill="none" xmlns="http://www.w3.org/2000/svg">
<path d="M17 2.375C14.1075 2.375 11.2799 3.23274 8.87479 4.83976C6.46972 6.44677 4.5952 8.73089 3.48827 11.4033C2.38134 14.0756 2.09171 17.0162 2.65602 19.8532C3.22033 22.6902 4.61323 25.2961 6.65857 27.3414C8.70391 29.3868 11.3098 30.7797 14.1468 31.344C16.9838 31.9083 19.9244 31.6187 22.5968 30.5117C25.2691 29.4048 27.5532 27.5303 29.1602 25.1252C30.7673 22.7201 31.625 19.8926 31.625 17C31.6202 13.1227 30.0778 9.40558 27.3361 6.66391C24.5944 3.92223 20.8773 2.37984 17 2.375ZM22.1244 17.9366L15.3744 22.4366C15.1892 22.5593 14.9721 22.6248 14.75 22.625C14.4516 22.625 14.1655 22.5065 13.9545 22.2955C13.7435 22.0845 13.625 21.7984 13.625 21.5V12.5C13.6249 12.2963 13.6801 12.0963 13.7847 11.9215C13.8893 11.7467 14.0394 11.6036 14.219 11.5075C14.3986 11.4113 14.601 11.3657 14.8044 11.3756C15.0079 11.3854 15.2049 11.4504 15.3744 11.5634L22.1244 16.0634C22.2787 16.1661 22.4052 16.3054 22.4928 16.4688C22.5803 16.6321 22.6261 16.8146 22.6261 17C22.6261 17.1854 22.5803 17.3679 22.4928 17.5312C22.4052 17.6946 22.2787 17.8339 22.1244 17.9366Z" fill="#D44B5B"/>
</svg>
