<svg width="77" height="32" viewBox="0 0 77 32" fill="none" xmlns="http://www.w3.org/2000/svg">
<path d="M0 16C0 7.16344 7.16344 0 16 0H61C69.8366 0 77 7.16344 77 16C77 24.8366 69.8366 32 61 32H16C7.16345 32 0 24.8366 0 16Z" fill="#385CAA"/>
<path d="M21.66 7.98V15.74H13.3V7.98H21.66ZM14.32 22.88C15.84 22.68 17.0867 22.2667 18.06 21.64C19.0333 21.0133 19.6067 20.3 19.78 19.5H15.06V17.76H26.88V19.5H22.2C22.32 20.0067 22.6133 20.4933 23.08 20.96C23.5467 21.4267 24.1667 21.8333 24.94 22.18C25.7267 22.5133 26.6133 22.7533 27.6 22.9L26.82 24.58C25.46 24.38 24.2733 24 23.26 23.44C22.26 22.88 21.5 22.1933 20.98 21.38C20.4733 22.1933 19.7133 22.8733 18.7 23.42C17.6867 23.98 16.4933 24.36 15.12 24.56L14.32 22.88ZM19.5 14V9.74H15.46V14H19.5ZM24.42 6.82H26.62V10.82H29.08V12.64H26.62V16.84H24.42V6.82ZM46.2405 15.44V17.18H39.3005V18.78H44.3005V24.4H32.0605V18.78H37.0805V17.18H30.1605V15.44H46.2405ZM30.9205 13C32.7205 12.88 34.1405 12.56 35.1805 12.04C36.2205 11.52 36.8138 10.88 36.9605 10.12H31.7405V8.4H37.0805V6.78H39.3005V8.4H44.6605V10.12H39.4205C39.5671 10.88 40.1605 11.52 41.2005 12.04C42.2405 12.56 43.6538 12.88 45.4405 13L44.8205 14.64C43.2338 14.52 41.8671 14.2333 40.7205 13.78C39.5871 13.3133 38.7405 12.7067 38.1805 11.96C37.6338 12.7067 36.7938 13.3133 35.6605 13.78C34.5271 14.2333 33.1671 14.52 31.5805 14.64L30.9205 13ZM42.1405 22.66V20.5H34.2205V22.66H42.1405ZM60.2009 10.86V6.8H62.4009V18.22H60.2009V16.14H57.6209V14.38H60.2009V12.6H57.6609V10.86H60.2009ZM47.6609 8.56H51.5809V6.66H53.8009V8.56H57.5209V10.28H47.6609V8.56ZM48.5609 14.32C48.5609 13.68 48.7343 13.1133 49.0809 12.62C49.4276 12.1133 49.9143 11.72 50.5409 11.44C51.1676 11.16 51.8743 11.02 52.6609 11.02C53.4609 11.02 54.1743 11.16 54.8009 11.44C55.4276 11.72 55.9143 12.1133 56.2609 12.62C56.6076 13.1133 56.7809 13.68 56.7809 14.32C56.7809 14.9733 56.6076 15.5533 56.2609 16.06C55.9143 16.5667 55.4276 16.96 54.8009 17.24C54.1743 17.52 53.4609 17.66 52.6609 17.66C51.8609 17.66 51.1476 17.52 50.5209 17.24C49.9076 16.96 49.4276 16.5667 49.0809 16.06C48.7343 15.5533 48.5609 14.9733 48.5609 14.32ZM50.4409 21.5C50.4409 20.54 50.9743 19.7867 52.0409 19.24C53.1209 18.6933 54.5943 18.42 56.4609 18.42C58.3276 18.42 59.8009 18.6933 60.8809 19.24C61.9609 19.7867 62.5009 20.54 62.5009 21.5C62.5009 22.4733 61.9609 23.2333 60.8809 23.78C59.8009 24.3267 58.3276 24.6 56.4609 24.6C54.5943 24.6 53.1209 24.3267 52.0409 23.78C50.9743 23.2333 50.4409 22.4733 50.4409 21.5ZM50.6209 14.32C50.6209 14.84 50.8076 15.2533 51.1809 15.56C51.5543 15.8533 52.0476 16 52.6609 16C53.2876 16 53.7876 15.8533 54.1609 15.56C54.5476 15.2533 54.7409 14.84 54.7409 14.32C54.7409 13.8133 54.5476 13.4133 54.1609 13.12C53.7876 12.8267 53.2876 12.68 52.6609 12.68C52.0476 12.68 51.5543 12.8267 51.1809 13.12C50.8076 13.4133 50.6209 13.8133 50.6209 14.32ZM52.7409 21.5C52.7409 21.9667 53.0609 22.32 53.7009 22.56C54.3543 22.8 55.2743 22.92 56.4609 22.92C57.6476 22.92 58.5609 22.8 59.2009 22.56C59.8543 22.32 60.1809 21.9667 60.1809 21.5C60.1809 21.0333 59.8609 20.6867 59.2209 20.46C58.5809 20.22 57.6609 20.1 56.4609 20.1C55.2609 20.1 54.3409 20.22 53.7009 20.46C53.0609 20.6867 52.7409 21.0333 52.7409 21.5Z" fill="white"/>
</svg>
