<svg width="20" height="20" viewBox="0 0 20 20" fill="none" xmlns="http://www.w3.org/2000/svg">
<g clip-path="url(#clip0_1359_702)">
<path d="M20 9.99265C20 15.518 15.518 19.9853 10.0073 19.9853C4.49669 19.9853 0 15.518 0 9.99265C0 4.4673 4.482 0 9.99265 0C15.5033 0 19.9853 4.482 19.9853 9.99265" fill="#9CA1C9"/>
<path d="M14.5776 9.99289L14.9597 10.6689L18.1926 8.87606L17.8105 8.20009L14.5776 9.99289ZM14.6511 11.6975C14.5335 11.6681 14.4453 11.5947 14.3866 11.4918L13.5783 10.037C13.4608 9.83124 13.5342 9.55204 13.7547 9.43448L17.7664 7.21552C17.8693 7.15674 17.9868 7.14204 18.1044 7.17143C18.222 7.20082 18.3101 7.2743 18.3689 7.37716L19.1771 8.83198C19.2947 9.0524 19.2212 9.31692 19.0008 9.43448L14.989 11.6534C14.8862 11.7122 14.7686 11.7269 14.6511 11.6975Z" fill="white"/>
<path d="M13.8133 10.4482C13.8133 10.4482 13.7252 10.551 13.6958 10.6098L13.4607 11.0654L13.975 11.1095C13.975 11.1095 14.1072 11.1095 14.1807 11.0948L13.828 10.4629L13.8133 10.4482ZM12.6377 11.8736C12.5202 11.8442 12.432 11.7707 12.3732 11.6679C12.2997 11.5356 12.2997 11.3887 12.3732 11.2564L12.9169 10.2131C13.0492 9.94855 13.2549 9.74282 13.5194 9.59587L13.7693 9.44892C13.8721 9.39014 13.9897 9.37544 14.1072 9.40483C14.2248 9.43422 14.313 9.5077 14.3718 9.61056L15.18 11.0654C15.2975 11.2711 15.2241 11.5503 15.0036 11.6679L14.7538 11.8148C14.504 11.9618 14.2101 12.0206 13.9162 11.9912L12.7406 11.903C12.7112 11.903 12.6818 11.903 12.6524 11.8883" fill="white"/>
<path d="M8.64066 16.973V15.3271H10.9625V16.973C10.2865 17.4285 9.31663 17.4285 8.64066 16.973ZM14.1807 7.78854C13.8868 6.86275 13.3284 6.06921 12.5495 5.48141C11.756 4.8936 10.8155 4.57031 9.81626 4.57031C7.28871 4.57031 5.24609 6.62762 5.24609 9.14048C5.24609 10.5953 5.80451 11.3447 6.28944 12.006C6.74499 12.6232 7.17115 13.1963 7.25932 14.3719C7.27401 14.6217 7.39158 14.8716 7.58261 15.0479C7.64139 15.092 7.70017 15.1361 7.75895 15.1802V17.2081C7.75895 17.355 7.83243 17.4873 7.94999 17.5755L8.12633 17.693C8.59657 18.0163 9.19907 18.1927 9.80157 18.1927C10.4041 18.1927 11.0066 18.0163 11.4768 17.693L11.6531 17.5755C11.7707 17.4873 11.8442 17.355 11.8442 17.2081V15.1949C11.8442 15.1949 11.9764 15.1067 12.0352 15.0479C12.2263 14.8716 12.3438 14.6364 12.3585 14.3719C12.3879 14.0046 12.4467 13.6666 12.5495 13.3727C12.623 13.1375 12.5055 12.8877 12.2703 12.8143C12.0352 12.7408 11.7854 12.8583 11.7119 13.0935C11.5944 13.4608 11.5062 13.8576 11.4768 14.3131C11.4768 14.3425 11.4621 14.3719 11.4327 14.4013C11.4033 14.4307 11.3739 14.4307 11.3446 14.4307H8.27328C8.27328 14.4307 8.2145 14.4307 8.18511 14.4013C8.15572 14.3719 8.14102 14.3425 8.14102 14.3131C8.02346 12.873 7.47975 12.1383 6.99481 11.4917C6.55396 10.8892 6.1278 10.3161 6.1278 9.15518C6.1278 7.12726 7.78834 5.46671 9.81626 5.46671C10.6245 5.46671 11.3886 5.71653 12.0205 6.20147C12.6524 6.67171 13.108 7.31829 13.3431 8.05305C13.4166 8.28817 13.6664 8.42042 13.9015 8.34695C14.1366 8.27347 14.2689 8.02366 14.1954 7.78854" fill="white"/>
<path d="M9.80169 3.98261C9.55188 3.98261 9.36084 3.79157 9.36084 3.54175V2.05755C9.36084 1.80774 9.55188 1.6167 9.80169 1.6167C10.0515 1.6167 10.2425 1.80774 10.2425 2.05755V3.54175C10.2425 3.79157 10.0515 3.98261 9.80169 3.98261Z" fill="white"/>
<path d="M4.24683 10.3895H2.76263C2.51281 10.3895 2.32178 10.1985 2.32178 9.94867C2.32178 9.69885 2.51281 9.50781 2.76263 9.50781H4.24683C4.49665 9.50781 4.68768 9.71354 4.68768 9.94867C4.68768 10.1838 4.49665 10.3895 4.24683 10.3895Z" fill="white"/>
<path d="M4.79071 15.4005C4.67315 15.4005 4.57028 15.3564 4.48211 15.2682C4.30577 15.0919 4.30577 14.8127 4.48211 14.6363L5.76058 13.3578C5.93692 13.1815 6.21613 13.1815 6.39247 13.3578C6.56881 13.5342 6.56881 13.8134 6.39247 13.9897L5.114 15.2682C5.02583 15.3564 4.90827 15.4005 4.8054 15.4005" fill="white"/>
<path d="M14.1513 6.03985C14.0337 6.03985 13.9309 5.99576 13.8427 5.90759C13.6664 5.73125 13.6664 5.45204 13.8427 5.2757L14.8861 4.23235C15.0624 4.05601 15.3416 4.05601 15.5179 4.23235C15.6943 4.40869 15.6943 4.6879 15.5179 4.86424L14.4599 5.90759C14.3717 5.99576 14.2542 6.03985 14.1513 6.03985Z" fill="white"/>
<path d="M14.8274 15.4004C14.7099 15.4004 14.607 15.3563 14.5188 15.2682L13.2551 14.0044C13.0787 13.828 13.0787 13.5488 13.2551 13.3725C13.4314 13.1961 13.7106 13.1961 13.8869 13.3725L15.1507 14.6363C15.3271 14.8126 15.3271 15.0918 15.1507 15.2682C15.0626 15.3563 14.945 15.4004 14.8421 15.4004" fill="white"/>
<path d="M5.45198 6.03985C5.33442 6.03985 5.23155 5.99576 5.14338 5.90759L4.10003 4.86424C3.92369 4.6879 3.92369 4.40869 4.10003 4.23235C4.27637 4.05601 4.55558 4.05601 4.73192 4.23235L5.77527 5.2757C5.95161 5.45204 5.95161 5.73125 5.77527 5.90759C5.6871 5.99576 5.56954 6.03985 5.46667 6.03985" fill="white"/>
</g>
<defs>
<clipPath id="clip0_1359_702">
<rect width="20" height="20" fill="white"/>
</clipPath>
</defs>
</svg>
