<svg width="181" height="34" viewBox="0 0 181 34" fill="none" xmlns="http://www.w3.org/2000/svg">
<path d="M25.5935 13.2348C25.2873 13.1412 25.0248 13.0944 24.7185 13.1412C24.0185 13.2348 23.3185 13.609 22.6185 13.7025C22.1373 13.7493 21.6998 13.3751 21.656 12.8138C21.5248 11.0829 21.5248 9.35214 21.656 7.62134C21.656 7.38744 21.481 7.20033 21.2623 7.20033C19.4248 7.15355 17.631 7.34067 15.7935 7.80845C15.3123 7.94879 14.9185 8.36979 14.9623 8.88436C15.0498 9.96026 15.706 11.0829 15.3998 12.2056C15.1373 13.188 14.3935 13.8897 13.4748 14.0768C12.556 14.2639 11.5935 13.7961 11.0685 13.0009C10.456 12.0653 10.7623 10.7555 10.4998 9.67959C10.3685 9.16503 9.88728 8.88436 9.40603 8.93114C7.56853 9.11825 5.77478 9.58604 4.06853 10.2877C3.84978 10.3813 3.71853 10.6152 3.84978 10.8023C4.50603 12.3927 5.03103 14.03 5.42478 15.714C5.55603 16.2286 5.24978 16.7431 4.76853 16.8835C4.06853 17.0706 3.28103 16.9303 2.62478 17.1174C2.31853 17.1642 2.05603 17.3045 1.83728 17.4916C1.00603 18.0529 0.612283 19.0821 0.743533 20.0176C0.874783 20.9532 1.53103 21.7485 2.36228 22.0759C3.41228 22.4501 4.33103 21.7485 5.38103 21.6549C5.86228 21.6081 6.29978 21.9823 6.34353 22.5437C6.47478 24.2745 6.47478 26.0053 6.34353 27.7361C6.34353 27.97 6.51853 28.1571 6.73728 28.1571C8.57478 28.2974 10.4123 28.0168 12.206 27.549C12.6873 27.4087 13.081 26.9876 13.0373 26.4731C12.9498 25.3504 12.2498 24.2277 12.556 23.105C12.8185 22.1695 13.6498 21.421 14.5248 21.2807C15.3998 21.1403 16.406 21.5613 16.931 22.3566C17.5873 23.2921 17.2373 24.6487 17.4998 25.7246C17.631 26.2392 18.1123 26.5199 18.5935 26.4731C20.431 26.286 22.2685 25.9117 23.931 25.1165C24.1498 25.0229 24.281 24.7891 24.1498 24.6019C23.4935 23.0115 22.9685 21.3742 22.5748 19.6902C22.4435 19.1756 22.7498 18.6611 23.231 18.5207C24.2373 18.2868 25.2873 18.6143 26.206 17.8658C26.906 17.3045 27.2998 16.3221 27.1248 15.3866C27.1248 14.3574 26.4248 13.5154 25.5935 13.2348Z" fill="#FE8997"/>
<mask id="path-2-outside-1_9954_40667" maskUnits="userSpaceOnUse" x="34" y="7" width="147" height="24" fill="black">
<rect fill="white" x="34" y="7" width="147" height="24"/>
<path d="M38.466 22.822H45.66V25.286H35.628V8.83H38.466V22.822ZM51.6746 25.374C50.6919 25.374 49.8266 25.1467 49.0786 24.692C48.3306 24.2227 47.7439 23.5847 47.3186 22.778C46.9079 21.9567 46.7026 21.0253 46.7026 19.984C46.7026 18.9427 46.9079 18.0187 47.3186 17.212C47.7439 16.3907 48.3306 15.7527 49.0786 15.298C49.8266 14.8433 50.6919 14.616 51.6746 14.616C52.2026 14.616 52.7306 14.7333 53.2586 14.968C53.7866 15.2027 54.2339 15.5547 54.6006 16.024V14.594H57.4386V25.308H54.6006V23.966C54.2339 24.45 53.7866 24.802 53.2586 25.022C52.7306 25.2567 52.2026 25.374 51.6746 25.374ZM49.5406 19.984C49.5406 20.9227 49.7606 21.6633 50.2006 22.206C50.6406 22.7487 51.2419 23.02 52.0046 23.02C52.7233 23.02 53.3319 22.734 53.8306 22.162C54.3439 21.5753 54.6079 20.8493 54.6226 19.984C54.6079 19.1187 54.3439 18.4 53.8306 17.828C53.3319 17.2413 52.7233 16.948 52.0046 16.948C51.2419 16.948 50.6406 17.2193 50.2006 17.762C49.7606 18.3047 49.5406 19.0453 49.5406 19.984ZM67.6579 19.654C67.6579 18.8033 67.4673 18.1507 67.0859 17.696C66.7193 17.2413 66.1766 17.014 65.4579 17.014C64.8126 17.0287 64.2773 17.278 63.8519 17.762C63.4266 18.2313 63.2213 18.862 63.2359 19.654V25.308H60.3979V14.594H63.2359V16.112C63.5733 15.6573 63.9986 15.298 64.5119 15.034C65.0253 14.77 65.5386 14.638 66.0519 14.638C66.7119 14.638 67.3793 14.792 68.0539 15.1C68.7433 15.408 69.3226 15.936 69.7919 16.684C70.2613 17.4173 70.4959 18.3927 70.4959 19.61V25.308H67.6579V19.654ZM78.0431 22.954C78.8205 22.954 79.4511 22.668 79.9351 22.096C80.4338 21.5093 80.6831 20.7907 80.6831 19.94C80.6831 19.0893 80.4338 18.378 79.9351 17.806C79.4511 17.2193 78.8205 16.926 78.0431 16.926C77.2951 16.926 76.7011 17.1973 76.2611 17.74C75.8211 18.268 75.6011 19.0013 75.6011 19.94C75.6011 20.8787 75.8211 21.6193 76.2611 22.162C76.7011 22.69 77.2951 22.954 78.0431 22.954ZM72.7631 19.962C72.7631 18.9207 72.9685 17.9967 73.3791 17.19C73.8045 16.3687 74.3911 15.7307 75.1391 15.276C75.8871 14.8067 76.7525 14.572 77.7351 14.572C78.2338 14.572 78.7545 14.6893 79.2971 14.924C79.8545 15.1587 80.3165 15.5327 80.6831 16.046V14.572H83.5211V24.406C83.5211 25.418 83.3011 26.3493 82.8611 27.2C82.4211 28.0507 81.7831 28.7253 80.9471 29.224C80.1258 29.7227 79.1725 29.972 78.0871 29.972C77.1045 29.972 76.1951 29.7667 75.3591 29.356C74.5231 28.9453 73.8631 28.3147 73.3791 27.464L75.5571 25.946C75.9825 26.518 76.3711 26.914 76.7231 27.134C77.0898 27.3687 77.5445 27.486 78.0871 27.486C78.9085 27.486 79.5465 27.2147 80.0011 26.672C80.4558 26.144 80.6831 25.506 80.6831 24.758V24.01C80.2725 24.4647 79.7958 24.7947 79.2531 25C78.7105 25.22 78.2045 25.33 77.7351 25.33C76.7671 25.33 75.9018 25.1027 75.1391 24.648C74.3911 24.1787 73.8045 23.5407 73.3791 22.734C72.9685 21.9127 72.7631 20.9887 72.7631 19.962ZM89.5118 20.578C89.5118 21.3553 89.7098 21.9493 90.1058 22.36C90.5018 22.7707 91.0445 22.976 91.7338 22.976C92.4232 22.976 92.9658 22.756 93.3618 22.316C93.7578 21.876 93.9485 21.2673 93.9338 20.49V14.594H96.7718V25.308H93.9338V24.032C93.6112 24.4573 93.1932 24.78 92.6798 25C92.1812 25.2347 91.6605 25.352 91.1178 25.352C90.2525 25.352 89.4825 25.1613 88.8078 24.78C88.1332 24.384 87.6052 23.834 87.2238 23.13C86.8572 22.4113 86.6738 21.5753 86.6738 20.622V14.594H89.5118V20.578ZM104.225 25.374C103.243 25.374 102.377 25.1467 101.629 24.692C100.881 24.2227 100.295 23.5847 99.8694 22.778C99.4587 21.9567 99.2534 21.0253 99.2534 19.984C99.2534 18.9427 99.4587 18.0187 99.8694 17.212C100.295 16.3907 100.881 15.7527 101.629 15.298C102.377 14.8433 103.243 14.616 104.225 14.616C104.753 14.616 105.281 14.7333 105.809 14.968C106.337 15.2027 106.785 15.5547 107.151 16.024V14.594H109.989V25.308H107.151V23.966C106.785 24.45 106.337 24.802 105.809 25.022C105.281 25.2567 104.753 25.374 104.225 25.374ZM102.091 19.984C102.091 20.9227 102.311 21.6633 102.751 22.206C103.191 22.7487 103.793 23.02 104.555 23.02C105.274 23.02 105.883 22.734 106.381 22.162C106.895 21.5753 107.159 20.8493 107.173 19.984C107.159 19.1187 106.895 18.4 106.381 17.828C105.883 17.2413 105.274 16.948 104.555 16.948C103.793 16.948 103.191 17.2193 102.751 17.762C102.311 18.3047 102.091 19.0453 102.091 19.984ZM117.789 22.954C118.567 22.954 119.197 22.668 119.681 22.096C120.18 21.5093 120.429 20.7907 120.429 19.94C120.429 19.0893 120.18 18.378 119.681 17.806C119.197 17.2193 118.567 16.926 117.789 16.926C117.041 16.926 116.447 17.1973 116.007 17.74C115.567 18.268 115.347 19.0013 115.347 19.94C115.347 20.8787 115.567 21.6193 116.007 22.162C116.447 22.69 117.041 22.954 117.789 22.954ZM112.509 19.962C112.509 18.9207 112.715 17.9967 113.125 17.19C113.551 16.3687 114.137 15.7307 114.885 15.276C115.633 14.8067 116.499 14.572 117.481 14.572C117.98 14.572 118.501 14.6893 119.043 14.924C119.601 15.1587 120.063 15.5327 120.429 16.046V14.572H123.267V24.406C123.267 25.418 123.047 26.3493 122.607 27.2C122.167 28.0507 121.529 28.7253 120.693 29.224C119.872 29.7227 118.919 29.972 117.833 29.972C116.851 29.972 115.941 29.7667 115.105 29.356C114.269 28.9453 113.609 28.3147 113.125 27.464L115.303 25.946C115.729 26.518 116.117 26.914 116.469 27.134C116.836 27.3687 117.291 27.486 117.833 27.486C118.655 27.486 119.293 27.2147 119.747 26.672C120.202 26.144 120.429 25.506 120.429 24.758V24.01C120.019 24.4647 119.542 24.7947 118.999 25C118.457 25.22 117.951 25.33 117.481 25.33C116.513 25.33 115.648 25.1027 114.885 24.648C114.137 24.1787 113.551 23.5407 113.125 22.734C112.715 21.9127 112.509 20.9887 112.509 19.962ZM130.506 25.33C129.494 25.33 128.592 25.1027 127.8 24.648C127.023 24.1933 126.414 23.5627 125.974 22.756C125.534 21.9493 125.314 21.0253 125.314 19.984C125.314 18.9427 125.534 18.0113 125.974 17.19C126.414 16.3687 127.023 15.7307 127.8 15.276C128.592 14.8213 129.494 14.594 130.506 14.594C131.503 14.594 132.332 14.7993 132.992 15.21C133.652 15.6207 134.129 16.046 134.422 16.486C134.73 16.926 134.921 17.256 134.994 17.476C135.317 18.1507 135.478 19.038 135.478 20.138L135.456 20.996H128.02C128.152 21.5827 128.453 22.0593 128.922 22.426C129.406 22.7927 129.934 22.976 130.506 22.976C131.151 22.976 131.657 22.8587 132.024 22.624C132.405 22.3747 132.669 22.118 132.816 21.854L135.126 22.778C134.833 23.482 134.29 24.0833 133.498 24.582C132.706 25.0807 131.709 25.33 130.506 25.33ZM132.838 19.082C132.706 18.422 132.442 17.9013 132.046 17.52C131.665 17.1387 131.151 16.948 130.506 16.948C129.875 16.948 129.333 17.146 128.878 17.542C128.438 17.9233 128.152 18.4367 128.02 19.082H132.838Z"/>
<path d="M149.97 25.44C148.65 25.44 147.506 25.154 146.538 24.582C145.57 24.01 144.829 23.218 144.316 22.206C143.802 21.194 143.546 20.028 143.546 18.708V8.83H146.384V18.686C146.384 19.962 146.684 20.9667 147.286 21.7C147.887 22.4333 148.782 22.8 149.97 22.8C151.158 22.8 152.052 22.4333 152.654 21.7C153.27 20.9667 153.578 19.962 153.578 18.686V8.83H156.416V18.708C156.416 20.028 156.159 21.194 155.646 22.206C155.132 23.218 154.384 24.01 153.402 24.582C152.434 25.154 151.29 25.44 149.97 25.44ZM160.966 21.392C161.142 21.876 161.435 22.2647 161.846 22.558C162.271 22.8367 162.675 22.976 163.056 22.976C163.525 22.976 163.892 22.9027 164.156 22.756C164.42 22.5947 164.552 22.3747 164.552 22.096C164.552 21.876 164.413 21.6927 164.134 21.546C163.87 21.3993 163.408 21.2013 162.748 20.952C162.044 20.7027 161.45 20.4607 160.966 20.226C160.497 19.9767 160.086 19.6393 159.734 19.214C159.382 18.7887 159.206 18.2533 159.206 17.608C159.206 16.64 159.587 15.8773 160.35 15.32C161.127 14.7627 162.103 14.484 163.276 14.484C164.068 14.484 164.845 14.7187 165.608 15.188C166.371 15.6427 166.884 16.3173 167.148 17.212L164.838 18.092C164.559 17.2707 164.039 16.86 163.276 16.86C162.88 16.86 162.572 16.926 162.352 17.058C162.147 17.19 162.044 17.3733 162.044 17.608C162.044 17.828 162.169 18.004 162.418 18.136C162.682 18.268 163.151 18.4587 163.826 18.708C164.515 18.9573 165.102 19.2067 165.586 19.456C166.07 19.6907 166.488 20.0207 166.84 20.446C167.192 20.8713 167.368 21.3993 167.368 22.03C167.368 23.042 166.972 23.8487 166.18 24.45C165.403 25.0513 164.361 25.352 163.056 25.352C162.205 25.352 161.369 25.0953 160.548 24.582C159.727 24.0687 159.14 23.416 158.788 22.624L160.966 21.392ZM174.699 25.33C173.687 25.33 172.785 25.1027 171.993 24.648C171.216 24.1933 170.607 23.5627 170.167 22.756C169.727 21.9493 169.507 21.0253 169.507 19.984C169.507 18.9427 169.727 18.0113 170.167 17.19C170.607 16.3687 171.216 15.7307 171.993 15.276C172.785 14.8213 173.687 14.594 174.699 14.594C175.697 14.594 176.525 14.7993 177.185 15.21C177.845 15.6207 178.322 16.046 178.615 16.486C178.923 16.926 179.114 17.256 179.187 17.476C179.51 18.1507 179.671 19.038 179.671 20.138L179.649 20.996H172.213C172.345 21.5827 172.646 22.0593 173.115 22.426C173.599 22.7927 174.127 22.976 174.699 22.976C175.345 22.976 175.851 22.8587 176.217 22.624C176.599 22.3747 176.863 22.118 177.009 21.854L179.319 22.778C179.026 23.482 178.483 24.0833 177.691 24.582C176.899 25.0807 175.902 25.33 174.699 25.33ZM177.031 19.082C176.899 18.422 176.635 17.9013 176.239 17.52C175.858 17.1387 175.345 16.948 174.699 16.948C174.069 16.948 173.526 17.146 173.071 17.542C172.631 17.9233 172.345 18.4367 172.213 19.082H177.031Z"/>
</mask>
<path d="M38.466 22.822H45.66V25.286H35.628V8.83H38.466V22.822ZM51.6746 25.374C50.6919 25.374 49.8266 25.1467 49.0786 24.692C48.3306 24.2227 47.7439 23.5847 47.3186 22.778C46.9079 21.9567 46.7026 21.0253 46.7026 19.984C46.7026 18.9427 46.9079 18.0187 47.3186 17.212C47.7439 16.3907 48.3306 15.7527 49.0786 15.298C49.8266 14.8433 50.6919 14.616 51.6746 14.616C52.2026 14.616 52.7306 14.7333 53.2586 14.968C53.7866 15.2027 54.2339 15.5547 54.6006 16.024V14.594H57.4386V25.308H54.6006V23.966C54.2339 24.45 53.7866 24.802 53.2586 25.022C52.7306 25.2567 52.2026 25.374 51.6746 25.374ZM49.5406 19.984C49.5406 20.9227 49.7606 21.6633 50.2006 22.206C50.6406 22.7487 51.2419 23.02 52.0046 23.02C52.7233 23.02 53.3319 22.734 53.8306 22.162C54.3439 21.5753 54.6079 20.8493 54.6226 19.984C54.6079 19.1187 54.3439 18.4 53.8306 17.828C53.3319 17.2413 52.7233 16.948 52.0046 16.948C51.2419 16.948 50.6406 17.2193 50.2006 17.762C49.7606 18.3047 49.5406 19.0453 49.5406 19.984ZM67.6579 19.654C67.6579 18.8033 67.4673 18.1507 67.0859 17.696C66.7193 17.2413 66.1766 17.014 65.4579 17.014C64.8126 17.0287 64.2773 17.278 63.8519 17.762C63.4266 18.2313 63.2213 18.862 63.2359 19.654V25.308H60.3979V14.594H63.2359V16.112C63.5733 15.6573 63.9986 15.298 64.5119 15.034C65.0253 14.77 65.5386 14.638 66.0519 14.638C66.7119 14.638 67.3793 14.792 68.0539 15.1C68.7433 15.408 69.3226 15.936 69.7919 16.684C70.2613 17.4173 70.4959 18.3927 70.4959 19.61V25.308H67.6579V19.654ZM78.0431 22.954C78.8205 22.954 79.4511 22.668 79.9351 22.096C80.4338 21.5093 80.6831 20.7907 80.6831 19.94C80.6831 19.0893 80.4338 18.378 79.9351 17.806C79.4511 17.2193 78.8205 16.926 78.0431 16.926C77.2951 16.926 76.7011 17.1973 76.2611 17.74C75.8211 18.268 75.6011 19.0013 75.6011 19.94C75.6011 20.8787 75.8211 21.6193 76.2611 22.162C76.7011 22.69 77.2951 22.954 78.0431 22.954ZM72.7631 19.962C72.7631 18.9207 72.9685 17.9967 73.3791 17.19C73.8045 16.3687 74.3911 15.7307 75.1391 15.276C75.8871 14.8067 76.7525 14.572 77.7351 14.572C78.2338 14.572 78.7545 14.6893 79.2971 14.924C79.8545 15.1587 80.3165 15.5327 80.6831 16.046V14.572H83.5211V24.406C83.5211 25.418 83.3011 26.3493 82.8611 27.2C82.4211 28.0507 81.7831 28.7253 80.9471 29.224C80.1258 29.7227 79.1725 29.972 78.0871 29.972C77.1045 29.972 76.1951 29.7667 75.3591 29.356C74.5231 28.9453 73.8631 28.3147 73.3791 27.464L75.5571 25.946C75.9825 26.518 76.3711 26.914 76.7231 27.134C77.0898 27.3687 77.5445 27.486 78.0871 27.486C78.9085 27.486 79.5465 27.2147 80.0011 26.672C80.4558 26.144 80.6831 25.506 80.6831 24.758V24.01C80.2725 24.4647 79.7958 24.7947 79.2531 25C78.7105 25.22 78.2045 25.33 77.7351 25.33C76.7671 25.33 75.9018 25.1027 75.1391 24.648C74.3911 24.1787 73.8045 23.5407 73.3791 22.734C72.9685 21.9127 72.7631 20.9887 72.7631 19.962ZM89.5118 20.578C89.5118 21.3553 89.7098 21.9493 90.1058 22.36C90.5018 22.7707 91.0445 22.976 91.7338 22.976C92.4232 22.976 92.9658 22.756 93.3618 22.316C93.7578 21.876 93.9485 21.2673 93.9338 20.49V14.594H96.7718V25.308H93.9338V24.032C93.6112 24.4573 93.1932 24.78 92.6798 25C92.1812 25.2347 91.6605 25.352 91.1178 25.352C90.2525 25.352 89.4825 25.1613 88.8078 24.78C88.1332 24.384 87.6052 23.834 87.2238 23.13C86.8572 22.4113 86.6738 21.5753 86.6738 20.622V14.594H89.5118V20.578ZM104.225 25.374C103.243 25.374 102.377 25.1467 101.629 24.692C100.881 24.2227 100.295 23.5847 99.8694 22.778C99.4587 21.9567 99.2534 21.0253 99.2534 19.984C99.2534 18.9427 99.4587 18.0187 99.8694 17.212C100.295 16.3907 100.881 15.7527 101.629 15.298C102.377 14.8433 103.243 14.616 104.225 14.616C104.753 14.616 105.281 14.7333 105.809 14.968C106.337 15.2027 106.785 15.5547 107.151 16.024V14.594H109.989V25.308H107.151V23.966C106.785 24.45 106.337 24.802 105.809 25.022C105.281 25.2567 104.753 25.374 104.225 25.374ZM102.091 19.984C102.091 20.9227 102.311 21.6633 102.751 22.206C103.191 22.7487 103.793 23.02 104.555 23.02C105.274 23.02 105.883 22.734 106.381 22.162C106.895 21.5753 107.159 20.8493 107.173 19.984C107.159 19.1187 106.895 18.4 106.381 17.828C105.883 17.2413 105.274 16.948 104.555 16.948C103.793 16.948 103.191 17.2193 102.751 17.762C102.311 18.3047 102.091 19.0453 102.091 19.984ZM117.789 22.954C118.567 22.954 119.197 22.668 119.681 22.096C120.18 21.5093 120.429 20.7907 120.429 19.94C120.429 19.0893 120.18 18.378 119.681 17.806C119.197 17.2193 118.567 16.926 117.789 16.926C117.041 16.926 116.447 17.1973 116.007 17.74C115.567 18.268 115.347 19.0013 115.347 19.94C115.347 20.8787 115.567 21.6193 116.007 22.162C116.447 22.69 117.041 22.954 117.789 22.954ZM112.509 19.962C112.509 18.9207 112.715 17.9967 113.125 17.19C113.551 16.3687 114.137 15.7307 114.885 15.276C115.633 14.8067 116.499 14.572 117.481 14.572C117.98 14.572 118.501 14.6893 119.043 14.924C119.601 15.1587 120.063 15.5327 120.429 16.046V14.572H123.267V24.406C123.267 25.418 123.047 26.3493 122.607 27.2C122.167 28.0507 121.529 28.7253 120.693 29.224C119.872 29.7227 118.919 29.972 117.833 29.972C116.851 29.972 115.941 29.7667 115.105 29.356C114.269 28.9453 113.609 28.3147 113.125 27.464L115.303 25.946C115.729 26.518 116.117 26.914 116.469 27.134C116.836 27.3687 117.291 27.486 117.833 27.486C118.655 27.486 119.293 27.2147 119.747 26.672C120.202 26.144 120.429 25.506 120.429 24.758V24.01C120.019 24.4647 119.542 24.7947 118.999 25C118.457 25.22 117.951 25.33 117.481 25.33C116.513 25.33 115.648 25.1027 114.885 24.648C114.137 24.1787 113.551 23.5407 113.125 22.734C112.715 21.9127 112.509 20.9887 112.509 19.962ZM130.506 25.33C129.494 25.33 128.592 25.1027 127.8 24.648C127.023 24.1933 126.414 23.5627 125.974 22.756C125.534 21.9493 125.314 21.0253 125.314 19.984C125.314 18.9427 125.534 18.0113 125.974 17.19C126.414 16.3687 127.023 15.7307 127.8 15.276C128.592 14.8213 129.494 14.594 130.506 14.594C131.503 14.594 132.332 14.7993 132.992 15.21C133.652 15.6207 134.129 16.046 134.422 16.486C134.73 16.926 134.921 17.256 134.994 17.476C135.317 18.1507 135.478 19.038 135.478 20.138L135.456 20.996H128.02C128.152 21.5827 128.453 22.0593 128.922 22.426C129.406 22.7927 129.934 22.976 130.506 22.976C131.151 22.976 131.657 22.8587 132.024 22.624C132.405 22.3747 132.669 22.118 132.816 21.854L135.126 22.778C134.833 23.482 134.29 24.0833 133.498 24.582C132.706 25.0807 131.709 25.33 130.506 25.33ZM132.838 19.082C132.706 18.422 132.442 17.9013 132.046 17.52C131.665 17.1387 131.151 16.948 130.506 16.948C129.875 16.948 129.333 17.146 128.878 17.542C128.438 17.9233 128.152 18.4367 128.02 19.082H132.838Z" fill="#EF5350"/>
<path d="M149.97 25.44C148.65 25.44 147.506 25.154 146.538 24.582C145.57 24.01 144.829 23.218 144.316 22.206C143.802 21.194 143.546 20.028 143.546 18.708V8.83H146.384V18.686C146.384 19.962 146.684 20.9667 147.286 21.7C147.887 22.4333 148.782 22.8 149.97 22.8C151.158 22.8 152.052 22.4333 152.654 21.7C153.27 20.9667 153.578 19.962 153.578 18.686V8.83H156.416V18.708C156.416 20.028 156.159 21.194 155.646 22.206C155.132 23.218 154.384 24.01 153.402 24.582C152.434 25.154 151.29 25.44 149.97 25.44ZM160.966 21.392C161.142 21.876 161.435 22.2647 161.846 22.558C162.271 22.8367 162.675 22.976 163.056 22.976C163.525 22.976 163.892 22.9027 164.156 22.756C164.42 22.5947 164.552 22.3747 164.552 22.096C164.552 21.876 164.413 21.6927 164.134 21.546C163.87 21.3993 163.408 21.2013 162.748 20.952C162.044 20.7027 161.45 20.4607 160.966 20.226C160.497 19.9767 160.086 19.6393 159.734 19.214C159.382 18.7887 159.206 18.2533 159.206 17.608C159.206 16.64 159.587 15.8773 160.35 15.32C161.127 14.7627 162.103 14.484 163.276 14.484C164.068 14.484 164.845 14.7187 165.608 15.188C166.371 15.6427 166.884 16.3173 167.148 17.212L164.838 18.092C164.559 17.2707 164.039 16.86 163.276 16.86C162.88 16.86 162.572 16.926 162.352 17.058C162.147 17.19 162.044 17.3733 162.044 17.608C162.044 17.828 162.169 18.004 162.418 18.136C162.682 18.268 163.151 18.4587 163.826 18.708C164.515 18.9573 165.102 19.2067 165.586 19.456C166.07 19.6907 166.488 20.0207 166.84 20.446C167.192 20.8713 167.368 21.3993 167.368 22.03C167.368 23.042 166.972 23.8487 166.18 24.45C165.403 25.0513 164.361 25.352 163.056 25.352C162.205 25.352 161.369 25.0953 160.548 24.582C159.727 24.0687 159.14 23.416 158.788 22.624L160.966 21.392ZM174.699 25.33C173.687 25.33 172.785 25.1027 171.993 24.648C171.216 24.1933 170.607 23.5627 170.167 22.756C169.727 21.9493 169.507 21.0253 169.507 19.984C169.507 18.9427 169.727 18.0113 170.167 17.19C170.607 16.3687 171.216 15.7307 171.993 15.276C172.785 14.8213 173.687 14.594 174.699 14.594C175.697 14.594 176.525 14.7993 177.185 15.21C177.845 15.6207 178.322 16.046 178.615 16.486C178.923 16.926 179.114 17.256 179.187 17.476C179.51 18.1507 179.671 19.038 179.671 20.138L179.649 20.996H172.213C172.345 21.5827 172.646 22.0593 173.115 22.426C173.599 22.7927 174.127 22.976 174.699 22.976C175.345 22.976 175.851 22.8587 176.217 22.624C176.599 22.3747 176.863 22.118 177.009 21.854L179.319 22.778C179.026 23.482 178.483 24.0833 177.691 24.582C176.899 25.0807 175.902 25.33 174.699 25.33ZM177.031 19.082C176.899 18.422 176.635 17.9013 176.239 17.52C175.858 17.1387 175.345 16.948 174.699 16.948C174.069 16.948 173.526 17.146 173.071 17.542C172.631 17.9233 172.345 18.4367 172.213 19.082H177.031Z" fill="#6477DF"/>
<path d="M38.466 22.822H37.466V23.822H38.466V22.822ZM45.66 22.822H46.66V21.822H45.66V22.822ZM45.66 25.286V26.286H46.66V25.286H45.66ZM35.628 25.286H34.628V26.286H35.628V25.286ZM35.628 8.83V7.83H34.628V8.83H35.628ZM38.466 8.83H39.466V7.83H38.466V8.83ZM38.466 23.822H45.66V21.822H38.466V23.822ZM44.66 22.822V25.286H46.66V22.822H44.66ZM45.66 24.286H35.628V26.286H45.66V24.286ZM36.628 25.286V8.83H34.628V25.286H36.628ZM35.628 9.83H38.466V7.83H35.628V9.83ZM37.466 8.83V22.822H39.466V8.83H37.466ZM49.0786 24.692L48.5471 25.5391L48.5531 25.5428L48.5592 25.5465L49.0786 24.692ZM47.3186 22.778L46.4242 23.2252L46.429 23.2349L46.434 23.2444L47.3186 22.778ZM47.3186 17.212L46.4306 16.7521L46.4274 16.7583L47.3186 17.212ZM49.0786 15.298L49.598 16.1525V16.1525L49.0786 15.298ZM53.2586 14.968L53.6647 14.0542H53.6647L53.2586 14.968ZM54.6006 16.024L53.8126 16.6396L55.6006 18.9283V16.024H54.6006ZM54.6006 14.594V13.594H53.6006V14.594H54.6006ZM57.4386 14.594H58.4386V13.594H57.4386V14.594ZM57.4386 25.308V26.308H58.4386V25.308H57.4386ZM54.6006 25.308H53.6006V26.308H54.6006V25.308ZM54.6006 23.966H55.6006V20.99L53.8035 23.3621L54.6006 23.966ZM53.2586 25.022L52.874 24.0989L52.8632 24.1034L52.8525 24.1082L53.2586 25.022ZM53.8306 22.162L53.078 21.5035L53.0768 21.5049L53.8306 22.162ZM54.6226 19.984L55.6224 20.0009L55.6227 19.984L55.6224 19.9671L54.6226 19.984ZM53.8306 17.828L53.0687 18.4756L53.0774 18.4859L53.0864 18.4959L53.8306 17.828ZM51.6746 24.374C50.8521 24.374 50.1709 24.1857 49.598 23.8375L48.5592 25.5465C49.4823 26.1076 50.5318 26.374 51.6746 26.374V24.374ZM49.6101 23.8449C49.0163 23.4723 48.5492 22.9678 48.2032 22.3116L46.434 23.2444C46.9387 24.2015 47.6449 24.973 48.5471 25.5391L49.6101 23.8449ZM48.213 22.3308C47.8806 21.6659 47.7026 20.891 47.7026 19.984H45.7026C45.7026 21.1596 45.9353 22.2474 46.4242 23.2252L48.213 22.3308ZM47.7026 19.984C47.7026 19.0766 47.8807 18.312 48.2098 17.6657L46.4274 16.7583C45.9351 17.7253 45.7026 18.8088 45.7026 19.984H47.7026ZM48.2066 17.6719C48.5526 17.0038 49.0158 16.5064 49.598 16.1525L48.5592 14.4435C47.6454 14.9989 46.9353 15.7776 46.4306 16.7521L48.2066 17.6719ZM49.598 16.1525C50.1709 15.8043 50.8521 15.616 51.6746 15.616V13.616C50.5318 13.616 49.4823 13.8824 48.5592 14.4435L49.598 16.1525ZM51.6746 15.616C52.0499 15.616 52.4401 15.6986 52.8525 15.8818L53.6647 14.0542C53.021 13.7681 52.3552 13.616 51.6746 13.616V15.616ZM52.8525 15.8818C53.2259 16.0478 53.5436 16.2954 53.8126 16.6396L55.3886 15.4084C54.9242 14.814 54.3473 14.3575 53.6647 14.0542L52.8525 15.8818ZM55.6006 16.024V14.594H53.6006V16.024H55.6006ZM54.6006 15.594H57.4386V13.594H54.6006V15.594ZM56.4386 14.594V25.308H58.4386V14.594H56.4386ZM57.4386 24.308H54.6006V26.308H57.4386V24.308ZM55.6006 25.308V23.966H53.6006V25.308H55.6006ZM53.8035 23.3621C53.5368 23.7141 53.2285 23.9512 52.874 24.0989L53.6432 25.9451C54.3446 25.6528 54.931 25.1859 55.3977 24.5699L53.8035 23.3621ZM52.8525 24.1082C52.4401 24.2914 52.0499 24.374 51.6746 24.374V26.374C52.3552 26.374 53.021 26.2219 53.6647 25.9358L52.8525 24.1082ZM48.5406 19.984C48.5406 21.0732 48.7966 22.0622 49.4238 22.8358L50.9774 21.5762C50.7246 21.2645 50.5406 20.7721 50.5406 19.984H48.5406ZM49.4238 22.8358C50.0727 23.6361 50.972 24.02 52.0046 24.02V22.02C51.5119 22.02 51.2085 21.8613 50.9774 21.5762L49.4238 22.8358ZM52.0046 24.02C53.0301 24.02 53.9079 23.5951 54.5844 22.8191L53.0768 21.5049C52.756 21.8729 52.4164 22.02 52.0046 22.02V24.02ZM54.5832 22.8205C55.2696 22.036 55.6042 21.0748 55.6224 20.0009L53.6227 19.9671C53.6116 20.6239 53.4183 21.1146 53.078 21.5035L54.5832 22.8205ZM55.6224 19.9671C55.6043 18.8935 55.2694 17.934 54.5748 17.1601L53.0864 18.4959C53.4185 18.866 53.6116 19.3439 53.6227 20.0009L55.6224 19.9671ZM54.5925 17.1804C53.9193 16.3883 53.0396 15.948 52.0046 15.948V17.948C52.4069 17.948 52.7446 18.0944 53.0687 18.4756L54.5925 17.1804ZM52.0046 15.948C50.972 15.948 50.0727 16.3319 49.4238 17.1322L50.9774 18.3918C51.2085 18.1067 51.5119 17.948 52.0046 17.948V15.948ZM49.4238 17.1322C48.7966 17.9058 48.5406 18.8948 48.5406 19.984H50.5406C50.5406 19.1959 50.7246 18.7035 50.9774 18.3918L49.4238 17.1322ZM67.0859 17.696L66.3075 18.3238L66.3136 18.3312L66.3197 18.3386L67.0859 17.696ZM65.4579 17.014V16.014H65.4466L65.4352 16.0143L65.4579 17.014ZM63.8519 17.762L64.5929 18.4335L64.5981 18.4279L64.6031 18.4221L63.8519 17.762ZM63.2359 19.654H64.2359V19.6447L64.2358 19.6355L63.2359 19.654ZM63.2359 25.308V26.308H64.2359V25.308H63.2359ZM60.3979 25.308H59.3979V26.308H60.3979V25.308ZM60.3979 14.594V13.594H59.3979V14.594H60.3979ZM63.2359 14.594H64.2359V13.594H63.2359V14.594ZM63.2359 16.112H62.2359V19.1381L64.039 16.7078L63.2359 16.112ZM64.5119 15.034L64.9693 15.9233V15.9233L64.5119 15.034ZM68.0539 15.1L67.6386 16.0097L67.646 16.013L68.0539 15.1ZM69.7919 16.684L68.9448 17.2155L68.9497 17.2231L69.7919 16.684ZM70.4959 25.308V26.308H71.4959V25.308H70.4959ZM67.6579 25.308H66.6579V26.308H67.6579V25.308ZM68.6579 19.654C68.6579 18.6682 68.4382 17.7522 67.8521 17.0534L66.3197 18.3386C66.4963 18.5491 66.6579 18.9384 66.6579 19.654H68.6579ZM67.8643 17.0682C67.2644 16.3244 66.4023 16.014 65.4579 16.014V18.014C65.9509 18.014 66.1741 18.1583 66.3075 18.3238L67.8643 17.0682ZM65.4352 16.0143C64.5108 16.0353 63.7111 16.4074 63.1008 17.1019L64.6031 18.4221C64.8434 18.1486 65.1144 18.0221 65.4807 18.0137L65.4352 16.0143ZM63.111 17.0905C62.4745 17.7927 62.218 18.6927 62.2361 19.6725L64.2358 19.6355C64.2246 19.0313 64.3787 18.6699 64.5929 18.4335L63.111 17.0905ZM62.2359 19.654V25.308H64.2359V19.654H62.2359ZM63.2359 24.308H60.3979V26.308H63.2359V24.308ZM61.3979 25.308V14.594H59.3979V25.308H61.3979ZM60.3979 15.594H63.2359V13.594H60.3979V15.594ZM62.2359 14.594V16.112H64.2359V14.594H62.2359ZM64.039 16.7078C64.2833 16.3787 64.5894 16.1187 64.9693 15.9233L64.0546 14.1447C63.4078 14.4773 62.8633 14.936 62.4328 15.5162L64.039 16.7078ZM64.9693 15.9233C65.359 15.7229 65.7166 15.638 66.0519 15.638V13.638C65.3606 13.638 64.6916 13.8171 64.0546 14.1447L64.9693 15.9233ZM66.0519 15.638C66.5519 15.638 67.0782 15.7538 67.6386 16.0097L68.4692 14.1903C67.6804 13.8302 66.872 13.638 66.0519 13.638V15.638ZM67.646 16.013C68.1253 16.2272 68.5626 16.6062 68.9449 17.2155L70.639 16.1525C70.0826 15.2658 69.3612 14.5888 68.4619 14.187L67.646 16.013ZM68.9497 17.2231C69.2827 17.7434 69.4959 18.5107 69.4959 19.61H71.4959C71.4959 18.2746 71.2399 17.0913 70.6342 16.1449L68.9497 17.2231ZM69.4959 19.61V25.308H71.4959V19.61H69.4959ZM70.4959 24.308H67.6579V26.308H70.4959V24.308ZM68.6579 25.308V19.654H66.6579V25.308H68.6579ZM79.9351 22.096L79.1732 21.4483L79.1718 21.4501L79.9351 22.096ZM79.9351 17.806L79.1638 18.4424L79.1724 18.4529L79.1814 18.4631L79.9351 17.806ZM76.2611 17.74L77.0294 18.3802L77.0379 18.3698L76.2611 17.74ZM76.2611 22.162L75.4843 22.7919L75.4929 22.8022L76.2611 22.162ZM73.3791 17.19L72.4911 16.7301L72.488 16.7363L73.3791 17.19ZM75.1391 15.276L75.6586 16.1305L75.6646 16.1268L75.6706 16.1231L75.1391 15.276ZM79.2971 14.924L78.9002 15.8419L78.9091 15.8456L79.2971 14.924ZM80.6831 16.046L79.8694 16.6272L81.6831 19.1665V16.046H80.6831ZM80.6831 14.572V13.572H79.6831V14.572H80.6831ZM83.5211 14.572H84.5211V13.572H83.5211V14.572ZM82.8611 27.2L83.7494 27.6594V27.6594L82.8611 27.2ZM80.9471 29.224L80.4348 28.3652L80.4282 28.3692L80.9471 29.224ZM75.3591 29.356L74.9182 30.2536L75.3591 29.356ZM73.3791 27.464L72.8073 26.6436L72.0587 27.1654L72.51 27.9585L73.3791 27.464ZM75.5571 25.946L76.3596 25.3493L75.7809 24.5711L74.9853 25.1256L75.5571 25.946ZM76.7231 27.134L77.2622 26.2917L77.2531 26.286L76.7231 27.134ZM80.0011 26.672L79.2433 26.0194L79.2346 26.0298L80.0011 26.672ZM80.6831 24.01H81.6831V21.411L79.941 23.3397L80.6831 24.01ZM79.2531 25L78.8993 24.0647L78.8883 24.0689L78.8774 24.0733L79.2531 25ZM75.1391 24.648L74.6077 25.4951L74.6173 25.5011L74.6271 25.5069L75.1391 24.648ZM73.3791 22.734L72.4847 23.1812L72.4895 23.1909L72.4946 23.2004L73.3791 22.734ZM78.0431 23.954C79.102 23.954 80.0165 23.548 80.6985 22.7419L79.1718 21.4501C78.8858 21.788 78.539 21.954 78.0431 21.954V23.954ZM80.6971 22.7436C81.3658 21.9569 81.6831 21.0013 81.6831 19.94H79.6831C79.6831 20.58 79.5018 21.0618 79.1732 21.4484L80.6971 22.7436ZM81.6831 19.94C81.6831 18.879 81.3658 17.9253 80.6889 17.1489L79.1814 18.4631C79.5018 18.8307 79.6831 19.2996 79.6831 19.94H81.6831ZM80.7065 17.1696C80.0277 16.3469 79.1114 15.926 78.0431 15.926V17.926C78.5296 17.926 78.8745 18.0918 79.1638 18.4424L80.7065 17.1696ZM78.0431 15.926C77.0181 15.926 76.1291 16.315 75.4844 17.1102L77.0379 18.3698C77.2732 18.0797 77.5722 17.926 78.0431 17.926V15.926ZM75.4929 17.0998C74.8563 17.8637 74.6011 18.8528 74.6011 19.94H76.6011C76.6011 19.1499 76.7859 18.6723 77.0294 18.3802L75.4929 17.0998ZM74.6011 19.94C74.6011 21.0292 74.8571 22.0182 75.4844 22.7918L77.0379 21.5322C76.7852 21.2205 76.6011 20.7281 76.6011 19.94H74.6011ZM75.4929 22.8022C76.1412 23.5801 77.0281 23.954 78.0431 23.954V21.954C77.5621 21.954 77.2611 21.7999 77.0294 21.5218L75.4929 22.8022ZM73.7631 19.962C73.7631 19.0546 73.9413 18.29 74.2703 17.6437L72.488 16.7363C71.9957 17.7033 71.7631 18.7868 71.7631 19.962H73.7631ZM74.2671 17.6499C74.6131 16.9818 75.0763 16.4844 75.6586 16.1305L74.6197 14.4215C73.706 14.9769 72.9958 15.7556 72.4911 16.7301L74.2671 17.6499ZM75.6706 16.1231C76.2418 15.7647 76.9186 15.572 77.7351 15.572V13.572C76.5863 13.572 75.5325 13.8486 74.6077 14.4289L75.6706 16.1231ZM77.7351 15.572C78.0744 15.572 78.46 15.6515 78.9002 15.8419L79.6941 14.0061C79.049 13.7272 78.3932 13.572 77.7351 13.572V15.572ZM78.9091 15.8456C79.2882 16.0053 79.6055 16.2578 79.8694 16.6272L81.4969 15.4648C81.0274 14.8076 80.4208 14.3121 79.6852 14.0024L78.9091 15.8456ZM81.6831 16.046V14.572H79.6831V16.046H81.6831ZM80.6831 15.572H83.5211V13.572H80.6831V15.572ZM82.5211 14.572V24.406H84.5211V14.572H82.5211ZM82.5211 24.406C82.5211 25.2675 82.3353 26.04 81.9729 26.7406L83.7494 27.6594C84.267 26.6587 84.5211 25.5685 84.5211 24.406H82.5211ZM81.9729 26.7406C81.62 27.4228 81.1135 27.9604 80.4349 28.3652L81.4594 30.0828C82.4527 29.4903 83.2222 28.6785 83.7494 27.6594L81.9729 26.7406ZM80.4282 28.3692C79.7828 28.761 79.0137 28.972 78.0871 28.972V30.972C79.3312 30.972 80.4688 30.6843 81.4661 30.0788L80.4282 28.3692ZM78.0871 28.972C77.2487 28.972 76.4913 28.798 75.8 28.4584L74.9182 30.2536C75.899 30.7353 76.9602 30.972 78.0871 30.972V28.972ZM75.8 28.4584C75.1534 28.1408 74.6385 27.6553 74.2483 26.9695L72.51 27.9585C73.0878 28.9741 73.8929 29.7499 74.9182 30.2536L75.8 28.4584ZM73.9509 28.2844L76.1289 26.7664L74.9853 25.1256L72.8073 26.6436L73.9509 28.2844ZM74.7547 26.5427C75.2088 27.1534 75.6858 27.6649 76.1931 27.982L77.2531 26.286C77.0565 26.1631 76.7561 25.8826 76.3596 25.3493L74.7547 26.5427ZM76.1841 27.9763C76.7472 28.3366 77.4004 28.486 78.0871 28.486V26.486C77.6885 26.486 77.4324 26.4007 77.2622 26.2917L76.1841 27.9763ZM78.0871 28.486C79.1516 28.486 80.0915 28.1212 80.7677 27.3142L79.2346 26.0298C79.0014 26.3081 78.6654 26.486 78.0871 26.486V28.486ZM80.7589 27.3245C81.3818 26.6011 81.6831 25.7264 81.6831 24.758H79.6831C79.6831 25.2855 79.5298 25.6869 79.2434 26.0195L80.7589 27.3245ZM81.6831 24.758V24.01H79.6831V24.758H81.6831ZM79.941 23.3397C79.6308 23.6832 79.285 23.9188 78.8993 24.0647L79.607 25.9353C80.3066 25.6706 80.9142 25.2461 81.4252 24.6803L79.941 23.3397ZM78.8774 24.0733C78.4256 24.2564 78.0481 24.33 77.7351 24.33V26.33C78.3608 26.33 78.9954 26.1836 79.6288 25.9267L78.8774 24.0733ZM77.7351 24.33C76.9306 24.33 76.2452 24.1432 75.6512 23.7891L74.6271 25.5069C75.5584 26.0622 76.6037 26.33 77.7351 26.33V24.33ZM75.6706 23.8009C75.0768 23.4283 74.6097 22.9238 74.2637 22.2676L72.4946 23.2004C72.9992 24.1575 73.7055 24.929 74.6077 25.4951L75.6706 23.8009ZM74.2736 22.2868C73.9402 21.62 73.7631 20.8519 73.7631 19.962H71.7631C71.7631 21.1254 71.9968 22.2054 72.4847 23.1812L74.2736 22.2868ZM93.9338 20.49H92.9338V20.4994L92.934 20.5089L93.9338 20.49ZM93.9338 14.594V13.594H92.9338V14.594H93.9338ZM96.7718 14.594H97.7718V13.594H96.7718V14.594ZM96.7718 25.308V26.308H97.7718V25.308H96.7718ZM93.9338 25.308H92.9338V26.308H93.9338V25.308ZM93.9338 24.032H94.9338V21.0592L93.1372 23.4276L93.9338 24.032ZM92.6798 25L92.2859 24.0809L92.2699 24.0877L92.254 24.0952L92.6798 25ZM88.8078 24.78L88.3016 25.6424L88.3087 25.6465L88.3158 25.6506L88.8078 24.78ZM87.2238 23.13L86.3331 23.5845L86.3387 23.5954L86.3446 23.6063L87.2238 23.13ZM86.6738 14.594V13.594H85.6738V14.594H86.6738ZM89.5118 14.594H90.5118V13.594H89.5118V14.594ZM88.5118 20.578C88.5118 21.5186 88.7533 22.398 89.386 23.0541L90.8257 21.6659C90.6664 21.5007 90.5118 21.1921 90.5118 20.578H88.5118ZM89.386 23.0541C90.0088 23.7001 90.8337 23.976 91.7338 23.976V21.976C91.2553 21.976 90.9948 21.8413 90.8257 21.6659L89.386 23.0541ZM91.7338 23.976C92.6554 23.976 93.4877 23.671 94.1051 22.985L92.6185 21.647C92.444 21.841 92.1909 21.976 91.7338 21.976V23.976ZM94.1051 22.985C94.7185 22.3035 94.9516 21.4203 94.9337 20.4711L92.934 20.5089C92.9454 21.1144 92.7972 21.4485 92.6185 21.647L94.1051 22.985ZM94.9338 20.49V14.594H92.9338V20.49H94.9338ZM93.9338 15.594H96.7718V13.594H93.9338V15.594ZM95.7718 14.594V25.308H97.7718V14.594H95.7718ZM96.7718 24.308H93.9338V26.308H96.7718V24.308ZM94.9338 25.308V24.032H92.9338V25.308H94.9338ZM93.1372 23.4276C92.9241 23.7084 92.6476 23.9258 92.2859 24.0809L93.0738 25.9191C93.7387 25.6342 94.2982 25.2062 94.7305 24.6364L93.1372 23.4276ZM92.254 24.0952C91.8864 24.2682 91.511 24.352 91.1178 24.352V26.352C91.8101 26.352 92.4759 26.2012 93.1056 25.9048L92.254 24.0952ZM91.1178 24.352C90.4044 24.352 89.8075 24.1964 89.2999 23.9094L88.3158 25.6506C89.1575 26.1263 90.1006 26.352 91.1178 26.352V24.352ZM89.314 23.9176C88.8004 23.6161 88.3998 23.2014 88.1031 22.6537L86.3446 23.6063C86.8106 24.4666 87.4659 25.1519 88.3016 25.6424L89.314 23.9176ZM88.1146 22.6755C87.8317 22.121 87.6738 21.4459 87.6738 20.622H85.6738C85.6738 21.7047 85.8827 22.7016 86.3331 23.5845L88.1146 22.6755ZM87.6738 20.622V14.594H85.6738V20.622H87.6738ZM86.6738 15.594H89.5118V13.594H86.6738V15.594ZM88.5118 14.594V20.578H90.5118V14.594H88.5118ZM101.629 24.692L101.098 25.5391L101.104 25.5428L101.11 25.5465L101.629 24.692ZM99.8694 22.778L98.9749 23.2252L98.9798 23.2349L98.9848 23.2444L99.8694 22.778ZM99.8694 17.212L98.9814 16.7521L98.9782 16.7583L99.8694 17.212ZM101.629 15.298L102.149 16.1525V16.1525L101.629 15.298ZM105.809 14.968L106.216 14.0542L105.809 14.968ZM107.151 16.024L106.363 16.6396L108.151 18.9283V16.024H107.151ZM107.151 14.594V13.594H106.151V14.594H107.151ZM109.989 14.594H110.989V13.594H109.989V14.594ZM109.989 25.308V26.308H110.989V25.308H109.989ZM107.151 25.308H106.151V26.308H107.151V25.308ZM107.151 23.966H108.151V20.99L106.354 23.3621L107.151 23.966ZM105.809 25.022L105.425 24.0989L105.414 24.1034L105.403 24.1082L105.809 25.022ZM106.381 22.162L105.629 21.5035L105.628 21.5049L106.381 22.162ZM107.173 19.984L108.173 20.0009L108.174 19.984L108.173 19.9671L107.173 19.984ZM106.381 17.828L105.619 18.4756L105.628 18.4859L105.637 18.4959L106.381 17.828ZM104.225 24.374C103.403 24.374 102.722 24.1857 102.149 23.8375L101.11 25.5465C102.033 26.1076 103.083 26.374 104.225 26.374V24.374ZM102.161 23.8449C101.567 23.4723 101.1 22.9678 100.754 22.3116L98.9848 23.2444C99.4895 24.2015 100.196 24.973 101.098 25.5391L102.161 23.8449ZM100.764 22.3308C100.431 21.6659 100.253 20.891 100.253 19.984H98.2534C98.2534 21.1596 98.4861 22.2474 98.9749 23.2252L100.764 22.3308ZM100.253 19.984C100.253 19.0766 100.431 18.312 100.761 17.6657L98.9782 16.7583C98.4859 17.7253 98.2534 18.8088 98.2534 19.984H100.253ZM100.757 17.6719C101.103 17.0038 101.567 16.5064 102.149 16.1525L101.11 14.4435C100.196 14.9989 99.4861 15.7776 98.9814 16.7521L100.757 17.6719ZM102.149 16.1525C102.722 15.8043 103.403 15.616 104.225 15.616V13.616C103.083 13.616 102.033 13.8824 101.11 14.4435L102.149 16.1525ZM104.225 15.616C104.601 15.616 104.991 15.6986 105.403 15.8818L106.216 14.0542C105.572 13.7681 104.906 13.616 104.225 13.616V15.616ZM105.403 15.8818C105.777 16.0478 106.094 16.2954 106.363 16.6396L107.939 15.4084C107.475 14.814 106.898 14.3575 106.216 14.0542L105.403 15.8818ZM108.151 16.024V14.594H106.151V16.024H108.151ZM107.151 15.594H109.989V13.594H107.151V15.594ZM108.989 14.594V25.308H110.989V14.594H108.989ZM109.989 24.308H107.151V26.308H109.989V24.308ZM108.151 25.308V23.966H106.151V25.308H108.151ZM106.354 23.3621C106.088 23.7141 105.779 23.9512 105.425 24.0989L106.194 25.9451C106.895 25.6528 107.482 25.1859 107.948 24.5699L106.354 23.3621ZM105.403 24.1082C104.991 24.2914 104.601 24.374 104.225 24.374V26.374C104.906 26.374 105.572 26.2219 106.216 25.9358L105.403 24.1082ZM101.091 19.984C101.091 21.0732 101.347 22.0622 101.975 22.8358L103.528 21.5762C103.275 21.2645 103.091 20.7721 103.091 19.984H101.091ZM101.975 22.8358C102.623 23.6361 103.523 24.02 104.555 24.02V22.02C104.063 22.02 103.759 21.8613 103.528 21.5762L101.975 22.8358ZM104.555 24.02C105.581 24.02 106.459 23.5951 107.135 22.8191L105.628 21.5049C105.307 21.8729 104.967 22.02 104.555 22.02V24.02ZM107.134 22.8205C107.82 22.036 108.155 21.0748 108.173 20.0009L106.174 19.9671C106.162 20.6239 105.969 21.1146 105.629 21.5035L107.134 22.8205ZM108.173 19.9671C108.155 18.8935 107.82 17.934 107.126 17.1601L105.637 18.4959C105.969 18.866 106.162 19.3439 106.174 20.0009L108.173 19.9671ZM107.143 17.1804C106.47 16.3883 105.59 15.948 104.555 15.948V17.948C104.958 17.948 105.295 18.0944 105.619 18.4756L107.143 17.1804ZM104.555 15.948C103.523 15.948 102.623 16.3319 101.975 17.1322L103.528 18.3918C103.759 18.1067 104.063 17.948 104.555 17.948V15.948ZM101.975 17.1322C101.347 17.9058 101.091 18.8948 101.091 19.984H103.091C103.091 19.1959 103.275 18.7035 103.528 18.3918L101.975 17.1322ZM119.681 22.096L118.919 21.4483L118.918 21.4501L119.681 22.096ZM119.681 17.806L118.91 18.4424L118.919 18.4529L118.927 18.4631L119.681 17.806ZM116.007 17.74L116.776 18.3802L116.784 18.3698L116.007 17.74ZM116.007 22.162L115.23 22.7919L115.239 22.8022L116.007 22.162ZM113.125 17.19L112.237 16.7301L112.234 16.7363L113.125 17.19ZM114.885 15.276L115.405 16.1305L115.411 16.1268L115.417 16.1231L114.885 15.276ZM119.043 14.924L118.646 15.8419L118.655 15.8456L119.043 14.924ZM120.429 16.046L119.616 16.6272L121.429 19.1665V16.046H120.429ZM120.429 14.572V13.572H119.429V14.572H120.429ZM123.267 14.572H124.267V13.572H123.267V14.572ZM122.607 27.2L123.495 27.6594V27.6594L122.607 27.2ZM120.693 29.224L120.181 28.3652L120.174 28.3692L120.693 29.224ZM115.105 29.356L114.664 30.2536L115.105 29.356ZM113.125 27.464L112.553 26.6436L111.805 27.1654L112.256 27.9585L113.125 27.464ZM115.303 25.946L116.106 25.3493L115.527 24.5711L114.731 25.1256L115.303 25.946ZM116.469 27.134L117.008 26.2917L116.999 26.286L116.469 27.134ZM119.747 26.672L118.989 26.0194L118.981 26.0298L119.747 26.672ZM120.429 24.01H121.429V21.411L119.687 23.3397L120.429 24.01ZM118.999 25L118.645 24.0647L118.634 24.0689L118.624 24.0733L118.999 25ZM114.885 24.648L114.354 25.4951L114.363 25.5011L114.373 25.5069L114.885 24.648ZM113.125 22.734L112.231 23.1812L112.236 23.1909L112.241 23.2004L113.125 22.734ZM117.789 23.954C118.848 23.954 119.763 23.548 120.445 22.7419L118.918 21.4501C118.632 21.788 118.285 21.954 117.789 21.954V23.954ZM120.443 22.7436C121.112 21.9569 121.429 21.0013 121.429 19.94H119.429C119.429 20.58 119.248 21.0618 118.919 21.4484L120.443 22.7436ZM121.429 19.94C121.429 18.879 121.112 17.9253 120.435 17.1489L118.927 18.4631C119.248 18.8307 119.429 19.2996 119.429 19.94H121.429ZM120.453 17.1696C119.774 16.3469 118.857 15.926 117.789 15.926V17.926C118.276 17.926 118.621 18.0918 118.91 18.4424L120.453 17.1696ZM117.789 15.926C116.764 15.926 115.875 16.315 115.23 17.1102L116.784 18.3698C117.019 18.0797 117.318 17.926 117.789 17.926V15.926ZM115.239 17.0998C114.602 17.8637 114.347 18.8528 114.347 19.94H116.347C116.347 19.1499 116.532 18.6723 116.775 18.3802L115.239 17.0998ZM114.347 19.94C114.347 21.0292 114.603 22.0182 115.23 22.7918L116.784 21.5322C116.531 21.2205 116.347 20.7281 116.347 19.94H114.347ZM115.239 22.8022C115.887 23.5801 116.774 23.954 117.789 23.954V21.954C117.308 21.954 117.007 21.7999 116.775 21.5218L115.239 22.8022ZM113.509 19.962C113.509 19.0546 113.687 18.29 114.016 17.6437L112.234 16.7363C111.742 17.7033 111.509 18.7868 111.509 19.962H113.509ZM114.013 17.6499C114.359 16.9818 114.822 16.4844 115.405 16.1305L114.366 14.4215C113.452 14.9769 112.742 15.7556 112.237 16.7301L114.013 17.6499ZM115.417 16.1231C115.988 15.7647 116.665 15.572 117.481 15.572V13.572C116.332 13.572 115.279 13.8486 114.354 14.4289L115.417 16.1231ZM117.481 15.572C117.82 15.572 118.206 15.6515 118.646 15.8419L119.44 14.0061C118.795 13.7272 118.139 13.572 117.481 13.572V15.572ZM118.655 15.8456C119.034 16.0053 119.352 16.2578 119.616 16.6272L121.243 15.4648C120.774 14.8076 120.167 14.3121 119.431 14.0024L118.655 15.8456ZM121.429 16.046V14.572H119.429V16.046H121.429ZM120.429 15.572H123.267V13.572H120.429V15.572ZM122.267 14.572V24.406H124.267V14.572H122.267ZM122.267 24.406C122.267 25.2675 122.081 26.04 121.719 26.7406L123.495 27.6594C124.013 26.6587 124.267 25.5685 124.267 24.406H122.267ZM121.719 26.7406C121.366 27.4228 120.86 27.9604 120.181 28.3652L121.206 30.0828C122.199 29.4903 122.968 28.6785 123.495 27.6594L121.719 26.7406ZM120.174 28.3692C119.529 28.761 118.76 28.972 117.833 28.972V30.972C119.077 30.972 120.215 30.6843 121.212 30.0788L120.174 28.3692ZM117.833 28.972C116.995 28.972 116.237 28.798 115.546 28.4584L114.664 30.2536C115.645 30.7353 116.706 30.972 117.833 30.972V28.972ZM115.546 28.4584C114.899 28.1408 114.385 27.6553 113.994 26.9695L112.256 27.9585C112.834 28.9741 113.639 29.7499 114.664 30.2536L115.546 28.4584ZM113.697 28.2844L115.875 26.7664L114.731 25.1256L112.553 26.6436L113.697 28.2844ZM114.501 26.5427C114.955 27.1534 115.432 27.6649 115.939 27.982L116.999 26.286C116.803 26.1631 116.502 25.8826 116.106 25.3493L114.501 26.5427ZM115.93 27.9763C116.493 28.3366 117.147 28.486 117.833 28.486V26.486C117.435 26.486 117.179 26.4007 117.008 26.2917L115.93 27.9763ZM117.833 28.486C118.898 28.486 119.838 28.1212 120.514 27.3142L118.981 26.0298C118.748 26.3081 118.411 26.486 117.833 26.486V28.486ZM120.505 27.3245C121.128 26.6011 121.429 25.7264 121.429 24.758H119.429C119.429 25.2855 119.276 25.6869 118.989 26.0195L120.505 27.3245ZM121.429 24.758V24.01H119.429V24.758H121.429ZM119.687 23.3397C119.377 23.6832 119.031 23.9188 118.645 24.0647L119.353 25.9353C120.053 25.6706 120.66 25.2461 121.171 24.6803L119.687 23.3397ZM118.624 24.0733C118.172 24.2564 117.794 24.33 117.481 24.33V26.33C118.107 26.33 118.741 26.1836 119.375 25.9267L118.624 24.0733ZM117.481 24.33C116.677 24.33 115.991 24.1432 115.397 23.7891L114.373 25.5069C115.305 26.0622 116.35 26.33 117.481 26.33V24.33ZM115.417 23.8009C114.823 23.4283 114.356 22.9238 114.01 22.2676L112.241 23.2004C112.745 24.1575 113.452 24.929 114.354 25.4951L115.417 23.8009ZM114.02 22.2868C113.686 21.62 113.509 20.8519 113.509 19.962H111.509C111.509 21.1254 111.743 22.2054 112.231 23.1812L114.02 22.2868ZM127.8 24.648L127.295 25.5112L127.302 25.5153L127.8 24.648ZM125.974 22.756L126.852 22.2771L125.974 22.756ZM127.8 15.276L127.302 14.4087L127.295 14.4128L127.8 15.276ZM132.992 15.21L133.52 14.3609L132.992 15.21ZM134.422 16.486L133.59 17.0407L133.596 17.0502L133.603 17.0595L134.422 16.486ZM134.994 17.476L134.045 17.7922L134.065 17.8513L134.092 17.9075L134.994 17.476ZM135.478 20.138L136.478 20.1636L136.478 20.1508V20.138H135.478ZM135.456 20.996V21.996H136.431L136.456 21.0216L135.456 20.996ZM128.02 20.996V19.996H126.77L127.044 21.2155L128.02 20.996ZM128.922 22.426L128.306 23.214L128.312 23.2186L128.318 23.2231L128.922 22.426ZM132.024 22.624L132.563 23.4663L132.571 23.461L132.024 22.624ZM132.816 21.854L133.187 20.9255L132.37 20.5984L131.942 21.3684L132.816 21.854ZM135.126 22.778L136.049 23.1626L136.439 22.2263L135.497 21.8495L135.126 22.778ZM133.498 24.582L134.031 25.4282L133.498 24.582ZM132.838 19.082V20.082H134.058L133.819 18.8859L132.838 19.082ZM132.046 17.52L131.339 18.2271L131.345 18.2338L131.352 18.2403L132.046 17.52ZM128.878 17.542L129.533 18.2977L129.535 18.2961L128.878 17.542ZM128.02 19.082L127.04 18.8816L126.795 20.082H128.02V19.082ZM130.506 24.33C129.649 24.33 128.922 24.1393 128.298 23.7807L127.302 25.5153C128.262 26.0661 129.339 26.33 130.506 26.33V24.33ZM128.305 23.7848C127.688 23.4239 127.207 22.9276 126.852 22.2771L125.096 23.2349C125.621 24.1977 126.357 24.9628 127.295 25.5112L128.305 23.7848ZM126.852 22.2771C126.502 21.636 126.314 20.8806 126.314 19.984H124.314C124.314 21.17 124.566 22.2627 125.096 23.2349L126.852 22.2771ZM126.314 19.984C126.314 19.0877 126.502 18.3219 126.855 17.6622L125.092 16.7178C124.566 17.7008 124.314 18.7976 124.314 19.984H126.314ZM126.855 17.6622C127.211 16.9975 127.692 16.4974 128.305 16.1392L127.295 14.4128C126.353 14.9639 125.616 15.7398 125.092 16.7178L126.855 17.6622ZM128.298 16.1433C128.922 15.7847 129.649 15.594 130.506 15.594V13.594C129.339 13.594 128.262 13.8579 127.302 14.4087L128.298 16.1433ZM130.506 15.594C131.369 15.594 132.001 15.7714 132.464 16.0591L133.52 14.3609C132.663 13.8273 131.638 13.594 130.506 13.594V15.594ZM132.464 16.0591C133.055 16.4269 133.404 16.7616 133.59 17.0407L135.254 15.9313C134.853 15.3304 134.249 14.8145 133.52 14.3609L132.464 16.0591ZM133.603 17.0595C133.909 17.4967 134.022 17.7228 134.045 17.7922L135.943 17.1598C135.819 16.7892 135.551 16.3553 135.241 15.9125L133.603 17.0595ZM134.092 17.9075C134.327 18.3992 134.478 19.1227 134.478 20.138H136.478C136.478 18.9533 136.306 17.9021 135.896 17.0445L134.092 17.9075ZM134.478 20.1124L134.456 20.9704L136.456 21.0216L136.478 20.1636L134.478 20.1124ZM135.456 19.996H128.02V21.996H135.456V19.996ZM127.044 21.2155C127.226 22.0252 127.653 22.7036 128.306 23.214L129.538 21.638C129.252 21.415 129.077 21.1401 128.996 20.7765L127.044 21.2155ZM128.318 23.2231C128.964 23.7128 129.702 23.976 130.506 23.976V21.976C130.166 21.976 129.847 21.8726 129.526 21.6289L128.318 23.2231ZM130.506 23.976C131.256 23.976 131.975 23.8423 132.563 23.4663L131.485 21.7817C131.339 21.875 131.047 21.976 130.506 21.976V23.976ZM132.571 23.461C133.025 23.1642 133.435 22.7996 133.69 22.3396L131.942 21.3684C131.904 21.4364 131.785 21.5851 131.477 21.787L132.571 23.461ZM132.445 22.7825L134.755 23.7065L135.497 21.8495L133.187 20.9255L132.445 22.7825ZM134.203 22.3934C134.005 22.8673 133.623 23.3217 132.965 23.7358L134.031 25.4282C134.957 24.845 135.66 24.0967 136.049 23.1626L134.203 22.3934ZM132.965 23.7358C132.372 24.109 131.573 24.33 130.506 24.33V26.33C131.844 26.33 133.04 26.0523 134.031 25.4282L132.965 23.7358ZM133.819 18.8859C133.656 18.0714 133.313 17.3515 132.74 16.7997L131.352 18.2403C131.571 18.4512 131.756 18.7726 131.857 19.2781L133.819 18.8859ZM132.753 16.8129C132.148 16.2079 131.361 15.948 130.506 15.948V17.948C130.942 17.948 131.181 18.0694 131.339 18.2271L132.753 16.8129ZM130.506 15.948C129.646 15.948 128.867 16.2256 128.221 16.7879L129.535 18.2961C129.798 18.0664 130.105 17.948 130.506 17.948V15.948ZM128.223 16.7863C127.595 17.3306 127.21 18.0502 127.04 18.8816L129 19.2824C129.094 18.8231 129.281 18.516 129.533 18.2977L128.223 16.7863ZM128.02 20.082H132.838V18.082H128.02V20.082ZM146.538 24.582L147.046 23.7211L146.538 24.582ZM144.316 22.206L143.424 22.6584L144.316 22.206ZM143.546 8.83V7.83H142.546V8.83H143.546ZM146.384 8.83H147.384V7.83H146.384V8.83ZM147.286 21.7L146.512 22.3341L147.286 21.7ZM152.654 21.7L151.888 21.0568L151.88 21.0659L152.654 21.7ZM153.578 8.83V7.83H152.578V8.83H153.578ZM156.416 8.83H157.416V7.83H156.416V8.83ZM155.646 22.206L156.537 22.6584L155.646 22.206ZM153.402 24.582L152.898 23.7177L152.893 23.7211L153.402 24.582ZM149.97 24.44C148.797 24.44 147.835 24.1873 147.046 23.7211L146.029 25.4429C147.176 26.1207 148.502 26.44 149.97 26.44V24.44ZM147.046 23.7211C146.244 23.2469 145.635 22.5974 145.207 21.7536L143.424 22.6584C144.022 23.8386 144.895 24.7731 146.029 25.4429L147.046 23.7211ZM145.207 21.7536C144.776 20.903 144.546 19.8965 144.546 18.708H142.546C142.546 20.1595 142.829 21.485 143.424 22.6584L145.207 21.7536ZM144.546 18.708V8.83H142.546V18.708H144.546ZM143.546 9.83H146.384V7.83H143.546V9.83ZM145.384 8.83V18.686H147.384V8.83H145.384ZM145.384 18.686C145.384 20.1133 145.721 21.3686 146.512 22.3341L148.059 21.0659C147.648 20.5647 147.384 19.8107 147.384 18.686H145.384ZM146.512 22.3341C147.35 23.3561 148.565 23.8 149.97 23.8V21.8C148.999 21.8 148.423 21.5105 148.059 21.0659L146.512 22.3341ZM149.97 23.8C151.375 23.8 152.589 23.3561 153.427 22.3341L151.88 21.0659C151.516 21.5105 150.941 21.8 149.97 21.8V23.8ZM153.419 22.3432C154.231 21.3774 154.578 20.1185 154.578 18.686H152.578C152.578 19.8055 152.309 20.5559 151.888 21.0568L153.419 22.3432ZM154.578 18.686V8.83H152.578V18.686H154.578ZM153.578 9.83H156.416V7.83H153.578V9.83ZM155.416 8.83V18.708H157.416V8.83H155.416ZM155.416 18.708C155.416 19.8965 155.185 20.903 154.754 21.7536L156.537 22.6584C157.133 21.485 157.416 20.1595 157.416 18.708H155.416ZM154.754 21.7536C154.328 22.5934 153.715 23.2425 152.898 23.7178L153.905 25.4462C155.054 24.7775 155.937 23.8426 156.537 22.6584L154.754 21.7536ZM152.893 23.7211C152.104 24.1873 151.142 24.44 149.97 24.44V26.44C151.437 26.44 152.763 26.1207 153.91 25.4429L152.893 23.7211ZM160.966 21.392L161.906 21.0503L161.502 19.9399L160.474 20.5216L160.966 21.392ZM161.846 22.558L161.265 23.3717L161.281 23.3834L161.298 23.3945L161.846 22.558ZM164.156 22.756L164.642 23.6302L164.66 23.6201L164.678 23.6093L164.156 22.756ZM164.134 21.546L163.648 22.4202L163.658 22.4256L163.668 22.4309L164.134 21.546ZM162.748 20.952L163.102 20.0165L163.092 20.0128L163.082 20.0094L162.748 20.952ZM160.966 20.226L160.497 21.1091L160.513 21.1178L160.53 21.1258L160.966 20.226ZM159.734 19.214L158.964 19.8516L159.734 19.214ZM160.35 15.32L159.767 14.5073L159.76 14.5126L160.35 15.32ZM165.608 15.188L165.084 16.0397L165.096 16.0469L165.608 15.188ZM167.148 17.212L167.504 18.1465L168.369 17.8169L168.107 16.929L167.148 17.212ZM164.838 18.092L163.891 18.4133L164.225 19.3959L165.194 19.0265L164.838 18.092ZM162.352 17.058L161.838 16.2005L161.824 16.2085L161.811 16.2168L162.352 17.058ZM162.418 18.136L161.95 19.0198L161.961 19.0252L161.971 19.0304L162.418 18.136ZM163.826 18.708L163.479 19.646L163.486 19.6484L163.826 18.708ZM165.586 19.456L165.128 20.345L165.139 20.3505L165.15 20.3558L165.586 19.456ZM166.84 20.446L167.611 19.8084L166.84 20.446ZM166.18 24.45L165.575 23.6535L165.568 23.659L166.18 24.45ZM160.548 24.582L160.018 25.43L160.548 24.582ZM158.788 22.624L158.296 21.7536L157.506 22.2006L157.874 23.0301L158.788 22.624ZM160.026 21.7337C160.27 22.4035 160.686 22.9584 161.265 23.3717L162.427 21.7443C162.185 21.571 162.014 21.3485 161.906 21.0503L160.026 21.7337ZM161.298 23.3945C161.833 23.745 162.425 23.976 163.056 23.976V21.976C162.925 21.976 162.71 21.9283 162.394 21.7215L161.298 23.3945ZM163.056 23.976C163.61 23.976 164.169 23.8928 164.642 23.6302L163.67 21.8818C163.615 21.9125 163.441 21.976 163.056 21.976V23.976ZM164.678 23.6093C165.2 23.2903 165.552 22.7666 165.552 22.096H163.552C163.552 22.0862 163.553 22.0657 163.561 22.0381C163.568 22.01 163.58 21.9816 163.596 21.9555C163.628 21.9014 163.657 21.889 163.635 21.9027L164.678 23.6093ZM165.552 22.096C165.552 21.3535 165.047 20.8966 164.6 20.6611L163.668 22.4309C163.723 22.4598 163.696 22.4577 163.651 22.3986C163.627 22.3667 163.601 22.3218 163.581 22.2644C163.561 22.2065 163.552 22.1486 163.552 22.096H165.552ZM164.62 20.6718C164.286 20.4864 163.763 20.2665 163.102 20.0165L162.395 21.8875C163.053 22.1362 163.454 22.3123 163.648 22.4202L164.62 20.6718ZM163.082 20.0094C162.401 19.768 161.843 19.5399 161.402 19.3262L160.53 21.1258C161.057 21.3815 161.688 21.6373 162.414 21.8946L163.082 20.0094ZM161.435 19.3429C161.086 19.1573 160.776 18.905 160.505 18.5764L158.964 19.8516C159.396 20.3737 159.908 20.796 160.497 21.1091L161.435 19.3429ZM160.505 18.5764C160.325 18.3598 160.206 18.0618 160.206 17.608H158.206C158.206 18.4448 158.439 19.2175 158.964 19.8516L160.505 18.5764ZM160.206 17.608C160.206 16.9498 160.443 16.491 160.94 16.1274L159.76 14.5126C158.732 15.2637 158.206 16.3302 158.206 17.608H160.206ZM160.933 16.1327C161.505 15.7225 162.264 15.484 163.276 15.484V13.484C161.942 13.484 160.75 13.8028 159.767 14.5073L160.933 16.1327ZM163.276 15.484C163.86 15.484 164.458 15.6543 165.084 16.0397L166.132 14.3363C165.233 13.783 164.277 13.484 163.276 13.484V15.484ZM165.096 16.0469C165.631 16.3657 165.992 16.8283 166.189 17.495L168.107 16.929C167.776 15.8063 167.111 14.9196 166.12 14.3291L165.096 16.0469ZM166.792 16.2775L164.482 17.1575L165.194 19.0265L167.504 18.1465L166.792 16.2775ZM165.785 17.7707C165.602 17.2325 165.31 16.7396 164.858 16.3828C164.395 16.0179 163.847 15.86 163.276 15.86V17.86C163.468 17.86 163.561 17.9074 163.619 17.9532C163.688 18.0071 163.795 18.1302 163.891 18.4133L165.785 17.7707ZM163.276 15.86C162.789 15.86 162.276 15.9377 161.838 16.2005L162.867 17.9155C162.864 17.9173 162.888 17.9023 162.958 17.8873C163.028 17.8723 163.131 17.86 163.276 17.86V15.86ZM161.811 16.2168C161.334 16.5239 161.044 17.0169 161.044 17.608H163.044C163.044 17.6414 163.035 17.7087 162.994 17.7831C162.953 17.8559 162.906 17.891 162.893 17.8992L161.811 16.2168ZM161.044 17.608C161.044 18.3069 161.482 18.7719 161.95 19.0198L162.886 17.2522C162.859 17.2377 162.902 17.254 162.954 17.327C163.014 17.4115 163.044 17.5154 163.044 17.608H161.044ZM161.971 19.0304C162.289 19.1896 162.805 19.3968 163.479 19.646L164.173 17.77C163.498 17.5205 163.075 17.3464 162.865 17.2416L161.971 19.0304ZM163.486 19.6484C164.148 19.8878 164.693 20.1207 165.128 20.345L166.044 18.567C165.511 18.2927 164.883 18.0269 164.166 17.7676L163.486 19.6484ZM165.15 20.3558C165.502 20.5263 165.807 20.7656 166.07 21.0836L167.611 19.8084C167.17 19.2758 166.639 18.855 166.022 18.5562L165.15 20.3558ZM166.07 21.0836C166.252 21.3043 166.368 21.5971 166.368 22.03H168.368C168.368 21.2016 168.132 20.4383 167.611 19.8084L166.07 21.0836ZM166.368 22.03C166.368 22.7358 166.113 23.2452 165.575 23.6536L166.785 25.2464C167.831 24.4521 168.368 23.3482 168.368 22.03H166.368ZM165.568 23.659C165.016 24.0863 164.213 24.352 163.056 24.352V26.352C164.51 26.352 165.79 26.0164 166.792 25.241L165.568 23.659ZM163.056 24.352C162.418 24.352 161.763 24.1621 161.078 23.734L160.018 25.43C160.976 26.0286 161.993 26.352 163.056 26.352V24.352ZM161.078 23.734C160.405 23.3135 159.964 22.8066 159.702 22.2179L157.874 23.0301C158.317 24.0254 159.048 24.8239 160.018 25.43L161.078 23.734ZM159.28 23.4944L161.458 22.2624L160.474 20.5216L158.296 21.7536L159.28 23.4944ZM171.993 24.648L171.488 25.5112L171.495 25.5153L171.993 24.648ZM170.167 22.756L171.045 22.2771L170.167 22.756ZM171.993 15.276L171.495 14.4087L171.488 14.4128L171.993 15.276ZM177.185 15.21L177.714 14.3609L177.185 15.21ZM178.615 16.486L177.783 17.0407L177.79 17.0502L177.796 17.0595L178.615 16.486ZM179.187 17.476L178.239 17.7922L178.258 17.8513L178.285 17.9075L179.187 17.476ZM179.671 20.138L180.671 20.1636L180.671 20.1508V20.138H179.671ZM179.649 20.996V21.996H180.624L180.649 21.0216L179.649 20.996ZM172.213 20.996V19.996H170.963L171.238 21.2155L172.213 20.996ZM173.115 22.426L172.5 23.214L172.505 23.2186L172.511 23.2231L173.115 22.426ZM176.217 22.624L176.756 23.4663L176.765 23.461L176.217 22.624ZM177.009 21.854L177.381 20.9255L176.563 20.5984L176.135 21.3684L177.009 21.854ZM179.319 22.778L180.242 23.1626L180.633 22.2263L179.691 21.8495L179.319 22.778ZM177.691 24.582L178.224 25.4282L177.691 24.582ZM177.031 19.082V20.082H178.251L178.012 18.8859L177.031 19.082ZM176.239 17.52L175.532 18.2271L175.539 18.2338L175.546 18.2403L176.239 17.52ZM173.071 17.542L173.726 18.2977L173.728 18.2961L173.071 17.542ZM172.213 19.082L171.234 18.8816L170.988 20.082H172.213V19.082ZM174.699 24.33C173.843 24.33 173.116 24.1393 172.491 23.7807L171.495 25.5153C172.455 26.0661 173.532 26.33 174.699 26.33V24.33ZM172.498 23.7848C171.881 23.4239 171.4 22.9276 171.045 22.2771L169.289 23.2349C169.815 24.1977 170.551 24.9628 171.488 25.5112L172.498 23.7848ZM171.045 22.2771C170.695 21.636 170.507 20.8806 170.507 19.984H168.507C168.507 21.17 168.759 22.2627 169.289 23.2349L171.045 22.2771ZM170.507 19.984C170.507 19.0877 170.695 18.3219 171.049 17.6622L169.286 16.7178C168.759 17.7008 168.507 18.7976 168.507 19.984H170.507ZM171.049 17.6622C171.405 16.9975 171.886 16.4974 172.498 16.1392L171.488 14.4128C170.546 14.9639 169.81 15.7398 169.286 16.7178L171.049 17.6622ZM172.491 16.1433C173.116 15.7847 173.843 15.594 174.699 15.594V13.594C173.532 13.594 172.455 13.8579 171.495 14.4087L172.491 16.1433ZM174.699 15.594C175.562 15.594 176.195 15.7714 176.657 16.0591L177.714 14.3609C176.856 13.8273 175.831 13.594 174.699 13.594V15.594ZM176.657 16.0591C177.248 16.4269 177.597 16.7616 177.783 17.0407L179.447 15.9313C179.047 15.3304 178.442 14.8145 177.714 14.3609L176.657 16.0591ZM177.796 17.0595C178.102 17.4967 178.215 17.7228 178.239 17.7922L180.136 17.1598C180.012 16.7892 179.744 16.3553 179.435 15.9125L177.796 17.0595ZM178.285 17.9075C178.52 18.3992 178.671 19.1227 178.671 20.138H180.671C180.671 18.9533 180.5 17.9021 180.089 17.0445L178.285 17.9075ZM178.672 20.1124L178.65 20.9704L180.649 21.0216L180.671 20.1636L178.672 20.1124ZM179.649 19.996H172.213V21.996H179.649V19.996ZM171.238 21.2155C171.42 22.0252 171.846 22.7036 172.5 23.214L173.731 21.638C173.446 21.415 173.271 21.1401 173.189 20.7765L171.238 21.2155ZM172.511 23.2231C173.158 23.7128 173.895 23.976 174.699 23.976V21.976C174.359 21.976 174.041 21.8726 173.719 21.6289L172.511 23.2231ZM174.699 23.976C175.449 23.976 176.169 23.8423 176.756 23.4663L175.678 21.7817C175.532 21.875 175.24 21.976 174.699 21.976V23.976ZM176.765 23.461C177.218 23.1642 177.628 22.7996 177.883 22.3396L176.135 21.3684C176.097 21.4364 175.979 21.5851 175.67 21.787L176.765 23.461ZM176.638 22.7825L178.948 23.7065L179.691 21.8495L177.381 20.9255L176.638 22.7825ZM178.396 22.3934C178.199 22.8673 177.816 23.3217 177.158 23.7358L178.224 25.4282C179.15 24.845 179.853 24.0967 180.242 23.1626L178.396 22.3934ZM177.158 23.7358C176.566 24.109 175.766 24.33 174.699 24.33V26.33C176.037 26.33 177.233 26.0523 178.224 25.4282L177.158 23.7358ZM178.012 18.8859C177.849 18.0714 177.506 17.3515 176.933 16.7997L175.546 18.2403C175.765 18.4512 175.95 18.7726 176.051 19.2781L178.012 18.8859ZM176.946 16.8129C176.341 16.2079 175.554 15.948 174.699 15.948V17.948C175.135 17.948 175.374 18.0694 175.532 18.2271L176.946 16.8129ZM174.699 15.948C173.839 15.948 173.06 16.2256 172.415 16.7879L173.728 18.2961C173.992 18.0664 174.298 17.948 174.699 17.948V15.948ZM172.416 16.7863C171.788 17.3306 171.404 18.0502 171.234 18.8816L173.193 19.2824C173.287 18.8231 173.474 18.516 173.726 18.2977L172.416 16.7863ZM172.213 20.082H177.031V18.082H172.213V20.082Z" fill="#FFE7B9" mask="url(#path-2-outside-1_9954_40667)"/>
</svg>
