<svg width="160" height="34" viewBox="0 0 160 34" fill="none" xmlns="http://www.w3.org/2000/svg">
<rect width="160" height="34" rx="16" fill="#4B93FF"/>
<g clip-path="url(#clip0_9954_40558)">
<path d="M33.8182 6.19092H14.1299C12.9351 6.19092 12 7.10839 12 8.28072V20.055C12 21.2273 12.9351 22.1448 14.1299 22.1448H15.4286V27.1909L20.5714 22.1448H33.8701C35.0649 22.1448 36 21.2273 36 20.055V8.28072C35.9481 7.15936 35.013 6.19092 33.8182 6.19092Z" fill="white"/>
<path d="M18.68 16.36C19.6078 16.36 20.36 15.6078 20.36 14.68C20.36 13.7522 19.6078 13 18.68 13C17.7522 13 17 13.7522 17 14.68C17 15.6078 17.7522 16.36 18.68 16.36Z" fill="#0682FF"/>
<path d="M23.6341 16.36C24.5619 16.36 25.3141 15.6078 25.3141 14.68C25.3141 13.7522 24.5619 13 23.6341 13C22.7063 13 21.9541 13.7522 21.9541 14.68C21.9541 15.6078 22.7063 16.36 23.6341 16.36Z" fill="#0682FF"/>
<path d="M28.6312 16.36C29.559 16.36 30.3112 15.6078 30.3112 14.68C30.3112 13.7522 29.559 13 28.6312 13C27.7033 13 26.9512 13.7522 26.9512 14.68C26.9512 15.6078 27.7033 16.36 28.6312 16.36Z" fill="#0682FF"/>
</g>
<mask id="path-6-outside-1_9954_40558" maskUnits="userSpaceOnUse" x="44" y="6" width="109" height="22" fill="black">
<rect fill="white" x="44" y="6" width="109" height="22"/>
<path d="M49.586 20.556C50.0553 21.4653 50.6127 22.1547 51.258 22.624C51.918 23.0933 52.6147 23.328 53.348 23.328C54.36 23.328 55.1447 23.1007 55.702 22.646C56.2593 22.1767 56.538 21.5533 56.538 20.776C56.538 20.2627 56.384 19.83 56.076 19.478C55.7827 19.126 55.4087 18.8473 54.954 18.642C54.514 18.422 53.898 18.1653 53.106 17.872C52.094 17.5053 51.2727 17.1533 50.642 16.816C50.0113 16.4787 49.476 16.002 49.036 15.386C48.596 14.77 48.376 13.978 48.376 13.01C48.376 12.1447 48.596 11.3893 49.036 10.744C49.476 10.0987 50.0847 9.60733 50.862 9.27C51.6393 8.93267 52.5267 8.764 53.524 8.764C54.6533 8.764 55.6653 9.07933 56.56 9.71C57.4693 10.326 58.144 11.25 58.584 12.482L56.494 13.23C56.2153 12.4233 55.8193 11.822 55.306 11.426C54.7927 11.0153 54.2133 10.8027 53.568 10.788C52.7027 10.788 52.006 10.9933 51.478 11.404C50.9647 11.8 50.708 12.3353 50.708 13.01C50.708 13.5233 50.8547 13.956 51.148 14.308C51.456 14.66 51.8373 14.9533 52.292 15.188C52.7613 15.408 53.3847 15.6647 54.162 15.958C55.174 16.354 55.988 16.7207 56.604 17.058C57.22 17.3953 57.748 17.872 58.188 18.488C58.628 19.0893 58.848 19.8593 58.848 20.798C58.848 21.6927 58.628 22.4847 58.188 23.174C57.748 23.8633 57.11 24.3987 56.274 24.78C55.4527 25.1613 54.4847 25.352 53.37 25.352C52.182 25.352 51.104 25.0367 50.136 24.406C49.168 23.7607 48.3393 22.8367 47.65 21.634L49.586 20.556ZM75.2466 19.236C75.2466 18.488 75.0633 17.8867 74.6966 17.432C74.3299 16.9773 73.8459 16.75 73.2446 16.75C72.5846 16.75 72.0419 16.9773 71.6166 17.432C71.2059 17.8867 71.0006 18.4513 71.0006 19.126V25.198H68.6466V19.236C68.6466 18.488 68.4633 17.8867 68.0966 17.432C67.7446 16.9773 67.2753 16.75 66.6886 16.75C66.0286 16.75 65.4786 16.9993 65.0386 17.498C64.6133 17.9967 64.4006 18.62 64.4006 19.368V25.198H62.0686V14.704H64.4006V16.134C64.7233 15.7087 65.0973 15.3713 65.5226 15.122C65.9626 14.858 66.4246 14.726 66.9086 14.726C67.5246 14.726 68.1186 14.902 68.6906 15.254C69.2626 15.606 69.7026 16.0607 70.0106 16.618C70.3773 16.0607 70.8759 15.606 71.5066 15.254C72.1373 14.902 72.7679 14.726 73.3986 14.726C74.2199 14.726 74.9459 14.9167 75.5766 15.298C76.2219 15.6793 76.7206 16.2073 77.0726 16.882C77.4246 17.542 77.6006 18.2973 77.6006 19.148V25.198H75.2466V19.236ZM85.1385 25.286C84.1852 25.286 83.3272 25.0587 82.5645 24.604C81.8165 24.1493 81.2298 23.526 80.8045 22.734C80.3792 21.9273 80.1665 21.018 80.1665 20.006C80.1665 18.994 80.3792 18.092 80.8045 17.3C81.2298 16.4933 81.8165 15.8627 82.5645 15.408C83.3272 14.9533 84.1852 14.726 85.1385 14.726C85.6812 14.726 86.2165 14.8507 86.7445 15.1C87.2725 15.3493 87.7418 15.716 88.1525 16.2V14.704H90.4845V25.198H88.1525V23.79C87.7565 24.2887 87.2945 24.6627 86.7665 24.912C86.2385 25.1613 85.6958 25.286 85.1385 25.286ZM82.4985 20.006C82.4985 20.9887 82.7552 21.788 83.2685 22.404C83.7818 23.0053 84.4565 23.306 85.2925 23.306C85.8058 23.306 86.2825 23.1667 86.7225 22.888C87.1625 22.5947 87.5145 22.1987 87.7785 21.7C88.0425 21.1867 88.1745 20.622 88.1745 20.006C88.1745 19.39 88.0425 18.8327 87.7785 18.334C87.5145 17.8207 87.1625 17.4247 86.7225 17.146C86.2825 16.8527 85.8058 16.706 85.2925 16.706C84.4565 16.706 83.7818 17.0067 83.2685 17.608C82.7552 18.2093 82.4985 19.0087 82.4985 20.006ZM95.6526 9.468V25.176H93.3206V9.468H95.6526ZM100.852 9.468V25.176H98.5198V9.468H100.852ZM120.207 10.986H115.631V25.176H113.277V10.986H108.679V8.94H120.207V10.986ZM125.228 25.286C124.275 25.286 123.417 25.0587 122.654 24.604C121.906 24.1493 121.32 23.526 120.894 22.734C120.469 21.9273 120.256 21.018 120.256 20.006C120.256 18.994 120.469 18.092 120.894 17.3C121.32 16.4933 121.906 15.8627 122.654 15.408C123.417 14.9533 124.275 14.726 125.228 14.726C125.771 14.726 126.306 14.8507 126.834 15.1C127.362 15.3493 127.832 15.716 128.242 16.2V14.704H130.574V25.198H128.242V23.79C127.846 24.2887 127.384 24.6627 126.856 24.912C126.328 25.1613 125.786 25.286 125.228 25.286ZM122.588 20.006C122.588 20.9887 122.845 21.788 123.358 22.404C123.872 23.0053 124.546 23.306 125.382 23.306C125.896 23.306 126.372 23.1667 126.812 22.888C127.252 22.5947 127.604 22.1987 127.868 21.7C128.132 21.1867 128.264 20.622 128.264 20.006C128.264 19.39 128.132 18.8327 127.868 18.334C127.604 17.8207 127.252 17.4247 126.812 17.146C126.372 16.8527 125.896 16.706 125.382 16.706C124.546 16.706 123.872 17.0067 123.358 17.608C122.845 18.2093 122.588 19.0087 122.588 20.006ZM135.742 9.468V25.176H133.41V9.468H135.742ZM141.228 19.038L144.968 14.704H148.114L144.022 19.39L148.026 25.198H145.188L142.35 21.128L141.228 22.448V25.198H138.896V9.468H141.228V19.038Z"/>
</mask>
<path d="M49.586 20.556C50.0553 21.4653 50.6127 22.1547 51.258 22.624C51.918 23.0933 52.6147 23.328 53.348 23.328C54.36 23.328 55.1447 23.1007 55.702 22.646C56.2593 22.1767 56.538 21.5533 56.538 20.776C56.538 20.2627 56.384 19.83 56.076 19.478C55.7827 19.126 55.4087 18.8473 54.954 18.642C54.514 18.422 53.898 18.1653 53.106 17.872C52.094 17.5053 51.2727 17.1533 50.642 16.816C50.0113 16.4787 49.476 16.002 49.036 15.386C48.596 14.77 48.376 13.978 48.376 13.01C48.376 12.1447 48.596 11.3893 49.036 10.744C49.476 10.0987 50.0847 9.60733 50.862 9.27C51.6393 8.93267 52.5267 8.764 53.524 8.764C54.6533 8.764 55.6653 9.07933 56.56 9.71C57.4693 10.326 58.144 11.25 58.584 12.482L56.494 13.23C56.2153 12.4233 55.8193 11.822 55.306 11.426C54.7927 11.0153 54.2133 10.8027 53.568 10.788C52.7027 10.788 52.006 10.9933 51.478 11.404C50.9647 11.8 50.708 12.3353 50.708 13.01C50.708 13.5233 50.8547 13.956 51.148 14.308C51.456 14.66 51.8373 14.9533 52.292 15.188C52.7613 15.408 53.3847 15.6647 54.162 15.958C55.174 16.354 55.988 16.7207 56.604 17.058C57.22 17.3953 57.748 17.872 58.188 18.488C58.628 19.0893 58.848 19.8593 58.848 20.798C58.848 21.6927 58.628 22.4847 58.188 23.174C57.748 23.8633 57.11 24.3987 56.274 24.78C55.4527 25.1613 54.4847 25.352 53.37 25.352C52.182 25.352 51.104 25.0367 50.136 24.406C49.168 23.7607 48.3393 22.8367 47.65 21.634L49.586 20.556ZM75.2466 19.236C75.2466 18.488 75.0633 17.8867 74.6966 17.432C74.3299 16.9773 73.8459 16.75 73.2446 16.75C72.5846 16.75 72.0419 16.9773 71.6166 17.432C71.2059 17.8867 71.0006 18.4513 71.0006 19.126V25.198H68.6466V19.236C68.6466 18.488 68.4633 17.8867 68.0966 17.432C67.7446 16.9773 67.2753 16.75 66.6886 16.75C66.0286 16.75 65.4786 16.9993 65.0386 17.498C64.6133 17.9967 64.4006 18.62 64.4006 19.368V25.198H62.0686V14.704H64.4006V16.134C64.7233 15.7087 65.0973 15.3713 65.5226 15.122C65.9626 14.858 66.4246 14.726 66.9086 14.726C67.5246 14.726 68.1186 14.902 68.6906 15.254C69.2626 15.606 69.7026 16.0607 70.0106 16.618C70.3773 16.0607 70.8759 15.606 71.5066 15.254C72.1373 14.902 72.7679 14.726 73.3986 14.726C74.2199 14.726 74.9459 14.9167 75.5766 15.298C76.2219 15.6793 76.7206 16.2073 77.0726 16.882C77.4246 17.542 77.6006 18.2973 77.6006 19.148V25.198H75.2466V19.236ZM85.1385 25.286C84.1852 25.286 83.3272 25.0587 82.5645 24.604C81.8165 24.1493 81.2298 23.526 80.8045 22.734C80.3792 21.9273 80.1665 21.018 80.1665 20.006C80.1665 18.994 80.3792 18.092 80.8045 17.3C81.2298 16.4933 81.8165 15.8627 82.5645 15.408C83.3272 14.9533 84.1852 14.726 85.1385 14.726C85.6812 14.726 86.2165 14.8507 86.7445 15.1C87.2725 15.3493 87.7418 15.716 88.1525 16.2V14.704H90.4845V25.198H88.1525V23.79C87.7565 24.2887 87.2945 24.6627 86.7665 24.912C86.2385 25.1613 85.6958 25.286 85.1385 25.286ZM82.4985 20.006C82.4985 20.9887 82.7552 21.788 83.2685 22.404C83.7818 23.0053 84.4565 23.306 85.2925 23.306C85.8058 23.306 86.2825 23.1667 86.7225 22.888C87.1625 22.5947 87.5145 22.1987 87.7785 21.7C88.0425 21.1867 88.1745 20.622 88.1745 20.006C88.1745 19.39 88.0425 18.8327 87.7785 18.334C87.5145 17.8207 87.1625 17.4247 86.7225 17.146C86.2825 16.8527 85.8058 16.706 85.2925 16.706C84.4565 16.706 83.7818 17.0067 83.2685 17.608C82.7552 18.2093 82.4985 19.0087 82.4985 20.006ZM95.6526 9.468V25.176H93.3206V9.468H95.6526ZM100.852 9.468V25.176H98.5198V9.468H100.852ZM120.207 10.986H115.631V25.176H113.277V10.986H108.679V8.94H120.207V10.986ZM125.228 25.286C124.275 25.286 123.417 25.0587 122.654 24.604C121.906 24.1493 121.32 23.526 120.894 22.734C120.469 21.9273 120.256 21.018 120.256 20.006C120.256 18.994 120.469 18.092 120.894 17.3C121.32 16.4933 121.906 15.8627 122.654 15.408C123.417 14.9533 124.275 14.726 125.228 14.726C125.771 14.726 126.306 14.8507 126.834 15.1C127.362 15.3493 127.832 15.716 128.242 16.2V14.704H130.574V25.198H128.242V23.79C127.846 24.2887 127.384 24.6627 126.856 24.912C126.328 25.1613 125.786 25.286 125.228 25.286ZM122.588 20.006C122.588 20.9887 122.845 21.788 123.358 22.404C123.872 23.0053 124.546 23.306 125.382 23.306C125.896 23.306 126.372 23.1667 126.812 22.888C127.252 22.5947 127.604 22.1987 127.868 21.7C128.132 21.1867 128.264 20.622 128.264 20.006C128.264 19.39 128.132 18.8327 127.868 18.334C127.604 17.8207 127.252 17.4247 126.812 17.146C126.372 16.8527 125.896 16.706 125.382 16.706C124.546 16.706 123.872 17.0067 123.358 17.608C122.845 18.2093 122.588 19.0087 122.588 20.006ZM135.742 9.468V25.176H133.41V9.468H135.742ZM141.228 19.038L144.968 14.704H148.114L144.022 19.39L148.026 25.198H145.188L142.35 21.128L141.228 22.448V25.198H138.896V9.468H141.228V19.038Z" fill="white"/>
<path d="M49.586 20.556L51.3632 19.6387L50.4165 17.8044L48.613 18.8086L49.586 20.556ZM51.258 22.624L50.0817 24.2415L50.0903 24.2477L50.099 24.2539L51.258 22.624ZM55.702 22.646L56.9663 24.1957L56.9783 24.1859L56.9903 24.1758L55.702 22.646ZM56.076 19.478L54.5396 20.7584L54.555 20.7769L54.5708 20.795L56.076 19.478ZM54.954 18.642L54.0596 20.4309L54.0949 20.4485L54.1308 20.4647L54.954 18.642ZM53.106 17.872L53.8006 15.9965L53.794 15.994L53.7873 15.9916L53.106 17.872ZM50.642 16.816L49.6987 18.5796L50.642 16.816ZM49.036 15.386L47.4085 16.5485H47.4085L49.036 15.386ZM49.036 10.744L50.6885 11.8707L50.6885 11.8707L49.036 10.744ZM50.862 9.27L50.0658 7.43531L50.862 9.27ZM56.56 9.71L55.4077 11.3447L55.4229 11.3554L55.4383 11.3658L56.56 9.71ZM58.584 12.482L59.2579 14.365L61.1397 13.6916L60.4675 11.8093L58.584 12.482ZM56.494 13.23L54.6036 13.883L55.2639 15.7945L57.1679 15.113L56.494 13.23ZM55.306 11.426L54.0566 12.9877L54.0704 12.9988L54.0844 13.0096L55.306 11.426ZM53.568 10.788L53.6134 8.78852L53.5907 8.788H53.568V10.788ZM51.478 11.404L52.6996 12.9876L52.7059 12.9827L51.478 11.404ZM51.148 14.308L49.6116 15.5884L49.627 15.6069L49.6428 15.625L51.148 14.308ZM52.292 15.188L51.3747 16.9652L51.4086 16.9827L51.4431 16.9989L52.292 15.188ZM54.162 15.958L54.8908 14.0955L54.8795 14.0911L54.8681 14.0868L54.162 15.958ZM56.604 17.058L57.5646 15.3038H57.5646L56.604 17.058ZM58.188 18.488L56.5605 19.6505L56.5672 19.6598L56.5739 19.669L58.188 18.488ZM58.188 23.174L56.5022 22.0979H56.5022L58.188 23.174ZM56.274 24.78L55.444 22.9603L55.4318 22.966L56.274 24.78ZM50.136 24.406L49.0266 26.0701L49.0354 26.076L49.0442 26.0817L50.136 24.406ZM47.65 21.634L46.677 19.8866L44.9079 20.8717L45.9148 22.6286L47.65 21.634ZM47.8088 21.4733C48.3819 22.5838 49.1232 23.5444 50.0817 24.2415L52.4343 21.0065C52.1021 20.7649 51.7287 20.3468 51.3632 19.6387L47.8088 21.4733ZM50.099 24.2539C51.0605 24.9377 52.156 25.328 53.348 25.328V21.328C53.0733 21.328 52.7755 21.249 52.417 20.9941L50.099 24.2539ZM53.348 25.328C54.6362 25.328 55.9312 25.0401 56.9663 24.1957L54.4377 21.0963C54.3581 21.1612 54.0838 21.328 53.348 21.328V25.328ZM56.9903 24.1758C58.0322 23.2984 58.538 22.0983 58.538 20.776H54.538C54.538 20.9222 54.5128 20.9887 54.5032 21.0102C54.4951 21.0283 54.4775 21.0625 54.4137 21.1162L56.9903 24.1758ZM58.538 20.776C58.538 19.8291 58.2402 18.9141 57.5812 18.161L54.5708 20.795C54.5681 20.7918 54.5618 20.784 54.5547 20.7719C54.5475 20.7597 54.542 20.7475 54.5383 20.7371C54.5347 20.727 54.5344 20.723 54.5351 20.7275C54.5359 20.7323 54.538 20.7477 54.538 20.776H58.538ZM57.6124 18.1976C57.1087 17.5931 56.4827 17.1379 55.7772 16.8193L54.1308 20.4647C54.3347 20.5568 54.4566 20.6589 54.5396 20.7584L57.6124 18.1976ZM55.8484 16.8531C55.3136 16.5857 54.62 16.3 53.8006 15.9965L52.4114 19.7475C53.176 20.0307 53.7144 20.2583 54.0596 20.4309L55.8484 16.8531ZM53.7873 15.9916C52.8252 15.643 52.1008 15.3282 51.5853 15.0524L49.6987 18.5796C50.4445 18.9785 51.3628 19.3676 52.4247 19.7524L53.7873 15.9916ZM51.5853 15.0524C51.2417 14.8686 50.9354 14.6042 50.6635 14.2235L47.4085 16.5485C48.0166 17.3998 48.781 18.0887 49.6987 18.5796L51.5853 15.0524ZM50.6635 14.2235C50.5256 14.0305 50.376 13.6775 50.376 13.01H46.376C46.376 14.2785 46.6664 15.5095 47.4085 16.5485L50.6635 14.2235ZM50.376 13.01C50.376 12.5014 50.4991 12.1484 50.6885 11.8707L47.3835 9.61733C46.6929 10.6302 46.376 11.7879 46.376 13.01H50.376ZM50.6885 11.8707C50.8976 11.5639 51.1968 11.3049 51.6582 11.1047L50.0658 7.43531C48.9725 7.90976 48.0544 8.6334 47.3835 9.61733L50.6885 11.8707ZM51.6582 11.1047C52.1438 10.894 52.7528 10.764 53.524 10.764V6.764C52.3006 6.764 51.1349 6.97138 50.0658 7.43531L51.6582 11.1047ZM53.524 10.764C54.2547 10.764 54.8615 10.9596 55.4077 11.3447L57.7123 8.07532C56.4692 7.19902 55.052 6.764 53.524 6.764V10.764ZM55.4383 11.3658C55.9323 11.7005 56.3754 12.2444 56.7005 13.1547L60.4675 11.8093C59.9126 10.2556 59.0064 8.95151 57.6817 8.05416L55.4383 11.3658ZM57.9101 10.599L55.8201 11.347L57.1679 15.113L59.2579 14.365L57.9101 10.599ZM58.3844 12.577C58.0179 11.5162 57.4336 10.5414 56.5276 9.84243L54.0844 13.0096C54.205 13.1026 54.4127 13.3305 54.6036 13.883L58.3844 12.577ZM56.5554 9.86426C55.7064 9.18507 54.7059 8.81334 53.6134 8.78852L53.5226 12.7875C53.7208 12.792 53.8789 12.8456 54.0566 12.9877L56.5554 9.86426ZM53.568 8.788C52.3896 8.788 51.2206 9.07048 50.2501 9.82529L52.7059 12.9827C52.7914 12.9162 53.0158 12.788 53.568 12.788V8.788ZM50.2564 9.82044C49.2294 10.6127 48.708 11.7447 48.708 13.01H52.708C52.708 12.9683 52.7119 12.9482 52.7126 12.9451C52.7129 12.9435 52.7127 12.9452 52.7112 12.9495C52.7097 12.954 52.7073 12.96 52.7039 12.9672C52.7005 12.9743 52.6966 12.9812 52.6925 12.9876C52.6885 12.994 52.6849 12.9986 52.6825 13.0015C52.6774 13.0077 52.6805 13.0023 52.6996 12.9876L50.2564 9.82044ZM48.708 13.01C48.708 13.9313 48.9825 14.8335 49.6116 15.5884L52.6844 13.0276C52.6881 13.032 52.6939 13.0399 52.7 13.0507C52.706 13.0615 52.71 13.071 52.7121 13.0774C52.7142 13.0836 52.7134 13.0831 52.7119 13.0735C52.7104 13.0636 52.708 13.0431 52.708 13.01H48.708ZM49.6428 15.625C50.1311 16.183 50.718 16.6263 51.3747 16.9652L53.2093 13.4108C52.9567 13.2804 52.7809 13.137 52.6532 12.991L49.6428 15.625ZM51.4431 16.9989C51.9784 17.2498 52.6552 17.5271 53.4559 17.8292L54.8681 14.0868C54.1141 13.8023 53.5442 13.5662 53.1409 13.3771L51.4431 16.9989ZM53.4332 17.8205C54.4036 18.2002 55.1311 18.5316 55.6434 18.8122L57.5646 15.3038C56.8449 14.9097 55.9444 14.5078 54.8908 14.0955L53.4332 17.8205ZM55.6434 18.8122C55.9752 18.9939 56.2816 19.2599 56.5605 19.6505L59.8155 17.3255C59.2144 16.4841 58.4648 15.7967 57.5646 15.3038L55.6434 18.8122ZM56.5739 19.669C56.7046 19.8475 56.848 20.1726 56.848 20.798H60.848C60.848 19.546 60.5514 18.3311 59.8021 17.307L56.5739 19.669ZM56.848 20.798C56.848 21.3486 56.7179 21.76 56.5022 22.0979L59.8738 24.2501C60.5381 23.2093 60.848 22.0367 60.848 20.798H56.848ZM56.5022 22.0979C56.2947 22.4229 55.9737 22.7187 55.444 22.9604L57.104 26.5996C58.2463 26.0786 59.2013 25.3038 59.8738 24.2501L56.5022 22.0979ZM55.4318 22.966C54.928 23.1999 54.2594 23.352 53.37 23.352V27.352C54.71 27.352 55.9773 27.1228 57.1162 26.594L55.4318 22.966ZM53.37 23.352C52.5581 23.352 51.8614 23.1431 51.2278 22.7303L49.0442 26.0817C50.3466 26.9303 51.8059 27.352 53.37 27.352V23.352ZM51.2454 22.7419C50.5798 22.2982 49.9498 21.6245 49.3852 20.6394L45.9148 22.6286C46.7289 24.0488 47.7562 25.2231 49.0266 26.0701L51.2454 22.7419ZM48.623 23.3814L50.559 22.3034L48.613 18.8086L46.677 19.8866L48.623 23.3814ZM74.6966 17.432L76.2534 16.1765L76.2534 16.1765L74.6966 17.432ZM71.6166 17.432L70.1561 16.0657L70.1441 16.0785L70.1324 16.0914L71.6166 17.432ZM71.0006 25.198V27.198H73.0006V25.198H71.0006ZM68.6466 25.198H66.6466V27.198H68.6466V25.198ZM68.0966 17.432L66.5151 18.6563L66.5273 18.672L66.5398 18.6875L68.0966 17.432ZM65.0386 17.498L63.5389 16.1748L63.5278 16.1873L63.5169 16.2001L65.0386 17.498ZM64.4006 25.198V27.198H66.4006V25.198H64.4006ZM62.0686 25.198H60.0686V27.198H62.0686V25.198ZM62.0686 14.704V12.704H60.0686V14.704H62.0686ZM64.4006 14.704H66.4006V12.704H64.4006V14.704ZM64.4006 16.134H62.4006V22.0795L65.994 17.3428L64.4006 16.134ZM65.5226 15.122L66.534 16.8474L66.5428 16.8422L66.5516 16.837L65.5226 15.122ZM68.6906 15.254L67.6424 16.9573L68.6906 15.254ZM70.0106 16.618L68.2601 17.5854L69.8616 20.4833L71.6814 17.7172L70.0106 16.618ZM71.5066 15.254L70.5319 13.5076V13.5076L71.5066 15.254ZM75.5766 15.298L74.5418 17.0095L74.5504 17.0147L74.5591 17.0199L75.5766 15.298ZM77.0726 16.882L75.2994 17.8071L75.3036 17.8152L75.3079 17.8232L77.0726 16.882ZM77.6006 25.198V27.198H79.6006V25.198H77.6006ZM75.2466 25.198H73.2466V27.198H75.2466V25.198ZM77.2466 19.236C77.2466 18.1614 76.9792 17.0764 76.2534 16.1765L73.1398 18.6875C73.1474 18.6969 73.2466 18.8146 73.2466 19.236H77.2466ZM76.2534 16.1765C75.4943 15.2351 74.43 14.75 73.2446 14.75V18.75C73.2687 18.75 73.2736 18.7522 73.2636 18.7501C73.2529 18.7479 73.233 18.7423 73.2083 18.7308C73.1836 18.7191 73.1631 18.7057 73.1486 18.694C73.1346 18.6828 73.1323 18.6783 73.1398 18.6875L76.2534 16.1765ZM73.2446 14.75C72.0683 14.75 70.9843 15.1803 70.1561 16.0657L73.0771 18.7983C73.0948 18.7794 73.1059 18.7711 73.1095 18.7686C73.1128 18.7662 73.1141 18.7657 73.1154 18.7652C73.1168 18.7646 73.1248 18.7613 73.1431 18.7578C73.1618 18.7543 73.1946 18.75 73.2446 18.75V14.75ZM70.1324 16.0914C69.3551 16.952 69.0006 18.0102 69.0006 19.126H73.0006C73.0006 18.8924 73.0568 18.8213 73.1008 18.7726L70.1324 16.0914ZM69.0006 19.126V25.198H73.0006V19.126H69.0006ZM71.0006 23.198H68.6466V27.198H71.0006V23.198ZM70.6466 25.198V19.236H66.6466V25.198H70.6466ZM70.6466 19.236C70.6466 18.1614 70.3792 17.0764 69.6534 16.1765L66.5398 18.6875C66.5474 18.6969 66.6466 18.8146 66.6466 19.236H70.6466ZM69.678 16.2077C68.9383 15.2522 67.8793 14.75 66.6886 14.75V18.75C66.7058 18.75 66.7033 18.7516 66.6857 18.7478C66.6673 18.7439 66.64 18.7356 66.6087 18.7205C66.5773 18.7053 66.5515 18.6878 66.5329 18.6723C66.5149 18.6573 66.5098 18.6494 66.5151 18.6563L69.678 16.2077ZM66.6886 14.75C65.4498 14.75 64.3553 15.2496 63.5389 16.1748L66.5383 18.8212C66.5659 18.7899 66.5854 18.7737 66.5949 18.7665C66.5998 18.7628 66.603 18.7607 66.6046 18.7598C66.6061 18.7589 66.6068 18.7586 66.6069 18.7586C66.607 18.7585 66.6074 18.7583 66.6086 18.7579C66.6098 18.7575 66.6128 18.7566 66.6179 18.7556C66.6276 18.7536 66.65 18.75 66.6886 18.75V14.75ZM63.5169 16.2001C62.7395 17.1116 62.4006 18.2156 62.4006 19.368H66.4006C66.4006 19.0244 66.487 18.8818 66.5603 18.7959L63.5169 16.2001ZM62.4006 19.368V25.198H66.4006V19.368H62.4006ZM64.4006 23.198H62.0686V27.198H64.4006V23.198ZM64.0686 25.198V14.704H60.0686V25.198H64.0686ZM62.0686 16.704H64.4006V12.704H62.0686V16.704ZM62.4006 14.704V16.134H66.4006V14.704H62.4006ZM65.994 17.3428C66.1716 17.1087 66.3528 16.9537 66.534 16.8474L64.5112 13.3966C63.8418 13.789 63.2749 14.3087 62.8072 14.9252L65.994 17.3428ZM66.5516 16.837C66.7002 16.7478 66.8091 16.726 66.9086 16.726V12.726C66.04 12.726 65.225 12.9682 64.4936 13.407L66.5516 16.837ZM66.9086 16.726C67.1213 16.726 67.3561 16.7812 67.6424 16.9573L69.7388 13.5507C68.8811 13.0228 67.9279 12.726 66.9086 12.726V16.726ZM67.6424 16.9573C67.9375 17.1389 68.1281 17.3465 68.2601 17.5854L71.7611 15.6506C71.2771 14.7749 70.5877 14.0731 69.7388 13.5507L67.6424 16.9573ZM71.6814 17.7172C71.8571 17.4502 72.1076 17.209 72.4813 17.0004L70.5319 13.5076C69.6443 14.003 68.8974 14.6711 68.3398 15.5188L71.6814 17.7172ZM72.4813 17.0004C72.8578 16.7902 73.156 16.726 73.3986 16.726V12.726C72.3798 12.726 71.4167 13.0138 70.5319 13.5076L72.4813 17.0004ZM73.3986 16.726C73.898 16.726 74.258 16.8379 74.5418 17.0095L76.6114 13.5865C75.6338 12.9954 74.5418 12.726 73.3986 12.726V16.726ZM74.5591 17.0199C74.878 17.2083 75.1173 17.458 75.2994 17.8071L78.8458 15.9569C78.3239 14.9566 77.5658 14.1504 76.5941 13.5761L74.5591 17.0199ZM75.3079 17.8232C75.4853 18.1558 75.6006 18.5801 75.6006 19.148H79.6006C79.6006 18.0146 79.3639 16.9282 78.8373 15.9408L75.3079 17.8232ZM75.6006 19.148V25.198H79.6006V19.148H75.6006ZM77.6006 23.198H75.2466V27.198H77.6006V23.198ZM77.2466 25.198V19.236H73.2466V25.198H77.2466ZM82.5645 24.604L81.5257 26.313L81.533 26.3175L81.5404 26.3219L82.5645 24.604ZM80.8045 22.734L79.0354 23.6668L79.0389 23.6735L79.0425 23.6803L80.8045 22.734ZM80.8045 17.3L82.5665 18.2463L82.5701 18.2395L82.5737 18.2328L80.8045 17.3ZM82.5645 15.408L81.5404 13.6901L81.533 13.6945L81.5257 13.699L82.5645 15.408ZM86.7445 15.1L87.5985 13.2915L86.7445 15.1ZM88.1525 16.2L86.6275 17.494L90.1525 21.6484V16.2H88.1525ZM88.1525 14.704V12.704H86.1525V14.704H88.1525ZM90.4845 14.704H92.4845V12.704H90.4845V14.704ZM90.4845 25.198V27.198H92.4845V25.198H90.4845ZM88.1525 25.198H86.1525V27.198H88.1525V25.198ZM88.1525 23.79H90.1525V18.0554L86.5863 22.5462L88.1525 23.79ZM86.7665 24.912L85.9125 23.1035L86.7665 24.912ZM83.2685 22.404L81.7321 23.6844L81.7397 23.6935L81.7474 23.7025L83.2685 22.404ZM86.7225 22.888L87.7926 24.5776L87.8124 24.5651L87.8319 24.5521L86.7225 22.888ZM87.7785 21.7L89.5461 22.6358L89.5517 22.6253L89.5571 22.6147L87.7785 21.7ZM87.7785 18.334L85.9999 19.2487L86.0054 19.2593L86.0109 19.2698L87.7785 18.334ZM86.7225 17.146L85.6131 18.8101L85.6326 18.8231L85.6524 18.8356L86.7225 17.146ZM83.2685 17.608L81.7474 16.3095V16.3095L83.2685 17.608ZM85.1385 23.286C84.5182 23.286 84.0188 23.1425 83.5886 22.8861L81.5404 26.3219C82.6356 26.9748 83.8522 27.286 85.1385 27.286V23.286ZM83.6033 22.895C83.1686 22.6307 82.8279 22.2745 82.5665 21.7877L79.0425 23.6803C79.6318 24.7775 80.4644 25.668 81.5257 26.313L83.6033 22.895ZM82.5737 21.8012C82.316 21.3125 82.1665 20.7292 82.1665 20.006H78.1665C78.1665 21.3068 78.4424 22.5421 79.0354 23.6668L82.5737 21.8012ZM82.1665 20.006C82.1665 19.2821 82.3162 18.7124 82.5665 18.2463L79.0425 16.3537C78.4422 17.4716 78.1665 18.7059 78.1665 20.006H82.1665ZM82.5737 18.2328C82.8376 17.7322 83.1778 17.3757 83.6033 17.117L81.5257 13.699C80.4553 14.3496 79.6221 15.2545 79.0354 16.3672L82.5737 18.2328ZM83.5886 17.1259C84.0188 16.8695 84.5182 16.726 85.1385 16.726V12.726C83.8522 12.726 82.6356 13.0372 81.5404 13.6901L83.5886 17.1259ZM85.1385 16.726C85.3638 16.726 85.6089 16.7755 85.8905 16.9085L87.5985 13.2915C86.8241 12.9258 85.9985 12.726 85.1385 12.726V16.726ZM85.8905 16.9085C86.1389 17.0258 86.385 17.2082 86.6275 17.494L89.6775 14.906C89.0987 14.2238 88.4061 13.6729 87.5985 13.2915L85.8905 16.9085ZM90.1525 16.2V14.704H86.1525V16.2H90.1525ZM88.1525 16.704H90.4845V12.704H88.1525V16.704ZM88.4845 14.704V25.198H92.4845V14.704H88.4845ZM90.4845 23.198H88.1525V27.198H90.4845V23.198ZM90.1525 25.198V23.79H86.1525V25.198H90.1525ZM86.5863 22.5462C86.3636 22.8266 86.1384 22.9968 85.9125 23.1035L87.6205 26.7205C88.4506 26.3285 89.1494 25.7507 89.7187 25.0338L86.5863 22.5462ZM85.9125 23.1035C85.6385 23.2329 85.3864 23.286 85.1385 23.286V27.286C86.0053 27.286 86.8385 27.0898 87.6205 26.7205L85.9125 23.1035ZM80.4985 20.006C80.4985 21.3473 80.856 22.6331 81.7321 23.6844L84.805 21.1236C84.6543 20.9429 84.4985 20.63 84.4985 20.006H80.4985ZM81.7474 23.7025C82.6649 24.7773 83.9095 25.306 85.2925 25.306V21.306C85.0035 21.306 84.8988 21.2334 84.7896 21.1055L81.7474 23.7025ZM85.2925 25.306C86.1906 25.306 87.0375 25.0559 87.7926 24.5776L85.6524 21.1984C85.5276 21.2774 85.4211 21.306 85.2925 21.306V25.306ZM87.8319 24.5521C88.5669 24.0621 89.1373 23.4079 89.5461 22.6358L86.0109 20.7642C85.8917 20.9895 85.7582 21.1272 85.6131 21.2239L87.8319 24.5521ZM89.5571 22.6147C89.9763 21.7995 90.1745 20.9182 90.1745 20.006H86.1745C86.1745 20.3258 86.1087 20.5738 85.9999 20.7853L89.5571 22.6147ZM90.1745 20.006C90.1745 19.0944 89.9764 18.2111 89.5461 17.3982L86.0109 19.2698C86.1086 19.4543 86.1745 19.6856 86.1745 20.006H90.1745ZM89.5571 17.4193C89.1483 16.6244 88.5654 15.9458 87.7926 15.4564L85.6524 18.8356C85.7597 18.9036 85.8807 19.0169 85.9999 19.2487L89.5571 17.4193ZM87.8319 15.4819C87.0739 14.9765 86.2131 14.706 85.2925 14.706V18.706C85.3986 18.706 85.4911 18.7288 85.6131 18.8101L87.8319 15.4819ZM85.2925 14.706C83.9095 14.706 82.6649 15.2347 81.7474 16.3095L84.7896 18.9065C84.8988 18.7786 85.0035 18.706 85.2925 18.706V14.706ZM81.7474 16.3095C80.8509 17.3596 80.4985 18.6607 80.4985 20.006H84.4985C84.4985 19.3567 84.6594 19.059 84.7896 18.9065L81.7474 16.3095ZM95.6526 9.468H97.6526V7.468H95.6526V9.468ZM95.6526 25.176V27.176H97.6526V25.176H95.6526ZM93.3206 25.176H91.3206V27.176H93.3206V25.176ZM93.3206 9.468V7.468H91.3206V9.468H93.3206ZM93.6526 9.468V25.176H97.6526V9.468H93.6526ZM95.6526 23.176H93.3206V27.176H95.6526V23.176ZM95.3206 25.176V9.468H91.3206V25.176H95.3206ZM93.3206 11.468H95.6526V7.468H93.3206V11.468ZM100.852 9.468H102.852V7.468H100.852V9.468ZM100.852 25.176V27.176H102.852V25.176H100.852ZM98.5198 25.176H96.5198V27.176H98.5198V25.176ZM98.5198 9.468V7.468H96.5198V9.468H98.5198ZM98.8518 9.468V25.176H102.852V9.468H98.8518ZM100.852 23.176H98.5198V27.176H100.852V23.176ZM100.52 25.176V9.468H96.5198V25.176H100.52ZM98.5198 11.468H100.852V7.468H98.5198V11.468ZM120.207 10.986V12.986H122.207V10.986H120.207ZM115.631 10.986V8.986H113.631V10.986H115.631ZM115.631 25.176V27.176H117.631V25.176H115.631ZM113.277 25.176H111.277V27.176H113.277V25.176ZM113.277 10.986H115.277V8.986H113.277V10.986ZM108.679 10.986H106.679V12.986H108.679V10.986ZM108.679 8.94V6.94H106.679V8.94H108.679ZM120.207 8.94H122.207V6.94H120.207V8.94ZM120.207 8.986H115.631V12.986H120.207V8.986ZM113.631 10.986V25.176H117.631V10.986H113.631ZM115.631 23.176H113.277V27.176H115.631V23.176ZM115.277 25.176V10.986H111.277V25.176H115.277ZM113.277 8.986H108.679V12.986H113.277V8.986ZM110.679 10.986V8.94H106.679V10.986H110.679ZM108.679 10.94H120.207V6.94H108.679V10.94ZM118.207 8.94V10.986H122.207V8.94H118.207ZM122.654 24.604L121.616 26.313L121.623 26.3175L121.63 26.3219L122.654 24.604ZM120.894 22.734L119.125 23.6668L119.129 23.6735L119.132 23.6803L120.894 22.734ZM120.894 17.3L122.656 18.2463L122.66 18.2395L122.663 18.2328L120.894 17.3ZM122.654 15.408L121.63 13.6901L121.623 13.6945L121.616 13.699L122.654 15.408ZM126.834 15.1L127.688 13.2915L126.834 15.1ZM128.242 16.2L126.717 17.494L130.242 21.6484V16.2H128.242ZM128.242 14.704V12.704H126.242V14.704H128.242ZM130.574 14.704H132.574V12.704H130.574V14.704ZM130.574 25.198V27.198H132.574V25.198H130.574ZM128.242 25.198H126.242V27.198H128.242V25.198ZM128.242 23.79H130.242V18.0554L126.676 22.5462L128.242 23.79ZM126.856 24.912L126.002 23.1035L126.856 24.912ZM123.358 22.404L121.822 23.6844L121.83 23.6935L121.837 23.7025L123.358 22.404ZM126.812 22.888L127.882 24.5776L127.902 24.5651L127.922 24.5521L126.812 22.888ZM127.868 21.7L129.636 22.6358L129.641 22.6253L129.647 22.6147L127.868 21.7ZM127.868 18.334L126.09 19.2487L126.095 19.2593L126.101 19.2698L127.868 18.334ZM126.812 17.146L125.703 18.8101L125.722 18.8231L125.742 18.8356L126.812 17.146ZM123.358 17.608L121.837 16.3095L121.837 16.3095L123.358 17.608ZM125.228 23.286C124.608 23.286 124.109 23.1425 123.678 22.8861L121.63 26.3219C122.725 26.9748 123.942 27.286 125.228 27.286V23.286ZM123.693 22.895C123.258 22.6307 122.918 22.2745 122.656 21.7877L119.132 23.6803C119.722 24.7775 120.554 25.668 121.616 26.313L123.693 22.895ZM122.663 21.8012C122.406 21.3125 122.256 20.7292 122.256 20.006H118.256C118.256 21.3068 118.532 22.5421 119.125 23.6668L122.663 21.8012ZM122.256 20.006C122.256 19.2821 122.406 18.7124 122.656 18.2463L119.132 16.3537C118.532 17.4716 118.256 18.7059 118.256 20.006H122.256ZM122.663 18.2328C122.927 17.7322 123.268 17.3757 123.693 17.117L121.616 13.699C120.545 14.3496 119.712 15.2545 119.125 16.3672L122.663 18.2328ZM123.678 17.1259C124.109 16.8695 124.608 16.726 125.228 16.726V12.726C123.942 12.726 122.725 13.0372 121.63 13.6901L123.678 17.1259ZM125.228 16.726C125.454 16.726 125.699 16.7755 125.98 16.9085L127.688 13.2915C126.914 12.9258 126.088 12.726 125.228 12.726V16.726ZM125.98 16.9085C126.229 17.0258 126.475 17.2082 126.717 17.494L129.767 14.906C129.189 14.2238 128.496 13.6729 127.688 13.2915L125.98 16.9085ZM130.242 16.2V14.704H126.242V16.2H130.242ZM128.242 16.704H130.574V12.704H128.242V16.704ZM128.574 14.704V25.198H132.574V14.704H128.574ZM130.574 23.198H128.242V27.198H130.574V23.198ZM130.242 25.198V23.79H126.242V25.198H130.242ZM126.676 22.5462C126.453 22.8266 126.228 22.9968 126.002 23.1035L127.71 26.7205C128.54 26.3285 129.239 25.7507 129.809 25.0338L126.676 22.5462ZM126.002 23.1035C125.728 23.2329 125.476 23.286 125.228 23.286V27.286C126.095 27.286 126.928 27.0898 127.71 26.7205L126.002 23.1035ZM120.588 20.006C120.588 21.3473 120.946 22.6331 121.822 23.6844L124.895 21.1236C124.744 20.9429 124.588 20.63 124.588 20.006H120.588ZM121.837 23.7025C122.755 24.7773 123.999 25.306 125.382 25.306V21.306C125.093 21.306 124.989 21.2334 124.879 21.1055L121.837 23.7025ZM125.382 25.306C126.28 25.306 127.127 25.0559 127.882 24.5776L125.742 21.1984C125.617 21.2774 125.511 21.306 125.382 21.306V25.306ZM127.922 24.5521C128.657 24.0621 129.227 23.4079 129.636 22.6358L126.101 20.7642C125.982 20.9895 125.848 21.1272 125.703 21.2239L127.922 24.5521ZM129.647 22.6147C130.066 21.7995 130.264 20.9182 130.264 20.006H126.264C126.264 20.3258 126.199 20.5738 126.09 20.7853L129.647 22.6147ZM130.264 20.006C130.264 19.0944 130.066 18.2111 129.636 17.3982L126.101 19.2698C126.198 19.4543 126.264 19.6856 126.264 20.006H130.264ZM129.647 17.4193C129.238 16.6244 128.655 15.9458 127.882 15.4564L125.742 18.8356C125.85 18.9036 125.971 19.0169 126.09 19.2487L129.647 17.4193ZM127.922 15.4819C127.164 14.9765 126.303 14.706 125.382 14.706V18.706C125.488 18.706 125.581 18.7288 125.703 18.8101L127.922 15.4819ZM125.382 14.706C123.999 14.706 122.755 15.2347 121.837 16.3095L124.879 18.9065C124.989 18.7786 125.093 18.706 125.382 18.706V14.706ZM121.837 16.3095C120.941 17.3596 120.588 18.6607 120.588 20.006H124.588C124.588 19.3567 124.749 19.059 124.879 18.9065L121.837 16.3095ZM135.742 9.468H137.742V7.468H135.742V9.468ZM135.742 25.176V27.176H137.742V25.176H135.742ZM133.41 25.176H131.41V27.176H133.41V25.176ZM133.41 9.468V7.468H131.41V9.468H133.41ZM133.742 9.468V25.176H137.742V9.468H133.742ZM135.742 23.176H133.41V27.176H135.742V23.176ZM135.41 25.176V9.468H131.41V25.176H135.41ZM133.41 11.468H135.742V7.468H133.41V11.468ZM141.228 19.038H139.228V24.4169L142.742 20.3446L141.228 19.038ZM144.968 14.704V12.704H144.052L143.454 13.3974L144.968 14.704ZM148.114 14.704L149.62 16.0195L152.515 12.704H148.114V14.704ZM144.022 19.39L142.515 18.0745L141.493 19.2454L142.375 20.5252L144.022 19.39ZM148.026 25.198V27.198H151.834L149.672 24.0628L148.026 25.198ZM145.188 25.198L143.547 26.3419L144.144 27.198H145.188V25.198ZM142.35 21.128L143.99 19.9841L142.506 17.8558L140.826 19.8327L142.35 21.128ZM141.228 22.448L139.704 21.1527L139.228 21.7128V22.448H141.228ZM141.228 25.198V27.198H143.228V25.198H141.228ZM138.896 25.198H136.896V27.198H138.896V25.198ZM138.896 9.468V7.468H136.896V9.468H138.896ZM141.228 9.468H143.228V7.468H141.228V9.468ZM142.742 20.3446L146.482 16.0106L143.454 13.3974L139.714 17.7314L142.742 20.3446ZM144.968 16.704H148.114V12.704H144.968V16.704ZM146.607 13.3885L142.515 18.0745L145.528 20.7055L149.62 16.0195L146.607 13.3885ZM142.375 20.5252L146.379 26.3332L149.672 24.0628L145.668 18.2548L142.375 20.5252ZM148.026 23.198H145.188V27.198H148.026V23.198ZM146.828 24.0541L143.99 19.9841L140.709 22.2719L143.547 26.3419L146.828 24.0541ZM140.826 19.8327L139.704 21.1527L142.752 23.7433L143.874 22.4233L140.826 19.8327ZM139.228 22.448V25.198H143.228V22.448H139.228ZM141.228 23.198H138.896V27.198H141.228V23.198ZM140.896 25.198V9.468H136.896V25.198H140.896ZM138.896 11.468H141.228V7.468H138.896V11.468ZM139.228 9.468V19.038H143.228V9.468H139.228Z" fill="#1E6EFA" mask="url(#path-6-outside-1_9954_40558)"/>
<defs>
<clipPath id="clip0_9954_40558">
<rect width="28" height="28" fill="white" transform="translate(10 3)"/>
</clipPath>
</defs>
</svg>
