<svg width="164" height="44" viewBox="0 0 164 44" fill="none" xmlns="http://www.w3.org/2000/svg">
<rect x="7" y="3" width="150" height="38" rx="19" stroke="#A9DF99" stroke-width="2"/>
<path d="M22.748 27.404H40.48V29.406H22.748V27.404ZM24.178 15.92V13.962H38.94V15.92H36.146V22.146H38.896V24.082H24.266V22.146H26.994V15.92H24.178ZM29.414 22.146H33.748V15.92H29.414V22.146ZM41.9765 27.536H49.6105V24.324H44.0885V17.9H55.2425V15.436H44.0445V13.522H57.6405V19.814H46.4645V22.388H58.0805V24.324H52.0085V27.536H59.7085V29.494H41.9765V27.536ZM69.257 17.108H71.677V12.576H73.943V24.016H71.677V19.066H69.257V17.108ZM61.029 22.014C63.647 20.936 64.857 18.604 64.857 16.382V15.612H61.579V13.654H70.247V15.612H67.189V16.36C67.189 18.494 68.333 20.628 70.797 21.618L69.587 23.466C67.871 22.784 66.727 21.552 66.045 20.034C65.363 21.706 64.109 23.114 62.283 23.862L61.029 22.014ZM64.461 26.854V24.918H77.793V31.782H75.373V26.854H64.461ZM75.483 24.126V12.202H77.793V24.126H75.483ZM82.5895 13.698H96.0535V15.634H85.0315V18.032H95.6135V19.924H85.0315V22.432H96.2295V24.368H82.5895V13.698ZM80.4335 29.406V27.448H98.1655V29.406H80.4335Z" fill="#00A42E"/>
<path d="M114.946 15.48H117.564V12.202H119.984V24.214H117.564V21.024H114.968L115.1 22.652C111.404 23.268 107.114 23.312 103.99 23.312L103.748 21.332H105.926V15.502H104.254V13.544H114.572V15.502H112.856V21.068C113.582 21.024 114.286 20.958 114.946 20.87V19.066H117.564V17.394H114.946V15.48ZM106.806 28.152C106.806 25.864 109.314 24.544 113.45 24.544C117.564 24.544 120.072 25.864 120.072 28.152C120.072 30.44 117.564 31.76 113.45 31.76C109.314 31.76 106.806 30.44 106.806 28.152ZM108.28 21.288C109.028 21.266 109.798 21.244 110.546 21.2V15.502H108.28V21.288ZM109.204 28.152C109.204 29.296 110.7 29.934 113.45 29.934C116.156 29.934 117.674 29.296 117.674 28.152C117.674 27.008 116.156 26.392 113.45 26.392C110.7 26.392 109.204 27.008 109.204 28.152ZM135.759 12.158H138.201V19.836H141.083V21.838H138.201V31.76H135.759V12.158ZM122.889 26.414C127.619 23.994 130.149 20.65 130.611 16.184H123.923V14.226H133.053C133.053 19.99 130.699 25.006 124.253 28.24L122.889 26.414Z" fill="#2D5122"/>
</svg>
