<svg width="93" height="44" viewBox="0 0 93 44" fill="none" xmlns="http://www.w3.org/2000/svg">
<rect x="4" y="7" width="28" height="30" rx="14" fill="#95434D"/>
<rect x="17.5" y="2" width="71" height="40" rx="20" fill="#D44B5B"/>
<path d="M35.04 13.346H44.126V15.282H37.46V17.13H43.752V19.022H37.46V20.958C40.804 20.936 42.894 20.848 45.292 20.43L45.534 22.344C42.894 22.806 40.562 22.894 36.624 22.894H35.04V13.346ZM37.02 31.54V24.588H49.582V31.54H37.02ZM39.396 29.626H47.228V26.502H39.396V29.626ZM47.162 23.664V12.202H49.582V16.866H52.288V18.868H49.582V23.664H47.162ZM55.5885 13.39H69.0085V15.106C69.0085 16.954 69.0085 18.956 68.5025 21.75H71.1865V23.73H63.4865V31.804H61.0445V23.73H53.4765V21.75H66.0605C66.6105 19.11 66.6325 17.108 66.6325 15.326H55.5885V13.39Z" fill="white"/>
</svg>
