<svg width="20" height="20" viewBox="0 0 20 20" fill="none" xmlns="http://www.w3.org/2000/svg">
<g clip-path="url(#clip0_1633_3119)">
<path d="M20 9.99265C20 15.518 15.518 19.9853 10.0073 19.9853C4.49669 19.9853 0 15.518 0 9.99265C0 4.4673 4.482 0 9.99265 0C15.5033 0 19.9853 4.482 19.9853 9.99265" fill="#9CA1C9"/>
<path d="M14.6803 13.8279C13.975 13.8279 13.3431 13.3871 13.0933 12.7111C13.0492 12.5935 12.9316 12.5054 12.7994 12.5054H10.6833V11.7412H12.7994C12.9316 11.7412 13.0492 11.6677 13.0933 11.5355C13.3431 10.8742 13.975 10.4187 14.6803 10.4187C15.6061 10.4187 16.3703 11.1828 16.3703 12.1086C16.3703 13.0344 15.6061 13.7985 14.6803 13.7985M13.9162 16.2232H6.84785V8.03806H13.9162V9.94842C13.3431 10.1542 12.8728 10.5656 12.6083 11.124H10.698V10.9183C10.698 10.742 10.551 10.6097 10.3894 10.6097C10.2277 10.6097 10.0808 10.7567 10.0808 10.9183V13.3577C10.0808 13.534 10.2277 13.6663 10.3894 13.6663C10.551 13.6663 10.698 13.5193 10.698 13.3577V13.1519H12.6083C12.8728 13.7104 13.3578 14.1218 13.9162 14.3276V16.2379V16.2232ZM14.6803 9.81617C14.6803 9.81617 14.5775 9.81617 14.5334 9.81617V7.71477C14.5334 7.53843 14.3864 7.40618 14.2248 7.40618H8.91985V5.49582C8.91985 4.09978 7.78833 2.96826 6.3923 2.96826C4.99627 2.96826 3.86475 4.09978 3.86475 5.49582V7.71477C3.86475 7.89111 4.0117 8.02337 4.17334 8.02337C4.33499 8.02337 4.48194 7.87642 4.48194 7.71477V5.49582C4.48194 4.43777 5.33425 3.58546 6.3923 3.58546C7.45034 3.58546 8.30266 4.43777 8.30266 5.49582V7.40618H6.53925C6.36291 7.40618 6.23065 7.55313 6.23065 7.71477V16.5171C6.23065 16.6935 6.3776 16.8257 6.53925 16.8257H14.2395C14.4158 16.8257 14.5481 16.6788 14.5481 16.5171V14.4157C14.5481 14.4157 14.6509 14.4157 14.695 14.4157C15.9735 14.4157 17.0168 13.3724 17.0168 12.0939C17.0168 10.8154 15.9735 9.77208 14.695 9.77208" fill="white"/>
<path d="M14.6803 13.8279C13.975 13.8279 13.3431 13.3871 13.0933 12.7111C13.0492 12.5935 12.9316 12.5054 12.7994 12.5054H10.6833V11.7412H12.7994C12.9316 11.7412 13.0492 11.6677 13.0933 11.5355C13.3431 10.8742 13.975 10.4187 14.6803 10.4187C15.6061 10.4187 16.3703 11.1828 16.3703 12.1086C16.3703 13.0344 15.6061 13.7985 14.6803 13.7985V13.8279ZM13.9162 16.2232H6.84785V8.03806H13.9162V9.94842C13.3431 10.1542 12.8728 10.5656 12.6083 11.124H10.698V10.9183C10.698 10.742 10.551 10.6097 10.3894 10.6097C10.2277 10.6097 10.0808 10.7567 10.0808 10.9183V13.3577C10.0808 13.534 10.2277 13.6663 10.3894 13.6663C10.551 13.6663 10.698 13.5193 10.698 13.3577V13.1519H12.6083C12.8728 13.7104 13.3578 14.1218 13.9162 14.3276V16.2379V16.2232ZM14.6803 9.81617C14.6803 9.81617 14.5775 9.81617 14.5334 9.81617V7.71477C14.5334 7.53843 14.3864 7.40617 14.2248 7.40617H8.91985V5.49581C8.91985 4.09978 7.78833 2.96826 6.3923 2.96826C4.99627 2.96826 3.86475 4.09978 3.86475 5.49581V7.71477C3.86475 7.89111 4.0117 8.02337 4.17334 8.02337C4.33499 8.02337 4.48194 7.87642 4.48194 7.71477V5.49581C4.48194 4.43777 5.33425 3.58546 6.3923 3.58546C7.45034 3.58546 8.30266 4.43777 8.30266 5.49581V7.40617H6.53925C6.36291 7.40617 6.23065 7.55313 6.23065 7.71477V16.5171C6.23065 16.6935 6.3776 16.8257 6.53925 16.8257H14.2395C14.4158 16.8257 14.5481 16.6788 14.5481 16.5171V14.4157C14.5481 14.4157 14.6509 14.4157 14.695 14.4157C15.9735 14.4157 17.0168 13.3724 17.0168 12.0939C17.0168 10.8154 15.9735 9.77208 14.695 9.77208L14.6803 9.81617Z" stroke="white" stroke-width="0.16" stroke-miterlimit="10"/>
<path d="M15.2534 12.5347C15.5033 12.5347 15.7237 12.3289 15.7237 12.0791C15.7237 11.8293 15.518 11.6089 15.2534 11.6089C14.9889 11.6089 14.7832 11.8146 14.7832 12.0791C14.7832 12.3436 14.9889 12.5347 15.2534 12.5347Z" fill="white"/>
</g>
<defs>
<clipPath id="clip0_1633_3119">
<rect width="20" height="20" fill="white"/>
</clipPath>
</defs>
</svg>
