<svg width="202" height="32" viewBox="0 0 202 32" fill="none" xmlns="http://www.w3.org/2000/svg">
<rect width="40" height="32" fill="#38A39A"/>
<path d="M40 0H186C194.837 0 202 7.16344 202 16C202 24.8366 194.837 32 186 32H40V0Z" fill="#38A39A"/>
<path d="M56.76 15V16.76H49.8V18.3C51.4 18.4067 52.64 18.7333 53.52 19.28C54.4 19.8133 54.84 20.5333 54.84 21.44C54.84 22.44 54.2933 23.2133 53.2 23.76C52.12 24.32 50.62 24.6 48.7 24.6C46.7667 24.6 45.2533 24.32 44.16 23.76C43.08 23.2133 42.54 22.44 42.54 21.44C42.54 20.5333 42.98 19.8133 43.86 19.28C44.7533 18.7333 46 18.4067 47.6 18.3V16.76H40.68V15H56.76ZM41.44 12.44C42.5067 12.3467 43.4467 12.1467 44.26 11.84C45.0867 11.5333 45.7467 11.1667 46.24 10.74C46.7333 10.3 47.04 9.83333 47.16 9.34H42.14V7.6H55.32V9.34H50.28C50.4667 10.1133 51.0667 10.7867 52.08 11.36C53.0933 11.9333 54.4 12.2933 56 12.44L55.22 14.16C53.6333 13.9867 52.2733 13.6 51.14 13C50.0067 12.4 49.2 11.6467 48.72 10.74C48.24 11.6467 47.4333 12.4 46.3 13C45.1667 13.6 43.8 13.9867 42.2 14.16L41.44 12.44ZM44.76 21.44C44.76 21.9333 45.0933 22.3067 45.76 22.56C46.4267 22.8133 47.4067 22.94 48.7 22.94C49.98 22.94 50.9533 22.8133 51.62 22.56C52.2867 22.3067 52.62 21.9333 52.62 21.44C52.62 20.9333 52.2867 20.5533 51.62 20.3C50.9533 20.0467 49.98 19.92 48.7 19.92C46.0733 19.92 44.76 20.4267 44.76 21.44ZM72.1005 6.8V11.84H74.5805V13.62H72.1005V19.68H69.9005V6.8H72.1005ZM58.9005 8.26H66.8205V10.04H61.1005V14.9C62.8071 14.8867 64.1871 14.84 65.2405 14.76C66.2938 14.68 67.3205 14.54 68.3205 14.34L68.5405 16.08C67.4205 16.32 66.2605 16.4867 65.0605 16.58C63.8738 16.66 62.3005 16.7 60.3405 16.7H58.9005V8.26ZM60.7805 18.36H62.9805V22.5H72.8005V24.26H60.7805V18.36ZM90.4409 6.8V20.32H88.2409V18.74H84.8009V17.22H88.2409V6.8H90.4409ZM75.5409 14.82C77.8209 14.8067 79.8743 14.7667 81.7009 14.7C83.5276 14.6333 85.2743 14.5 86.9409 14.3L87.0609 15.86C85.7143 16.0867 84.2343 16.2533 82.6209 16.36V19.78H80.4209V16.48C79.0609 16.5467 77.5276 16.58 75.8209 16.58L75.5409 14.82ZM76.8609 10.6C76.8609 9.98667 77.0476 9.44 77.4209 8.96C77.7943 8.48 78.3143 8.11333 78.9809 7.86C79.6609 7.59333 80.4276 7.46 81.2809 7.46C82.1476 7.46 82.9143 7.59333 83.5809 7.86C84.2476 8.11333 84.7676 8.48 85.1409 8.96C85.5143 9.44 85.7009 9.98667 85.7009 10.6C85.7009 11.2267 85.5143 11.78 85.1409 12.26C84.7676 12.74 84.2476 13.1133 83.5809 13.38C82.9143 13.6333 82.1476 13.76 81.2809 13.76C80.4143 13.76 79.6476 13.6333 78.9809 13.38C78.3143 13.1133 77.7943 12.74 77.4209 12.26C77.0476 11.78 76.8609 11.2267 76.8609 10.6ZM77.8809 19.02H80.0809V22.5H90.8609V24.26H77.8809V19.02ZM78.9609 10.6C78.9609 11.08 79.1743 11.46 79.6009 11.74C80.0276 12.0067 80.5876 12.14 81.2809 12.14C81.9876 12.14 82.5476 12.0067 82.9609 11.74C83.3876 11.46 83.6009 11.08 83.6009 10.6C83.6009 10.12 83.3876 9.74667 82.9609 9.48C82.5476 9.2 81.9876 9.06 81.2809 9.06C80.5876 9.06 80.0276 9.2 79.6009 9.48C79.1743 9.74667 78.9609 10.12 78.9609 10.6Z" fill="white"/>
<path d="M106.731 8.52V20.22H98.3508V8.52H106.731ZM104.571 18.46V10.26H100.511V18.46H104.571ZM109.371 6.82H111.591V13.68H114.291V15.5H111.591V24.62H109.371V6.82ZM131.331 16.92V18.68H124.311V24.64H122.111V18.68H115.211V16.92H131.331ZM117.131 7.74H129.331V14.82H117.131V7.74ZM127.191 13.1V9.48H119.291V13.1H127.191ZM147.412 6.78V24.64H145.212V6.78H147.412ZM133.632 8.38H141.972V15.06H135.892V18.62C137.412 18.6067 138.785 18.56 140.012 18.48C141.252 18.3867 142.518 18.2333 143.812 18.02L144.032 19.8C142.618 20.04 141.232 20.2067 139.872 20.3C138.525 20.38 136.972 20.42 135.212 20.42H133.672V13.3H139.752V10.14H133.632V8.38ZM170.882 15.74V17.48H164.102V20.72H161.902V17.48H154.762V15.74H170.882ZM156.702 19.12H158.902V22.52H169.102V24.28H156.702V19.12ZM156.782 7.6H168.822V14.08H156.782V7.6ZM166.662 12.32V9.32H158.942V12.32H166.662ZM187.442 6.8V24.6H185.362V6.8H187.442ZM171.942 19.58C173.155 18.82 174.062 17.7267 174.662 16.3C175.275 14.8733 175.582 13.3267 175.582 11.66V10.5H172.522V8.7H180.542V10.5H177.722V11.66C177.722 13.2733 178.015 14.7533 178.602 16.1C179.189 17.4467 180.082 18.4733 181.282 19.18L179.982 20.76C178.435 19.8267 177.329 18.2667 176.662 16.08C176.355 17.2133 175.915 18.22 175.342 19.1C174.769 19.98 174.075 20.68 173.262 21.2L171.942 19.58ZM179.242 13.02H181.782V7.14H183.822V23.76H181.782V14.8H179.242V13.02Z" fill="#232426"/>
</svg>
