<svg width="160" height="28" viewBox="0 0 160 28" fill="none" xmlns="http://www.w3.org/2000/svg">
<path d="M10.0004 23.1666C8.61959 23.1679 7.2725 22.74 6.14551 21.9422C5.01853 21.1443 4.16735 20.016 3.70975 18.7132C3.25215 17.4104 3.21074 15.9976 3.59126 14.6702C3.97178 13.3429 4.75541 12.1666 5.83374 11.3041V8.99996C5.83346 8.0825 6.136 7.1906 6.69441 6.46265C7.25282 5.73471 8.03588 5.21142 8.92209 4.97398C9.80829 4.73655 10.7481 4.79824 11.5956 5.1495C12.4432 5.50075 13.1511 6.12192 13.6096 6.91663C13.7122 7.10742 13.7366 7.33069 13.6774 7.53912C13.6182 7.74754 13.4802 7.92473 13.2926 8.03311C13.105 8.14149 12.8826 8.17254 12.6724 8.11968C12.4623 8.06682 12.2811 7.93421 12.1671 7.74996C11.8923 7.27256 11.4675 6.89928 10.9587 6.68813C10.4499 6.47698 9.88566 6.43978 9.35356 6.58231C8.82147 6.72483 8.35135 7.0391 8.01624 7.47629C7.68113 7.91348 7.49979 8.44911 7.50041 8.99996V10.3241C8.41229 9.95342 9.39496 9.78924 10.3778 9.8434C11.3607 9.89755 12.3194 10.1687 13.185 10.6373C14.0507 11.106 14.8018 11.7605 15.3844 12.5539C15.9671 13.3473 16.3668 14.2599 16.5549 15.2261C16.743 16.1923 16.7148 17.1882 16.4723 18.1422C16.2298 19.0963 15.7791 19.9848 15.1524 20.7439C14.5258 21.503 13.7388 22.114 12.848 22.5329C11.9573 22.9518 10.9848 23.1682 10.0004 23.1666ZM10.0004 11.5C9.0115 11.5 8.0448 11.7932 7.22255 12.3426C6.40031 12.892 5.75945 13.6729 5.38101 14.5865C5.00257 15.5002 4.90355 16.5055 5.09648 17.4754C5.2894 18.4453 5.76561 19.3362 6.46487 20.0355C7.16413 20.7348 8.05505 21.211 9.02495 21.4039C9.99486 21.5968 11.0002 21.4978 11.9138 21.1194C12.8275 20.7409 13.6083 20.1001 14.1578 19.2778C14.7072 18.4556 15.0004 17.4889 15.0004 16.5C14.9991 15.1743 14.4719 13.9033 13.5345 12.9659C12.5971 12.0285 11.3261 11.5013 10.0004 11.5Z" fill="#8D9299"/>
<path d="M10.8337 17.1022V18.9997C10.8337 19.2207 10.7459 19.4327 10.5896 19.589C10.4333 19.7453 10.2213 19.8331 10.0003 19.8331C9.77931 19.8331 9.56735 19.7453 9.41107 19.589C9.25479 19.4327 9.16699 19.2207 9.16699 18.9997V17.1022C8.84926 16.9188 8.60093 16.6356 8.46053 16.2967C8.32012 15.9577 8.29549 15.5819 8.39045 15.2275C8.48541 14.8731 8.69465 14.5599 8.98572 14.3366C9.2768 14.1132 9.63343 13.9922 10.0003 13.9922C10.3672 13.9922 10.7239 14.1132 11.0149 14.3366C11.306 14.5599 11.5152 14.8731 11.6102 15.2275C11.7052 15.5819 11.6805 15.9577 11.5401 16.2967C11.3997 16.6356 11.1514 16.9188 10.8337 17.1022Z" fill="#8D9299"/>
<path d="M41.102 14.466V16.032H35V18.948H33.02V16.032H26.594V14.466H41.102ZM28.34 17.508H30.32V20.568H39.5V22.152H28.34V17.508ZM28.412 7.14H39.248V12.972H28.412V7.14ZM37.304 11.388V8.688H30.356V11.388H37.304ZM56.0064 6.42V22.44H54.1344V6.42H56.0064ZM42.0564 17.922C43.1484 17.238 43.9644 16.254 44.5044 14.97C45.0564 13.686 45.3324 12.294 45.3324 10.794V9.75H42.5784V8.13H49.7964V9.75H47.2584V10.794C47.2584 12.246 47.5224 13.578 48.0504 14.79C48.5784 16.002 49.3824 16.926 50.4624 17.562L49.2924 18.984C47.9004 18.144 46.9044 16.74 46.3044 14.772C46.0284 15.792 45.6324 16.698 45.1164 17.49C44.6004 18.282 43.9764 18.912 43.2444 19.38L42.0564 17.922ZM48.6264 12.018H50.9124V6.726H52.7484V21.684H50.9124V13.62H48.6264V12.018ZM60.9748 8.976V6.852H62.9188V8.976H65.8168V10.542H58.0408V8.976H60.9748ZM58.4728 15.15C58.4728 14.43 58.6228 13.788 58.9228 13.224C59.2228 12.648 59.6368 12.204 60.1648 11.892C60.6928 11.568 61.2868 11.406 61.9468 11.406C62.6188 11.406 63.2188 11.568 63.7468 11.892C64.2748 12.204 64.6888 12.648 64.9888 13.224C65.2888 13.788 65.4388 14.43 65.4388 15.15C65.4388 15.882 65.2888 16.536 64.9888 17.112C64.6888 17.676 64.2748 18.12 63.7468 18.444C63.2188 18.756 62.6188 18.912 61.9468 18.912C61.2868 18.912 60.6928 18.756 60.1648 18.444C59.6368 18.12 59.2228 17.676 58.9228 17.112C58.6228 16.536 58.4728 15.882 58.4728 15.15ZM60.2188 15.15C60.2188 15.786 60.3748 16.296 60.6868 16.68C61.0108 17.064 61.4308 17.256 61.9468 17.256C62.4628 17.256 62.8828 17.064 63.2068 16.68C63.5308 16.296 63.6928 15.786 63.6928 15.15C63.6928 14.514 63.5308 14.004 63.2068 13.62C62.8828 13.236 62.4628 13.044 61.9468 13.044C61.4428 13.044 61.0288 13.236 60.7048 13.62C60.3808 14.004 60.2188 14.514 60.2188 15.15ZM66.4648 6.762H68.3188V13.026H69.8668V6.42H71.7388V22.44H69.8668V14.628H68.3188V21.72H66.4648V6.762ZM87.1113 6.42V14.52H85.1313V13.152H81.3333V11.64H85.1313V10.056H81.5313C80.5593 12.468 78.2733 14.076 74.6733 14.88L74.0253 13.296C75.8493 12.9 77.2413 12.306 78.2013 11.514C79.1733 10.722 79.7253 9.78 79.8573 8.688H74.8893V7.104H82.0533C82.0533 7.608 82.0173 8.094 81.9453 8.562H85.1313V6.42H87.1113ZM76.6353 15.168H87.1113V19.398H78.6333V20.73H87.5073V22.296H76.6713V17.904H85.1313V16.716H76.6353V15.168Z" fill="#6A6D73"/>
<g clip-path="url(#clip0_1960_5750)">
<path d="M112 4C110.232 4 108.536 4.70238 107.286 5.95262C106.035 7.20286 105.333 8.89856 105.333 10.6667C105.328 12.4578 106.001 14.1845 107.216 15.5C107.55 15.9083 107.833 16.2667 107.833 16.5V17.3333C107.835 17.6242 107.913 17.9095 108.059 18.161C108.205 18.4124 108.414 18.6212 108.666 18.7667V21.4C108.667 21.6296 108.715 21.8566 108.808 22.0667C108.888 22.2426 108.998 22.4034 109.133 22.5417L109.966 23.375C110.16 23.5691 110.39 23.7228 110.643 23.8272C110.896 23.9317 111.167 23.9847 111.441 23.9833H112.558C112.832 23.9847 113.103 23.9317 113.357 23.8272C113.61 23.7228 113.84 23.5691 114.033 23.375L114.866 22.5417C115.001 22.4034 115.111 22.2426 115.191 22.0667C115.284 21.8566 115.332 21.6296 115.333 21.4V18.7667C115.585 18.6212 115.794 18.4124 115.941 18.161C116.087 17.9095 116.165 17.6242 116.166 17.3333V16.5C116.166 16.2667 116.45 15.9167 116.783 15.5C117.999 14.1845 118.671 12.4578 118.666 10.6667C118.666 8.89856 117.964 7.20286 116.714 5.95262C115.464 4.70238 113.768 4 112 4ZM113.666 21.5H110.333V20.6667H113.666V21.5ZM113.666 19.8333H110.333V19H113.666V19.8333ZM112 5.66667C113.326 5.66667 114.598 6.19345 115.535 7.13113C116.473 8.06881 117 9.34058 117 10.6667C117.01 12.0787 116.468 13.4389 115.491 14.4583C114.928 14.9989 114.576 15.723 114.5 16.5V17.3333H113.666C113.67 14.9469 114.226 12.5936 115.291 10.4583C115.323 10.3938 115.338 10.3219 115.333 10.25C115.333 10.1395 115.289 10.0335 115.211 9.95537C115.133 9.87723 115.027 9.83333 114.916 9.83333C114.711 9.83814 114.51 9.89118 114.329 9.98818C114.148 10.0852 113.992 10.2234 113.875 10.3917C113.691 10.6 113.616 10.6667 113.458 10.6667C113.3 10.6667 113.225 10.6 113.041 10.3917C112.924 10.2234 112.768 10.0852 112.587 9.98818C112.406 9.89118 112.205 9.83814 112 9.83333C111.795 9.83944 111.594 9.89304 111.413 9.98992C111.232 10.0868 111.077 10.2243 110.958 10.3917C110.775 10.6 110.708 10.6667 110.541 10.6667C110.375 10.6667 110.308 10.6 110.125 10.3917C110.007 10.2239 109.851 10.086 109.67 9.98906C109.489 9.89212 109.288 9.83879 109.083 9.83333C108.973 9.83333 108.867 9.87723 108.788 9.95537C108.71 10.0335 108.666 10.1395 108.666 10.25C108.667 10.3107 108.681 10.3705 108.708 10.425C109.779 12.5704 110.335 14.9356 110.333 17.3333H109.5V16.5C109.423 15.723 109.071 14.9989 108.508 14.4583C107.531 13.4389 106.99 12.0787 107 10.6667C107 9.34058 107.526 8.06881 108.464 7.13113C109.402 6.19345 110.674 5.66667 112 5.66667ZM112.833 17.3333H111.166C111.165 15.2938 110.78 13.2727 110.033 11.375C110.19 11.4567 110.364 11.4995 110.541 11.5C110.746 11.4939 110.947 11.4403 111.128 11.3434C111.309 11.2465 111.464 11.109 111.583 10.9417C111.766 10.7333 111.833 10.6667 112 10.6667C112.166 10.6667 112.233 10.7333 112.416 10.9417C112.534 11.1099 112.69 11.2482 112.871 11.3452C113.052 11.4422 113.253 11.4952 113.458 11.5C113.635 11.4992 113.809 11.4564 113.966 11.375C113.219 13.2727 112.835 15.2938 112.833 17.3333Z" fill="#8D9299"/>
</g>
<path d="M143.102 16.05V17.67H136.838V22.476H134.84V17.67H128.612V16.05H143.102ZM129.422 13.53C130.442 13.398 131.348 13.152 132.14 12.792C132.944 12.42 133.574 11.982 134.03 11.478C134.486 10.974 134.75 10.446 134.822 9.894H129.944V8.31H134.84V6.456H136.838V8.31H141.752V9.894H136.856C136.928 10.434 137.192 10.962 137.648 11.478C138.116 11.982 138.746 12.42 139.538 12.792C140.33 13.152 141.236 13.398 142.256 13.53L141.554 15.078C140.258 14.922 139.112 14.574 138.116 14.034C137.132 13.494 136.376 12.828 135.848 12.036C135.332 12.828 134.576 13.494 133.58 14.034C132.584 14.562 131.426 14.91 130.106 15.078L129.422 13.53ZM150.59 15.402V13.98H146.18V9.696H155.09V8.346H146.144V6.834H157.034V11.118H148.106V12.486H157.376V13.98H152.57V15.402H158.852V16.986H144.344V15.402H150.59ZM146.198 17.904H148.178V20.874H157.412V22.458H146.198V17.904Z" fill="#6A6D73"/>
<defs>
<clipPath id="clip0_1960_5750">
<rect width="20" height="20" fill="white" transform="translate(102 4)"/>
</clipPath>
</defs>
</svg>
