<svg width="188" height="40" viewBox="0 0 188 40" fill="none" xmlns="http://www.w3.org/2000/svg">
<path d="M0 7C0 3.13401 3.13401 0 7 0H181C184.866 0 188 3.13401 188 7V40H0V7Z" fill="#4B93FF"/>
<path d="M10 10.4706C10 9.10612 11.11 8 12.4792 8H24.5208C25.89 8 27 9.10612 27 10.4706V29.5294C27 30.8939 25.89 32 24.5208 32H12.4792C11.11 32 10 30.8939 10 29.5294V10.4706Z" fill="#124899"/>
<path d="M12.5195 11.4645C12.5195 10.9426 12.9426 10.5195 13.4645 10.5195H23.5445C24.0664 10.5195 24.4895 10.9426 24.4895 11.4645V14.6145C24.4895 15.1364 24.0664 15.5595 23.5445 15.5595H13.4645C12.9426 15.5595 12.5195 15.1364 12.5195 14.6145V11.4645Z" fill="#BCD7FF"/>
<path d="M15.6695 18.3953C15.6695 19.2652 14.9644 19.9703 14.0945 19.9703C13.2247 19.9703 12.5195 19.2652 12.5195 18.3953C12.5195 17.5255 13.2247 16.8203 14.0945 16.8203C14.9644 16.8203 15.6695 17.5255 15.6695 18.3953Z" fill="#F4F8FF"/>
<path d="M15.6695 22.8055C15.6695 23.6753 14.9644 24.3805 14.0945 24.3805C13.2247 24.3805 12.5195 23.6753 12.5195 22.8055C12.5195 21.9356 13.2247 21.2305 14.0945 21.2305C14.9644 21.2305 15.6695 21.9356 15.6695 22.8055Z" fill="#F4F8FF"/>
<path d="M20.0797 18.3953C20.0797 19.2652 19.3745 19.9703 18.5047 19.9703C17.6348 19.9703 16.9297 19.2652 16.9297 18.3953C16.9297 17.5255 17.6348 16.8203 18.5047 16.8203C19.3745 16.8203 20.0797 17.5255 20.0797 18.3953Z" fill="#F4F8FF"/>
<path d="M20.0797 22.8055C20.0797 23.6753 19.3745 24.3805 18.5047 24.3805C17.6348 24.3805 16.9297 23.6753 16.9297 22.8055C16.9297 21.9356 17.6348 21.2305 18.5047 21.2305C19.3745 21.2305 20.0797 21.9356 20.0797 22.8055Z" fill="#F4F8FF"/>
<path d="M24.4898 18.3953C24.4898 19.2652 23.7847 19.9703 22.9148 19.9703C22.045 19.9703 21.3398 19.2652 21.3398 18.3953C21.3398 17.5255 22.045 16.8203 22.9148 16.8203C23.7847 16.8203 24.4898 17.5255 24.4898 18.3953Z" fill="#F4F8FF"/>
<path d="M24.4898 22.8055C24.4898 23.6753 23.7847 24.3805 22.9148 24.3805C22.045 24.3805 21.3398 23.6753 21.3398 22.8055C21.3398 21.9356 22.045 21.2305 22.9148 21.2305C23.7847 21.2305 24.4898 21.9356 24.4898 22.8055Z" fill="#F4F8FF"/>
<path d="M24.4898 27.2156C24.4898 28.0855 23.7847 28.7906 22.9148 28.7906C22.045 28.7906 21.3398 28.0855 21.3398 27.2156C21.3398 26.3458 22.045 25.6406 22.9148 25.6406C23.7847 25.6406 24.4898 26.3458 24.4898 27.2156Z" fill="#F4F8FF"/>
<path d="M12.5195 27.2156C12.5195 26.3458 13.2247 25.6406 14.0945 25.6406H18.5045C19.3744 25.6406 20.0795 26.3458 20.0795 27.2156C20.0795 28.0855 19.3744 28.7906 18.5045 28.7906H14.0945C13.2247 28.7906 12.5195 28.0855 12.5195 27.2156Z" fill="#F4F8FF"/>
<path d="M37.486 11.962H51.676V13.964C51.676 16.406 51.676 19.046 50.972 22.874L48.596 22.632C49.256 19.002 49.256 16.34 49.256 13.964V13.92H37.486V11.962ZM35.748 27.252V25.272H39.708V19.002H42.084V25.272H44.548V19.002H46.924V25.272H53.458V27.252H35.748ZM57.0885 11.39H70.5085V13.106C70.5085 14.954 70.5085 16.956 70.0025 19.75H72.6865V21.73H64.9865V29.804H62.5445V21.73H54.9765V19.75H67.5605C68.1105 17.11 68.1325 15.108 68.1325 13.326H57.0885V11.39ZM94.7413 28.154H91.4193L90.0773 26.68C88.9113 27.736 87.4153 28.506 85.5453 28.506C80.4853 28.506 80.1773 24.348 80.1773 23.71C80.1773 23.138 80.4413 20.63 82.9053 19.024C82.1353 18.232 81.3213 17.286 81.3213 15.79C81.3213 14.14 82.7073 11.786 85.5453 11.786C88.3173 11.786 89.8353 14.008 89.8353 15.79C89.8353 17.44 88.7573 18.606 86.9313 19.662L89.9893 23.028C90.4733 22.28 90.9133 21.444 91.3093 20.696L93.4213 21.862C92.9813 22.72 92.4313 23.798 91.6833 24.854L94.7413 28.154ZM82.5973 23.71C82.5973 24.194 82.7513 26.086 85.5453 26.086C86.6893 26.086 87.6353 25.624 88.4273 24.92L84.6653 20.806C82.7953 21.752 82.5973 23.314 82.5973 23.71ZM83.7413 15.79C83.7413 16.56 84.4453 17.066 85.2373 17.858C86.8213 17.088 87.4153 16.56 87.4153 15.79C87.4153 14.976 86.8433 14.206 85.5453 14.206C84.1813 14.206 83.7413 15.02 83.7413 15.79ZM109.967 22.456C114.169 22.456 116.875 23.842 116.875 26.13C116.875 28.396 114.169 29.782 109.967 29.782C105.765 29.782 103.081 28.396 103.081 26.13C103.081 23.842 105.765 22.456 109.967 22.456ZM101.233 21.026V19.09H108.053V15.548H110.451V19.09H118.877V21.026H101.233ZM103.257 13.04V11.126H116.721V12.754C116.721 14.316 116.721 15.944 116.193 17.968L113.817 17.704C114.301 15.834 114.323 14.448 114.323 13.04H103.257ZM105.479 26.13C105.479 27.296 107.151 27.934 109.967 27.934C112.783 27.934 114.455 27.296 114.455 26.13C114.455 24.942 112.783 24.282 109.967 24.282C107.151 24.282 105.479 24.942 105.479 26.13ZM120.461 12.028H125.015V10.07H127.435V12.028H131.989V13.964H120.461V12.028ZM121.473 18.32C121.473 16.164 123.409 14.712 126.225 14.712C129.041 14.712 130.999 16.164 130.999 18.32C130.999 20.454 129.041 21.884 126.225 21.884C123.409 21.884 121.473 20.454 121.473 18.32ZM122.837 25.294V23.358H135.751V29.782H133.331V25.294H122.837ZM123.783 18.32C123.783 19.398 124.773 20.058 126.225 20.058C127.677 20.058 128.667 19.398 128.667 18.32C128.667 17.198 127.677 16.56 126.225 16.56C124.773 16.56 123.783 17.198 123.783 18.32ZM133.331 22.456V10.202H135.751V15.372H138.479V17.352H135.751V22.456H133.331ZM141.802 11.61H155.266V13.546H144.222V19.068H155.442V21.004H149.7V25.47H157.4V27.45H139.668V25.47H147.302V21.004H141.802V11.61ZM161.008 11.39H174.428V13.106C174.428 14.954 174.428 16.956 173.922 19.75H176.606V21.73H168.906V29.804H166.464V21.73H158.896V19.75H171.48C172.03 17.11 172.052 15.108 172.052 13.326H161.008V11.39Z" fill="white"/>
</svg>
