<svg width="192" height="44" viewBox="0 0 192 44" fill="none" xmlns="http://www.w3.org/2000/svg">
<rect x="6" y="2" width="180" height="40" rx="20" fill="#124899"/>
<path d="M34.25 13.39H36.802V14.842C36.802 17.878 39.706 20.914 43.776 21.618L42.72 23.62C39.442 22.96 36.78 20.98 35.526 18.362C34.25 20.958 31.588 22.96 28.332 23.62L27.298 21.618C31.302 20.892 34.25 17.856 34.25 14.842V13.39ZM26.748 29.274V27.294H44.48V29.274H26.748ZM53.4785 13.39H56.0305V14.842C56.0305 17.878 58.9345 20.914 63.0045 21.618L61.9485 23.62C58.6705 22.96 56.0085 20.98 54.7545 18.362C53.4785 20.958 50.8165 22.96 47.5605 23.62L46.5265 21.618C50.5305 20.892 53.4785 17.856 53.4785 14.842V13.39ZM45.9765 29.274V27.294H63.7085V29.274H45.9765ZM65.205 27.536H72.839V24.324H67.317V17.9H78.471V15.436H67.273V13.522H80.869V19.814H69.693V22.388H81.309V24.324H75.237V27.536H82.937V29.494H65.205V27.536ZM91.7699 12.906H104.926V14.82H94.1679V16.976H105.124V18.89H99.5579V20.342H107.192V22.256H89.5039V20.342H97.1379V18.89H91.7699V12.906ZM91.5499 25.336V23.532H104.992V28.328H93.9699V29.758H105.542V31.606H91.6159V26.612H102.616V25.336H91.5499ZM113.968 13.588C116.894 13.588 119.006 16.272 119.006 20.518C119.006 24.786 116.894 27.47 113.968 27.47C111.02 27.47 108.908 24.786 108.908 20.518C108.908 16.272 111.02 13.588 113.968 13.588ZM111.218 20.518C111.218 23.532 112.34 25.292 113.968 25.292C115.596 25.292 116.696 23.532 116.696 20.518C116.696 17.526 115.596 15.788 113.968 15.788C112.34 15.788 111.218 17.526 111.218 20.518ZM121.536 31.782V12.202H123.978V19.748H126.948V21.75H123.978V31.782H121.536ZM127.961 27.426H135.595V23.598H129.919V13.478H132.317V16.668H141.293V13.478H143.691V23.598H137.993V27.426H145.693V29.406H127.961V27.426ZM132.317 21.662H141.293V18.582H132.317V21.662ZM160.961 12.18H163.381V31.76H160.961V12.18ZM147.299 26.414C152.381 23.972 154.691 20.65 155.109 16.184H148.267V14.226H157.595C157.595 20.1 155.373 25.028 148.553 28.328L147.299 26.414Z" fill="white"/>
</svg>
