<svg width="176" height="48" viewBox="0 0 176 48" fill="none" xmlns="http://www.w3.org/2000/svg">
<rect x="2" y="2" width="40" height="40" rx="20" fill="#44617F"/>
<path d="M19.302 14.33V18.722H21.444V20.666H19.302V26.048H16.908V14.33H19.302ZM7.134 15.608H14.406V17.516H9.546V21.494C11.01 21.482 12.186 21.446 13.074 21.386C13.974 21.314 14.844 21.188 15.684 21.008L15.918 22.88C14.958 23.096 13.944 23.24 12.876 23.312C11.82 23.384 10.362 23.42 8.502 23.42H7.134V15.608ZM8.844 24.806H11.238V28.352H19.878V30.26H8.844V24.806ZM35.9164 14.33V26.606H33.5224V25.346H30.4984V23.726H33.5224V14.33H35.9164ZM22.2004 21.476C24.2644 21.464 26.1184 21.428 27.7624 21.368C29.4184 21.308 30.9964 21.182 32.4964 20.99L32.6404 22.682C31.5484 22.874 30.2824 23.03 28.8424 23.15V26.192H26.5924V28.352H36.2944V30.26H24.1984V25.436H26.4484V23.276C25.2844 23.336 23.9644 23.366 22.4884 23.366L22.2004 21.476ZM23.3524 17.768C23.3524 17.204 23.5204 16.706 23.8564 16.274C24.2044 15.83 24.6844 15.488 25.2964 15.248C25.9204 14.996 26.6224 14.87 27.4024 14.87C28.1824 14.87 28.8784 14.996 29.4904 15.248C30.1024 15.488 30.5764 15.83 30.9124 16.274C31.2604 16.706 31.4344 17.204 31.4344 17.768C31.4344 18.344 31.2604 18.854 30.9124 19.298C30.5764 19.73 30.1024 20.066 29.4904 20.306C28.8904 20.546 28.1944 20.666 27.4024 20.666C26.6104 20.666 25.9084 20.546 25.2964 20.306C24.6844 20.066 24.2044 19.73 23.8564 19.298C23.5204 18.854 23.3524 18.344 23.3524 17.768ZM25.6384 17.768C25.6384 18.14 25.7944 18.428 26.1064 18.632C26.4304 18.824 26.8624 18.92 27.4024 18.92C27.9544 18.92 28.3864 18.824 28.6984 18.632C29.0104 18.428 29.1664 18.14 29.1664 17.768C29.1664 17.396 29.0104 17.114 28.6984 16.922C28.3864 16.718 27.9544 16.616 27.4024 16.616C26.8624 16.616 26.4304 16.718 26.1064 16.922C25.7944 17.114 25.6384 17.396 25.6384 17.768Z" fill="white"/>
<path d="M174 7.5059C172.523 11.8344 167.917 22.6265 158.463 18.5865C149.009 14.5466 150.09 8.70781 152.798 6.54361C160.687 3.15594 165.11 16.4224 163.633 23.6364C159.497 43.8359 145.449 45.7595 137.078 46H15.1235C7.9446 45.5188 2.98615 41.6694 2 37.3388" stroke="#44617F" stroke-width="2" stroke-linecap="round"/>
<path d="M50.43 18.072H59.648V30.942H50.43V18.072ZM52.806 29.006H57.272V19.986H52.806V29.006ZM62.552 35.782V16.202H64.994V23.748H67.964V25.75H64.994V35.782H62.552ZM68.9765 27.312H86.7085V29.248H78.9865V35.804H76.5665V29.248H68.9765V27.312ZM71.0885 25.002V17.214H84.5085V25.002H71.0885ZM73.4645 23.11H82.1545V19.128H73.4645V23.11ZM101.977 16.158H104.397V35.804H101.977V16.158ZM89.239 19.854V17.918H98.413V25.266H91.725V29.182C94.783 29.16 97.423 29.028 100.437 28.522L100.679 30.48C97.357 31.052 94.453 31.162 90.977 31.162H89.283V23.33H95.971V19.854H89.239ZM120.26 16.202H122.68V23.99H125.65V25.992H122.68V35.782H120.26V16.202ZM107.324 21.108V19.172H111.878V16.488H114.32V19.172H118.808V21.108H107.324ZM108.226 27.026C108.226 24.32 110.316 22.428 113.11 22.428C115.948 22.428 118.016 24.32 118.016 27.026C118.016 29.732 115.948 31.624 113.11 31.624C110.316 31.624 108.226 29.732 108.226 27.026ZM110.558 27.026C110.558 28.632 111.614 29.644 113.11 29.644C114.606 29.644 115.684 28.632 115.684 27.026C115.684 25.42 114.606 24.386 113.11 24.386C111.614 24.386 110.558 25.42 110.558 27.026ZM140.434 16.18H142.854V35.76H140.434V16.18ZM126.772 30.414C131.854 27.972 134.164 24.65 134.582 20.184H127.74V18.226H137.068C137.068 24.1 134.846 29.028 128.026 32.328L126.772 30.414Z" fill="black"/>
</svg>
