<svg width="172" height="34" viewBox="0 0 172 34" fill="none" xmlns="http://www.w3.org/2000/svg">
<g clip-path="url(#clip0_9954_40591)">
<path d="M18.3081 4.80908H1.98197C0.991205 4.80908 0.21582 5.58447 0.21582 6.57524V16.526C0.21582 17.5168 0.991205 18.2922 1.98197 18.2922H3.0589V22.5568L7.32351 18.2922H18.3512C19.342 18.2922 20.1174 17.5168 20.1174 16.526V6.57524C20.0743 5.62754 19.2989 4.80908 18.3081 4.80908Z" fill="#4AB670"/>
<path d="M9.69291 11.4429H26.0191C27.0098 11.4429 27.7852 12.2183 27.7852 13.209V23.1598C27.7852 24.1506 27.0098 24.9259 26.0191 24.9259H24.9421V29.1906L20.6775 24.9259H9.69291C8.70214 24.9259 7.92676 24.1506 7.92676 23.1598V13.209C7.92676 12.2183 8.70214 11.4429 9.69291 11.4429Z" fill="#FFC333"/>
<path d="M18.3081 4.80908H1.98197C0.991205 4.80908 0.21582 5.58447 0.21582 6.57524V7.30754C0.21582 6.31677 0.991205 5.54139 1.98197 5.54139H18.3081C19.2989 5.54139 20.0743 6.31677 20.0743 7.30754V6.57524C20.0743 5.62754 19.2989 4.80908 18.3081 4.80908Z" fill="#4AB670"/>
<path d="M9.69291 11.4429H26.0191C27.0098 11.4429 27.7852 12.2183 27.7852 13.209V23.1598C27.7852 24.1506 27.0098 24.9259 26.0191 24.9259H24.9421V29.1906L20.6775 24.9259H9.69291C8.70214 24.9259 7.92676 24.1506 7.92676 23.1598V13.209C7.92676 12.2183 8.70214 11.4429 9.69291 11.4429Z" fill="#FFC333"/>
<path d="M12.8802 19.6276C13.808 19.6276 14.5602 18.8754 14.5602 17.9476C14.5602 17.0197 13.808 16.2676 12.8802 16.2676C11.9524 16.2676 11.2002 17.0197 11.2002 17.9476C11.2002 18.8754 11.9524 19.6276 12.8802 19.6276Z" fill="white"/>
<path d="M17.8343 19.6276C18.7621 19.6276 19.5143 18.8754 19.5143 17.9476C19.5143 17.0197 18.7621 16.2676 17.8343 16.2676C16.9065 16.2676 16.1543 17.0197 16.1543 17.9476C16.1543 18.8754 16.9065 19.6276 17.8343 19.6276Z" fill="white"/>
<path d="M22.8314 19.6276C23.7592 19.6276 24.5114 18.8754 24.5114 17.9476C24.5114 17.0197 23.7592 16.2676 22.8314 16.2676C21.9035 16.2676 21.1514 17.0197 21.1514 17.9476C21.1514 18.8754 21.9035 19.6276 22.8314 19.6276Z" fill="white"/>
<path d="M26.0191 11.4429H9.69291C8.70214 11.4429 7.92676 12.2183 7.92676 13.209V13.9413C7.92676 12.9506 8.70214 12.1752 9.69291 12.1752H26.0191C27.0098 12.1752 27.7852 12.9506 27.7852 13.9413V13.209C27.7852 12.2183 27.0098 11.4429 26.0191 11.4429Z" fill="#FFC333"/>
</g>
<path d="M48.848 10.986H44.272V25.176H41.918V10.986H37.32V8.94H48.848V10.986ZM53.869 25.286C52.9157 25.286 52.0577 25.0587 51.295 24.604C50.547 24.1493 49.9603 23.526 49.535 22.734C49.1097 21.9273 48.897 21.018 48.897 20.006C48.897 18.994 49.1097 18.092 49.535 17.3C49.9603 16.4933 50.547 15.8627 51.295 15.408C52.0577 14.9533 52.9157 14.726 53.869 14.726C54.4117 14.726 54.947 14.8507 55.475 15.1C56.003 15.3493 56.4723 15.716 56.883 16.2V14.704H59.215V25.198H56.883V23.79C56.487 24.2887 56.025 24.6627 55.497 24.912C54.969 25.1613 54.4263 25.286 53.869 25.286ZM51.229 20.006C51.229 20.9887 51.4857 21.788 51.999 22.404C52.5123 23.0053 53.187 23.306 54.023 23.306C54.5363 23.306 55.013 23.1667 55.453 22.888C55.893 22.5947 56.245 22.1987 56.509 21.7C56.773 21.1867 56.905 20.622 56.905 20.006C56.905 19.39 56.773 18.8327 56.509 18.334C56.245 17.8207 55.893 17.4247 55.453 17.146C55.013 16.8527 54.5363 16.706 54.023 16.706C53.187 16.706 52.5123 17.0067 51.999 17.608C51.4857 18.2093 51.229 19.0087 51.229 20.006ZM64.3831 9.468V25.176H62.0511V9.468H64.3831ZM69.8683 19.038L73.6083 14.704H76.7543L72.6623 19.39L76.6663 25.198H73.8283L70.9903 21.128L69.8683 22.448V25.198H67.5363V9.468H69.8683V19.038ZM95.7054 10.986H91.1294V25.176H88.7754V10.986H84.1774V8.94H95.7054V10.986ZM100.814 23.284C101.636 23.284 102.296 22.9833 102.794 22.382C103.293 21.7807 103.542 20.9813 103.542 19.984C103.542 19.0013 103.293 18.2093 102.794 17.608C102.296 16.992 101.636 16.684 100.814 16.684C99.9931 16.684 99.3331 16.9847 98.8344 17.586C98.3357 18.1873 98.0864 18.9867 98.0864 19.984C98.0864 20.9813 98.3357 21.7807 98.8344 22.382C99.3331 22.9833 99.9931 23.284 100.814 23.284ZM95.7544 19.984C95.7544 18.9573 95.9671 18.048 96.3924 17.256C96.8324 16.4493 97.4337 15.8187 98.1964 15.364C98.9591 14.9093 99.8317 14.682 100.814 14.682C101.797 14.682 102.67 14.9093 103.432 15.364C104.195 15.8187 104.789 16.4493 105.214 17.256C105.654 18.048 105.874 18.9573 105.874 19.984C105.874 20.996 105.654 21.9053 105.214 22.712C104.789 23.5187 104.195 24.1493 103.432 24.604C102.67 25.0587 101.797 25.286 100.814 25.286C99.8317 25.286 98.9591 25.0587 98.1964 24.604C97.4337 24.1493 96.8324 23.5187 96.3924 22.712C95.9671 21.9053 95.7544 20.996 95.7544 19.984ZM113.019 23.262C113.561 23.262 114.053 23.1153 114.493 22.822C114.933 22.5287 115.277 22.1327 115.527 21.634C115.776 21.1207 115.901 20.5633 115.901 19.962C115.901 19.3753 115.776 18.8327 115.527 18.334C115.277 17.8207 114.933 17.4173 114.493 17.124C114.053 16.8307 113.561 16.684 113.019 16.684C112.197 16.684 111.53 16.9847 111.017 17.586C110.503 18.1873 110.247 18.9793 110.247 19.962C110.247 20.9593 110.496 21.7587 110.995 22.36C111.508 22.9613 112.183 23.262 113.019 23.262ZM107.915 19.984C107.915 18.972 108.127 18.0627 108.553 17.256C108.978 16.4493 109.565 15.8187 110.313 15.364C111.075 14.9093 111.933 14.682 112.887 14.682C113.444 14.682 113.994 14.8213 114.537 15.1C115.094 15.364 115.549 15.738 115.901 16.222V14.682H118.233V24.406C118.233 25.4033 118.013 26.32 117.573 27.156C117.147 27.992 116.539 28.652 115.747 29.136C114.955 29.62 114.038 29.862 112.997 29.862C112.073 29.862 111.215 29.6567 110.423 29.246C109.645 28.85 109.007 28.2413 108.509 27.42L110.357 26.188C110.753 26.76 111.149 27.1707 111.545 27.42C111.955 27.6693 112.439 27.794 112.997 27.794C113.891 27.794 114.595 27.486 115.109 26.87C115.637 26.254 115.901 25.4987 115.901 24.604V23.68C115.505 24.1787 115.028 24.5673 114.471 24.846C113.928 25.1247 113.4 25.264 112.887 25.264C111.933 25.264 111.075 25.0367 110.313 24.582C109.565 24.1273 108.978 23.504 108.553 22.712C108.127 21.9053 107.915 20.996 107.915 19.984ZM125.436 25.242C124.453 25.242 123.58 25.022 122.818 24.582C122.055 24.1273 121.454 23.504 121.014 22.712C120.588 21.9053 120.376 20.996 120.376 19.984C120.376 18.9573 120.588 18.048 121.014 17.256C121.454 16.4493 122.055 15.826 122.818 15.386C123.58 14.9313 124.453 14.704 125.436 14.704C126.8 14.704 127.819 15.0487 128.494 15.738C129.168 16.4127 129.601 17.014 129.792 17.542C130.1 18.2607 130.254 19.1187 130.254 20.116C130.254 20.38 130.246 20.5707 130.232 20.688C130.232 20.7907 130.232 20.8567 130.232 20.886H122.664C122.796 21.59 123.126 22.162 123.654 22.602C124.182 23.042 124.776 23.262 125.436 23.262C126.184 23.262 126.763 23.1153 127.174 22.822C127.584 22.5287 127.878 22.2353 128.054 21.942L129.924 22.778C129.63 23.4527 129.095 24.032 128.318 24.516C127.555 25 126.594 25.242 125.436 25.242ZM128.032 19.038C127.914 18.334 127.643 17.7693 127.218 17.344C126.792 16.904 126.198 16.684 125.436 16.684C124.746 16.684 124.145 16.904 123.632 17.344C123.118 17.784 122.796 18.3487 122.664 19.038H128.032ZM133.586 16.706H131.606V14.682H133.586V11.008H135.918V14.682H138.404V16.706H135.918V25.198H133.586V16.706ZM147.796 19.456C147.796 18.5907 147.605 17.9013 147.224 17.388C146.842 16.8747 146.336 16.618 145.706 16.618C145.236 16.618 144.804 16.7573 144.408 17.036C144.012 17.3 143.696 17.6667 143.462 18.136C143.242 18.6053 143.132 19.1187 143.132 19.676V25H140.8V9.468H143.132V15.936C143.454 15.5253 143.85 15.2027 144.32 14.968C144.789 14.7187 145.251 14.594 145.706 14.594C146.556 14.594 147.319 14.792 147.994 15.188C148.668 15.584 149.196 16.134 149.578 16.838C149.959 17.5273 150.15 18.312 150.15 19.192V25H147.796V19.456ZM157.769 25.242C156.787 25.242 155.914 25.022 155.151 24.582C154.389 24.1273 153.787 23.504 153.347 22.712C152.922 21.9053 152.709 20.996 152.709 19.984C152.709 18.9573 152.922 18.048 153.347 17.256C153.787 16.4493 154.389 15.826 155.151 15.386C155.914 14.9313 156.787 14.704 157.769 14.704C159.133 14.704 160.153 15.0487 160.827 15.738C161.502 16.4127 161.935 17.014 162.125 17.542C162.433 18.2607 162.587 19.1187 162.587 20.116C162.587 20.38 162.58 20.5707 162.565 20.688C162.565 20.7907 162.565 20.8567 162.565 20.886H154.997C155.129 21.59 155.459 22.162 155.987 22.602C156.515 23.042 157.109 23.262 157.769 23.262C158.517 23.262 159.097 23.1153 159.507 22.822C159.918 22.5287 160.211 22.2353 160.387 21.942L162.257 22.778C161.964 23.4527 161.429 24.032 160.651 24.516C159.889 25 158.928 25.242 157.769 25.242ZM160.365 19.038C160.248 18.334 159.977 17.7693 159.551 17.344C159.126 16.904 158.532 16.684 157.769 16.684C157.08 16.684 156.479 16.904 155.965 17.344C155.452 17.784 155.129 18.3487 154.997 19.038H160.365ZM164.941 14.704H167.273V16.244C167.625 15.7453 168.095 15.3493 168.681 15.056C169.268 14.7627 169.869 14.6307 170.485 14.66V16.816C169.884 16.7867 169.334 16.926 168.835 17.234C168.351 17.5273 167.97 17.9233 167.691 18.422C167.413 18.9207 167.273 19.4413 167.273 19.984V25.198H164.941V14.704Z" fill="#996500"/>
<defs>
<clipPath id="clip0_9954_40591">
<rect width="28" height="28" fill="white" transform="translate(0 3)"/>
</clipPath>
</defs>
</svg>
