<svg width="212" height="46" viewBox="0 0 212 46" fill="none" xmlns="http://www.w3.org/2000/svg">
<path d="M32.651 26.5667C30.946 19.4425 26.2296 15.9724 19.6987 19.2317C14.0046 24.8765 21.6929 29.3758 38.6427 27.6116" stroke="#4B6F98" stroke-width="35" stroke-miterlimit="10" stroke-linecap="round"/>
<path d="M17.7625 22.2476C17.2573 23.7653 15.92 24.3796 14.6916 23.8918C13.4633 23.4039 12.7897 22.0217 13.3147 20.4679C13.9289 18.6249 15.4247 17.5228 16.653 18.0196C17.8814 18.5075 18.3767 20.4046 17.7625 22.2476Z" fill="white"/>
<path d="M17.7625 22.2476C17.2573 23.7653 15.92 24.3796 14.6916 23.8918C13.4633 23.4039 12.7897 22.0217 13.3147 20.4679C13.9289 18.6249 15.4247 17.5228 16.653 18.0196C17.8814 18.5075 18.3767 20.4046 17.7625 22.2476Z" stroke="#231815" stroke-width="0.5" stroke-miterlimit="10"/>
<path d="M17.9295 21.0276C17.8106 21.8497 17.0776 22.4279 16.3049 22.3376C15.5322 22.2472 14.9973 21.5064 15.1161 20.6843C15.235 19.8713 15.9582 19.2841 16.7407 19.3744C17.5134 19.4647 18.0484 20.2055 17.9295 21.0276Z" fill="#231815"/>
<path d="M24.1801 22.2476C23.6155 23.7653 22.1295 24.3796 20.7625 23.8918C19.3955 23.4039 18.6525 22.0217 19.2271 20.4679C19.9106 18.6249 21.5748 17.5228 22.9418 18.0196C24.3089 18.5075 24.8636 20.4046 24.1801 22.2476Z" fill="white"/>
<path d="M24.1801 22.2476C23.6155 23.7653 22.1295 24.3796 20.7625 23.8918C19.3955 23.4039 18.6525 22.0217 19.2271 20.4679C19.9106 18.6249 21.5748 17.5228 22.9418 18.0196C24.3089 18.5075 24.8636 20.4046 24.1801 22.2476Z" stroke="#231815" stroke-width="0.5" stroke-miterlimit="10"/>
<path d="M24.3689 21.0276C24.2501 21.8497 23.517 22.4279 22.7443 22.3376C21.9717 22.2472 21.4367 21.5064 21.5556 20.6843C21.6745 19.8713 22.3976 19.2841 23.1802 19.3744C23.9529 19.4647 24.4878 20.2055 24.3689 21.0276Z" fill="#231815"/>
<path d="M21.6655 26.7286C21.2494 26.7286 20.556 26.4124 20.1301 25.7168M15.5039 26.4395C15.5039 26.4395 18.1488 28.6348 20.7839 26.4395" stroke="#231815" stroke-width="0.5" stroke-miterlimit="10" stroke-linecap="round"/>
<path d="M12.8867 23.9912C12.8867 23.9912 14.6797 22.8619 17.4931 23.9912C17.4931 23.9912 16.5916 25.2198 15.1849 25.2198C13.7783 25.2198 13.2731 24.6055 12.8867 23.9912Z" fill="#4B6F98"/>
<path d="M19.1582 24.1171C19.1582 24.1171 20.9512 22.9879 23.7645 24.1171C23.7645 24.1171 22.8631 25.3458 21.4564 25.3458C20.0498 25.3458 19.5445 24.7314 19.1582 24.1171Z" fill="#4B6F98"/>
<path d="M13.4629 23.7832C13.4629 23.7832 15.1766 23.0153 17.3065 23.991" stroke="#231815" stroke-width="0.5" stroke-miterlimit="10" stroke-linecap="round"/>
<path d="M19.6738 24C19.6738 24 21.3876 23.2321 23.5174 24.2078" stroke="#231815" stroke-width="0.5" stroke-miterlimit="10" stroke-linecap="round"/>
<path d="M24.7255 17.6665C24.7255 17.6665 23.3387 16.2481 21.0801 17.1516" stroke="#231815" stroke-width="0.5" stroke-miterlimit="10" stroke-linecap="round"/>
<path d="M17.8407 17.667C17.8407 17.667 16.7213 16.2215 14.4727 17.2604" stroke="#231815" stroke-width="0.5" stroke-miterlimit="10" stroke-linecap="round"/>
<rect x="26" y="9" width="186" height="36" rx="18" fill="#4B6F98"/>
<path d="M35.364 18.984H37.63V23.538H40.732V18.984H42.976V32.03H35.364V18.984ZM37.63 30.094H40.732V25.43H37.63V30.094ZM44.868 35.836V17.554H47.134V24.77H49.18V17.18H51.468V36.76H49.18V26.728H47.134V35.836H44.868ZM53.9765 26.882H71.7085V28.796H64.2065V32.404H61.7425V28.796H53.9765V26.882ZM55.8465 21.624C55.8465 19.16 58.6405 17.598 62.8205 17.598C67.0225 17.598 69.7945 19.16 69.7945 21.624C69.7945 24.088 67.0225 25.628 62.8205 25.628C58.6405 25.628 55.8465 24.088 55.8465 21.624ZM56.1105 36.386V30.578H58.5525V34.428H69.7505V36.386H56.1105ZM58.4425 21.624C58.4425 22.944 60.1585 23.692 62.8205 23.692C65.4825 23.692 67.1985 22.944 67.1985 21.624C67.1985 20.282 65.4825 19.534 62.8205 19.534C60.1585 19.534 58.4425 20.282 58.4425 21.624ZM92.6413 17.18H94.9513V36.76H92.6413V26.86H90.5073V35.792H88.2633V17.576H90.5073V24.902H92.6413V17.18ZM79.1113 31.898V19.446H81.5093V29.786C83.1593 29.764 85.0293 29.61 87.0533 29.214L87.2953 31.304C84.6993 31.788 82.4553 31.898 80.4313 31.898H79.1113ZM97.5039 26.64H101.618V24.132C100.166 23.494 99.3299 22.504 99.3299 21.228C99.3299 18.896 102.058 17.51 106.348 17.51C110.638 17.51 113.366 18.896 113.366 21.228C113.366 22.504 112.53 23.516 111.034 24.154V26.64H115.192V28.532H97.5039V26.64ZM99.5499 33.24C99.5499 30.996 102.102 29.72 106.326 29.72C110.528 29.72 113.08 30.996 113.08 33.24C113.08 35.506 110.528 36.782 106.326 36.782C102.102 36.782 99.5499 35.506 99.5499 33.24ZM101.816 21.228C101.816 22.438 103.488 23.098 106.348 23.098C109.186 23.098 110.858 22.438 110.858 21.228C110.858 20.018 109.186 19.358 106.348 19.358C103.488 19.358 101.816 20.018 101.816 21.228ZM101.992 33.24C101.992 34.362 103.51 34.934 106.326 34.934C109.12 34.934 110.638 34.362 110.638 33.24C110.638 32.14 109.12 31.568 106.326 31.568C103.51 31.568 101.992 32.14 101.992 33.24ZM104.016 26.64H108.636V24.77C107.932 24.88 107.162 24.924 106.348 24.924C105.512 24.924 104.72 24.88 104.016 24.77V26.64ZM134.761 17.202H137.181V22.922H139.821V24.902H137.181V30.446H134.761V17.202ZM121.605 28.114C123.079 28.114 124.773 28.114 126.511 28.07V26.838C124.355 26.574 123.013 25.54 123.013 24C123.013 22.196 124.861 21.096 127.677 21.096C130.537 21.096 132.385 22.196 132.385 24C132.385 25.54 131.065 26.552 128.909 26.838V27.982C130.581 27.894 132.231 27.762 133.793 27.542L133.991 29.236C129.855 29.962 125.323 29.984 121.913 30.006L121.605 28.114ZM122.111 20.524V18.742H126.511V17.026H128.909V18.742H133.265V20.524H122.111ZM124.069 33.196V31.304H137.181V36.782H134.761V33.196H124.069ZM125.301 24C125.301 24.814 126.203 25.32 127.677 25.32C129.173 25.32 130.097 24.814 130.097 24C130.097 23.164 129.173 22.68 127.677 22.68C126.203 22.68 125.301 23.164 125.301 24ZM154.781 17.202H157.201V31.348H154.781V17.202ZM141.361 23.406C141.361 20.524 143.649 18.478 146.597 18.478C149.567 18.478 151.833 20.524 151.833 23.406C151.833 26.244 149.567 28.312 146.597 28.312C143.649 28.312 141.361 26.244 141.361 23.406ZM143.715 23.406C143.715 25.1 144.969 26.2 146.597 26.2C148.225 26.2 149.479 25.1 149.479 23.406C149.479 21.668 148.225 20.568 146.597 20.568C144.969 20.568 143.715 21.668 143.715 23.406ZM144.353 36.386V29.94H146.751V34.45H157.729V36.386H144.353ZM173.086 17.202H175.506V24.99H178.476V26.992H175.506V36.782H173.086V17.202ZM160.15 22.108V20.172H164.704V17.488H167.146V20.172H171.634V22.108H160.15ZM161.052 28.026C161.052 25.32 163.142 23.428 165.936 23.428C168.774 23.428 170.842 25.32 170.842 28.026C170.842 30.732 168.774 32.624 165.936 32.624C163.142 32.624 161.052 30.732 161.052 28.026ZM163.384 28.026C163.384 29.632 164.44 30.644 165.936 30.644C167.432 30.644 168.51 29.632 168.51 28.026C168.51 26.42 167.432 25.386 165.936 25.386C164.44 25.386 163.384 26.42 163.384 28.026ZM193.26 17.18H195.68V36.76H193.26V17.18ZM179.598 31.414C184.68 28.972 186.99 25.65 187.408 21.184H180.566V19.226H189.894C189.894 25.1 187.672 30.028 180.852 33.328L179.598 31.414Z" fill="white"/>
</svg>
