<svg width="175" height="36" viewBox="0 0 175 36" fill="none" xmlns="http://www.w3.org/2000/svg">
<mask id="path-1-outside-1_1960_5600" maskUnits="userSpaceOnUse" x="8" y="6" width="126" height="28" fill="black">
<rect fill="white" x="8" y="6" width="126" height="28"/>
<path d="M22.012 9.94V11.986H14.07V17.024H20.802V19.048H14.07V26.176H11.738V9.94H22.012ZM26.1631 21.688C26.1631 23.294 27.1091 24.284 28.4951 24.284C29.9691 24.284 30.9811 23.316 30.9591 21.71V15.704H33.3131V26.198H30.9591V24.988C30.2991 25.802 29.2211 26.286 28.1871 26.286C25.6571 26.286 23.8311 24.46 23.8311 21.776V15.704H26.1631V21.688ZM43.463 20.412C43.463 18.74 42.605 17.728 41.153 17.728C39.723 17.75 38.623 18.872 38.645 20.412V26.198H36.313V15.704H38.645V17.134C39.305 16.32 40.427 15.726 41.439 15.726C43.419 15.726 45.795 17.024 45.795 20.324V26.198H43.463V20.412Z"/>
<path d="M62.5778 9.94L68.6058 26.176H66.1198L64.4918 21.754H57.8258L56.1318 26.176H53.6458L59.7838 9.94H62.5778ZM58.5738 19.73H63.7218L61.1918 12.888L58.5738 19.73ZM74.1847 24.042C74.9987 24.042 75.9447 23.624 76.5387 22.964L78.1447 24.57C77.2427 25.56 75.5927 26.264 74.2727 26.264C71.1487 26.264 68.9487 24.064 68.9487 20.984C68.9487 17.882 71.1487 15.682 74.2727 15.682C75.6587 15.682 77.1987 16.386 78.1447 17.398L76.5387 18.982C75.9447 18.322 74.9987 17.904 74.1847 17.904C72.4467 17.904 71.2807 19.114 71.2807 20.984C71.2807 22.832 72.4467 24.042 74.1847 24.042ZM81.4826 26.198V17.706H79.5026V15.682H81.4826V12.008H83.8146V15.682H86.3006V17.706H83.8146V26.198H81.4826ZM88.6961 15.682H91.0281V26.176H88.6961V15.682ZM88.5421 11.766C88.5421 10.996 89.0921 10.446 89.8621 10.446C90.6321 10.446 91.1821 10.996 91.1821 11.766C91.1821 12.536 90.6321 13.086 89.8621 13.086C89.0921 13.086 88.5421 12.536 88.5421 11.766ZM104.293 15.704L99.849 26.198H97.825L93.425 15.704H95.977L98.837 23.052L101.719 15.704H104.293ZM106.614 15.682H108.946V26.176H106.614V15.682ZM106.46 11.766C106.46 10.996 107.01 10.446 107.78 10.446C108.55 10.446 109.1 10.996 109.1 11.766C109.1 12.536 108.55 13.086 107.78 13.086C107.01 13.086 106.46 12.536 106.46 11.766ZM113.516 26.198V17.706H111.536V15.682H113.516V12.008H115.848V15.682H118.334V17.706H115.848V26.198H113.516ZM124.212 30.752H121.66L123.948 25.318L119.724 15.704H122.298L125.18 22.656L127.952 15.704H130.482L126.566 25.142L124.212 30.752Z"/>
</mask>
<path d="M22.012 9.94V11.986H14.07V17.024H20.802V19.048H14.07V26.176H11.738V9.94H22.012ZM26.1631 21.688C26.1631 23.294 27.1091 24.284 28.4951 24.284C29.9691 24.284 30.9811 23.316 30.9591 21.71V15.704H33.3131V26.198H30.9591V24.988C30.2991 25.802 29.2211 26.286 28.1871 26.286C25.6571 26.286 23.8311 24.46 23.8311 21.776V15.704H26.1631V21.688ZM43.463 20.412C43.463 18.74 42.605 17.728 41.153 17.728C39.723 17.75 38.623 18.872 38.645 20.412V26.198H36.313V15.704H38.645V17.134C39.305 16.32 40.427 15.726 41.439 15.726C43.419 15.726 45.795 17.024 45.795 20.324V26.198H43.463V20.412Z" fill="#F98D99"/>
<path d="M62.5778 9.94L68.6058 26.176H66.1198L64.4918 21.754H57.8258L56.1318 26.176H53.6458L59.7838 9.94H62.5778ZM58.5738 19.73H63.7218L61.1918 12.888L58.5738 19.73ZM74.1847 24.042C74.9987 24.042 75.9447 23.624 76.5387 22.964L78.1447 24.57C77.2427 25.56 75.5927 26.264 74.2727 26.264C71.1487 26.264 68.9487 24.064 68.9487 20.984C68.9487 17.882 71.1487 15.682 74.2727 15.682C75.6587 15.682 77.1987 16.386 78.1447 17.398L76.5387 18.982C75.9447 18.322 74.9987 17.904 74.1847 17.904C72.4467 17.904 71.2807 19.114 71.2807 20.984C71.2807 22.832 72.4467 24.042 74.1847 24.042ZM81.4826 26.198V17.706H79.5026V15.682H81.4826V12.008H83.8146V15.682H86.3006V17.706H83.8146V26.198H81.4826ZM88.6961 15.682H91.0281V26.176H88.6961V15.682ZM88.5421 11.766C88.5421 10.996 89.0921 10.446 89.8621 10.446C90.6321 10.446 91.1821 10.996 91.1821 11.766C91.1821 12.536 90.6321 13.086 89.8621 13.086C89.0921 13.086 88.5421 12.536 88.5421 11.766ZM104.293 15.704L99.849 26.198H97.825L93.425 15.704H95.977L98.837 23.052L101.719 15.704H104.293ZM106.614 15.682H108.946V26.176H106.614V15.682ZM106.46 11.766C106.46 10.996 107.01 10.446 107.78 10.446C108.55 10.446 109.1 10.996 109.1 11.766C109.1 12.536 108.55 13.086 107.78 13.086C107.01 13.086 106.46 12.536 106.46 11.766ZM113.516 26.198V17.706H111.536V15.682H113.516V12.008H115.848V15.682H118.334V17.706H115.848V26.198H113.516ZM124.212 30.752H121.66L123.948 25.318L119.724 15.704H122.298L125.18 22.656L127.952 15.704H130.482L126.566 25.142L124.212 30.752Z" fill="#4B93FF"/>
<path d="M22.012 9.94H25.012C25.012 8.28315 23.6689 6.94 22.012 6.94V9.94ZM22.012 11.986V14.986C23.6689 14.986 25.012 13.6429 25.012 11.986H22.012ZM14.07 11.986V8.986C12.4131 8.986 11.07 10.3291 11.07 11.986H14.07ZM14.07 17.024H11.07C11.07 18.6809 12.4131 20.024 14.07 20.024V17.024ZM20.802 17.024H23.802C23.802 15.3671 22.4589 14.024 20.802 14.024V17.024ZM20.802 19.048V22.048C22.4589 22.048 23.802 20.7049 23.802 19.048H20.802ZM14.07 19.048V16.048C12.4131 16.048 11.07 17.3911 11.07 19.048H14.07ZM14.07 26.176V29.176C15.7269 29.176 17.07 27.8329 17.07 26.176H14.07ZM11.738 26.176H8.738C8.738 27.8329 10.0811 29.176 11.738 29.176V26.176ZM11.738 9.94V6.94C10.0811 6.94 8.738 8.28315 8.738 9.94H11.738ZM19.012 9.94V11.986H25.012V9.94H19.012ZM22.012 8.986H14.07V14.986H22.012V8.986ZM11.07 11.986V17.024H17.07V11.986H11.07ZM14.07 20.024H20.802V14.024H14.07V20.024ZM17.802 17.024V19.048H23.802V17.024H17.802ZM20.802 16.048H14.07V22.048H20.802V16.048ZM11.07 19.048V26.176H17.07V19.048H11.07ZM14.07 23.176H11.738V29.176H14.07V23.176ZM14.738 26.176V9.94H8.738V26.176H14.738ZM11.738 12.94H22.012V6.94H11.738V12.94ZM30.9591 21.71H27.9591C27.9591 21.7237 27.9592 21.7374 27.9594 21.7511L30.9591 21.71ZM30.9591 15.704V12.704C29.3023 12.704 27.9591 14.0471 27.9591 15.704H30.9591ZM33.3131 15.704H36.3131C36.3131 14.0471 34.97 12.704 33.3131 12.704V15.704ZM33.3131 26.198V29.198C34.97 29.198 36.3131 27.8549 36.3131 26.198H33.3131ZM30.9591 26.198H27.9591C27.9591 27.8549 29.3023 29.198 30.9591 29.198V26.198ZM30.9591 24.988H33.9591C33.9591 23.7175 33.1589 22.5848 31.9614 22.1604C30.764 21.7359 29.429 22.1118 28.6289 23.0986L30.9591 24.988ZM23.8311 15.704V12.704C22.1743 12.704 20.8311 14.0471 20.8311 15.704H23.8311ZM26.1631 15.704H29.1631C29.1631 14.0471 27.82 12.704 26.1631 12.704V15.704ZM23.1631 21.688C23.1631 23.0742 23.5781 24.4998 24.5951 25.6123C25.6339 26.7488 27.0542 27.284 28.4951 27.284V21.284C28.5077 21.284 28.5843 21.2869 28.6977 21.3341C28.8146 21.3827 28.9301 21.4619 29.0237 21.5642C29.2211 21.7802 29.1631 21.9078 29.1631 21.688H23.1631ZM28.4951 27.284C29.8985 27.284 31.3402 26.8103 32.4293 25.7005C33.5211 24.588 33.9788 23.1222 33.9588 21.6689L27.9594 21.7511C27.9605 21.834 27.9475 21.8302 27.9704 21.7669C27.9949 21.6994 28.0488 21.598 28.1469 21.498C28.2449 21.3982 28.3495 21.3378 28.43 21.3069C28.5066 21.2775 28.5358 21.284 28.4951 21.284V27.284ZM33.9591 21.71V15.704H27.9591V21.71H33.9591ZM30.9591 18.704H33.3131V12.704H30.9591V18.704ZM30.3131 15.704V26.198H36.3131V15.704H30.3131ZM33.3131 23.198H30.9591V29.198H33.3131V23.198ZM33.9591 26.198V24.988H27.9591V26.198H33.9591ZM28.6289 23.0986C28.615 23.1157 28.5607 23.17 28.4532 23.2197C28.3453 23.2697 28.2457 23.286 28.1871 23.286V29.286C30.0751 29.286 32.0287 28.4322 33.2894 26.8774L28.6289 23.0986ZM28.1871 23.286C27.6664 23.286 27.3725 23.1114 27.2076 22.9424C27.04 22.7706 26.8311 22.4229 26.8311 21.776H20.8311C20.8311 23.8131 21.5353 25.7204 22.9131 27.1326C24.2937 28.5476 26.1778 29.286 28.1871 29.286V23.286ZM26.8311 21.776V15.704H20.8311V21.776H26.8311ZM23.8311 18.704H26.1631V12.704H23.8311V18.704ZM23.1631 15.704V21.688H29.1631V15.704H23.1631ZM41.153 17.728V14.728C41.1376 14.728 41.1223 14.7281 41.1069 14.7284L41.153 17.728ZM38.645 20.412H41.645C41.645 20.3977 41.6449 20.3834 41.6447 20.3691L38.645 20.412ZM38.645 26.198V29.198C40.3019 29.198 41.645 27.8549 41.645 26.198H38.645ZM36.313 26.198H33.313C33.313 27.8549 34.6562 29.198 36.313 29.198V26.198ZM36.313 15.704V12.704C34.6562 12.704 33.313 14.0471 33.313 15.704H36.313ZM38.645 15.704H41.645C41.645 14.0471 40.3019 12.704 38.645 12.704V15.704ZM38.645 17.134H35.645C35.645 18.4045 36.4453 19.5372 37.6427 19.9616C38.8402 20.3861 40.1752 20.0102 40.9753 19.0234L38.645 17.134ZM45.795 26.198V29.198C47.4519 29.198 48.795 27.8549 48.795 26.198H45.795ZM43.463 26.198H40.463C40.463 27.8549 41.8062 29.198 43.463 29.198V26.198ZM46.463 20.412C46.463 19.0943 46.1251 17.6512 45.1303 16.4906C44.0836 15.2695 42.6226 14.728 41.153 14.728V20.728C41.1664 20.728 41.0858 20.7297 40.9528 20.6731C40.813 20.6137 40.6782 20.5161 40.5748 20.3954C40.3719 20.1588 40.463 20.0576 40.463 20.412H46.463ZM41.1069 14.7284C37.9548 14.7768 35.6007 17.3269 35.6453 20.4549L41.6447 20.3691C41.6443 20.342 41.646 20.4441 41.5317 20.5647C41.4183 20.6843 41.2785 20.7264 41.1992 20.7276L41.1069 14.7284ZM35.645 20.412V26.198H41.645V20.412H35.645ZM38.645 23.198H36.313V29.198H38.645V23.198ZM39.313 26.198V15.704H33.313V26.198H39.313ZM36.313 18.704H38.645V12.704H36.313V18.704ZM35.645 15.704V17.134H41.645V15.704H35.645ZM40.9753 19.0234C41.0194 18.969 41.1258 18.8725 41.2756 18.7959C41.3437 18.7611 41.4002 18.7411 41.4377 18.7312C41.4761 18.721 41.4766 18.726 41.439 18.726V12.726C39.4028 12.726 37.4644 13.8267 36.3148 15.2446L40.9753 19.0234ZM41.439 18.726C41.8206 18.726 42.1716 18.8592 42.383 19.0443C42.4782 19.1277 42.5676 19.2386 42.6399 19.4057C42.7135 19.5754 42.795 19.8636 42.795 20.324H48.795C48.795 17.8856 47.8833 15.8857 46.3361 14.5307C44.8644 13.2418 43.0375 12.726 41.439 12.726V18.726ZM42.795 20.324V26.198H48.795V20.324H42.795ZM45.795 23.198H43.463V29.198H45.795V23.198ZM46.463 26.198V20.412H40.463V26.198H46.463ZM62.5778 9.94L65.3902 8.89582C64.9537 7.72011 63.8319 6.94 62.5778 6.94V9.94ZM68.6058 26.176V29.176C69.588 29.176 70.508 28.6952 71.0687 27.8888C71.6295 27.0824 71.76 26.0526 71.4182 25.1318L68.6058 26.176ZM66.1198 26.176L63.3045 27.2125C63.7388 28.3922 64.8626 29.176 66.1198 29.176V26.176ZM64.4918 21.754L67.307 20.7175C66.8727 19.5378 65.7489 18.754 64.4918 18.754V21.754ZM57.8258 21.754V18.754C56.583 18.754 55.4689 19.5203 55.0243 20.6808L57.8258 21.754ZM56.1318 26.176V29.176C57.3745 29.176 58.4887 28.4097 58.9332 27.2492L56.1318 26.176ZM53.6458 26.176L50.8396 25.1151C50.4912 26.0368 50.6175 27.0709 51.1777 27.8815C51.7379 28.6921 52.6604 29.176 53.6458 29.176V26.176ZM59.7838 9.94V6.94C58.5362 6.94 57.4188 7.71214 56.9776 8.87913L59.7838 9.94ZM58.5738 19.73L55.7719 18.6579C55.419 19.5802 55.5425 20.617 56.1023 21.4305C56.662 22.244 57.5863 22.73 58.5738 22.73V19.73ZM63.7218 19.73V22.73C64.7033 22.73 65.6227 22.2499 66.1836 21.4444C66.7445 20.639 66.876 19.6101 66.5356 18.6895L63.7218 19.73ZM61.1918 12.888L64.0056 11.8475C63.5722 10.6757 62.458 9.89509 61.2087 9.88805C59.9593 9.88101 58.8364 10.649 58.3899 11.8159L61.1918 12.888ZM59.7653 10.9842L65.7934 27.2202L71.4182 25.1318L65.3902 8.89582L59.7653 10.9842ZM68.6058 23.176H66.1198V29.176H68.6058V23.176ZM68.935 25.1395L67.307 20.7175L61.6765 22.7905L63.3045 27.2125L68.935 25.1395ZM64.4918 18.754H57.8258V24.754H64.4918V18.754ZM55.0243 20.6808L53.3303 25.1028L58.9332 27.2492L60.6272 22.8272L55.0243 20.6808ZM56.1318 23.176H53.6458V29.176H56.1318V23.176ZM56.4519 27.2369L62.5899 11.0009L56.9776 8.87913L50.8396 25.1151L56.4519 27.2369ZM59.7838 12.94H62.5778V6.94H59.7838V12.94ZM58.5738 22.73H63.7218V16.73H58.5738V22.73ZM66.5356 18.6895L64.0056 11.8475L58.378 13.9285L60.908 20.7705L66.5356 18.6895ZM58.3899 11.8159L55.7719 18.6579L61.3757 20.8021L63.9937 13.9601L58.3899 11.8159ZM76.5387 22.964L78.66 20.8427C78.078 20.2607 77.2825 19.9434 76.4598 19.965C75.6371 19.9867 74.8593 20.3454 74.3088 20.9571L76.5387 22.964ZM78.1447 24.57L80.3622 26.5905C81.4416 25.4058 81.3992 23.5819 80.266 22.4487L78.1447 24.57ZM78.1447 17.398L80.2513 19.5339C81.4086 18.3924 81.4463 16.5368 80.3362 15.3493L78.1447 17.398ZM76.5387 18.982L74.3088 20.9889C74.8569 21.598 75.6304 21.9563 76.4494 21.9807C77.2685 22.005 78.0619 21.6933 78.6453 21.1179L76.5387 18.982ZM74.1847 27.042C75.8779 27.042 77.6252 26.2413 78.7685 24.9709L74.3088 20.9571C74.3184 20.9464 74.3144 20.953 74.2919 20.9691C74.2696 20.9849 74.2397 21.0026 74.2055 21.0182C74.1711 21.0338 74.1444 21.0416 74.1316 21.0446C74.1175 21.0479 74.1348 21.042 74.1847 21.042V27.042ZM74.4173 25.0853L76.0233 26.6913L80.266 22.4487L78.66 20.8427L74.4173 25.0853ZM75.9271 22.5495C75.6118 22.8955 74.7761 23.264 74.2727 23.264V29.264C76.4092 29.264 78.8735 28.2245 80.3622 26.5905L75.9271 22.5495ZM74.2727 23.264C73.4332 23.264 72.8849 22.9802 72.5542 22.6515C72.2242 22.3233 71.9487 21.7896 71.9487 20.984H65.9487C65.9487 23.2584 66.7731 25.3647 68.3241 26.9065C69.8744 28.4478 71.9881 29.264 74.2727 29.264V23.264ZM71.9487 20.984C71.9487 20.1617 72.2281 19.6225 72.5574 19.2942C72.887 18.9655 73.4335 18.682 74.2727 18.682V12.682C71.9878 12.682 69.8723 13.4985 68.3209 15.0453C66.7693 16.5925 65.9487 18.7043 65.9487 20.984H71.9487ZM74.2727 18.682C74.7808 18.682 75.5414 19.0062 75.9531 19.4467L80.3362 15.3493C78.8559 13.7658 76.5365 12.682 74.2727 12.682V18.682ZM76.038 15.2621L74.432 16.8461L78.6453 21.1179L80.2513 19.5339L76.038 15.2621ZM78.7685 16.9751C77.6252 15.7047 75.8779 14.904 74.1847 14.904V20.904C74.1348 20.904 74.1175 20.8981 74.1316 20.9014C74.1444 20.9044 74.171 20.9122 74.2055 20.9278C74.2397 20.9434 74.2696 20.9611 74.2919 20.9769C74.3144 20.993 74.3184 20.9996 74.3088 20.9889L78.7685 16.9751ZM74.1847 14.904C72.5931 14.904 71.0454 15.4754 69.9045 16.678C68.7767 17.8668 68.2807 19.4227 68.2807 20.984H74.2807C74.2807 20.8275 74.305 20.7513 74.3104 20.7364C74.3131 20.7288 74.3119 20.7344 74.3029 20.7491C74.2938 20.764 74.279 20.7847 74.2573 20.8075C74.2355 20.8305 74.2107 20.8515 74.1846 20.8692C74.1585 20.8869 74.1358 20.8981 74.1198 20.9045C74.0858 20.9182 74.0997 20.904 74.1847 20.904V14.904ZM68.2807 20.984C68.2807 22.5433 68.7822 24.0938 69.9098 25.2764C71.0492 26.4712 72.5937 27.042 74.1847 27.042V21.042C74.0997 21.042 74.0849 21.0278 74.1175 21.0409C74.1327 21.047 74.1548 21.0578 74.1803 21.075C74.2058 21.0923 74.2303 21.1129 74.252 21.1356C74.2736 21.1583 74.2887 21.1791 74.2982 21.1947C74.3077 21.2101 74.3097 21.217 74.3076 21.2114C74.3037 21.2007 74.2807 21.1311 74.2807 20.984H68.2807ZM81.4826 26.198H78.4826C78.4826 27.8549 79.8258 29.198 81.4826 29.198V26.198ZM81.4826 17.706H84.4826C84.4826 16.0491 83.1395 14.706 81.4826 14.706V17.706ZM79.5026 17.706H76.5026C76.5026 19.3629 77.8458 20.706 79.5026 20.706V17.706ZM79.5026 15.682V12.682C77.8458 12.682 76.5026 14.0251 76.5026 15.682H79.5026ZM81.4826 15.682V18.682C83.1395 18.682 84.4826 17.3389 84.4826 15.682H81.4826ZM81.4826 12.008V9.008C79.8258 9.008 78.4826 10.3511 78.4826 12.008H81.4826ZM83.8146 12.008H86.8146C86.8146 10.3511 85.4715 9.008 83.8146 9.008V12.008ZM83.8146 15.682H80.8146C80.8146 17.3389 82.1578 18.682 83.8146 18.682V15.682ZM86.3006 15.682H89.3006C89.3006 14.0251 87.9575 12.682 86.3006 12.682V15.682ZM86.3006 17.706V20.706C87.9575 20.706 89.3006 19.3629 89.3006 17.706H86.3006ZM83.8146 17.706V14.706C82.1578 14.706 80.8146 16.0491 80.8146 17.706H83.8146ZM83.8146 26.198V29.198C85.4715 29.198 86.8146 27.8549 86.8146 26.198H83.8146ZM84.4826 26.198V17.706H78.4826V26.198H84.4826ZM81.4826 14.706H79.5026V20.706H81.4826V14.706ZM82.5026 17.706V15.682H76.5026V17.706H82.5026ZM79.5026 18.682H81.4826V12.682H79.5026V18.682ZM84.4826 15.682V12.008H78.4826V15.682H84.4826ZM81.4826 15.008H83.8146V9.008H81.4826V15.008ZM80.8146 12.008V15.682H86.8146V12.008H80.8146ZM83.8146 18.682H86.3006V12.682H83.8146V18.682ZM83.3006 15.682V17.706H89.3006V15.682H83.3006ZM86.3006 14.706H83.8146V20.706H86.3006V14.706ZM80.8146 17.706V26.198H86.8146V17.706H80.8146ZM83.8146 23.198H81.4826V29.198H83.8146V23.198ZM88.6961 15.682V12.682C87.0392 12.682 85.6961 14.0251 85.6961 15.682H88.6961ZM91.0281 15.682H94.0281C94.0281 14.0251 92.6849 12.682 91.0281 12.682V15.682ZM91.0281 26.176V29.176C92.6849 29.176 94.0281 27.8329 94.0281 26.176H91.0281ZM88.6961 26.176H85.6961C85.6961 27.8329 87.0392 29.176 88.6961 29.176V26.176ZM88.6961 18.682H91.0281V12.682H88.6961V18.682ZM88.0281 15.682V26.176H94.0281V15.682H88.0281ZM91.0281 23.176H88.6961V29.176H91.0281V23.176ZM91.6961 26.176V15.682H85.6961V26.176H91.6961ZM91.5421 11.766C91.5421 12.1148 91.4058 12.5674 91.0346 12.9386C90.6635 13.3097 90.2109 13.446 89.8621 13.446V7.446C87.4352 7.446 85.5421 9.33914 85.5421 11.766H91.5421ZM89.8621 13.446C89.5133 13.446 89.0606 13.3097 88.6895 12.9386C88.3184 12.5674 88.1821 12.1148 88.1821 11.766H94.1821C94.1821 9.33914 92.2889 7.446 89.8621 7.446V13.446ZM88.1821 11.766C88.1821 11.4172 88.3184 10.9646 88.6895 10.5934C89.0606 10.2223 89.5133 10.086 89.8621 10.086V16.086C92.2889 16.086 94.1821 14.1929 94.1821 11.766H88.1821ZM89.8621 10.086C90.2109 10.086 90.6635 10.2223 91.0346 10.5934C91.4058 10.9646 91.5421 11.4172 91.5421 11.766H85.5421C85.5421 14.1929 87.4352 16.086 89.8621 16.086V10.086ZM104.293 15.704L107.056 16.8739C107.448 15.9474 107.35 14.8859 106.794 14.0471C106.238 13.2084 105.299 12.704 104.293 12.704V15.704ZM99.849 26.198V29.198C101.054 29.198 102.142 28.4773 102.612 27.3679L99.849 26.198ZM97.825 26.198L95.0584 27.358C95.5257 28.4727 96.6164 29.198 97.825 29.198V26.198ZM93.425 15.704V12.704C92.4208 12.704 91.4831 13.2065 90.927 14.0427C90.3709 14.8789 90.2701 15.9379 90.6584 16.864L93.425 15.704ZM95.977 15.704L98.7727 14.6159C98.3241 13.4632 97.214 12.704 95.977 12.704V15.704ZM98.837 23.052L96.0413 24.1401C96.4895 25.2915 97.5976 26.0504 98.8331 26.052C100.069 26.0536 101.179 25.2976 101.63 24.1474L98.837 23.052ZM101.719 15.704V12.704C100.485 12.704 99.3768 13.4597 98.9262 14.6086L101.719 15.704ZM101.531 14.5341L97.0865 25.0281L102.612 27.3679L107.056 16.8739L101.531 14.5341ZM99.849 23.198H97.825V29.198H99.849V23.198ZM100.592 25.038L96.1917 14.544L90.6584 16.864L95.0584 27.358L100.592 25.038ZM93.425 18.704H95.977V12.704H93.425V18.704ZM93.1813 16.7921L96.0413 24.1401L101.633 21.9639L98.7727 14.6159L93.1813 16.7921ZM101.63 24.1474L104.512 16.7994L98.9262 14.6086L96.0442 21.9566L101.63 24.1474ZM101.719 18.704H104.293V12.704H101.719V18.704ZM106.614 15.682V12.682C104.957 12.682 103.614 14.0251 103.614 15.682H106.614ZM108.946 15.682H111.946C111.946 14.0251 110.603 12.682 108.946 12.682V15.682ZM108.946 26.176V29.176C110.603 29.176 111.946 27.8329 111.946 26.176H108.946ZM106.614 26.176H103.614C103.614 27.8329 104.957 29.176 106.614 29.176V26.176ZM106.614 18.682H108.946V12.682H106.614V18.682ZM105.946 15.682V26.176H111.946V15.682H105.946ZM108.946 23.176H106.614V29.176H108.946V23.176ZM109.614 26.176V15.682H103.614V26.176H109.614ZM109.46 11.766C109.46 12.1148 109.324 12.5674 108.953 12.9386C108.581 13.3097 108.129 13.446 107.78 13.446V7.446C105.353 7.446 103.46 9.33914 103.46 11.766H109.46ZM107.78 13.446C107.431 13.446 106.979 13.3097 106.607 12.9386C106.236 12.5674 106.1 12.1148 106.1 11.766H112.1C112.1 9.33914 110.207 7.446 107.78 7.446V13.446ZM106.1 11.766C106.1 11.4172 106.236 10.9646 106.607 10.5934C106.979 10.2223 107.431 10.086 107.78 10.086V16.086C110.207 16.086 112.1 14.1929 112.1 11.766H106.1ZM107.78 10.086C108.129 10.086 108.581 10.2223 108.953 10.5934C109.324 10.9646 109.46 11.4172 109.46 11.766H103.46C103.46 14.1929 105.353 16.086 107.78 16.086V10.086ZM113.516 26.198H110.516C110.516 27.8549 111.859 29.198 113.516 29.198V26.198ZM113.516 17.706H116.516C116.516 16.0491 115.173 14.706 113.516 14.706V17.706ZM111.536 17.706H108.536C108.536 19.3629 109.879 20.706 111.536 20.706V17.706ZM111.536 15.682V12.682C109.879 12.682 108.536 14.0251 108.536 15.682H111.536ZM113.516 15.682V18.682C115.173 18.682 116.516 17.3389 116.516 15.682H113.516ZM113.516 12.008V9.008C111.859 9.008 110.516 10.3511 110.516 12.008H113.516ZM115.848 12.008H118.848C118.848 10.3511 117.505 9.008 115.848 9.008V12.008ZM115.848 15.682H112.848C112.848 17.3389 114.191 18.682 115.848 18.682V15.682ZM118.334 15.682H121.334C121.334 14.0251 119.991 12.682 118.334 12.682V15.682ZM118.334 17.706V20.706C119.991 20.706 121.334 19.3629 121.334 17.706H118.334ZM115.848 17.706V14.706C114.191 14.706 112.848 16.0491 112.848 17.706H115.848ZM115.848 26.198V29.198C117.505 29.198 118.848 27.8549 118.848 26.198H115.848ZM116.516 26.198V17.706H110.516V26.198H116.516ZM113.516 14.706H111.536V20.706H113.516V14.706ZM114.536 17.706V15.682H108.536V17.706H114.536ZM111.536 18.682H113.516V12.682H111.536V18.682ZM116.516 15.682V12.008H110.516V15.682H116.516ZM113.516 15.008H115.848V9.008H113.516V15.008ZM112.848 12.008V15.682H118.848V12.008H112.848ZM115.848 18.682H118.334V12.682H115.848V18.682ZM115.334 15.682V17.706H121.334V15.682H115.334ZM118.334 14.706H115.848V20.706H118.334V14.706ZM112.848 17.706V26.198H118.848V17.706H112.848ZM115.848 23.198H113.516V29.198H115.848V23.198ZM124.212 30.752V33.752C125.42 33.752 126.511 33.027 126.978 31.9128L124.212 30.752ZM121.66 30.752L118.895 29.5878C118.505 30.5141 118.605 31.5742 119.161 32.4114C119.717 33.2487 120.655 33.752 121.66 33.752V30.752ZM123.948 25.318L126.713 26.4822C127.033 25.7229 127.026 24.8655 126.695 24.1113L123.948 25.318ZM119.724 15.704V12.704C118.711 12.704 117.766 13.2155 117.212 14.0639C116.658 14.9123 116.57 15.9831 116.977 16.9107L119.724 15.704ZM122.298 15.704L125.069 14.5551C124.605 13.4345 123.511 12.704 122.298 12.704V15.704ZM125.18 22.656L122.409 23.8049C122.876 24.9323 123.98 25.6642 125.2 25.6559C126.421 25.6476 127.515 24.9008 127.967 23.7671L125.18 22.656ZM127.952 15.704V12.704C126.724 12.704 125.62 13.4523 125.165 14.5929L127.952 15.704ZM130.482 15.704L133.253 16.8537C133.637 15.928 133.533 14.8716 132.977 14.038C132.42 13.2045 131.484 12.704 130.482 12.704V15.704ZM126.566 25.142L129.332 26.3028L129.337 26.2917L126.566 25.142ZM124.212 27.752H121.66V33.752H124.212V27.752ZM124.425 31.9162L126.713 26.4822L121.183 24.1538L118.895 29.5878L124.425 31.9162ZM126.695 24.1113L122.471 14.4973L116.977 16.9107L121.201 26.5247L126.695 24.1113ZM119.724 18.704H122.298V12.704H119.724V18.704ZM119.527 16.8529L122.409 23.8049L127.951 21.5071L125.069 14.5551L119.527 16.8529ZM127.967 23.7671L130.739 16.8151L125.165 14.5929L122.393 21.5449L127.967 23.7671ZM127.952 18.704H130.482V12.704H127.952V18.704ZM127.711 14.5543L123.795 23.9923L129.337 26.2917L133.253 16.8537L127.711 14.5543ZM123.8 23.9812L121.446 29.5912L126.978 31.9128L129.332 26.3028L123.8 23.9812Z" fill="#FFF0CC" mask="url(#path-1-outside-1_1960_5600)"/>
<g clip-path="url(#clip0_1960_5600)">
<path d="M161.92 19.5804C155.663 19.5804 150.58 24.6629 150.58 30.9196C150.58 30.9678 150.548 31 150.5 31C150.452 31 150.42 30.9678 150.42 30.9196C150.42 24.6629 145.337 19.5804 139.08 19.5804C139.032 19.5804 139 19.5483 139 19.5C139 19.4517 139.032 19.4196 139.08 19.4196C145.337 19.4196 150.42 14.3371 150.42 8.08042C150.42 8.03217 150.452 8 150.5 8C150.548 8 150.58 8.03217 150.58 8.08042C150.58 14.3371 155.663 19.4196 161.92 19.4196C161.968 19.4196 162 19.4517 162 19.5C162 19.5483 161.968 19.5804 161.92 19.5804Z" fill="#FFB400"/>
<path d="M156.989 7.45455C159.118 7.45455 160.842 5.73077 160.842 3.6014C160.842 3.54056 160.883 3.5 160.944 3.5C161.004 3.5 161.045 3.54056 161.045 3.6014C161.045 5.73077 162.769 7.45455 164.898 7.45455C164.959 7.45455 165 7.49511 165 7.55594C165 7.61678 164.959 7.65734 164.898 7.65734C162.769 7.65734 161.045 9.38112 161.045 11.5105C161.045 11.5713 161.004 11.6119 160.944 11.6119C160.883 11.6119 160.842 11.5713 160.842 11.5105C160.842 9.38112 159.118 7.65734 156.989 7.65734C156.928 7.65734 156.888 7.61678 156.888 7.55594C156.888 7.49511 156.928 7.45455 156.989 7.45455Z" fill="#4B93FF"/>
<path d="M143.857 27.625C141.8 27.625 140.143 29.075 140.143 30.875C140.143 30.95 140.086 31 140 31C139.914 31 139.857 30.95 139.857 30.875C139.857 29.075 138.2 27.625 136.143 27.625C136.057 27.625 136 27.575 136 27.5C136 27.425 136.057 27.375 136.143 27.375C138.2 27.375 139.857 25.925 139.857 24.125C139.857 24.05 139.914 24 140 24C140.086 24 140.143 24.05 140.143 24.125C140.143 25.925 141.8 27.375 143.857 27.375C143.943 27.375 144 27.425 144 27.5C144 27.575 143.943 27.625 143.857 27.625Z" fill="#FBA9B3"/>
</g>
<defs>
<clipPath id="clip0_1960_5600">
<rect width="29" height="29" fill="white" transform="translate(136 3.5)"/>
</clipPath>
</defs>
</svg>
