<svg width="123" height="32" viewBox="0 0 123 32" fill="none" xmlns="http://www.w3.org/2000/svg">
<path d="M0 16C0 7.16344 7.16344 0 16 0H107C115.837 0 123 7.16344 123 16C123 24.8366 115.837 32 107 32H16C7.16344 32 0 24.8366 0 16Z" fill="#38A39A"/>
<path d="M25.986 8.312V24.566H23.574V8.312H25.986ZM12.972 15.224C12.972 14.06 13.152 13.04 13.512 12.164C13.884 11.288 14.394 10.616 15.042 10.148C15.69 9.668 16.422 9.428 17.238 9.428C18.054 9.428 18.786 9.668 19.434 10.148C20.082 10.616 20.586 11.288 20.946 12.164C21.318 13.04 21.504 14.06 21.504 15.224C21.504 16.4 21.318 17.432 20.946 18.32C20.586 19.196 20.082 19.874 19.434 20.354C18.786 20.822 18.054 21.056 17.238 21.056C16.422 21.056 15.69 20.822 15.042 20.354C14.394 19.874 13.884 19.196 13.512 18.32C13.152 17.432 12.972 16.4 12.972 15.224ZM15.276 15.224C15.276 16.4 15.45 17.306 15.798 17.942C16.158 18.566 16.638 18.878 17.238 18.878C17.838 18.878 18.312 18.566 18.66 17.942C19.02 17.306 19.2 16.4 19.2 15.224C19.2 14.072 19.02 13.184 18.66 12.56C18.312 11.936 17.838 11.624 17.238 11.624C16.638 11.624 16.158 11.936 15.798 12.56C15.45 13.184 15.276 14.072 15.276 15.224ZM45.1829 8.33V12.722H47.3249V14.666H45.1829V20.048H42.7889V8.33H45.1829ZM33.0149 9.608H40.2869V11.516H35.4269V15.494C36.8909 15.482 38.0669 15.446 38.9549 15.386C39.8549 15.314 40.7249 15.188 41.5649 15.008L41.7989 16.88C40.8389 17.096 39.8249 17.24 38.7569 17.312C37.7009 17.384 36.2429 17.42 34.3829 17.42H33.0149V9.608ZM34.7249 18.806H37.1189V22.352H45.7589V24.26H34.7249V18.806ZM61.7973 8.33V20.606H59.4033V19.346H56.3793V17.726H59.4033V8.33H61.7973ZM48.0813 15.476C50.1453 15.464 51.9993 15.428 53.6433 15.368C55.2993 15.308 56.8773 15.182 58.3773 14.99L58.5213 16.682C57.4293 16.874 56.1633 17.03 54.7233 17.15V20.192H52.4733V22.352H62.1753V24.26H50.0793V19.436H52.3293V17.276C51.1653 17.336 49.8453 17.366 48.3693 17.366L48.0813 15.476ZM49.2333 11.768C49.2333 11.204 49.4013 10.706 49.7373 10.274C50.0853 9.83 50.5653 9.488 51.1773 9.248C51.8013 8.996 52.5033 8.87 53.2833 8.87C54.0633 8.87 54.7593 8.996 55.3713 9.248C55.9833 9.488 56.4573 9.83 56.7933 10.274C57.1413 10.706 57.3153 11.204 57.3153 11.768C57.3153 12.344 57.1413 12.854 56.7933 13.298C56.4573 13.73 55.9833 14.066 55.3713 14.306C54.7713 14.546 54.0753 14.666 53.2833 14.666C52.4913 14.666 51.7893 14.546 51.1773 14.306C50.5653 14.066 50.0853 13.73 49.7373 13.298C49.4013 12.854 49.2333 12.344 49.2333 11.768ZM51.5193 11.768C51.5193 12.14 51.6753 12.428 51.9873 12.632C52.3113 12.824 52.7433 12.92 53.2833 12.92C53.8353 12.92 54.2673 12.824 54.5793 12.632C54.8913 12.428 55.0473 12.14 55.0473 11.768C55.0473 11.396 54.8913 11.114 54.5793 10.922C54.2673 10.718 53.8353 10.616 53.2833 10.616C52.7433 10.616 52.3113 10.718 51.9873 10.922C51.6753 11.114 51.5193 11.396 51.5193 11.768ZM77.7997 8.33V24.53H75.5317V8.33H77.7997ZM63.9937 15.35C63.9937 14.138 64.1377 13.088 64.4257 12.2C64.7137 11.312 65.1217 10.634 65.6497 10.166C66.1777 9.686 66.7957 9.446 67.5037 9.446C68.4757 9.446 69.2737 9.872 69.8977 10.724C70.5217 11.576 70.8937 12.758 71.0137 14.27H72.2017V8.582H74.4517V23.81H72.2017V16.196H71.0317C70.9357 17.78 70.5697 19.022 69.9337 19.922C69.3097 20.822 68.4997 21.272 67.5037 21.272C66.7957 21.272 66.1777 21.038 65.6497 20.57C65.1217 20.09 64.7137 19.406 64.4257 18.518C64.1377 17.618 63.9937 16.562 63.9937 15.35ZM66.1717 15.35C66.1717 16.574 66.2857 17.492 66.5137 18.104C66.7417 18.704 67.0717 19.004 67.5037 19.004C68.4037 19.004 68.8537 17.786 68.8537 15.35C68.8537 12.926 68.4037 11.714 67.5037 11.714C67.0717 11.714 66.7417 12.02 66.5137 12.632C66.2857 13.232 66.1717 14.138 66.1717 15.35ZM90.8321 13.37V8.312H93.2081V24.566H90.8321V15.296H87.7721V13.37H90.8321ZM79.3481 19.364C80.6681 18.752 81.6581 17.768 82.3181 16.412C82.9901 15.044 83.3261 13.532 83.3261 11.876V9.554H85.7381V11.876C85.7381 13.52 86.0501 14.996 86.6741 16.304C87.3101 17.6 88.2701 18.536 89.5541 19.112L88.1321 21.02C86.4761 20.228 85.2761 18.788 84.5321 16.7C84.1841 17.756 83.6981 18.68 83.0741 19.472C82.4621 20.252 81.7181 20.858 80.8421 21.29L79.3481 19.364ZM99.5265 8.906V12.668H108.401V14.558H97.1505V8.906H99.5265ZM95.3505 16.214H110.021V18.104H95.3505V16.214ZM96.9885 19.364H99.3825V22.28H108.491V24.206H96.9885V19.364Z" fill="white"/>
</svg>