<svg width="91" height="61" viewBox="0 0 91 61" fill="none" xmlns="http://www.w3.org/2000/svg">
<path fill-rule="evenodd" clip-rule="evenodd" d="M55.3583 60.6667C75.0427 60.6667 91 47.086 91 30.3333C91 13.5807 75.0427 0 55.3583 0C42.0441 0 30.4351 6.21311 24.3157 15.4184C22.921 17.5164 20.2785 18.5309 17.7717 18.2801C17.2368 18.2266 16.6942 18.1992 16.1452 18.1992C7.22844 18.1992 0 25.4277 0 34.3444C0 43.2611 7.22844 50.4895 16.1452 50.4895C18.1289 50.4895 20.0291 50.1318 21.7847 49.4773C24.179 48.5846 27.0427 48.9079 28.9027 50.6602C35.4252 56.8051 44.8619 60.6667 55.3583 60.6667Z" fill="#CF8900"/>
<path d="M21.816 31.4H41.112V33.512H32.76V35.36C36.552 35.6 38.808 36.92 38.808 39.128C38.808 41.552 36.024 42.92 31.44 42.92C26.832 42.92 24.048 41.552 24.048 39.128C24.048 36.92 26.304 35.6 30.12 35.36V33.512H21.816V31.4ZM22.728 28.328C26.664 27.968 29.16 26.36 29.592 24.608H23.568V22.52H39.384V24.608H33.336C33.768 26.384 36.24 27.968 40.2 28.328L39.264 30.392C35.424 29.984 32.592 28.448 31.464 26.288C30.336 28.448 27.504 29.984 23.64 30.392L22.728 28.328ZM26.712 39.128C26.712 40.328 28.368 40.928 31.44 40.928C34.488 40.928 36.144 40.328 36.144 39.128C36.144 37.904 34.488 37.304 31.44 37.304C28.368 37.304 26.712 37.904 26.712 39.128ZM56.8806 21.56H59.5206V27.608H62.4966V29.744H59.5206V37.016H56.8806V21.56ZM43.6806 33.44V23.312H53.1846V25.448H46.3206V31.28C50.3046 31.256 52.5126 31.112 54.9846 30.608L55.2486 32.696C52.5126 33.272 50.0646 33.44 45.4086 33.44H43.6806ZM45.9366 42.512V35.432H48.5766V40.4H60.3606V42.512H45.9366ZM78.8891 21.56H81.5291V37.784H78.8891V35.888H74.7611V34.064H78.8891V21.56ZM63.6491 31.184C67.5611 31.16 72.7931 31.112 77.3291 30.56L77.4731 32.432C75.7451 32.72 73.9211 32.912 72.1451 33.032V37.136H69.5051V33.176C67.5371 33.272 65.6411 33.296 63.9851 33.296L63.6491 31.184ZM65.2331 26.12C65.2331 23.864 67.4171 22.352 70.5371 22.352C73.6811 22.352 75.8411 23.864 75.8411 26.12C75.8411 28.424 73.6811 29.912 70.5371 29.912C67.4171 29.912 65.2331 28.424 65.2331 26.12ZM66.4571 42.512V36.224H69.0971V40.4H82.0331V42.512H66.4571ZM67.7531 26.12C67.7531 27.296 68.9051 27.968 70.5371 27.968C72.2171 27.968 73.3211 27.296 73.3211 26.12C73.3211 24.944 72.2171 24.272 70.5371 24.272C68.9051 24.272 67.7531 24.944 67.7531 26.12Z" fill="white"/>
</svg>
