<svg width="182" height="44" viewBox="0 0 182 44" fill="none" xmlns="http://www.w3.org/2000/svg">
<path d="M180 3.50596C178.523 7.83441 173.917 18.6265 164.463 14.5866C155.009 10.5467 156.09 4.70787 158.798 2.54367C166.687 -0.843992 171.11 12.4224 169.633 19.6365C165.497 39.8359 151.449 41.7595 143.078 42H13.1235C5.9446 41.5188 2.98615 37.6694 2 33.3388" stroke="#F37259" stroke-width="2" stroke-linecap="round"/>
<path d="M10.338 12.818H12.89V13.808C12.89 16.25 15.618 18.78 19.732 19.352L18.786 21.266C15.486 20.76 12.89 19.132 11.614 16.932C10.36 19.154 7.764 20.76 4.442 21.266L3.496 19.352C7.632 18.78 10.338 16.294 10.338 13.808V12.818ZM2.748 24.962V22.982H20.458V24.962H12.758V31.782H10.338V24.962H2.748ZM21.9985 14.028H26.5525V12.07H28.9725V14.028H33.5265V15.964H21.9985V14.028ZM23.0105 20.32C23.0105 18.164 24.9465 16.712 27.7625 16.712C30.5785 16.712 32.5365 18.164 32.5365 20.32C32.5365 22.454 30.5785 23.884 27.7625 23.884C24.9465 23.884 23.0105 22.454 23.0105 20.32ZM24.3745 27.294V25.358H37.2885V31.782H34.8685V27.294H24.3745ZM25.3205 20.32C25.3205 21.398 26.3105 22.058 27.7625 22.058C29.2145 22.058 30.2045 21.398 30.2045 20.32C30.2045 19.198 29.2145 18.56 27.7625 18.56C26.3105 18.56 25.3205 19.198 25.3205 20.32ZM34.8685 24.456V12.202H37.2885V17.372H40.0165V19.352H37.2885V24.456H34.8685ZM42.041 14.204H52.051V15.59C52.051 17.394 52.051 19.814 51.501 23.202L49.125 23.004C49.609 20.056 49.675 17.834 49.675 16.14H42.041V14.204ZM41.007 25.71C42.151 25.71 43.427 25.71 44.769 25.688V19.814H47.145V25.622C49.147 25.534 51.171 25.424 53.019 25.182L53.151 26.942C49.147 27.602 44.681 27.69 41.271 27.69L41.007 25.71ZM54.031 31.76V12.18H56.429V20.188H59.267V22.19H56.429V31.76H54.031ZM79.3419 12.202H81.7619V26.568H79.3419V21.706H74.7879C73.8419 22.762 72.4559 23.378 70.8719 23.378C67.9679 23.378 65.7459 21.31 65.7459 18.406C65.7459 15.458 67.9679 13.39 70.8719 13.39C72.4339 13.39 73.8199 14.006 74.7659 15.04H79.3419V12.202ZM68.0339 18.406C68.0339 20.166 69.2439 21.288 70.8719 21.288C72.4779 21.288 73.6879 20.166 73.6879 18.406C73.6879 16.646 72.4779 15.524 70.8719 15.524C69.2439 15.524 68.0339 16.646 68.0339 18.406ZM68.9799 31.386V25.116H71.4219V29.45H82.2459V31.386H68.9799ZM75.7999 16.976C75.9319 17.416 75.9979 17.9 75.9979 18.406C75.9979 18.89 75.9319 19.352 75.8219 19.77H79.3419V16.976H75.7999ZM98.5704 12.18H100.99V22.08H98.5704V20.408H93.9284V18.56H98.5704V16.624H94.1704C92.9604 19.616 90.1004 21.552 85.7884 22.52L84.9964 20.584C89.5724 19.594 91.8164 17.548 92.1244 14.952H86.0524V13.016H94.8084C94.8084 13.632 94.7644 14.226 94.6764 14.798H98.5704V12.18ZM88.1864 24.764V22.872H100.99V28.042H90.6284V29.67H101.474V31.584H88.2304V26.216H98.5704V24.764H88.1864ZM109.823 13.566H120.493V15.502H116.401V15.546C116.401 17.944 118.073 20.276 121.153 21.244L119.921 23.136C117.721 22.432 116.137 20.98 115.257 19.154C114.399 21.244 112.771 22.894 110.439 23.708L109.185 21.816C112.331 20.76 113.937 18.142 113.937 15.546V15.502H109.823V13.566ZM111.143 29.846C115.059 29.274 117.435 27.184 117.435 24.808V24.434H119.943V24.808C119.943 27.184 122.297 29.274 126.257 29.846L125.311 31.716C122.209 31.21 119.855 29.78 118.689 27.8C117.501 29.78 115.147 31.21 112.045 31.716L111.143 29.846ZM122.781 25.446V12.202H125.201V25.446H122.781ZM142.032 12.18H144.452V31.76H142.032V12.18ZM128.37 26.414C133.452 23.972 135.762 20.65 136.18 16.184H129.338V14.226H138.666C138.666 20.1 136.444 25.028 129.624 28.328L128.37 26.414Z" fill="#F37259"/>
</svg>
