<svg width="137" height="34" viewBox="0 0 137 34" fill="none" xmlns="http://www.w3.org/2000/svg">
<path d="M0 17C0 7.61116 7.61116 0 17 0H119.988C129.376 0 136.988 7.61116 136.988 17C136.988 26.3888 129.376 34 119.988 34H17C7.61118 34 0 26.3888 0 17Z" fill="#7F3394"/>
<path d="M116.85 19.9962H108.914V21.6409H116.028V27.11H117.849V20.9948C117.849 20.3486 117.496 19.9962 116.85 19.9962ZM96.7163 13.8418V12.2428C93.5641 12.0405 91.7628 10.4872 91.7628 8.02027V6.15371H89.9158V8.02027C89.9158 10.5134 88.0688 12.0862 84.8709 12.2885V13.9332C87.6968 13.7766 89.8701 12.641 90.8491 10.8462C91.828 12.6018 93.9622 13.6917 96.7163 13.8483M91.7367 17.9339H99.6271V16.2892H82.0254V17.9339H89.9158V24.1535H91.7367V17.9339ZM111.583 11.3096H114.07V9.66492H109.201V6.26466H107.38V9.66492H102.427V11.3096H104.913C104.339 11.9557 104 12.8172 104 13.7961C104 14.2856 104.137 14.7294 104.333 15.0427H106.108C105.932 14.6837 105.821 14.266 105.821 13.7961C105.821 12.3538 106.819 11.3096 108.242 11.3096C109.665 11.3096 110.663 12.3538 110.663 13.7961C110.663 15.2385 109.665 16.2827 108.242 16.2827H99.2406V17.9273H108.242C110.709 17.9273 112.484 16.1913 112.484 13.7961C112.484 12.8172 112.151 11.9492 111.57 11.3096M120.988 9.01881H117.901V4H116.054V17.9469H117.901V10.6635H120.988V9.01881Z" fill="#60CAE1"/>
<path d="M34.5224 8.25244C33.5174 8.25244 32.658 8.58309 32.049 9.15305C31.4395 9.72342 31.0866 10.5282 31.0866 11.4638C31.0866 12.3995 31.4395 13.2043 32.049 13.7746C32.6501 14.3372 33.4951 14.6666 34.4833 14.6751C34.4953 14.6802 34.5085 14.683 34.5224 14.683C35.5274 14.683 36.3868 14.3523 36.9958 13.7824C37.6053 13.212 37.9582 12.4072 37.9582 11.4716C37.9582 11.0401 37.8393 10.5535 37.6227 10.2453C37.6038 10.2185 37.5731 10.2025 37.5404 10.2025H36.2016C36.1639 10.2025 36.1293 10.2236 36.1121 10.2573C36.0949 10.2909 36.0979 10.3313 36.12 10.3619C36.345 10.6741 36.4493 11.0701 36.4493 11.4716C36.4493 12.015 36.252 12.4717 35.9164 12.7928C35.5804 13.1141 35.0995 13.3056 34.5224 13.3056C33.9453 13.3056 33.4644 13.1141 33.1284 12.7928C32.7928 12.4717 32.5956 12.015 32.5956 11.4716C32.5956 10.9282 32.7928 10.4715 33.1284 10.1504C33.4644 9.82904 33.9453 9.6376 34.5224 9.6376H37.4784C37.534 9.6376 37.579 9.59256 37.579 9.537V8.35304C37.579 8.29748 37.534 8.25244 37.4784 8.25244H34.5224Z" fill="white"/>
<path d="M55.2069 8.62388C55.1514 8.62388 55.1063 8.66892 55.1063 8.72448V14.327C55.1063 15.505 55.3645 16.3554 55.7993 16.9243C56.236 17.4958 56.8428 17.7726 57.5141 17.8168C57.5298 17.8178 57.5454 17.8151 57.5597 17.8091C57.5753 17.819 57.5937 17.8247 57.6136 17.8247H62.0708V21.601C62.0708 21.6566 62.1159 21.7016 62.1714 21.7016H63.3476C63.4032 21.7016 63.4482 21.6566 63.4482 21.601V17.8247H68.4472C68.4609 17.8247 68.474 17.822 68.486 17.817H79.366C79.4215 17.817 79.4666 17.772 79.4666 17.7164V16.6485C79.4666 16.593 79.4215 16.5479 79.366 16.5479H67.9829C67.9692 16.5479 67.9561 16.5507 67.9441 16.5557H57.6136C57.5997 16.5557 57.5865 16.5585 57.5745 16.5635C57.5589 16.5536 57.5405 16.5479 57.5207 16.5479L57.5194 16.5479C57.2167 16.4263 56.9647 16.2038 56.7843 15.8282C56.5951 15.4341 56.4838 14.8687 56.4838 14.0717V8.72448C56.4838 8.66892 56.4387 8.62388 56.3832 8.62388H55.2069Z" fill="white"/>
<path d="M59.6874 8.74769C59.6319 8.74769 59.5868 8.79273 59.5868 8.84829V9.90844C59.5868 9.964 59.6319 10.009 59.6874 10.009H64.4852V11.3323H59.6874C59.6319 11.3323 59.5868 11.3773 59.5868 11.4329V14.4818C59.5868 14.7089 59.6502 14.9002 59.7846 15.0346C59.919 15.169 60.1103 15.2324 60.3374 15.2324H65.9168C65.9723 15.2324 66.0174 15.1874 66.0174 15.1318V14.0639C66.0174 14.0084 65.9723 13.9633 65.9168 13.9633H60.972V12.5859H65.7697C65.8253 12.5859 65.8703 12.5409 65.8703 12.4853V9.49831C65.8703 9.27118 65.8069 9.07986 65.6726 8.94547C65.5382 8.81108 65.3469 8.74769 65.1197 8.74769H59.6874Z" fill="white"/>
<path d="M70.3973 10.4579C70.3417 10.4579 70.2967 10.5029 70.2967 10.5585V14.4276C70.2967 14.6548 70.36 14.8461 70.4944 14.9805C70.6288 15.1149 70.8201 15.1782 71.0473 15.1782H76.9439C76.9994 15.1782 77.0445 15.1332 77.0445 15.0776V14.0097C77.0445 13.9542 76.9994 13.9092 76.9439 13.9092H71.6818V10.5585C71.6818 10.5029 71.6368 10.4579 71.5812 10.4579H70.3973Z" fill="white"/>
<path fill-rule="evenodd" clip-rule="evenodd" d="M49.4574 11.9049C47.7091 11.9049 46.4394 13.1397 46.4394 14.8687C46.4394 15.2694 46.5275 15.6384 46.7191 15.9299C46.7377 15.9582 46.7693 15.9753 46.8031 15.9753H47.5721L48.1583 16.5479H45.1394C45.0838 16.5479 45.0388 16.593 45.0388 16.6485V17.7164C45.0388 17.772 45.0838 17.817 45.1394 17.817H49.4574L49.3544 17.7164H49.3634L49.4666 17.817C51.2091 17.8126 52.4908 16.5802 52.4908 14.8687C52.4908 13.1548 51.2053 11.9049 49.4574 11.9049ZM47.4723 15.8747H47.4692L47.5721 15.9753H47.5756L48.1636 16.5479H48.1583L48.2613 16.6485H48.2669L48.1636 16.5479H49.4651C50.4301 16.5479 51.1211 15.8587 51.1211 14.8687C51.1211 13.8781 50.4141 13.174 49.4651 13.174C48.517 13.174 47.8246 13.8695 47.8246 14.8687C47.8246 15.2553 47.9059 15.5527 48.0792 15.8199C48.0993 15.8509 48.1008 15.8903 48.0832 15.9227C48.0656 15.9551 48.0317 15.9753 47.9948 15.9753H47.5756L47.4723 15.8747ZM46.542 14.9689C46.542 14.9688 46.542 14.969 46.542 14.9689V14.9689Z" fill="white"/>
<path d="M28.2002 15.9675C28.1446 15.9675 28.0996 16.0126 28.0996 16.0681V17.2521C28.0996 17.3077 28.1446 17.3527 28.2002 17.3527H40.8524C40.9079 17.3527 40.953 17.3077 40.953 17.2521V16.0681C40.953 16.0126 40.9079 15.9675 40.8524 15.9675H28.2002Z" fill="white"/>
<path d="M30.6455 18.8694C30.59 18.8694 30.5449 18.9145 30.5449 18.97V20.154C30.5449 20.2095 30.59 20.2546 30.6455 20.2546H36.8052V21.7171H30.6455C30.59 21.7171 30.5449 21.7622 30.5449 21.8177V25.1839C30.5449 25.434 30.614 25.6428 30.7601 25.789C30.9062 25.9351 31.1151 26.0041 31.3652 26.0041H38.4535C38.509 26.0041 38.5541 25.9591 38.5541 25.9035V24.7196C38.5541 24.664 38.509 24.619 38.4535 24.619H32.0539V23.0791H38.2136C38.2691 23.0791 38.3142 23.034 38.3142 22.9785V19.6897C38.3142 19.4396 38.2451 19.2307 38.099 19.0846C37.9529 18.9385 37.744 18.8694 37.4939 18.8694H30.6455Z" fill="white"/>
<path d="M70.2115 19.2176C70.156 19.2176 70.1109 19.2627 70.1109 19.3182V22.9707C70.1109 23.1979 70.1743 23.3892 70.3087 23.5236C70.4431 23.658 70.6344 23.7213 70.8616 23.7213H77.0832C77.1387 23.7213 77.1838 23.6763 77.1838 23.6207V22.5528C77.1838 22.4973 77.1387 22.4523 77.0832 22.4523H71.4884V19.3182C71.4884 19.2627 71.4433 19.2176 71.3878 19.2176H70.2115Z" fill="white"/>
<path d="M17.4699 10.334C17.4168 10.334 17.3739 10.377 17.3739 10.43V11.5601C17.3739 11.6131 17.4168 11.6561 17.4699 11.6561H20.2545V15.0982C20.2545 15.1512 20.2975 15.1942 20.3505 15.1942H21.5988C21.6518 15.1942 21.6948 15.1512 21.6948 15.0982V11.1169C21.6948 10.8782 21.6289 10.6789 21.4894 10.5394C21.35 10.3999 21.1506 10.334 20.9119 10.334H17.4699Z" fill="#60CAE1"/>
<path d="M22.175 10.334C22.1219 10.334 22.0789 10.377 22.0789 10.43V11.5601C22.0789 11.6131 22.1219 11.6561 22.175 11.6561H24.7897V15.0982C24.7897 15.1512 24.8327 15.1942 24.8857 15.1942H26.134C26.187 15.1942 26.23 15.1512 26.23 15.0982V11.1539C26.2348 11.1425 26.2374 11.13 26.2374 11.1169C26.2374 10.8782 26.1715 10.6789 26.032 10.5394C25.8925 10.3999 25.6932 10.334 25.4545 10.334H22.175Z" fill="#60CAE1"/>
<path d="M16.096 16.0214C16.043 16.0214 16 16.0644 16 16.1175V17.2476C16 17.3006 16.043 17.3436 16.096 17.3436H21.4142V19.1311H18.275C18.2219 19.1311 18.179 19.1741 18.179 19.2271V23.681C18.179 23.9198 18.2449 24.1191 18.3844 24.2586C18.5238 24.3981 18.7232 24.464 18.9619 24.464H25.8681C25.9211 24.464 25.9641 24.421 25.9641 24.368V21.1845C25.9641 21.1314 25.9211 21.0884 25.8681 21.0884H24.6198C24.5668 21.0884 24.5238 21.1314 24.5238 21.1845V23.1566H19.6267V20.4532H25.8755C25.9285 20.4532 25.9715 20.4102 25.9715 20.3572V19.2271C25.9715 19.1741 25.9285 19.1311 25.8755 19.1311H22.8619V17.3436H28.18C28.233 17.3436 28.276 17.3006 28.276 17.2476V16.1175C28.276 16.0644 28.233 16.0214 28.18 16.0214H16.096Z" fill="#60CAE1"/>
</svg>
