<svg width="36" height="36" viewBox="0 0 36 36" fill="none" xmlns="http://www.w3.org/2000/svg">
<g clip-path="url(#clip0_2796_32800)">
<rect width="36" height="36" rx="10" fill="#B6F4AC"/>
<rect x="11.0186" y="11.0244" width="12.0733" height="11.0672" fill="#37C824"/>
<path fill-rule="evenodd" clip-rule="evenodd" d="M9.17916 8.17916C8 9.35732 8 11.2548 8 15.0489V19.0733C8 22.8674 8 24.7649 9.17916 25.9431C10.3573 27.1222 12.2548 27.1222 16.0489 27.1222H18.0611C21.8552 27.1222 23.7527 27.1222 24.9309 25.9431C26.11 24.7649 26.11 22.8674 26.11 19.0733V15.0489C26.11 11.2548 26.11 9.35732 24.9309 8.17916C23.7527 7 21.8552 7 18.0611 7H16.0489C12.2548 7 10.3573 7 9.17916 8.17916ZM12.276 13.0367C12.276 12.8365 12.3555 12.6446 12.497 12.5031C12.6385 12.3616 12.8304 12.2821 13.0306 12.2821H21.0795C21.2796 12.2821 21.4715 12.3616 21.613 12.5031C21.7545 12.6446 21.834 12.8365 21.834 13.0367C21.834 13.2368 21.7545 13.4287 21.613 13.5702C21.4715 13.7118 21.2796 13.7913 21.0795 13.7913H13.0306C12.8304 13.7913 12.6385 13.7118 12.497 13.5702C12.3555 13.4287 12.276 13.2368 12.276 13.0367ZM12.276 17.0611C12.276 16.861 12.3555 16.6691 12.497 16.5275C12.6385 16.386 12.8304 16.3065 13.0306 16.3065H21.0795C21.2796 16.3065 21.4715 16.386 21.613 16.5275C21.7545 16.6691 21.834 16.861 21.834 17.0611C21.834 17.2612 21.7545 17.4532 21.613 17.5947C21.4715 17.7362 21.2796 17.8157 21.0795 17.8157H13.0306C12.8304 17.8157 12.6385 17.7362 12.497 17.5947C12.3555 17.4532 12.276 17.2612 12.276 17.0611ZM13.0306 20.331C12.8304 20.331 12.6385 20.4105 12.497 20.552C12.3555 20.6935 12.276 20.8854 12.276 21.0856C12.276 21.2857 12.3555 21.4776 12.497 21.6191C12.6385 21.7607 12.8304 21.8402 13.0306 21.8402H18.0611C18.2612 21.8402 18.4532 21.7607 18.5947 21.6191C18.7362 21.4776 18.8157 21.2857 18.8157 21.0856C18.8157 20.8854 18.7362 20.6935 18.5947 20.552C18.4532 20.4105 18.2612 20.331 18.0611 20.331H13.0306Z" fill="white"/>
<path opacity="0.5" d="M30.2547 22.12C30.4909 21.8995 30.6783 21.6377 30.8061 21.3496C30.9339 21.0616 30.9997 20.7528 30.9997 20.441C30.9996 20.1292 30.9338 19.8205 30.8059 19.5324C30.6781 19.2444 30.4906 18.9826 30.2544 18.7622C30.0182 18.5417 29.7377 18.3668 29.4291 18.2475C29.1204 18.1283 28.7896 18.0669 28.4555 18.0669C27.7808 18.067 27.1338 18.3172 26.6568 18.7625L26.083 19.298L26.1076 19.365C26.3905 20.1202 26.8535 20.8056 27.4615 21.3695C28.0836 21.9537 28.8434 22.3941 29.6803 22.6555L30.2547 22.12Z" fill="#23AD0C"/>
<path d="M26.1084 19.2744L26.0832 19.2974L26.1078 19.365C26.3907 20.1202 26.8537 20.8055 27.4617 21.3695C28.0838 21.9537 28.8436 22.394 29.6805 22.6555L24.1432 27.8236C23.7693 28.172 23.5824 28.3465 23.3767 28.4962C23.1339 28.6729 22.8712 28.8243 22.5933 28.9478C22.3578 29.0529 22.1075 29.1308 21.6062 29.2865L18.965 30.1083C18.8441 30.146 18.7143 30.1516 18.5903 30.1244C18.4662 30.0972 18.3527 30.0382 18.2625 29.9541C18.1724 29.87 18.1091 29.7641 18.0798 29.6483C18.0506 29.5326 18.0565 29.4114 18.0969 29.2986L18.9779 26.8329C19.1448 26.3656 19.2282 26.1319 19.3402 25.9121C19.4728 25.6525 19.6351 25.4074 19.8247 25.1804C19.9851 24.9884 20.172 24.8145 20.5453 24.4661L26.1084 19.2744Z" fill="#13AC00"/>
</g>
<defs>
<clipPath id="clip0_2796_32800">
<rect width="36" height="36" fill="white"/>
</clipPath>
</defs>
</svg>
