<svg width="136" height="44" viewBox="0 0 136 44" fill="none" xmlns="http://www.w3.org/2000/svg">
<rect x="12" y="3" width="112" height="38" rx="11" stroke="#4B93FF" stroke-width="2"/>
<path d="M27.77 14.028H32.324V12.07H34.744V14.028H39.298V15.964H27.77V14.028ZM28.782 20.32C28.782 18.164 30.718 16.712 33.534 16.712C36.35 16.712 38.308 18.164 38.308 20.32C38.308 22.454 36.35 23.884 33.534 23.884C30.718 23.884 28.782 22.454 28.782 20.32ZM30.146 27.294V25.358H43.06V31.782H40.64V27.294H30.146ZM31.092 20.32C31.092 21.398 32.082 22.058 33.534 22.058C34.986 22.058 35.976 21.398 35.976 20.32C35.976 19.198 34.986 18.56 33.534 18.56C32.082 18.56 31.092 19.198 31.092 20.32ZM40.64 24.456V12.202H43.06V17.372H45.788V19.352H43.06V24.456H40.64ZM49.1105 23.906H51.4865V25.798H60.0005V23.906H62.3985V31.54H49.1105V23.906ZM46.9765 22.806V20.892H64.6645V22.806H46.9765ZM47.9005 17.922C51.9705 17.416 54.5665 15.282 54.5665 13.104V12.4H57.0525V13.104C57.0525 15.238 59.6925 17.438 63.7405 17.922L62.8825 19.814C59.6485 19.374 57.0745 17.922 55.8205 15.942C54.5885 17.944 52.0145 19.374 48.7585 19.814L47.9005 17.922ZM51.4865 29.626H60.0005V27.646H51.4865V29.626Z" fill="#061833"/>
<path d="M72.948 12.994H86.192V19.814H80.78V21.904H88.436V23.818H70.748V21.904H78.36V19.814H72.948V12.994ZM72.706 27.382V25.468H86.28V31.782H83.882V27.382H72.706ZM75.324 17.9H83.816V14.908H75.324V17.9ZM89.9765 27.558H94.5525V23.532H91.4945V21.596H94.2225V15.766H91.4065V13.83H106.169V15.766H103.375V21.596H106.125V23.532H103.045V27.558H107.709V29.516H89.9765V27.558ZM96.6425 21.596H100.977V15.766H96.6425V21.596ZM96.9505 27.558H100.669V23.532H96.9505V27.558Z" fill="#124899"/>
<circle cx="11" cy="22" r="4" fill="white" stroke="#4B93FF" stroke-width="2"/>
<circle cx="125" cy="22" r="4" fill="white" stroke="#4B93FF" stroke-width="2"/>
</svg>
