<svg width="85" height="30" viewBox="0 0 85 30" fill="none" xmlns="http://www.w3.org/2000/svg">
<rect width="85" height="30" rx="15" fill="#664300"/>
<path d="M15.712 8.696H26.256V10.104H22.192C22.368 11.448 24.048 12.728 26.768 13.032L26.112 14.44C23.584 14.12 21.728 12.984 20.976 11.464C20.224 12.984 18.368 14.12 15.84 14.44L15.184 13.032C17.904 12.728 19.584 11.432 19.76 10.104H15.712V8.696ZM14.528 16.648V15.24H27.424V16.648H22V19.24H20.24V16.648H14.528ZM16.08 22.024V17.944H17.84V20.616H26V22.024H16.08ZM38.5124 8.024H40.2724V22.312H38.5124V8.024ZM29.2644 18.936V9.208H31.0084V12.776H34.4164V9.208H36.1444V18.936H29.2644ZM31.0084 17.528H34.4164V14.152H31.0084V17.528Z" fill="white"/>
<path d="M45.56 9.384H48.872V7.96H50.632V9.384H53.944V10.792H45.56V9.384ZM46.296 13.96C46.296 12.392 47.704 11.336 49.752 11.336C51.8 11.336 53.224 12.392 53.224 13.96C53.224 15.512 51.8 16.552 49.752 16.552C47.704 16.552 46.296 15.512 46.296 13.96ZM47.288 19.032V17.624H56.68V22.296H54.92V19.032H47.288ZM47.976 13.96C47.976 14.744 48.696 15.224 49.752 15.224C50.808 15.224 51.528 14.744 51.528 13.96C51.528 13.144 50.808 12.68 49.752 12.68C48.696 12.68 47.976 13.144 47.976 13.96ZM54.92 16.968V8.056H56.68V11.816H58.664V13.256H56.68V16.968H54.92ZM61.0804 16.568H62.8084V17.944H69.0004V16.568H70.7444V22.12H61.0804V16.568ZM59.5284 15.768V14.376H72.3924V15.768H59.5284ZM60.2004 12.216C63.1604 11.848 65.0484 10.296 65.0484 8.712V8.2H66.8564V8.712C66.8564 10.264 68.7764 11.864 71.7204 12.216L71.0964 13.592C68.7444 13.272 66.8724 12.216 65.9604 10.776C65.0644 12.232 63.1924 13.272 60.8244 13.592L60.2004 12.216ZM62.8084 20.728H69.0004V19.288H62.8084V20.728Z" fill="white"/>
</svg>
