<svg width="104" height="34" viewBox="0 0 104 34" fill="none" xmlns="http://www.w3.org/2000/svg">
<rect width="103.222" height="34" rx="16" fill="#E4E4FC"/>
<path d="M16.2345 6.88957C16.2908 6.38314 16.7188 6 17.2284 6H19.8827C20.4787 6 20.9424 6.51807 20.8766 7.11043L18.7655 26.1104C18.7092 26.6169 18.2812 27 17.7716 27H15.1173C14.5213 27 14.0576 26.4819 14.1234 25.8896L16.2345 6.88957Z" fill="#FFB400"/>
<path d="M23.2345 6.88957C23.2908 6.38314 23.7188 6 24.2284 6H26.8827C27.4787 6 27.9424 6.51807 27.8766 7.11043L25.7655 26.1104C25.7092 26.6169 25.2812 27 24.7716 27H22.1173C21.5213 27 21.0576 26.4819 21.1234 25.8896L23.2345 6.88957Z" fill="#FFB400"/>
<rect x="10" y="15" width="4" height="22" rx="1" transform="rotate(-90 10 15)" fill="#FFB400"/>
<rect x="10" y="22" width="4" height="22" rx="1" transform="rotate(-90 10 22)" fill="#FFB400"/>
<path d="M53.0707 10.986H48.4947V25.176H46.1407V10.986H41.5427V8.94H53.0707V10.986ZM58.1796 23.284C59.001 23.284 59.661 22.9833 60.1596 22.382C60.6583 21.7807 60.9076 20.9813 60.9076 19.984C60.9076 19.0013 60.6583 18.2093 60.1596 17.608C59.661 16.992 59.001 16.684 58.1796 16.684C57.3583 16.684 56.6983 16.9847 56.1996 17.586C55.701 18.1873 55.4516 18.9867 55.4516 19.984C55.4516 20.9813 55.701 21.7807 56.1996 22.382C56.6983 22.9833 57.3583 23.284 58.1796 23.284ZM53.1196 19.984C53.1196 18.9573 53.3323 18.048 53.7576 17.256C54.1976 16.4493 54.799 15.8187 55.5616 15.364C56.3243 14.9093 57.197 14.682 58.1796 14.682C59.1623 14.682 60.035 14.9093 60.7976 15.364C61.5603 15.8187 62.1543 16.4493 62.5796 17.256C63.0196 18.048 63.2396 18.9573 63.2396 19.984C63.2396 20.996 63.0196 21.9053 62.5796 22.712C62.1543 23.5187 61.5603 24.1493 60.7976 24.604C60.035 25.0587 59.1623 25.286 58.1796 25.286C57.197 25.286 56.3243 25.0587 55.5616 24.604C54.799 24.1493 54.1976 23.5187 53.7576 22.712C53.3323 21.9053 53.1196 20.996 53.1196 19.984ZM70.9799 23.284C71.8305 23.284 72.5052 22.9833 73.0039 22.382C73.5172 21.766 73.7739 20.9593 73.7739 19.962C73.7739 18.9647 73.5172 18.1653 73.0039 17.564C72.5052 16.948 71.8305 16.64 70.9799 16.64C70.4665 16.64 69.9825 16.7867 69.5279 17.08C69.0879 17.3733 68.7359 17.7767 68.4719 18.29C68.2225 18.8033 68.0979 19.3607 68.0979 19.962C68.0979 20.5633 68.2225 21.1207 68.4719 21.634C68.7359 22.1473 69.0879 22.5507 69.5279 22.844C69.9825 23.1373 70.4665 23.284 70.9799 23.284ZM65.7439 14.682H68.0759V16.222C68.4572 15.7233 68.9412 15.342 69.5279 15.078C70.1145 14.814 70.6425 14.682 71.1119 14.682C72.0799 14.682 72.9379 14.9093 73.6859 15.364C74.4485 15.804 75.0425 16.4273 75.4679 17.234C75.8932 18.026 76.1059 18.9353 76.1059 19.962C76.1059 20.9887 75.8932 21.9053 75.4679 22.712C75.0425 23.5187 74.4485 24.1493 73.6859 24.604C72.9379 25.044 72.0799 25.264 71.1119 25.264C70.6279 25.264 70.0925 25.132 69.5059 24.868C68.9339 24.604 68.4572 24.2153 68.0759 23.702V29.84H65.7439V14.682ZM80.9675 14.682V25.176H78.6355V14.682H80.9675ZM78.4815 10.766C78.4815 10.3847 78.6062 10.0693 78.8555 9.82C79.1048 9.57067 79.4202 9.446 79.8015 9.446C80.1828 9.446 80.4982 9.57067 80.7475 9.82C80.9968 10.0693 81.1215 10.3847 81.1215 10.766C81.1215 11.1473 80.9968 11.4627 80.7475 11.712C80.4982 11.9613 80.1828 12.086 79.8015 12.086C79.4202 12.086 79.1048 11.9613 78.8555 11.712C78.6062 11.4627 78.4815 11.1473 78.4815 10.766ZM88.5733 23.042C88.984 23.042 89.402 22.9467 89.8273 22.756C90.2673 22.5507 90.634 22.2867 90.9273 21.964L92.5333 23.57C92.0787 24.0687 91.4847 24.4793 90.7513 24.802C90.018 25.11 89.3213 25.264 88.6613 25.264C87.6347 25.264 86.718 25.044 85.9113 24.604C85.1047 24.1493 84.474 23.5187 84.0193 22.712C83.5647 21.9053 83.3373 20.996 83.3373 19.984C83.3373 18.9573 83.5647 18.048 84.0193 17.256C84.474 16.4493 85.1047 15.8187 85.9113 15.364C86.718 14.9093 87.6347 14.682 88.6613 14.682C89.3507 14.682 90.0473 14.8433 90.7513 15.166C91.4553 15.474 92.0493 15.8847 92.5333 16.398L90.9273 17.982C90.634 17.6593 90.2673 17.4027 89.8273 17.212C89.402 17.0067 88.984 16.904 88.5733 16.904C87.708 16.904 87.004 17.1827 86.4613 17.74C85.9333 18.2973 85.6693 19.0453 85.6693 19.984C85.6693 20.908 85.9333 21.6487 86.4613 22.206C87.004 22.7633 87.708 23.042 88.5733 23.042Z" fill="#59369B"/>
</svg>
