<svg width="217" height="44" viewBox="0 0 217 44" fill="none" xmlns="http://www.w3.org/2000/svg">
<g clip-path="url(#clip0_4959_20883)">
<path d="M61 2C41.1129 2 42.5638 17.0501 42.5638 17.0501V25.7939C42.5638 34.7444 33.4866 42 22.2781 42C11.0696 42 2 34.7444 2 25.7939V20.5658C2 11.6153 4.88263 9.05984 9.8659 9.05984C13.9982 9.05984 14.4045 11.5175 13.7299 12.5084C12.9172 13.7078 10.6862 14.1381 8.40926 12.9386C6.69961 12.039 3.19599 9.10547 3.41065 2.26711" stroke="#ED704E" stroke-width="4" stroke-miterlimit="10" stroke-linecap="round"/>
<path d="M25.5 42C33.5116 42 40 35.5116 40 27.5C40 19.4884 33.5116 13 25.5 13C17.4884 13 11 19.4884 11 27.5C11 35.5116 17.4884 42 25.5 42Z" fill="#ED704E"/>
<path d="M23.8209 23.1973C23.2503 25.07 21.7401 25.828 20.3529 25.226C18.9657 24.6241 18.205 22.9186 18.7979 21.0013C19.4915 18.7273 21.1807 17.3674 22.5679 17.9805C23.9551 18.5824 24.5144 20.9233 23.8209 23.1973Z" fill="white"/>
<path d="M23.8209 23.1973C23.2503 25.07 21.7401 25.828 20.3529 25.226C18.9657 24.6241 18.205 22.9186 18.7979 21.0013C19.4915 18.7273 21.1807 17.3674 22.5679 17.9805C23.9551 18.5824 24.5144 20.9233 23.8209 23.1973Z" stroke="#231815" stroke-width="0.383614" stroke-miterlimit="10"/>
<path d="M23.4089 20.1433C23.2647 21.2731 22.3876 22.089 21.4384 21.9635C20.5013 21.8254 19.8524 20.8086 19.9966 19.6664C20.1408 18.5241 21.0179 17.7207 21.9671 17.8463C22.9043 17.9843 23.5531 19.0011 23.4089 20.1433Z" fill="#231815"/>
<path d="M31.3839 23.1973C30.7386 25.07 29.0406 25.828 27.4784 25.226C25.9162 24.6241 25.0672 22.9186 25.7238 21.0013C26.5049 18.7273 28.4067 17.3674 29.9689 17.9805C31.5311 18.5824 32.165 20.9233 31.3726 23.1973" fill="white"/>
<path d="M31.3839 23.1973C30.7386 25.07 29.0406 25.828 27.4784 25.226C25.9162 24.6241 25.0672 22.9186 25.7238 21.0013C26.5049 18.7273 28.4067 17.3674 29.9689 17.9805C31.5311 18.5824 32.165 20.9233 31.3726 23.1973H31.3839Z" stroke="#231815" stroke-width="0.383614" stroke-miterlimit="10"/>
<path d="M31.0046 20.1434C30.8604 21.2731 29.9833 22.089 29.0341 21.9635C28.097 21.8254 27.4481 20.8087 27.5923 19.6664C27.7365 18.5241 28.6136 17.7208 29.5628 17.8463C30.5 17.9844 31.1488 19.0011 31.0046 20.1434Z" fill="#231815"/>
<path d="M28.9527 29.1486C28.4787 29.1486 27.6887 28.6334 27.2034 27.5M21.3574 28.5009C21.3574 28.5009 24.619 32.3427 27.9595 28.6776" stroke="#231815" stroke-width="0.383614" stroke-miterlimit="10" stroke-linecap="round"/>
<path d="M18.5947 25.3389C18.5947 25.3389 20.4761 23.9872 23.4281 25.3389C23.4281 25.3389 22.4822 26.8096 21.0166 26.8096C19.551 26.8096 19.0105 26.0743 18.6051 25.3389" fill="#ED704E"/>
<path d="M25.5 25.5392C25.5 25.5392 27.6501 23.7369 31.0238 25.5392C31.0238 25.5392 29.9428 27.5001 28.2678 27.5001C26.5929 27.5001 25.9752 26.5196 25.5119 25.5392" fill="#ED704E"/>
<path d="M19.2861 25.1388C19.2861 25.1388 21.1333 24.0675 23.429 25.4286" stroke="#231815" stroke-width="0.383614" stroke-miterlimit="10" stroke-linecap="round"/>
<path d="M26.1904 25.8292C26.1904 25.8292 28.3455 24.7579 31.0238 26.1191" stroke="#231815" stroke-width="0.383614" stroke-miterlimit="10" stroke-linecap="round"/>
<path d="M24.1194 17.1429C24.1194 17.1429 22.6356 15.883 19.9766 16.767" stroke="#231815" stroke-width="0.383614" stroke-miterlimit="10" stroke-linecap="round"/>
<path d="M26.8809 17.1429C27.2958 16.9048 29.0116 15.8818 31.7142 16.8855" stroke="#231815" stroke-width="0.383614" stroke-miterlimit="10" stroke-linecap="round"/>
</g>
<mask id="path-16-inside-1_4959_20883" fill="white">
<path d="M59 0H217V44H59V0Z"/>
</mask>
<path d="M59 4H217V-4H59V4Z" fill="#ED704E" mask="url(#path-16-inside-1_4959_20883)"/>
<path d="M63.872 12.356H66.416V14.972C66.416 17.324 67.736 19.652 70.52 20.756L69.128 22.748C67.256 22.004 65.936 20.66 65.192 18.98C64.4 20.9 63.032 22.532 60.992 23.396L59.6 21.356C62.504 20.084 63.872 17.396 63.872 14.972V12.356ZM63.488 28.484C63.488 26.036 66.296 24.548 70.736 24.548C75.2 24.548 78.008 26.036 78.008 28.484C78.008 30.956 75.2 32.42 70.736 32.42C66.296 32.42 63.488 30.956 63.488 28.484ZM66.104 28.484C66.104 29.732 67.808 30.428 70.736 30.428C73.688 30.428 75.368 29.732 75.368 28.484C75.368 27.236 73.688 26.564 70.736 26.564C67.808 26.564 66.104 27.236 66.104 28.484ZM70.856 23.516V11.492H73.328V16.484H75.392V11.084H77.912V24.188H75.392V18.62H73.328V23.516H70.856ZM94.8566 11.06H97.4966V16.196H100.473V18.38H97.4966V23.516H94.8566V11.06ZM80.6006 21.38C85.5446 20.132 88.3526 17.564 88.7846 14.444H81.6326V12.332H91.5926C91.5926 17.9 87.9686 21.764 81.6806 23.444L80.6006 21.38ZM83.4086 26.54V24.452H97.4966V32.444H94.8566V26.54H83.4086ZM116.721 11.036H119.385V32.468H116.721V11.036ZM102.417 20.156C102.417 15.524 104.745 12.596 107.961 12.596C111.177 12.596 113.505 15.524 113.505 20.156C113.505 24.812 111.177 27.74 107.961 27.74C104.745 27.74 102.417 24.812 102.417 20.156ZM104.961 20.156C104.961 23.444 106.185 25.364 107.961 25.364C109.737 25.364 110.961 23.444 110.961 20.156C110.961 16.892 109.737 14.996 107.961 14.996C106.185 14.996 104.961 16.892 104.961 20.156ZM130.485 13.052H145.485V15.572C145.485 18.692 145.485 21.644 144.525 26.18L141.909 25.94C142.341 24.068 142.581 22.412 142.701 20.9L130.245 21.548L129.909 19.412L142.821 18.956C142.869 17.78 142.869 16.676 142.869 15.572V15.188H130.485V13.052ZM128.277 29.732V27.548H147.597V29.732H128.277ZM151.726 11.828H154.342V17.084H166.414V19.196H151.726V11.828ZM149.254 23.78V21.668H168.598V23.78H149.254ZM151.558 31.964V25.628H154.174V29.828H166.534V31.964H151.558ZM184.041 11.756H186.825V12.836C186.825 15.5 189.801 18.26 194.289 18.884L193.257 20.972C189.657 20.42 186.825 18.644 185.433 16.244C184.065 18.668 181.233 20.42 177.609 20.972L176.577 18.884C181.089 18.26 184.041 15.548 184.041 12.836V11.756ZM175.761 25.004V22.844H195.081V25.004H186.681V32.444H184.041V25.004H175.761ZM196.762 13.076H201.73V10.94H204.37V13.076H209.338V15.188H196.762V13.076ZM197.866 19.94C197.866 17.588 199.978 16.004 203.05 16.004C206.122 16.004 208.258 17.588 208.258 19.94C208.258 22.268 206.122 23.828 203.05 23.828C199.978 23.828 197.866 22.268 197.866 19.94ZM199.354 27.548V25.436H213.442V32.444H210.802V27.548H199.354ZM200.386 19.94C200.386 21.116 201.466 21.836 203.05 21.836C204.634 21.836 205.714 21.116 205.714 19.94C205.714 18.716 204.634 18.02 203.05 18.02C201.466 18.02 200.386 18.716 200.386 19.94ZM210.802 24.452V11.084H213.442V16.724H216.418V18.884H213.442V24.452H210.802Z" fill="#232426"/>
<defs>
<clipPath id="clip0_4959_20883">
<rect width="63" height="44" fill="white"/>
</clipPath>
</defs>
</svg>
