<svg width="146" height="34" viewBox="0 0 146 34" fill="none" xmlns="http://www.w3.org/2000/svg">
<path fill-rule="evenodd" clip-rule="evenodd" d="M26.6077 0.687717C30.5547 -0.203085 37.545 -0.575476 47.5 1.76689C61.1 4.96689 96.0513 3.76697 106.051 1.76687C113.718 0.100204 133.81 1.76689 135 13.7666C136.514 29.0227 120.5 32.7666 114.5 32.7666H33.0712C28.55 32.7666 23.86 31.9322 20.3868 29.3044L10 32.7666L16.428 24.6246C13.1993 19.0601 12.7346 11.7024 20.9866 3.92951C22.5878 2.42131 24.4621 1.17197 26.6077 0.687717Z" fill="#4B93FF"/>
<path d="M26.586 20.556C27.532 22.404 28.874 23.328 30.282 23.328C32.372 23.35 33.538 22.338 33.538 20.776C33.538 17.08 25.376 18.664 25.376 13.01C25.376 10.326 27.576 8.742 30.59 8.764C32.68 8.786 34.682 9.952 35.584 12.482L33.494 13.23C32.922 11.536 31.778 10.81 30.568 10.788C28.83 10.788 27.708 11.646 27.708 13.01C27.708 16.662 35.848 15.276 35.848 20.798C35.848 23.526 33.714 25.396 30.26 25.352C27.884 25.33 25.992 23.966 24.65 21.634L26.586 20.556ZM52.2466 19.236C52.2466 17.74 51.4326 16.75 50.2446 16.75C48.9026 16.75 48.0006 17.784 48.0006 19.126V25.198H45.6466V19.236C45.6466 17.74 44.8546 16.75 43.6886 16.75C42.3466 16.75 41.4006 17.894 41.4006 19.368V25.198H39.0686V14.704H41.4006V16.134C42.0166 15.298 42.9186 14.726 43.9086 14.726C45.1626 14.726 46.3946 15.518 47.0106 16.618C47.7366 15.518 49.1446 14.726 50.3986 14.726C52.8846 14.726 54.6006 16.574 54.6006 19.148V25.198H52.2466V19.236ZM62.1385 25.286C59.2345 25.286 57.1665 23.086 57.1665 20.006C57.1665 16.926 59.2345 14.726 62.1385 14.726C63.1725 14.726 64.3165 15.21 65.1525 16.2V14.704H67.4845V25.198H65.1525V23.79C64.3165 24.846 63.1725 25.286 62.1385 25.286ZM59.4985 20.006C59.4985 21.986 60.6205 23.306 62.2925 23.306C63.8325 23.306 65.1525 21.92 65.1745 20.006C65.1525 18.092 63.8325 16.706 62.2925 16.706C60.6205 16.706 59.4985 18.004 59.4985 20.006ZM70.3206 9.468H72.6526V25.176H70.3206V9.468ZM75.5198 9.468H77.8518V25.176H75.5198V9.468ZM97.2074 8.94V10.986H92.6314V25.176H90.2774V10.986H85.6794V8.94H97.2074ZM102.228 25.286C99.3244 25.286 97.2564 23.086 97.2564 20.006C97.2564 16.926 99.3244 14.726 102.228 14.726C103.262 14.726 104.406 15.21 105.242 16.2V14.704H107.574V25.198H105.242V23.79C104.406 24.846 103.262 25.286 102.228 25.286ZM99.5884 20.006C99.5884 21.986 100.71 23.306 102.382 23.306C103.922 23.306 105.242 21.92 105.264 20.006C105.242 18.092 103.922 16.706 102.382 16.706C100.71 16.706 99.5884 18.004 99.5884 20.006ZM110.41 9.468H112.742V25.176H110.41V9.468ZM118.228 9.468V19.038L121.968 14.704H125.114L121.022 19.39L125.026 25.198H122.188L119.35 21.128L118.228 22.448V25.198H115.896V9.468H118.228Z" fill="white"/>
</svg>
