<svg width="187" height="44" viewBox="0 0 187 44" fill="none" xmlns="http://www.w3.org/2000/svg">
<mask id="path-1-inside-1_1960_5779" fill="white">
<path d="M4 2H171C177.627 2 183 7.37258 183 14V42H16C9.37259 42 4 36.6274 4 30V2Z"/>
</mask>
<path d="M4 2H183H4ZM183 44H16C8.26801 44 2 37.732 2 30H6C6 35.5228 10.4772 40 16 40H183V44ZM16 44C8.26801 44 2 37.732 2 30V2H6V30C6 35.5228 10.4772 40 16 40V44ZM183 2V42V2Z" fill="#FE5663" mask="url(#path-1-inside-1_1960_5779)"/>
<path d="M26.798 13.368V15.766C26.798 16.8953 27.1133 17.944 27.744 18.912C28.3893 19.8653 29.328 20.584 30.56 21.068L29.284 22.894C28.448 22.5567 27.722 22.0947 27.106 21.508C26.5047 20.9213 26.028 20.232 25.676 19.44C25.2947 20.364 24.7813 21.178 24.136 21.882C23.4907 22.5713 22.7207 23.1067 21.826 23.488L20.55 21.618C21.8113 21.0607 22.7793 20.2467 23.454 19.176C24.1287 18.0907 24.466 16.954 24.466 15.766V13.368H26.798ZM24.114 28.152C24.114 27.0373 24.708 26.1573 25.896 25.512C27.0987 24.8667 28.7193 24.544 30.758 24.544C32.8113 24.544 34.432 24.8667 35.62 25.512C36.8227 26.1573 37.424 27.0373 37.424 28.152C37.424 29.2813 36.8227 30.1613 35.62 30.792C34.432 31.4373 32.8113 31.76 30.758 31.76C28.7047 31.76 27.084 31.4373 25.896 30.792C24.708 30.1613 24.114 29.2813 24.114 28.152ZM26.512 28.152C26.512 28.724 26.8787 29.164 27.612 29.472C28.36 29.78 29.4087 29.934 30.758 29.934C32.1073 29.934 33.1487 29.78 33.882 29.472C34.63 29.164 35.004 28.724 35.004 28.152C35.004 27.58 34.6373 27.1473 33.904 26.854C33.1707 26.546 32.122 26.392 30.758 26.392C29.4087 26.392 28.36 26.546 27.612 26.854C26.8787 27.1473 26.512 27.58 26.512 28.152ZM30.868 12.576H33.134V17.152H35.026V12.202H37.336V24.214H35.026V19.11H33.134V23.598H30.868V12.576Z" fill="#D44B5B"/>
<path d="M53.64 12.18H56.06V16.888H58.788V18.89H56.06V23.598H53.64V12.18ZM40.572 21.64C45.104 20.496 47.678 18.142 48.074 15.282H41.518V13.346H50.648C50.648 18.45 47.326 21.992 41.562 23.532L40.572 21.64ZM43.146 26.37V24.456H56.06V31.782H53.64V26.37H43.146ZM73.6825 12.158H76.1245V31.804H73.6825V12.158ZM60.5705 20.518C60.5705 16.272 62.7045 13.588 65.6525 13.588C68.6005 13.588 70.7345 16.272 70.7345 20.518C70.7345 24.786 68.6005 27.47 65.6525 27.47C62.7045 27.47 60.5705 24.786 60.5705 20.518ZM62.9025 20.518C62.9025 23.532 64.0245 25.292 65.6525 25.292C67.2805 25.292 68.4025 23.532 68.4025 20.518C68.4025 17.526 67.2805 15.788 65.6525 15.788C64.0245 15.788 62.9025 17.526 62.9025 20.518Z" fill="#162811"/>
<path d="M99.522 14.006V16.316C99.522 18.1933 99.4707 19.8213 99.368 21.2C99.28 22.5787 99.038 24.192 98.642 26.04L96.244 25.82C96.6107 24.236 96.8527 22.696 96.97 21.2L85.552 21.794L85.244 19.836L97.08 19.418C97.1093 18.6993 97.124 17.6653 97.124 16.316V15.964H85.772V14.006H99.522ZM83.748 27.294H101.458V29.296H83.748V27.294Z" fill="#D44B5B"/>
<path d="M106.014 12.884H108.412V17.702H119.478V19.638H106.014V12.884ZM103.748 23.84V21.904H121.48V23.84H103.748ZM105.86 31.342V25.534H108.258V29.384H119.588V31.342H105.86Z" fill="#162811"/>
<path d="M137.89 12.818V13.808C137.89 14.6293 138.176 15.4287 138.748 16.206C139.32 16.9833 140.127 17.658 141.168 18.23C142.209 18.7873 143.397 19.1613 144.732 19.352L143.786 21.266C142.158 21.0167 140.713 20.5107 139.452 19.748C138.205 18.9853 137.259 18.0467 136.614 16.932C135.983 18.0467 135.045 18.9853 133.798 19.748C132.551 20.5107 131.099 21.0167 129.442 21.266L128.496 19.352C129.831 19.1613 131.019 18.7873 132.06 18.23C133.101 17.6727 133.908 17.0053 134.48 16.228C135.052 15.4507 135.338 14.644 135.338 13.808V12.818H137.89ZM127.748 22.982H145.458V24.962H137.758V31.782H135.338V24.962H127.748V22.982Z" fill="#D44B5B"/>
<path d="M147.77 14.028H152.324V12.07H154.744V14.028H159.298V15.964H147.77V14.028ZM148.782 20.32C148.782 18.164 150.718 16.712 153.534 16.712C156.35 16.712 158.308 18.164 158.308 20.32C158.308 22.454 156.35 23.884 153.534 23.884C150.718 23.884 148.782 22.454 148.782 20.32ZM150.146 27.294V25.358H163.06V31.782H160.64V27.294H150.146ZM151.092 20.32C151.092 21.398 152.082 22.058 153.534 22.058C154.986 22.058 155.976 21.398 155.976 20.32C155.976 19.198 154.986 18.56 153.534 18.56C152.082 18.56 151.092 19.198 151.092 20.32ZM160.64 24.456V12.202H163.06V17.372H165.788V19.352H163.06V24.456H160.64Z" fill="#162811"/>
</svg>
