<svg width="150" height="34" viewBox="0 0 150 34" fill="none" xmlns="http://www.w3.org/2000/svg">
<path d="M0 17C0 7.61116 7.61116 0 17 0H132.647C142.036 0 149.647 7.61116 149.647 17C149.647 26.3888 142.036 34 132.647 34H17C7.61117 34 0 26.3888 0 17Z" fill="#385CAA"/>
<path d="M92.3197 8C92.1929 8 92.0901 8.10846 92.0901 8.24225V9.56977C92.0901 9.70356 92.1929 9.81202 92.3197 9.81202H97.9035V11.2364H92.3197C92.1929 11.2364 92.0901 11.3449 92.0901 11.4787V15.2965C92.0901 15.602 92.1712 15.8748 92.3571 16.071C92.543 16.2672 92.8017 16.3527 93.0912 16.3527H95.0657V18.281H89.8035C89.7831 18.2747 89.7614 18.2713 89.739 18.2713H76.2296C76.1028 18.2713 76 18.3798 76 18.5136V19.8508C76 19.9846 76.1028 20.093 76.2296 20.093H89.1419C89.1624 20.0993 89.184 20.1027 89.2064 20.1027H102.716C102.738 20.1027 102.76 20.0993 102.78 20.093H103.496C105.385 20.093 106.928 19.3388 107.774 17.9642C108.576 19.2858 110.09 20.0252 111.936 20.0252C112.063 20.0252 112.166 19.9167 112.166 19.7829V18.4845C112.166 18.3531 112.067 18.2456 111.942 18.2423C110.889 18.2143 110.089 17.8956 109.554 17.355C109.02 16.8166 108.722 16.0302 108.722 15.0058V14.2985H111.514C111.641 14.2985 111.744 14.19 111.744 14.0562V12.719C111.744 12.5852 111.641 12.4767 111.514 12.4767H103.919C103.792 12.4767 103.689 12.5852 103.689 12.719V14.0562C103.689 14.19 103.792 14.2985 103.919 14.2985H106.812V15.0058C106.812 16.0656 106.488 16.8711 105.911 17.4146C105.329 17.9617 104.46 18.2713 103.322 18.2713H102.165C102.142 18.2713 102.121 18.2747 102.1 18.281H96.9208V16.343H99.7127C99.8395 16.343 99.9423 16.2346 99.9423 16.1008V14.7733C99.9423 14.6395 99.8395 14.531 99.7127 14.531H93.9544V13.0388H99.5382C99.665 13.0388 99.7678 12.9303 99.7678 12.7965V9.0562C99.7678 8.75075 99.6867 8.47787 99.5008 8.28171C99.3149 8.08555 99.0563 8 98.7668 8H92.3197Z" fill="#EFF4F6"/>
<path d="M117.731 8.32946C117.605 8.32946 117.502 8.43792 117.502 8.57171V16.2364C117.502 17.4238 117.762 18.3577 118.272 19.0125C118.639 19.485 119.125 19.7958 119.701 19.9549C119.738 20.0366 119.817 20.093 119.908 20.093H133.417C133.544 20.093 133.647 19.9846 133.647 19.8508V18.5136C133.647 18.3798 133.544 18.2713 133.417 18.2713H120.531C120.493 18.2546 120.452 18.2482 120.41 18.2541C120.052 18.1521 119.802 17.9578 119.63 17.6411C119.436 17.2845 119.329 16.7483 119.329 15.9554V8.57171C119.329 8.43792 119.227 8.32946 119.1 8.32946H117.731Z" fill="#EFF4F6"/>
<path d="M114.581 8.44574C114.455 8.44574 114.352 8.5542 114.352 8.68799V12.4767H112.469C112.342 12.4767 112.239 12.5852 112.239 12.719V14.0562C112.239 14.19 112.342 14.2985 112.469 14.2985H114.352V19.8508C114.352 19.9846 114.455 20.093 114.581 20.093H115.95C116.077 20.093 116.179 19.9846 116.179 19.8508V8.68799C116.179 8.5542 116.077 8.44574 115.95 8.44574H114.581Z" fill="#EFF4F6"/>
<path d="M123.021 9.10465C122.895 9.10465 122.792 9.21311 122.792 9.3469V15.8101C122.792 16.1155 122.873 16.3884 123.059 16.5846C123.245 16.7807 123.503 16.8663 123.793 16.8663H130.414C130.541 16.8663 130.644 16.7578 130.644 16.624V15.2868C130.644 15.153 130.541 15.0446 130.414 15.0446H124.656V13.8624H130.212C130.339 13.8624 130.442 13.7539 130.442 13.6202V12.3023C130.442 12.1685 130.339 12.0601 130.212 12.0601H124.656V10.9264H130.378C130.504 10.9264 130.607 10.8179 130.607 10.6841V9.3469C130.607 9.21311 130.504 9.10465 130.378 9.10465H123.021Z" fill="#EFF4F6"/>
<path d="M78.6174 9.82171C78.4906 9.82171 78.3878 9.93016 78.3878 10.064V11.4012C78.3878 11.535 78.4906 11.6434 78.6174 11.6434H80.1787V14.3178C80.1787 14.4516 80.2814 14.5601 80.4083 14.5601H81.8042C81.931 14.5601 82.0338 14.4516 82.0338 14.3178V11.6434H83.9257V14.9767H78.5439C78.4171 14.9767 78.3143 15.0852 78.3143 15.219V16.5562C78.3143 16.69 78.4171 16.7984 78.5439 16.7984H87.4155C87.5423 16.7984 87.6451 16.69 87.6451 16.5562V15.219C87.6451 15.0852 87.5423 14.9767 87.4155 14.9767H85.79V11.6434H87.3512C87.478 11.6434 87.5808 11.535 87.5808 11.4012V10.064C87.5808 9.93016 87.478 9.82171 87.3512 9.82171H78.6174Z" fill="#EFF4F6"/>
<path d="M111.339 21.2171C111.213 21.2171 111.11 21.3255 111.11 21.4593V22.7868C111.11 22.9206 111.213 23.0291 111.339 23.0291H117.061V27.7578C117.061 27.8915 117.164 28 117.291 28H118.687C118.813 28 118.916 27.8915 118.916 27.7578V22.3413C118.922 22.3197 118.925 22.2969 118.925 22.2733C118.925 21.9678 118.844 21.6949 118.658 21.4988C118.472 21.3026 118.214 21.2171 117.924 21.2171H111.339Z" fill="#EFF4F6"/>
<path d="M45.6556 4.88379C45.5314 4.88379 45.4307 4.98748 45.4307 5.11539V15.3676C45.4307 17.1345 46.0383 18.6248 47.1321 19.6722C48.2244 20.7182 49.7822 21.3043 51.6532 21.3043H59.7349C59.7558 21.3043 59.776 21.3013 59.7952 21.2958C60.0696 21.2895 60.3502 21.2406 60.6007 21.1607C60.7083 21.1264 60.8135 21.0855 60.9119 21.038V26.77C60.9119 26.8979 61.0126 27.0016 61.1368 27.0016H63.281C63.4052 27.0016 63.5059 26.8979 63.5059 26.77V20.3027C64.2853 20.8787 65.5021 21.3021 66.7722 21.3042L66.7921 21.3057C66.8111 21.307 66.8381 21.3085 66.8726 21.3095C66.9415 21.3116 67.0402 21.3118 67.1642 21.305C67.4121 21.2914 67.7615 21.2495 68.1756 21.1374C69.0051 20.9128 70.0908 20.4068 71.135 19.2877C71.1522 19.2693 71.1659 19.2485 71.1762 19.2263C72.0486 18.2543 72.4872 16.9355 72.4872 15.4448C72.4872 13.7612 71.9189 12.2936 70.9125 11.2462C69.9057 10.1984 68.4743 9.58528 66.7745 9.58528C65.8792 9.58528 65.111 9.74428 64.4609 10.0545C64.3814 10.0924 64.3305 10.1744 64.3305 10.2646V12.2332C64.3305 12.309 64.3665 12.38 64.4269 12.4233C64.4873 12.4666 64.5644 12.4767 64.6334 12.4505C65.3024 12.1959 66.0182 12.048 66.6771 12.048C68.5429 12.048 69.9008 13.4608 69.9008 15.4448C69.9008 17.4382 68.5866 18.8956 66.7296 18.8956C64.8628 18.8956 63.5059 17.4818 63.5059 15.522V9.89408C63.5059 9.76617 63.4052 9.66248 63.281 9.66248H61.1368C61.0126 9.66248 60.9119 9.76617 60.9119 9.89408V17.4906C60.9119 17.9368 60.7952 18.279 60.6008 18.5091C60.4092 18.7357 60.1219 18.8778 59.7292 18.888C59.7112 18.8884 59.6938 18.8911 59.6771 18.8956H56.7915C57.4285 18.0451 57.8756 16.863 57.8756 15.3676V5.11539C57.8756 4.98748 57.7749 4.88379 57.6507 4.88379H55.4541C55.3299 4.88379 55.2292 4.98748 55.2292 5.11539V15.2132C55.2292 16.3586 54.8696 17.2744 54.2553 17.9034C53.6408 18.5326 52.7512 18.8956 51.6532 18.8956C50.5551 18.8956 49.6655 18.5326 49.051 17.9034C48.4367 17.2744 48.0771 16.3586 48.0771 15.2132V5.11539C48.0771 4.98748 47.9764 4.88379 47.8522 4.88379H45.6556Z" fill="#60CAE1"/>
<path d="M27.208 11.2832C27.1045 11.2832 27.0206 11.3696 27.0206 11.4762V18.1077C27.0206 19.2497 27.2773 20.1391 27.803 20.7444C28.3061 21.3237 29.0307 21.6144 29.9318 21.6414C29.9408 21.6427 29.95 21.6435 29.9594 21.6435H39.8779C40.7313 21.6435 41.2973 21.3767 41.6581 20.9932C42.0146 20.6142 42.1493 20.1438 42.1859 19.7722C42.2393 19.2687 42.2619 18.6361 42.2619 18.0537V11.4762C42.2619 11.3696 42.178 11.2832 42.0745 11.2832H40.8075C40.704 11.2832 40.6201 11.3696 40.6201 11.4762V19.2194C40.6201 19.5379 40.5392 19.7378 40.4014 19.8631C40.2585 19.993 40.0184 20.0763 39.6305 20.0763H30.0868C29.5147 20.0763 29.1782 19.8856 28.9728 19.5694C28.7564 19.2364 28.6624 18.7308 28.6624 18.0537V16.4325H30.6416C30.7451 16.4325 30.829 16.346 30.829 16.2394V15.0583C30.829 14.9517 30.7451 14.8653 30.6416 14.8653H28.6624V11.4762C28.6624 11.3696 28.5785 11.2832 28.475 11.2832H27.208Z" fill="#EFF4F6"/>
<path d="M35.1248 12.6188C33.1924 12.6188 31.7661 13.9329 31.7661 15.8226C31.7661 17.7125 33.2002 19.0264 35.1248 19.0264C36.0951 19.0264 36.9352 18.7016 37.5346 18.1329C38.1351 17.5631 38.4834 16.7582 38.4834 15.8226C38.4834 15.4577 38.3852 15.0667 38.1928 14.748C38.1586 14.6913 38.0984 14.6568 38.0336 14.6568H36.7816C36.7143 14.6568 36.6522 14.694 36.6189 14.7541C36.5855 14.8143 36.586 14.8882 36.6202 14.9479C36.7745 15.2173 36.8416 15.4688 36.8416 15.8226C36.8416 16.7695 36.1502 17.4592 35.1248 17.4592C34.0994 17.4592 33.408 16.7695 33.408 15.8226C33.408 14.8756 34.0994 14.1859 35.1248 14.1859H37.9886C38.0921 14.1859 38.176 14.0995 38.176 13.9929V12.8118C38.176 12.7052 38.0921 12.6188 37.9886 12.6188H35.1248Z" fill="#EFF4F6"/>
<path d="M21.0829 13.383C20.9794 13.383 20.8955 13.4695 20.8955 13.576V15.452H17.8592C17.7557 15.452 17.6718 15.5384 17.6718 15.645V16.8262C17.6718 16.9328 17.7557 17.0192 17.8592 17.0192H20.888V17.2585C20.888 18.1646 20.5712 18.8584 19.9928 19.3306C19.4083 19.8078 18.5348 20.0763 17.3944 20.0763H16.1874C16.0839 20.0763 16 20.1627 16 20.2693V21.4505C16 21.557 16.0839 21.6435 16.1874 21.6435H17.5519C19.3879 21.6435 20.9262 20.9854 21.7481 19.8025C22.5873 20.9359 24.0624 21.5669 25.827 21.5817C25.877 21.5821 25.925 21.562 25.9605 21.5257C25.996 21.4895 26.016 21.4402 26.016 21.3887V20.2384C26.016 20.1339 25.9352 20.0484 25.8337 20.0455C24.7773 20.0154 23.9649 19.7354 23.4198 19.2637C22.8797 18.7962 22.5823 18.1235 22.5823 17.2585V17.0192H25.5212C25.6247 17.0192 25.7086 16.9328 25.7086 16.8262V15.645C25.7086 15.5384 25.6247 15.452 25.5212 15.452H22.5823V13.576C22.5823 13.4695 22.4984 13.383 22.3949 13.383H21.0829Z" fill="#EFF4F6"/>
<path d="M25.1163 22.593C23.153 22.593 21.7127 23.9389 21.7127 25.8431C21.7127 27.7287 23.1255 29.0837 25.0625 29.1084C25.0796 29.1136 25.0976 29.1164 25.1163 29.1164C27.0821 29.1164 28.505 27.7527 28.505 25.8509C28.505 25.3494 28.3738 24.9918 28.1757 24.7168C28.1403 24.6678 28.0845 24.6388 28.0251 24.6388H26.7732C26.7023 24.6388 26.6376 24.6799 26.6057 24.7451C26.5739 24.8102 26.5804 24.8883 26.6226 24.9468C26.7644 25.1436 26.8631 25.4852 26.8631 25.8509C26.8631 26.833 26.1523 27.557 25.1163 27.557C24.0778 27.557 23.3545 26.8382 23.3545 25.8509C23.3545 24.8655 24.0757 24.1602 25.1163 24.1602H27.9952C28.0987 24.1602 28.1826 24.0738 28.1826 23.9672V22.786C28.1826 22.6794 28.0987 22.593 27.9952 22.593H25.1163Z" fill="#EFF4F6"/>
</svg>
