<svg width="101" height="32" viewBox="0 0 101 32" fill="none" xmlns="http://www.w3.org/2000/svg">
<rect width="40" height="32" fill="#38A39A"/>
<path d="M40 0H85C93.8366 0 101 7.16344 101 16C101 24.8366 93.8366 32 85 32H40V0Z" fill="#38A39A"/>
<path d="M55.88 6.8V24.6H53.78V15.56H51.84V23.72H49.8V7.16H51.84V13.76H53.78V6.8H55.88ZM41.24 8.92H47.8V10.7H43.4V18.64C45.3467 18.6133 47.1067 18.4533 48.68 18.16L48.88 19.96C47.8667 20.16 46.8733 20.2933 45.9 20.36C44.9267 20.4267 43.7733 20.46 42.44 20.46H41.24V8.92ZM72.1005 6.8V11.84H74.5805V13.62H72.1005V19.68H69.9005V6.8H72.1005ZM58.9005 8.26H66.8205V10.04H61.1005V14.9C62.8071 14.8867 64.1871 14.84 65.2405 14.76C66.2938 14.68 67.3205 14.54 68.3205 14.34L68.5405 16.08C67.4205 16.32 66.2605 16.4867 65.0605 16.58C63.8738 16.66 62.3005 16.7 60.3405 16.7H58.9005V8.26ZM60.7805 18.36H62.9805V22.5H72.8005V24.26H60.7805V18.36ZM90.4409 6.8V20.32H88.2409V18.74H84.8009V17.22H88.2409V6.8H90.4409ZM75.5409 14.82C77.8209 14.8067 79.8743 14.7667 81.7009 14.7C83.5276 14.6333 85.2743 14.5 86.9409 14.3L87.0609 15.86C85.7143 16.0867 84.2343 16.2533 82.6209 16.36V19.78H80.4209V16.48C79.0609 16.5467 77.5276 16.58 75.8209 16.58L75.5409 14.82ZM76.8609 10.6C76.8609 9.98667 77.0476 9.44 77.4209 8.96C77.7943 8.48 78.3143 8.11333 78.9809 7.86C79.6609 7.59333 80.4276 7.46 81.2809 7.46C82.1476 7.46 82.9143 7.59333 83.5809 7.86C84.2476 8.11333 84.7676 8.48 85.1409 8.96C85.5143 9.44 85.7009 9.98667 85.7009 10.6C85.7009 11.2267 85.5143 11.78 85.1409 12.26C84.7676 12.74 84.2476 13.1133 83.5809 13.38C82.9143 13.6333 82.1476 13.76 81.2809 13.76C80.4143 13.76 79.6476 13.6333 78.9809 13.38C78.3143 13.1133 77.7943 12.74 77.4209 12.26C77.0476 11.78 76.8609 11.2267 76.8609 10.6ZM77.8809 19.02H80.0809V22.5H90.8609V24.26H77.8809V19.02ZM78.9609 10.6C78.9609 11.08 79.1743 11.46 79.6009 11.74C80.0276 12.0067 80.5876 12.14 81.2809 12.14C81.9876 12.14 82.5476 12.0067 82.9609 11.74C83.3876 11.46 83.6009 11.08 83.6009 10.6C83.6009 10.12 83.3876 9.74667 82.9609 9.48C82.5476 9.2 81.9876 9.06 81.2809 9.06C80.5876 9.06 80.0276 9.2 79.6009 9.48C79.1743 9.74667 78.9609 10.12 78.9609 10.6Z" fill="white"/>
</svg>
