<svg width="162" height="44" viewBox="0 0 162 44" fill="none" xmlns="http://www.w3.org/2000/svg">
<rect width="162" height="44" rx="22" fill="#837FB6"/>
<path d="M28.338 12.818H30.89V13.808C30.89 16.25 33.618 18.78 37.732 19.352L36.786 21.266C33.486 20.76 30.89 19.132 29.614 16.932C28.36 19.154 25.764 20.76 22.442 21.266L21.496 19.352C25.632 18.78 28.338 16.294 28.338 13.808V12.818ZM20.748 24.962V22.982H38.458V24.962H30.758V31.782H28.338V24.962H20.748ZM39.9985 14.028H44.5525V12.07H46.9725V14.028H51.5265V15.964H39.9985V14.028ZM41.0105 20.32C41.0105 18.164 42.9465 16.712 45.7625 16.712C48.5785 16.712 50.5365 18.164 50.5365 20.32C50.5365 22.454 48.5785 23.884 45.7625 23.884C42.9465 23.884 41.0105 22.454 41.0105 20.32ZM42.3745 27.294V25.358H55.2885V31.782H52.8685V27.294H42.3745ZM43.3205 20.32C43.3205 21.398 44.3105 22.058 45.7625 22.058C47.2145 22.058 48.2045 21.398 48.2045 20.32C48.2045 19.198 47.2145 18.56 45.7625 18.56C44.3105 18.56 43.3205 19.198 43.3205 20.32ZM52.8685 24.456V12.202H55.2885V17.372H58.0165V19.352H55.2885V24.456H52.8685ZM77.9813 12.158H80.4233V31.804H77.9813V12.158ZM64.8693 20.518C64.8693 16.272 67.0033 13.588 69.9513 13.588C72.8993 13.588 75.0333 16.272 75.0333 20.518C75.0333 24.786 72.8993 27.47 69.9513 27.47C67.0033 27.47 64.8693 24.786 64.8693 20.518ZM67.2013 20.518C67.2013 23.532 68.3233 25.292 69.9513 25.292C71.5793 25.292 72.7013 23.532 72.7013 20.518C72.7013 17.526 71.5793 15.788 69.9513 15.788C68.3233 15.788 67.2013 17.526 67.2013 20.518ZM88.7399 13.588C91.6659 13.588 93.7779 16.272 93.7779 20.518C93.7779 24.786 91.6659 27.47 88.7399 27.47C85.7919 27.47 83.6799 24.786 83.6799 20.518C83.6799 16.272 85.7919 13.588 88.7399 13.588ZM85.9899 20.518C85.9899 23.532 87.1119 25.292 88.7399 25.292C90.3679 25.292 91.4679 23.532 91.4679 20.518C91.4679 17.526 90.3679 15.788 88.7399 15.788C87.1119 15.788 85.9899 17.526 85.9899 20.518ZM96.2859 31.782V12.202H98.7499V16.888H101.588V18.89H98.7499V22.674H101.588V24.654H98.7499V31.782H96.2859ZM116.504 12.18H118.924V31.76H116.504V12.18ZM102.842 26.414C107.924 23.972 110.234 20.65 110.652 16.184H103.81V14.226H113.138C113.138 20.1 110.916 25.028 104.096 28.328L102.842 26.414Z" fill="white"/>
<path d="M136.725 14.098C136.725 16.6018 134.923 18.2763 132.706 18.2763C130.489 18.2763 128.687 16.6497 128.687 14.098C128.687 11.052 130.489 8.58008 132.706 8.58008C134.923 8.58008 136.725 11.052 136.725 14.098Z" fill="white"/>
<path d="M136.725 14.098C136.725 16.6018 134.923 18.2763 132.706 18.2763C130.489 18.2763 128.687 16.6497 128.687 14.098C128.687 11.052 130.489 8.58008 132.706 8.58008C134.923 8.58008 136.725 11.052 136.725 14.098Z" stroke="#231815" stroke-width="0.5" stroke-miterlimit="10"/>
<path d="M136.423 11.8014C136.423 12.9656 135.609 13.9065 134.605 13.9065C133.6 13.9065 132.787 12.9656 132.787 11.8014C132.787 10.6372 133.6 9.69629 134.605 9.69629C135.609 9.69629 136.423 10.6372 136.423 11.8014Z" fill="#231815"/>
<path d="M145.83 14.098C145.83 16.6018 144.028 18.2763 141.811 18.2763C139.595 18.2763 137.792 16.6497 137.792 14.098C137.792 11.052 139.595 8.58008 141.811 8.58008C144.028 8.58008 145.83 11.052 145.83 14.098Z" fill="white"/>
<path d="M145.83 14.098C145.83 16.6018 144.028 18.2763 141.811 18.2763C139.595 18.2763 137.792 16.6497 137.792 14.098C137.792 11.052 139.595 8.58008 141.811 8.58008C144.028 8.58008 145.83 11.052 145.83 14.098Z" stroke="#231815" stroke-width="0.5" stroke-miterlimit="10"/>
<path d="M145.21 11.5621C145.21 12.7263 144.396 13.6673 143.392 13.6673C142.387 13.6673 141.574 12.7263 141.574 11.5621C141.574 10.398 142.387 9.45703 143.392 9.45703C144.396 9.45703 145.21 10.398 145.21 11.5621Z" fill="#231815"/>
<path d="M139.005 8.34102C139.005 8.34102 140.233 6.95356 142.53 7.35226" stroke="#231815" stroke-width="0.5" stroke-miterlimit="10" stroke-linecap="round"/>
<path d="M129.117 8.80347C129.117 8.80347 133.183 9.17027 134.619 7.36816" stroke="#231815" stroke-width="0.5" stroke-miterlimit="10" stroke-linecap="round"/>
<path d="M133.248 20.9551C133.248 20.9551 133.248 22.6774 131.861 23.4589M132.929 22.3904C132.929 22.3904 137.538 24.7666 141.541 22.3904" stroke="#231815" stroke-width="0.5" stroke-miterlimit="10" stroke-linecap="round"/>
</svg>
