<svg width="233" height="34" viewBox="0 0 233 34" fill="none" xmlns="http://www.w3.org/2000/svg">
<path d="M25.375 7.40234H19.1187C17.7762 7.40234 16.4637 7.82378 15.3344 8.61883L14 9.55435L12.6656 8.61883C11.5375 7.82393 10.2235 7.40156 8.88125 7.40234H2.625C2.14102 7.40234 1.75 7.82976 1.75 8.35879V25.3357C1.75 25.8648 2.14102 26.2922 2.625 26.2922H8.88125C10.2238 26.2922 11.5363 26.7136 12.6656 27.5087L13.8797 28.3635C13.9152 28.3874 13.9563 28.4023 13.9973 28.4023C14.0383 28.4023 14.0793 28.3904 14.1148 28.3635L15.3289 27.5087C16.4609 26.7136 17.7762 26.2922 19.1187 26.2922H25.375C25.859 26.2922 26.25 25.8648 26.25 25.3357V8.35879C26.25 7.82976 25.859 7.40234 25.375 7.40234ZM8.88125 24.1402H3.71875V9.55435H8.88125C9.84922 9.55435 10.7898 9.85623 11.602 10.4271L12.9363 11.3626L13.125 11.4971V25.3058C11.8234 24.5407 10.3687 24.1402 8.88125 24.1402ZM24.2812 24.1402H19.1187C17.6313 24.1402 16.1766 24.5407 14.875 25.3058V11.4971L15.0637 11.3626L16.398 10.4271C17.2102 9.85623 18.1508 9.55435 19.1187 9.55435H24.2812V24.1402ZM10.8527 13.3801H5.77227C5.66563 13.3801 5.57812 13.4818 5.57812 13.6043V14.9493C5.57812 15.0719 5.66563 15.1735 5.77227 15.1735H10.85C10.9566 15.1735 11.0441 15.0719 11.0441 14.9493V13.6043C11.0469 13.4818 10.9594 13.3801 10.8527 13.3801ZM16.9531 13.6043V14.9493C16.9531 15.0719 17.0406 15.1735 17.1473 15.1735H22.225C22.3316 15.1735 22.4191 15.0719 22.4191 14.9493V13.6043C22.4191 13.4818 22.3316 13.3801 22.225 13.3801H17.1473C17.0406 13.3801 16.9531 13.4818 16.9531 13.6043ZM10.8527 17.5646H5.77227C5.66563 17.5646 5.57812 17.6662 5.57812 17.7888V19.1338C5.57812 19.2563 5.66563 19.3579 5.77227 19.3579H10.85C10.9566 19.3579 11.0441 19.2563 11.0441 19.1338V17.7888C11.0469 17.6662 10.9594 17.5646 10.8527 17.5646ZM22.2277 17.5646H17.1473C17.0406 17.5646 16.9531 17.6662 16.9531 17.7888V19.1338C16.9531 19.2563 17.0406 19.3579 17.1473 19.3579H22.225C22.3316 19.3579 22.4191 19.2563 22.4191 19.1338V17.7888C22.4219 17.6662 22.3344 17.5646 22.2277 17.5646Z" fill="#6DC389"/>
<path d="M43.656 17.036C44.5507 17.036 45.2693 16.7647 45.812 16.222C46.3693 15.6647 46.648 14.924 46.648 14C46.648 13.076 46.3693 12.3427 45.812 11.8C45.2693 11.2573 44.5507 10.986 43.656 10.986H40.114V17.036H43.656ZM37.782 8.94H43.942C44.9247 8.94 45.7973 9.15267 46.56 9.578C47.3227 10.0033 47.9167 10.6047 48.342 11.382C48.7673 12.1447 48.98 13.0247 48.98 14.022C48.98 15.0927 48.6793 16.046 48.078 16.882C47.4767 17.7033 46.5893 18.3267 45.416 18.752L49.75 25.176H46.934L42.82 19.082H40.114V25.176H37.782V8.94ZM56.3418 25.242C55.3591 25.242 54.4864 25.022 53.7238 24.582C52.9611 24.1273 52.3598 23.504 51.9198 22.712C51.4944 21.9053 51.2818 20.996 51.2818 19.984C51.2818 18.9573 51.4944 18.048 51.9198 17.256C52.3598 16.4493 52.9611 15.826 53.7238 15.386C54.4864 14.9313 55.3591 14.704 56.3418 14.704C57.7058 14.704 58.7251 15.0487 59.3998 15.738C60.0744 16.4127 60.5071 17.014 60.6978 17.542C61.0058 18.2607 61.1598 19.1187 61.1598 20.116C61.1598 20.38 61.1524 20.5707 61.1378 20.688C61.1378 20.7907 61.1378 20.8567 61.1378 20.886H53.5698C53.7018 21.59 54.0318 22.162 54.5598 22.602C55.0878 23.042 55.6818 23.262 56.3418 23.262C57.0898 23.262 57.6691 23.1153 58.0798 22.822C58.4904 22.5287 58.7838 22.2353 58.9598 21.942L60.8298 22.778C60.5364 23.4527 60.0011 24.032 59.2238 24.516C58.4611 25 57.5004 25.242 56.3418 25.242ZM58.9378 19.038C58.8204 18.334 58.5491 17.7693 58.1238 17.344C57.6984 16.904 57.1044 16.684 56.3418 16.684C55.6524 16.684 55.0511 16.904 54.5378 17.344C54.0244 17.784 53.7018 18.3487 53.5698 19.038H58.9378ZM68.2635 25.286C67.3102 25.286 66.4522 25.0587 65.6895 24.604C64.9415 24.1493 64.3548 23.526 63.9295 22.734C63.5042 21.9273 63.2915 21.018 63.2915 20.006C63.2915 18.994 63.5042 18.092 63.9295 17.3C64.3548 16.4933 64.9415 15.8627 65.6895 15.408C66.4522 14.9533 67.3102 14.726 68.2635 14.726C68.8062 14.726 69.3415 14.8507 69.8695 15.1C70.3975 15.3493 70.8668 15.716 71.2775 16.2V14.704H73.6095V25.198H71.2775V23.79C70.8815 24.2887 70.4195 24.6627 69.8915 24.912C69.3635 25.1613 68.8208 25.286 68.2635 25.286ZM65.6235 20.006C65.6235 20.9887 65.8802 21.788 66.3935 22.404C66.9068 23.0053 67.5815 23.306 68.4175 23.306C68.9308 23.306 69.4075 23.1667 69.8475 22.888C70.2875 22.5947 70.6395 22.1987 70.9035 21.7C71.1675 21.1867 71.2995 20.622 71.2995 20.006C71.2995 19.39 71.1675 18.8327 70.9035 18.334C70.6395 17.8207 70.2875 17.4247 69.8475 17.146C69.4075 16.8527 68.9308 16.706 68.4175 16.706C67.5815 16.706 66.9068 17.0067 66.3935 17.608C65.8802 18.2093 65.6235 19.0087 65.6235 20.006ZM81.1976 25.286C80.2443 25.286 79.3863 25.0587 78.6236 24.604C77.861 24.1493 77.267 23.526 76.8416 22.734C76.4163 21.9273 76.2036 21.0107 76.2036 19.984C76.2036 18.9573 76.4163 18.048 76.8416 17.256C77.267 16.4493 77.861 15.8187 78.6236 15.364C79.3863 14.9093 80.2443 14.682 81.1976 14.682C81.6963 14.682 82.2243 14.8067 82.7816 15.056C83.3536 15.3053 83.845 15.7013 84.2556 16.244V9.468H86.5876V25.198H84.2556V23.724C83.8303 24.252 83.3316 24.648 82.7596 24.912C82.2023 25.1613 81.6816 25.286 81.1976 25.286ZM78.5356 20.006C78.5356 21.0033 78.7923 21.81 79.3056 22.426C79.819 23.0273 80.501 23.328 81.3516 23.328C81.8796 23.328 82.3636 23.1813 82.8036 22.888C83.2436 22.5947 83.5956 22.1987 83.8596 21.7C84.1236 21.1867 84.2556 20.622 84.2556 20.006C84.2556 19.4047 84.1236 18.8473 83.8596 18.334C83.5956 17.8207 83.2363 17.4173 82.7816 17.124C82.3416 16.8307 81.865 16.684 81.3516 16.684C80.501 16.684 79.819 16.992 79.3056 17.608C78.7923 18.2093 78.5356 19.0087 78.5356 20.006ZM99.4588 25.286C98.5055 25.286 97.6475 25.0587 96.8848 24.604C96.1368 24.1493 95.5502 23.526 95.1248 22.734C94.6995 21.9273 94.4868 21.018 94.4868 20.006C94.4868 18.994 94.6995 18.092 95.1248 17.3C95.5502 16.4933 96.1368 15.8627 96.8848 15.408C97.6475 14.9533 98.5055 14.726 99.4588 14.726C100.001 14.726 100.537 14.8507 101.065 15.1C101.593 15.3493 102.062 15.716 102.473 16.2V14.704H104.805V25.198H102.473V23.79C102.077 24.2887 101.615 24.6627 101.087 24.912C100.559 25.1613 100.016 25.286 99.4588 25.286ZM96.8188 20.006C96.8188 20.9887 97.0755 21.788 97.5888 22.404C98.1022 23.0053 98.7768 23.306 99.6128 23.306C100.126 23.306 100.603 23.1667 101.043 22.888C101.483 22.5947 101.835 22.1987 102.099 21.7C102.363 21.1867 102.495 20.622 102.495 20.006C102.495 19.39 102.363 18.8327 102.099 18.334C101.835 17.8207 101.483 17.4247 101.043 17.146C100.603 16.8527 100.126 16.706 99.6128 16.706C98.7768 16.706 98.1022 17.0067 97.5888 17.608C97.0755 18.2093 96.8188 19.0087 96.8188 20.006ZM114.817 19.412C114.817 18.576 114.611 17.9233 114.201 17.454C113.79 16.97 113.225 16.728 112.507 16.728C111.788 16.7427 111.187 17.0067 110.703 17.52C110.219 18.0187 109.984 18.6493 109.999 19.412V25.198H107.667V14.704H109.999V16.134C110.336 15.7233 110.761 15.386 111.275 15.122C111.788 14.858 112.294 14.726 112.793 14.726C113.511 14.726 114.201 14.8873 114.861 15.21C115.521 15.5327 116.063 16.0387 116.489 16.728C116.929 17.4173 117.149 18.2827 117.149 19.324V25.198H114.817V19.412ZM124.51 25.286C123.557 25.286 122.699 25.0587 121.936 24.604C121.173 24.1493 120.579 23.526 120.154 22.734C119.729 21.9273 119.516 21.0107 119.516 19.984C119.516 18.9573 119.729 18.048 120.154 17.256C120.579 16.4493 121.173 15.8187 121.936 15.364C122.699 14.9093 123.557 14.682 124.51 14.682C125.009 14.682 125.537 14.8067 126.094 15.056C126.666 15.3053 127.157 15.7013 127.568 16.244V9.468H129.9V25.198H127.568V23.724C127.143 24.252 126.644 24.648 126.072 24.912C125.515 25.1613 124.994 25.286 124.51 25.286ZM121.848 20.006C121.848 21.0033 122.105 21.81 122.618 22.426C123.131 23.0273 123.813 23.328 124.664 23.328C125.192 23.328 125.676 23.1813 126.116 22.888C126.556 22.5947 126.908 22.1987 127.172 21.7C127.436 21.1867 127.568 20.622 127.568 20.006C127.568 19.4047 127.436 18.8473 127.172 18.334C126.908 17.8207 126.549 17.4173 126.094 17.124C125.654 16.8307 125.177 16.684 124.664 16.684C123.813 16.684 123.131 16.992 122.618 17.608C122.105 18.2093 121.848 19.0087 121.848 20.006ZM146.181 25.352C144.627 25.352 143.241 25 142.023 24.296C140.821 23.592 139.875 22.6093 139.185 21.348C138.511 20.0867 138.173 18.6567 138.173 17.058C138.173 15.4447 138.511 14.0147 139.185 12.768C139.875 11.5067 140.821 10.524 142.023 9.82C143.241 9.116 144.627 8.764 146.181 8.764C147.267 8.764 148.293 8.97667 149.261 9.402C150.229 9.82733 151.087 10.4213 151.835 11.184L150.295 12.702C149.797 12.1153 149.181 11.6533 148.447 11.316C147.729 10.9787 146.966 10.81 146.159 10.81C145.045 10.81 144.062 11.074 143.211 11.602C142.361 12.1153 141.701 12.8487 141.231 13.802C140.762 14.7407 140.527 15.826 140.527 17.058C140.527 18.29 140.762 19.3827 141.231 20.336C141.701 21.2747 142.361 22.008 143.211 22.536C144.062 23.0493 145.045 23.306 146.159 23.306C146.981 23.306 147.736 23.1373 148.425 22.8C149.115 22.4627 149.709 22.0153 150.207 21.458L151.835 22.932C150.222 24.56 148.337 25.3667 146.181 25.352ZM158.801 23.284C159.622 23.284 160.282 22.9833 160.781 22.382C161.279 21.7807 161.529 20.9813 161.529 19.984C161.529 19.0013 161.279 18.2093 160.781 17.608C160.282 16.992 159.622 16.684 158.801 16.684C157.979 16.684 157.319 16.9847 156.821 17.586C156.322 18.1873 156.073 18.9867 156.073 19.984C156.073 20.9813 156.322 21.7807 156.821 22.382C157.319 22.9833 157.979 23.284 158.801 23.284ZM153.741 19.984C153.741 18.9573 153.953 18.048 154.379 17.256C154.819 16.4493 155.42 15.8187 156.183 15.364C156.945 14.9093 157.818 14.682 158.801 14.682C159.783 14.682 160.656 14.9093 161.419 15.364C162.181 15.8187 162.775 16.4493 163.201 17.256C163.641 18.048 163.861 18.9573 163.861 19.984C163.861 20.996 163.641 21.9053 163.201 22.712C162.775 23.5187 162.181 24.1493 161.419 24.604C160.656 25.0587 159.783 25.286 158.801 25.286C157.818 25.286 156.945 25.0587 156.183 24.604C155.42 24.1493 154.819 23.5187 154.379 22.712C153.953 21.9053 153.741 20.996 153.741 19.984ZM179.565 19.236C179.565 18.488 179.382 17.8867 179.015 17.432C178.648 16.9773 178.164 16.75 177.563 16.75C176.903 16.75 176.36 16.9773 175.935 17.432C175.524 17.8867 175.319 18.4513 175.319 19.126V25.198H172.965V19.236C172.965 18.488 172.782 17.8867 172.415 17.432C172.063 16.9773 171.594 16.75 171.007 16.75C170.347 16.75 169.797 16.9993 169.357 17.498C168.932 17.9967 168.719 18.62 168.719 19.368V25.198H166.387V14.704H168.719V16.134C169.042 15.7087 169.416 15.3713 169.841 15.122C170.281 14.858 170.743 14.726 171.227 14.726C171.843 14.726 172.437 14.902 173.009 15.254C173.581 15.606 174.021 16.0607 174.329 16.618C174.696 16.0607 175.194 15.606 175.825 15.254C176.456 14.902 177.086 14.726 177.717 14.726C178.538 14.726 179.264 14.9167 179.895 15.298C180.54 15.6793 181.039 16.2073 181.391 16.882C181.743 17.542 181.919 18.2973 181.919 19.148V25.198H179.565V19.236ZM190.12 23.284C190.971 23.284 191.646 22.9833 192.144 22.382C192.658 21.766 192.914 20.9593 192.914 19.962C192.914 18.9647 192.658 18.1653 192.144 17.564C191.646 16.948 190.971 16.64 190.12 16.64C189.607 16.64 189.123 16.7867 188.668 17.08C188.228 17.3733 187.876 17.7767 187.612 18.29C187.363 18.8033 187.238 19.3607 187.238 19.962C187.238 20.5633 187.363 21.1207 187.612 21.634C187.876 22.1473 188.228 22.5507 188.668 22.844C189.123 23.1373 189.607 23.284 190.12 23.284ZM184.884 14.682H187.216V16.222C187.598 15.7233 188.082 15.342 188.668 15.078C189.255 14.814 189.783 14.682 190.252 14.682C191.22 14.682 192.078 14.9093 192.826 15.364C193.589 15.804 194.183 16.4273 194.608 17.234C195.034 18.026 195.246 18.9353 195.246 19.962C195.246 20.9887 195.034 21.9053 194.608 22.712C194.183 23.5187 193.589 24.1493 192.826 24.604C192.078 25.044 191.22 25.264 190.252 25.264C189.768 25.264 189.233 25.132 188.646 24.868C188.074 24.604 187.598 24.2153 187.216 23.702V29.84H184.884V14.682ZM199.756 9.468V25.176H197.424V9.468H199.756ZM207.012 25.242C206.029 25.242 205.156 25.022 204.394 24.582C203.631 24.1273 203.03 23.504 202.59 22.712C202.164 21.9053 201.952 20.996 201.952 19.984C201.952 18.9573 202.164 18.048 202.59 17.256C203.03 16.4493 203.631 15.826 204.394 15.386C205.156 14.9313 206.029 14.704 207.012 14.704C208.376 14.704 209.395 15.0487 210.07 15.738C210.744 16.4127 211.177 17.014 211.368 17.542C211.676 18.2607 211.83 19.1187 211.83 20.116C211.83 20.38 211.822 20.5707 211.808 20.688C211.808 20.7907 211.808 20.8567 211.808 20.886H204.24C204.372 21.59 204.702 22.162 205.23 22.602C205.758 23.042 206.352 23.262 207.012 23.262C207.76 23.262 208.339 23.1153 208.75 22.822C209.16 22.5287 209.454 22.2353 209.63 21.942L211.5 22.778C211.206 23.4527 210.671 24.032 209.894 24.516C209.131 25 208.17 25.242 207.012 25.242ZM209.608 19.038C209.49 18.334 209.219 17.7693 208.794 17.344C208.368 16.904 207.774 16.684 207.012 16.684C206.322 16.684 205.721 16.904 205.208 17.344C204.694 17.784 204.372 18.3487 204.24 19.038H209.608ZM215.162 16.706H213.182V14.682H215.162V11.008H217.494V14.682H219.98V16.706H217.494V25.198H215.162V16.706ZM226.691 25.242C225.709 25.242 224.836 25.022 224.073 24.582C223.311 24.1273 222.709 23.504 222.269 22.712C221.844 21.9053 221.631 20.996 221.631 19.984C221.631 18.9573 221.844 18.048 222.269 17.256C222.709 16.4493 223.311 15.826 224.073 15.386C224.836 14.9313 225.709 14.704 226.691 14.704C228.055 14.704 229.075 15.0487 229.749 15.738C230.424 16.4127 230.857 17.014 231.047 17.542C231.355 18.2607 231.509 19.1187 231.509 20.116C231.509 20.38 231.502 20.5707 231.487 20.688C231.487 20.7907 231.487 20.8567 231.487 20.886H223.919C224.051 21.59 224.381 22.162 224.909 22.602C225.437 23.042 226.031 23.262 226.691 23.262C227.439 23.262 228.019 23.1153 228.429 22.822C228.84 22.5287 229.133 22.2353 229.309 21.942L231.179 22.778C230.886 23.4527 230.351 24.032 229.573 24.516C228.811 25 227.85 25.242 226.691 25.242ZM229.287 19.038C229.17 18.334 228.899 17.7693 228.473 17.344C228.048 16.904 227.454 16.684 226.691 16.684C226.002 16.684 225.401 16.904 224.887 17.344C224.374 17.784 224.051 18.3487 223.919 19.038H229.287Z" fill="#007637"/>
</svg>
