<svg width="28" height="28" viewBox="0 0 28 28" fill="none" xmlns="http://www.w3.org/2000/svg">
<g clip-path="url(#clip0_4596_63960)">
<path d="M13.9997 26.1381C20.7036 26.1381 26.1381 20.7036 26.1381 13.9997C26.1381 7.29587 20.7036 1.86133 13.9997 1.86133C7.29587 1.86133 1.86133 7.29587 1.86133 13.9997C1.86133 20.7036 7.29587 26.1381 13.9997 26.1381Z" fill="#FBA9B3"/>
<path d="M11.579 15.2995C11.1385 15.2996 10.6935 15.2222 10.2568 15.0383C9.08916 14.5464 8.3815 13.5492 8.21038 12.1547C8.08827 11.1596 8.28826 10.3053 8.29684 10.2694C8.36701 9.97563 8.6621 9.79418 8.95583 9.86461C9.24917 9.93472 9.4303 10.2291 9.3609 10.5224C9.3592 10.5295 9.19498 11.2458 9.29943 12.0493C9.42712 13.0313 9.89208 13.6978 10.6814 14.0303C12.7043 14.8826 15.3117 12.372 15.3378 12.3466C15.5539 12.1358 15.9 12.1399 16.111 12.3557C16.3219 12.5715 16.3183 12.9173 16.1027 13.1284C15.9959 13.233 13.8544 15.2992 11.579 15.2995ZM18.5129 10.1362C18.4484 10.1362 18.3829 10.1247 18.319 10.1005L16.1913 9.2934C16.011 9.22504 15.8801 9.06678 15.8467 8.87696C15.8132 8.68708 15.8822 8.49365 16.0282 8.36782L18.156 6.53425C18.3848 6.33716 18.7301 6.3627 18.9272 6.59151C19.1244 6.82032 19.0988 7.16562 18.87 7.36277L17.4382 8.59663L18.7069 9.07788C18.9893 9.18501 19.1314 9.50078 19.0243 9.78318C18.9414 10.0017 18.7335 10.1361 18.5129 10.1362ZM10.6623 8.6319H8.31445C8.01241 8.6319 7.76758 8.38707 7.76758 8.08503C7.76758 7.78299 8.01241 7.53815 8.31445 7.53815H9.80327L9.00182 5.82233C8.87402 5.54868 8.99225 5.22323 9.26591 5.09543C9.53962 4.96768 9.86506 5.08586 9.99281 5.35951L11.1578 7.85359C11.2368 8.02296 11.224 8.22104 11.1236 8.3787C11.0232 8.53642 10.8492 8.6319 10.6623 8.6319Z" fill="#232426"/>
</g>
<defs>
<clipPath id="clip0_4596_63960">
<rect width="28" height="28" fill="white"/>
</clipPath>
</defs>
</svg>
