<svg width="130" height="34" viewBox="0 0 130 34" fill="none" xmlns="http://www.w3.org/2000/svg">
<path d="M0 8C0 3.58172 3.58172 0 8 0H122C126.418 0 130 3.58172 130 8V34H0V8Z" fill="#FFC333"/>
<path d="M25 7.99944V25.9994C24.9999 26.1398 24.9604 26.2773 24.8861 26.3963C24.8117 26.5153 24.7054 26.6111 24.5793 26.6727C24.4533 26.7343 24.3124 26.7593 24.1728 26.7449C24.0332 26.7305 23.9005 26.6771 23.7897 26.591L17.2422 21.4994H13C12.6022 21.4994 12.2206 21.3414 11.9393 21.0601C11.658 20.7788 11.5 20.3973 11.5 19.9994V13.9994C11.5 13.6016 11.658 13.2201 11.9393 12.9388C12.2206 12.6575 12.6022 12.4994 13 12.4994H17.2422L23.7897 7.40788C23.9005 7.32174 24.0332 7.26842 24.1728 7.25398C24.3124 7.23954 24.4533 7.26455 24.5793 7.32618C24.7054 7.38781 24.8117 7.48357 24.8861 7.60259C24.9604 7.72161 24.9999 7.8591 25 7.99944ZM28 13.9994C27.8011 13.9994 27.6103 14.0785 27.4697 14.2191C27.329 14.3598 27.25 14.5505 27.25 14.7494V19.2494C27.25 19.4484 27.329 19.6391 27.4697 19.7798C27.6103 19.9204 27.8011 19.9994 28 19.9994C28.1989 19.9994 28.3897 19.9204 28.5303 19.7798C28.671 19.6391 28.75 19.4484 28.75 19.2494V14.7494C28.75 14.5505 28.671 14.3598 28.5303 14.2191C28.3897 14.0785 28.1989 13.9994 28 13.9994ZM31 12.4994C30.8011 12.4994 30.6103 12.5785 30.4697 12.7191C30.329 12.8598 30.25 13.0505 30.25 13.2494V20.7494C30.25 20.9484 30.329 21.1391 30.4697 21.2798C30.6103 21.4204 30.8011 21.4994 31 21.4994C31.1989 21.4994 31.3897 21.4204 31.5303 21.2798C31.671 21.1391 31.75 20.9484 31.75 20.7494V13.2494C31.75 13.0505 31.671 12.8598 31.5303 12.7191C31.3897 12.5785 31.1989 12.4994 31 12.4994Z" fill="#996500"/>
<mask id="path-3-outside-1_1960_5548" maskUnits="userSpaceOnUse" x="42" y="5" width="79" height="24" fill="black">
<rect fill="white" x="42" y="5" width="79" height="24"/>
<path d="M47.586 20.556C48.532 22.404 49.874 23.328 51.282 23.328C53.372 23.35 54.538 22.338 54.538 20.776C54.538 17.08 46.376 18.664 46.376 13.01C46.376 10.326 48.576 8.742 51.59 8.764C53.68 8.786 55.682 9.952 56.584 12.482L54.494 13.23C53.922 11.536 52.778 10.81 51.568 10.788C49.83 10.788 48.708 11.646 48.708 13.01C48.708 16.662 56.848 15.276 56.848 20.798C56.848 23.526 54.714 25.396 51.26 25.352C48.884 25.33 46.992 23.966 45.65 21.634L47.586 20.556ZM64.3418 23.284C65.9698 23.284 67.0698 21.986 67.0698 19.984C67.0698 18.004 65.9698 16.684 64.3418 16.684C62.7138 16.684 61.6138 17.982 61.6138 19.984C61.6138 21.986 62.6918 23.284 64.3418 23.284ZM59.2818 19.984C59.2818 16.882 61.3718 14.682 64.3418 14.682C67.3118 14.682 69.4017 16.882 69.4017 19.984C69.4017 23.064 67.3118 25.286 64.3418 25.286C61.3718 25.286 59.2818 23.064 59.2818 19.984ZM74.3428 20.688C74.3428 22.294 75.2888 23.284 76.6748 23.284C78.1488 23.284 79.1608 22.316 79.1388 20.71V14.704H81.4928V25.198H79.1388V23.988C78.4788 24.802 77.4008 25.286 76.3668 25.286C73.8368 25.286 72.0108 23.46 72.0108 20.776V14.704H74.3428V20.688ZM91.6427 19.412C91.6427 17.74 90.7847 16.728 89.3327 16.728C87.9027 16.75 86.8027 17.872 86.8247 19.412V25.198H84.4927V14.704H86.8247V16.134C87.4847 15.32 88.6067 14.726 89.6187 14.726C91.5987 14.726 93.9747 16.024 93.9747 19.324V25.198H91.6427V19.412ZM101.336 25.286C98.4323 25.286 96.3423 23.086 96.3423 19.984C96.3423 16.882 98.4323 14.682 101.336 14.682C102.194 14.682 103.492 15.056 104.394 16.244V9.468H106.726V25.198H104.394V23.724C103.47 24.846 102.194 25.286 101.336 25.286ZM98.6743 20.006C98.6743 22.008 99.7963 23.328 101.49 23.328C103.074 23.328 104.394 21.876 104.394 20.006C104.394 18.158 103.074 16.684 101.49 16.684C99.7963 16.684 98.6743 18.004 98.6743 20.006ZM111.425 21.59C111.887 22.734 113.031 23.262 113.735 23.262C114.835 23.262 115.539 22.844 115.539 22.118C115.539 21.458 114.571 21.15 113.493 20.776C112.063 20.27 110.039 19.588 110.039 17.564C110.039 15.716 111.733 14.594 113.889 14.594C115.187 14.594 117.123 15.342 117.651 17.234L115.693 17.938C115.341 16.772 114.395 16.596 113.889 16.596C112.965 16.596 112.371 16.97 112.371 17.564C112.371 18.224 113.273 18.488 114.395 18.884C115.891 19.412 117.871 20.094 117.871 22.096C117.871 24.01 116.177 25.264 113.735 25.264C112.129 25.264 110.369 24.252 109.599 22.646L111.425 21.59Z"/>
</mask>
<path d="M47.586 20.556C48.532 22.404 49.874 23.328 51.282 23.328C53.372 23.35 54.538 22.338 54.538 20.776C54.538 17.08 46.376 18.664 46.376 13.01C46.376 10.326 48.576 8.742 51.59 8.764C53.68 8.786 55.682 9.952 56.584 12.482L54.494 13.23C53.922 11.536 52.778 10.81 51.568 10.788C49.83 10.788 48.708 11.646 48.708 13.01C48.708 16.662 56.848 15.276 56.848 20.798C56.848 23.526 54.714 25.396 51.26 25.352C48.884 25.33 46.992 23.966 45.65 21.634L47.586 20.556ZM64.3418 23.284C65.9698 23.284 67.0698 21.986 67.0698 19.984C67.0698 18.004 65.9698 16.684 64.3418 16.684C62.7138 16.684 61.6138 17.982 61.6138 19.984C61.6138 21.986 62.6918 23.284 64.3418 23.284ZM59.2818 19.984C59.2818 16.882 61.3718 14.682 64.3418 14.682C67.3118 14.682 69.4017 16.882 69.4017 19.984C69.4017 23.064 67.3118 25.286 64.3418 25.286C61.3718 25.286 59.2818 23.064 59.2818 19.984ZM74.3428 20.688C74.3428 22.294 75.2888 23.284 76.6748 23.284C78.1488 23.284 79.1608 22.316 79.1388 20.71V14.704H81.4928V25.198H79.1388V23.988C78.4788 24.802 77.4008 25.286 76.3668 25.286C73.8368 25.286 72.0108 23.46 72.0108 20.776V14.704H74.3428V20.688ZM91.6427 19.412C91.6427 17.74 90.7847 16.728 89.3327 16.728C87.9027 16.75 86.8027 17.872 86.8247 19.412V25.198H84.4927V14.704H86.8247V16.134C87.4847 15.32 88.6067 14.726 89.6187 14.726C91.5987 14.726 93.9747 16.024 93.9747 19.324V25.198H91.6427V19.412ZM101.336 25.286C98.4323 25.286 96.3423 23.086 96.3423 19.984C96.3423 16.882 98.4323 14.682 101.336 14.682C102.194 14.682 103.492 15.056 104.394 16.244V9.468H106.726V25.198H104.394V23.724C103.47 24.846 102.194 25.286 101.336 25.286ZM98.6743 20.006C98.6743 22.008 99.7963 23.328 101.49 23.328C103.074 23.328 104.394 21.876 104.394 20.006C104.394 18.158 103.074 16.684 101.49 16.684C99.7963 16.684 98.6743 18.004 98.6743 20.006ZM111.425 21.59C111.887 22.734 113.031 23.262 113.735 23.262C114.835 23.262 115.539 22.844 115.539 22.118C115.539 21.458 114.571 21.15 113.493 20.776C112.063 20.27 110.039 19.588 110.039 17.564C110.039 15.716 111.733 14.594 113.889 14.594C115.187 14.594 117.123 15.342 117.651 17.234L115.693 17.938C115.341 16.772 114.395 16.596 113.889 16.596C112.965 16.596 112.371 16.97 112.371 17.564C112.371 18.224 113.273 18.488 114.395 18.884C115.891 19.412 117.871 20.094 117.871 22.096C117.871 24.01 116.177 25.264 113.735 25.264C112.129 25.264 110.369 24.252 109.599 22.646L111.425 21.59Z" fill="#FFFAEF"/>
<path d="M47.586 20.556L50.2564 19.189C49.8856 18.4646 49.2364 17.9219 48.4577 17.6854C47.6789 17.449 46.8376 17.539 46.1265 17.9349L47.586 20.556ZM51.282 23.328L51.3136 20.3282C51.3031 20.3281 51.2925 20.328 51.282 20.328V23.328ZM51.59 8.764L51.6216 5.76415L51.6119 5.76408L51.59 8.764ZM56.584 12.482L57.5949 15.3066C59.1535 14.7487 59.9657 13.0338 59.4098 11.4745L56.584 12.482ZM54.494 13.23L51.6517 14.1897C51.9092 14.9525 52.4625 15.5797 53.1871 15.9304C53.9118 16.2811 54.7469 16.3258 55.5049 16.0546L54.494 13.23ZM51.568 10.788L51.6225 7.7885C51.6044 7.78816 51.5862 7.788 51.568 7.788V10.788ZM51.26 25.352L51.2982 22.3522L51.2878 22.3521L51.26 25.352ZM45.65 21.634L44.1905 19.0129C43.489 19.4036 42.9733 20.0592 42.7589 20.833C42.5445 21.6069 42.6493 22.4344 43.0498 23.1303L45.65 21.634ZM44.9156 21.923C46.1829 24.3987 48.3812 26.328 51.282 26.328V20.328C51.267 20.328 51.1928 20.3317 51.0353 20.2161C50.8586 20.0865 50.5647 19.7912 50.2564 19.189L44.9156 21.923ZM51.2504 26.3278C52.7476 26.3436 54.3185 25.9956 55.5763 24.9818C56.9093 23.9075 57.538 22.3656 57.538 20.776H51.538C51.538 20.7904 51.5364 20.7185 51.5893 20.6015C51.6447 20.4788 51.7287 20.3767 51.8112 20.3102C51.887 20.2491 51.9162 20.254 51.8418 20.2755C51.7643 20.2978 51.596 20.3311 51.3136 20.3282L51.2504 26.3278ZM57.538 20.776C57.538 18.4111 56.0844 16.9937 54.8074 16.2266C53.7369 15.5837 52.2827 15.1107 51.5195 14.8217C50.5206 14.4434 49.9867 14.1612 49.6831 13.8817C49.5262 13.7373 49.376 13.5728 49.376 13.01H43.376C43.376 15.2742 44.2461 17.0319 45.6196 18.2962C46.8463 19.4254 48.3529 20.0383 49.3945 20.4328C50.6718 20.9165 51.2581 21.0939 51.718 21.3702C51.9713 21.5223 51.538 21.2929 51.538 20.776H57.538ZM49.376 13.01C49.376 12.5745 49.5144 12.3821 49.7071 12.2305C49.9721 12.0221 50.5595 11.7566 51.5681 11.7639L51.6119 5.76408C49.6065 5.74944 47.5869 6.26488 45.9984 7.51402C44.3376 8.81995 43.376 10.7615 43.376 13.01H49.376ZM51.5584 11.7638C52.4406 11.7731 53.2945 12.1888 53.7582 13.4895L59.4098 11.4745C58.0695 7.71522 54.9194 5.79888 51.6216 5.76417L51.5584 11.7638ZM55.5731 9.65745L53.4831 10.4054L55.5049 16.0546L57.5949 15.3066L55.5731 9.65745ZM57.3363 12.2702C56.4066 9.51665 54.2417 7.83612 51.6225 7.7885L51.5135 13.7875C51.5235 13.7877 51.5122 13.7887 51.4871 13.7801C51.4603 13.771 51.4385 13.7579 51.4275 13.7494C51.3946 13.7237 51.5195 13.7984 51.6517 14.1897L57.3363 12.2702ZM51.568 7.788C50.2419 7.788 48.8173 8.11223 47.6508 9.01451C46.4054 9.97781 45.708 11.4161 45.708 13.01H51.708C51.708 13.0879 51.6898 13.2318 51.6086 13.399C51.5271 13.5666 51.4162 13.6874 51.3217 13.7605C51.1507 13.8928 51.1561 13.788 51.568 13.788V7.788ZM45.708 13.01C45.708 15.3614 47.1576 16.7763 48.4069 17.5456C49.4699 18.2002 50.9074 18.6908 51.6801 18.9946C52.6806 19.3881 53.2274 19.6801 53.5425 19.9706C53.7141 20.1289 53.848 20.2881 53.848 20.798H59.848C59.848 18.5469 58.9644 16.8086 57.6098 15.5596C56.3986 14.4428 54.9104 13.8177 53.8759 13.4109C52.6137 12.9145 52.0161 12.7217 51.5529 12.4365C51.2759 12.2659 51.708 12.4846 51.708 13.01H45.708ZM53.848 20.798C53.848 21.3218 53.6725 21.607 53.4306 21.8082C53.1415 22.0488 52.4961 22.3675 51.2982 22.3522L51.2218 28.3518C53.4779 28.3805 55.6265 27.7862 57.2679 26.4208C58.9565 25.016 59.848 23.0022 59.848 20.798H53.848ZM51.2878 22.3521C50.2634 22.3426 49.2234 21.8287 48.2502 20.1377L43.0498 23.1303C44.7606 26.1033 47.5046 28.3174 51.2322 28.3519L51.2878 22.3521ZM47.1095 24.2551L49.0455 23.1771L46.1265 17.9349L44.1905 19.0129L47.1095 24.2551ZM64.3418 26.284C66.0173 26.284 67.5549 25.5858 68.6218 24.3042C69.6482 23.0714 70.0697 21.514 70.0697 19.984H64.0697C64.0697 20.456 63.9413 20.5486 64.0107 20.4653C64.047 20.4216 64.1117 20.3656 64.1996 20.3251C64.2866 20.285 64.3443 20.284 64.3418 20.284V26.284ZM70.0697 19.984C70.0697 18.4584 69.6449 16.9067 68.6263 15.6774C67.5681 14.4003 66.0336 13.684 64.3418 13.684V19.684C64.3419 19.684 64.3254 19.6839 64.2959 19.6776C64.266 19.6712 64.2288 19.6596 64.188 19.6406C64.1005 19.5998 64.0389 19.5451 64.0062 19.5056C63.9446 19.4313 64.0697 19.5296 64.0697 19.984H70.0697ZM64.3418 13.684C62.6662 13.684 61.1286 14.3822 60.0617 15.6638C59.0353 16.8966 58.6138 18.454 58.6138 19.984H64.6138C64.6138 19.512 64.7422 19.4194 64.6728 19.5027C64.6365 19.5464 64.5718 19.6024 64.4839 19.6429C64.3969 19.683 64.3392 19.684 64.3418 19.684V13.684ZM58.6138 19.984C58.6138 21.4995 59.0223 23.0585 60.048 24.2977C61.1193 25.5919 62.6639 26.284 64.3418 26.284V20.284C64.3281 20.284 64.3825 20.2828 64.4714 20.3236C64.5618 20.3651 64.6303 20.4239 64.67 20.4718C64.7442 20.5615 64.6138 20.4705 64.6138 19.984H58.6138ZM62.2817 19.984C62.2817 19.1155 62.5656 18.5586 62.8697 18.2395C63.1639 17.9307 63.6279 17.682 64.3418 17.682V11.682C62.0856 11.682 60.0196 12.5333 58.5263 14.1C57.0429 15.6564 56.2817 17.7505 56.2817 19.984H62.2817ZM64.3418 17.682C65.0556 17.682 65.5196 17.9307 65.8138 18.2395C66.1179 18.5586 66.4018 19.1155 66.4018 19.984H72.4018C72.4018 17.7505 71.6406 15.6564 70.1572 14.1C68.6639 12.5333 66.5979 11.682 64.3418 11.682V17.682ZM66.4018 19.984C66.4018 21.5531 65.5126 22.286 64.3418 22.286V28.286C69.1109 28.286 72.4018 24.5749 72.4018 19.984H66.4018ZM64.3418 22.286C63.1709 22.286 62.2817 21.5531 62.2817 19.984H56.2817C56.2817 24.5749 59.5726 28.286 64.3418 28.286V22.286ZM79.1388 20.71H76.1388C76.1388 20.7237 76.1389 20.7374 76.1391 20.7511L79.1388 20.71ZM79.1388 14.704V11.704C77.482 11.704 76.1388 13.0471 76.1388 14.704H79.1388ZM81.4928 14.704H84.4928C84.4928 13.0471 83.1497 11.704 81.4928 11.704V14.704ZM81.4928 25.198V28.198C83.1497 28.198 84.4928 26.8549 84.4928 25.198H81.4928ZM79.1388 25.198H76.1388C76.1388 26.8549 77.482 28.198 79.1388 28.198V25.198ZM79.1388 23.988H82.1388C82.1388 22.7175 81.3386 21.5848 80.1411 21.1604C78.9437 20.7359 77.6087 21.1118 76.8085 22.0986L79.1388 23.988ZM72.0108 14.704V11.704C70.354 11.704 69.0108 13.0471 69.0108 14.704H72.0108ZM74.3428 14.704H77.3428C77.3428 13.0471 75.9997 11.704 74.3428 11.704V14.704ZM71.3428 20.688C71.3428 22.0742 71.7578 23.4998 72.7748 24.6123C73.8136 25.7488 75.2339 26.284 76.6748 26.284V20.284C76.6874 20.284 76.764 20.2869 76.8774 20.3341C76.9942 20.3827 77.1098 20.4619 77.2033 20.5642C77.4008 20.7802 77.3428 20.9078 77.3428 20.688H71.3428ZM76.6748 26.284C78.0782 26.284 79.5199 25.8103 80.609 24.7005C81.7008 23.588 82.1584 22.1222 82.1385 20.6689L76.1391 20.7511C76.1402 20.834 76.1271 20.8302 76.1501 20.7669C76.1746 20.6994 76.2285 20.598 76.3266 20.498C76.4245 20.3982 76.5292 20.3378 76.6097 20.3069C76.6862 20.2775 76.7155 20.284 76.6748 20.284V26.284ZM82.1388 20.71V14.704H76.1388V20.71H82.1388ZM79.1388 17.704H81.4928V11.704H79.1388V17.704ZM78.4928 14.704V25.198H84.4928V14.704H78.4928ZM81.4928 22.198H79.1388V28.198H81.4928V22.198ZM82.1388 25.198V23.988H76.1388V25.198H82.1388ZM76.8085 22.0986C76.7947 22.1157 76.7404 22.17 76.6329 22.2197C76.525 22.2697 76.4254 22.286 76.3668 22.286V28.286C78.2548 28.286 80.2084 27.4322 81.4691 25.8774L76.8085 22.0986ZM76.3668 22.286C75.8461 22.286 75.5522 22.1114 75.3873 21.9424C75.2197 21.7706 75.0108 21.4229 75.0108 20.776H69.0108C69.0108 22.8131 69.715 24.7204 71.0928 26.1326C72.4734 27.5476 74.3575 28.286 76.3668 28.286V22.286ZM75.0108 20.776V14.704H69.0108V20.776H75.0108ZM72.0108 17.704H74.3428V11.704H72.0108V17.704ZM71.3428 14.704V20.688H77.3428V14.704H71.3428ZM89.3327 16.728V13.728C89.3173 13.728 89.302 13.7281 89.2866 13.7284L89.3327 16.728ZM86.8247 19.412H89.8247C89.8247 19.3977 89.8246 19.3834 89.8244 19.3691L86.8247 19.412ZM86.8247 25.198V28.198C88.4816 28.198 89.8247 26.8549 89.8247 25.198H86.8247ZM84.4927 25.198H81.4927C81.4927 26.8549 82.8359 28.198 84.4927 28.198V25.198ZM84.4927 14.704V11.704C82.8359 11.704 81.4927 13.0471 81.4927 14.704H84.4927ZM86.8247 14.704H89.8247C89.8247 13.0471 88.4816 11.704 86.8247 11.704V14.704ZM86.8247 16.134H83.8247C83.8247 17.4045 84.625 18.5372 85.8224 18.9616C87.0199 19.3861 88.3549 19.0102 89.155 18.0234L86.8247 16.134ZM93.9747 25.198V28.198C95.6316 28.198 96.9747 26.8549 96.9747 25.198H93.9747ZM91.6427 25.198H88.6427C88.6427 26.8549 89.9859 28.198 91.6427 28.198V25.198ZM94.6427 19.412C94.6427 18.0943 94.3048 16.6512 93.31 15.4906C92.2633 14.2695 90.8023 13.728 89.3327 13.728V19.728C89.3461 19.728 89.2655 19.7297 89.1325 19.6731C88.9927 19.6137 88.8579 19.5161 88.7544 19.3954C88.5516 19.1588 88.6427 19.0576 88.6427 19.412H94.6427ZM89.2866 13.7284C86.1345 13.7768 83.7803 16.3269 83.825 19.4549L89.8244 19.3691C89.824 19.342 89.8257 19.4441 89.7114 19.5647C89.598 19.6843 89.4582 19.7264 89.3789 19.7276L89.2866 13.7284ZM83.8247 19.412V25.198H89.8247V19.412H83.8247ZM86.8247 22.198H84.4927V28.198H86.8247V22.198ZM87.4927 25.198V14.704H81.4927V25.198H87.4927ZM84.4927 17.704H86.8247V11.704H84.4927V17.704ZM83.8247 14.704V16.134H89.8247V14.704H83.8247ZM89.155 18.0234C89.1991 17.969 89.3054 17.8725 89.4553 17.7959C89.5234 17.7611 89.5799 17.7411 89.6174 17.7312C89.6558 17.721 89.6562 17.726 89.6187 17.726V11.726C87.5825 11.726 85.6441 12.8267 84.4945 14.2446L89.155 18.0234ZM89.6187 17.726C90.0003 17.726 90.3513 17.8592 90.5627 18.0443C90.6579 18.1277 90.7473 18.2386 90.8196 18.4057C90.8931 18.5754 90.9747 18.8636 90.9747 19.324H96.9747C96.9747 16.8856 96.0629 14.8857 94.5158 13.5307C93.0441 12.2418 91.2172 11.726 89.6187 11.726V17.726ZM90.9747 19.324V25.198H96.9747V19.324H90.9747ZM93.9747 22.198H91.6427V28.198H93.9747V22.198ZM94.6427 25.198V19.412H88.6427V25.198H94.6427ZM104.394 16.244L102.005 18.0581C102.784 19.084 104.131 19.4982 105.351 19.0872C106.572 18.6763 107.394 17.532 107.394 16.244H104.394ZM104.394 9.468V6.468C102.737 6.468 101.394 7.81115 101.394 9.468H104.394ZM106.726 9.468H109.726C109.726 7.81115 108.383 6.468 106.726 6.468V9.468ZM106.726 25.198V28.198C108.383 28.198 109.726 26.8549 109.726 25.198H106.726ZM104.394 25.198H101.394C101.394 26.8549 102.737 28.198 104.394 28.198V25.198ZM104.394 23.724H107.394C107.394 22.4577 106.599 21.3278 105.407 20.9002C104.215 20.4726 102.883 20.8394 102.079 21.8169L104.394 23.724ZM101.336 22.286C100.249 22.286 99.3423 21.5935 99.3423 19.984H93.3423C93.3423 24.5785 96.6157 28.286 101.336 28.286V22.286ZM99.3423 19.984C99.3423 18.3745 100.249 17.682 101.336 17.682V11.682C96.6157 11.682 93.3423 15.3895 93.3423 19.984H99.3423ZM101.336 17.682C101.335 17.682 101.345 17.682 101.363 17.684C101.382 17.6859 101.406 17.6894 101.435 17.6955C101.494 17.7078 101.562 17.7284 101.63 17.7589C101.761 17.8171 101.891 17.9074 102.005 18.0581L106.784 14.4299C105.205 12.3502 102.935 11.682 101.336 11.682V17.682ZM107.394 16.244V9.468H101.394V16.244H107.394ZM104.394 12.468H106.726V6.468H104.394V12.468ZM103.726 9.468V25.198H109.726V9.468H103.726ZM106.726 22.198H104.394V28.198H106.726V22.198ZM107.394 25.198V23.724H101.394V25.198H107.394ZM102.079 21.8169C101.927 22.0005 101.751 22.1246 101.582 22.2023C101.395 22.2887 101.289 22.286 101.336 22.286V28.286C103.054 28.286 105.193 27.4729 106.71 25.6311L102.079 21.8169ZM95.6743 20.006C95.6743 21.5492 96.1088 23.1201 97.1594 24.3585C98.2486 25.6425 99.8048 26.328 101.49 26.328V20.328C101.461 20.328 101.498 20.3238 101.57 20.3562C101.643 20.3892 101.701 20.4371 101.735 20.477C101.801 20.5549 101.674 20.4648 101.674 20.006H95.6743ZM101.49 26.328C105.066 26.328 107.394 23.1772 107.394 20.006H101.394C101.394 20.2343 101.315 20.351 101.29 20.3803C101.277 20.3946 101.283 20.3821 101.32 20.3644C101.361 20.345 101.421 20.328 101.49 20.328V26.328ZM107.394 20.006C107.394 16.8705 105.078 13.684 101.49 13.684V19.684C101.414 19.684 101.35 19.665 101.309 19.6455C101.273 19.6278 101.269 19.6168 101.285 19.6348C101.319 19.6738 101.394 19.795 101.394 20.006H107.394ZM101.49 13.684C99.8048 13.684 98.2486 14.3695 97.1594 15.6535C96.1088 16.8919 95.6743 18.4628 95.6743 20.006H101.674C101.674 19.5472 101.801 19.4571 101.735 19.535C101.701 19.5749 101.643 19.6228 101.57 19.6558C101.498 19.6882 101.461 19.684 101.49 19.684V13.684ZM111.425 21.59L114.207 20.4666C113.882 19.6609 113.223 19.0358 112.401 18.7532C111.579 18.4705 110.676 18.558 109.923 18.993L111.425 21.59ZM113.493 20.776L112.492 23.6042C112.498 23.6062 112.504 23.6083 112.51 23.6103L113.493 20.776ZM117.651 17.234L118.666 20.0571C120.145 19.5252 120.963 17.9417 120.541 16.4276L117.651 17.234ZM115.693 17.938L112.821 18.805C113.059 19.5926 113.61 20.248 114.345 20.6178C115.08 20.9876 115.934 21.0394 116.708 20.7611L115.693 17.938ZM114.395 18.884L115.394 16.055V16.055L114.395 18.884ZM109.599 22.646L108.097 20.049C106.741 20.8335 106.217 22.5299 106.894 23.943L109.599 22.646ZM108.643 22.7134C109.61 25.1071 111.938 26.262 113.735 26.262V20.262C113.916 20.262 114.019 20.2925 114.045 20.3007C114.08 20.3118 114.095 20.3209 114.101 20.3247C114.113 20.3321 114.169 20.3737 114.207 20.4666L108.643 22.7134ZM113.735 26.262C114.603 26.262 115.675 26.1069 116.636 25.5088C117.728 24.8283 118.539 23.63 118.539 22.118H112.539C112.539 21.7958 112.623 21.4274 112.827 21.0809C113.025 20.7443 113.274 20.5339 113.464 20.4157C113.797 20.2081 113.967 20.262 113.735 20.262V26.262ZM118.539 22.118C118.539 20.0319 116.932 19.0206 116.361 18.7083C115.707 18.3504 114.894 18.0865 114.477 17.9417L112.51 23.6103C112.807 23.7133 113.014 23.7836 113.205 23.8562C113.294 23.8899 113.361 23.917 113.41 23.9388C113.461 23.9609 113.481 23.9719 113.48 23.9712C113.48 23.9711 113.439 23.949 113.374 23.9005C113.31 23.8523 113.2 23.761 113.078 23.617C112.954 23.4693 112.813 23.2609 112.705 22.9886C112.595 22.7102 112.539 22.4132 112.539 22.118H118.539ZM114.494 17.9478C114.111 17.8122 113.813 17.7078 113.527 17.5858C113.246 17.4659 113.071 17.3675 112.968 17.2941C112.87 17.2245 112.902 17.2232 112.956 17.3146C112.984 17.3616 113.008 17.4168 113.023 17.4736C113.031 17.5005 113.035 17.5231 113.037 17.5399C113.039 17.5567 113.039 17.5652 113.039 17.564H107.039C107.039 19.8027 108.249 21.3013 109.492 22.1844C110.585 22.9616 111.882 23.3881 112.492 23.6042L114.494 17.9478ZM113.039 17.564C113.039 17.5636 113.039 17.5826 113.031 17.6155C113.023 17.6486 113.01 17.6847 112.991 17.7196C112.952 17.7936 112.916 17.8152 112.937 17.7997C113.001 17.753 113.295 17.594 113.889 17.594V11.594C112.327 11.594 110.697 11.996 109.374 12.9723C107.98 14.0012 107.039 15.6094 107.039 17.564H113.039ZM113.889 17.594C113.936 17.594 114.04 17.6023 114.174 17.6383C114.306 17.6736 114.428 17.7248 114.526 17.7831C114.622 17.8404 114.676 17.8927 114.705 17.927C114.728 17.9553 114.746 17.9862 114.762 18.0404L120.541 16.4276C119.51 12.7345 115.926 11.594 113.889 11.594V17.594ZM116.636 14.4109L114.678 15.1149L116.708 20.7611L118.666 20.0571L116.636 14.4109ZM118.565 17.071C118.162 15.7354 117.325 14.77 116.299 14.2033C115.362 13.6862 114.446 13.596 113.889 13.596V19.596C113.838 19.596 113.648 19.5938 113.399 19.4562C113.26 19.3791 113.119 19.2678 113.002 19.124C112.886 18.98 112.837 18.8567 112.821 18.805L118.565 17.071ZM113.889 13.596C113.076 13.596 112.076 13.7525 111.175 14.3252C110.17 14.9638 109.371 16.1004 109.371 17.564H115.371C115.371 17.9353 115.273 18.3305 115.061 18.6891C114.855 19.0366 114.598 19.2591 114.393 19.3893C114.019 19.6265 113.778 19.596 113.889 19.596V13.596ZM109.371 17.564C109.371 19.6118 110.902 20.6188 111.534 20.9612C112.168 21.3045 112.997 21.572 113.397 21.713L115.394 16.055C115.067 15.9397 114.865 15.8716 114.658 15.794C114.565 15.7594 114.498 15.7326 114.449 15.7115C114.4 15.6901 114.384 15.6811 114.391 15.6848C114.396 15.6879 114.446 15.715 114.521 15.7709C114.595 15.8268 114.715 15.9278 114.844 16.0839C114.976 16.2446 115.116 16.4612 115.219 16.7347C115.324 17.012 115.371 17.2954 115.371 17.564H109.371ZM113.397 21.713C113.791 21.852 114.099 21.9611 114.389 22.0851C114.675 22.2076 114.85 22.3068 114.951 22.3791C115.047 22.4472 115.012 22.4454 114.956 22.3499C114.927 22.3011 114.902 22.2446 114.887 22.1871C114.872 22.1301 114.871 22.0959 114.871 22.096H120.871C120.871 19.8788 119.683 18.3845 118.437 17.4954C117.345 16.716 116.044 16.2846 115.394 16.055L113.397 21.713ZM114.871 22.096C114.871 22.1211 114.868 22.0893 114.895 22.0369C114.92 21.9879 114.94 21.9819 114.906 22.0075C114.822 22.0713 114.475 22.264 113.735 22.264V28.264C115.437 28.264 117.159 27.8297 118.532 26.788C119.972 25.6957 120.871 24.0364 120.871 22.096H114.871ZM113.735 22.264C113.236 22.264 112.555 21.8719 112.304 21.349L106.894 23.943C108.183 26.6321 111.023 28.264 113.735 28.264V22.264ZM111.101 25.243L112.927 24.187L109.923 18.993L108.097 20.049L111.101 25.243Z" fill="#996500" mask="url(#path-3-outside-1_1960_5548)"/>
</svg>
