<svg width="245" height="44" viewBox="0 0 245 44" fill="none" xmlns="http://www.w3.org/2000/svg">
<g clip-path="url(#clip0_4959_11999)">
<rect y="3" width="225" height="36" rx="18" fill="#004147"/>
<path d="M25.52 12.148V9.868H28.712V12.148H32.936V14.668H28.712C28.744 15.82 29.168 16.868 29.984 17.812C30.816 18.756 32.04 19.436 33.656 19.852L32.216 22.324C31.048 22.02 30.04 21.556 29.192 20.932C28.36 20.308 27.696 19.564 27.2 18.7C26.704 19.692 26.024 20.54 25.16 21.244C24.296 21.948 23.256 22.476 22.04 22.828L20.552 20.356C22.184 19.908 23.408 19.164 24.224 18.124C25.056 17.084 25.488 15.932 25.52 14.668H21.32V12.148H25.52ZM23.336 27.436C23.336 26.156 23.992 25.156 25.304 24.436C26.616 23.7 28.408 23.332 30.68 23.332C32.936 23.332 34.712 23.7 36.008 24.436C37.32 25.156 37.976 26.156 37.976 27.436C37.976 28.732 37.328 29.74 36.032 30.46C34.736 31.18 32.952 31.54 30.68 31.54C28.408 31.54 26.616 31.18 25.304 30.46C23.992 29.74 23.336 28.732 23.336 27.436ZM26.528 27.436C26.528 28.572 27.912 29.14 30.68 29.14C33.448 29.14 34.832 28.572 34.832 27.436C34.832 26.316 33.448 25.756 30.68 25.756C27.912 25.756 26.528 26.316 26.528 27.436ZM34.52 9.964H37.712V14.98H40.568V17.596H37.712V22.948H34.52V9.964ZM48.6086 11.356C49.7286 11.356 50.7366 11.588 51.6326 12.052C52.5446 12.5 53.2566 13.132 53.7686 13.948C54.2966 14.764 54.5606 15.684 54.5606 16.708C54.5606 17.732 54.2966 18.652 53.7686 19.468C53.2566 20.284 52.5446 20.924 51.6326 21.388C50.7366 21.836 49.7286 22.06 48.6086 22.06C47.4886 22.06 46.4726 21.836 45.5606 21.388C44.6486 20.924 43.9286 20.284 43.4006 19.468C42.8886 18.652 42.6326 17.732 42.6326 16.708C42.6326 15.684 42.8886 14.764 43.4006 13.948C43.9286 13.132 44.6486 12.5 45.5606 12.052C46.4726 11.588 47.4886 11.356 48.6086 11.356ZM41.7686 24.652C44.4246 24.652 46.8566 24.612 49.0646 24.532C51.2726 24.452 53.3686 24.26 55.3526 23.956L55.5926 26.26C53.5286 26.66 51.3926 26.924 49.1846 27.052C46.9766 27.18 44.6246 27.244 42.1286 27.244L41.7686 24.652ZM45.7526 16.708C45.7526 17.508 46.0166 18.148 46.5446 18.628C47.0886 19.092 47.7766 19.324 48.6086 19.324C49.4406 19.324 50.1206 19.092 50.6486 18.628C51.1766 18.164 51.4406 17.524 51.4406 16.708C51.4406 15.892 51.1766 15.252 50.6486 14.788C50.1206 14.324 49.4406 14.092 48.6086 14.092C47.7766 14.092 47.0886 14.324 46.5446 14.788C46.0166 15.252 45.7526 15.892 45.7526 16.708ZM56.5286 9.916H59.7206V31.588H56.5286V9.916ZM76.3404 29.98C74.9004 29.98 73.6524 29.668 72.5964 29.044C71.5404 28.42 70.7324 27.556 70.1724 26.452C69.6124 25.348 69.3324 24.076 69.3324 22.636V11.86H72.4284V22.612C72.4284 24.004 72.7564 25.1 73.4124 25.9C74.0684 26.7 75.0444 27.1 76.3404 27.1C77.6364 27.1 78.6124 26.7 79.2684 25.9C79.9404 25.1 80.2764 24.004 80.2764 22.612V11.86H83.3724V22.636C83.3724 24.076 83.0924 25.348 82.5324 26.452C81.9724 27.556 81.1564 28.42 80.0844 29.044C79.0284 29.668 77.7804 29.98 76.3404 29.98ZM93.7254 20.836C94.6054 20.836 95.3254 20.54 95.8854 19.948C96.4614 19.356 96.7494 18.596 96.7494 17.668C96.7494 16.756 96.4614 16.004 95.8854 15.412C95.3254 14.82 94.5974 14.524 93.7014 14.524H90.0054V20.836H93.7254ZM86.9094 11.86H93.8214C94.9894 11.86 96.0294 12.108 96.9414 12.604C97.8534 13.1 98.5654 13.788 99.0774 14.668C99.5894 15.548 99.8454 16.548 99.8454 17.668C99.8454 18.804 99.5894 19.812 99.0774 20.692C98.5654 21.572 97.8534 22.26 96.9414 22.756C96.0294 23.252 94.9894 23.5 93.8214 23.5H90.0054V29.812H86.9094V11.86ZM126.928 26.452V29.068H107.368V26.452H126.928ZM108.856 11.764H125.344V14.332H122.44V20.716H125.272V23.26H108.976V20.716H111.76V14.332H108.856V11.764ZM119.272 20.716V14.332H114.952V20.716H119.272ZM136.505 26.596V23.428H130.577V16.06H142.553V13.828H130.553V11.308H145.721V18.556H133.745V20.884H146.201V23.428H139.697V26.596H147.905V29.164H128.345V26.596H136.505ZM160.458 15.268V10.348H163.434V23.02H160.458V17.836H158.226V15.268H160.458ZM148.962 20.524C150.338 19.98 151.354 19.18 152.01 18.124C152.682 17.052 153.018 15.868 153.018 14.572V14.02H149.682V11.452H159.21V14.02H156.114V14.548C156.114 15.796 156.418 16.916 157.026 17.908C157.65 18.9 158.61 19.644 159.906 20.14L158.346 22.588C156.65 21.964 155.402 20.828 154.602 19.18C153.77 21.004 152.434 22.268 150.594 22.972L148.962 20.524ZM152.826 23.884H167.73V31.564H164.514V26.428H152.826V23.884ZM164.682 9.964H167.73V23.092H164.682V9.964ZM187.626 11.476V14.02H175.818V16.228H187.122V18.7H175.818V21.004H187.794V23.524H172.578V11.476H187.626ZM170.298 26.5H189.858V29.092H170.298V26.5Z" fill="white"/>
<path d="M81.7656 8L85.5313 11.8569H81.7656H78L81.7656 8Z" fill="white"/>
<rect x="80.2803" y="11.4375" width="3.08" height="3.66096" fill="white"/>
<rect x="69" y="9" width="4" height="4" fill="#004147"/>
<path d="M207.582 12.7415C206.501 16.2142 208.383 19.3051 211.626 20.2688C214.85 21.2324 218.167 19.7597 219.285 16.2142C220.608 11.996 219.062 7.77786 215.819 6.8324C212.595 5.86876 208.905 8.52331 207.582 12.7415Z" fill="white"/>
<mask id="mask0_4959_11999" style="mask-type:luminance" maskUnits="userSpaceOnUse" x="207" y="6" width="13" height="15">
<path d="M207.582 12.7419C206.501 16.2146 208.383 19.3055 211.626 20.2692C214.85 21.2328 218.186 19.7601 219.285 16.2146C220.608 11.9964 219.062 7.77825 215.819 6.8328C215.372 6.70553 214.924 6.63281 214.458 6.63281C211.607 6.63281 208.718 9.10553 207.582 12.7419Z" fill="white"/>
</mask>
<g mask="url(#mask0_4959_11999)">
<path d="M214.57 11.4689C213.452 11.1598 212.837 9.86888 213.21 8.59615C213.582 7.32342 214.794 6.54161 215.912 6.8507C217.03 7.15979 217.645 8.4507 217.254 9.72343C216.881 10.9962 215.67 11.778 214.551 11.4689" fill="#231815"/>
</g>
<path d="M207.582 12.7415C206.501 16.2142 208.383 19.3051 211.626 20.2688C214.85 21.2324 218.167 19.7597 219.285 16.2142C220.608 11.996 219.062 7.77786 215.819 6.8324C212.595 5.86876 208.905 8.52331 207.582 12.7415Z" stroke="#004147" stroke-width="2" stroke-miterlimit="10"/>
<path d="M193.306 12.7415C192.225 16.2142 194.108 19.3051 197.35 20.2688C200.574 21.2324 203.892 19.7597 205.01 16.2142C206.333 11.996 204.786 7.77786 201.544 6.8324C198.319 5.86876 194.629 8.52331 193.306 12.7415Z" fill="white"/>
<mask id="mask1_4959_11999" style="mask-type:luminance" maskUnits="userSpaceOnUse" x="193" y="6" width="13" height="15">
<path d="M193.308 12.7419C192.228 16.2146 194.128 19.3055 197.353 20.2692C200.577 21.2328 203.894 19.7601 205.012 16.2146C206.335 11.9964 204.788 7.77825 201.546 6.8328C201.098 6.70553 200.651 6.63281 200.185 6.63281C197.334 6.63281 194.445 9.10553 193.308 12.7419Z" fill="white"/>
</mask>
<g mask="url(#mask1_4959_11999)">
<path d="M200.298 11.4689C199.179 11.1598 198.564 9.86888 198.937 8.59615C199.31 7.32342 200.521 6.54161 201.639 6.8507C202.758 7.15979 203.373 8.4507 202.981 9.72343C202.608 10.9962 201.397 11.778 200.279 11.4689" fill="#231815"/>
</g>
<path d="M193.306 12.7415C192.225 16.2142 194.108 19.3051 197.35 20.2688C200.574 21.2324 203.892 19.7597 205.01 16.2142C206.333 11.996 204.786 7.77786 201.544 6.8324C198.319 5.86876 194.629 8.52331 193.306 12.7415Z" stroke="#004147" stroke-width="2" stroke-miterlimit="10"/>
<path d="M207.582 12.7415C206.501 16.2142 208.383 19.3051 211.626 20.2688C214.85 21.2324 218.167 19.7597 219.285 16.2142C220.608 11.996 219.062 7.77786 215.819 6.8324C212.595 5.86876 208.905 8.52331 207.582 12.7415Z" fill="white"/>
<mask id="mask2_4959_11999" style="mask-type:luminance" maskUnits="userSpaceOnUse" x="207" y="6" width="13" height="15">
<path d="M207.582 12.7419C206.501 16.2146 208.383 19.3055 211.626 20.2692C214.85 21.2328 218.186 19.7601 219.285 16.2146C220.608 11.9964 219.062 7.77825 215.819 6.8328C215.372 6.70553 214.924 6.63281 214.458 6.63281C211.607 6.63281 208.718 9.10553 207.582 12.7419Z" fill="white"/>
</mask>
<g mask="url(#mask2_4959_11999)">
<path d="M214.57 11.4689C213.452 11.1598 212.837 9.86888 213.21 8.59615C213.582 7.32342 214.794 6.54161 215.912 6.8507C217.03 7.15979 217.645 8.4507 217.254 9.72343C216.881 10.9962 215.67 11.778 214.551 11.4689" fill="#231815"/>
</g>
<path d="M207.582 12.7415C206.501 16.2142 208.383 19.3051 211.626 20.2688C214.85 21.2324 218.167 19.7597 219.285 16.2142C220.608 11.996 219.062 7.77786 215.819 6.8324C212.595 5.86876 208.905 8.52331 207.582 12.7415Z" stroke="#231815" stroke-miterlimit="10"/>
<path d="M193.306 12.7415C192.225 16.2142 194.108 19.3051 197.35 20.2688C200.574 21.2324 203.892 19.7597 205.01 16.2142C206.333 11.996 204.786 7.77786 201.544 6.8324C198.319 5.86876 194.629 8.52331 193.306 12.7415Z" fill="white"/>
<mask id="mask3_4959_11999" style="mask-type:luminance" maskUnits="userSpaceOnUse" x="193" y="6" width="13" height="15">
<path d="M193.308 12.7419C192.228 16.2146 194.128 19.3055 197.353 20.2692C200.577 21.2328 203.894 19.7601 205.012 16.2146C206.335 11.9964 204.788 7.77825 201.546 6.8328C201.098 6.70553 200.651 6.63281 200.185 6.63281C197.334 6.63281 194.445 9.10553 193.308 12.7419Z" fill="white"/>
</mask>
<g mask="url(#mask3_4959_11999)">
<path d="M200.298 11.4689C199.179 11.1598 198.564 9.86888 198.937 8.59615C199.31 7.32342 200.521 6.54161 201.639 6.8507C202.758 7.15979 203.373 8.4507 202.981 9.72343C202.608 10.9962 201.397 11.778 200.279 11.4689" fill="#231815"/>
</g>
<path d="M193.306 12.7415C192.225 16.2142 194.108 19.3051 197.35 20.2688C200.574 21.2324 203.892 19.7597 205.01 16.2142C206.333 11.996 204.786 7.77786 201.544 6.8324C198.319 5.86876 194.629 8.52331 193.306 12.7415Z" stroke="#231815" stroke-miterlimit="10"/>
<path d="M212.706 3.5599C212.706 3.5599 215.986 1.81445 218.632 4.48718" stroke="#231815" stroke-miterlimit="10" stroke-linecap="round"/>
<path d="M198.896 3.5599C198.896 3.5599 202.176 1.81445 204.823 4.48718" stroke="#231815" stroke-miterlimit="10" stroke-linecap="round"/>
<path d="M206.073 32.2327C209.39 32.2327 212.074 30.1418 212.074 27.5599C212.074 24.9781 209.39 22.8872 206.073 22.8872C202.756 22.8872 200.072 24.9781 200.072 27.5599C200.072 30.1418 202.756 32.2327 206.073 32.2327Z" fill="#231815"/>
<mask id="mask4_4959_11999" style="mask-type:luminance" maskUnits="userSpaceOnUse" x="200" y="22" width="13" height="11">
<path d="M200.054 27.5599C200.054 30.1418 202.737 32.2327 206.055 32.2327C209.372 32.2327 212.056 30.1418 212.056 27.5599C212.056 24.9781 209.372 22.8872 206.055 22.8872C202.737 22.8872 200.054 24.9781 200.054 27.5599Z" fill="white"/>
</mask>
<g mask="url(#mask4_4959_11999)">
<path d="M210.788 20.9053C210.937 20.9962 210.918 24.778 208.179 25.3416C205.439 25.9234 196.512 25.6507 192.971 22.4143C189.431 19.178 210.788 20.9053 210.788 20.9053Z" fill="white"/>
<path d="M212.018 34.669C212.018 34.669 212.521 28.3235 205.682 27.669C198.842 26.9962 193.885 32.1962 193.885 32.1962C193.885 32.1962 205.514 38.578 212.037 34.669" fill="#EB6168"/>
</g>
</g>
<path d="M227.169 24.4805L231.805 27.3961C231.938 27.4813 231.977 27.6561 231.891 27.7892L230.873 29.4091C230.788 29.5422 230.613 29.5806 230.48 29.4953L229.928 29.1494C229.252 29.9068 228.111 30.0929 227.211 29.535C226.32 28.9797 225.993 27.8655 226.386 26.9231L225.834 26.5772C225.701 26.492 225.662 26.3173 225.748 26.1841L226.766 24.5643C226.851 24.4311 227.026 24.3928 227.159 24.478" fill="#004147"/>
<path d="M237.99 12.4464C237.661 12.2393 237.565 11.8025 237.772 11.4732L238.702 9.99623C238.909 9.66693 239.349 9.5614 239.678 9.76844C240.007 9.97548 240.103 10.4123 239.896 10.7416L238.966 12.2186C238.759 12.5479 238.322 12.6437 237.992 12.4367" fill="#004147"/>
<path d="M241.54 15.5308C241.314 15.6491 241.04 15.6314 240.834 15.5071C240.738 15.4414 240.646 15.3562 240.583 15.2372C240.402 14.8923 240.532 14.461 240.876 14.28L242.424 13.4644C242.768 13.2834 243.2 13.4131 243.381 13.758C243.562 14.1029 243.432 14.5343 243.087 14.7152L241.54 15.5308Z" fill="#004147"/>
<path d="M242.158 18.276L243.904 18.3462C244.292 18.3618 244.602 18.6877 244.586 19.0757C244.571 19.4637 244.245 19.7733 243.857 19.7577L242.111 19.6875C241.977 19.6847 241.863 19.6456 241.757 19.5774C241.554 19.4434 241.416 19.2127 241.431 18.9483C241.447 18.5603 241.773 18.2507 242.161 18.2663" fill="#004147"/>
<path d="M229.93 12.131C229.833 12.0653 229.741 11.9802 229.678 11.8611L228.863 10.314C228.682 9.9691 228.812 9.53773 229.156 9.35676C229.501 9.17579 229.933 9.30549 230.114 9.65038L230.929 11.1975C231.11 11.5424 230.981 11.9738 230.636 12.1548C230.41 12.273 230.136 12.2553 229.93 12.131Z" fill="#004147"/>
<path d="M234.343 11.3182C234.21 11.3155 234.096 11.2763 233.99 11.2081C233.786 11.0742 233.649 10.8434 233.664 10.5791L233.734 8.83303C233.75 8.44501 234.075 8.13544 234.463 8.15104C234.851 8.16664 235.161 8.49247 235.145 8.88048L235.075 10.6266C235.06 11.0146 234.734 11.3241 234.346 11.3085" fill="#004147"/>
<path d="M230.346 17.4658C230.243 17.7905 230.375 18.1232 230.642 18.2936C230.685 18.3253 230.741 18.3497 230.799 18.3644C231.17 18.4891 231.583 18.2841 231.707 17.9133C232.028 16.9319 232.759 16.5288 233.169 16.3747C233.878 16.1001 234.659 16.1532 235.291 16.509C235.635 16.6991 236.077 16.5838 236.267 16.24C236.457 15.8961 236.349 15.4665 235.998 15.2642C234.988 14.6891 233.771 14.6082 232.651 15.0369C232.01 15.2875 230.859 15.9247 230.346 17.4658ZM237.026 13.4407C238.741 14.4106 239.857 16.1162 240.06 18.1274C240.171 19.1973 239.969 20.2809 239.508 21.2474C238.796 22.7176 237.592 23.8058 236.087 24.3329C234.988 24.7253 234.091 25.2104 233.362 25.8099L233.066 26.0444C232.922 26.1628 232.723 26.1744 232.573 26.0746L228.036 23.215C227.886 23.1151 227.808 22.9306 227.853 22.7561L227.946 22.3877C228.164 21.4836 228.218 20.4966 228.107 19.3855C228.019 18.5073 228.09 17.6174 228.361 16.7886C229.591 13.0666 233.876 11.6229 237.041 13.4238" fill="#004147"/>
<defs>
<clipPath id="clip0_4959_11999">
<rect y="3" width="225" height="36" rx="18" fill="white"/>
</clipPath>
</defs>
</svg>
