<svg width="118" height="38" viewBox="0 0 118 38" fill="none" xmlns="http://www.w3.org/2000/svg">
<path d="M10.9292 24.1403C10.1543 23.8932 9.51244 23.3386 9.14481 22.5985C8.77719 21.8583 8.71391 20.9933 8.96889 20.1937C9.22387 19.3941 9.77623 18.7255 10.5045 18.3348C11.2327 17.9441 12.0771 17.8635 12.852 18.1106C13.6269 18.3577 14.2687 18.9123 14.6364 19.6524C15.004 20.3925 15.0673 21.2575 14.8123 22.0571C14.5573 22.8567 14.0049 23.5254 13.2767 23.9161C12.5485 24.3068 11.7041 24.3874 10.9292 24.1403ZM17.8265 23.9389C17.9478 23.6739 18.0607 23.4062 18.1514 23.1219C18.242 22.8377 18.3076 22.5454 18.3676 22.2419L20.5767 21.3995C20.7765 21.3209 20.8924 21.1016 20.8527 20.8802L20.1336 17.3674C20.0938 17.1459 19.8932 16.9965 19.6848 17.0155L17.3315 17.214C17.0046 16.7397 16.6472 16.303 16.19 15.92L16.609 13.5388C16.6244 13.4319 16.6025 13.3236 16.5473 13.233C16.492 13.1425 16.4069 13.0755 16.307 13.0439L12.9679 11.9791C12.7592 11.9126 12.5345 12.0117 12.4352 12.2078L11.3984 14.392C10.8038 14.4396 10.2596 14.5888 9.71843 14.7863L7.91454 13.2621C7.75562 13.126 7.50551 13.1316 7.3449 13.2892L4.72494 15.7372C4.55599 15.8921 4.53191 16.1407 4.64931 16.3204L5.96293 18.2862C5.83615 18.5684 5.72046 18.8447 5.62981 19.1289C5.53916 19.4132 5.47631 19.6968 5.4218 19.9831L3.20445 20.8514C3.00464 20.93 2.88039 21.1466 2.92847 21.3707L3.64759 24.8835C3.68733 25.105 3.89074 25.2458 4.09637 25.2354L6.45238 25.0282C6.77659 25.5112 7.13397 25.9478 7.5912 26.3309L7.17214 28.7121C7.1396 28.9295 7.26546 29.1404 7.47415 29.207L10.8132 30.2718C11.0219 30.3383 11.2467 30.2392 11.346 30.0431L12.3828 27.8589C12.9801 27.8026 13.5215 27.6621 14.0655 27.456L15.8666 28.9888C16.0283 29.1163 16.2757 29.1193 16.4363 28.9617L19.0562 26.5137C19.2168 26.3561 19.2493 26.1102 19.1319 25.9304L17.8265 23.9389Z" fill="#007067"/>
<path d="M19.3951 10.6953C19.461 10.1389 19.7392 9.62816 20.1685 9.2754C20.5978 8.92265 21.143 8.75679 21.6842 8.81432C22.2255 8.87184 22.7183 9.14802 23.0544 9.58212C23.3905 10.0162 23.5423 10.5727 23.4764 11.1291C23.4105 11.6854 23.1322 12.1962 22.7029 12.5489C22.2736 12.9017 21.7284 13.0675 21.1872 13.01C20.646 12.9525 20.1531 12.6763 19.817 12.2422C19.4809 11.8081 19.3291 11.2517 19.3951 10.6953ZM20.3426 15.3055C20.5263 15.3493 20.7107 15.3871 20.9032 15.4076C21.0956 15.428 21.2901 15.4305 21.4912 15.4276L22.2917 16.7933C22.3657 16.9165 22.5195 16.9632 22.6563 16.9049L24.8157 15.9205C24.9525 15.8622 25.0241 15.706 24.9873 15.5685L24.581 14.0141C24.8453 13.7266 25.0819 13.424 25.2724 13.0618L26.8438 13.0043C26.9139 12.9994 26.9805 12.9692 27.0318 12.9191C27.0831 12.8691 27.1159 12.8023 27.1242 12.7306L27.4082 10.3331C27.4259 10.1832 27.3359 10.0462 27.1988 10.0073L25.68 9.62135C25.579 9.22825 25.4191 8.88351 25.2286 8.54766L25.9885 7.11716C26.0566 6.99087 26.0233 6.82346 25.9035 6.7379L24.0282 5.32472C23.9092 5.23317 23.7475 5.2524 23.6465 5.35699L22.5463 6.52069C22.351 6.47565 22.1607 6.43722 21.9683 6.41677C21.7759 6.39632 21.5872 6.39447 21.3977 6.39862L20.5797 5.03105C20.5058 4.90787 20.3526 4.85518 20.2151 4.91946L18.0557 5.90384C17.9189 5.96213 17.8531 6.11901 17.8842 6.25583L18.2962 7.81089C18.0261 8.09778 17.7895 8.40038 17.599 8.76251L16.0277 8.82007C15.8849 8.82917 15.765 8.94389 15.7473 9.09374L15.4632 11.4913C15.4455 11.6411 15.5355 11.7782 15.6726 11.817L17.1914 12.203C17.2983 12.5967 17.4523 12.9408 17.6486 13.2773L16.8829 14.7072C16.8207 14.8341 16.8481 15.0009 16.9679 15.0864L18.8432 16.4996C18.963 16.5852 19.1239 16.5719 19.2249 16.4673L20.3426 15.3055Z" fill="#38A39A"/>
<mask id="path-3-outside-1_9954_40654" maskUnits="userSpaceOnUse" x="34" y="9" width="84" height="20" fill="black">
<rect fill="white" x="34" y="9" width="84" height="20"/>
<path d="M41.898 19.058C42.7047 19.058 43.3647 18.7867 43.878 18.244C44.406 17.7013 44.67 17.0047 44.67 16.154C44.67 15.318 44.406 14.6287 43.878 14.086C43.3647 13.5433 42.6973 13.272 41.876 13.272H38.488V19.058H41.898ZM35.65 10.83H41.986C43.0567 10.83 44.01 11.0573 44.846 11.512C45.682 11.9667 46.3347 12.5973 46.804 13.404C47.2733 14.2107 47.508 15.1273 47.508 16.154C47.508 17.1953 47.2733 18.1193 46.804 18.926C46.3347 19.7327 45.682 20.3633 44.846 20.818C44.01 21.2727 43.0567 21.5 41.986 21.5H38.488V27.286H35.65V10.83ZM49.7176 16.594H52.5336V18.134C52.8856 17.6353 53.3403 17.2467 53.8976 16.968C54.4696 16.6893 55.0196 16.5647 55.5476 16.594V19.146C54.9463 19.1167 54.4183 19.2487 53.9636 19.542C53.509 19.8207 53.157 20.1947 52.9076 20.664C52.6583 21.1333 52.5336 21.61 52.5336 22.094V27.308H49.7176V16.594ZM61.9441 27.374C60.9615 27.374 60.0961 27.1467 59.3481 26.692C58.6001 26.2227 58.0135 25.5847 57.5881 24.778C57.1775 23.9567 56.9721 23.0253 56.9721 21.984C56.9721 20.9427 57.1775 20.0187 57.5881 19.212C58.0135 18.3907 58.6001 17.7527 59.3481 17.298C60.0961 16.8433 60.9615 16.616 61.9441 16.616C62.4721 16.616 63.0001 16.7333 63.5281 16.968C64.0561 17.2027 64.5035 17.5547 64.8701 18.024V16.594H67.7081V27.308H64.8701V25.966C64.5035 26.45 64.0561 26.802 63.5281 27.022C63.0001 27.2567 62.4721 27.374 61.9441 27.374ZM59.8101 21.984C59.8101 22.9227 60.0301 23.6633 60.4701 24.206C60.9101 24.7487 61.5115 25.02 62.2741 25.02C62.9928 25.02 63.6015 24.734 64.1001 24.162C64.6135 23.5753 64.8775 22.8493 64.8921 21.984C64.8775 21.1187 64.6135 20.4 64.1001 19.828C63.6015 19.2413 62.9928 18.948 62.2741 18.948C61.5115 18.948 60.9101 19.2193 60.4701 19.762C60.0301 20.3047 59.8101 21.0453 59.8101 21.984ZM75.112 24.668C75.464 24.668 75.838 24.5727 76.234 24.382C76.63 24.1913 76.9673 23.9347 77.246 23.612L79.138 25.592C78.698 26.1053 78.0967 26.5307 77.334 26.868C76.586 27.1907 75.8673 27.352 75.178 27.352C74.1367 27.352 73.2053 27.1247 72.384 26.67C71.5627 26.2007 70.9173 25.5627 70.448 24.756C69.9933 23.9347 69.766 23.0033 69.766 21.962C69.766 20.9207 69.9933 19.9893 70.448 19.168C70.9173 18.3467 71.5627 17.7087 72.384 17.254C73.2053 16.7993 74.1367 16.572 75.178 16.572C75.9113 16.572 76.63 16.7333 77.334 17.056C78.038 17.364 78.6393 17.7893 79.138 18.332L77.246 20.29C76.9527 19.9673 76.608 19.718 76.212 19.542C75.8307 19.3513 75.464 19.256 75.112 19.256C74.3347 19.256 73.7187 19.498 73.264 19.982C72.824 20.466 72.604 21.126 72.604 21.962C72.604 22.798 72.824 23.458 73.264 23.942C73.7187 24.426 74.3347 24.668 75.112 24.668ZM82.4304 18.992H80.3404V16.55H82.4304V12.766H85.2684V16.55H87.7984V18.992H85.2684V27.308H82.4304V18.992ZM93.1259 16.572V27.286H90.2879V16.572H93.1259ZM90.1779 12.7C90.1779 12.26 90.3172 11.9007 90.5959 11.622C90.8892 11.3287 91.2632 11.182 91.7179 11.182C92.1579 11.182 92.5172 11.3287 92.7959 11.622C93.0892 11.9007 93.2359 12.26 93.2359 12.7C93.2359 13.1547 93.0892 13.5287 92.7959 13.822C92.5172 14.1007 92.1579 14.24 91.7179 14.24C91.2632 14.24 90.8892 14.1007 90.5959 13.822C90.3172 13.5287 90.1779 13.1547 90.1779 12.7ZM100.592 24.668C100.944 24.668 101.318 24.5727 101.714 24.382C102.11 24.1913 102.448 23.9347 102.726 23.612L104.618 25.592C104.178 26.1053 103.577 26.5307 102.814 26.868C102.066 27.1907 101.348 27.352 100.658 27.352C99.6171 27.352 98.6858 27.1247 97.8645 26.67C97.0431 26.2007 96.3978 25.5627 95.9285 24.756C95.4738 23.9347 95.2465 23.0033 95.2465 21.962C95.2465 20.9207 95.4738 19.9893 95.9285 19.168C96.3978 18.3467 97.0431 17.7087 97.8645 17.254C98.6858 16.7993 99.6171 16.572 100.658 16.572C101.392 16.572 102.11 16.7333 102.814 17.056C103.518 17.364 104.12 17.7893 104.618 18.332L102.726 20.29C102.433 19.9673 102.088 19.718 101.692 19.542C101.311 19.3513 100.944 19.256 100.592 19.256C99.8151 19.256 99.1991 19.498 98.7445 19.982C98.3045 20.466 98.0845 21.126 98.0845 21.962C98.0845 22.798 98.3045 23.458 98.7445 23.942C99.1991 24.426 99.8151 24.668 100.592 24.668ZM111.084 27.33C110.072 27.33 109.17 27.1027 108.378 26.648C107.601 26.1933 106.992 25.5627 106.552 24.756C106.112 23.9493 105.892 23.0253 105.892 21.984C105.892 20.9427 106.112 20.0113 106.552 19.19C106.992 18.3687 107.601 17.7307 108.378 17.276C109.17 16.8213 110.072 16.594 111.084 16.594C112.081 16.594 112.91 16.7993 113.57 17.21C114.23 17.6207 114.707 18.046 115 18.486C115.308 18.926 115.499 19.256 115.572 19.476C115.895 20.1507 116.056 21.038 116.056 22.138L116.034 22.996H108.598C108.73 23.5827 109.031 24.0593 109.5 24.426C109.984 24.7927 110.512 24.976 111.084 24.976C111.729 24.976 112.235 24.8587 112.602 24.624C112.983 24.3747 113.247 24.118 113.394 23.854L115.704 24.778C115.411 25.482 114.868 26.0833 114.076 26.582C113.284 27.0807 112.287 27.33 111.084 27.33ZM113.416 21.082C113.284 20.422 113.02 19.9013 112.624 19.52C112.243 19.1387 111.729 18.948 111.084 18.948C110.453 18.948 109.911 19.146 109.456 19.542C109.016 19.9233 108.73 20.4367 108.598 21.082H113.416Z"/>
</mask>
<path d="M41.898 19.058C42.7047 19.058 43.3647 18.7867 43.878 18.244C44.406 17.7013 44.67 17.0047 44.67 16.154C44.67 15.318 44.406 14.6287 43.878 14.086C43.3647 13.5433 42.6973 13.272 41.876 13.272H38.488V19.058H41.898ZM35.65 10.83H41.986C43.0567 10.83 44.01 11.0573 44.846 11.512C45.682 11.9667 46.3347 12.5973 46.804 13.404C47.2733 14.2107 47.508 15.1273 47.508 16.154C47.508 17.1953 47.2733 18.1193 46.804 18.926C46.3347 19.7327 45.682 20.3633 44.846 20.818C44.01 21.2727 43.0567 21.5 41.986 21.5H38.488V27.286H35.65V10.83ZM49.7176 16.594H52.5336V18.134C52.8856 17.6353 53.3403 17.2467 53.8976 16.968C54.4696 16.6893 55.0196 16.5647 55.5476 16.594V19.146C54.9463 19.1167 54.4183 19.2487 53.9636 19.542C53.509 19.8207 53.157 20.1947 52.9076 20.664C52.6583 21.1333 52.5336 21.61 52.5336 22.094V27.308H49.7176V16.594ZM61.9441 27.374C60.9615 27.374 60.0961 27.1467 59.3481 26.692C58.6001 26.2227 58.0135 25.5847 57.5881 24.778C57.1775 23.9567 56.9721 23.0253 56.9721 21.984C56.9721 20.9427 57.1775 20.0187 57.5881 19.212C58.0135 18.3907 58.6001 17.7527 59.3481 17.298C60.0961 16.8433 60.9615 16.616 61.9441 16.616C62.4721 16.616 63.0001 16.7333 63.5281 16.968C64.0561 17.2027 64.5035 17.5547 64.8701 18.024V16.594H67.7081V27.308H64.8701V25.966C64.5035 26.45 64.0561 26.802 63.5281 27.022C63.0001 27.2567 62.4721 27.374 61.9441 27.374ZM59.8101 21.984C59.8101 22.9227 60.0301 23.6633 60.4701 24.206C60.9101 24.7487 61.5115 25.02 62.2741 25.02C62.9928 25.02 63.6015 24.734 64.1001 24.162C64.6135 23.5753 64.8775 22.8493 64.8921 21.984C64.8775 21.1187 64.6135 20.4 64.1001 19.828C63.6015 19.2413 62.9928 18.948 62.2741 18.948C61.5115 18.948 60.9101 19.2193 60.4701 19.762C60.0301 20.3047 59.8101 21.0453 59.8101 21.984ZM75.112 24.668C75.464 24.668 75.838 24.5727 76.234 24.382C76.63 24.1913 76.9673 23.9347 77.246 23.612L79.138 25.592C78.698 26.1053 78.0967 26.5307 77.334 26.868C76.586 27.1907 75.8673 27.352 75.178 27.352C74.1367 27.352 73.2053 27.1247 72.384 26.67C71.5627 26.2007 70.9173 25.5627 70.448 24.756C69.9933 23.9347 69.766 23.0033 69.766 21.962C69.766 20.9207 69.9933 19.9893 70.448 19.168C70.9173 18.3467 71.5627 17.7087 72.384 17.254C73.2053 16.7993 74.1367 16.572 75.178 16.572C75.9113 16.572 76.63 16.7333 77.334 17.056C78.038 17.364 78.6393 17.7893 79.138 18.332L77.246 20.29C76.9527 19.9673 76.608 19.718 76.212 19.542C75.8307 19.3513 75.464 19.256 75.112 19.256C74.3347 19.256 73.7187 19.498 73.264 19.982C72.824 20.466 72.604 21.126 72.604 21.962C72.604 22.798 72.824 23.458 73.264 23.942C73.7187 24.426 74.3347 24.668 75.112 24.668ZM82.4304 18.992H80.3404V16.55H82.4304V12.766H85.2684V16.55H87.7984V18.992H85.2684V27.308H82.4304V18.992ZM93.1259 16.572V27.286H90.2879V16.572H93.1259ZM90.1779 12.7C90.1779 12.26 90.3172 11.9007 90.5959 11.622C90.8892 11.3287 91.2632 11.182 91.7179 11.182C92.1579 11.182 92.5172 11.3287 92.7959 11.622C93.0892 11.9007 93.2359 12.26 93.2359 12.7C93.2359 13.1547 93.0892 13.5287 92.7959 13.822C92.5172 14.1007 92.1579 14.24 91.7179 14.24C91.2632 14.24 90.8892 14.1007 90.5959 13.822C90.3172 13.5287 90.1779 13.1547 90.1779 12.7ZM100.592 24.668C100.944 24.668 101.318 24.5727 101.714 24.382C102.11 24.1913 102.448 23.9347 102.726 23.612L104.618 25.592C104.178 26.1053 103.577 26.5307 102.814 26.868C102.066 27.1907 101.348 27.352 100.658 27.352C99.6171 27.352 98.6858 27.1247 97.8645 26.67C97.0431 26.2007 96.3978 25.5627 95.9285 24.756C95.4738 23.9347 95.2465 23.0033 95.2465 21.962C95.2465 20.9207 95.4738 19.9893 95.9285 19.168C96.3978 18.3467 97.0431 17.7087 97.8645 17.254C98.6858 16.7993 99.6171 16.572 100.658 16.572C101.392 16.572 102.11 16.7333 102.814 17.056C103.518 17.364 104.12 17.7893 104.618 18.332L102.726 20.29C102.433 19.9673 102.088 19.718 101.692 19.542C101.311 19.3513 100.944 19.256 100.592 19.256C99.8151 19.256 99.1991 19.498 98.7445 19.982C98.3045 20.466 98.0845 21.126 98.0845 21.962C98.0845 22.798 98.3045 23.458 98.7445 23.942C99.1991 24.426 99.8151 24.668 100.592 24.668ZM111.084 27.33C110.072 27.33 109.17 27.1027 108.378 26.648C107.601 26.1933 106.992 25.5627 106.552 24.756C106.112 23.9493 105.892 23.0253 105.892 21.984C105.892 20.9427 106.112 20.0113 106.552 19.19C106.992 18.3687 107.601 17.7307 108.378 17.276C109.17 16.8213 110.072 16.594 111.084 16.594C112.081 16.594 112.91 16.7993 113.57 17.21C114.23 17.6207 114.707 18.046 115 18.486C115.308 18.926 115.499 19.256 115.572 19.476C115.895 20.1507 116.056 21.038 116.056 22.138L116.034 22.996H108.598C108.73 23.5827 109.031 24.0593 109.5 24.426C109.984 24.7927 110.512 24.976 111.084 24.976C111.729 24.976 112.235 24.8587 112.602 24.624C112.983 24.3747 113.247 24.118 113.394 23.854L115.704 24.778C115.411 25.482 114.868 26.0833 114.076 26.582C113.284 27.0807 112.287 27.33 111.084 27.33ZM113.416 21.082C113.284 20.422 113.02 19.9013 112.624 19.52C112.243 19.1387 111.729 18.948 111.084 18.948C110.453 18.948 109.911 19.146 109.456 19.542C109.016 19.9233 108.73 20.4367 108.598 21.082H113.416Z" fill="#385CAA"/>
<path d="M43.878 18.244L43.1612 17.5466L43.1515 17.5568L43.878 18.244ZM43.878 14.086L43.1515 14.7733L43.1613 14.7834L43.878 14.086ZM38.488 13.272V12.272C37.9357 12.272 37.488 12.7197 37.488 13.272H38.488ZM38.488 19.058H37.488C37.488 19.6103 37.9357 20.058 38.488 20.058V19.058ZM35.65 10.83V9.83C35.0977 9.83 34.65 10.2777 34.65 10.83H35.65ZM44.846 11.512L45.3238 10.6335L45.3238 10.6335L44.846 11.512ZM44.846 20.818L44.3682 19.9395L44.846 20.818ZM38.488 21.5V20.5C37.9357 20.5 37.488 20.9477 37.488 21.5H38.488ZM38.488 27.286V28.286C39.0403 28.286 39.488 27.8383 39.488 27.286H38.488ZM35.65 27.286H34.65C34.65 27.8383 35.0977 28.286 35.65 28.286V27.286ZM41.898 20.058C42.9551 20.058 43.8861 19.6906 44.6045 18.9312L43.1515 17.5568C42.8433 17.8827 42.4543 18.058 41.898 18.058V20.058ZM44.5947 18.9414C45.3274 18.1883 45.67 17.2302 45.67 16.154H43.67C43.67 16.7792 43.4846 17.2143 43.1613 17.5466L44.5947 18.9414ZM45.67 16.154C45.67 15.0872 45.324 14.1382 44.5947 13.3886L43.1613 14.7834C43.488 15.1191 43.67 15.5488 43.67 16.154H45.67ZM44.6045 13.3988C43.8824 12.6355 42.9419 12.272 41.876 12.272V14.272C42.4528 14.272 42.847 14.4512 43.1515 14.7732L44.6045 13.3988ZM41.876 12.272H38.488V14.272H41.876V12.272ZM37.488 13.272V19.058H39.488V13.272H37.488ZM38.488 20.058H41.898V18.058H38.488V20.058ZM35.65 11.83H41.986V9.83H35.65V11.83ZM41.986 11.83C42.911 11.83 43.6964 12.0251 44.3682 12.3905L45.3238 10.6335C44.3236 10.0896 43.2024 9.83 41.986 9.83V11.83ZM44.3682 12.3905C45.0468 12.7595 45.5643 13.2617 45.9397 13.9069L47.6683 12.9011C47.1051 11.933 46.3172 11.1738 45.3238 10.6335L44.3682 12.3905ZM45.9397 13.9069C46.3114 14.5459 46.508 15.2858 46.508 16.154H48.508C48.508 14.9688 48.2352 13.8755 47.6683 12.9011L45.9397 13.9069ZM46.508 16.154C46.508 17.0396 46.3102 17.7863 45.9397 18.4231L47.6683 19.4289C48.2365 18.4524 48.508 17.3511 48.508 16.154H46.508ZM45.9397 18.4231C45.5643 19.0683 45.0468 19.5705 44.3682 19.9395L45.3238 21.6965C46.3172 21.1562 47.1051 20.397 47.6683 19.4289L45.9397 18.4231ZM44.3682 19.9395C43.6964 20.3049 42.911 20.5 41.986 20.5V22.5C43.2024 22.5 44.3236 22.2404 45.3238 21.6965L44.3682 19.9395ZM41.986 20.5H38.488V22.5H41.986V20.5ZM37.488 21.5V27.286H39.488V21.5H37.488ZM38.488 26.286H35.65V28.286H38.488V26.286ZM36.65 27.286V10.83H34.65V27.286H36.65ZM49.7176 16.594V15.594C49.1653 15.594 48.7176 16.0417 48.7176 16.594H49.7176ZM52.5336 16.594H53.5336C53.5336 16.0417 53.0859 15.594 52.5336 15.594V16.594ZM52.5336 18.134H51.5336C51.5336 18.5697 51.8158 18.9553 52.2311 19.0871C52.6464 19.219 53.0993 19.0667 53.3506 18.7107L52.5336 18.134ZM53.8976 16.968L53.4596 16.069L53.4504 16.0736L53.8976 16.968ZM55.5476 16.594H56.5476C56.5476 16.0633 56.133 15.625 55.6031 15.5955L55.5476 16.594ZM55.5476 19.146L55.4989 20.1448C55.7722 20.1581 56.0391 20.0589 56.2373 19.8701C56.4355 19.6814 56.5476 19.4197 56.5476 19.146H55.5476ZM53.9636 19.542L54.4862 20.3946C54.4928 20.3906 54.4993 20.3865 54.5058 20.3823L53.9636 19.542ZM52.5336 27.308V28.308C53.0859 28.308 53.5336 27.8603 53.5336 27.308H52.5336ZM49.7176 27.308H48.7176C48.7176 27.8603 49.1653 28.308 49.7176 28.308V27.308ZM49.7176 17.594H52.5336V15.594H49.7176V17.594ZM51.5336 16.594V18.134H53.5336V16.594H51.5336ZM53.3506 18.7107C53.6054 18.3497 53.9319 18.0689 54.3448 17.8624L53.4504 16.0736C52.7487 16.4244 52.1659 16.921 51.7167 17.5573L53.3506 18.7107ZM54.3356 17.867C54.7854 17.6479 55.1659 17.5743 55.4922 17.5925L55.6031 15.5955C54.8734 15.555 54.1539 15.7308 53.4597 16.069L54.3356 17.867ZM54.5476 16.594V19.146H56.5476V16.594H54.5476ZM55.5963 18.1472C54.8109 18.1089 54.0713 18.2824 53.4215 18.7017L54.5058 20.3823C54.7652 20.2149 55.0816 20.1245 55.4989 20.1448L55.5963 18.1472ZM53.4411 18.6894C52.8347 19.0611 52.3579 19.5672 52.0245 20.1948L53.7907 21.1332C53.956 20.8221 54.1832 20.5803 54.4862 20.3946L53.4411 18.6894ZM52.0245 20.1948C51.7061 20.7942 51.5336 21.4308 51.5336 22.094H53.5336C53.5336 21.7892 53.6105 21.4725 53.7907 21.1332L52.0245 20.1948ZM51.5336 22.094V27.308H53.5336V22.094H51.5336ZM52.5336 26.308H49.7176V28.308H52.5336V26.308ZM50.7176 27.308V16.594H48.7176V27.308H50.7176ZM59.3481 26.692L58.8166 27.5391C58.8206 27.5416 58.8247 27.5441 58.8287 27.5465L59.3481 26.692ZM57.5881 24.778L56.6937 25.2252C56.6969 25.2316 56.7002 25.238 56.7036 25.2444L57.5881 24.778ZM57.5881 19.212L56.7001 18.7521L56.697 18.7583L57.5881 19.212ZM59.3481 17.298L59.8675 18.1525V18.1525L59.3481 17.298ZM63.5281 16.968L63.9343 16.0542H63.9343L63.5281 16.968ZM64.8701 18.024L64.0821 18.6396C64.3449 18.976 64.7921 19.1085 65.1957 18.9695C65.5992 18.8306 65.8701 18.4508 65.8701 18.024H64.8701ZM64.8701 16.594V15.594C64.3178 15.594 63.8701 16.0417 63.8701 16.594H64.8701ZM67.7081 16.594H68.7081C68.7081 16.0417 68.2604 15.594 67.7081 15.594V16.594ZM67.7081 27.308V28.308C68.2604 28.308 68.7081 27.8603 68.7081 27.308H67.7081ZM64.8701 27.308H63.8701C63.8701 27.8603 64.3178 28.308 64.8701 28.308V27.308ZM64.8701 25.966H65.8701C65.8701 25.5365 65.5958 25.1549 65.1886 25.0181C64.7815 24.8813 64.3324 25.0198 64.073 25.3621L64.8701 25.966ZM63.5281 27.022L63.1435 26.0989C63.1363 26.1019 63.1291 26.105 63.122 26.1082L63.5281 27.022ZM64.1001 24.162L63.3475 23.5035L63.3464 23.5049L64.1001 24.162ZM64.8921 21.984L65.892 22.0009C65.8922 21.9896 65.8922 21.9783 65.892 21.9671L64.8921 21.984ZM64.1001 19.828L63.3382 20.4756C63.344 20.4825 63.3499 20.4892 63.3559 20.4959L64.1001 19.828ZM61.9441 26.374C61.1216 26.374 60.4404 26.1857 59.8675 25.8375L58.8287 27.5465C59.7518 28.1076 60.8013 28.374 61.9441 28.374V26.374ZM59.8796 25.8449C59.2858 25.4723 58.8187 24.9678 58.4727 24.3116L56.7036 25.2444C57.2082 26.2015 57.9145 26.973 58.8166 27.5391L59.8796 25.8449ZM58.4826 24.3308C58.1501 23.6659 57.9721 22.891 57.9721 21.984H55.9721C55.9721 23.1596 56.2048 24.2474 56.6937 25.2252L58.4826 24.3308ZM57.9721 21.984C57.9721 21.0766 58.1502 20.312 58.4793 19.6657L56.697 18.7583C56.2047 19.7253 55.9721 20.8088 55.9721 21.984H57.9721ZM58.4761 19.6719C58.8221 19.0038 59.2853 18.5064 59.8675 18.1525L58.8287 16.4435C57.915 16.9989 57.2048 17.7776 56.7001 18.7521L58.4761 19.6719ZM59.8675 18.1525C60.4404 17.8043 61.1216 17.616 61.9441 17.616V15.616C60.8013 15.616 59.7518 15.8824 58.8287 16.4435L59.8675 18.1525ZM61.9441 17.616C62.3195 17.616 62.7097 17.6986 63.122 17.8818L63.9343 16.0542C63.2906 15.7681 62.6248 15.616 61.9441 15.616V17.616ZM63.122 17.8818C63.4955 18.0478 63.8131 18.2954 64.0821 18.6396L65.6581 17.4084C65.1938 16.814 64.6168 16.3575 63.9343 16.0542L63.122 17.8818ZM65.8701 18.024V16.594H63.8701V18.024H65.8701ZM64.8701 17.594H67.7081V15.594H64.8701V17.594ZM66.7081 16.594V27.308H68.7081V16.594H66.7081ZM67.7081 26.308H64.8701V28.308H67.7081V26.308ZM65.8701 27.308V25.966H63.8701V27.308H65.8701ZM64.073 25.3621C63.8064 25.7141 63.4981 25.9512 63.1435 26.0989L63.9127 27.9451C64.6142 27.6528 65.2005 27.1859 65.6672 26.5699L64.073 25.3621ZM63.122 26.1082C62.7097 26.2914 62.3195 26.374 61.9441 26.374V28.374C62.6248 28.374 63.2906 28.2219 63.9343 27.9358L63.122 26.1082ZM58.8101 21.984C58.8101 23.0732 59.0661 24.0622 59.6934 24.8358L61.2469 23.5762C60.9942 23.2645 60.8101 22.7721 60.8101 21.984H58.8101ZM59.6934 24.8358C60.3422 25.6361 61.2415 26.02 62.2741 26.02V24.02C61.7814 24.02 61.478 23.8613 61.2469 23.5762L59.6934 24.8358ZM62.2741 26.02C63.2997 26.02 64.1774 25.5951 64.8539 24.8191L63.3464 23.5049C63.0255 23.8729 62.6859 24.02 62.2741 24.02V26.02ZM64.8527 24.8205C65.5391 24.036 65.8738 23.0748 65.892 22.0009L63.8923 21.9671C63.8811 22.6239 63.6878 23.1146 63.3475 23.5035L64.8527 24.8205ZM65.892 21.9671C65.8738 20.8935 65.5389 19.934 64.8444 19.1601L63.3559 20.4959C63.688 20.866 63.8811 21.3439 63.8923 22.0009L65.892 21.9671ZM64.8621 19.1804C64.1888 18.3883 63.3092 17.948 62.2741 17.948V19.948C62.6764 19.948 63.0141 20.0944 63.3382 20.4756L64.8621 19.1804ZM62.2741 17.948C61.2415 17.948 60.3422 18.3319 59.6934 19.1322L61.2469 20.3918C61.478 20.1067 61.7814 19.948 62.2741 19.948V17.948ZM59.6934 19.1322C59.0661 19.9058 58.8101 20.8948 58.8101 21.984H60.8101C60.8101 21.1959 60.9942 20.7035 61.2469 20.3918L59.6934 19.1322ZM77.246 23.612L77.969 22.9211C77.7743 22.7174 77.5026 22.6052 77.2208 22.6123C76.9391 22.6194 76.6734 22.7451 76.4892 22.9584L77.246 23.612ZM79.138 25.592L79.8972 26.2428C80.2316 25.8527 80.216 25.2726 79.861 24.9011L79.138 25.592ZM77.334 26.868L77.7301 27.7862L77.7385 27.7825L77.334 26.868ZM72.384 26.67L71.8878 27.5383L71.8997 27.5449L72.384 26.67ZM70.448 24.756L69.5731 25.2403C69.5765 25.2465 69.5801 25.2527 69.5836 25.2589L70.448 24.756ZM70.448 19.168L69.5797 18.6718L69.5731 18.6837L70.448 19.168ZM72.384 17.254L72.8683 18.1289L72.384 17.254ZM77.334 17.056L76.9173 17.9651C76.9226 17.9675 76.9279 17.9698 76.9332 17.9722L77.334 17.056ZM79.138 18.332L79.8571 19.0269C80.2249 18.6463 80.2324 18.0451 79.8743 17.6554L79.138 18.332ZM77.246 20.29L76.506 20.9627C76.692 21.1672 76.9543 21.2857 77.2308 21.2899C77.5072 21.2941 77.773 21.1837 77.9651 20.9849L77.246 20.29ZM76.212 19.542L75.7648 20.4364C75.7783 20.4432 75.792 20.4497 75.8058 20.4558L76.212 19.542ZM73.264 19.982L72.5351 19.2973C72.5314 19.3013 72.5277 19.3053 72.524 19.3093L73.264 19.982ZM73.264 23.942L72.524 24.6147C72.5277 24.6187 72.5314 24.6227 72.5351 24.6267L73.264 23.942ZM75.112 25.668C75.6468 25.668 76.1693 25.523 76.6678 25.283L75.8002 23.481C75.5067 23.6223 75.2812 23.668 75.112 23.668V25.668ZM76.6678 25.283C77.1834 25.0348 77.6318 24.6952 78.0028 24.2656L76.4892 22.9584C76.3029 23.1741 76.0766 23.3479 75.8002 23.481L76.6678 25.283ZM76.523 24.3029L78.415 26.2829L79.861 24.9011L77.969 22.9211L76.523 24.3029ZM78.3787 24.9412C78.0558 25.318 77.5869 25.6627 76.9295 25.9535L77.7385 27.7825C78.6064 27.3986 79.3402 26.8927 79.8972 26.2428L78.3787 24.9412ZM76.9379 25.9498C76.2926 26.2282 75.7087 26.352 75.178 26.352V28.352C76.026 28.352 76.8794 28.1532 77.7301 27.7862L76.9379 25.9498ZM75.178 26.352C74.2872 26.352 73.5257 26.159 72.8683 25.7951L71.8997 27.5449C72.8849 28.0903 73.9861 28.352 75.178 28.352V26.352ZM72.8801 25.8018C72.2093 25.4185 71.6919 24.9056 71.3123 24.2531L69.5836 25.2589C70.1427 26.2198 70.916 26.9829 71.8878 27.5382L72.8801 25.8018ZM71.3229 24.2717C70.959 23.6143 70.766 22.8528 70.766 21.962H68.766C68.766 23.1539 69.0277 24.255 69.5731 25.2403L71.3229 24.2717ZM70.766 21.962C70.766 21.0712 70.959 20.3097 71.3229 19.6523L69.5731 18.6837C69.0277 19.669 68.766 20.7701 68.766 21.962H70.766ZM71.3162 19.6641C71.6954 19.0005 72.2085 18.4941 72.8683 18.1289L71.8997 16.3791C70.9168 16.9232 70.1392 17.6928 69.5797 18.6719L71.3162 19.6641ZM72.8683 18.1289C73.5257 17.765 74.2872 17.572 75.178 17.572V15.572C73.9861 15.572 72.8849 15.8337 71.8997 16.3791L72.8683 18.1289ZM75.178 17.572C75.7595 17.572 76.3366 17.6989 76.9173 17.9651L77.7506 16.1469C76.9234 15.7678 76.0631 15.572 75.178 15.572V17.572ZM76.9332 17.9722C77.5155 18.2269 78.001 18.5726 78.4017 19.0086L79.8743 17.6554C79.2776 17.0061 78.5605 16.5011 77.7348 16.1398L76.9332 17.9722ZM78.4189 17.6371L76.5269 19.5951L77.9651 20.9849L79.8571 19.0269L78.4189 17.6371ZM77.9859 19.6173C77.5999 19.1927 77.1417 18.8609 76.6181 18.6282L75.8058 20.4558C76.0742 20.5751 76.3054 20.742 76.506 20.9627L77.9859 19.6173ZM76.6592 18.6476C76.1679 18.4019 75.6486 18.256 75.112 18.256V20.256C75.2793 20.256 75.4934 20.3007 75.7648 20.4364L76.6592 18.6476ZM75.112 18.256C74.1099 18.256 73.2113 18.5776 72.5351 19.2973L73.9928 20.6667C74.226 20.4184 74.5594 20.256 75.112 20.256V18.256ZM72.524 19.3093C71.8741 20.0242 71.604 20.9487 71.604 21.962H73.604C73.604 21.3033 73.7738 20.9078 74.0039 20.6547L72.524 19.3093ZM71.604 21.962C71.604 22.9753 71.8741 23.8998 72.524 24.6147L74.0039 23.2693C73.7738 23.0162 73.604 22.6207 73.604 21.962H71.604ZM72.5351 24.6267C73.2113 25.3464 74.1099 25.668 75.112 25.668V23.668C74.5594 23.668 74.226 23.5056 73.9928 23.2573L72.5351 24.6267ZM82.4304 18.992H83.4304C83.4304 18.4397 82.9827 17.992 82.4304 17.992V18.992ZM80.3404 18.992H79.3404C79.3404 19.5443 79.7881 19.992 80.3404 19.992V18.992ZM80.3404 16.55V15.55C79.7881 15.55 79.3404 15.9977 79.3404 16.55H80.3404ZM82.4304 16.55V17.55C82.9827 17.55 83.4304 17.1023 83.4304 16.55H82.4304ZM82.4304 12.766V11.766C81.8781 11.766 81.4304 12.2137 81.4304 12.766H82.4304ZM85.2684 12.766H86.2684C86.2684 12.2137 85.8207 11.766 85.2684 11.766V12.766ZM85.2684 16.55H84.2684C84.2684 17.1023 84.7161 17.55 85.2684 17.55V16.55ZM87.7984 16.55H88.7984C88.7984 15.9977 88.3507 15.55 87.7984 15.55V16.55ZM87.7984 18.992V19.992C88.3507 19.992 88.7984 19.5443 88.7984 18.992H87.7984ZM85.2684 18.992V17.992C84.7161 17.992 84.2684 18.4397 84.2684 18.992H85.2684ZM85.2684 27.308V28.308C85.8207 28.308 86.2684 27.8603 86.2684 27.308H85.2684ZM82.4304 27.308H81.4304C81.4304 27.8603 81.8781 28.308 82.4304 28.308V27.308ZM82.4304 17.992H80.3404V19.992H82.4304V17.992ZM81.3404 18.992V16.55H79.3404V18.992H81.3404ZM80.3404 17.55H82.4304V15.55H80.3404V17.55ZM83.4304 16.55V12.766H81.4304V16.55H83.4304ZM82.4304 13.766H85.2684V11.766H82.4304V13.766ZM84.2684 12.766V16.55H86.2684V12.766H84.2684ZM85.2684 17.55H87.7984V15.55H85.2684V17.55ZM86.7984 16.55V18.992H88.7984V16.55H86.7984ZM87.7984 17.992H85.2684V19.992H87.7984V17.992ZM84.2684 18.992V27.308H86.2684V18.992H84.2684ZM85.2684 26.308H82.4304V28.308H85.2684V26.308ZM83.4304 27.308V18.992H81.4304V27.308H83.4304ZM93.1259 16.572H94.1259C94.1259 16.0197 93.6781 15.572 93.1259 15.572V16.572ZM93.1259 27.286V28.286C93.6781 28.286 94.1259 27.8383 94.1259 27.286H93.1259ZM90.2879 27.286H89.2879C89.2879 27.8383 89.7356 28.286 90.2879 28.286V27.286ZM90.2879 16.572V15.572C89.7356 15.572 89.2879 16.0197 89.2879 16.572H90.2879ZM90.5959 11.622L89.8888 10.9149V10.9149L90.5959 11.622ZM92.7959 11.622L92.0709 12.3107C92.0826 12.3231 92.0947 12.3352 92.1071 12.347L92.7959 11.622ZM92.7959 13.822L92.0888 13.1149L92.7959 13.822ZM90.5959 13.822L89.8709 14.5107C89.8826 14.5231 89.8947 14.5352 89.9071 14.547L90.5959 13.822ZM92.1259 16.572V27.286H94.1259V16.572H92.1259ZM93.1259 26.286H90.2879V28.286H93.1259V26.286ZM91.2879 27.286V16.572H89.2879V27.286H91.2879ZM90.2879 17.572H93.1259V15.572H90.2879V17.572ZM91.1779 12.7C91.1779 12.4914 91.2345 12.3976 91.303 12.3291L89.8888 10.9149C89.3999 11.4037 89.1779 12.0286 89.1779 12.7H91.1779ZM91.303 12.3291C91.3898 12.2422 91.5004 12.182 91.7179 12.182V10.182C91.026 10.182 90.3885 10.4151 89.8888 10.9149L91.303 12.3291ZM91.7179 12.182C91.9104 12.182 91.9986 12.2347 92.0709 12.3107L93.5209 10.9332C93.0358 10.4227 92.4053 10.182 91.7179 10.182V12.182ZM92.1071 12.347C92.1832 12.4193 92.2359 12.5075 92.2359 12.7H94.2359C94.2359 12.0125 93.9952 11.3821 93.4846 10.897L92.1071 12.347ZM92.2359 12.7C92.2359 12.9175 92.1756 13.028 92.0888 13.1149L93.503 14.5291C94.0028 14.0293 94.2359 13.3919 94.2359 12.7H92.2359ZM92.0888 13.1149C92.0202 13.1834 91.9264 13.24 91.7179 13.24V15.24C92.3893 15.24 93.0141 15.0179 93.503 14.5291L92.0888 13.1149ZM91.7179 13.24C91.4852 13.24 91.3686 13.1768 91.2846 13.097L89.9071 14.547C90.4098 15.0246 91.0412 15.24 91.7179 15.24V13.24ZM91.3209 13.1332C91.2411 13.0493 91.1779 12.9327 91.1779 12.7H89.1779C89.1779 13.3766 89.3933 14.0081 89.8709 14.5107L91.3209 13.1332ZM102.726 23.612L103.449 22.9211C103.255 22.7174 102.983 22.6052 102.701 22.6123C102.42 22.6194 102.154 22.7451 101.97 22.9584L102.726 23.612ZM104.618 25.592L105.378 26.2428C105.712 25.8527 105.696 25.2726 105.341 24.9011L104.618 25.592ZM102.814 26.868L103.211 27.7862L103.219 27.7825L102.814 26.868ZM97.8645 26.67L97.3683 27.5383L97.3801 27.5449L97.8645 26.67ZM95.9285 24.756L95.0536 25.2403C95.057 25.2465 95.0605 25.2527 95.0641 25.2589L95.9285 24.756ZM95.9285 19.168L95.0601 18.6718L95.0536 18.6837L95.9285 19.168ZM97.8645 17.254L98.3488 18.1289L97.8645 17.254ZM102.814 17.056L102.398 17.9651C102.403 17.9675 102.408 17.9698 102.414 17.9722L102.814 17.056ZM104.618 18.332L105.338 19.0269C105.705 18.6463 105.713 18.0451 105.355 17.6554L104.618 18.332ZM102.726 20.29L101.987 20.9627C102.172 21.1672 102.435 21.2857 102.711 21.2899C102.988 21.2941 103.253 21.1837 103.446 20.9849L102.726 20.29ZM101.692 19.542L101.245 20.4364C101.259 20.4432 101.272 20.4497 101.286 20.4558L101.692 19.542ZM98.7445 19.982L98.0156 19.2973C98.0119 19.3013 98.0082 19.3053 98.0045 19.3093L98.7445 19.982ZM98.7445 23.942L98.0045 24.6147C98.0082 24.6187 98.0119 24.6227 98.0156 24.6267L98.7445 23.942ZM100.592 25.668C101.127 25.668 101.65 25.523 102.148 25.283L101.281 23.481C100.987 23.6223 100.762 23.668 100.592 23.668V25.668ZM102.148 25.283C102.664 25.0348 103.112 24.6952 103.483 24.2656L101.97 22.9584C101.783 23.1741 101.557 23.3479 101.281 23.481L102.148 25.283ZM102.003 24.3029L103.895 26.2829L105.341 24.9011L103.449 22.9211L102.003 24.3029ZM103.859 24.9412C103.536 25.318 103.067 25.6627 102.41 25.9535L103.219 27.7825C104.087 27.3986 104.821 26.8927 105.378 26.2428L103.859 24.9412ZM102.418 25.9498C101.773 26.2282 101.189 26.352 100.658 26.352V28.352C101.506 28.352 102.36 28.1532 103.211 27.7862L102.418 25.9498ZM100.658 26.352C99.7677 26.352 99.0062 26.159 98.3488 25.7951L97.3801 27.5449C98.3654 28.0903 99.4666 28.352 100.658 28.352V26.352ZM98.3606 25.8018C97.6898 25.4185 97.1724 24.9056 96.7928 24.2531L95.0641 25.2589C95.6232 26.2198 96.3964 26.9829 97.3683 27.5382L98.3606 25.8018ZM96.8033 24.2717C96.4394 23.6143 96.2465 22.8528 96.2465 21.962H94.2465C94.2465 23.1539 94.5081 24.255 95.0536 25.2403L96.8033 24.2717ZM96.2465 21.962C96.2465 21.0712 96.4394 20.3097 96.8033 19.6523L95.0536 18.6837C94.5081 19.669 94.2465 20.7701 94.2465 21.962H96.2465ZM96.7967 19.6641C97.1759 19.0005 97.689 18.4941 98.3488 18.1289L97.3801 16.3791C96.3973 16.9232 95.6197 17.6928 95.0602 18.6719L96.7967 19.6641ZM98.3488 18.1289C99.0062 17.765 99.7677 17.572 100.658 17.572V15.572C99.4666 15.572 98.3654 15.8337 97.3801 16.3791L98.3488 18.1289ZM100.658 17.572C101.24 17.572 101.817 17.6989 102.398 17.9651L103.231 16.1469C102.404 15.7678 101.544 15.572 100.658 15.572V17.572ZM102.414 17.9722C102.996 18.2269 103.481 18.5726 103.882 19.0086L105.355 17.6554C104.758 17.0061 104.041 16.5011 103.215 16.1398L102.414 17.9722ZM103.899 17.6371L102.007 19.5951L103.446 20.9849L105.338 19.0269L103.899 17.6371ZM103.466 19.6173C103.08 19.1927 102.622 18.8609 102.099 18.6282L101.286 20.4558C101.555 20.5751 101.786 20.742 101.987 20.9627L103.466 19.6173ZM102.14 18.6476C101.648 18.4019 101.129 18.256 100.592 18.256V20.256C100.76 20.256 100.974 20.3007 101.245 20.4364L102.14 18.6476ZM100.592 18.256C99.5904 18.256 98.6917 18.5776 98.0156 19.2973L99.4733 20.6667C99.7065 20.4184 100.04 20.256 100.592 20.256V18.256ZM98.0045 19.3093C97.3546 20.0242 97.0845 20.9487 97.0845 21.962H99.0844C99.0844 21.3033 99.2543 20.9078 99.4844 20.6547L98.0045 19.3093ZM97.0845 21.962C97.0845 22.9753 97.3546 23.8998 98.0045 24.6147L99.4844 23.2693C99.2543 23.0162 99.0844 22.6207 99.0844 21.962H97.0845ZM98.0156 24.6267C98.6917 25.3464 99.5904 25.668 100.592 25.668V23.668C100.04 23.668 99.7065 23.5056 99.4733 23.2573L98.0156 24.6267ZM108.378 26.648L107.873 27.5112L107.88 27.5153L108.378 26.648ZM106.552 24.756L107.43 24.2771L106.552 24.756ZM108.378 17.276L107.88 16.4087L107.873 16.4128L108.378 17.276ZM113.57 17.21L114.098 16.3609L113.57 17.21ZM115 18.486L114.168 19.0407C114.172 19.047 114.176 19.0533 114.181 19.0595L115 18.486ZM115.572 19.476L114.623 19.7922C114.636 19.8316 114.652 19.87 114.67 19.9075L115.572 19.476ZM116.056 22.138L117.056 22.1636C117.056 22.1551 117.056 22.1465 117.056 22.138H116.056ZM116.034 22.996V23.996C116.576 23.996 117.02 23.5638 117.034 23.0216L116.034 22.996ZM108.598 22.996V21.996C108.294 21.996 108.007 22.1341 107.817 22.3713C107.627 22.6085 107.556 22.9191 107.622 23.2155L108.598 22.996ZM109.5 24.426L108.884 25.214C108.888 25.2171 108.892 25.2201 108.896 25.2231L109.5 24.426ZM112.602 24.624L113.141 25.4663L113.149 25.461L112.602 24.624ZM113.394 23.854L113.765 22.9255C113.298 22.7385 112.764 22.9282 112.52 23.3684L113.394 23.854ZM115.704 24.778L116.627 25.1626C116.73 24.9155 116.73 24.6375 116.626 24.3907C116.522 24.1439 116.324 23.9489 116.075 23.8495L115.704 24.778ZM114.076 26.582L114.609 27.4282L114.076 26.582ZM113.416 21.082V22.082C113.716 22.082 113.999 21.9477 114.189 21.716C114.379 21.4843 114.455 21.1797 114.397 20.8859L113.416 21.082ZM112.624 19.52L111.917 20.2271C111.921 20.2316 111.926 20.236 111.93 20.2403L112.624 19.52ZM109.456 19.542L110.111 20.2977L110.113 20.2961L109.456 19.542ZM108.598 21.082L107.618 20.8816C107.558 21.1759 107.633 21.4816 107.823 21.7143C108.013 21.947 108.298 22.082 108.598 22.082V21.082ZM111.084 26.33C110.227 26.33 109.5 26.1393 108.876 25.7807L107.88 27.5153C108.84 28.0661 109.917 28.33 111.084 28.33V26.33ZM108.883 25.7848C108.266 25.4239 107.785 24.9276 107.43 24.2771L105.674 25.2349C106.199 26.1977 106.936 26.9628 107.873 27.5112L108.883 25.7848ZM107.43 24.2771C107.08 23.636 106.892 22.8806 106.892 21.984H104.892C104.892 23.17 105.144 24.2627 105.674 25.2349L107.43 24.2771ZM106.892 21.984C106.892 21.0877 107.08 20.3219 107.434 19.6622L105.671 18.7178C105.144 19.7008 104.892 20.7976 104.892 21.984H106.892ZM107.434 19.6622C107.79 18.9975 108.27 18.4974 108.883 18.1392L107.873 16.4128C106.931 16.9639 106.194 17.7398 105.671 18.7178L107.434 19.6622ZM108.876 18.1433C109.5 17.7847 110.227 17.594 111.084 17.594V15.594C109.917 15.594 108.84 15.8579 107.88 16.4087L108.876 18.1433ZM111.084 17.594C111.947 17.594 112.579 17.7714 113.042 18.0591L114.098 16.3609C113.241 15.8273 112.216 15.594 111.084 15.594V17.594ZM113.042 18.0591C113.633 18.4269 113.982 18.7616 114.168 19.0407L115.832 17.9313C115.431 17.3304 114.827 16.8145 114.098 16.3609L113.042 18.0591ZM114.181 19.0595C114.487 19.4967 114.6 19.7228 114.623 19.7922L116.521 19.1598C116.397 18.7892 116.129 18.3553 115.819 17.9125L114.181 19.0595ZM114.67 19.9075C114.905 20.3992 115.056 21.1227 115.056 22.138H117.056C117.056 20.9533 116.884 19.9021 116.474 19.0445L114.67 19.9075ZM115.056 22.1124L115.034 22.9704L117.034 23.0216L117.056 22.1636L115.056 22.1124ZM116.034 21.996H108.598V23.996H116.034V21.996ZM107.622 23.2155C107.805 24.0252 108.231 24.7036 108.884 25.214L110.116 23.638C109.83 23.415 109.655 23.1401 109.574 22.7765L107.622 23.2155ZM108.896 25.2231C109.543 25.7128 110.28 25.976 111.084 25.976V23.976C110.744 23.976 110.426 23.8726 110.104 23.6289L108.896 25.2231ZM111.084 25.976C111.834 25.976 112.554 25.8423 113.141 25.4663L112.063 23.7817C111.917 23.875 111.625 23.976 111.084 23.976V25.976ZM113.149 25.461C113.603 25.1642 114.013 24.7996 114.268 24.3396L112.52 23.3684C112.482 23.4364 112.364 23.5851 112.055 23.787L113.149 25.461ZM113.023 24.7825L115.333 25.7065L116.075 23.8495L113.765 22.9255L113.023 24.7825ZM114.781 24.3934C114.583 24.8673 114.201 25.3217 113.543 25.7358L114.609 27.4282C115.535 26.845 116.238 26.0967 116.627 25.1626L114.781 24.3934ZM113.543 25.7358C112.95 26.109 112.151 26.33 111.084 26.33V28.33C112.422 28.33 113.618 28.0523 114.609 27.4282L113.543 25.7358ZM114.397 20.8859C114.234 20.0714 113.891 19.3515 113.318 18.7997L111.93 20.2403C112.149 20.4512 112.334 20.7726 112.435 21.2781L114.397 20.8859ZM113.331 18.8129C112.726 18.2079 111.939 17.948 111.084 17.948V19.948C111.52 19.948 111.759 20.0694 111.917 20.2271L113.331 18.8129ZM111.084 17.948C110.224 17.948 109.445 18.2256 108.799 18.7879L110.113 20.2961C110.377 20.0664 110.683 19.948 111.084 19.948V17.948ZM108.801 18.7863C108.173 19.3306 107.788 20.0502 107.618 20.8816L109.578 21.2824C109.672 20.8231 109.859 20.516 110.111 20.2977L108.801 18.7863ZM108.598 22.082H113.416V20.082H108.598V22.082Z" fill="#EFF4F6" mask="url(#path-3-outside-1_9954_40654)"/>
</svg>
