<svg width="211" height="48" viewBox="0 0 211 48" fill="none" xmlns="http://www.w3.org/2000/svg">
<path d="M1.5 15.6255C1.5 13.4163 3.29086 11.6255 5.5 11.6255H192.5C202.441 11.6255 210.5 19.6844 210.5 29.6255C210.5 39.5666 202.441 47.6255 192.5 47.6255H26.5C12.6929 47.6255 1.5 36.4326 1.5 22.6255V15.6255Z" fill="#35AEB7"/>
<path d="M44.2573 19.8275H46.6773V34.1055H44.2573V19.8275ZM30.5513 29.5075C33.6973 28.3635 35.3033 25.5915 35.3033 22.8415V20.8835H37.7453V22.8415C37.7453 25.5255 39.3293 28.1215 42.4313 29.1555L41.1773 31.0915C38.9773 30.2995 37.4153 28.7375 36.5573 26.7355C35.6993 28.8695 34.0933 30.5855 31.7833 31.4215L30.5513 29.5075ZM33.8293 39.0115V32.7635H36.2492V37.0755H47.2273V39.0115H33.8293ZM62.5618 19.7835H65.0038V27.3735H67.8638V29.3755H65.0038V39.3855H62.5618V19.7835ZM50.4398 34.5235V21.6975H52.8378V32.5435C55.4338 32.4995 58.2058 32.2575 61.0878 31.6855L61.3518 33.6655C58.0738 34.3475 54.9938 34.5235 52.0678 34.5235H50.4398ZM71.2523 20.5095H73.6503V25.3275H84.7163V27.2635H71.2523V20.5095ZM68.9863 31.4655V29.5295H86.7183V31.4655H68.9863ZM71.0983 38.9675V33.1595H73.4963V37.0095H84.8263V38.9675H71.0983ZM95.5511 20.0695H97.9271V23.9415H108.971V25.8775H103.361V27.6375H111.017V29.5515H93.2851V27.6375H100.941V25.8775H95.5511V20.0695ZM95.3531 32.6975V30.8495H108.861V35.7555H97.8171V37.3175H109.455V39.1655H95.3971V34.0615H106.441V32.6975H95.3531ZM126.22 19.7835H128.662V39.4295H126.22V19.7835ZM113.108 28.1435C113.108 23.8975 115.242 21.2135 118.19 21.2135C121.138 21.2135 123.272 23.8975 123.272 28.1435C123.272 32.4115 121.138 35.0955 118.19 35.0955C115.242 35.0955 113.108 32.4115 113.108 28.1435ZM115.44 28.1435C115.44 31.1575 116.562 32.9175 118.19 32.9175C119.818 32.9175 120.94 31.1575 120.94 28.1435C120.94 25.1515 119.818 23.4135 118.19 23.4135C116.562 23.4135 115.44 25.1515 115.44 28.1435ZM152.278 37.7795H148.956L147.614 36.3055C146.448 37.3615 144.952 38.1315 143.082 38.1315C138.022 38.1315 137.714 33.9735 137.714 33.3355C137.714 32.7635 137.978 30.2555 140.442 28.6495C139.672 27.8575 138.858 26.9115 138.858 25.4155C138.858 23.7655 140.244 21.4115 143.082 21.4115C145.854 21.4115 147.372 23.6335 147.372 25.4155C147.372 27.0655 146.294 28.2315 144.468 29.2875L147.526 32.6535C148.01 31.9055 148.45 31.0695 148.846 30.3215L150.958 31.4875C150.518 32.3455 149.968 33.4235 149.22 34.4795L152.278 37.7795ZM140.134 33.3355C140.134 33.8195 140.288 35.7115 143.082 35.7115C144.226 35.7115 145.172 35.2495 145.964 34.5455L142.202 30.4315C140.332 31.3775 140.134 32.9395 140.134 33.3355ZM141.278 25.4155C141.278 26.1855 141.982 26.6915 142.774 27.4835C144.358 26.7135 144.952 26.1855 144.952 25.4155C144.952 24.6015 144.38 23.8315 143.082 23.8315C141.718 23.8315 141.278 24.6455 141.278 25.4155ZM166.338 20.4435H168.89V21.4335C168.89 23.8755 171.618 26.4055 175.732 26.9775L174.786 28.8915C171.486 28.3855 168.89 26.7575 167.614 24.5575C166.36 26.7795 163.764 28.3855 160.442 28.8915L159.496 26.9775C163.632 26.4055 166.338 23.9195 166.338 21.4335V20.4435ZM158.748 32.5875V30.6075H176.458V32.5875H168.758V39.4075H166.338V32.5875H158.748ZM177.999 21.6535H182.553V19.6955H184.973V21.6535H189.527V23.5895H177.999V21.6535ZM179.011 27.9455C179.011 25.7895 180.947 24.3375 183.763 24.3375C186.579 24.3375 188.537 25.7895 188.537 27.9455C188.537 30.0795 186.579 31.5095 183.763 31.5095C180.947 31.5095 179.011 30.0795 179.011 27.9455ZM180.375 34.9195V32.9835H193.289V39.4075H190.869V34.9195H180.375ZM181.321 27.9455C181.321 29.0235 182.311 29.6835 183.763 29.6835C185.215 29.6835 186.205 29.0235 186.205 27.9455C186.205 26.8235 185.215 26.1855 183.763 26.1855C182.311 26.1855 181.321 26.8235 181.321 27.9455ZM190.869 32.0815V19.8275H193.289V24.9975H196.017V26.9775H193.289V32.0815H190.869Z" fill="white"/>
<path d="M30.1401 15.2514L5.81338 11.3069C5.38164 7.16482 7.0301 -0.879718 17.0779 0.0785681C27.1257 1.03685 33.8373 10.5931 35.9372 15.2514L30.1401 15.2514Z" fill="#4B6F98"/>
<mask id="mask0_4959_19736" style="mask-type:luminance" maskUnits="userSpaceOnUse" x="6" y="0" width="31" height="17">
<path d="M6.14453 2.45815L6.64692 11.4421L30.1396 15.2513L36.7602 16.9442C36.7602 16.9442 29.6363 0.110352 15.5493 0.110352C12.6957 0.110352 9.56079 0.797123 6.14453 2.45815Z" fill="white"/>
</mask>
<g mask="url(#mask0_4959_19736)">
<g style="mix-blend-mode:multiply">
<mask id="mask1_4959_19736" style="mask-type:luminance" maskUnits="userSpaceOnUse" x="29" y="10" width="8" height="6">
<path d="M36.1678 10.46H29.6367L30.1391 15.2514H36.1678V10.46Z" fill="white"/>
</mask>
<g mask="url(#mask1_4959_19736)">
<path d="M37.2327 15.6907C37.2327 15.6907 28.6318 6.61091 14.5749 5.68457L13.2988 22.0313L37.2427 15.6907H37.2327Z" fill="#9FA0A0"/>
</g>
</g>
</g>
<path d="M10.1836 23.6762C18.1415 25.9122 26.873 22.6061 29.6864 16.2814C32.4998 9.95673 28.34 3.01715 20.3822 0.773162C12.4243 -1.46284 3.69274 1.85123 0.879359 8.17592C-1.93403 14.5006 2.22576 21.4402 10.1836 23.6762Z" fill="#4B6F98"/>
<path d="M13.2982 11.6498C13.5193 13.231 12.203 14.4209 10.3944 14.5886C8.5858 14.7483 6.97815 13.8539 6.74706 12.2408C6.47576 10.3162 7.72169 8.61525 9.5303 8.45554C11.3389 8.29583 13.0269 9.72527 13.2982 11.6498Z" fill="white"/>
<mask id="mask2_4959_19736" style="mask-type:luminance" maskUnits="userSpaceOnUse" x="6" y="8" width="8" height="7">
<path d="M9.5303 8.45542C7.72169 8.61514 6.47576 10.3081 6.74706 12.2407C6.97815 13.8618 8.5858 14.7482 10.3944 14.5885C12.203 14.4287 13.5193 13.2309 13.2982 11.6497C13.037 9.82098 11.5097 8.43945 9.81164 8.43945C9.72121 8.43945 9.62073 8.43945 9.5303 8.45542Z" fill="white"/>
</mask>
<g mask="url(#mask2_4959_19736)">
<path d="M9.12769 11.0666C8.99707 11.6735 8.44444 12.0648 7.90186 11.945C7.35928 11.8173 7.0277 11.2263 7.15832 10.6114C7.28894 10.0045 7.84157 9.6132 8.38415 9.73298C8.92674 9.86075 9.25831 10.4517 9.12769 11.0666Z" fill="#231815"/>
</g>
<path d="M13.2982 11.6498C13.5193 13.231 12.203 14.4209 10.3944 14.5886C8.5858 14.7483 6.97815 13.8539 6.74706 12.2408C6.47576 10.3162 7.72169 8.61525 9.5303 8.45554C11.3389 8.29583 13.0269 9.72527 13.2982 11.6498Z" stroke="#231815" stroke-width="0.5" stroke-miterlimit="10"/>
<path d="M7.39062 7.46512C7.39062 7.46512 9.59109 6.15546 11.3796 7.33735" stroke="#231815" stroke-width="0.5" stroke-miterlimit="10" stroke-linecap="round"/>
<path d="M20.8433 6.43503C20.8433 6.43503 18.3716 5.48473 16.8945 6.92216" stroke="#231815" stroke-width="0.5" stroke-miterlimit="10" stroke-linecap="round"/>
<path d="M21.5472 8.55144C21.5472 8.55144 18.1611 8.44763 16.5635 10.8433C16.5635 10.8433 20.1907 10.9791 21.8788 12.161" stroke="#231815" stroke-width="0.5" stroke-linecap="round" stroke-linejoin="round"/>
<path d="M16.7236 10.7873C16.7236 10.7873 18.7834 9.81305 22.1193 9.96478" stroke="#231815" stroke-width="0.5" stroke-linecap="round" stroke-linejoin="round"/>
<path d="M12.1827 15.9463C12.9162 15.4033 14.2626 15.3234 15.1468 15.2036C16.3425 15.0519 17.5382 14.9481 18.7439 14.9002C19.2362 14.8762 19.7788 14.8762 20.1606 15.1238C21.0147 15.6508 20.7937 16.6251 20.4822 17.3278C20.1506 18.0705 19.6984 18.8291 19.0152 19.4121C17.6286 20.594 15.7195 20.3145 14.1521 19.5239C12.9262 18.909 11.2382 17.807 11.7607 16.4893C11.8511 16.2737 12.0018 16.098 12.1927 15.9543" fill="#231815"/>
<mask id="mask3_4959_19736" style="mask-type:luminance" maskUnits="userSpaceOnUse" x="11" y="14" width="10" height="7">
<path d="M18.7437 14.9081C17.538 14.956 16.3423 15.0598 15.1466 15.2115C14.2624 15.3233 12.916 15.4112 12.1825 15.9542C11.9916 16.0979 11.8409 16.2736 11.7505 16.4892C11.228 17.8069 12.9261 18.9089 14.1519 19.5238C15.7294 20.3144 17.6284 20.5939 19.015 19.412C19.6983 18.829 20.1605 18.0784 20.482 17.3277C20.7935 16.625 21.0145 15.6507 20.1605 15.1237C19.859 14.94 19.4672 14.8921 19.0753 14.8921C18.9648 14.8921 18.8442 14.8921 18.7337 14.9001" fill="white"/>
</mask>
<g mask="url(#mask3_4959_19736)">
<path d="M11.419 14.8203C11.3386 14.8683 11.5496 16.5133 13.0467 16.6571C14.5438 16.7928 19.3165 16.3137 21.0548 14.7565C22.783 13.1992 11.419 14.8283 11.419 14.8283" fill="white"/>
<path d="M20.8536 20.115C20.8536 20.115 20.6626 17.328 16.955 17.4238C13.2474 17.5196 10.9766 20.0511 10.9766 20.0511C10.9766 20.0511 17.6584 22.1833 20.8536 20.115Z" fill="#EB6168"/>
</g>
</svg>
