<svg width="104" height="25" viewBox="0 0 104 25" fill="none" xmlns="http://www.w3.org/2000/svg">
<path d="M0 8C0 3.58172 3.58172 0 8 0H96C100.418 0 104 3.58172 104 8V17C104 21.4183 100.418 25 96 25H8C3.58172 25 0 21.4183 0 17V8Z" fill="#007067"/>
<path d="M15.2565 7.668V6.52H17.1185V7.668H19.8905V9.138H12.4845V7.668H15.2565ZM13.0865 11.854C13.0865 11.3967 13.2171 10.9907 13.4785 10.636C13.7491 10.272 14.1178 9.992 14.5845 9.796C15.0605 9.6 15.5971 9.502 16.1945 9.502C16.7918 9.502 17.3238 9.6 17.7905 9.796C18.2665 9.992 18.6351 10.272 18.8965 10.636C19.1671 10.9907 19.3025 11.3967 19.3025 11.854C19.3025 12.302 19.1671 12.7033 18.8965 13.058C18.6351 13.4033 18.2665 13.674 17.7905 13.87C17.3238 14.066 16.7918 14.164 16.1945 14.164C15.5971 14.164 15.0605 14.066 14.5845 13.87C14.1178 13.674 13.7491 13.4033 13.4785 13.058C13.2171 12.7033 13.0865 12.302 13.0865 11.854ZM13.9825 15.004H22.4105V19.204H20.5345V16.488H13.9825V15.004ZM14.8785 11.854C14.8785 12.1527 14.9951 12.3813 15.2285 12.54C15.4711 12.6987 15.7931 12.778 16.1945 12.778C16.5865 12.778 16.8991 12.6987 17.1325 12.54C17.3751 12.3813 17.4965 12.1527 17.4965 11.854C17.4965 11.546 17.3798 11.3127 17.1465 11.154C16.9131 10.9953 16.5958 10.916 16.1945 10.916C15.7931 10.916 15.4711 10.9953 15.2285 11.154C14.9951 11.3127 14.8785 11.546 14.8785 11.854ZM20.5345 6.604H22.4105V9.824H24.0625V11.336H22.4105V14.5H20.5345V6.604ZM27.8708 14.136V15.158H32.8268V14.136H34.6748V19.064H26.0368V14.136H27.8708ZM24.7208 12.078H36.1028V13.534H24.7208V12.078ZM25.2668 10.09C26.1908 9.98733 26.9654 9.782 27.5908 9.474C28.2161 9.166 28.6828 8.802 28.9908 8.382C29.2988 7.962 29.4528 7.53267 29.4528 7.094V6.73H31.3708V7.094C31.3708 7.53267 31.5248 7.962 31.8328 8.382C32.1408 8.79267 32.6074 9.15667 33.2328 9.474C33.8674 9.782 34.6421 9.98733 35.5568 10.09L34.8988 11.532C33.8441 11.392 32.9341 11.1213 32.1688 10.72C31.4128 10.3093 30.8294 9.80067 30.4188 9.194C30.0081 9.80067 29.4201 10.3093 28.6548 10.72C27.8988 11.1213 26.9888 11.392 25.9248 11.532L25.2668 10.09ZM32.8268 17.608V16.558H27.8708V17.608H32.8268ZM50.1377 7.094V11.56H46.7917V12.722H51.5657V14.192H40.1837V12.722H44.9157V11.56H41.5697V7.094H50.1377ZM41.4437 15.074H50.1937V19.204H48.3457V16.53H41.4437V15.074ZM48.3037 10.104V8.55H43.4037V10.104H48.3037ZM55.192 16.32V14.01H53.358V12.54H54.982V9.054H53.288V7.57H62.906V9.054H61.212V12.54H62.864V14.01H61.002V16.32H63.83V17.818H52.42V16.32H55.192ZM59.364 12.54V9.054H56.844V12.54H59.364ZM59.168 16.32V14.01H57.04V16.32H59.168ZM76.5629 8.396V6.604H78.4249V12.988H76.5629V9.88H74.3089V8.396H76.5629ZM67.7709 11.63C68.7696 11.3313 69.5116 10.846 69.9969 10.174C70.4822 9.49267 70.7249 8.72733 70.7249 7.878V6.996H72.6149V7.878C72.6149 8.67133 72.8436 9.39 73.3009 10.034C73.7676 10.6687 74.4722 11.1307 75.4149 11.42L74.4629 12.848C73.1842 12.4467 72.2602 11.6767 71.6909 10.538C71.4109 11.1447 71.0189 11.6673 70.5149 12.106C70.0202 12.5447 69.4229 12.8713 68.7229 13.086L67.7709 11.63ZM70.0809 13.506H78.4249V16.922H71.9429V17.622H78.7749V19.064H70.0949V15.578H76.5769V14.934H70.0809V13.506ZM88.7992 9.628V6.604H90.6612V14.066H88.7992V11.126H86.9372V9.628H88.7992ZM80.0352 12.624C80.9872 12.2973 81.7059 11.7933 82.1912 11.112C82.6859 10.4213 82.9519 9.66067 82.9892 8.83H80.5252V7.346H87.3152V8.83H84.8792C84.9166 9.586 85.1686 10.2813 85.6352 10.916C86.1112 11.5413 86.8066 12.008 87.7212 12.316L86.7972 13.772C86.1439 13.5573 85.5792 13.24 85.1032 12.82C84.6272 12.4 84.2492 11.9007 83.9692 11.322C83.6892 11.9753 83.2972 12.54 82.7932 13.016C82.2986 13.492 81.6919 13.8513 80.9732 14.094L80.0352 12.624ZM82.0512 16.782C82.0512 16.026 82.4386 15.4333 83.2132 15.004C83.9879 14.5653 85.0472 14.346 86.3912 14.346C87.7259 14.346 88.7759 14.5653 89.5412 15.004C90.3159 15.4333 90.7032 16.026 90.7032 16.782C90.7032 17.5473 90.3159 18.1447 89.5412 18.574C88.7759 19.0033 87.7259 19.218 86.3912 19.218C85.0472 19.218 83.9879 19.0033 83.2132 18.574C82.4386 18.1447 82.0512 17.5473 82.0512 16.782ZM83.9272 16.782C83.9272 17.4633 84.7486 17.804 86.3912 17.804C88.0339 17.804 88.8552 17.4633 88.8552 16.782C88.8552 16.0913 88.0339 15.746 86.3912 15.746C84.7486 15.746 83.9272 16.0913 83.9272 16.782Z" fill="white"/>
</svg>