<svg width="142" height="32" viewBox="0 0 142 32" fill="none" xmlns="http://www.w3.org/2000/svg">
<mask id="path-1-inside-1_3624_56269" fill="white">
<path d="M0 0H142V32H0V0Z"/>
</mask>
<path d="M142 29H0V35H142V29Z" fill="#BADDFF" mask="url(#path-1-inside-1_3624_56269)"/>
<path d="M8.06 8.3V21.02H14.6V23.26H5.48V8.3H8.06ZM17.3192 13.52H19.8992V23.26H17.3192V13.52ZM17.2192 10C17.2192 9.2 17.7992 8.62 18.6192 8.62C19.4192 8.62 19.9992 9.2 19.9992 10C19.9992 10.82 19.4192 11.4 18.6192 11.4C17.7992 11.4 17.2192 10.82 17.2192 10ZM24.4823 19.72C24.8223 20.68 25.7823 21.16 26.3823 21.16C27.2423 21.16 27.7423 20.86 27.7423 20.36C27.7423 19.9 27.0223 19.66 26.1023 19.32C24.7623 18.84 22.8823 18.18 22.8823 16.28C22.8823 14.48 24.5023 13.44 26.5823 13.44C27.8223 13.44 29.5823 14.16 30.1023 15.92L28.0023 16.72C27.6623 15.7 26.9423 15.6 26.5823 15.6C25.8423 15.6 25.4623 15.86 25.4623 16.28C25.4623 16.72 26.1423 16.94 27.0823 17.28C28.4423 17.76 30.3023 18.44 30.3023 20.3C30.3023 22.14 28.7423 23.32 26.3823 23.32C24.8623 23.32 23.1423 22.3 22.5023 20.84L24.4823 19.72ZM33.5355 23.28V15.72H31.6355V13.5H33.5355V10.06H36.1155V13.5H38.4155V15.72H36.1155V23.28H33.5355ZM44.5452 23.3C41.7652 23.3 39.8252 21.3 39.8252 18.44C39.8252 15.56 41.7652 13.54 44.5452 13.54C47.6052 13.54 48.5852 16.04 48.6252 16.16C49.2252 17.44 49.0452 19.1 49.0452 19.36H42.2852C42.5252 20.44 43.5252 21.16 44.5452 21.16C45.8652 21.16 46.4652 20.48 46.6452 20.14L48.7452 20.98C48.2852 22.1 46.9052 23.3 44.5452 23.3ZM42.2852 17.62H46.6652C46.4452 16.5 45.7852 15.68 44.5452 15.68C43.4052 15.68 42.5252 16.44 42.2852 17.62ZM57.8794 18.14C57.8794 16.6 57.1994 15.74 55.8794 15.74C54.7594 15.76 53.8194 16.66 53.8594 18.14V23.28H51.2794V13.54H53.8594V14.92C54.4794 14.08 55.5194 13.58 56.4194 13.58C57.9794 13.58 60.4594 14.54 60.4594 18.1V23.28H57.8794V18.14ZM77.3558 23.24H73.6558L72.5558 22.06C71.4558 23 70.0758 23.68 68.3358 23.68C63.4758 23.68 63.1758 19.7 63.1758 19.1C63.1758 18.58 63.4158 16.34 65.5558 14.82C64.8958 14.12 64.2358 13.26 64.2358 11.94C64.2358 10.28 65.6358 8.08 68.3358 8.08C71.0158 8.08 72.5158 10.18 72.5158 11.94C72.5158 13.44 71.6158 14.52 70.0358 15.48L72.4358 18.06C72.7958 17.48 73.1358 16.84 73.4558 16.26L75.7958 17.56C75.4158 18.26 74.9558 19.16 74.3358 20.04L77.3558 23.24ZM65.8558 19.1C65.8558 19.52 65.9758 21 68.3358 21C69.2558 21 70.0358 20.66 70.6958 20.14L67.5158 16.76C66.0158 17.56 65.8558 18.78 65.8558 19.1ZM66.9158 11.94C66.9158 12.5 67.4558 12.88 68.1158 13.52C69.4158 12.9 69.8358 12.5 69.8358 11.94C69.8358 11.28 69.3558 10.76 68.3358 10.76C67.2158 10.76 66.9158 11.32 66.9158 11.94ZM81.4648 18.78C82.4248 20.6 83.5848 21.22 84.6448 21.22C86.5048 21.22 87.3848 20.36 87.3848 19.1C87.3848 16.1 80.0248 17.42 80.0248 12.2C80.0248 9.66 82.0648 8.12 84.9448 8.14C86.7448 8.14 88.7848 9.2 89.7048 11.68L87.4248 12.5C86.8048 10.86 85.8048 10.36 84.9248 10.34C83.4448 10.34 82.6048 11.12 82.6048 12.2C82.6048 15.16 89.9448 14.14 89.9448 19.12C89.9448 21.68 87.9248 23.44 84.6248 23.42C82.4248 23.42 80.6248 22.12 79.3648 19.98L81.4648 18.78ZM97.6489 21.16C99.0289 21.16 99.8889 20.1 99.8889 18.4C99.8889 16.68 99.0289 15.62 97.6489 15.62C96.3089 15.62 95.2489 16.82 95.2489 18.4C95.2489 19.96 96.3089 21.16 97.6489 21.16ZM92.6689 27.46V13.52H95.2489V14.86C96.0689 13.8 97.4289 13.5 97.9289 13.5C100.649 13.5 102.469 15.52 102.469 18.4C102.469 21.28 100.649 23.3 97.9289 23.3C97.4089 23.3 96.0689 23.06 95.2489 21.94V27.46H92.6689ZM109.018 23.3C106.238 23.3 104.298 21.3 104.298 18.44C104.298 15.56 106.238 13.54 109.018 13.54C112.078 13.54 113.058 16.04 113.098 16.16C113.698 17.44 113.518 19.1 113.518 19.36H106.758C106.998 20.44 107.998 21.16 109.018 21.16C110.338 21.16 110.938 20.48 111.118 20.14L113.218 20.98C112.758 22.1 111.378 23.3 109.018 23.3ZM106.758 17.62H111.138C110.918 16.5 110.258 15.68 109.018 15.68C107.878 15.68 106.998 16.44 106.758 17.62ZM120.029 23.34C117.329 23.34 115.509 21.3 115.509 18.44C115.509 15.58 117.329 13.56 120.029 13.56C120.909 13.56 121.969 13.92 122.689 14.84V13.54H125.269V23.28H122.689V22.06C121.969 23 120.909 23.34 120.029 23.34ZM118.089 18.44C118.089 20.14 118.949 21.2 120.329 21.2C121.629 21.2 122.689 20.04 122.709 18.44C122.689 16.84 121.629 15.68 120.329 15.68C118.949 15.68 118.089 16.74 118.089 18.44ZM130.62 8.82V17L133.62 13.54H137.1L133.24 17.92L136.86 23.28H133.76L131.38 19.82L130.62 20.72V23.28H128.04V8.82H130.62Z" fill="#1E6EFA"/>
</svg>
