<svg width="126" height="34" viewBox="0 0 126 34" fill="none" xmlns="http://www.w3.org/2000/svg">
<rect width="126" height="34" rx="16" fill="#E4E4FC"/>
<path d="M24.6667 16H15.3333C14.0447 16 13 17.0447 13 18.3333V27.6667C13 28.9553 14.0447 30 15.3333 30H24.6667C25.9553 30 27 28.9553 27 27.6667V18.3333C27 17.0447 25.9553 16 24.6667 16Z" fill="#FFB400"/>
<path d="M36.6667 16H27.3333C26.0447 16 25 17.0447 25 18.3333V27.6667C25 28.9553 26.0447 30 27.3333 30H36.6667C37.9553 30 39 28.9553 39 27.6667V18.3333C39 17.0447 37.9553 16 36.6667 16Z" fill="#0091FF"/>
<path d="M30.6667 4H21.3333C20.0447 4 19 5.04467 19 6.33333V15.6667C19 16.9553 20.0447 18 21.3333 18H30.6667C31.9553 18 33 16.9553 33 15.6667V6.33333C33 5.04467 31.9553 4 30.6667 4Z" fill="#FE5663"/>
<path d="M29.4135 14.0398L26.7468 7.37315C26.6761 7.23603 26.5691 7.12103 26.4374 7.04073C26.3057 6.96044 26.1544 6.91797 26.0001 6.91797C25.8459 6.91797 25.6946 6.96044 25.5629 7.04073C25.4312 7.12103 25.3241 7.23603 25.2535 7.37315L22.5868 14.0398C22.5483 14.1379 22.5295 14.2425 22.5314 14.3479C22.5333 14.4532 22.556 14.5571 22.5981 14.6537C22.6402 14.7503 22.7009 14.8376 22.7767 14.9107C22.8526 14.9838 22.9421 15.0413 23.0401 15.0798C23.1382 15.1183 23.2429 15.1372 23.3482 15.1352C23.4535 15.1333 23.5575 15.1106 23.654 15.0685C23.7506 15.0264 23.8379 14.9657 23.911 14.8899C23.9842 14.814 24.0416 14.7245 24.0801 14.6265L24.6668 13.1331H27.3335L27.9335 14.6265C27.9925 14.7763 28.0953 14.9047 28.2286 14.9951C28.3618 15.0855 28.5191 15.1336 28.6801 15.1331C28.777 15.1522 28.8766 15.1522 28.9735 15.1331C29.0759 15.0925 29.169 15.0314 29.2472 14.9537C29.3253 14.8759 29.3868 14.7831 29.4279 14.6808C29.4691 14.5786 29.489 14.469 29.4865 14.3588C29.484 14.2486 29.4592 14.1401 29.4135 14.0398ZM25.3201 11.5331L26.0001 9.82648L26.6801 11.5331H25.3201Z" fill="#FCC6CC"/>
<path d="M34.334 27.1339H32.774C31.6777 27.1339 30.6264 26.6984 29.8513 25.9232C29.0761 25.1481 28.6406 24.0967 28.6406 23.0005C28.6406 21.9043 29.0761 20.853 29.8513 20.0778C30.6264 19.3027 31.6777 18.8672 32.774 18.8672H34.334C34.5461 18.8672 34.7496 18.9515 34.8996 19.1015C35.0497 19.2515 35.134 19.455 35.134 19.6672C35.134 19.8794 35.0497 20.0828 34.8996 20.2329C34.7496 20.3829 34.5461 20.4672 34.334 20.4672H32.774C32.1469 20.5316 31.566 20.8263 31.1437 21.2942C30.7213 21.7622 30.4875 22.3702 30.4875 23.0005C30.4875 23.6309 30.7213 24.2388 31.1437 24.7068C31.566 25.1747 32.1469 25.4694 32.774 25.5339H34.334C34.5461 25.5339 34.7496 25.6181 34.8996 25.7682C35.0497 25.9182 35.134 26.1217 35.134 26.3339C35.134 26.546 35.0497 26.7495 34.8996 26.8995C34.7496 27.0496 34.5461 27.1339 34.334 27.1339Z" fill="#75C2FF"/>
<path d="M20.6672 27.1339H17.6672C17.5621 27.1339 17.4581 27.1132 17.361 27.073C17.264 27.0328 17.1758 26.9738 17.1015 26.8995C17.0272 26.8253 16.9683 26.7371 16.9281 26.64C16.8879 26.5429 16.8672 26.4389 16.8672 26.3339V19.6672C16.8672 19.455 16.9515 19.2515 17.1015 19.1015C17.2515 18.9515 17.455 18.8672 17.6672 18.8672H20.6672C21.3214 18.8672 21.9488 19.1271 22.4114 19.5897C22.874 20.0522 23.1339 20.6797 23.1339 21.3339C23.1378 21.9526 22.9039 22.5493 22.4805 23.0005C22.9039 23.4518 23.1378 24.0484 23.1339 24.6672C23.1339 25.3214 22.874 25.9488 22.4114 26.4114C21.9488 26.874 21.3214 27.1339 20.6672 27.1339ZM18.4672 25.5339H20.6672C20.897 25.5339 21.1175 25.4425 21.28 25.28C21.4425 25.1175 21.5339 24.897 21.5339 24.6672C21.5339 24.4373 21.4425 24.2169 21.28 24.0544C21.1175 23.8918 20.897 23.8005 20.6672 23.8005H18.4672V25.5339ZM18.4672 22.2005H20.6672C20.897 22.2005 21.1175 22.1092 21.28 21.9467C21.4425 21.7841 21.5339 21.5637 21.5339 21.3339C21.5339 21.104 21.4425 20.8836 21.28 20.721C21.1175 20.5585 20.897 20.4672 20.6672 20.4672H18.4672V22.2005Z" fill="#FFE199"/>
<path d="M68.26 25.176H66.082L62.276 12.966L58.69 25.176H56.49L51.54 8.94H53.982L57.59 20.996L61.022 8.962H63.508L67.028 20.996L70.328 8.94H72.77L68.26 25.176ZM78.3769 23.284C79.1982 23.284 79.8582 22.9833 80.3569 22.382C80.8556 21.7807 81.1049 20.9813 81.1049 19.984C81.1049 19.0013 80.8556 18.2093 80.3569 17.608C79.8582 16.992 79.1982 16.684 78.3769 16.684C77.5556 16.684 76.8956 16.9847 76.3969 17.586C75.8982 18.1873 75.6489 18.9867 75.6489 19.984C75.6489 20.9813 75.8982 21.7807 76.3969 22.382C76.8956 22.9833 77.5556 23.284 78.3769 23.284ZM73.3169 19.984C73.3169 18.9573 73.5296 18.048 73.9549 17.256C74.3949 16.4493 74.9962 15.8187 75.7589 15.364C76.5216 14.9093 77.3942 14.682 78.3769 14.682C79.3596 14.682 80.2322 14.9093 80.9949 15.364C81.7576 15.8187 82.3516 16.4493 82.7769 17.256C83.2169 18.048 83.4369 18.9573 83.4369 19.984C83.4369 20.996 83.2169 21.9053 82.7769 22.712C82.3516 23.5187 81.7576 24.1493 80.9949 24.604C80.2322 25.0587 79.3596 25.286 78.3769 25.286C77.3942 25.286 76.5216 25.0587 75.7589 24.604C74.9962 24.1493 74.3949 23.5187 73.9549 22.712C73.5296 21.9053 73.3169 20.996 73.3169 19.984ZM85.6991 14.704H88.0311V16.244C88.3831 15.7453 88.8525 15.3493 89.4391 15.056C90.0258 14.7627 90.6271 14.6307 91.2431 14.66V16.816C90.6418 16.7867 90.0918 16.926 89.5931 17.234C89.1091 17.5273 88.7278 17.9233 88.4491 18.422C88.1705 18.9207 88.0311 19.4413 88.0311 19.984V25.198H85.6991V14.704ZM97.432 25.286C96.4787 25.286 95.6207 25.0587 94.858 24.604C94.0953 24.1493 93.5013 23.526 93.076 22.734C92.6507 21.9273 92.438 21.0107 92.438 19.984C92.438 18.9573 92.6507 18.048 93.076 17.256C93.5013 16.4493 94.0953 15.8187 94.858 15.364C95.6207 14.9093 96.4787 14.682 97.432 14.682C97.9307 14.682 98.4587 14.8067 99.016 15.056C99.588 15.3053 100.079 15.7013 100.49 16.244V9.468H102.822V25.198H100.49V23.724C100.065 24.252 99.566 24.648 98.994 24.912C98.4367 25.1613 97.916 25.286 97.432 25.286ZM94.77 20.006C94.77 21.0033 95.0267 21.81 95.54 22.426C96.0533 23.0273 96.7353 23.328 97.586 23.328C98.114 23.328 98.598 23.1813 99.038 22.888C99.478 22.5947 99.83 22.1987 100.094 21.7C100.358 21.1867 100.49 20.622 100.49 20.006C100.49 19.4047 100.358 18.8473 100.094 18.334C99.83 17.8207 99.4707 17.4173 99.016 17.124C98.576 16.8307 98.0993 16.684 97.586 16.684C96.7353 16.684 96.0533 16.992 95.54 17.608C95.0267 18.2093 94.77 19.0087 94.77 20.006ZM107.521 21.59C107.741 22.118 108.078 22.5287 108.533 22.822C108.988 23.1153 109.42 23.262 109.831 23.262C110.388 23.262 110.828 23.1667 111.151 22.976C111.474 22.7707 111.635 22.4847 111.635 22.118C111.635 21.8247 111.474 21.59 111.151 21.414C110.828 21.238 110.308 21.0253 109.589 20.776C108.885 20.5267 108.306 20.292 107.851 20.072C107.396 19.852 106.993 19.5367 106.641 19.126C106.304 18.7007 106.135 18.18 106.135 17.564C106.135 16.6547 106.502 15.936 107.235 15.408C107.968 14.8653 108.885 14.594 109.985 14.594C110.454 14.594 110.946 14.6893 111.459 14.88C111.987 15.0707 112.456 15.364 112.867 15.76C113.292 16.156 113.586 16.6473 113.747 17.234L111.789 17.938C111.628 17.4247 111.371 17.0727 111.019 16.882C110.682 16.6913 110.337 16.596 109.985 16.596C109.516 16.596 109.142 16.684 108.863 16.86C108.599 17.036 108.467 17.2707 108.467 17.564C108.467 17.8573 108.614 18.0847 108.907 18.246C109.2 18.4073 109.728 18.62 110.491 18.884C111.195 19.1333 111.774 19.3753 112.229 19.61C112.698 19.83 113.102 20.1453 113.439 20.556C113.791 20.9667 113.967 21.48 113.967 22.096C113.967 23.0493 113.586 23.8193 112.823 24.406C112.06 24.978 111.063 25.264 109.831 25.264C109.01 25.264 108.21 25.0293 107.433 24.56C106.656 24.076 106.076 23.438 105.695 22.646L107.521 21.59Z" fill="#59369B"/>
</svg>
