<svg width="232" height="34" viewBox="0 0 232 34" fill="none" xmlns="http://www.w3.org/2000/svg">
<path d="M11.352 8.72L17.358 25.396H13.794L12.298 21.216H6.248L4.708 25.396H1.144L7.304 8.72H11.352ZM7.304 18.356H11.264L9.328 12.878L7.304 18.356Z" fill="#78AEFF"/>
<path d="M29.07 8.94V23.13H36.418V25.176H26.738V8.94H29.07ZM39.5222 14.682H41.8542V25.176H39.5222V14.682ZM39.3682 10.766C39.3682 9.996 39.9182 9.446 40.6882 9.446C41.4582 9.446 42.0082 9.996 42.0082 10.766C42.0082 11.536 41.4582 12.086 40.6882 12.086C39.9182 12.086 39.3682 11.536 39.3682 10.766ZM46.556 21.59C47.018 22.734 48.162 23.262 48.866 23.262C49.966 23.262 50.67 22.844 50.67 22.118C50.67 21.458 49.702 21.15 48.624 20.776C47.194 20.27 45.17 19.588 45.17 17.564C45.17 15.716 46.864 14.594 49.02 14.594C50.318 14.594 52.254 15.342 52.782 17.234L50.824 17.938C50.472 16.772 49.526 16.596 49.02 16.596C48.096 16.596 47.502 16.97 47.502 17.564C47.502 18.224 48.404 18.488 49.526 18.884C51.022 19.412 53.002 20.094 53.002 22.096C53.002 24.01 51.308 25.264 48.866 25.264C47.26 25.264 45.5 24.252 44.73 22.646L46.556 21.59ZM56.6506 25.198V16.706H54.6706V14.682H56.6506V11.008H58.9826V14.682H61.4686V16.706H58.9826V25.198H56.6506ZM68.1796 25.242C65.2096 25.242 63.1196 23.064 63.1196 19.984C63.1196 16.882 65.2096 14.704 68.1796 14.704C71.4356 14.704 72.4696 17.366 72.5356 17.542C73.1736 19.038 72.9756 20.71 72.9756 20.886H65.4076C65.6716 22.294 66.8596 23.262 68.1796 23.262C69.9176 23.262 70.6216 22.25 70.7976 21.942L72.6676 22.778C72.1616 23.966 70.6876 25.242 68.1796 25.242ZM65.4076 19.038H70.7756C70.5556 17.74 69.8076 16.684 68.1796 16.684C66.7716 16.684 65.6716 17.674 65.4076 19.038ZM82.6115 19.412C82.6115 17.74 81.7535 16.728 80.3015 16.728C78.8715 16.75 77.7715 17.872 77.7935 19.412V25.198H75.4615V14.704H77.7935V16.134C78.4535 15.32 79.5755 14.726 80.5875 14.726C82.5675 14.726 84.9435 16.024 84.9435 19.324V25.198H82.6115V19.412ZM97.5682 25.286C94.6642 25.286 92.5962 23.086 92.5962 20.006C92.5962 16.926 94.6642 14.726 97.5682 14.726C98.6022 14.726 99.7462 15.21 100.582 16.2V14.704H102.914V25.198H100.582V23.79C99.7462 24.846 98.6022 25.286 97.5682 25.286ZM94.9282 20.006C94.9282 21.986 96.0502 23.306 97.7222 23.306C99.2622 23.306 100.582 21.92 100.604 20.006C100.582 18.092 99.2622 16.706 97.7222 16.706C96.0502 16.706 94.9282 18.004 94.9282 20.006ZM112.926 19.412C112.926 17.74 112.068 16.728 110.616 16.728C109.186 16.75 108.086 17.872 108.108 19.412V25.198H105.776V14.704H108.108V16.134C108.768 15.32 109.89 14.726 110.902 14.726C112.882 14.726 115.258 16.024 115.258 19.324V25.198H112.926V19.412ZM122.62 25.286C119.716 25.286 117.626 23.086 117.626 19.984C117.626 16.882 119.716 14.682 122.62 14.682C123.478 14.682 124.776 15.056 125.678 16.244V9.468H128.01V25.198H125.678V23.724C124.754 24.846 123.478 25.286 122.62 25.286ZM119.958 20.006C119.958 22.008 121.08 23.328 122.774 23.328C124.358 23.328 125.678 21.876 125.678 20.006C125.678 18.158 124.358 16.684 122.774 16.684C121.08 16.684 119.958 18.004 119.958 20.006ZM144.291 25.352C139.583 25.352 136.283 21.92 136.283 17.058C136.283 12.174 139.583 8.764 144.291 8.764C146.513 8.764 148.493 9.71 149.945 11.184L148.405 12.702C147.437 11.558 145.897 10.81 144.269 10.81C140.903 10.81 138.637 13.318 138.637 17.058C138.637 20.798 140.903 23.306 144.269 23.306C146.007 23.306 147.393 22.514 148.317 21.458L149.945 22.932C148.493 24.406 146.623 25.374 144.291 25.352ZM159.87 19.456C159.87 17.718 159.034 16.618 157.78 16.618C156.328 16.618 155.206 17.982 155.206 19.676V25H152.874V9.468H155.206V15.936C155.844 15.122 156.878 14.594 157.78 14.594C160.376 14.594 162.224 16.53 162.224 19.192V25H159.87V19.456ZM169.844 25.242C166.874 25.242 164.784 23.064 164.784 19.984C164.784 16.882 166.874 14.704 169.844 14.704C173.1 14.704 174.134 17.366 174.2 17.542C174.838 19.038 174.64 20.71 174.64 20.886H167.072C167.336 22.294 168.524 23.262 169.844 23.262C171.582 23.262 172.286 22.25 172.462 21.942L174.332 22.778C173.826 23.966 172.352 25.242 169.844 25.242ZM167.072 19.038H172.44C172.22 17.74 171.472 16.684 169.844 16.684C168.436 16.684 167.336 17.674 167.072 19.038ZM181.567 23.042C182.381 23.042 183.327 22.624 183.921 21.964L185.527 23.57C184.625 24.56 182.975 25.264 181.655 25.264C178.531 25.264 176.331 23.064 176.331 19.984C176.331 16.882 178.531 14.682 181.655 14.682C183.041 14.682 184.581 15.386 185.527 16.398L183.921 17.982C183.327 17.322 182.381 16.904 181.567 16.904C179.829 16.904 178.663 18.114 178.663 19.984C178.663 21.832 179.829 23.042 181.567 23.042ZM189.987 9.468V19.038L193.727 14.704H196.873L192.781 19.39L196.785 25.198H193.947L191.109 21.128L189.987 22.448V25.198H187.655V9.468H189.987Z" fill="#1860CC"/>
<path d="M231 18.8694V25.2608C231 25.9873 230.696 26.684 230.155 27.1977C229.614 27.7114 228.88 28 228.115 28H226.192C225.427 28 224.693 27.7114 224.153 27.1977C223.612 26.684 223.308 25.9873 223.308 25.2608V20.6955C223.308 19.969 223.612 19.2723 224.153 18.7586C224.693 18.2449 225.427 17.9563 226.192 17.9563H229.035C228.804 15.4706 227.604 13.1565 225.669 11.4674C223.735 9.77841 221.206 8.83628 218.578 8.82574H218.5C215.861 8.82562 213.318 9.76216 211.369 11.4515C209.42 13.1408 208.206 15.461 207.966 17.9563H210.808C211.573 17.9563 212.306 18.2449 212.847 18.7586C213.388 19.2723 213.692 19.969 213.692 20.6955V25.2608C213.692 25.9873 213.388 26.684 212.847 27.1977C212.306 27.7114 211.573 28 210.808 28H208.885C208.12 28 207.386 27.7114 206.845 27.1977C206.304 26.684 206 25.9873 206 25.2608V18.8694C206.003 16.5182 206.74 14.2205 208.118 12.2673C209.497 10.3141 211.455 8.79318 213.744 7.89699C216.033 7.0008 218.551 6.76966 220.978 7.23283C223.406 7.696 225.634 8.83266 227.381 10.4989C228.534 11.5995 229.448 12.9054 230.069 14.3418C230.69 15.7781 231.006 17.3167 231 18.8694Z" fill="#FFB400"/>
</svg>
