<svg width="62" height="32" viewBox="0 0 62 32" fill="none" xmlns="http://www.w3.org/2000/svg">
<mask id="path-1-inside-1_3624_56271" fill="white">
<path d="M0 0H62V32H0V0Z"/>
</mask>
<path d="M62 29H0V35H62V29Z" fill="#BADDFF" mask="url(#path-1-inside-1_3624_56271)"/>
<path d="M25.28 8.3L21.26 23.26H18.96L15.48 12.64L12.32 23.26H10L5.3 8.3H8L11.16 18.62L14.08 8.32H16.86L19.9 18.62L22.58 8.3H25.28ZM26.4919 23.28V13.54H29.0519V14.94C29.7119 14 30.8719 13.48 31.7919 13.54V15.86C30.0719 15.76 29.0519 17.28 29.0519 18.54V23.28H26.4919ZM34.1747 13.52H36.7547V23.26H34.1747V13.52ZM34.0747 10C34.0747 9.2 34.6547 8.62 35.4747 8.62C36.2747 8.62 36.8547 9.2 36.8547 10C36.8547 10.82 36.2747 11.4 35.4747 11.4C34.6547 11.4 34.0747 10.82 34.0747 10ZM40.9378 23.28V15.72H39.0378V13.5H40.9378V10.06H43.5178V13.5H45.8178V15.72H43.5178V23.28H40.9378ZM51.9475 23.3C49.1675 23.3 47.2275 21.3 47.2275 18.44C47.2275 15.56 49.1675 13.54 51.9475 13.54C55.0075 13.54 55.9875 16.04 56.0275 16.16C56.6275 17.44 56.4475 19.1 56.4475 19.36H49.6875C49.9275 20.44 50.9275 21.16 51.9475 21.16C53.2675 21.16 53.8675 20.48 54.0475 20.14L56.1475 20.98C55.6875 22.1 54.3075 23.3 51.9475 23.3ZM49.6875 17.62H54.0675C53.8475 16.5 53.1875 15.68 51.9475 15.68C50.8075 15.68 49.9275 16.44 49.6875 17.62Z" fill="#1E6EFA"/>
</svg>
