<svg width="75" height="42" viewBox="0 0 75 42" fill="none" xmlns="http://www.w3.org/2000/svg">
<path fill-rule="evenodd" clip-rule="evenodd" d="M2.66269 8.77745C7.90898 0.161539 19.1603 -2.57849 27.7933 2.65743C32.573 5.55633 39.8259 7.16177 47.1636 2.68369C55.782 -2.57602 67.0409 0.132966 72.311 8.73438C77.5812 17.3358 74.8668 28.5724 66.2484 33.8321C43.9769 47.4241 21.6206 41.6373 8.79482 33.8584C0.161859 28.6225 -2.58359 17.3934 2.66269 8.77745Z" fill="#FFB400"/>
<path d="M19.43 13.038H21.828V15.546H26.316V13.038H28.692V21.574H19.43V13.038ZM21.344 24.896V23.026H34.082V28.13H23.786V29.714H34.698V31.606H21.388V26.37H31.706V24.896H21.344ZM21.828 19.682H26.316V17.372H21.828V19.682ZM31.662 22.19V12.202H34.082V16.14H36.766V18.12H34.082V22.19H31.662ZM48.4045 17.372H51.8145V12.202H54.2345V26.48H51.8145V19.33H48.4045V17.372ZM37.9105 22.3C41.0125 21.244 42.6625 18.67 42.6625 16.074V15.546H38.5925V13.61H49.1085V15.546H45.1045V16.074C45.1045 18.45 46.6665 20.892 49.6585 21.904L48.4705 23.796C46.2925 23.048 44.7745 21.552 43.9165 19.682C43.0805 21.75 41.4525 23.422 39.1425 24.214L37.9105 22.3ZM41.4525 31.386V25.27H43.8945V29.45H54.7185V31.386H41.4525Z" fill="white"/>
</svg>
