<svg width="34" height="34" viewBox="0 0 34 34" fill="none" xmlns="http://www.w3.org/2000/svg">
<g clip-path="url(#clip0_2796_32802)">
<rect width="34" height="34" rx="10" fill="#B6F4AC"/>
<rect x="10.6255" y="11.499" width="10.4985" height="9.62362" fill="#37C824"/>
<path fill-rule="evenodd" clip-rule="evenodd" d="M9.02535 9.02535C8 10.0498 8 11.6998 8 14.999V18.4985C8 21.7976 8 23.4477 9.02535 24.4721C10.0498 25.4975 11.6998 25.4975 14.999 25.4975H16.7487C20.0479 25.4975 21.6979 25.4975 22.7224 24.4721C23.7477 23.4477 23.7477 21.7976 23.7477 18.4985V14.999C23.7477 11.6998 23.7477 10.0498 22.7224 9.02535C21.6979 8 20.0479 8 16.7487 8H14.999C11.6998 8 10.0498 8 9.02535 9.02535ZM11.7182 13.2492C11.7182 13.0752 11.7873 12.9083 11.9104 12.7853C12.0335 12.6622 12.2003 12.5931 12.3744 12.5931H19.3734C19.5474 12.5931 19.7143 12.6622 19.8373 12.7853C19.9604 12.9083 20.0295 13.0752 20.0295 13.2492C20.0295 13.4233 19.9604 13.5902 19.8373 13.7132C19.7143 13.8363 19.5474 13.9054 19.3734 13.9054H12.3744C12.2003 13.9054 12.0335 13.8363 11.9104 13.7132C11.7873 13.5902 11.7182 13.4233 11.7182 13.2492ZM11.7182 16.7487C11.7182 16.5747 11.7873 16.4078 11.9104 16.2848C12.0335 16.1617 12.2003 16.0926 12.3744 16.0926H19.3734C19.5474 16.0926 19.7143 16.1617 19.8373 16.2848C19.9604 16.4078 20.0295 16.5747 20.0295 16.7487C20.0295 16.9228 19.9604 17.0897 19.8373 17.2127C19.7143 17.3358 19.5474 17.4049 19.3734 17.4049H12.3744C12.2003 17.4049 12.0335 17.3358 11.9104 17.2127C11.7873 17.0897 11.7182 16.9228 11.7182 16.7487ZM12.3744 19.5921C12.2003 19.5921 12.0335 19.6612 11.9104 19.7843C11.7873 19.9073 11.7182 20.0742 11.7182 20.2482C11.7182 20.4223 11.7873 20.5892 11.9104 20.7122C12.0335 20.8353 12.2003 20.9044 12.3744 20.9044H16.7487C16.9228 20.9044 17.0897 20.8353 17.2127 20.7122C17.3358 20.5892 17.4049 20.4223 17.4049 20.2482C17.4049 20.0742 17.3358 19.9073 17.2127 19.7843C17.0897 19.6612 16.9228 19.5921 16.7487 19.5921H12.3744Z" fill="white"/>
<path opacity="0.5" d="M27.3531 21.1479C27.5585 20.9562 27.7215 20.7286 27.8326 20.4781C27.9437 20.2276 28.0009 19.9591 28.0009 19.688C28.0009 19.4168 27.9436 19.1484 27.8324 18.8979C27.7213 18.6474 27.5583 18.4198 27.3529 18.2281C27.1474 18.0364 26.9036 17.8844 26.6352 17.7806C26.3668 17.6769 26.0791 17.6235 25.7886 17.6235C25.202 17.6236 24.6393 17.8412 24.2245 18.2284L23.7256 18.6941L23.747 18.7523C23.993 19.409 24.3956 20.005 24.9243 20.4953C25.4653 21.0033 26.126 21.3863 26.8536 21.6136L27.3531 21.1479Z" fill="#23AD0C"/>
<path d="M23.7473 18.6729L23.7253 18.6928L23.7467 18.7516C23.9928 19.4083 24.3953 20.0043 24.924 20.4946C25.465 21.0026 26.1257 21.3855 26.8534 21.6129L22.0384 26.1069C21.7133 26.4098 21.5507 26.5616 21.3718 26.6918C21.1607 26.8454 20.9323 26.977 20.6907 27.0845C20.4859 27.1758 20.2682 27.2435 19.8323 27.379L17.5356 28.0935C17.4305 28.1264 17.3177 28.1312 17.2098 28.1076C17.1019 28.0839 17.0032 28.0326 16.9248 27.9595C16.8464 27.8864 16.7914 27.7943 16.7659 27.6936C16.7405 27.5929 16.7456 27.4876 16.7807 27.3895L17.5468 25.2454C17.692 24.839 17.7645 24.6358 17.8618 24.4447C17.9772 24.219 18.1183 24.0058 18.2832 23.8084C18.4227 23.6415 18.5852 23.4903 18.9098 23.1874L23.7473 18.6729Z" fill="#13AC00"/>
</g>
<defs>
<clipPath id="clip0_2796_32802">
<rect width="34" height="34" fill="white"/>
</clipPath>
</defs>
</svg>
