<svg width="259" height="34" viewBox="0 0 259 34" fill="none" xmlns="http://www.w3.org/2000/svg">
<path d="M25.375 7.40234H19.1187C17.7762 7.40234 16.4637 7.82378 15.3344 8.61883L14 9.55435L12.6656 8.61883C11.5375 7.82393 10.2235 7.40156 8.88125 7.40234H2.625C2.14102 7.40234 1.75 7.82976 1.75 8.35879V25.3357C1.75 25.8648 2.14102 26.2922 2.625 26.2922H8.88125C10.2238 26.2922 11.5363 26.7136 12.6656 27.5087L13.8797 28.3635C13.9152 28.3874 13.9563 28.4023 13.9973 28.4023C14.0383 28.4023 14.0793 28.3904 14.1148 28.3635L15.3289 27.5087C16.4609 26.7136 17.7762 26.2922 19.1187 26.2922H25.375C25.859 26.2922 26.25 25.8648 26.25 25.3357V8.35879C26.25 7.82976 25.859 7.40234 25.375 7.40234ZM8.88125 24.1402H3.71875V9.55435H8.88125C9.84922 9.55435 10.7898 9.85623 11.602 10.4271L12.9363 11.3626L13.125 11.4971V25.3058C11.8234 24.5407 10.3687 24.1402 8.88125 24.1402ZM24.2812 24.1402H19.1187C17.6313 24.1402 16.1766 24.5407 14.875 25.3058V11.4971L15.0637 11.3626L16.398 10.4271C17.2102 9.85623 18.1508 9.55435 19.1187 9.55435H24.2812V24.1402ZM10.8527 13.3801H5.77227C5.66563 13.3801 5.57812 13.4818 5.57812 13.6043V14.9493C5.57812 15.0719 5.66563 15.1735 5.77227 15.1735H10.85C10.9566 15.1735 11.0441 15.0719 11.0441 14.9493V13.6043C11.0469 13.4818 10.9594 13.3801 10.8527 13.3801ZM16.9531 13.6043V14.9493C16.9531 15.0719 17.0406 15.1735 17.1473 15.1735H22.225C22.3316 15.1735 22.4191 15.0719 22.4191 14.9493V13.6043C22.4191 13.4818 22.3316 13.3801 22.225 13.3801H17.1473C17.0406 13.3801 16.9531 13.4818 16.9531 13.6043ZM10.8527 17.5646H5.77227C5.66563 17.5646 5.57812 17.6662 5.57812 17.7888V19.1338C5.57812 19.2563 5.66563 19.3579 5.77227 19.3579H10.85C10.9566 19.3579 11.0441 19.2563 11.0441 19.1338V17.7888C11.0469 17.6662 10.9594 17.5646 10.8527 17.5646ZM22.2277 17.5646H17.1473C17.0406 17.5646 16.9531 17.6662 16.9531 17.7888V19.1338C16.9531 19.2563 17.0406 19.3579 17.1473 19.3579H22.225C22.3316 19.3579 22.4191 19.2563 22.4191 19.1338V17.7888C22.4219 17.6662 22.3344 17.5646 22.2277 17.5646Z" fill="#6DC389"/>
<path d="M43.656 17.036C44.5507 17.036 45.2693 16.7647 45.812 16.222C46.3693 15.6647 46.648 14.924 46.648 14C46.648 13.076 46.3693 12.3427 45.812 11.8C45.2693 11.2573 44.5507 10.986 43.656 10.986H40.114V17.036H43.656ZM37.782 8.94H43.942C44.9247 8.94 45.7973 9.15267 46.56 9.578C47.3227 10.0033 47.9167 10.6047 48.342 11.382C48.7673 12.1447 48.98 13.0247 48.98 14.022C48.98 15.0927 48.6793 16.046 48.078 16.882C47.4767 17.7033 46.5893 18.3267 45.416 18.752L49.75 25.176H46.934L42.82 19.082H40.114V25.176H37.782V8.94ZM56.3418 25.242C55.3591 25.242 54.4864 25.022 53.7238 24.582C52.9611 24.1273 52.3598 23.504 51.9198 22.712C51.4944 21.9053 51.2818 20.996 51.2818 19.984C51.2818 18.9573 51.4944 18.048 51.9198 17.256C52.3598 16.4493 52.9611 15.826 53.7238 15.386C54.4864 14.9313 55.3591 14.704 56.3418 14.704C57.7058 14.704 58.7251 15.0487 59.3998 15.738C60.0744 16.4127 60.5071 17.014 60.6978 17.542C61.0058 18.2607 61.1598 19.1187 61.1598 20.116C61.1598 20.38 61.1524 20.5707 61.1378 20.688C61.1378 20.7907 61.1378 20.8567 61.1378 20.886H53.5698C53.7018 21.59 54.0318 22.162 54.5598 22.602C55.0878 23.042 55.6818 23.262 56.3418 23.262C57.0898 23.262 57.6691 23.1153 58.0798 22.822C58.4904 22.5287 58.7838 22.2353 58.9598 21.942L60.8298 22.778C60.5364 23.4527 60.0011 24.032 59.2238 24.516C58.4611 25 57.5004 25.242 56.3418 25.242ZM58.9378 19.038C58.8204 18.334 58.5491 17.7693 58.1238 17.344C57.6984 16.904 57.1044 16.684 56.3418 16.684C55.6524 16.684 55.0511 16.904 54.5378 17.344C54.0244 17.784 53.7018 18.3487 53.5698 19.038H58.9378ZM68.2635 25.286C67.3102 25.286 66.4522 25.0587 65.6895 24.604C64.9415 24.1493 64.3548 23.526 63.9295 22.734C63.5042 21.9273 63.2915 21.018 63.2915 20.006C63.2915 18.994 63.5042 18.092 63.9295 17.3C64.3548 16.4933 64.9415 15.8627 65.6895 15.408C66.4522 14.9533 67.3102 14.726 68.2635 14.726C68.8062 14.726 69.3415 14.8507 69.8695 15.1C70.3975 15.3493 70.8668 15.716 71.2775 16.2V14.704H73.6095V25.198H71.2775V23.79C70.8815 24.2887 70.4195 24.6627 69.8915 24.912C69.3635 25.1613 68.8208 25.286 68.2635 25.286ZM65.6235 20.006C65.6235 20.9887 65.8802 21.788 66.3935 22.404C66.9068 23.0053 67.5815 23.306 68.4175 23.306C68.9308 23.306 69.4075 23.1667 69.8475 22.888C70.2875 22.5947 70.6395 22.1987 70.9035 21.7C71.1675 21.1867 71.2995 20.622 71.2995 20.006C71.2995 19.39 71.1675 18.8327 70.9035 18.334C70.6395 17.8207 70.2875 17.4247 69.8475 17.146C69.4075 16.8527 68.9308 16.706 68.4175 16.706C67.5815 16.706 66.9068 17.0067 66.3935 17.608C65.8802 18.2093 65.6235 19.0087 65.6235 20.006ZM81.1976 25.286C80.2443 25.286 79.3863 25.0587 78.6236 24.604C77.861 24.1493 77.267 23.526 76.8416 22.734C76.4163 21.9273 76.2036 21.0107 76.2036 19.984C76.2036 18.9573 76.4163 18.048 76.8416 17.256C77.267 16.4493 77.861 15.8187 78.6236 15.364C79.3863 14.9093 80.2443 14.682 81.1976 14.682C81.6963 14.682 82.2243 14.8067 82.7816 15.056C83.3536 15.3053 83.845 15.7013 84.2556 16.244V9.468H86.5876V25.198H84.2556V23.724C83.8303 24.252 83.3316 24.648 82.7596 24.912C82.2023 25.1613 81.6816 25.286 81.1976 25.286ZM78.5356 20.006C78.5356 21.0033 78.7923 21.81 79.3056 22.426C79.819 23.0273 80.501 23.328 81.3516 23.328C81.8796 23.328 82.3636 23.1813 82.8036 22.888C83.2436 22.5947 83.5956 22.1987 83.8596 21.7C84.1236 21.1867 84.2556 20.622 84.2556 20.006C84.2556 19.4047 84.1236 18.8473 83.8596 18.334C83.5956 17.8207 83.2363 17.4173 82.7816 17.124C82.3416 16.8307 81.865 16.684 81.3516 16.684C80.501 16.684 79.819 16.992 79.3056 17.608C78.7923 18.2093 78.5356 19.0087 78.5356 20.006ZM99.4588 25.286C98.5055 25.286 97.6475 25.0587 96.8848 24.604C96.1368 24.1493 95.5502 23.526 95.1248 22.734C94.6995 21.9273 94.4868 21.018 94.4868 20.006C94.4868 18.994 94.6995 18.092 95.1248 17.3C95.5502 16.4933 96.1368 15.8627 96.8848 15.408C97.6475 14.9533 98.5055 14.726 99.4588 14.726C100.001 14.726 100.537 14.8507 101.065 15.1C101.593 15.3493 102.062 15.716 102.473 16.2V14.704H104.805V25.198H102.473V23.79C102.077 24.2887 101.615 24.6627 101.087 24.912C100.559 25.1613 100.016 25.286 99.4588 25.286ZM96.8188 20.006C96.8188 20.9887 97.0755 21.788 97.5888 22.404C98.1022 23.0053 98.7768 23.306 99.6128 23.306C100.126 23.306 100.603 23.1667 101.043 22.888C101.483 22.5947 101.835 22.1987 102.099 21.7C102.363 21.1867 102.495 20.622 102.495 20.006C102.495 19.39 102.363 18.8327 102.099 18.334C101.835 17.8207 101.483 17.4247 101.043 17.146C100.603 16.8527 100.126 16.706 99.6128 16.706C98.7768 16.706 98.1022 17.0067 97.5888 17.608C97.0755 18.2093 96.8188 19.0087 96.8188 20.006ZM114.817 19.412C114.817 18.576 114.611 17.9233 114.201 17.454C113.79 16.97 113.225 16.728 112.507 16.728C111.788 16.7427 111.187 17.0067 110.703 17.52C110.219 18.0187 109.984 18.6493 109.999 19.412V25.198H107.667V14.704H109.999V16.134C110.336 15.7233 110.761 15.386 111.275 15.122C111.788 14.858 112.294 14.726 112.793 14.726C113.511 14.726 114.201 14.8873 114.861 15.21C115.521 15.5327 116.063 16.0387 116.489 16.728C116.929 17.4173 117.149 18.2827 117.149 19.324V25.198H114.817V19.412ZM124.51 25.286C123.557 25.286 122.699 25.0587 121.936 24.604C121.173 24.1493 120.579 23.526 120.154 22.734C119.729 21.9273 119.516 21.0107 119.516 19.984C119.516 18.9573 119.729 18.048 120.154 17.256C120.579 16.4493 121.173 15.8187 121.936 15.364C122.699 14.9093 123.557 14.682 124.51 14.682C125.009 14.682 125.537 14.8067 126.094 15.056C126.666 15.3053 127.157 15.7013 127.568 16.244V9.468H129.9V25.198H127.568V23.724C127.143 24.252 126.644 24.648 126.072 24.912C125.515 25.1613 124.994 25.286 124.51 25.286ZM121.848 20.006C121.848 21.0033 122.105 21.81 122.618 22.426C123.131 23.0273 123.813 23.328 124.664 23.328C125.192 23.328 125.676 23.1813 126.116 22.888C126.556 22.5947 126.908 22.1987 127.172 21.7C127.436 21.1867 127.568 20.622 127.568 20.006C127.568 19.4047 127.436 18.8473 127.172 18.334C126.908 17.8207 126.549 17.4173 126.094 17.124C125.654 16.8307 125.177 16.684 124.664 16.684C123.813 16.684 123.131 16.992 122.618 17.608C122.105 18.2093 121.848 19.0087 121.848 20.006ZM144.289 17.036C145.169 17.036 145.888 16.7573 146.445 16.2C147.003 15.628 147.281 14.8947 147.281 14C147.281 13.12 146.995 12.4013 146.423 11.844C145.866 11.272 145.147 10.986 144.267 10.986H140.703V17.036H144.289ZM138.371 8.94H144.355C145.367 8.94 146.269 9.16 147.061 9.6C147.853 10.0253 148.469 10.6193 148.909 11.382C149.364 12.1447 149.591 13.0173 149.591 14C149.591 14.9827 149.364 15.8553 148.909 16.618C148.469 17.3807 147.853 17.982 147.061 18.422C146.269 18.8473 145.367 19.06 144.355 19.06H140.703V25.176H138.371V8.94ZM154.021 20.688C154.021 21.48 154.233 22.1107 154.659 22.58C155.084 23.0493 155.649 23.284 156.353 23.284C157.101 23.284 157.702 23.0567 158.157 22.602C158.611 22.1327 158.831 21.502 158.817 20.71V14.704H161.171V25.198H158.817V23.988C158.494 24.384 158.083 24.6993 157.585 24.934C157.086 25.1687 156.573 25.286 156.045 25.286C155.209 25.286 154.461 25.0953 153.801 24.714C153.141 24.3327 152.62 23.8047 152.239 23.13C151.872 22.4407 151.689 21.656 151.689 20.776V14.704H154.021V20.688ZM165.49 16.706H163.51V14.682H165.49V11.008H167.822V14.682H170.308V16.706H167.822V25.198H165.49V16.706ZM180.772 14.682V25.176H178.44V14.682H180.772ZM178.286 10.766C178.286 10.3847 178.411 10.0693 178.66 9.82C178.91 9.57067 179.225 9.446 179.606 9.446C179.988 9.446 180.303 9.57067 180.552 9.82C180.802 10.0693 180.926 10.3847 180.926 10.766C180.926 11.1473 180.802 11.4627 180.552 11.712C180.303 11.9613 179.988 12.086 179.606 12.086C179.225 12.086 178.91 11.9613 178.66 11.712C178.411 11.4627 178.286 11.1473 178.286 10.766ZM191.172 19.412C191.172 18.576 190.967 17.9233 190.556 17.454C190.145 16.97 189.581 16.728 188.862 16.728C188.143 16.7427 187.542 17.0067 187.058 17.52C186.574 18.0187 186.339 18.6493 186.354 19.412V25.198H184.022V14.704H186.354V16.134C186.691 15.7233 187.117 15.386 187.63 15.122C188.143 14.858 188.649 14.726 189.148 14.726C189.867 14.726 190.556 14.8873 191.216 15.21C191.876 15.5327 192.419 16.0387 192.844 16.728C193.284 17.4173 193.504 18.2827 193.504 19.324V25.198H191.172V19.412ZM209.671 23.306C210.8 23.306 211.797 23.0493 212.663 22.536C213.543 22.008 214.217 21.2747 214.687 20.336C215.171 19.3827 215.413 18.29 215.413 17.058C215.413 15.826 215.171 14.7407 214.687 13.802C214.217 12.8487 213.543 12.1153 212.663 11.602C211.797 11.074 210.8 10.81 209.671 10.81C208.541 10.81 207.544 11.074 206.679 11.602C205.813 12.1153 205.139 12.8487 204.655 13.802C204.185 14.7407 203.951 15.826 203.951 17.058C203.951 18.29 204.185 19.3827 204.655 20.336C205.139 21.2747 205.813 22.008 206.679 22.536C207.544 23.0493 208.541 23.306 209.671 23.306ZM201.597 17.058C201.597 15.4593 201.941 14.0293 202.631 12.768C203.32 11.5067 204.273 10.524 205.491 9.82C206.723 9.116 208.116 8.764 209.671 8.764C211.24 8.764 212.633 9.116 213.851 9.82C215.083 10.524 216.043 11.5067 216.733 12.768C217.422 14.0293 217.767 15.4593 217.767 17.058C217.767 18.6567 217.422 20.0867 216.733 21.348C216.043 22.6093 215.083 23.592 213.851 24.296C212.633 25 211.24 25.352 209.671 25.352C208.116 25.352 206.723 25 205.491 24.296C204.273 23.592 203.32 22.6093 202.631 21.348C201.941 20.0867 201.597 18.6567 201.597 17.058ZM220.221 14.704H222.553V16.244C222.905 15.7453 223.374 15.3493 223.961 15.056C224.547 14.7627 225.149 14.6307 225.765 14.66V16.816C225.163 16.7867 224.613 16.926 224.115 17.234C223.631 17.5273 223.249 17.9233 222.971 18.422C222.692 18.9207 222.553 19.4413 222.553 19.984V25.198H220.221V14.704ZM231.953 25.286C231 25.286 230.142 25.0587 229.379 24.604C228.617 24.1493 228.023 23.526 227.597 22.734C227.172 21.9273 226.959 21.0107 226.959 19.984C226.959 18.9573 227.172 18.048 227.597 17.256C228.023 16.4493 228.617 15.8187 229.379 15.364C230.142 14.9093 231 14.682 231.953 14.682C232.452 14.682 232.98 14.8067 233.537 15.056C234.109 15.3053 234.601 15.7013 235.011 16.244V9.468H237.343V25.198H235.011V23.724C234.586 24.252 234.087 24.648 233.515 24.912C232.958 25.1613 232.437 25.286 231.953 25.286ZM229.291 20.006C229.291 21.0033 229.548 21.81 230.061 22.426C230.575 23.0273 231.257 23.328 232.107 23.328C232.635 23.328 233.119 23.1813 233.559 22.888C233.999 22.5947 234.351 22.1987 234.615 21.7C234.879 21.1867 235.011 20.622 235.011 20.006C235.011 19.4047 234.879 18.8473 234.615 18.334C234.351 17.8207 233.992 17.4173 233.537 17.124C233.097 16.8307 232.621 16.684 232.107 16.684C231.257 16.684 230.575 16.992 230.061 17.608C229.548 18.2093 229.291 19.0087 229.291 20.006ZM244.803 25.242C243.82 25.242 242.947 25.022 242.185 24.582C241.422 24.1273 240.821 23.504 240.381 22.712C239.955 21.9053 239.743 20.996 239.743 19.984C239.743 18.9573 239.955 18.048 240.381 17.256C240.821 16.4493 241.422 15.826 242.185 15.386C242.947 14.9313 243.82 14.704 244.803 14.704C246.167 14.704 247.186 15.0487 247.861 15.738C248.535 16.4127 248.968 17.014 249.159 17.542C249.467 18.2607 249.621 19.1187 249.621 20.116C249.621 20.38 249.613 20.5707 249.599 20.688C249.599 20.7907 249.599 20.8567 249.599 20.886H242.031C242.163 21.59 242.493 22.162 243.021 22.602C243.549 23.042 244.143 23.262 244.803 23.262C245.551 23.262 246.13 23.1153 246.541 22.822C246.951 22.5287 247.245 22.2353 247.421 21.942L249.291 22.778C248.997 23.4527 248.462 24.032 247.685 24.516C246.922 25 245.961 25.242 244.803 25.242ZM247.399 19.038C247.281 18.334 247.01 17.7693 246.585 17.344C246.159 16.904 245.565 16.684 244.803 16.684C244.113 16.684 243.512 16.904 242.999 17.344C242.485 17.784 242.163 18.3487 242.031 19.038H247.399ZM251.975 14.704H254.307V16.244C254.659 15.7453 255.128 15.3493 255.715 15.056C256.301 14.7627 256.903 14.6307 257.519 14.66V16.816C256.917 16.7867 256.367 16.926 255.869 17.234C255.385 17.5273 255.003 17.9233 254.725 18.422C254.446 18.9207 254.307 19.4413 254.307 19.984V25.198H251.975V14.704Z" fill="#007637"/>
</svg>
