<svg width="211" height="44" viewBox="0 0 211 44" fill="none" xmlns="http://www.w3.org/2000/svg">
<path d="M6.86975 44C6.86975 24.1178 22.9875 8 42.8698 8H191.037C200.978 8 209.037 16.0589 209.037 26C209.037 35.9411 200.978 44 191.037 44H6.86975Z" fill="#A66EB9"/>
<path d="M45.3558 17.962H59.5458V19.964C59.5458 22.406 59.5458 25.046 58.8418 28.874L56.4658 28.632C57.1258 25.002 57.1258 22.34 57.1258 19.964V19.92H45.3558V17.962ZM43.6178 33.252V31.272H47.5778V25.002H49.9538V31.272H52.4178V25.002H54.7938V31.272H61.3278V33.252H43.6178ZM64.9583 17.39H78.3783V19.106C78.3783 20.954 78.3783 22.956 77.8723 25.75H80.5563V27.73H72.8563V35.804H70.4143V27.73H62.8463V25.75H75.4303C75.9803 23.11 76.0023 21.108 76.0023 19.326H64.9583V17.39ZM97.5408 34.154H94.2188L92.8768 32.68C91.7108 33.736 90.2148 34.506 88.3448 34.506C83.2848 34.506 82.9768 30.348 82.9768 29.71C82.9768 29.138 83.2408 26.63 85.7048 25.024C84.9348 24.232 84.1208 23.286 84.1208 21.79C84.1208 20.14 85.5068 17.786 88.3448 17.786C91.1168 17.786 92.6348 20.008 92.6348 21.79C92.6348 23.44 91.5568 24.606 89.7308 25.662L92.7888 29.028C93.2728 28.28 93.7128 27.444 94.1088 26.696L96.2208 27.862C95.7808 28.72 95.2308 29.798 94.4828 30.854L97.5408 34.154ZM85.3968 29.71C85.3968 30.194 85.5508 32.086 88.3448 32.086C89.4888 32.086 90.4348 31.624 91.2268 30.92L87.4648 26.806C85.5948 27.752 85.3968 29.314 85.3968 29.71ZM86.5408 21.79C86.5408 22.56 87.2448 23.066 88.0368 23.858C89.6208 23.088 90.2148 22.56 90.2148 21.79C90.2148 20.976 89.6428 20.206 88.3448 20.206C86.9808 20.206 86.5408 21.02 86.5408 21.79ZM107.696 28.456C111.898 28.456 114.604 29.842 114.604 32.13C114.604 34.396 111.898 35.782 107.696 35.782C103.494 35.782 100.81 34.396 100.81 32.13C100.81 29.842 103.494 28.456 107.696 28.456ZM98.962 27.026V25.09H105.782V21.548H108.18V25.09H116.606V27.026H98.962ZM100.986 19.04V17.126H114.45V18.754C114.45 20.316 114.45 21.944 113.922 23.968L111.546 23.704C112.03 21.834 112.052 20.448 112.052 19.04H100.986ZM103.208 32.13C103.208 33.296 104.88 33.934 107.696 33.934C110.512 33.934 112.184 33.296 112.184 32.13C112.184 30.942 110.512 30.282 107.696 30.282C104.88 30.282 103.208 30.942 103.208 32.13ZM118.191 18.028H122.745V16.07H125.165V18.028H129.719V19.964H118.191V18.028ZM119.203 24.32C119.203 22.164 121.139 20.712 123.955 20.712C126.771 20.712 128.729 22.164 128.729 24.32C128.729 26.454 126.771 27.884 123.955 27.884C121.139 27.884 119.203 26.454 119.203 24.32ZM120.567 31.294V29.358H133.481V35.782H131.061V31.294H120.567ZM121.513 24.32C121.513 25.398 122.503 26.058 123.955 26.058C125.407 26.058 126.397 25.398 126.397 24.32C126.397 23.198 125.407 22.56 123.955 22.56C122.503 22.56 121.513 23.198 121.513 24.32ZM131.061 28.456V16.202H133.481V21.372H136.209V23.352H133.481V28.456H131.061ZM139.531 17.61H152.995V19.546H141.951V25.068H153.171V27.004H147.429V31.47H155.129V33.45H137.397V31.47H145.031V27.004H139.531V17.61ZM158.738 17.39H172.158V19.106C172.158 20.954 172.158 22.956 171.652 25.75H174.336V27.73H166.636V35.804H164.194V27.73H156.626V25.75H169.21C169.76 23.11 169.782 21.108 169.782 19.326H158.738V17.39Z" fill="white"/>
<path d="M179.87 16.4706C179.87 15.1061 180.98 14 182.349 14H194.391C195.76 14 196.87 15.1061 196.87 16.4706V35.5294C196.87 36.8939 195.76 38 194.391 38H182.349C180.98 38 179.87 36.8939 179.87 35.5294V16.4706Z" fill="#124899"/>
<path d="M182.389 17.4647C182.389 16.9427 182.812 16.5197 183.334 16.5197H193.414C193.936 16.5197 194.359 16.9427 194.359 17.4647V20.6147C194.359 21.1366 193.936 21.5597 193.414 21.5597H183.334C182.812 21.5597 182.389 21.1366 182.389 20.6147V17.4647Z" fill="#BCD7FF"/>
<path d="M185.539 24.3953C185.539 25.2652 184.834 25.9703 183.964 25.9703C183.094 25.9703 182.389 25.2652 182.389 24.3953C182.389 23.5255 183.094 22.8203 183.964 22.8203C184.834 22.8203 185.539 23.5255 185.539 24.3953Z" fill="#F4F8FF"/>
<path d="M185.539 28.8055C185.539 29.6753 184.834 30.3805 183.964 30.3805C183.094 30.3805 182.389 29.6753 182.389 28.8055C182.389 27.9356 183.094 27.2305 183.964 27.2305C184.834 27.2305 185.539 27.9356 185.539 28.8055Z" fill="#F4F8FF"/>
<path d="M189.949 24.3953C189.949 25.2652 189.244 25.9703 188.374 25.9703C187.505 25.9703 186.799 25.2652 186.799 24.3953C186.799 23.5255 187.505 22.8203 188.374 22.8203C189.244 22.8203 189.949 23.5255 189.949 24.3953Z" fill="#F4F8FF"/>
<path d="M189.949 28.8055C189.949 29.6753 189.244 30.3805 188.374 30.3805C187.505 30.3805 186.799 29.6753 186.799 28.8055C186.799 27.9356 187.505 27.2305 188.374 27.2305C189.244 27.2305 189.949 27.9356 189.949 28.8055Z" fill="#F4F8FF"/>
<path d="M194.36 24.3953C194.36 25.2652 193.654 25.9703 192.785 25.9703C191.915 25.9703 191.21 25.2652 191.21 24.3953C191.21 23.5255 191.915 22.8203 192.785 22.8203C193.654 22.8203 194.36 23.5255 194.36 24.3953Z" fill="#F4F8FF"/>
<path d="M194.36 28.8055C194.36 29.6753 193.654 30.3805 192.785 30.3805C191.915 30.3805 191.21 29.6753 191.21 28.8055C191.21 27.9356 191.915 27.2305 192.785 27.2305C193.654 27.2305 194.36 27.9356 194.36 28.8055Z" fill="#F4F8FF"/>
<path d="M194.36 33.2156C194.36 34.0855 193.654 34.7906 192.785 34.7906C191.915 34.7906 191.21 34.0855 191.21 33.2156C191.21 32.3458 191.915 31.6406 192.785 31.6406C193.654 31.6406 194.36 32.3458 194.36 33.2156Z" fill="#F4F8FF"/>
<path d="M182.389 33.2156C182.389 32.3458 183.094 31.6406 183.964 31.6406H188.374C189.244 31.6406 189.949 32.3458 189.949 33.2156C189.949 34.0855 189.244 34.7906 188.374 34.7906H183.964C183.094 34.7906 182.389 34.0855 182.389 33.2156Z" fill="#F4F8FF"/>
<path d="M11.4219 33.9934C20.3219 37.214 30.0871 32.4521 33.2336 23.3424C36.3801 14.2327 31.7278 4.2374 22.8278 1.00531C13.9278 -2.21529 4.16252 2.55809 1.01606 11.6678C-2.13041 20.7774 2.52187 30.7728 11.4219 33.9934Z" fill="#4B6F98"/>
<path d="M14.9051 16.676C15.1523 18.9541 13.6802 20.6684 11.6575 20.91C9.63479 21.1401 7.83681 19.8515 7.57835 17.5274C7.27494 14.7546 8.66838 12.3039 10.6911 12.0738C12.7138 11.8437 14.6017 13.9032 14.9051 16.676Z" fill="white"/>
<mask id="mask0_4959_18642" style="mask-type:luminance" maskUnits="userSpaceOnUse" x="7" y="12" width="8" height="9">
<path d="M10.6892 12.0739C8.66642 12.304 7.27299 14.7432 7.5764 17.5275C7.83486 19.8631 9.63284 21.1402 11.6556 20.9101C13.6783 20.68 15.1504 18.9542 14.9032 16.6761C14.611 14.0413 12.9029 12.0509 11.0038 12.0509C10.9027 12.0509 10.7903 12.0509 10.6892 12.0739Z" fill="white"/>
</mask>
<g mask="url(#mask0_4959_18642)">
<path d="M10.2402 15.8356C10.0941 16.7097 9.47623 17.2733 8.86959 17.1008C8.26295 16.9168 7.89222 16.0656 8.03827 15.1799C8.18431 14.3058 8.80219 13.7422 9.40883 13.9147C10.0155 14.0988 10.3862 14.9499 10.2402 15.8356Z" fill="#231815"/>
</g>
<path d="M14.9051 16.676C15.1523 18.9541 13.6802 20.6684 11.6575 20.91C9.63479 21.1401 7.83681 19.8515 7.57835 17.5274C7.27494 14.7546 8.66838 12.3039 10.6911 12.0738C12.7138 11.8437 14.6017 13.9032 14.9051 16.676Z" stroke="#231815" stroke-width="0.575273" stroke-miterlimit="10"/>
<path d="M25.382 15.447C25.6293 17.7251 24.1572 19.4394 22.1344 19.681C20.1117 19.9111 18.3137 18.6225 18.0553 16.2984C17.7519 13.5256 19.1453 11.0749 21.168 10.8448C23.1908 10.6147 25.0786 12.6742 25.382 15.447Z" fill="white"/>
<mask id="mask1_4959_18642" style="mask-type:luminance" maskUnits="userSpaceOnUse" x="18" y="10" width="8" height="10">
<path d="M21.17 10.8447C19.1473 11.0748 17.7538 13.5139 18.0572 16.2983C18.3157 18.6339 20.1137 19.911 22.1364 19.6809C24.1591 19.4507 25.6312 17.7249 25.384 15.4468C25.0918 12.8121 23.3837 10.8217 21.4846 10.8217C21.3835 10.8217 21.2711 10.8217 21.17 10.8447Z" fill="white"/>
</mask>
<g mask="url(#mask1_4959_18642)">
<path d="M20.719 14.6064C20.573 15.4806 19.9551 16.0442 19.3485 15.8717C18.7418 15.6876 18.3711 14.8365 18.5171 13.9508C18.6632 13.0767 19.2811 12.5131 19.8877 12.6856C20.4944 12.8696 20.8651 13.7208 20.719 14.6064Z" fill="#231815"/>
</g>
<path d="M25.382 15.447C25.6293 17.7251 24.1572 19.4394 22.1344 19.681C20.1117 19.9111 18.3137 18.6225 18.0553 16.2984C17.7519 13.5256 19.1453 11.0749 21.168 10.8448C23.1908 10.6147 25.0786 12.6742 25.382 15.447Z" stroke="#231815" stroke-width="0.575273" stroke-miterlimit="10"/>
<path d="M8.29773 10.6472C8.29773 10.6472 10.7587 8.76027 12.759 10.4631" stroke="#231815" stroke-width="0.575273" stroke-miterlimit="10" stroke-linecap="round"/>
<path d="M23.3446 9.16298C23.3446 9.16298 20.5802 7.79383 18.9283 9.86482" stroke="#231815" stroke-width="0.575273" stroke-miterlimit="10" stroke-linecap="round"/>
<path d="M13.6574 22.866C14.4777 22.0836 15.9835 21.9686 16.9724 21.796C18.3097 21.5774 19.6469 21.4278 20.9954 21.3588C21.546 21.3243 22.1529 21.3243 22.5799 21.681C23.5351 22.4403 23.2878 23.844 22.9395 24.8565C22.5686 25.9265 22.063 27.0195 21.2988 27.8594C19.7481 29.5622 17.613 29.1595 15.8599 28.0205C14.489 27.1345 12.6011 25.5468 13.1854 23.6484C13.2866 23.3377 13.4551 23.0846 13.6686 22.8775" fill="#231815"/>
<mask id="mask2_4959_18642" style="mask-type:luminance" maskUnits="userSpaceOnUse" x="13" y="21" width="11" height="9">
<path d="M20.9947 21.3703C19.6462 21.4393 18.3089 21.5889 16.9717 21.8075C15.9828 21.9686 14.477 22.0951 13.6567 22.8775C13.4432 23.0846 13.2746 23.3377 13.1735 23.6484C12.5891 25.5468 14.4882 27.1345 15.8592 28.0205C17.6235 29.1595 19.7473 29.5622 21.2981 27.8594C22.0622 27.0195 22.5791 25.938 22.9387 24.8565C23.2871 23.844 23.5343 22.4403 22.5791 21.6809C22.242 21.4163 21.8038 21.3473 21.3655 21.3473C21.2419 21.3473 21.107 21.3473 20.9834 21.3588" fill="white"/>
</mask>
<g mask="url(#mask2_4959_18642)">
<path d="M12.8031 21.2438C12.7132 21.3128 12.9492 23.683 14.6236 23.8901C16.298 24.0857 21.6357 23.3953 23.5798 21.1518C25.5126 18.9082 12.8031 21.2553 12.8031 21.2553" fill="white"/>
<path d="M23.3538 28.8719C23.3538 28.8719 23.1403 24.8565 18.9937 24.9946C14.8471 25.1326 12.3075 28.7799 12.3075 28.7799C12.3075 28.7799 19.7803 31.8518 23.3538 28.8719Z" fill="#EB6168"/>
</g>
</svg>
