<svg width="89" height="36" viewBox="0 0 89 36" fill="none" xmlns="http://www.w3.org/2000/svg">
<mask id="path-1-outside-1_1960_5616" maskUnits="userSpaceOnUse" x="-0.735732" y="4.67314" width="59.7363" height="27.8194" fill="black">
<rect fill="white" x="-0.735732" y="4.67314" width="59.7363" height="27.8194"/>
<path d="M11.6128 15.5185L14.7336 15.2538L14.4354 11.7384L16.4083 11.5711L17.4123 23.4086L15.4394 23.5759L14.8705 16.868L11.7497 17.1327L11.6128 15.5185ZM3.77887 20.9159C6.23325 19.8225 7.35392 17.4875 7.15616 15.1558L7.001 13.3264L8.99185 13.1576L9.14854 15.0049C9.32956 17.1393 10.76 19.0954 13.2558 19.7688L12.3434 21.3637C10.5847 20.8625 9.26013 19.7284 8.46416 18.2243C7.93017 20.0218 6.73952 21.5319 4.95148 22.388L3.77887 20.9159ZM7.27835 28.0978L6.85089 23.0579L8.82381 22.8906L9.1174 26.3521L17.9597 25.6022L18.0935 27.1805L7.27835 28.0978ZM21.9418 12.0592L23.843 11.898L24.0088 13.8529C24.1578 15.6106 25.2919 17.2667 27.4424 17.9153L26.5284 19.4922C25.0822 19.0548 24.0106 18.1341 23.3481 16.9258C22.8779 18.4108 21.959 19.7171 20.4893 20.4921L19.3197 19.0558C21.4093 17.9212 22.2612 15.8257 22.1076 14.0142L21.9418 12.0592ZM22.6771 24.1363C22.5219 22.3068 24.5261 21.0168 27.8441 20.7354C31.1802 20.4525 33.3729 21.3865 33.5281 23.2159C33.6848 25.0633 31.6791 26.3354 28.3431 26.6183C25.025 26.8997 22.8338 25.9836 22.6771 24.1363ZM24.632 23.9705C24.7111 24.9031 26.0287 25.3152 28.2168 25.1296C30.4229 24.9425 31.6343 24.3159 31.5552 23.3833C31.4761 22.4506 30.178 22.0549 27.9719 22.242C25.7838 22.4276 24.5529 23.0378 24.632 23.9705ZM27.8684 19.9566L27.1063 10.9708L28.9536 10.8142L29.2701 14.5448L30.8125 14.4139L30.4702 10.3784L32.3535 10.2187L33.1841 20.0115L31.3008 20.1713L30.9479 16.0102L29.4054 16.141L29.7158 19.7999L27.8684 19.9566ZM45.7144 9.06743L47.6873 8.90009L48.4495 17.8858L46.4765 18.0532L45.7144 9.06743ZM36.1203 17.9922L35.5149 10.8538L37.4699 10.688L37.9369 16.1942C40.4105 15.9664 42.5117 15.6075 44.7305 14.9316L45.117 16.5065C42.6337 17.2591 40.2814 17.6392 37.4655 17.8781L36.1203 17.9922ZM38.5142 25.5569L37.9985 19.4768L48.5088 18.5853L49.0245 24.6655L38.5142 25.5569ZM40.3189 23.8322L46.9551 23.2694L46.7041 20.31L40.0679 20.8729L40.3189 23.8322ZM53.9592 9.3617L54.5241 19.43L52.6947 19.5851L51.502 9.5701L53.9592 9.3617ZM52.7347 22.3998C52.6784 21.7362 53.1067 21.2483 53.7703 21.192C54.416 21.1372 54.9024 21.5476 54.9587 22.2112C55.015 22.8748 54.6062 23.3792 53.9605 23.4339C53.2969 23.4902 52.791 23.0634 52.7347 22.3998Z"/>
</mask>
<path d="M11.6128 15.5185L14.7336 15.2538L14.4354 11.7384L16.4083 11.5711L17.4123 23.4086L15.4394 23.5759L14.8705 16.868L11.7497 17.1327L11.6128 15.5185ZM3.77887 20.9159C6.23325 19.8225 7.35392 17.4875 7.15616 15.1558L7.001 13.3264L8.99185 13.1576L9.14854 15.0049C9.32956 17.1393 10.76 19.0954 13.2558 19.7688L12.3434 21.3637C10.5847 20.8625 9.26013 19.7284 8.46416 18.2243C7.93017 20.0218 6.73952 21.5319 4.95148 22.388L3.77887 20.9159ZM7.27835 28.0978L6.85089 23.0579L8.82381 22.8906L9.1174 26.3521L17.9597 25.6022L18.0935 27.1805L7.27835 28.0978ZM21.9418 12.0592L23.843 11.898L24.0088 13.8529C24.1578 15.6106 25.2919 17.2667 27.4424 17.9153L26.5284 19.4922C25.0822 19.0548 24.0106 18.1341 23.3481 16.9258C22.8779 18.4108 21.959 19.7171 20.4893 20.4921L19.3197 19.0558C21.4093 17.9212 22.2612 15.8257 22.1076 14.0142L21.9418 12.0592ZM22.6771 24.1363C22.5219 22.3068 24.5261 21.0168 27.8441 20.7354C31.1802 20.4525 33.3729 21.3865 33.5281 23.2159C33.6848 25.0633 31.6791 26.3354 28.3431 26.6183C25.025 26.8997 22.8338 25.9836 22.6771 24.1363ZM24.632 23.9705C24.7111 24.9031 26.0287 25.3152 28.2168 25.1296C30.4229 24.9425 31.6343 24.3159 31.5552 23.3833C31.4761 22.4506 30.178 22.0549 27.9719 22.242C25.7838 22.4276 24.5529 23.0378 24.632 23.9705ZM27.8684 19.9566L27.1063 10.9708L28.9536 10.8142L29.2701 14.5448L30.8125 14.4139L30.4702 10.3784L32.3535 10.2187L33.1841 20.0115L31.3008 20.1713L30.9479 16.0102L29.4054 16.141L29.7158 19.7999L27.8684 19.9566ZM45.7144 9.06743L47.6873 8.90009L48.4495 17.8858L46.4765 18.0532L45.7144 9.06743ZM36.1203 17.9922L35.5149 10.8538L37.4699 10.688L37.9369 16.1942C40.4105 15.9664 42.5117 15.6075 44.7305 14.9316L45.117 16.5065C42.6337 17.2591 40.2814 17.6392 37.4655 17.8781L36.1203 17.9922ZM38.5142 25.5569L37.9985 19.4768L48.5088 18.5853L49.0245 24.6655L38.5142 25.5569ZM40.3189 23.8322L46.9551 23.2694L46.7041 20.31L40.0679 20.8729L40.3189 23.8322ZM53.9592 9.3617L54.5241 19.43L52.6947 19.5851L51.502 9.5701L53.9592 9.3617ZM52.7347 22.3998C52.6784 21.7362 53.1067 21.2483 53.7703 21.192C54.416 21.1372 54.9024 21.5476 54.9587 22.2112C55.015 22.8748 54.6062 23.3792 53.9605 23.4339C53.2969 23.4902 52.791 23.0634 52.7347 22.3998Z" fill="#996500"/>
<path d="M11.6128 15.5185L11.3592 12.5292C9.70829 12.6693 8.48347 14.1211 8.62349 15.772L11.6128 15.5185ZM14.7336 15.2538L14.9871 18.2431C16.638 18.1031 17.8628 16.6512 17.7228 15.0003L14.7336 15.2538ZM14.4354 11.7384L14.1819 8.74917C12.5309 8.88919 11.3061 10.341 11.4461 11.992L14.4354 11.7384ZM16.4083 11.5711L19.3976 11.3176C19.2576 9.66664 17.8057 8.44181 16.1548 8.58183L16.4083 11.5711ZM17.4123 23.4086L17.6658 26.3979C19.3168 26.2578 20.5416 24.806 20.4016 23.1551L17.4123 23.4086ZM15.4394 23.5759L12.4501 23.8295C12.5902 25.4804 14.042 26.7052 15.6929 26.5652L15.4394 23.5759ZM14.8705 16.868L17.8597 16.6145C17.7197 14.9636 16.2679 13.7387 14.6169 13.8787L14.8705 16.868ZM11.7497 17.1327L8.7604 17.3862C8.90042 19.0372 10.3523 20.262 12.0032 20.122L11.7497 17.1327ZM3.77887 20.9159L2.55813 18.1755C1.71014 18.5532 1.0848 19.3023 0.86454 20.2041C0.64428 21.1059 0.853915 22.0588 1.43229 22.785L3.77887 20.9159ZM7.001 13.3264L6.74746 10.3371C5.09654 10.4772 3.87171 11.929 4.01173 13.5799L7.001 13.3264ZM8.99185 13.1576L11.9811 12.904C11.8411 11.2531 10.3892 10.0283 8.73832 10.1683L8.99185 13.1576ZM13.2558 19.7688L15.8598 21.2587C16.3214 20.4518 16.3829 19.4764 16.0262 18.6178C15.6696 17.7593 14.935 17.1146 14.0374 16.8724L13.2558 19.7688ZM12.3434 21.3637L11.5212 24.2488C12.8482 24.627 14.262 24.0512 14.9473 22.8535L12.3434 21.3637ZM8.46416 18.2243L11.1158 16.8211C10.5457 15.7438 9.38054 15.1185 8.1677 15.239C6.95487 15.3594 5.93545 16.2016 5.58837 17.37L8.46416 18.2243ZM4.95148 22.388L2.6049 24.2571C3.47578 25.3505 4.98638 25.6975 6.24711 25.0938L4.95148 22.388ZM7.27835 28.0978L4.28908 28.3514C4.42911 30.0023 5.88096 31.2271 7.53189 31.0871L7.27835 28.0978ZM6.85089 23.0579L6.59735 20.0686C4.94643 20.2087 3.7216 21.6605 3.86162 23.3114L6.85089 23.0579ZM8.82381 22.8906L11.8131 22.637C11.6731 20.9861 10.2212 19.7613 8.57027 19.9013L8.82381 22.8906ZM9.1174 26.3521L6.12813 26.6057C6.26816 28.2566 7.72001 29.4814 9.37094 29.3414L9.1174 26.3521ZM17.9597 25.6022L20.9489 25.3487C20.8089 23.6977 19.357 22.4729 17.7061 22.6129L17.9597 25.6022ZM18.0935 27.1805L18.3471 30.1698C19.998 30.0298 21.2228 28.5779 21.0828 26.927L18.0935 27.1805ZM11.8663 18.5078L14.9871 18.2431L14.48 12.2645L11.3592 12.5292L11.8663 18.5078ZM17.7228 15.0003L17.4247 11.4849L11.4461 11.992L11.7443 15.5073L17.7228 15.0003ZM14.6889 14.7277L16.6618 14.5604L16.1548 8.58183L14.1819 8.74917L14.6889 14.7277ZM13.419 11.8246L14.423 23.6621L20.4016 23.1551L19.3976 11.3176L13.419 11.8246ZM17.1588 20.4193L15.1859 20.5867L15.6929 26.5652L17.6658 26.3979L17.1588 20.4193ZM18.4287 23.3224L17.8597 16.6145L11.8812 17.1216L12.4501 23.8295L18.4287 23.3224ZM14.6169 13.8787L11.4961 14.1434L12.0032 20.122L15.124 19.8573L14.6169 13.8787ZM14.7389 16.8792L14.602 15.265L8.62349 15.772L8.7604 17.3862L14.7389 16.8792ZM4.99962 23.6563C8.73686 21.9915 10.44 18.3752 10.1454 14.9023L4.1669 15.4094C4.26786 16.5998 3.72965 17.6536 2.55813 18.1755L4.99962 23.6563ZM10.1454 14.9023L9.99027 13.0729L4.01173 13.5799L4.1669 15.4094L10.1454 14.9023ZM7.25454 16.3157L9.24539 16.1468L8.73832 10.1683L6.74746 10.3371L7.25454 16.3157ZM6.00258 13.4111L6.15927 15.2585L12.1378 14.7514L11.9811 12.904L6.00258 13.4111ZM6.15927 15.2585C6.44419 18.6178 8.72848 21.6545 12.4743 22.6653L14.0374 16.8724C12.7915 16.5363 12.2149 15.6607 12.1378 14.7514L6.15927 15.2585ZM10.6519 18.279L9.73944 19.8738L14.9473 22.8535L15.8598 21.2587L10.6519 18.279ZM13.1655 18.4785C12.221 18.2094 11.5431 17.6286 11.1158 16.8211L5.81256 19.6275C6.97716 21.8282 8.94841 23.5156 11.5212 24.2488L13.1655 18.4785ZM5.58837 17.37C5.27765 18.416 4.62351 19.2189 3.65586 19.6822L6.24711 25.0938C8.85553 23.8448 10.5827 21.6277 11.34 19.0786L5.58837 17.37ZM7.29807 20.5189L6.12546 19.0468L1.43229 22.785L2.6049 24.2571L7.29807 20.5189ZM10.2676 27.8443L9.84016 22.8044L3.86162 23.3114L4.28908 28.3514L10.2676 27.8443ZM7.10443 26.0472L9.07734 25.8798L8.57027 19.9013L6.59735 20.0686L7.10443 26.0472ZM5.83454 23.1441L6.12813 26.6057L12.1067 26.0986L11.8131 22.637L5.83454 23.1441ZM9.37094 29.3414L18.2132 28.5915L17.7061 22.6129L8.86387 23.3629L9.37094 29.3414ZM14.9704 25.8557L15.1043 27.4341L21.0828 26.927L20.9489 25.3487L14.9704 25.8557ZM17.84 24.1913L7.02482 25.1085L7.53189 31.0871L18.3471 30.1698L17.84 24.1913ZM21.9418 12.0592L21.6882 9.06993C20.0373 9.20996 18.8125 10.6618 18.9525 12.3127L21.9418 12.0592ZM23.843 11.898L26.8322 11.6444C26.6922 9.99349 25.2403 8.76866 23.5894 8.90869L23.843 11.898ZM27.4424 17.9153L30.0379 19.4197C30.4978 18.6262 30.5695 17.6659 30.2325 16.8129C29.8954 15.9599 29.1867 15.3079 28.3086 15.0431L27.4424 17.9153ZM26.5284 19.4922L25.6599 22.3637C26.9919 22.7666 28.426 22.2005 29.1239 20.9966L26.5284 19.4922ZM23.3481 16.9258L25.9787 15.4835C25.4013 14.4304 24.2515 13.8232 23.0562 13.94C21.8609 14.0568 20.8505 14.8753 20.488 16.0202L23.3481 16.9258ZM20.4893 20.4921L18.163 22.3864C19.0654 23.4947 20.6243 23.8124 21.8885 23.1458L20.4893 20.4921ZM19.3197 19.0558L17.8881 16.4194C17.1036 16.8455 16.5495 17.5988 16.3765 18.4746C16.2036 19.3505 16.4297 20.2578 16.9934 20.9501L19.3197 19.0558ZM27.8684 19.9566L24.8791 20.2101C25.0192 21.861 26.471 23.0859 28.1219 22.9459L27.8684 19.9566ZM27.1063 10.9708L26.8527 7.98158C25.2018 8.1216 23.977 9.57346 24.117 11.2244L27.1063 10.9708ZM28.9536 10.8142L31.9429 10.5606C31.8029 8.9097 30.351 7.68487 28.7001 7.82489L28.9536 10.8142ZM29.2701 14.5448L26.2808 14.7983C26.4208 16.4492 27.8727 17.6741 29.5236 17.534L29.2701 14.5448ZM30.8125 14.4139L31.0661 17.4032C32.717 17.2632 33.9418 15.8113 33.8018 14.1604L30.8125 14.4139ZM30.4702 10.3784L30.2167 7.38916C28.5658 7.52919 27.341 8.98104 27.481 10.632L30.4702 10.3784ZM32.3535 10.2187L35.3428 9.96517C35.2027 8.31424 33.7509 7.08941 32.0999 7.22944L32.3535 10.2187ZM33.1841 20.0115L33.4376 23.0008C35.0885 22.8608 36.3134 21.4089 36.1733 19.758L33.1841 20.0115ZM31.3008 20.1713L28.3116 20.4248C28.4516 22.0757 29.9034 23.3006 31.5544 23.1605L31.3008 20.1713ZM30.9479 16.0102L33.9372 15.7567C33.7971 14.1057 32.3453 12.8809 30.6944 13.0209L30.9479 16.0102ZM29.4054 16.141L29.1519 13.1518C27.501 13.2918 26.2762 14.7436 26.4162 16.3946L29.4054 16.141ZM29.7158 19.7999L29.9693 22.7892C31.6202 22.6491 32.8451 21.1973 32.705 19.5464L29.7158 19.7999ZM22.1953 15.0485L24.0965 14.8872L23.5894 8.90869L21.6882 9.06993L22.1953 15.0485ZM20.8537 12.1515L21.0195 14.1065L26.998 13.5994L26.8322 11.6444L20.8537 12.1515ZM21.0195 14.1065C21.2695 17.0545 23.2146 19.7737 26.5761 20.7875L28.3086 15.0431C27.7874 14.8859 27.492 14.6442 27.3191 14.4277C27.1379 14.2009 27.0251 13.9183 26.998 13.5994L21.0195 14.1065ZM24.8469 16.4109L23.9328 17.9877L29.1239 20.9966L30.0379 19.4197L24.8469 16.4109ZM27.3968 16.6206C26.7247 16.4174 26.2749 16.0237 25.9787 15.4835L20.7175 18.368C21.7463 20.2444 23.4397 21.6923 25.6599 22.3637L27.3968 16.6206ZM20.488 16.0202C20.2061 16.9107 19.7282 17.5019 19.09 17.8384L21.8885 23.1458C24.1899 21.9323 25.5497 19.9109 26.2082 17.8313L20.488 16.0202ZM22.8156 18.5978L21.646 17.1615L16.9934 20.9501L18.163 22.3864L22.8156 18.5978ZM20.7513 21.6922C23.9818 19.938 25.3418 16.6491 25.0969 13.7606L19.1183 14.2677C19.1806 15.0023 18.8368 15.9043 17.8881 16.4194L20.7513 21.6922ZM25.0969 13.7606L24.931 11.8057L18.9525 12.3127L19.1183 14.2677L25.0969 13.7606ZM25.6663 23.8827C25.6789 24.0307 25.6414 24.2131 25.5592 24.3574C25.4918 24.4757 25.457 24.4597 25.6004 24.3659C25.9261 24.1529 26.7098 23.8424 28.0977 23.7247L27.5906 17.7462C25.6604 17.9099 23.783 18.3851 22.3159 19.3447C20.7604 20.3622 19.4931 22.0941 19.6878 24.3898L25.6663 23.8827ZM28.0977 23.7247C29.4967 23.606 30.3265 23.7803 30.6857 23.936C30.8438 24.0046 30.812 24.0263 30.7251 23.9206C30.6192 23.7916 30.5514 23.6175 30.5388 23.4695L36.5174 22.9624C36.3225 20.6654 34.7801 19.1714 33.0721 18.431C31.4622 17.7331 29.5276 17.5819 27.5906 17.7462L28.0977 23.7247ZM30.5388 23.4695C30.5272 23.3318 30.5615 23.1515 30.6455 23.0038C30.7147 22.8823 30.7525 22.8961 30.6103 22.9885C30.2843 23.2004 29.4959 23.5098 28.0896 23.629L28.5966 29.6076C30.5263 29.4439 32.4088 28.9757 33.8804 28.019C35.4505 26.9984 36.7124 25.2622 36.5174 22.9624L30.5388 23.4695ZM28.0896 23.629C26.6943 23.7474 25.8701 23.5755 25.5154 23.4221C25.3606 23.3551 25.3953 23.3353 25.4835 23.443C25.5905 23.5738 25.6547 23.7451 25.6663 23.8827L19.6878 24.3898C19.8828 26.6884 21.4175 28.1869 23.1337 28.9291C24.7433 29.6252 26.6738 29.7707 28.5966 29.6076L28.0896 23.629ZM21.6428 24.224C21.8285 26.4133 23.5415 27.4492 24.7179 27.8262C25.8782 28.1981 27.2111 28.2257 28.4704 28.1189L27.9633 22.1404C27.5293 22.1772 27.1875 22.1798 26.9324 22.1638C26.8065 22.156 26.7114 22.1441 26.644 22.1327C26.5757 22.1211 26.5467 22.1117 26.5492 22.1126C26.5509 22.1131 26.6008 22.1289 26.6814 22.1738C26.7627 22.2189 26.8888 22.3012 27.0268 22.4376C27.3415 22.7486 27.5779 23.2053 27.6213 23.7169L21.6428 24.224ZM28.4704 28.1189C29.7352 28.0116 31.0479 27.7605 32.1303 27.196C33.2418 26.6163 34.7287 25.3022 34.5445 23.1297L28.5659 23.6368C28.5235 23.1365 28.6731 22.6498 28.9311 22.2865C29.0443 22.127 29.1558 22.0228 29.2302 21.9627C29.3039 21.9031 29.3523 21.8778 29.3556 21.8761C29.3597 21.874 29.3341 21.8875 29.2697 21.9101C29.206 21.9325 29.1148 21.9601 28.9918 21.9891C28.7425 22.0478 28.4029 22.1031 27.9633 22.1404L28.4704 28.1189ZM34.5445 23.1297C34.359 20.9433 32.6546 19.9067 31.4622 19.5312C30.3044 19.1667 28.9733 19.1463 27.7184 19.2527L28.2255 25.2313C28.6693 25.1936 29.017 25.1899 29.276 25.2051C29.4039 25.2126 29.4999 25.2241 29.5676 25.2352C29.6362 25.2465 29.6643 25.2555 29.6602 25.2542C29.6569 25.2532 29.6041 25.2366 29.52 25.1902C29.4351 25.1434 29.3049 25.0588 29.1634 24.919C28.8398 24.5992 28.6085 24.1387 28.5659 23.6368L34.5445 23.1297ZM27.7184 19.2527C26.469 19.3587 25.1638 19.6035 24.0853 20.1554C22.9887 20.7164 21.4559 22.0207 21.6428 24.224L27.6213 23.7169C27.6648 24.2302 27.5078 24.7263 27.2429 25.0922C27.1272 25.2521 27.0141 25.3555 26.9401 25.414C26.8668 25.4721 26.8196 25.4961 26.8183 25.4968C26.8161 25.4979 26.8438 25.4837 26.9104 25.4608C26.9762 25.4381 27.0693 25.4105 27.1938 25.3816C27.4462 25.3231 27.7872 25.2685 28.2255 25.2313L27.7184 19.2527ZM30.8577 19.703L30.0955 10.7173L24.117 11.2244L24.8791 20.2101L30.8577 19.703ZM27.3598 13.9601L29.2072 13.8034L28.7001 7.82489L26.8527 7.98158L27.3598 13.9601ZM25.9644 11.0677L26.2808 14.7983L32.2593 14.2912L31.9429 10.5606L25.9644 11.0677ZM29.5236 17.534L31.0661 17.4032L30.559 11.4247L29.0165 11.5555L29.5236 17.534ZM33.8018 14.1604L33.4595 10.1249L27.481 10.632L27.8233 14.6675L33.8018 14.1604ZM30.7238 13.3677L32.607 13.208L32.0999 7.22944L30.2167 7.38916L30.7238 13.3677ZM29.3642 10.4722L30.1948 20.2651L36.1733 19.758L35.3428 9.96517L29.3642 10.4722ZM32.9305 17.0223L31.0473 17.182L31.5544 23.1605L33.4376 23.0008L32.9305 17.0223ZM34.2901 19.9177L33.9372 15.7567L27.9586 16.2637L28.3116 20.4248L34.2901 19.9177ZM30.6944 13.0209L29.1519 13.1518L29.659 19.1303L31.2014 18.9995L30.6944 13.0209ZM26.4162 16.3946L26.7265 20.0534L32.705 19.5464L32.3947 15.8875L26.4162 16.3946ZM29.4622 16.8106L27.6149 16.9673L28.1219 22.9459L29.9693 22.7892L29.4622 16.8106ZM45.7144 9.06743L45.4609 6.07816C43.8099 6.21818 42.5851 7.67004 42.7251 9.32096L45.7144 9.06743ZM47.6873 8.90009L50.6766 8.64656C50.5366 6.99563 49.0847 5.7708 47.4338 5.91083L47.6873 8.90009ZM48.4495 17.8858L48.703 20.8751C50.3539 20.7351 51.5787 19.2832 51.4387 17.6323L48.4495 17.8858ZM46.4765 18.0532L43.4873 18.3067C43.6273 19.9576 45.0791 21.1825 46.7301 21.0424L46.4765 18.0532ZM36.1203 17.9922L33.1311 18.2457C33.2711 19.8966 34.7229 21.1215 36.3739 20.9814L36.1203 17.9922ZM35.5149 10.8538L35.2614 7.86453C33.6104 8.00456 32.3856 9.45641 32.5256 11.1073L35.5149 10.8538ZM37.4699 10.688L40.4591 10.4345C40.3191 8.78352 38.8673 7.5587 37.2163 7.69872L37.4699 10.688ZM37.9369 16.1942L34.9476 16.4478C35.0152 17.2443 35.3979 17.981 36.0107 18.4942C36.6236 19.0075 37.416 19.2549 38.2121 19.1816L37.9369 16.1942ZM44.7305 14.9316L47.644 14.2166C47.4476 13.416 46.9304 12.7316 46.2139 12.324C45.4974 11.9164 44.6448 11.8216 43.8562 12.0618L44.7305 14.9316ZM45.117 16.5065L45.987 19.3776C47.5129 18.9152 48.4105 17.34 48.0305 15.7916L45.117 16.5065ZM38.5142 25.5569L35.5249 25.8105C35.665 27.4614 37.1168 28.6862 38.7677 28.5462L38.5142 25.5569ZM37.9985 19.4768L37.745 16.4875C36.0941 16.6275 34.8692 18.0794 35.0092 19.7303L37.9985 19.4768ZM48.5088 18.5853L51.498 18.3318C51.358 16.6809 49.9062 15.456 48.2552 15.5961L48.5088 18.5853ZM49.0245 24.6655L49.278 27.6548C50.9289 27.5147 52.1538 26.0629 52.0137 24.412L49.0245 24.6655ZM40.3189 23.8322L37.3296 24.0858C37.4697 25.7367 38.9215 26.9615 40.5724 26.8215L40.3189 23.8322ZM46.9551 23.2694L47.2086 26.2587C48.8595 26.1186 50.0844 24.6668 49.9443 23.0158L46.9551 23.2694ZM46.7041 20.31L49.6933 20.0565C49.5533 18.4055 48.1015 17.1807 46.4505 17.3207L46.7041 20.31ZM40.0679 20.8729L39.8144 17.8836C38.1634 18.0236 36.9386 19.4755 37.0786 21.1264L40.0679 20.8729ZM45.9679 12.0567L47.9409 11.8894L47.4338 5.91083L45.4609 6.07816L45.9679 12.0567ZM44.6981 9.15363L45.4602 18.1394L51.4387 17.6323L50.6766 8.64656L44.6981 9.15363ZM48.1959 14.8966L46.223 15.0639L46.7301 21.0424L48.703 20.8751L48.1959 14.8966ZM49.4658 17.7996L48.7037 8.81389L42.7251 9.32096L43.4873 18.3067L49.4658 17.7996ZM39.1096 17.7386L38.5042 10.6003L32.5256 11.1073L33.1311 18.2457L39.1096 17.7386ZM35.7684 13.8431L37.7234 13.6773L37.2163 7.69872L35.2614 7.86453L35.7684 13.8431ZM34.4806 10.9415L34.9476 16.4478L40.9261 15.9407L40.4591 10.4345L34.4806 10.9415ZM38.2121 19.1816C40.8314 18.9403 43.1424 18.5515 45.6047 17.8014L43.8562 12.0618C41.881 12.6635 39.9896 12.9924 37.6617 13.2069L38.2121 19.1816ZM41.8169 15.6465L42.2034 17.2215L48.0305 15.7916L47.644 14.2166L41.8169 15.6465ZM44.2469 13.6355C42.0216 14.3099 39.8882 14.6618 37.212 14.8888L37.719 20.8673C40.6746 20.6167 43.2458 20.2083 45.987 19.3776L44.2469 13.6355ZM37.212 14.8888L35.8668 15.0029L36.3739 20.9814L37.719 20.8673L37.212 14.8888ZM41.5035 25.3034L40.9878 19.2232L35.0092 19.7303L35.5249 25.8105L41.5035 25.3034ZM38.252 22.466L48.7623 21.5746L48.2552 15.5961L37.745 16.4875L38.252 22.466ZM45.5195 18.8389L46.0352 24.919L52.0137 24.412L51.498 18.3318L45.5195 18.8389ZM48.7709 21.6762L38.2607 22.5677L38.7677 28.5462L49.278 27.6548L48.7709 21.6762ZM40.5724 26.8215L47.2086 26.2587L46.7015 20.2801L40.0654 20.843L40.5724 26.8215ZM49.9443 23.0158L49.6933 20.0565L43.7148 20.5635L43.9658 23.5229L49.9443 23.0158ZM46.4505 17.3207L39.8144 17.8836L40.3214 23.8621L46.9576 23.2993L46.4505 17.3207ZM37.0786 21.1264L37.3296 24.0858L43.3082 23.5787L43.0572 20.6193L37.0786 21.1264ZM53.9592 9.3617L56.9545 9.19364C56.9091 8.3844 56.5382 7.62797 55.9262 7.09655C55.3142 6.56513 54.5133 6.30393 53.7057 6.37243L53.9592 9.3617ZM54.5241 19.43L54.7776 22.4192C56.3953 22.282 57.6103 20.8829 57.5194 19.2619L54.5241 19.43ZM52.6947 19.5851L49.7157 19.9399C49.907 21.5458 51.3367 22.7111 52.9482 22.5744L52.6947 19.5851ZM51.502 9.5701L51.2485 6.58084C50.4381 6.64957 49.6903 7.04438 49.1765 7.67481C48.6627 8.30524 48.4269 9.11727 48.5231 9.92486L51.502 9.5701ZM50.9639 9.52976L51.5288 19.598L57.5194 19.2619L56.9545 9.19364L50.9639 9.52976ZM54.2706 16.4407L52.4411 16.5959L52.9482 22.5744L54.7776 22.4192L54.2706 16.4407ZM55.6736 19.2304L54.481 9.21535L48.5231 9.92486L49.7157 19.9399L55.6736 19.2304ZM51.7556 12.5594L54.2127 12.351L53.7057 6.37243L51.2485 6.58084L51.7556 12.5594ZM55.724 22.1463C55.7572 22.5385 55.6487 23.0707 55.2534 23.5285C54.8644 23.9792 54.3769 24.1513 54.0239 24.1813L53.5168 18.2027C52.5001 18.2889 51.4667 18.7332 50.7117 19.6078C49.9504 20.4896 49.6559 21.5975 49.7454 22.6534L55.724 22.1463ZM54.0239 24.1813C53.6355 24.2142 53.102 24.1102 52.6379 23.714C52.1755 23.3193 51.9997 22.8214 51.9694 22.4647L57.948 21.9577C57.8614 20.9374 57.4143 19.9025 56.5332 19.1504C55.6503 18.3968 54.5508 18.115 53.5168 18.2027L54.0239 24.1813ZM51.9694 22.4647C51.9396 22.1126 52.0267 21.6105 52.397 21.156C52.7743 20.6929 53.2835 20.4806 53.7069 20.4447L54.214 26.4232C55.2831 26.3325 56.3196 25.8406 57.0487 24.9458C57.7707 24.0595 58.0341 22.9735 57.948 21.9577L51.9694 22.4647ZM53.7069 20.4447C54.0941 20.4118 54.6082 20.5175 55.0543 20.8938C55.5004 21.2702 55.6911 21.7592 55.724 22.1463L49.7454 22.6534C49.8345 23.7041 50.3064 24.7383 51.1854 25.4799C52.0644 26.2214 53.1633 26.5123 54.214 26.4232L53.7069 20.4447Z" fill="#FFF0CC" mask="url(#path-1-outside-1_1960_5616)"/>
<path d="M78.4361 10.0275C78.0156 9.94628 77.58 10.0354 77.2252 10.2753C76.8704 10.5152 76.6254 10.8861 76.5441 11.3066L77.0173 8.85615C77.0985 8.43568 77.0094 8.00016 76.7695 7.64542C76.5296 7.29068 76.1586 7.04576 75.7381 6.96456C75.5299 6.92434 75.3157 6.92554 75.108 6.96809C74.9002 7.01064 74.7028 7.0937 74.5272 7.21253C74.3515 7.33136 74.201 7.48364 74.0842 7.66065C73.9674 7.83767 73.8866 8.03597 73.8464 8.24421L74.0125 7.38445C74.0937 6.96398 74.0045 6.52846 73.7646 6.17372C73.5247 5.81898 73.1537 5.57406 72.7332 5.49286C72.525 5.45259 72.3109 5.45373 72.1031 5.49622C71.8953 5.53871 71.6979 5.62172 71.5222 5.7405C71.3465 5.85929 71.196 6.01152 71.0791 6.1885C70.9623 6.36549 70.8814 6.56376 70.8412 6.772L70.5931 8.05644C70.6333 7.84824 70.6322 7.63416 70.5896 7.42642C70.5471 7.21869 70.4641 7.02136 70.3453 6.84571C70.2265 6.67006 70.0743 6.51952 69.8973 6.4027C69.7204 6.28588 69.5221 6.20506 69.3139 6.16485C68.8934 6.08364 68.4579 6.1728 68.1032 6.4127C67.7484 6.6526 67.5035 7.02359 67.4223 7.44407L65.7821 15.9369L66.7414 16.1222L65.328 25.6916C65.2417 26.9155 65.0913 28.134 64.8776 29.3421C64.8588 29.4494 64.883 29.5598 64.9449 29.6494C65.0068 29.739 65.1014 29.8006 65.2084 29.821L73.8772 31.4952C73.9308 31.5055 73.9859 31.5052 74.0393 31.4943C74.0928 31.4833 74.1436 31.462 74.1888 31.4314C74.2341 31.4008 74.2728 31.3616 74.3029 31.3161C74.333 31.2705 74.3538 31.2195 74.3641 31.1659L74.7636 29.0976C74.8981 28.4237 75.2182 27.8008 75.6878 27.2991C76.594 26.3178 77.0521 25.1677 77.227 24.6418C77.2772 24.491 77.3175 24.3371 77.3476 24.1811L79.7157 11.9196C79.7969 11.499 79.7077 11.0634 79.4677 10.7085C79.2278 10.3537 78.8567 10.1087 78.4361 10.0275Z" fill="#FFB400"/>
<path d="M76.8621 17.2773L75.8319 17.0783L76.9319 11.3824C76.9518 11.2794 76.9299 11.1728 76.8712 11.0859C76.8124 10.999 76.7216 10.939 76.6186 10.9191C76.5156 10.8992 76.4089 10.921 76.322 10.9798C76.2351 11.0385 76.1751 11.1294 76.1552 11.2324L75.0552 16.9283L72.6602 16.4658L74.2335 8.31901C74.2534 8.216 74.2316 8.10931 74.1728 8.02241C74.114 7.93551 74.0232 7.87551 73.9202 7.85562C73.8172 7.83575 73.7105 7.85761 73.6236 7.91638C73.5367 7.97515 73.4767 8.06602 73.4569 8.16901L71.8835 16.3158L69.4886 15.8532L70.9798 8.1316C70.9997 8.02861 70.9778 7.92194 70.9191 7.83505C70.8603 7.74817 70.7694 7.68819 70.6664 7.6683C70.5634 7.64841 70.4568 7.67024 70.3699 7.72899C70.283 7.78774 70.223 7.8786 70.2031 7.98159L68.7118 15.7032L67.6903 15.5059C67.5921 15.4853 67.4896 15.5016 67.4027 15.5519C67.3158 15.6022 67.2505 15.6828 67.2195 15.7783C67.2037 15.8312 67.1992 15.8868 67.2063 15.9416C67.2134 15.9963 67.2318 16.049 67.2605 16.0962C67.2891 16.1434 67.3273 16.1841 67.3726 16.2157C67.4179 16.2472 67.4694 16.2689 67.5236 16.2794L76.7285 18.0571C76.7827 18.0676 76.8385 18.0666 76.8923 18.0542C76.9461 18.0418 76.9968 18.0182 77.0409 17.9851C77.0851 17.952 77.1218 17.9099 77.1488 17.8617C77.1757 17.8136 77.1923 17.7602 77.1974 17.7053C77.2041 17.6051 77.1736 17.5061 77.1117 17.4271C77.0498 17.3481 76.9609 17.2947 76.8621 17.2773Z" fill="#996500"/>
<path d="M74.5281 20.3715C72.0632 19.722 70.8612 20.762 70.8612 20.762C70.2185 18.2245 67.8428 17.3596 67.8428 17.3596L68.1626 14.9008C68.2575 13.4201 67.1036 12.4116 66.5391 12.0098L65.7805 15.9374L66.7398 16.1227L65.7791 22.627C67.1587 22.9184 68.5064 23.2166 69.3236 23.3987C69.5425 23.4464 69.7707 23.4263 69.9779 23.3411C70.1851 23.2559 70.3614 23.1096 70.4834 22.9218C71.6132 21.2095 73.3564 20.7908 74.495 20.7159C74.5365 20.7132 74.5757 20.6958 74.6055 20.6668C74.6353 20.6378 74.6539 20.5992 74.6579 20.5578C74.6619 20.5164 74.651 20.4749 74.6272 20.4408C74.6035 20.4067 74.5683 20.3821 74.5281 20.3715Z" fill="#996500"/>
<path d="M64.8881 12.1787C65.5868 12.3136 66.209 12.7072 66.6301 13.2809C67.0512 13.8546 67.2404 14.566 67.1598 15.2731L66.8616 17.8877C66.8616 17.8877 70.8377 19.8336 70.0262 24.0356L65.3265 25.6919C65.3265 25.6919 64.8036 24.0846 63.6789 22.9383C63.4208 22.6905 63.1941 22.4119 63.0039 22.1087C62.6741 21.5775 62.5523 20.9431 62.662 20.3274L63.9502 12.8273C63.9681 12.7226 64.0068 12.6225 64.0639 12.533C64.121 12.4435 64.1954 12.3662 64.2828 12.3058C64.3701 12.2454 64.4687 12.203 64.5726 12.1812C64.6766 12.1594 64.7838 12.1585 64.8881 12.1787Z" fill="#FFB400"/>
</svg>
