<svg width="121" height="28" viewBox="0 0 121 28" fill="none" xmlns="http://www.w3.org/2000/svg">
<rect width="121" height="28" rx="14" fill="#664300"/>
<path d="M22.7031 11.82C21.5151 13.548 19.1211 15.24 15.6291 15.852V13.692C19.4091 12.81 21.4611 10.578 21.4611 6.978V5.844H23.9271V6.978C23.9271 10.578 25.9971 12.81 29.7771 13.692V15.852C26.2851 15.24 23.8911 13.548 22.7031 11.82ZM15.3771 19.308H30.0651V21.45H15.3771V19.308ZM39.9824 11.82C38.7944 13.548 36.4004 15.24 32.9084 15.852V13.692C36.6884 12.81 38.7404 10.578 38.7404 6.978V5.844H41.2064V6.978C41.2064 10.578 43.2764 12.81 47.0564 13.692V15.852C43.5644 15.24 41.1704 13.548 39.9824 11.82ZM32.6564 19.308H47.3444V21.45H32.6564V19.308ZM53.2296 14.466H63.9756V16.608H58.5396V19.308H64.6236V21.45H49.9356V19.308H56.0916V16.608H50.7636V10.164H61.3296V8.076H50.7636V5.934H63.7956V12.306H53.2296V14.466Z" fill="#FFB400"/>
<path d="M79.4547 14.894H71.5527V12.824H73.1367V8.414H71.7507V6.344H81.2547V8.036H82.8927V6.146H85.3587V15.776H82.8927V12.446H80.6787V10.538H82.8927V9.944H80.6787V8.414H79.8327V10.646C79.8327 11.384 79.7607 12.176 79.5807 12.824H79.5987C80.4807 12.824 81.2367 12.806 81.9747 12.644V14.588C81.2367 14.804 80.4087 14.894 79.4547 14.894ZM75.5487 12.824H77.2407C77.3667 12.212 77.4207 11.474 77.4207 10.79V8.414H75.5487V12.824ZM72.7227 19.412C72.7227 18.224 73.3347 17.378 74.2527 16.82C75.5487 16.028 77.4567 15.794 79.2207 15.794C81.0027 15.794 82.9107 16.028 84.1887 16.82C85.1247 17.378 85.7367 18.224 85.7367 19.412C85.7367 20.6 85.1247 21.464 84.1887 22.022C82.9107 22.796 81.0027 23.03 79.2207 23.03C77.4567 23.03 75.5487 22.796 74.2527 22.022C73.3347 21.464 72.7227 20.6 72.7227 19.412ZM75.1887 19.412C75.1887 19.826 75.4047 20.114 75.8007 20.348C76.5747 20.78 77.9427 20.924 79.2207 20.924C80.5167 20.924 81.8847 20.78 82.6587 20.348C83.0367 20.114 83.2707 19.826 83.2707 19.412C83.2707 19.016 83.0367 18.728 82.6587 18.494C81.8847 18.044 80.5167 17.918 79.2207 17.918C77.9427 17.918 76.5747 18.044 75.8007 18.494C75.4047 18.728 75.1887 19.016 75.1887 19.412ZM94.916 10.052V8.576H89.228V6.434H97.346V9.764C97.346 16.046 95.078 20.276 89.138 21.77V19.43C93.224 18.242 94.916 14.93 94.916 10.052ZM102.206 12.698H104.69V14.822H102.206V22.67H99.74V6.146H102.206V12.698Z" fill="white"/>
</svg>
