<svg width="75" height="42" viewBox="0 0 75 42" fill="none" xmlns="http://www.w3.org/2000/svg">
<path fill-rule="evenodd" clip-rule="evenodd" d="M2.66269 8.77745C7.90898 0.161539 19.1603 -2.57849 27.7933 2.65743C32.573 5.55633 39.8259 7.16177 47.1636 2.68369C55.782 -2.57602 67.0409 0.132966 72.311 8.73438C77.5812 17.3358 74.8668 28.5724 66.2484 33.8321C43.9769 47.4241 21.6206 41.6373 8.79482 33.8584C0.161859 28.6225 -2.58359 17.3934 2.66269 8.77745Z" fill="#00A42E"/>
<path d="M32.52 12.18H34.94V31.76H32.52V12.18ZM18.858 26.414C23.94 23.972 26.25 20.65 26.668 16.184H19.826V14.226H29.154C29.154 20.1 26.932 25.028 20.112 28.328L18.858 26.414ZM40.2645 12.928H42.6625V15.04H50.9785V12.928H53.3985V20.848H48.0085V22.674H55.6645V24.61H37.9765V22.674H45.5885V20.848H40.2645V12.928ZM40.1765 31.408V25.93H42.5745V29.45H53.6845V31.408H40.1765ZM42.6625 18.956H50.9785V16.91H42.6625V18.956Z" fill="white"/>
</svg>
