<svg width="65" height="36" viewBox="0 0 65 36" fill="none" xmlns="http://www.w3.org/2000/svg">
<path d="M9.93243 34.4877C12.3036 35.5315 14.8243 36.0002 17.3023 35.9789C17.3023 35.9789 39.4331 36.5114 64.0205 21.6002C64.0205 21.6002 50.1567 17.9575 28.2609 3.66406C28.2181 3.64276 28.1754 3.62145 28.1541 3.57885C28.1327 3.57885 28.1113 3.55755 28.09 3.53625C27.385 3.08891 26.6587 2.70548 25.8683 2.34335C16.9818 -1.55488 6.25819 2.47116 1.87902 11.354C-2.52151 20.2368 1.08863 30.5895 9.93243 34.4877Z" fill="#E283A1"/>
<path d="M50.6268 9.52198C51.5667 6.02849 49.4733 2.42849 45.9699 1.49122C42.4666 0.553937 38.8564 2.64151 37.9165 6.135C37.2116 8.73382 38.1729 11.4391 40.2663 13.0368C39.775 14.89 39.2623 16.7433 38.771 18.5752C38.4078 19.9173 39.2196 21.3019 40.544 21.6427C41.8684 21.9835 43.257 21.1954 43.6201 19.8746C44.1114 18.0214 44.6028 16.1681 45.1154 14.3362C47.7216 13.9954 49.9005 12.1421 50.6054 9.54329" fill="white"/>
<path fill-rule="evenodd" clip-rule="evenodd" d="M36.6796 5.80248C37.8026 1.63118 42.1129 -0.86423 46.3027 0.256705C50.4865 1.37604 52.9896 5.67466 51.8654 9.85312L51.7764 10.1837L51.7429 10.2171C50.8988 12.8584 48.7549 14.8029 46.1385 15.4433C45.7042 17.0165 45.283 18.6052 44.8599 20.2013L44.8569 20.2126L44.8569 20.2126C44.3059 22.2162 42.2174 23.3931 40.2244 22.8802C38.2037 22.3602 36.9873 20.266 37.5338 18.2436C37.7436 17.4614 37.9551 16.6834 38.1665 15.9056C38.3857 15.0991 38.6048 14.2928 38.822 13.4822C36.7907 11.5399 35.916 8.61913 36.6796 5.80248ZM45.6384 2.72561C42.822 1.9721 39.9124 3.65122 39.1551 6.46614L39.1544 6.46867C38.5876 8.55828 39.3584 10.7339 41.0459 12.0217L41.7245 12.5396L41.5061 13.3634C41.2219 14.4355 40.9278 15.5176 40.6361 16.5909C40.4245 17.3694 40.2142 18.1432 40.0098 18.9054L40.0091 18.9082C39.8302 19.5693 40.2372 20.2435 40.8649 20.4051C41.5192 20.5734 42.206 20.1763 42.3834 19.5413C42.8737 17.6917 43.3667 15.8322 43.8816 13.9926L44.1093 13.1787L44.9494 13.0689C47.0487 12.7943 48.8007 11.3041 49.3688 9.2095L49.4581 8.88048L49.4644 8.87423C50.0171 6.16744 48.3554 3.45248 45.6384 2.72561Z" fill="#E283A1"/>
<path d="M47.7432 8.75507C47.2305 10.6509 45.2652 11.8012 43.3427 11.29C41.4415 10.7787 40.2879 8.81898 40.8006 6.90182C41.3133 5.00596 43.2786 3.85567 45.2011 4.36691C47.1237 4.87815 48.2559 6.83791 47.7432 8.75507Z" fill="white"/>
<path fill-rule="evenodd" clip-rule="evenodd" d="M45.1029 4.73742C43.3871 4.28116 41.6311 5.30785 41.1729 7.00114C40.7157 8.71193 41.7452 10.4627 43.443 10.9196C45.1587 11.3756 46.9144 10.349 47.3726 8.65586C47.8306 6.94253 46.8192 5.19381 45.1029 4.73742ZM40.4302 6.80201C40.9976 4.70391 43.1719 3.43027 45.3011 3.99645C47.4298 4.5625 48.6827 6.73305 48.1156 8.8539L48.1153 8.85493C47.5479 10.953 45.3736 12.2267 43.2444 11.6605L43.2434 11.6602C41.1394 11.0944 39.8622 8.92622 40.4299 6.80305L40.4302 6.80201Z" fill="#E283A1"/>
<path d="M7.12 11.888H13.728V13.296H8.88V14.64H13.456V16.016H8.88V17.424C11.312 17.408 12.832 17.344 14.576 17.04L14.752 18.432C12.832 18.768 11.136 18.832 8.272 18.832H7.12V11.888ZM8.56 25.12V20.064H17.696V25.12H8.56ZM10.288 23.728H15.984V21.456H10.288V23.728ZM15.936 19.392V11.056H17.696V14.448H19.664V15.904H17.696V19.392H15.936ZM22.0644 11.92H31.8244V13.168C31.8244 14.512 31.8244 15.968 31.4564 18H33.4084V19.44H27.8084V25.312H26.0324V19.44H20.5284V18H29.6804C30.0804 16.08 30.0964 14.624 30.0964 13.328H22.0644V11.92Z" fill="white"/>
</svg>
