<svg width="28" height="28" viewBox="0 0 28 28" fill="none" xmlns="http://www.w3.org/2000/svg">
<path d="M25.375 4.40234H19.1187C17.7762 4.40234 16.4637 4.82378 15.3344 5.61883L14 6.55435L12.6656 5.61883C11.5375 4.82393 10.2235 4.40156 8.88125 4.40234H2.625C2.14102 4.40234 1.75 4.82976 1.75 5.35879V22.3357C1.75 22.8648 2.14102 23.2922 2.625 23.2922H8.88125C10.2238 23.2922 11.5363 23.7136 12.6656 24.5087L13.8797 25.3635C13.9152 25.3874 13.9563 25.4023 13.9973 25.4023C14.0383 25.4023 14.0793 25.3904 14.1148 25.3635L15.3289 24.5087C16.4609 23.7136 17.7762 23.2922 19.1187 23.2922H25.375C25.859 23.2922 26.25 22.8648 26.25 22.3357V5.35879C26.25 4.82976 25.859 4.40234 25.375 4.40234ZM8.88125 21.1402H3.71875V6.55435H8.88125C9.84922 6.55435 10.7898 6.85623 11.602 7.42711L12.9363 8.36263L13.125 8.49714V22.3058C11.8234 21.5407 10.3687 21.1402 8.88125 21.1402ZM24.2812 21.1402H19.1187C17.6313 21.1402 16.1766 21.5407 14.875 22.3058V8.49714L15.0637 8.36263L16.398 7.42711C17.2102 6.85623 18.1508 6.55435 19.1187 6.55435H24.2812V21.1402ZM10.8527 10.3801H5.77227C5.66563 10.3801 5.57812 10.4818 5.57812 10.6043V11.9493C5.57812 12.0719 5.66563 12.1735 5.77227 12.1735H10.85C10.9566 12.1735 11.0441 12.0719 11.0441 11.9493V10.6043C11.0469 10.4818 10.9594 10.3801 10.8527 10.3801ZM16.9531 10.6043V11.9493C16.9531 12.0719 17.0406 12.1735 17.1473 12.1735H22.225C22.3316 12.1735 22.4191 12.0719 22.4191 11.9493V10.6043C22.4191 10.4818 22.3316 10.3801 22.225 10.3801H17.1473C17.0406 10.3801 16.9531 10.4818 16.9531 10.6043ZM10.8527 14.5646H5.77227C5.66563 14.5646 5.57812 14.6662 5.57812 14.7888V16.1338C5.57812 16.2563 5.66563 16.3579 5.77227 16.3579H10.85C10.9566 16.3579 11.0441 16.2563 11.0441 16.1338V14.7888C11.0469 14.6662 10.9594 14.5646 10.8527 14.5646ZM22.2277 14.5646H17.1473C17.0406 14.5646 16.9531 14.6662 16.9531 14.7888V16.1338C16.9531 16.2563 17.0406 16.3579 17.1473 16.3579H22.225C22.3316 16.3579 22.4191 16.2563 22.4191 16.1338V14.7888C22.4219 14.6662 22.3344 14.5646 22.2277 14.5646Z" fill="#6DC389"/>
</svg>
