<svg width="194" height="44" viewBox="0 0 194 44" fill="none" xmlns="http://www.w3.org/2000/svg">
<path fill-rule="evenodd" clip-rule="evenodd" d="M160.998 38.9795C158.068 37.6735 154.721 37.6735 151.791 38.9795L151.316 39.1911C138.841 44.7517 124.592 44.7517 112.117 39.1911C109.489 38.0197 106.487 38.0197 103.859 39.1911C91.3838 44.7517 77.1341 44.7517 64.6591 39.1911C62.0311 38.0197 59.0292 38.0197 56.4012 39.1911C43.9262 44.7517 29.6765 44.7517 17.2015 39.1911L11.2693 36.5469C1.68493 32.2747 -2.62148 21.0418 1.65068 11.4574C5.92283 1.87299 17.1558 -2.43341 26.7402 1.83875L32.6724 4.48298C35.3004 5.6544 38.3023 5.6544 40.9303 4.48298C53.4053 -1.07763 67.655 -1.07763 80.13 4.48298C82.758 5.6544 85.7599 5.6544 88.3879 4.48298C100.863 -1.07763 115.113 -1.07763 127.588 4.48298C130.216 5.6544 133.218 5.6544 135.846 4.48298L136.32 4.27144C149.097 -1.42381 163.692 -1.42381 176.469 4.27144L182.638 7.02144C192.223 11.2936 196.529 22.5265 192.257 32.1109C187.985 41.6953 176.752 46.0017 167.168 41.7295L160.998 38.9795Z" fill="#124899"/>
<path d="M18.806 14.021V18.487H21.49V14.021H24.02V27.265H16.254V14.021H18.806ZM21.49 25.087V20.621H18.806V25.087H21.49ZM25.67 12.569H28.222V19.807H30.004V12.239H32.578V31.951H30.004V21.985H28.222V31.049H25.67V12.569ZM52.7745 21.875V24.031H45.3605V27.485H42.6105V24.031H34.9325V21.875H52.7745ZM36.7585 16.705C36.7585 15.8837 37.0518 15.165 37.6385 14.549C38.2252 13.933 39.0538 13.4563 40.1245 13.119C41.1952 12.7817 42.4272 12.613 43.8205 12.613C45.2285 12.613 46.4678 12.7817 47.5385 13.119C48.6092 13.4563 49.4378 13.933 50.0245 14.549C50.6112 15.165 50.9045 15.8837 50.9045 16.705C50.9045 17.5263 50.6112 18.245 50.0245 18.861C49.4378 19.477 48.6092 19.9537 47.5385 20.291C46.4678 20.6137 45.2285 20.775 43.8205 20.775C42.4272 20.775 41.1952 20.6137 40.1245 20.291C39.0538 19.9537 38.2252 19.477 37.6385 18.861C37.0518 18.245 36.7585 17.5263 36.7585 16.705ZM37.0225 25.725H39.7725V29.421H50.8165V31.599H37.0225V25.725ZM39.6845 16.705C39.6845 17.3063 40.0512 17.7757 40.7845 18.113C41.5325 18.4503 42.5445 18.619 43.8205 18.619C45.1112 18.619 46.1232 18.4577 46.8565 18.135C47.6045 17.7977 47.9785 17.321 47.9785 16.705C47.9785 16.089 47.6045 15.6197 46.8565 15.297C46.1232 14.9597 45.1112 14.791 43.8205 14.791C42.5298 14.791 41.5178 14.9597 40.7845 15.297C40.0512 15.6197 39.6845 16.089 39.6845 16.705ZM76.0613 12.239V31.951H73.4653V22.095H71.5953V31.005H69.0653V12.613H71.5953V19.895H73.4653V12.239H76.0613ZM60.0013 14.461H62.7073V24.779C64.5847 24.7203 66.33 24.537 67.9433 24.229L68.2073 26.561C66.1833 26.9423 63.9027 27.133 61.3653 27.133H60.0013V14.461ZM82.4859 21.633V19.235C81.7525 18.9123 81.1879 18.509 80.7919 18.025C80.4105 17.5263 80.2199 16.9617 80.2199 16.331C80.2199 15.5537 80.5132 14.879 81.0999 14.307C81.6865 13.735 82.5152 13.3023 83.5859 13.009C84.6565 12.701 85.9105 12.547 87.3479 12.547C88.7852 12.547 90.0392 12.701 91.1099 13.009C92.1952 13.3023 93.0239 13.735 93.5959 14.307C94.1825 14.879 94.4759 15.5537 94.4759 16.331C94.4759 16.9763 94.2779 17.5483 93.8819 18.047C93.4859 18.531 92.9139 18.9343 92.1659 19.257V21.633H96.2579V23.789H78.4379V21.633H82.4859ZM80.4839 28.387C80.4839 27.2723 81.0852 26.407 82.2879 25.791C83.5052 25.1603 85.1772 24.845 87.3039 24.845C89.4452 24.845 91.1172 25.1603 92.3199 25.791C93.5372 26.407 94.1459 27.2723 94.1459 28.387C94.1459 29.531 93.5445 30.411 92.3419 31.027C91.1392 31.6577 89.4599 31.973 87.3039 31.973C85.1625 31.973 83.4905 31.6577 82.2879 31.027C81.0852 30.411 80.4839 29.531 80.4839 28.387ZM83.0359 16.331C83.0359 16.8883 83.4025 17.3137 84.1359 17.607C84.8839 17.8857 85.9545 18.025 87.3479 18.025C88.7265 18.025 89.7899 17.8857 90.5379 17.607C91.2859 17.3137 91.6599 16.8883 91.6599 16.331C91.6599 15.7737 91.2859 15.3483 90.5379 15.055C89.7899 14.7617 88.7265 14.615 87.3479 14.615C85.9692 14.615 84.9059 14.7617 84.1579 15.055C83.4099 15.3483 83.0359 15.7737 83.0359 16.331ZM83.2339 28.387C83.2339 29.4137 84.5905 29.927 87.3039 29.927C90.0319 29.927 91.3959 29.4137 91.3959 28.387C91.3959 27.3897 90.0319 26.891 87.3039 26.891C84.5905 26.891 83.2339 27.3897 83.2339 28.387ZM89.4599 21.633V19.939C88.7999 20.027 88.0959 20.071 87.3479 20.071C86.5705 20.071 85.8519 20.027 85.1919 19.939V21.633H89.4599ZM118.335 12.261V17.915H120.865V20.159H118.335V25.659H115.607V12.261H118.335ZM102.517 23.151C104.57 23.151 106.161 23.1363 107.291 23.107V21.963C106.22 21.8163 105.377 21.4937 104.761 20.995C104.145 20.4963 103.837 19.8657 103.837 19.103C103.837 18.2083 104.269 17.497 105.135 16.969C106.015 16.441 107.173 16.177 108.611 16.177C110.063 16.177 111.221 16.441 112.087 16.969C112.967 17.497 113.407 18.2083 113.407 19.103C113.407 19.851 113.106 20.4743 112.505 20.973C111.903 21.4717 111.067 21.8017 109.997 21.963V23.019C111.757 22.9163 113.333 22.777 114.727 22.601L114.947 24.471C113.099 24.7937 111.199 25.0063 109.249 25.109C107.298 25.197 105.164 25.241 102.847 25.241L102.517 23.151ZM103.023 13.713H107.291V12.085H109.997V13.713H114.221V15.693H103.023V13.713ZM105.025 26.473H118.335V31.973H115.607V28.563H105.025V26.473ZM106.433 19.103C106.433 19.4697 106.623 19.7557 107.005 19.961C107.386 20.1663 107.921 20.269 108.611 20.269C109.3 20.269 109.835 20.1663 110.217 19.961C110.613 19.7557 110.811 19.4697 110.811 19.103C110.811 18.7363 110.62 18.4577 110.239 18.267C109.857 18.0617 109.315 17.959 108.611 17.959C107.921 17.959 107.386 18.0617 107.005 18.267C106.623 18.4577 106.433 18.7363 106.433 19.103ZM138.333 12.261V26.451H135.583V12.261H138.333ZM122.251 18.509C122.251 17.5557 122.486 16.6977 122.955 15.935C123.425 15.1723 124.07 14.5783 124.891 14.153C125.713 13.7277 126.615 13.515 127.597 13.515C128.595 13.515 129.497 13.7277 130.303 14.153C131.125 14.5783 131.77 15.1723 132.239 15.935C132.709 16.6977 132.943 17.5557 132.943 18.509C132.943 19.4477 132.709 20.2983 132.239 21.061C131.77 21.8237 131.125 22.425 130.303 22.865C129.497 23.2903 128.595 23.503 127.597 23.503C126.615 23.503 125.713 23.2903 124.891 22.865C124.07 22.425 123.425 21.8237 122.955 21.061C122.486 20.2983 122.251 19.4477 122.251 18.509ZM124.913 18.509C124.913 19.301 125.17 19.939 125.683 20.423C126.197 20.8923 126.835 21.127 127.597 21.127C128.375 21.127 129.013 20.8923 129.511 20.423C130.025 19.939 130.281 19.301 130.281 18.509C130.281 17.7023 130.025 17.0643 129.511 16.595C129.013 16.111 128.375 15.869 127.597 15.869C126.835 15.869 126.197 16.111 125.683 16.595C125.17 17.0643 124.913 17.7023 124.913 18.509ZM125.243 25.021H127.949V29.421H138.817V31.599H125.243V25.021ZM156.638 12.261V19.983H159.52V22.249H156.638V31.973H153.91V12.261H156.638ZM141.106 15.187H145.506V12.569H148.256V15.187H152.612V17.365H141.106V15.187ZM141.92 23.217C141.92 22.3077 142.132 21.501 142.558 20.797C142.998 20.0783 143.592 19.521 144.34 19.125C145.102 18.729 145.953 18.531 146.892 18.531C147.83 18.531 148.681 18.729 149.444 19.125C150.206 19.521 150.8 20.0783 151.226 20.797C151.666 21.5157 151.886 22.3223 151.886 23.217C151.886 24.1117 151.666 24.9183 151.226 25.637C150.8 26.341 150.206 26.891 149.444 27.287C148.681 27.683 147.83 27.881 146.892 27.881C145.953 27.881 145.102 27.683 144.34 27.287C143.592 26.891 142.998 26.341 142.558 25.637C142.132 24.9183 141.92 24.1117 141.92 23.217ZM144.538 23.217C144.538 23.965 144.75 24.559 145.176 24.999C145.616 25.439 146.188 25.659 146.892 25.659C147.596 25.659 148.168 25.439 148.608 24.999C149.048 24.559 149.268 23.965 149.268 23.217C149.268 22.4543 149.048 21.853 148.608 21.413C148.168 20.9583 147.596 20.731 146.892 20.731C146.188 20.731 145.616 20.9583 145.176 21.413C144.75 21.853 144.538 22.4543 144.538 23.217ZM176.812 12.239V31.951H174.084V12.239H176.812ZM160.488 26.429C162.967 25.2557 164.808 23.8623 166.01 22.249C167.228 20.6357 167.946 18.707 168.166 16.463H161.5V14.285H170.96C170.96 17.5117 170.278 20.3057 168.914 22.667C167.55 25.0137 165.211 26.9863 161.896 28.585L160.488 26.429Z" fill="white"/>
</svg>
