<svg width="29" height="24" viewBox="0 0 29 24" fill="none" xmlns="http://www.w3.org/2000/svg">
<path d="M28.5713 13.565V20.8695C28.5713 21.6998 28.224 22.496 27.6057 23.0831C26.9875 23.6702 26.149 24 25.2746 24H23.0768C22.2025 24 21.364 23.6702 20.7457 23.0831C20.1275 22.496 19.7801 21.6998 19.7801 20.8695V15.652C19.7801 14.8218 20.1275 14.0255 20.7457 13.4384C21.364 12.8514 22.2025 12.5215 23.0768 12.5215H26.3255C26.0615 9.68074 24.6897 7.03598 22.479 5.10565C20.2684 3.17532 17.3782 2.09861 14.3749 2.08656H14.2857C11.2699 2.08642 8.36299 3.15675 6.13564 5.08743C3.9083 7.0181 2.52141 9.66966 2.24724 12.5215H5.49449C6.36882 12.5215 7.20735 12.8514 7.8256 13.4384C8.44385 14.0255 8.79118 14.8218 8.79118 15.652V20.8695C8.79118 21.6998 8.44385 22.496 7.8256 23.0831C7.20735 23.6702 6.36882 24 5.49449 24H3.29669C2.42235 24 1.58383 23.6702 0.965579 23.0831C0.347329 22.496 0 21.6998 0 20.8695V13.565C0.00308095 10.8779 0.845633 8.25203 2.42101 6.0198C3.99639 3.78758 6.23377 2.04935 8.84995 1.02513C11.4661 0.000913305 14.3435 -0.263244 17.1179 0.266093C19.8922 0.795431 22.4388 2.09447 24.4354 3.99877C25.7535 5.25659 26.7974 6.74902 27.5071 8.39058C28.2168 10.0321 28.5785 11.7905 28.5713 13.565Z" fill="#FFB400"/>
</svg>
