<svg width="27" height="27" viewBox="0 0 27 27" fill="none" xmlns="http://www.w3.org/2000/svg">
<circle cx="13.5" cy="13.5" r="10" stroke="#124899" stroke-width="2"/>
<path d="M13.0516 8.40849C13.235 8.03687 13.765 8.03687 13.9484 8.40849L15.147 10.8372C15.2199 10.9848 15.3606 11.0871 15.5235 11.1107L18.2038 11.5002C18.6139 11.5598 18.7776 12.0638 18.4809 12.3531L16.5414 14.2436C16.4236 14.3584 16.3698 14.5239 16.3976 14.6861L16.8554 17.3556C16.9255 17.764 16.4968 18.0755 16.13 17.8827L13.7327 16.6223C13.587 16.5457 13.413 16.5457 13.2673 16.6223L10.87 17.8827C10.5032 18.0755 10.0745 17.764 10.1445 17.3556L10.6024 14.6861C10.6302 14.5239 10.5764 14.3584 10.4586 14.2436L8.51914 12.3531C8.22238 12.0638 8.38613 11.5598 8.79624 11.5002L11.4765 11.1107C11.6394 11.0871 11.7801 10.9848 11.853 10.8372L13.0516 8.40849Z" fill="#124899"/>
</svg>
