<svg width="58" height="16" viewBox="0 0 58 16" fill="none" xmlns="http://www.w3.org/2000/svg">
<path d="M0.292892 8.70711C-0.0976295 8.31658 -0.0976295 7.68342 0.292892 7.29289L6.65685 0.928932C7.04738 0.538408 7.68054 0.538408 8.07107 0.928932C8.46159 1.31946 8.46159 1.95262 8.07107 2.34315L2.41422 8L8.07107 13.6569C8.46159 14.0474 8.46159 14.6805 8.07107 15.0711C7.68054 15.4616 7.04738 15.4616 6.65685 15.0711L0.292892 8.70711ZM56.5 7C57.0523 7 57.5 7.44772 57.5 8C57.5 8.55228 57.0523 9 56.5 9V7ZM1 7H31.3314V9H1V7ZM31.3314 7H56.5V9H31.3314V7Z" fill="#CD1423"/>
</svg>
