<svg width="40" height="40" viewBox="0 0 40 40" fill="none" xmlns="http://www.w3.org/2000/svg">
<path d="M5 20H4H5ZM20 35V34V35ZM35 20H34H35ZM20 5V6V5ZM21 13.3333C21 12.781 20.5523 12.3333 20 12.3333C19.4477 12.3333 19 12.781 19 13.3333H21ZM19 20C19 20.5523 19.4477 21 20 21C20.5523 21 21 20.5523 21 20H19ZM20 25.6667C19.4477 25.6667 19 26.1144 19 26.6667C19 27.219 19.4477 27.6667 20 27.6667V25.6667ZM20.0167 27.6667C20.569 27.6667 21.0167 27.219 21.0167 26.6667C21.0167 26.1144 20.569 25.6667 20.0167 25.6667V27.6667ZM4 20C4 22.1011 4.41385 24.1817 5.21793 26.1229L7.06569 25.3576C6.36212 23.659 6 21.8385 6 20H4ZM5.21793 26.1229C6.022 28.0641 7.20055 29.828 8.68629 31.3137L10.1005 29.8995C8.80048 28.5995 7.76925 27.0561 7.06569 25.3576L5.21793 26.1229ZM8.68629 31.3137C10.172 32.7994 11.9359 33.978 13.8771 34.7821L14.6424 32.9343C12.9439 32.2307 11.4005 31.1995 10.1005 29.8995L8.68629 31.3137ZM13.8771 34.7821C15.8183 35.5861 17.8989 36 20 36V34C18.1615 34 16.341 33.6379 14.6424 32.9343L13.8771 34.7821ZM20 36C22.1011 36 24.1817 35.5861 26.1229 34.7821L25.3576 32.9343C23.659 33.6379 21.8385 34 20 34V36ZM26.1229 34.7821C28.0641 33.978 29.828 32.7994 31.3137 31.3137L29.8995 29.8995C28.5995 31.1995 27.0561 32.2307 25.3576 32.9343L26.1229 34.7821ZM31.3137 31.3137C32.7994 29.828 33.978 28.0641 34.7821 26.1229L32.9343 25.3576C32.2307 27.0561 31.1995 28.5995 29.8995 29.8995L31.3137 31.3137ZM34.7821 26.1229C35.5861 24.1817 36 22.1011 36 20H34C34 21.8385 33.6379 23.659 32.9343 25.3576L34.7821 26.1229ZM36 20C36 15.7565 34.3143 11.6869 31.3137 8.68629L29.8995 10.1005C32.525 12.726 34 16.287 34 20H36ZM31.3137 8.68629C28.3131 5.68571 24.2435 4 20 4V6C23.713 6 27.274 7.475 29.8995 10.1005L31.3137 8.68629ZM20 4C15.7565 4 11.6869 5.68571 8.68629 8.68629L10.1005 10.1005C12.726 7.475 16.287 6 20 6V4ZM8.68629 8.68629C5.68571 11.6869 4 15.7565 4 20H6C6 16.287 7.475 12.726 10.1005 10.1005L8.68629 8.68629ZM19 13.3333V20H21V13.3333H19ZM20 27.6667H20.0167V25.6667H20V27.6667Z" fill="#FE5663"/>
</svg>
