<svg width="32" height="32" viewBox="0 0 32 32" fill="none" xmlns="http://www.w3.org/2000/svg">
<path d="M1 16H0H1ZM16 31V30V31ZM31 16H30H31ZM16 1V2V1ZM17 9.33333C17 8.78105 16.5523 8.33333 16 8.33333C15.4477 8.33333 15 8.78105 15 9.33333H17ZM15 16C15 16.5523 15.4477 17 16 17C16.5523 17 17 16.5523 17 16H15ZM16 21.6667C15.4477 21.6667 15 22.1144 15 22.6667C15 23.219 15.4477 23.6667 16 23.6667V21.6667ZM16.0167 23.6667C16.569 23.6667 17.0167 23.219 17.0167 22.6667C17.0167 22.1144 16.569 21.6667 16.0167 21.6667V23.6667ZM0 16C0 18.1011 0.413852 20.1817 1.21793 22.1229L3.06569 21.3576C2.36212 19.659 2 17.8385 2 16H0ZM1.21793 22.1229C2.022 24.0641 3.20055 25.828 4.68629 27.3137L6.1005 25.8995C4.80048 24.5995 3.76925 23.0561 3.06569 21.3576L1.21793 22.1229ZM4.68629 27.3137C6.17203 28.7994 7.93585 29.978 9.87706 30.7821L10.6424 28.9343C8.94387 28.2307 7.40053 27.1995 6.1005 25.8995L4.68629 27.3137ZM9.87706 30.7821C11.8183 31.5861 13.8989 32 16 32V30C14.1615 30 12.341 29.6379 10.6424 28.9343L9.87706 30.7821ZM16 32C18.1011 32 20.1817 31.5861 22.1229 30.7821L21.3576 28.9343C19.659 29.6379 17.8385 30 16 30V32ZM22.1229 30.7821C24.0641 29.978 25.828 28.7994 27.3137 27.3137L25.8995 25.8995C24.5995 27.1995 23.0561 28.2307 21.3576 28.9343L22.1229 30.7821ZM27.3137 27.3137C28.7994 25.828 29.978 24.0641 30.7821 22.1229L28.9343 21.3576C28.2307 23.0561 27.1995 24.5995 25.8995 25.8995L27.3137 27.3137ZM30.7821 22.1229C31.5861 20.1817 32 18.1011 32 16H30C30 17.8385 29.6379 19.659 28.9343 21.3576L30.7821 22.1229ZM32 16C32 11.7565 30.3143 7.68687 27.3137 4.68629L25.8995 6.1005C28.525 8.72601 30 12.287 30 16H32ZM27.3137 4.68629C24.3131 1.68571 20.2435 0 16 0V2C19.713 2 23.274 3.475 25.8995 6.1005L27.3137 4.68629ZM16 0C11.7565 0 7.68687 1.68571 4.68629 4.68629L6.1005 6.1005C8.72601 3.475 12.287 2 16 2V0ZM4.68629 4.68629C1.68571 7.68687 5.96046e-08 11.7565 0 16H2C2 12.287 3.475 8.72601 6.1005 6.1005L4.68629 4.68629ZM15 9.33333V16H17V9.33333H15ZM16 23.6667H16.0167V21.6667H16V23.6667Z" fill="#FE5663"/>
</svg>
