<svg width="15" height="15" viewBox="0 0 15 15" fill="none" xmlns="http://www.w3.org/2000/svg">
<circle cx="7.23529" cy="7.71176" r="7.23529" fill="#F9F9FA"/>
<path d="M8.29722 9.47912L8.29722 9.47912L6.37382 7.53088L8.29722 5.58265L8.29722 5.58265C8.34691 5.53231 8.3747 5.46418 8.3747 5.39329C8.3747 5.3224 8.34691 5.25427 8.29722 5.20393C8.24751 5.15357 8.17993 5.12515 8.10932 5.12515C8.0387 5.12515 7.97112 5.15357 7.92141 5.20393L5.81137 7.34151C5.81137 7.34151 5.81136 7.34152 5.81135 7.34153C5.78673 7.36645 5.76724 7.396 5.75395 7.42847C5.74065 7.46096 5.73382 7.49576 5.73382 7.53088C5.73382 7.56601 5.74065 7.60081 5.75395 7.63329C5.76724 7.66577 5.78673 7.69532 5.81135 7.72024C5.81136 7.72025 5.81137 7.72025 5.81137 7.72026L7.92141 9.85783C7.94602 9.88276 7.97528 9.90258 8.00753 9.91611C8.03978 9.92964 8.07437 9.93662 8.10932 9.93662C8.14427 9.93662 8.17886 9.92964 8.21111 9.91611C8.24335 9.90258 8.27261 9.88276 8.29722 9.85783C8.32183 9.8329 8.34132 9.80334 8.3546 9.77086C8.36788 9.73838 8.3747 9.70359 8.3747 9.66848C8.3747 9.63336 8.36788 9.59857 8.3546 9.56609C8.34132 9.53361 8.32183 9.50405 8.29722 9.47912Z" fill="#C0C5CC" stroke="#C0C5CC" stroke-width="0.108529"/>
</svg>
