<svg width="15" height="15" viewBox="0 0 15 15" fill="none" xmlns="http://www.w3.org/2000/svg">
<circle cx="7.23529" cy="7.23529" r="7.23529" transform="matrix(-1 0 0 1 15 0.476471)" fill="#F9F9FA"/>
<path d="M6.70278 9.47912L6.70278 9.47912L8.62618 7.53088L6.70278 5.58265L6.70278 5.58265C6.65309 5.53231 6.6253 5.46418 6.6253 5.39329C6.6253 5.3224 6.65309 5.25427 6.70278 5.20393C6.75249 5.15357 6.82007 5.12515 6.89068 5.12515C6.9613 5.12515 7.02888 5.15357 7.07859 5.20393L9.18863 7.34151C9.18863 7.34151 9.18864 7.34152 9.18865 7.34153C9.21327 7.36645 9.23276 7.396 9.24605 7.42847C9.25935 7.46096 9.26618 7.49576 9.26618 7.53088C9.26618 7.56601 9.25935 7.60081 9.24605 7.63329C9.23276 7.66577 9.21327 7.69532 9.18865 7.72024C9.18864 7.72025 9.18863 7.72025 9.18863 7.72026L7.07859 9.85783C7.05398 9.88276 7.02472 9.90258 6.99247 9.91611C6.96022 9.92964 6.92563 9.93662 6.89068 9.93662C6.85573 9.93662 6.82114 9.92964 6.78889 9.91611C6.75665 9.90258 6.72739 9.88276 6.70278 9.85783C6.67817 9.8329 6.65868 9.80334 6.6454 9.77086C6.63212 9.73838 6.6253 9.70359 6.6253 9.66848C6.6253 9.63336 6.63212 9.59857 6.6454 9.56609C6.65868 9.53361 6.67817 9.50405 6.70278 9.47912Z" fill="#6A6D73" stroke="#6A6D73" stroke-width="0.108529"/>
</svg>
