<svg width="38" height="38" viewBox="0 0 38 38" fill="none" xmlns="http://www.w3.org/2000/svg">
  <circle cx="19" cy="19" r="17.5" fill="white" stroke="#6A6D73"/>
  <g clip-path="url(#clip0_1435_33053)">
    <path d="M10.5732 18.3273C10.2017 17.9187 9.56924 17.8886 9.16058 18.2601C8.75192 18.6316 8.7218 19.264 9.09331 19.6727L10.5732 18.3273ZM18.9999 29.0833L18.26 29.756C18.4439 29.9584 18.7027 30.0765 18.9761 30.0831C19.2495 30.0896 19.5137 29.9838 19.707 29.7904L18.9999 29.0833ZM19.9999 9.375C19.9999 8.82272 19.5522 8.375 18.9999 8.375C18.4476 8.375 17.9999 8.82272 17.9999 9.375H19.9999ZM29.7904 19.7071C30.1809 19.3166 30.1809 18.6834 29.7904 18.2929C29.3998 17.9024 28.7667 17.9024 28.3761 18.2929L29.7904 19.7071ZM9.09331 19.6727L18.26 29.756L19.7399 28.4107L10.5732 18.3273L9.09331 19.6727ZM19.9999 29.0833V9.375H17.9999V29.0833H19.9999ZM19.707 29.7904L29.7904 19.7071L28.3761 18.2929L18.2928 28.3762L19.707 29.7904Z" fill="#6A6D73"/>
  </g>
  <defs>
    <clipPath id="clip0_1435_33053">
      <rect width="22" height="22" fill="white" transform="matrix(0 1 -1 0 30 8)"/>
    </clipPath>
  </defs>
</svg>
