<svg width="38" height="38" viewBox="0 0 38 38" fill="none" xmlns="http://www.w3.org/2000/svg">
  <circle cx="19" cy="19" r="17.5" fill="white" stroke="#6A6D73"/>
  <g clip-path="url(#clip0_1435_33052)">
    <path d="M27.4268 19.6727C27.7983 20.0813 28.4308 20.1114 28.8394 19.7399C29.2481 19.3684 29.2782 18.736 28.9067 18.3273L27.4268 19.6727ZM19.0001 8.91667L19.74 8.24399C19.5561 8.04164 19.2973 7.92345 19.0239 7.91695C18.7505 7.91044 18.4863 8.01619 18.293 8.20956L19.0001 8.91667ZM18.0001 28.625C18.0001 29.1773 18.4478 29.625 19.0001 29.625C19.5524 29.625 20.0001 29.1773 20.0001 28.625H18.0001ZM8.20964 18.2929C7.81912 18.6834 7.81912 19.3166 8.20964 19.7071C8.60017 20.0976 9.23333 20.0976 9.62385 19.7071L8.20964 18.2929ZM28.9067 18.3273L19.74 8.24399L18.2601 9.58934L27.4268 19.6727L28.9067 18.3273ZM18.0001 8.91667V28.625H20.0001V8.91667H18.0001ZM18.293 8.20956L8.20964 18.2929L9.62385 19.7071L19.7072 9.62377L18.293 8.20956Z" fill="#6A6D73"/>
  </g>
  <defs>
    <clipPath id="clip0_1435_33052">
      <rect width="22" height="22" fill="white" transform="matrix(0 -1 1 0 8 30)"/>
    </clipPath>
  </defs>
</svg>
