<svg width="24" height="23" viewBox="0 0 24 23" fill="none" xmlns="http://www.w3.org/2000/svg">
<path d="M11.3273 21.2601C10.9187 21.6316 10.8886 22.264 11.2601 22.6727C11.6316 23.0813 12.264 23.1114 12.6727 22.7399L11.3273 21.2601ZM23 12L23.6727 12.7399C23.875 12.556 23.9932 12.2972 23.9997 12.0238C24.0062 11.7504 23.9005 11.4863 23.7071 11.2929L23 12ZM1.5 11C0.947715 11 0.5 11.4477 0.5 12C0.5 12.5523 0.947715 13 1.5 13V11ZM12.7071 0.292893C12.3166 -0.0976311 11.6834 -0.0976311 11.2929 0.292893C10.9024 0.683417 10.9024 1.31658 11.2929 1.70711L12.7071 0.292893ZM12.6727 22.7399L23.6727 12.7399L22.3273 11.2601L11.3273 21.2601L12.6727 22.7399ZM23 11H1.5V13H23V11ZM23.7071 11.2929L12.7071 0.292893L11.2929 1.70711L22.2929 12.7071L23.7071 11.2929Z" fill="#6A6D73"/>
</svg>
