<svg width="38" height="39" viewBox="0 0 38 39" fill="none" xmlns="http://www.w3.org/2000/svg">
<g clip-path="url(#clip0_1435_32816)">
<g clip-path="url(#clip1_1435_32816)">
<path d="M18.3273 28.7908C17.9187 29.1623 17.8886 29.7948 18.2601 30.2034C18.6316 30.6121 19.264 30.6422 19.6727 30.2707L18.3273 28.7908ZM30 19.5308L30.6727 20.2707C30.875 20.0867 30.9932 19.8279 30.9997 19.5546C31.0062 19.2812 30.9005 19.017 30.7071 18.8237L30 19.5308ZM8.5 18.5308C7.94772 18.5308 7.5 18.9785 7.5 19.5308C7.5 20.083 7.94772 20.5308 8.5 20.5308V18.5308ZM19.7071 7.82365C19.3166 7.43313 18.6834 7.43313 18.2929 7.82365C17.9024 8.21418 17.9024 8.84734 18.2929 9.23787L19.7071 7.82365ZM19.6727 30.2707L30.6727 20.2707L29.3273 18.7908L18.3273 28.7908L19.6727 30.2707ZM30 18.5308H8.5V20.5308H30V18.5308ZM30.7071 18.8237L19.7071 7.82365L18.2929 9.23787L29.2929 20.2379L30.7071 18.8237Z" fill="#6A6D73"/>
</g>
</g>
<defs>
<clipPath id="clip0_1435_32816">
<rect width="38" height="38" fill="white" transform="translate(0 0.530762)"/>
</clipPath>
<clipPath id="clip1_1435_32816">
<rect width="24" height="24" fill="white" transform="translate(7 7.53076)"/>
</clipPath>
</defs>
</svg>
