<svg width="20" height="18" viewBox="0 0 20 18" fill="none" xmlns="http://www.w3.org/2000/svg">
<path d="M18.9448 6.77481C18.864 6.52593 18.7119 6.30631 18.5072 6.1433C18.3025 5.98028 18.0544 5.88108 17.7938 5.85803L12.8441 5.43132L10.9038 0.817431C10.8028 0.575333 10.6324 0.368534 10.4141 0.223075C10.1958 0.077616 9.93934 0 9.67701 0C9.41468 0 9.15822 0.077616 8.93991 0.223075C8.72161 0.368534 8.55122 0.575333 8.4502 0.817431L6.5158 5.43132L1.56021 5.86053C1.29854 5.88252 1.04919 5.98128 0.843423 6.14441C0.637656 6.30755 0.484635 6.52781 0.403549 6.77757C0.322462 7.02732 0.31692 7.29546 0.387617 7.54836C0.458314 7.80125 0.602103 8.02765 0.800953 8.19915L4.56057 11.4845L3.43377 16.3635C3.37418 16.6188 3.39119 16.886 3.48265 17.1317C3.57411 17.3774 3.73597 17.5907 3.94799 17.7449C4.16002 17.8991 4.4128 17.9874 4.67473 17.9988C4.93666 18.0101 5.19612 17.944 5.42067 17.8086L9.67118 15.225L13.9309 17.8086C14.1554 17.944 14.4149 18.0101 14.6768 17.9988C14.9387 17.9874 15.1915 17.8991 15.4035 17.7449C15.6156 17.5907 15.7774 17.3774 15.8689 17.1317C15.9603 16.886 15.9773 16.6188 15.9178 16.3635L14.7918 11.4795L18.5506 8.19915C18.7494 8.02705 18.8929 7.80002 18.963 7.54659C19.0332 7.29315 19.0268 7.02464 18.9448 6.77481ZM17.6763 7.19153L13.9175 10.4719C13.7346 10.631 13.5985 10.837 13.5239 11.0677C13.4493 11.2985 13.439 11.5451 13.4941 11.7812L14.6234 16.6685L10.3671 14.0848C10.1594 13.9584 9.92098 13.8915 9.67785 13.8915C9.43471 13.8915 9.19626 13.9584 8.9886 14.0848L4.73809 16.6685L5.85989 11.7846C5.91502 11.5485 5.90473 11.3018 5.83013 11.0711C5.75553 10.8404 5.61944 10.6344 5.43651 10.4753L1.67606 7.19653C1.67575 7.19404 1.67575 7.19152 1.67606 7.18903L6.62998 6.76064C6.87185 6.73932 7.1033 6.65237 7.29938 6.50917C7.49545 6.36597 7.64871 6.17195 7.74262 5.94804L9.67701 1.33999L11.6106 5.94804C11.7045 6.17195 11.8577 6.36597 12.0538 6.50917C12.2499 6.65237 12.4813 6.73932 12.7232 6.76064L17.678 7.18903C17.678 7.18903 17.678 7.19403 17.678 7.19486L17.6763 7.19153Z" fill="#6A6D73"/>
</svg>
