<svg width="18" height="18" viewBox="0 0 18 18" fill="none" xmlns="http://www.w3.org/2000/svg">
<g clip-path="url(#clip0_3885_4091)">
<path d="M19.0233 6.35159C18.971 6.29929 18.909 6.2578 18.8407 6.22949C18.7724 6.20118 18.6992 6.18662 18.6253 6.18662C18.5514 6.18662 18.4782 6.20118 18.4099 6.22949C18.3416 6.2578 18.2796 6.29929 18.2273 6.35159L13.0003 11.5793L7.77328 6.35159C7.66773 6.24604 7.52458 6.18674 7.37531 6.18674C7.22605 6.18674 7.08289 6.24604 6.97734 6.35159C6.8718 6.45714 6.8125 6.60029 6.8125 6.74956C6.8125 6.89882 6.8718 7.04198 6.97734 7.14753L12.6023 12.7725C12.6546 12.8248 12.7166 12.8663 12.7849 12.8946C12.8532 12.9229 12.9264 12.9375 13.0003 12.9375C13.0742 12.9375 13.1474 12.9229 13.2157 12.8946C13.284 12.8663 13.346 12.8248 13.3983 12.7725L19.0233 7.14753C19.0756 7.09529 19.1171 7.03325 19.1454 6.96496C19.1737 6.89668 19.1883 6.82348 19.1883 6.74956C19.1883 6.67564 19.1737 6.60244 19.1454 6.53415C19.1171 6.46587 19.0756 6.40383 19.0233 6.35159Z" fill="#47494D"/>
</g>
<defs>
<clipPath id="clip0_3885_4091">
<rect width="18" height="18" fill="white" transform="matrix(1 0 0 -1 0 18)"/>
</clipPath>
</defs>
</svg>
