<svg width="20" height="20" viewBox="0 0 20 20" fill="none" xmlns="http://www.w3.org/2000/svg">
<path d="M4.73365 9.43496C4.42123 9.12255 3.9147 9.12255 3.60228 9.43496C3.28986 9.74738 3.28986 10.2539 3.60228 10.5663L4.73365 9.43496ZM8.33464 14.1673L7.76895 14.733C8.08137 15.0454 8.5879 15.0454 8.90032 14.733L8.33464 14.1673ZM17.2337 6.39967C17.5461 6.08725 17.5461 5.58072 17.2337 5.2683C16.9212 4.95588 16.4147 4.95588 16.1023 5.2683L17.2337 6.39967ZM3.60228 10.5663L7.76895 14.733L8.90032 13.6016L4.73365 9.43496L3.60228 10.5663ZM8.90032 14.733L17.2337 6.39967L16.1023 5.2683L7.76895 13.6016L8.90032 14.733Z" fill="#00A42E"/>
</svg>
