<svg width="22" height="22" viewBox="0 0 22 22" fill="none" xmlns="http://www.w3.org/2000/svg">
<circle cx="11" cy="11" r="11" fill="#1E78FF"/>
<path fill-rule="evenodd" clip-rule="evenodd" d="M10.998 4.72218C10.998 4.30796 10.6611 3.96797 10.2492 4.01159C6.71884 4.38541 3.96826 7.37246 3.96826 11.0019C3.96826 14.8844 7.11559 18.0317 10.998 18.0317C14.6275 18.0317 17.6145 15.2811 17.9884 11.7508C18.032 11.3388 17.692 11.0019 17.2778 11.0019C16.8636 11.0019 16.5331 11.3396 16.4776 11.75C16.1124 14.4502 13.7983 16.5317 10.998 16.5317C7.94402 16.5317 5.46826 14.0559 5.46826 11.0019C5.46826 8.20166 7.54974 5.88754 10.2499 5.52235C10.6604 5.46684 10.998 5.13639 10.998 4.72218Z" fill="white"/>
<circle cx="11" cy="11" r="2" fill="white"/>
<rect x="16.0034" y="5" width="1.25719" height="7.07581" transform="rotate(45 16.0034 5)" fill="white"/>
<path fill-rule="evenodd" clip-rule="evenodd" d="M16.7727 5.20108C16.6234 5.15131 16.5062 5.03415 16.4565 4.88485L16.0842 3.7682C15.9667 3.41558 15.5192 3.30993 15.2563 3.57276L13.9256 4.90351C13.7917 5.03743 13.7449 5.23551 13.8048 5.41518L14.3351 7.00617C14.3849 7.15547 14.5021 7.27263 14.6514 7.3224L16.2424 7.85273C16.422 7.91261 16.6201 7.86585 16.754 7.73194L18.0848 6.40119C18.3476 6.13836 18.2419 5.69083 17.8893 5.57329L16.7727 5.20108Z" fill="white"/>
</svg>
