<svg width="41" height="50" viewBox="0 0 41 50" fill="none" xmlns="http://www.w3.org/2000/svg">
<path d="M28.6939 49.0607C29.2797 49.6464 30.2295 49.6464 30.8153 49.0607L40.3612 39.5147C40.947 38.9289 40.947 37.9792 40.3612 37.3934C39.7754 36.8076 38.8257 36.8076 38.2399 37.3934L29.7546 45.8787L21.2693 37.3934C20.6835 36.8076 19.7338 36.8076 19.148 37.3934C18.5622 37.9792 18.5622 38.9289 19.148 39.5147L28.6939 49.0607ZM1.5 0.5C0.671573 0.5 0 1.17157 0 2C0 2.82843 0.671573 3.5 1.5 3.5V0.5ZM31.2546 48V26H28.2546V48H31.2546ZM5.75459 0.5H1.5V3.5H5.75459V0.5ZM31.2546 26C31.2546 11.9167 19.8378 0.5 5.75459 0.5V3.5C18.181 3.5 28.2546 13.5736 28.2546 26H31.2546Z" fill="#E4007F"/>
</svg>
