<svg width="201" height="200" viewBox="0 0 201 200" fill="none" xmlns="http://www.w3.org/2000/svg">
<path d="M126.449 157.46L127.16 155.982C127.598 155.052 127.215 153.957 126.339 153.519C125.409 153.081 124.314 153.464 123.876 154.34L123.164 155.818C122.726 156.749 123.11 157.843 123.985 158.281C124.259 158.391 124.533 158.5 124.807 158.5C125.463 158.5 126.12 158.117 126.449 157.46Z" fill="#EB1807"/>
<path d="M118.237 157.734C117.799 156.803 116.704 156.42 115.774 156.858L114.569 157.46C113.912 157.789 113.201 158.117 112.544 158.446C111.613 158.829 111.175 159.924 111.559 160.854C111.832 161.566 112.544 162.004 113.255 162.004C113.474 162.004 113.748 162.004 113.967 161.84C114.733 161.511 115.5 161.128 116.266 160.745L117.416 160.197C118.346 159.759 118.73 158.665 118.292 157.734H118.237Z" fill="#EB1807"/>
<path d="M136.524 153.3C135.758 152.315 134.28 152.15 133.076 153.026C131.762 153.957 131.488 155.544 132.364 156.858C132.638 157.296 133.076 157.57 133.623 157.679C133.733 157.679 133.842 157.679 133.897 157.679C134.116 157.679 134.28 157.57 134.444 157.515C134.608 158.391 135.375 159.048 136.251 159.048C136.36 159.048 136.47 159.048 136.524 159.048L138.823 158.665C138.823 158.665 138.823 158.993 138.823 159.157C138.988 160.143 139.918 160.799 140.958 160.635L141.451 160.526C141.779 160.799 142.217 160.964 142.655 161.018C143.367 161.018 143.969 160.58 144.298 159.978L144.516 160.526C144.516 160.526 145.009 160.307 145.173 160.252C145.338 160.362 145.557 160.471 145.83 160.471C146.87 160.635 147.801 159.978 147.965 158.938C148.02 158.5 148.239 157.351 147.308 156.639C147.199 156.53 147.035 156.53 146.925 156.42C147.199 156.365 147.418 156.365 147.637 156.147C148.02 155.873 148.348 155.544 148.731 155.216L149.224 154.778C149.717 154.34 149.936 153.738 149.826 153.136C149.717 152.534 149.334 151.986 148.731 151.713L148.02 151.384C147.089 151.001 145.994 151.384 145.557 152.315C145.447 152.588 145.392 152.862 145.392 153.191C145.392 153.191 145.338 153.191 145.283 153.245C144.462 153.902 144.352 155.052 145.009 155.818C145.119 155.982 145.283 156.092 145.447 156.201C144.954 156.311 144.298 156.53 143.531 156.858C143.257 156.694 142.874 156.53 142.491 156.584C141.944 156.584 141.342 156.749 140.794 156.858H140.411C140.411 156.858 140.411 156.639 140.411 156.42C140.247 155.435 139.316 154.669 138.276 154.888L136.579 155.161C136.853 154.395 136.689 153.738 136.36 153.245L136.524 153.3ZM135.43 154.778C135.43 154.778 135.539 155.216 135.484 155.49C135.156 155.654 134.882 155.818 134.718 156.092C134.444 156.092 134.171 155.982 133.897 155.763L135.43 154.723V154.778ZM133.295 154.997L133.897 155.763C133.897 155.763 133.787 155.763 133.733 155.709C133.514 155.49 133.349 155.271 133.295 154.997Z" fill="#EB1807"/>
<path d="M98.6963 162.277C98.3678 162.551 98.0941 162.88 97.9847 163.318C96.9446 163.591 95.8498 163.81 94.8097 164.084L92.5654 164.577C91.6895 164.796 91.0874 165.562 91.1421 166.438C91.1421 167.314 91.8538 168.08 92.7296 168.189L93.7149 168.354C94.5908 168.518 95.5213 168.682 96.5067 168.682C97.9299 168.682 99.5174 168.354 101.16 167.204C101.762 166.766 102.035 166.055 101.926 165.398L101.816 164.631L103.678 163.263L101.488 160.252L98.6963 162.277Z" fill="#EB1807"/>
<path d="M110.958 162.715L110.191 162.496C108.604 162.058 107.728 161.73 107.235 161.566C106.797 160.635 105.703 160.197 104.772 160.635C104.06 160.964 103.404 161.894 103.458 162.661C103.568 164.303 105.21 164.96 109.206 166.109L110.027 166.328C110.848 166.547 111.943 166.821 112.655 167.04C112.983 167.587 113.585 167.916 114.187 167.916C114.461 167.916 114.735 167.861 115.008 167.751C115.72 167.423 116.268 166.492 116.158 165.726C115.994 164.084 114.625 163.755 110.903 162.77L110.958 162.715Z" fill="#EB1807"/>
<path d="M100.667 171.693C99.7366 171.474 98.806 171.255 97.9301 171.036L97.4375 170.926C96.4521 170.653 95.4121 171.255 95.1931 172.24C94.9194 173.225 95.5216 174.265 96.5069 174.484L96.9995 174.594C97.9849 174.868 98.9702 175.141 99.9555 175.305C100.065 175.305 100.229 175.305 100.339 175.305C101.215 175.305 101.981 174.703 102.145 173.828C102.364 172.842 101.707 171.857 100.722 171.638L100.667 171.693Z" fill="#EB1807"/>
<path d="M129.952 162.387C130.171 161.73 129.952 161.073 129.514 160.58C129.569 160.471 129.623 160.416 129.678 160.252L130.499 160.471C130.499 160.471 130.828 160.526 130.992 160.526C131.813 160.526 132.579 159.978 132.798 159.157C133.072 158.172 132.47 157.132 131.484 156.913L130.061 156.53C129.131 156.311 128.255 156.803 127.926 157.624C127.269 157.624 126.613 158.062 126.339 158.719C126.229 159.048 126.12 159.157 126.175 159.212C125.792 159.321 124.478 159.267 124.04 159.212C123.547 159.212 122.945 159.486 122.617 159.759C121.139 160.909 119.715 162.058 118.073 163.208C117.526 163.591 117.197 164.248 117.252 164.905C117.307 165.562 117.745 166.164 118.347 166.438H118.402L118.237 166.876C117.854 167.806 118.237 168.901 119.223 169.284C119.442 169.394 119.715 169.448 119.934 169.448C120.646 169.448 121.358 169.01 121.631 168.299L122.507 166.219C122.726 165.671 122.671 165.069 122.398 164.631C123.109 164.084 123.821 163.536 124.587 162.934C125.025 162.934 125.354 162.934 125.737 162.934L127.598 163.536C127.598 163.536 127.981 163.646 128.2 163.646C128.966 163.646 129.678 163.153 129.952 162.387Z" fill="#EB1807"/>
<path d="M80.7393 162.442C80.4109 162.168 80.0277 162.058 79.5898 162.058H78.1118C77.1812 162.058 76.3601 162.989 76.2506 163.92C76.1959 164.467 76.3601 164.96 76.6885 165.343C77.017 165.726 77.5644 165.945 78.057 165.945H79.9182C80.9583 165.945 81.7794 165.124 81.7794 164.084C81.7794 163.317 81.3415 162.715 80.6846 162.387L80.7393 162.442Z" fill="#EB1807"/>
<path d="M91.8502 170.324L90.9743 169.503C90.5364 169.065 89.989 169.01 89.4416 169.12C88.8395 168.846 88.1826 168.791 87.6352 169.175C86.8141 169.777 86.5951 170.926 87.1972 171.747L87.6352 172.35L86.5951 173.171C85.774 173.773 85.6098 174.977 86.2667 175.743C86.6498 176.236 87.1972 176.455 87.7446 176.455C88.1278 176.455 88.511 176.346 88.8394 176.072L90.3722 174.868C91.3575 175.087 92.2881 174.484 92.507 173.499C92.6165 172.952 92.5071 172.459 92.2334 172.021C92.3976 171.419 92.3428 170.762 91.8502 170.269V170.324Z" fill="#EB1807"/>
<path d="M152.782 179.466C151.797 179.356 150.866 180.123 150.811 181.163L150.647 182.86C150.538 183.9 151.304 184.776 152.344 184.885C152.344 184.885 152.454 184.885 152.508 184.885C153.439 184.885 154.26 184.174 154.369 183.188L154.534 181.491C154.643 180.451 153.877 179.575 152.837 179.521L152.782 179.466Z" fill="#EB1807"/>
<path d="M160.062 170.926L157.927 174.32C157.38 175.196 157.653 176.346 158.529 176.893C158.858 177.112 159.186 177.167 159.514 177.167C160.117 177.167 160.719 176.838 161.102 176.291L163.237 172.897C163.784 172.021 163.51 170.872 162.635 170.324C161.759 169.777 160.609 170.05 160.062 170.926Z" fill="#EB1807"/>
<path d="M179.055 144.158C178.015 143.939 177.084 144.596 176.865 145.582L176.044 149.413C175.825 150.399 176.482 151.384 177.467 151.603C177.577 151.603 177.741 151.603 177.851 151.603C178.726 151.603 179.493 151.001 179.657 150.125L180.478 146.293C180.697 145.308 180.04 144.323 179.055 144.104V144.158Z" fill="#EB1807"/>
<path d="M168.053 147.935C168.382 148.373 168.874 148.592 169.367 148.647C169.695 149.085 170.188 149.413 170.736 149.413C170.845 149.413 170.9 149.413 171.009 149.413L172.159 149.249C172.761 149.14 173.254 148.757 173.527 148.264C174.075 147.935 174.513 147.497 174.513 146.841C174.513 145.801 173.746 144.979 172.706 144.925H171.885C171.885 144.432 171.885 143.994 171.885 143.501C171.776 142.461 170.845 141.695 169.86 141.804C168.82 141.914 168.108 142.79 168.163 143.83C168.163 144.377 168.217 144.925 168.272 145.472C167.561 146.129 167.451 147.169 167.999 147.99L168.053 147.935Z" fill="#EB1807"/>
<path d="M153.875 169.448H153.821L153.766 169.01C153.602 168.025 152.671 167.259 151.631 167.478C150.646 167.642 149.934 168.572 150.098 169.613L150.427 171.802C150.481 172.35 150.81 172.842 151.248 173.116C151.029 173.554 150.865 173.937 150.646 174.375L150.098 175.524C149.715 175.743 149.387 175.908 149.058 176.072L147.197 176.236C146.157 176.346 145.445 177.221 145.555 178.262C145.61 178.918 146.102 179.356 146.65 179.63C146.65 179.794 146.65 179.904 146.65 180.068L145.719 180.177C144.734 180.287 143.967 181.217 144.132 182.258C144.241 183.188 145.062 183.9 145.993 183.9C146.048 183.9 146.157 183.9 146.212 183.9L147.69 183.736C148.675 183.626 149.387 182.75 149.277 181.765C149.879 181.436 150.372 180.944 150.372 180.232C150.372 179.904 150.372 179.685 150.372 179.685C150.591 179.466 151.795 178.864 152.397 178.59C152.781 178.426 153.109 178.097 153.273 177.714L154.094 175.962C154.696 174.703 155.299 173.444 155.846 172.076C156.12 171.474 156.01 170.762 155.627 170.269C155.244 169.722 154.587 169.448 153.93 169.558L153.875 169.448Z" fill="#EB1807"/>
<path d="M143.858 183.845C143.529 183.845 143.365 184.119 143.091 184.283C142.654 183.407 141.668 183.024 140.738 183.407L138.603 184.283C138.603 184.283 138.603 183.955 138.493 183.79C138.11 182.86 137.015 182.422 136.085 182.805L135.756 182.969C135.373 182.75 134.88 182.641 134.388 182.805C133.95 182.914 133.676 183.133 133.402 183.462C133.238 183.462 133.074 183.462 132.965 183.462C132.746 183.571 132.581 183.681 132.472 183.736C132.253 183.626 131.87 183.571 131.706 183.571C130.665 183.571 129.899 184.447 129.899 185.487C129.899 185.925 129.899 187.02 130.939 187.567C131.049 187.622 131.213 187.622 131.322 187.677C131.103 187.786 130.884 187.786 130.665 187.951L129.352 189.319C128.914 189.757 128.75 190.414 128.859 191.016C128.968 191.618 129.406 192.111 130.009 192.33L130.72 192.603C130.72 192.603 131.158 192.713 131.377 192.713C132.089 192.713 132.8 192.275 133.074 191.563C133.183 191.235 133.238 190.907 133.183 190.633L133.293 190.523C134.005 189.812 133.95 188.607 133.293 187.896C133.129 187.732 132.855 187.732 132.636 187.622C133.129 187.458 133.676 187.184 134.388 186.801C134.607 186.856 134.771 186.965 134.99 186.965C135.154 186.965 135.318 186.965 135.483 186.911C135.975 186.746 136.523 186.527 137.07 186.308L137.344 186.199C137.344 186.199 137.344 186.527 137.453 186.692C137.727 187.403 138.439 187.841 139.15 187.841C139.369 187.841 139.643 187.841 139.862 187.677L141.449 187.02C141.395 187.732 141.668 188.389 142.27 188.826C142.654 189.1 143.037 189.21 143.475 189.21C144.241 189.21 145.062 188.772 145.664 188.06C146.65 186.801 146.485 185.159 145.226 184.173C144.843 183.845 144.296 183.681 143.803 183.79L143.858 183.845ZM142.927 187.129C142.927 187.129 142.654 186.746 142.654 186.527C142.927 186.308 143.091 186.035 143.201 185.761C143.31 185.761 143.365 185.651 143.529 185.651C143.694 185.651 143.913 185.651 144.077 185.761L142.927 187.129Z" fill="#EB1807"/>
<path d="M172.046 151.384L171.444 151.877C169.692 153.3 167.722 154.942 166.955 158.391C166.791 159.102 167.065 159.869 167.667 160.307L168.214 160.745L167.667 163.098L171.28 163.92L172.101 160.361C172.21 159.978 172.101 159.486 171.882 159.102C172.484 158.062 173.031 157.022 173.579 155.982L174.838 153.738C175.276 152.972 175.111 151.986 174.4 151.384C173.688 150.837 172.703 150.837 172.046 151.384Z" fill="#EB1807"/>
<path d="M161.592 164.631C160.662 165.014 159.129 165.617 158.199 165.89C157.323 165.507 156.337 165.89 155.845 166.711C155.462 167.368 155.516 168.463 156.064 169.065C156.502 169.558 156.94 169.777 157.596 169.777C158.746 169.777 160.388 169.12 163.18 168.025C164.056 167.642 165.205 167.149 165.972 166.876C166.902 167.314 167.997 166.93 168.435 166.055C168.763 165.343 168.654 164.193 168.161 163.646C167.012 162.387 165.424 163.044 161.592 164.741V164.631Z" fill="#EB1807"/>
<path d="M199.361 82.5756C199.032 82.0282 198.43 81.7545 197.773 81.7545C197.938 81.5902 198.047 81.426 198.266 81.2071C198.978 80.4407 198.923 79.2912 198.211 78.5795C197.445 77.8679 196.295 77.9226 195.584 78.6343L195.365 78.8532L193.887 78.1416L194.544 76.8826L194.325 76.7184C194.325 76.7184 194.27 76.7184 194.215 76.7184C194.817 76.1162 195.474 75.5141 196.022 74.9119C196.679 74.1456 196.624 72.996 195.858 72.2844C195.31 71.7917 194.544 71.7917 193.887 72.1202C193.777 71.8465 193.668 71.518 193.558 71.2443C193.832 71.4086 194.161 71.4633 194.434 71.4633C194.708 71.4633 195.036 71.4086 195.31 71.2443C195.365 71.2443 195.42 71.0801 195.474 71.0254C195.639 71.0254 195.803 71.1896 195.967 71.1896C196.186 71.1896 196.35 71.1896 196.514 71.0801C197.5 70.7517 197.992 69.7116 197.719 68.7263V68.5621C197.719 68.2336 197.828 67.8504 197.719 67.4673C197.39 66.5367 196.952 65.5513 196.295 64.9492C196.733 64.566 196.952 63.9639 196.843 63.3617L196.35 60.0773C196.186 59.092 195.31 58.3256 194.27 58.4898C194.161 58.4898 194.051 58.5446 193.942 58.5993C193.777 58.3256 193.504 58.1614 193.23 57.9972C193.504 57.7782 193.723 57.5045 193.832 57.1761L194.489 55.096C194.708 54.3843 194.489 53.5632 193.887 53.1253C193.887 52.7969 193.887 52.4684 193.777 52.1947C193.394 51.2641 192.299 50.8262 191.369 51.2094L189.946 51.8115C189.562 51.9757 189.234 52.3042 189.07 52.6326C189.289 52.3589 189.453 52.0305 189.453 51.6473V49.2935C189.453 48.2534 188.632 47.4323 187.646 47.4323C187.646 47.4323 187.318 47.5965 187.154 47.6513C187.154 47.5965 187.154 47.5418 187.154 47.487C186.99 46.7207 186.716 45.7901 186.004 44.969C185.731 44.6953 185.402 44.5858 185.019 44.5311C184.964 44.5311 185.019 44.3668 184.909 44.3668C184.088 43.7647 182.939 43.8742 182.337 44.6953V44.8048L182.227 44.75C182.227 44.75 182.282 44.6953 182.337 44.6406C183.048 43.8742 182.994 42.7246 182.227 42.013C181.625 41.4656 181.078 40.973 180.366 40.535C179.819 40.2066 179.107 40.1518 178.56 40.4803C178.56 40.4803 178.505 40.535 178.45 40.5898C178.56 40.3708 178.614 40.1518 178.669 39.8781V39.5497L181.953 41.1919C182.227 41.3561 182.501 41.4109 182.775 41.4109C183.431 41.4109 184.088 41.0277 184.417 40.4255C184.855 39.495 184.526 38.4002 183.596 37.9075L180.147 36.1558C179.326 35.7179 178.286 36.0463 177.793 36.8674C177.574 36.7579 177.301 36.6485 177.027 36.5937C176.698 36.5937 176.479 36.7032 176.26 36.8127C176.26 36.8127 176.26 36.7579 176.26 36.7032L176.096 35.6631C176.096 35.6631 175.987 35.2252 175.877 35.061C175.987 35.061 176.151 35.061 176.26 35.0063C177.191 34.6231 177.684 33.5283 177.301 32.5977L176.206 29.9154C175.823 28.9848 174.728 28.4922 173.797 28.8753C173.578 28.9848 173.359 29.0943 173.195 29.2585C173.086 28.9301 172.976 28.7111 172.921 28.4922C172.483 27.5616 171.498 27.3426 170.568 27.7258C170.458 27.7258 170.349 27.8353 170.239 27.9448L169.801 26.0836C169.582 25.0983 168.542 24.4414 167.612 24.7151C166.626 24.934 165.969 25.9194 166.188 26.9047L166.9 30.0796C166.9 30.0796 167.064 30.3533 167.119 30.5176H166.79C166.79 30.5176 166.571 30.5176 166.462 30.5176C166.079 30.3533 165.696 30.2986 165.258 30.4081C164.765 29.9702 164.272 29.587 163.78 29.2038L163.178 28.7111C163.178 28.7111 162.904 28.7111 162.794 28.6016C163.78 28.0542 164.601 27.3974 164.656 26.1931C164.71 24.3866 162.849 23.4561 160.714 22.3613C160.003 22.0328 159.291 22.2518 158.744 22.7444L157.922 21.6496C157.922 21.6496 158.196 21.1022 158.196 20.7738C158.196 20.1169 157.977 19.5148 157.43 19.1316L155.733 17.8725C155.733 17.8725 155.514 17.8725 155.459 17.8178C155.185 17.4346 154.802 17.1609 154.364 17.0514L147.905 15.6282C146.92 15.4092 145.934 16.0114 145.715 17.0514C145.715 17.1062 145.715 17.2157 145.715 17.2704C145.496 17.2704 145.277 17.2704 145.059 17.3251C144.785 17.3251 144.511 17.4894 144.292 17.6536C144.292 17.4894 144.347 17.3799 144.292 17.2157C144.292 17.1609 144.237 17.1062 144.237 17.0514C144.566 16.3946 144.675 15.6282 144.237 15.0261C141.774 12.0153 138.216 12.4533 135.807 12.727C135.588 12.727 135.369 12.8364 135.205 12.9459L134.822 12.3985C134.22 11.5774 133.07 11.3585 132.249 11.9059C131.976 12.0701 131.866 12.3438 131.757 12.5627C131.538 11.7964 130.881 11.1942 130.005 11.1395C129.184 11.1395 128.363 11.1395 127.542 11.1395C126.447 11.1395 125.352 11.1395 124.257 11.1942C123.929 10.7563 123.436 10.4826 122.834 10.4279C121.849 10.4279 121.246 10.9205 121.028 11.6322C120.863 11.3585 120.644 11.0848 120.316 10.9205L119.331 10.4279C118.783 10.1542 118.072 10.2089 117.579 10.5374C117.305 10.7016 117.086 10.9753 116.922 11.249C116.32 11.1942 115.772 11.1395 115.17 11.1395C114.842 10.8111 114.349 10.5374 113.802 10.5374L110.955 10.6468C110.572 10.6468 110.189 10.8111 109.915 11.03C109.204 11.03 108.492 11.249 108.164 11.9059C108.109 12.0701 108.054 12.1796 107.999 12.3438C107.507 12.6722 107.342 13.2196 107.342 13.767C106.85 13.7123 106.412 13.6028 106.029 13.4386C105.974 13.3291 105.919 13.1649 105.864 13.1101C105.372 12.2343 104.222 11.9606 103.346 12.4533C103.018 12.6175 102.908 12.9459 102.744 13.2744C102.635 12.3438 101.923 11.6322 100.993 11.6322C99.843 11.6322 98.6935 11.7416 97.5987 11.8511C96.5586 11.9606 95.847 12.8912 95.9565 13.8765C96.066 14.8071 96.8871 15.5187 97.8176 15.5187C97.8724 15.5187 97.9271 15.5187 98.0366 15.5187C98.3103 15.5187 98.6387 15.5187 98.9672 15.464C98.6935 16.1209 98.8577 16.7777 99.2956 17.2704C98.9672 17.5441 98.7482 17.982 98.6935 18.4747L98.4198 20.9927C98.365 21.5949 98.7482 22.197 99.2409 22.5802C99.3504 22.635 99.4599 22.635 99.5693 22.6897C99.0767 22.9634 98.7482 23.5108 98.6935 24.0582C98.6935 24.0582 98.6387 24.0582 98.584 24.1129C98.4198 24.1129 98.3103 24.2224 98.2008 24.2772C98.0366 24.3319 97.8176 24.3866 97.6534 24.5509C97.325 23.9487 96.8871 23.5108 96.5586 23.3466C95.3543 22.7992 94.2595 23.4561 93.5479 23.7845C93.3837 23.8392 93.2742 23.9487 93.1647 24.0035C92.5626 24.1677 92.1247 24.6603 91.9057 25.2625C91.7962 25.2625 91.632 25.2625 91.5225 25.372V24.8793C91.5225 24.3319 91.3583 23.7845 90.9751 23.4561C90.6467 23.1824 90.2087 23.0181 89.7708 23.0181C89.7708 22.5255 89.5519 22.0328 89.1687 21.5949C88.5118 20.8833 87.5812 20.719 86.5411 20.7738C86.3769 20.2811 86.0485 19.8432 85.5558 19.6242C85.4463 19.6242 85.3916 19.6242 85.2821 19.5695C85.3369 19.4053 85.4463 19.2958 85.5011 19.1316C86.2127 19.0221 86.9791 18.9674 87.6907 18.8579C88.5118 18.7484 89.1687 18.3105 89.7708 17.8178C89.935 17.982 90.0993 18.1463 90.3182 18.201C91.0846 18.42 91.7415 18.6389 92.4531 18.9126L93.4384 19.2411C93.4384 19.2411 93.8216 19.3505 94.0406 19.3505C94.8069 19.3505 95.5186 18.8579 95.7923 18.0915C96.066 17.3251 95.7923 16.4493 95.1354 16.0114C95.3543 15.7924 95.4638 15.5187 95.5186 15.245C95.628 14.7524 95.5186 14.2049 95.2449 13.767L94.9164 13.3291C94.4785 12.6722 93.7121 12.3985 93.0005 12.5627C91.2488 12.9459 89.4971 13.4933 87.8002 14.0407C87.0338 14.2597 86.2674 14.5334 85.5011 14.7524C85.0631 14.8618 84.68 15.1903 84.461 15.5735C82.4904 15.7924 80.5197 16.0114 78.5491 16.504C78.1659 16.6135 77.7827 16.7777 77.3995 16.8872C77.0711 16.7777 76.6879 16.7777 76.3594 16.8872C75.8668 16.723 75.3194 16.8325 74.8815 17.1062C74.3888 17.4346 73.9509 17.7631 73.513 18.0915C73.4582 18.0915 73.4035 18.0915 73.3487 18.1463C73.0203 18.1463 72.6371 18.1463 72.3087 18.3105L70.7212 19.0768C69.7906 19.1863 68.4221 19.46 67.2726 20.4453C66.9441 20.4453 66.6157 20.4453 66.2872 20.5548L64.3713 21.4307C63.9334 21.5949 63.6597 21.9781 63.4955 22.3613C63.0028 22.197 62.4554 22.2518 61.9627 22.5255L60.5395 23.4013C59.6089 24.0035 58.6783 24.5509 57.8025 25.2077L55.1202 26.412C54.6275 26.631 54.3538 27.0689 54.1896 27.5068C53.8612 27.3974 53.478 27.3974 53.0948 27.5068L52.2737 27.7805C51.5621 27.9995 50.9052 28.2732 50.1936 28.6016C49.7009 28.8206 49.3725 29.2585 49.2083 29.7512C49.0988 30.1344 49.1535 30.5176 49.263 30.9007C49.263 30.9007 49.1535 30.9007 49.0988 31.0102C48.9893 30.9007 48.9346 30.6818 48.7703 30.627C47.8397 30.1344 46.7449 30.4628 46.2523 31.3934L45.8144 32.2145C45.8144 32.2145 45.7596 32.7619 45.7049 33.0356C45.7049 33.0356 45.6501 33.0356 45.5954 33.0356C45.267 33.1451 44.9385 33.2546 44.6101 33.3641C44.5006 33.3641 44.4459 33.2546 44.3364 33.1998C43.351 32.8714 42.311 33.4735 42.0373 34.4041L41.3257 36.7579L39.8477 37.9075C38.9171 37.5243 37.8223 38.017 37.4391 38.9476C37.1654 39.6592 37.3296 40.4255 37.877 40.973C37.9318 41.1919 38.096 41.5751 38.3149 41.9035C38.2602 41.9035 38.2055 41.9583 38.096 42.013C37.8223 41.3014 37.1654 40.754 36.3443 40.754C35.3042 40.754 34.4831 41.5751 34.4831 42.6152V43.2173C33.9357 43.0531 33.4431 42.8341 32.8409 42.7246C31.8008 42.5604 31.1987 43.1626 30.4871 43.8742L30.1039 44.2574C30.1039 44.2574 30.0492 44.4763 29.9397 44.5858C29.8849 44.5858 29.7755 44.5858 29.7207 44.6406L29.0638 45.188C28.6806 45.5164 28.4617 45.9543 28.4069 46.3922L28.2975 47.6513C28.2975 47.6513 28.2975 48.1439 28.3522 48.3629C28.1332 48.5271 27.969 48.7461 27.7501 49.0198C27.4216 48.8008 26.9837 48.6913 26.5458 48.6913C25.0678 48.6913 24.2467 50.0598 23.5898 51.3189C23.5351 51.4831 23.5898 51.5926 23.5898 51.7568C23.3708 51.9757 23.2614 52.2495 23.1519 52.5232C21.236 53.7274 20.798 55.2054 20.798 56.355L19.1558 56.9571C18.6632 57.1213 18.28 57.5593 18.061 58.0519C17.9516 58.2709 17.8968 58.4898 17.7873 58.9825C17.7326 59.2015 17.7873 59.4204 17.7873 59.6394C17.1304 59.8036 16.583 60.2963 16.3641 61.0079L15.4882 64.5113C15.4335 64.8397 15.4335 65.1134 15.4882 65.4419C14.9408 65.5513 14.3934 65.825 14.1197 66.3724L11.7112 71.1349C11.2732 72.0654 11.6017 73.1602 12.5323 73.6529C12.806 73.7624 13.0797 73.8719 13.3534 73.8719C13.4081 74.2003 13.4628 74.5835 13.7365 74.8025L15.3788 76.5541C15.3788 76.5541 15.1598 76.4994 15.0503 76.5541L14.5577 76.6636C14.065 76.7731 13.5176 76.8826 12.8607 77.1563C12.5323 77.3205 12.2038 77.5395 11.8754 77.7037C12.2038 76.8826 12.0396 75.952 11.328 75.4593C10.4521 74.9119 9.30258 75.1309 8.75518 75.952L7.60564 77.7037C7.60564 77.7037 7.60564 78.0321 7.49616 78.1964C6.94875 78.689 6.78453 79.4006 6.94875 80.0575L7.5509 82.3566C7.66038 82.6851 7.87934 82.904 8.04356 83.123C7.5509 83.5609 7.11297 83.9441 6.62031 84.4367L6.01817 85.0389C5.47076 85.5863 5.47076 86.4074 5.79921 87.0643C5.14232 87.3927 4.75914 88.1043 4.81388 88.8707C4.81388 89.3086 4.9781 90.294 5.63498 90.8961C5.03284 91.6625 4.37596 92.4288 3.8833 93.2499C3.66433 93.5784 3.66433 93.9616 3.71907 94.29C3.60959 94.29 3.50011 94.29 3.39063 94.3995C2.35057 94.9469 2.18635 95.8775 1.69368 98.505C1.52946 99.4356 2.07687 100.257 2.89797 100.53C2.78849 100.64 2.62427 100.64 2.51479 100.804C2.29583 101.187 2.29583 101.57 2.29583 102.008C1.69368 102.227 1.20102 102.72 1.09154 103.432L0.598878 106.278C0.434657 107.263 1.09154 108.249 2.13161 108.413C2.24109 108.413 2.35057 108.413 2.46005 108.413C2.95271 108.413 3.39063 108.194 3.71907 107.866C3.71907 107.866 3.71907 107.92 3.77381 107.975L4.21174 108.249L3.55485 109.617C3.55485 109.617 3.44537 110 3.39063 110.219C3.33589 110.165 3.28115 110.11 3.22641 110.055C2.67901 109.508 1.8579 109.289 1.14628 109.617C0.434657 109.946 -0.00326534 110.657 0.0514749 111.424V112.026C0.160956 112.902 0.215696 113.394 0.325176 113.832C0.434657 114.544 1.0368 115.146 1.74842 115.31C2.18635 115.42 2.62427 115.365 2.95271 115.256C2.84323 115.474 2.78849 115.693 2.78849 115.912C2.62427 115.912 2.46005 115.967 2.35057 116.077C1.47472 116.569 1.14628 117.719 1.63894 118.595L3.00745 121.003C3.00745 121.003 3.00745 121.003 3.06219 121.058C2.35057 121.496 1.96739 122.372 2.24109 123.193C2.51479 123.959 3.22641 124.452 3.99278 124.452C4.157 124.452 4.37596 124.452 4.54018 124.342C4.37596 124.726 4.157 125.164 3.99278 125.601L3.60959 125.382C2.73375 124.835 1.5842 125.164 1.09154 126.039C0.598878 126.915 0.872579 128.065 1.74842 128.557L4.48544 130.2C4.64966 130.802 4.86862 131.349 5.08758 132.006L4.21174 133.101C4.21174 133.101 4.10226 133.539 3.99278 133.812C3.8833 133.812 3.82856 133.812 3.71907 133.812C2.84323 134.305 2.51479 135.455 3.00745 136.331L3.71907 137.644C3.93804 138.082 4.21174 138.465 4.4307 138.849C4.157 139.396 4.10226 140.053 4.48544 140.6C4.92336 141.202 5.74447 142.297 6.94875 142.461L7.16771 142.735C7.16771 142.735 7.33193 142.845 7.44141 142.899C7.00349 143.283 6.72979 143.72 6.78453 144.323C6.89401 147.224 8.70044 148.045 9.63103 148.483C9.63103 148.483 9.63103 148.483 9.74051 148.483C10.2879 149.961 10.8353 151.275 11.4375 152.424C11.7659 153.026 12.7512 153.355 13.4628 153.355C13.5176 153.355 13.5723 153.355 13.6818 153.355C13.846 153.355 13.9555 153.245 14.065 153.191V153.519C14.065 153.847 14.2292 154.231 14.4482 154.504C14.7766 154.942 15.1598 155.325 15.543 155.709C15.3788 155.982 15.2145 156.201 15.2145 156.53C15.2145 157.57 16.0356 158.391 17.0757 158.391H18.3347C19.3748 158.391 20.1959 157.57 20.1959 156.53C20.1959 155.873 19.8127 155.271 19.2653 154.942C19.2653 154.614 19.1011 154.34 18.9369 154.012C18.9916 154.012 19.1011 154.066 19.1558 154.066C19.3201 154.066 19.4843 154.066 19.5938 154.012C19.9222 153.957 20.1412 153.793 20.3601 153.574L20.7433 153.957C21.1265 154.34 21.6192 154.559 22.1118 154.559C22.4403 154.559 22.6592 154.395 22.9329 154.231C23.0424 154.942 23.2614 155.654 23.5898 156.42C23.2614 156.584 22.9877 156.803 22.714 157.187C21.7286 158.555 22.6045 160.197 23.2614 161.402C23.4256 161.675 23.5351 161.949 23.6445 162.168C23.973 162.88 24.6299 163.263 25.3415 163.263C25.6152 163.263 25.8342 163.263 26.1079 163.099C26.3268 162.989 26.4363 162.77 26.6005 162.606C26.7647 162.88 26.9837 163.099 27.2574 163.263C26.8742 163.482 26.5458 163.81 26.3816 164.193C25.9984 165.124 26.491 166.219 27.4764 166.602C28.2427 166.876 29.0638 167.095 29.9397 167.314L30.3776 167.423C30.706 168.08 31.3629 168.463 32.0746 168.463C32.3483 168.463 32.5672 168.463 32.8409 168.299C33.4978 168.025 33.881 167.368 33.881 166.711C33.9905 166.711 34.1547 166.657 34.2642 166.547C34.3736 166.657 34.4284 166.711 34.5379 166.821C34.8116 166.985 35.14 167.095 35.4684 167.095L34.4831 167.751C33.6073 168.299 33.3883 169.448 33.9357 170.324C34.2642 170.872 34.8663 171.145 35.4684 171.145C35.7969 171.145 36.1801 171.036 36.5085 170.817L37.5486 170.105C38.2602 170.707 39.0266 171.255 39.9572 171.857C40.2856 172.076 40.614 172.131 40.9425 172.131C41.1067 172.131 41.2709 172.076 41.4899 172.021V172.185C41.4351 173.225 42.2015 174.101 43.1868 174.156H43.2963C44.2816 174.156 45.048 173.39 45.1575 172.404V172.185C45.5407 172.185 45.8691 172.131 45.9238 172.131C46.0333 172.131 46.2523 172.404 46.3618 172.569C46.5807 172.788 46.7997 173.007 47.0186 173.171C47.3471 173.444 47.785 173.609 48.1682 173.609C48.7156 173.609 49.263 173.39 49.5914 172.952C49.8651 172.569 49.9746 172.131 49.9746 171.693C50.1388 171.802 50.3031 171.912 50.4673 172.021C50.2483 172.514 50.1936 173.061 50.4673 173.609C50.7957 174.266 51.4526 174.649 52.1095 174.649C52.3832 174.649 52.6569 174.594 52.9306 174.485L54.737 173.609C54.737 173.609 55.2297 173.937 55.5581 174.047C55.7771 174.156 56.0508 174.211 56.3245 174.211C57.0361 174.211 57.693 173.773 58.0214 173.116C58.0762 172.952 58.0762 172.788 58.1309 172.678C58.5141 172.514 58.8425 172.24 59.0615 171.857C59.4994 170.926 59.1163 169.832 58.2404 169.394L55.7224 168.135C55.7224 168.135 55.6129 168.135 55.5581 168.135C55.4487 168.135 55.3939 168.025 55.2844 168.025C55.0107 167.97 54.6823 168.025 54.4086 168.025C54.2991 168.025 54.2444 168.08 54.1896 168.135C53.8064 168.299 53.5327 168.518 53.3138 168.901C53.3138 168.901 53.259 168.901 53.259 168.956V169.065C53.259 169.175 53.1496 169.229 53.1496 169.339C52.7664 169.065 52.3832 168.846 52 168.518C51.8358 168.408 51.6168 168.408 51.3979 168.354C51.3979 168.244 51.3979 168.135 51.3979 168.025C51.2884 167.587 51.0147 167.259 50.6862 166.985C51.0147 166.985 51.2884 166.876 51.5621 166.657C52 166.93 52.4379 167.204 52.9306 167.478C53.3685 167.751 53.9159 167.751 54.4086 167.587L56.1055 166.985C56.1055 166.985 56.3245 166.876 56.434 166.876L57.4193 167.478C57.7477 167.642 58.0762 167.751 58.4046 167.751C58.5141 167.751 58.5689 167.751 58.6783 167.697C58.952 167.806 59.2257 167.916 59.4994 167.916C59.6089 167.916 59.6637 167.916 59.7731 167.916H60.3753C60.0468 168.08 59.7731 168.408 59.6089 168.846C59.4447 169.558 59.6637 170.27 60.2111 170.707C60.3205 171.255 60.7037 171.693 61.2511 171.966C61.4153 172.021 61.6343 172.076 61.8533 172.076C62.2912 172.076 62.7839 171.966 63.0576 171.857L62.9481 171.583C63.8239 171.747 64.645 171.966 65.5209 172.131C65.6303 172.131 65.7398 172.131 65.8493 172.131C66.7252 172.131 67.4915 171.474 67.6557 170.598C67.6557 170.488 67.6557 170.324 67.6557 170.215C67.9294 170.324 68.2031 170.379 68.5316 170.379C68.9148 170.379 69.2979 170.27 69.5716 170.105C70.4475 169.613 70.9402 169.175 71.2686 168.682C71.2686 169.01 71.3233 169.284 71.3781 169.503C71.3781 169.613 71.4876 169.667 71.5423 169.777C71.5423 169.886 71.3781 169.941 71.3233 170.051C71.1044 170.872 71.5423 171.693 72.2539 172.076C71.9802 172.569 71.9255 173.116 72.1444 173.663C71.4876 174.047 71.1044 174.703 71.1044 175.47C71.1044 176.455 71.9802 177.222 72.9655 177.222H73.075C74.0056 177.222 74.8815 177.057 75.812 176.948C75.812 177.659 75.9763 178.316 76.6331 178.7C76.9068 178.864 77.1805 178.918 77.509 178.918C78.1659 178.918 78.8228 178.535 79.1512 177.933L80.0818 176.181C80.0818 176.181 80.6292 176.181 80.9029 176.017C81.8335 175.634 82.4356 174.485 82.0524 173.554C81.6693 172.623 80.7387 172.076 79.7533 172.404C79.2059 172.021 77.6185 170.872 75.5931 172.404V172.295C75.5931 172.295 75.4836 172.24 75.4836 172.185C75.7573 171.966 75.9763 171.638 76.0857 171.255C76.25 170.598 76.031 169.996 75.5931 169.558C75.9215 169.558 76.1952 169.558 76.5784 169.558C76.6879 169.558 76.7974 169.558 76.8521 169.558C76.9068 169.832 76.9616 170.16 77.1805 170.379C77.3995 170.653 77.6732 170.707 77.9469 170.926L79.3154 172.021L81.1766 172.459L81.505 171.802V171.693C82.2167 171.529 82.8188 171.31 83.3115 171.091C83.5852 170.981 83.8589 170.872 84.0778 170.762C85.0631 170.434 85.5558 169.339 85.1726 168.408C85.0084 167.97 84.68 167.642 84.3515 167.423C84.6252 167.533 84.8442 167.697 85.1726 167.697C85.3916 167.697 85.6106 167.697 85.8295 167.587C86.9243 167.149 88.0739 166.711 89.2782 166.109C90.2087 165.671 90.6467 164.577 90.2087 163.646C89.7708 162.715 88.676 162.332 87.7454 162.715C86.5959 163.263 85.5558 163.701 84.5157 164.084C83.5852 164.412 83.0925 165.507 83.4209 166.438C83.5304 166.766 83.8041 167.04 84.0778 167.259C83.6946 167.095 83.2567 167.095 82.8188 167.259C82.4904 167.368 82.1619 167.533 81.7787 167.697C80.3007 168.354 80.1913 168.244 79.8628 167.861C79.4249 167.423 78.8775 167.314 78.3301 167.368C78.1111 166.602 77.3995 165.945 76.5237 165.945C75.9215 165.945 75.5383 165.945 75.0457 165.945C74.9909 165.562 74.8815 165.179 74.6078 164.905L73.1298 163.427C72.4181 162.715 71.2139 162.715 70.5022 163.427C69.7906 164.139 69.7906 165.343 70.5022 166.055L70.7212 166.273L67.1083 163.591C66.2872 162.989 65.1377 163.153 64.5355 163.974C64.2618 164.358 64.2071 164.795 64.2071 165.233C63.8787 165.069 63.4955 164.905 63.167 164.741C63.0576 164.631 63.0576 164.522 62.9481 164.412L61.689 163.536C61.0869 163.099 60.2111 163.099 59.5542 163.536L58.7331 164.084L57.5288 163.372C56.9266 163.044 55.8866 163.153 55.3392 163.536C55.1749 163.646 55.0655 163.701 54.956 163.755L54.1349 164.029C53.2043 163.482 52.3832 162.934 51.6168 162.442C51.1242 162.113 50.6862 161.84 50.2483 161.511C49.9746 161.347 49.6462 161.347 49.3177 161.347C49.3177 160.69 49.0988 160.033 48.4966 159.65L45.3217 157.953C44.9385 157.734 44.5006 157.734 44.0627 157.789C44.1174 157.296 44.0627 156.803 43.6795 156.42C43.0226 155.599 41.8731 155.49 41.1067 156.092H41.052C40.3951 155.763 39.7382 155.325 39.0266 154.833C38.5339 154.45 37.9318 154.066 37.3296 153.683C36.6727 153.245 35.7421 153.3 35.14 153.793C34.8663 154.012 34.7021 154.231 34.5926 154.559C34.3189 154.614 34.0452 154.778 33.8262 154.997L32.8409 154.34C32.8409 154.34 32.3483 154.066 32.0746 154.066C31.9651 153.847 31.8008 153.683 31.5819 153.519L31.8008 153.245C32.1293 152.807 32.2388 152.315 32.184 151.822C32.622 150.837 32.3482 149.742 32.2388 149.359C32.0745 148.702 31.5271 148.154 30.8703 148.045C30.4323 147.935 29.9944 148.045 29.6112 148.264C29.6112 147.388 28.9544 146.676 28.0785 146.512C27.0384 146.403 26.1079 147.06 25.9984 148.1C25.9984 148.319 25.9984 148.592 25.9436 148.811C25.9436 148.811 25.9436 148.811 25.9436 148.866L24.5751 149.14L24.1919 147.771C24.3562 147.169 24.5204 146.622 24.6846 146.074C25.0131 145.089 24.4656 144.049 23.4803 143.775C23.2066 143.666 22.9329 143.666 22.6592 143.775C22.714 143.72 22.8234 143.666 22.8782 143.611C22.8782 143.556 22.8782 143.447 22.9329 143.392C23.2614 143.392 23.5898 143.283 23.8635 143.064C24.6846 142.407 24.7941 141.257 24.1372 140.491C24.1372 140.108 24.0825 139.779 23.8635 139.505C23.5898 139.177 23.0971 138.63 22.4403 138.192C22.6045 137.809 22.6045 137.371 22.4403 136.933L21.5644 134.469C21.236 133.484 20.1412 132.991 19.2106 133.375C19.1011 133.375 18.9916 133.539 18.8821 133.594C18.9369 133.484 19.1011 133.429 19.1558 133.32L20.0317 131.678C20.3601 131.075 20.1959 130.419 19.8127 129.871C19.8127 129.597 19.8127 129.379 19.8127 129.105C19.539 128.119 18.5537 127.517 17.5684 127.791L16.0904 128.174C16.0904 128.174 16.0904 128.174 16.0356 128.174L16.583 126.696C16.9662 125.766 16.4736 124.671 15.4882 124.288C15.324 124.233 15.2145 124.288 15.0503 124.288C15.1598 123.686 15.324 122.974 15.1051 122.208C14.9956 121.824 14.7766 121.496 14.5029 121.222C14.2292 120.565 13.5723 120.127 12.8607 120.127C13.3534 119.689 13.6271 118.978 13.4628 118.266L13.0249 116.405C12.8607 115.803 12.4228 115.31 11.7659 115.091C11.8754 115.091 11.9301 115.091 12.0396 114.982L12.4228 114.708L13.7365 117.719C14.065 118.43 14.7219 118.814 15.4335 118.814C15.7072 118.814 15.9262 118.814 16.1999 118.649C17.1304 118.212 17.5684 117.117 17.1304 116.186L15.7619 113.175C15.3788 112.3 14.3934 111.916 13.5176 112.19C13.4628 111.971 13.5176 111.807 13.3534 111.588C13.2439 111.424 13.0249 111.369 12.8607 111.259L13.4628 110.712C13.4628 110.712 13.6818 110.219 13.7913 109.946C13.9008 110.055 13.9008 110.219 14.0103 110.329C14.3387 110.603 14.7219 110.712 15.1051 110.712C15.6525 110.712 16.2546 110.438 16.583 109.946L18.1158 107.92C18.7179 107.099 18.5537 105.95 17.7326 105.348C17.5684 105.238 17.4042 105.293 17.2947 105.238L17.4042 105.129C18.1158 104.362 17.9516 103.322 17.1852 102.611L18.1705 102.008C19.0464 101.461 19.2653 100.311 18.7179 99.4356C18.1705 98.5597 17.021 98.286 16.1451 98.8882L13.5723 100.53C13.5723 100.53 13.2986 100.859 13.1344 101.023L13.0249 100.695C13.0249 100.695 12.8607 100.476 12.7512 100.366C12.7512 99.983 12.6965 99.6545 12.4775 99.3261L13.2986 96.9175C13.2986 96.9175 13.2986 96.8081 13.2986 96.6986C13.9555 97.3007 14.6124 97.7934 15.4335 97.7934C15.5977 97.7934 15.7619 97.7934 15.9809 97.7386C17.5684 97.3555 18.0063 95.8227 18.6632 93.4689C18.8274 92.812 18.6632 92.2099 18.2253 91.7172L18.8274 91.2245C18.8274 91.2245 19.3748 91.4435 19.6485 91.4435C19.6485 91.4435 19.7032 91.4435 19.758 91.4435C20.3601 91.4435 20.9075 91.0603 21.236 90.5677L22.1666 89.0349V88.9254C22.4403 88.7065 22.714 88.378 22.8234 87.9949L24.3014 82.4661C24.5751 81.4808 23.973 80.4407 22.9877 80.2217C22.9877 80.2217 22.9329 80.2217 22.8782 80.2217V79.7291C22.8782 79.7291 22.8234 79.5101 22.7687 79.4006C22.8234 79.4006 22.8782 79.4554 22.9329 79.4554H23.0424C23.3708 79.7838 23.8088 80.0028 24.2467 80.0028C24.4656 80.0028 24.7393 80.0028 24.9583 79.8386C27.9143 78.6343 28.4617 76.0067 28.8996 73.9266L29.0638 73.2697C29.0638 73.2697 29.0638 73.1055 29.0638 72.996H29.3923C30.4323 72.7771 31.0892 71.8465 30.9797 70.8612C30.9797 70.7517 30.8703 70.6422 30.8155 70.5327C31.4724 70.478 32.0745 70.0948 32.3482 69.4379C32.8409 68.2336 33.4978 67.0841 34.2642 65.8798L34.5379 65.4419C34.9758 65.3871 35.4137 65.1134 35.7421 64.6755C36.1253 64.1828 36.1801 63.526 35.9611 62.9238C36.1801 62.9238 36.399 62.8691 36.618 62.7596C36.7822 62.7048 36.9464 62.6501 37.4391 62.4311C38.0412 62.2122 38.4792 61.6648 38.5886 61.0079C38.6434 60.6795 38.5886 60.351 38.4792 60.0773L39.2455 59.3657C39.2455 59.3657 39.3003 59.3657 39.355 59.3657C39.8477 59.3657 40.3403 59.1467 40.7235 58.7635L42.4205 56.9571C42.4205 56.9571 42.5299 56.5739 42.6394 56.355C43.2963 55.9718 43.6795 55.2054 43.5153 54.4391C43.5153 54.2201 43.4058 54.0011 43.2963 53.8369C43.351 53.399 43.2963 52.9063 43.0226 52.5232C43.2416 52.4137 43.5153 52.3042 43.6795 52.2495C43.789 52.3042 43.8984 52.4137 43.9532 52.4137C44.8838 52.8516 45.9786 52.4684 46.4165 51.5926C46.4712 51.4283 46.526 51.2641 46.526 51.0999C46.8544 51.3189 47.1829 51.4283 47.5113 51.4283C47.8398 51.4283 48.2229 51.3189 48.4966 51.1546L50.9052 49.6219C51.7811 49.0745 52 47.925 51.4526 47.0491C50.9052 46.1733 49.7557 45.9543 48.8798 46.5017L48.2229 46.9396C48.1682 46.1733 47.6208 45.5164 46.9639 45.2974C47.0186 44.9143 47.0187 44.5311 46.8544 44.1479L45.8144 41.8488C45.5407 41.3014 44.9933 40.8635 44.3911 40.8087C44.2269 40.8087 44.0627 40.8087 43.9532 40.8635C44.1721 40.4255 44.2269 39.9876 44.0627 39.495C44.0627 39.495 44.0627 39.3855 44.1174 39.3855C44.5006 39.1665 44.829 38.8381 44.9933 38.3454V38.2359C45.5407 38.6191 46.0881 38.7833 46.4712 38.7833C47.785 38.7833 48.5514 37.798 49.0988 37.1411C49.2083 36.9769 49.3177 36.8127 49.482 36.7032C49.9746 36.32 50.1388 35.7726 50.0841 35.2252C50.3031 35.1157 50.4673 34.9515 50.6862 34.7873L50.7957 35.2252C50.9599 35.7726 51.3431 36.2105 51.8358 36.4295C52.0548 36.539 52.3285 36.5937 52.6022 36.5937C52.7664 36.5937 52.9306 36.539 53.1496 36.4842C53.259 36.7032 53.4233 36.9222 53.6422 37.1411C53.259 37.5791 53.0401 38.1265 53.2043 38.7286C53.3685 39.6044 54.1349 40.2066 55.0107 40.2066C55.1202 40.2066 55.2844 40.2066 55.3939 40.2066L56.215 40.0424C55.7224 40.3708 55.3392 40.8087 55.0655 41.3014C55.0655 41.3014 55.0107 41.3014 54.956 41.3014C54.7918 40.5898 54.1896 40.0424 53.4233 39.9329L52.4379 39.7687C51.3979 39.6592 50.4673 40.3161 50.3578 41.3014C50.3578 41.4109 50.3578 41.5204 50.3578 41.6298C49.8651 41.9583 49.5367 42.5057 49.5914 43.1626C49.5914 44.0384 50.2483 44.75 51.0694 44.9143C51.0147 45.188 50.9599 45.4617 51.0694 45.7354C51.1789 46.228 51.4526 46.6659 51.8358 46.9396L52.2737 47.2681C52.6022 47.487 52.9306 47.5965 53.3138 47.5965C53.697 47.5965 54.1349 47.487 54.4633 47.2133L59.8279 43.0531C59.8279 43.0531 60.1563 42.5604 60.2658 42.2867C60.9227 42.013 61.4701 41.7393 62.1817 41.5204C63.2218 41.1372 64.2071 40.8087 65.2472 40.3708L66.123 39.9329C66.342 39.9329 66.6157 39.9329 66.8346 39.8234C67.3273 39.8781 67.9294 39.7687 68.3126 39.3855L69.3527 38.4549C69.6811 38.4549 70.0096 38.3454 70.2833 38.1812L71.1044 37.6885C71.1044 37.6885 71.4876 37.4696 71.6518 37.3601C72.5276 37.1959 73.5677 36.8674 74.4435 36.1011C74.4983 36.1011 74.553 36.1011 74.6078 36.1011C74.8267 36.1011 75.0457 36.1011 75.2646 35.9916L77.0163 35.3347C77.3995 35.1705 77.6732 34.9515 77.8922 34.6231C78.0564 34.6231 78.1659 34.7326 78.3301 34.7326C78.6585 34.7326 78.987 34.6231 79.2607 34.4589C80.1365 33.9115 81.0671 33.4735 81.9977 33.0356L82.9283 32.5977L85.4463 32.0503C85.939 31.9408 86.3222 31.6124 86.5959 31.2292C86.8148 31.2839 86.9791 31.4481 87.198 31.4481C87.198 31.4481 87.2528 31.4481 87.3075 31.4481L89.8803 31.2839C90.4277 31.2839 90.9204 31.0102 91.2488 30.5176C91.413 30.2986 91.5225 30.0796 91.5772 29.8059C91.5772 29.8059 91.5772 29.9154 91.632 29.9702C92.0152 30.3533 92.4531 30.5176 92.9458 30.5176C93.4384 30.5176 93.8763 30.3533 94.2595 29.9702L94.8617 29.368C94.8617 29.368 95.0259 28.9848 95.0806 28.8206C95.1901 28.8206 95.2449 28.8206 95.3543 28.8206H95.7923C95.7923 28.8206 95.847 29.149 95.9565 29.2038C96.2849 29.5322 96.7228 29.6965 97.1608 29.6965C97.6534 29.6965 98.2008 29.4775 98.5293 29.0943L99.9525 27.4521L100.445 27.3426C100.719 27.3426 100.993 27.2879 101.321 27.2331C101.704 27.6711 102.197 27.9448 102.744 27.9448C103.127 27.9448 103.511 27.8353 103.839 27.6163C104.496 27.1784 104.715 26.412 104.551 25.7004C104.66 26.1383 104.879 26.5763 105.317 26.85C105.646 27.0689 106.029 27.1784 106.357 27.1784C106.959 27.1784 107.507 26.9047 107.89 26.3573L107.999 26.1931C108.218 26.5215 108.383 26.9047 108.656 27.2331C109.094 27.8353 109.751 27.9995 110.463 27.9995C110.791 27.9995 111.174 27.9995 111.557 27.9448C111.612 27.9448 111.667 27.89 111.722 27.8353C111.722 27.8353 111.776 27.8353 111.831 27.89H112.598C113.145 27.9995 113.638 27.8353 114.021 27.4521L114.897 26.631C114.897 26.631 115.17 26.3026 115.28 26.1383C115.389 26.1383 115.499 26.1383 115.608 26.1383C115.663 26.5215 115.827 26.9047 116.21 27.2879C116.758 27.8353 117.415 27.9995 118.126 27.9995C118.674 27.9995 119.276 27.89 119.878 27.7258C119.987 27.7258 120.097 27.6163 120.206 27.5616C120.371 27.5616 120.535 27.5068 120.699 27.4521C121.301 27.7258 121.958 27.89 122.506 27.89C123.217 27.89 123.874 27.6163 124.476 27.2331L125.516 28.109C125.845 28.3827 126.283 28.5469 126.721 28.5469C126.885 28.5469 127.049 28.5469 127.213 28.4922L127.87 28.3279C127.87 28.3279 128.089 28.2185 128.199 28.1637C128.527 28.4922 128.965 28.7111 129.458 28.7111C129.622 28.7111 129.841 28.7111 130.005 28.6564C130.717 28.4374 131.373 28.3279 132.085 28.1637L133.016 27.9995C133.016 27.9995 133.344 27.8353 133.508 27.7805C133.782 28.1637 134.22 28.3827 134.713 28.4922C136.191 28.7111 137.669 28.9848 139.092 29.368C139.256 29.368 139.42 29.4228 139.584 29.4228C140.406 29.4228 141.117 28.8753 141.391 28.0542C141.446 27.7805 141.446 27.4521 141.391 27.1784C141.719 27.0142 141.993 26.85 142.157 26.5215L143.307 24.7698L143.471 25.3172C143.635 25.8099 143.799 26.3026 144.018 26.7405C144.183 27.0689 144.402 27.3974 144.621 27.7258C143.909 27.5616 143.088 27.7258 142.65 28.3827C142.103 29.2585 142.376 30.4081 143.197 30.9555L144.73 31.9408C144.73 31.9408 145.113 32.0503 145.332 32.105C145.661 32.3787 146.044 32.5429 146.482 32.5429C146.701 32.5429 146.92 32.5429 147.139 32.4335L149.164 31.6124C149.164 31.6124 149.492 31.3934 149.657 31.2839C149.876 31.5576 150.04 31.8313 150.204 32.105L150.752 32.8714C151.135 33.364 151.682 33.6925 152.284 33.6925C152.448 33.6925 152.613 33.583 152.722 33.5283C153.051 34.0757 153.543 34.5136 154.2 34.5136H154.255C154.583 34.5136 155.35 34.4589 156.007 34.0757C156.226 34.4041 156.445 34.6778 156.663 35.0063L157.211 35.7726C157.43 36.0463 157.704 36.2653 158.032 36.3748C158.032 36.4295 158.032 36.4842 158.032 36.539C158.196 37.5791 158.908 38.017 159.784 38.6739L160.714 39.3307C161.043 39.5497 161.426 39.6592 161.754 39.6592C162.137 39.6592 162.521 39.495 162.849 39.276C163.013 39.5497 163.232 39.7687 163.506 39.8781C163.506 40.4255 163.615 40.973 164.108 41.3561C164.437 41.6298 164.71 41.9583 165.039 42.2867L165.696 42.9436C166.079 43.272 166.517 43.491 167.009 43.491C167.502 43.491 167.94 43.3268 168.323 42.9436C168.761 42.5057 168.816 41.9583 168.761 41.3561C168.871 41.3561 168.925 41.3561 169.035 41.3561L169.308 41.1919L169.801 42.1772C169.801 42.1772 169.965 42.3415 170.02 42.4509H169.637C168.871 42.5604 168.268 43.1078 168.049 43.8742C167.83 44.6406 168.159 45.4069 168.761 45.8448L170.349 46.9944C170.622 47.1586 170.951 47.2681 171.279 47.2681C171.608 47.2681 171.881 47.2133 172.155 47.0491C172.319 46.9396 172.483 46.8302 172.648 46.6659C172.374 47.5965 172.867 48.5271 173.742 48.9103L175.549 49.6219C175.275 50.2788 175.275 51.0452 175.823 51.5926C176.206 51.9757 176.644 52.14 177.136 52.14C177.52 52.14 177.848 51.921 178.176 51.702C178.176 51.702 178.176 51.702 178.176 51.7568V52.2495L177.574 52.1947C176.479 52.0852 175.658 52.7969 175.494 53.8369C175.385 54.877 176.096 55.7528 177.136 55.9171L179.819 56.2455C179.819 56.2455 180.147 56.7382 180.257 56.9571L179.6 57.7782C179.6 57.7782 179.49 58.1614 179.435 58.3804C179.326 58.3804 179.162 58.3804 179.052 58.4351C178.176 58.9825 177.903 60.1321 178.45 61.0079C178.669 61.3363 178.888 61.6648 179.107 61.9932C179.216 62.1574 179.271 62.3217 179.381 62.4859C179.162 62.9785 179.162 63.4712 179.381 63.9639C179.6 64.4565 180.147 65.4966 181.242 65.8798C180.913 66.0987 180.694 66.3725 180.53 66.7556C179.709 69.0547 180.804 70.259 181.789 71.0801L181.68 74.0908C181.68 74.9119 182.556 75.7878 183.377 76.0067C183.267 76.2257 183.158 76.4447 183.158 76.7184V77.5942C182.884 77.7037 182.501 77.8679 182.282 78.1964C181.68 79.0175 181.899 80.167 182.775 80.7691L183.705 81.426C184.034 81.645 184.362 81.7545 184.745 81.7545C185.347 81.7545 185.895 81.4808 186.278 80.9334C186.552 80.4954 186.661 80.0028 186.552 79.5101C186.771 79.2364 186.88 78.8532 186.935 78.4701C187.044 78.4701 187.154 78.5248 187.209 78.5248C187.537 78.5248 187.865 78.4153 188.139 78.1964C188.139 78.6343 188.139 79.0722 188.139 79.5101C188.194 80.3312 188.796 80.8786 189.562 81.0428C189.179 81.5355 188.851 82.1376 188.577 82.7945C188.249 82.6303 187.865 82.5756 187.428 82.6303C185.84 82.7945 185.238 84.2725 184.8 85.2579C184.69 85.5315 184.581 85.8053 184.472 85.9695C183.924 86.8453 184.143 87.9949 185.019 88.5423C185.183 88.6517 185.347 88.7065 185.566 88.7612C185.566 88.816 185.566 88.9254 185.566 88.9802C185.183 88.7065 184.636 88.6517 184.143 88.7612C183.158 88.9802 182.556 90.0203 182.775 91.0056L183.267 93.031C182.72 93.7426 182.775 94.7827 183.431 95.4395C183.815 95.8227 184.253 95.9869 184.745 95.9869C184.964 95.9869 185.128 95.8227 185.347 95.768C185.457 95.8775 185.512 96.0417 185.621 96.1512C185.621 96.3701 185.621 96.5343 185.621 96.7533L184.691 96.0964C183.869 95.4943 182.72 95.7132 182.118 96.5343C181.516 97.3555 181.735 98.505 182.556 99.1071L183.322 99.6545C183.103 100.038 182.994 100.421 182.775 100.859L182.446 101.516C182.227 101.899 182.227 102.392 182.337 102.829C181.351 102.884 180.585 103.705 180.585 104.745C180.585 105.731 181.461 106.552 182.446 106.552H182.884C182.884 106.552 182.994 106.88 183.048 106.88C182.939 107.044 182.829 107.154 182.72 107.263C182.501 107.482 182.337 107.647 182.172 107.866C181.516 108.687 181.68 109.836 182.501 110.438C182.829 110.712 183.213 110.822 183.65 110.822C183.65 110.822 183.705 110.822 183.76 110.822C183.76 110.822 183.76 110.876 183.705 110.931C183.213 110.712 182.665 110.657 182.172 110.876C181.242 111.259 180.804 112.354 181.187 113.285L181.844 114.818C181.844 114.818 181.57 115.201 181.406 115.42C180.859 116.296 181.187 117.445 182.063 117.938C182.227 118.047 182.391 118.047 182.556 118.047C182.665 118.43 182.884 118.814 183.213 119.087C183.541 119.306 183.869 119.416 184.253 119.416C184.855 119.416 185.457 119.142 185.785 118.595L187.318 116.296C187.318 116.296 187.318 116.241 187.318 116.186C187.373 116.077 187.482 115.967 187.537 115.858C187.646 115.584 187.646 115.256 187.537 114.982C187.537 114.927 187.537 114.872 187.537 114.818C187.428 114.38 187.209 114.051 186.825 113.778C186.825 113.778 186.825 113.778 186.825 113.723C186.825 113.723 186.771 113.723 186.716 113.723C186.606 113.668 186.497 113.613 186.387 113.559C186.716 113.175 187.044 112.792 187.318 112.409C187.373 112.3 187.318 112.135 187.373 112.026C187.482 112.026 187.592 112.026 187.701 111.971C188.084 111.862 188.358 111.588 188.577 111.314C188.632 111.643 188.851 111.916 189.07 112.135C188.796 112.573 188.577 113.011 188.249 113.504C187.975 113.942 187.975 114.818 188.084 115.31L188.358 116.679C188.358 116.679 188.413 116.898 188.468 117.062L187.701 118.102C187.482 118.43 187.428 118.814 187.428 119.197C187.154 119.471 186.99 119.854 186.99 120.237V120.949C186.771 120.565 186.497 120.182 186.114 120.018C185.457 119.689 184.69 119.854 184.143 120.292C183.596 120.346 183.048 120.565 182.775 121.058C182.556 121.441 182.501 122.317 182.61 122.81H182.884C182.61 123.467 182.282 124.178 181.899 124.835C181.406 125.711 181.68 126.86 182.556 127.353C182.61 127.353 182.72 127.353 182.775 127.408C182.446 127.846 182.282 128.393 182.391 128.941L182.501 129.597C182.61 130.364 182.775 130.966 183.158 131.459C182.829 131.349 182.556 131.294 182.337 131.24C182.227 131.24 182.118 131.294 182.008 131.294C181.899 131.185 181.899 131.075 181.789 130.966C181.132 130.473 180.311 130.638 179.709 131.075C179.381 130.638 178.888 130.309 178.286 130.254H178.122C178.067 129.488 177.574 128.831 176.808 128.612C175.823 128.338 174.783 128.831 174.509 129.816L173.852 131.897C173.25 131.623 172.593 131.513 171.991 131.897C171.17 132.499 171.005 133.648 171.608 134.469L172.702 135.947C172.702 135.947 172.538 136.385 172.483 136.659C172.374 137.699 173.086 138.575 174.126 138.684C174.18 138.684 174.29 138.684 174.345 138.684C174.728 138.684 175.111 138.575 175.385 138.356L176.042 139.232C175.877 139.834 175.713 140.436 175.658 140.874C175.658 141.202 175.549 141.476 175.494 141.805C175.275 142.79 175.877 143.775 176.863 144.049C177.027 144.049 177.136 144.049 177.301 144.049C178.122 144.049 178.888 143.447 179.107 142.626C179.216 142.242 179.271 141.805 179.326 141.367C179.545 139.889 179.654 139.779 180.257 139.56C180.859 139.396 181.242 138.958 181.461 138.411C181.57 138.411 181.735 138.52 181.844 138.52C182.556 138.52 183.213 138.137 183.486 137.48C183.815 136.823 184.034 136.331 184.253 135.838C184.417 135.838 184.526 135.947 184.691 135.947C184.964 135.947 185.238 135.893 185.512 135.783L187.428 134.853C188.358 134.415 188.741 133.32 188.303 132.389C187.865 131.459 186.716 131.075 185.84 131.513L184.417 132.17C184.417 132.17 184.307 131.951 184.198 131.897C184.198 131.897 184.143 131.897 184.088 131.842C184.198 131.842 184.362 131.897 184.472 131.897C184.855 131.897 185.238 131.787 185.566 131.513L189.617 128.557C190.438 127.955 190.602 126.806 190 125.985C189.672 125.547 189.179 125.328 188.632 125.273C188.905 124.89 189.179 124.561 189.398 124.178L189.617 123.904C189.617 123.904 189.891 123.85 190 123.74L191.15 122.536C191.643 121.989 191.807 121.222 191.533 120.565L191.04 119.471L192.08 118.102C192.464 117.555 192.409 116.515 192.19 115.912C192.135 115.748 192.026 115.584 192.026 115.474L191.807 114.489C192.464 113.394 192.956 112.409 193.449 111.478C193.723 110.931 193.996 110.438 194.27 109.946C194.489 109.617 194.434 109.179 194.38 108.851C195.091 108.851 195.803 108.358 196.022 107.647L197.39 103.815C197.554 103.322 197.5 102.72 197.226 102.282C197.171 102.173 197.007 102.063 196.898 101.954C196.952 101.954 197.007 102.008 197.117 102.008C197.664 102.008 198.211 101.735 198.595 101.297C199.197 100.476 199.032 99.3261 198.266 98.724L198.047 98.5597L198.923 92.9215C199.032 92.1004 198.595 91.2793 197.828 90.9508C197.554 90.8414 197.281 90.7319 196.952 90.7866C196.733 90.5129 196.46 90.294 196.131 90.1845L196.241 88.7065C196.241 88.3233 196.131 87.9949 195.967 87.6664C196.131 87.3927 196.295 87.119 196.295 86.7358C196.295 86.6811 196.295 86.6264 196.295 86.5716H196.569C197.171 86.5716 197.609 86.2432 197.938 85.8053C199.032 85.4221 199.635 84.3273 199.854 83.8893C200.127 83.2872 200.127 82.6303 199.744 82.0282L199.361 82.5756ZM71.3233 167.478C71.3233 167.478 71.2139 167.587 71.2139 167.697C71.1044 167.368 70.9402 167.095 70.7212 166.876L71.3233 167.478ZM178.833 136.549C178.56 136.659 178.395 136.768 178.122 136.878L177.903 136.549C177.903 136.549 177.629 136.385 177.52 136.331C177.793 135.728 177.848 135.072 177.738 134.25C177.738 134.25 177.848 134.25 177.903 134.196C178.012 134.579 178.176 134.962 178.56 135.236C178.888 135.455 179.271 135.564 179.6 135.564C179.819 135.564 180.038 135.509 180.257 135.4C180.092 135.783 179.928 136.112 179.819 136.385C179.819 136.385 179.819 136.495 179.819 136.549C179.545 136.495 179.216 136.44 178.943 136.549H178.833ZM28.188 160.033C28.0785 159.705 27.969 159.321 27.8048 158.993C28.0785 158.993 28.4069 158.884 28.6806 158.719C28.7901 158.665 28.7901 158.5 28.8449 158.391C28.8449 158.5 28.6806 158.555 28.6806 158.719L28.5164 160.307C28.5164 160.307 28.2975 160.307 28.188 160.307C28.188 160.252 28.188 160.143 28.188 160.088V160.033ZM22.9329 151.384L22.8234 151.275C22.8234 151.275 22.8782 151.275 22.9329 151.329V151.384ZM41.8183 160.635L41.5994 160.416L42.0373 160.088L41.8183 160.635ZM11.2185 93.6331C11.4375 93.3594 11.5469 93.031 11.7112 92.7025C11.7112 92.9215 11.8754 93.1404 11.9849 93.3594C11.7112 93.6331 11.6017 93.9616 11.5469 94.29C11.4375 94.071 11.3827 93.7973 11.2185 93.5784V93.6331ZM13.9555 144.323C13.9555 143.666 13.9555 142.954 14.0103 142.297C14.2292 142.735 14.4482 143.173 14.7219 143.556C14.7766 143.666 14.9408 143.666 15.0503 143.72L15.4335 145.198C15.4335 145.198 15.543 145.363 15.543 145.417C15.0503 145.034 14.5029 144.761 13.9555 144.596C13.9555 144.487 13.9555 144.377 13.9555 144.268V144.323ZM22.276 66.4819C22.276 66.4819 22.1666 66.7009 22.1118 66.8104C22.0023 66.7009 21.8381 66.6461 21.7286 66.5914C21.8381 66.5367 21.9476 66.4272 22.0571 66.3177L22.276 66.4272V66.4819ZM13.0249 85.4768V85.641H12.9702C12.9702 85.5863 12.9702 85.5315 13.0249 85.4768ZM8.75518 116.35C8.75518 116.35 8.75518 116.35 8.75518 116.405V116.35ZM30.706 57.9424C30.706 57.9424 30.5966 57.8877 30.5418 57.833C30.7608 56.9024 31.0345 56.0265 31.3082 55.1507C31.3629 55.1507 31.4177 55.1507 31.5271 55.1507C31.8556 55.1507 32.1293 55.0412 32.403 54.877L33.2788 55.096V55.2602C32.9504 55.3697 32.5672 55.5886 32.2935 56.0265L31.6914 57.0119C31.6914 57.0119 31.6914 57.2856 31.6366 57.395C31.3629 57.5593 31.0345 57.7782 30.7608 57.9424H30.706ZM34.8116 51.702H34.6473L34.8116 51.4831C34.8116 51.5378 34.8116 51.5926 34.8116 51.702ZM17.4042 79.4554L17.021 80.1123L17.1304 79.1269C17.1304 79.1269 17.1304 79.0175 17.1852 78.9627C17.2399 79.1269 17.2947 79.3459 17.4042 79.5101V79.4554ZM7.5509 134.907C7.5509 134.907 7.76986 134.907 7.8246 134.907C8.04356 134.853 8.26252 134.688 8.42674 134.579C8.59096 134.962 8.59096 135.29 8.59096 135.674C8.0983 135.455 7.60564 135.509 7.16771 135.838C7.05823 135.838 6.94875 135.838 6.83927 135.838C6.83927 135.838 6.94875 135.783 7.00349 135.728L7.5509 135.017V134.907ZM9.46681 115.639C9.46681 115.639 9.68577 115.42 9.68577 115.256C9.74051 115.256 9.79525 115.365 9.90473 115.365C9.74051 115.42 9.57629 115.474 9.46681 115.639ZM21.017 72.7223L21.236 72.5581C21.236 72.5581 21.4549 72.4486 21.5097 72.3391C21.4549 72.4486 21.4002 72.5581 21.3455 72.6676C21.236 72.6676 21.1265 72.6676 20.9623 72.6676L21.017 72.7223ZM26.7647 53.7822V53.5085C26.7647 53.5085 26.8742 53.5632 26.9837 53.618C26.929 53.6727 26.8195 53.7274 26.7647 53.7822ZM23.1519 59.6394H23.2066C23.2066 59.6394 23.6445 59.4204 23.8088 59.2562V59.7489C23.8088 59.7489 23.9182 60.0226 23.973 60.1321C23.5898 60.4058 23.3161 60.7342 23.2066 61.2269C23.0971 61.7195 22.9877 62.2122 22.9329 62.7048L22.6592 62.5954C23.0971 61.5006 23.3161 60.57 23.1519 59.6941V59.6394ZM17.1304 77.8132C17.1304 77.8132 17.1304 77.8679 17.1304 77.9227C17.1304 77.9227 17.0757 77.8679 17.0757 77.8132C17.0757 77.8132 17.1304 77.8132 17.1852 77.8132H17.1304ZM7.93408 127.682C7.93408 127.682 8.15304 127.846 8.26252 127.955C8.26252 128.284 8.26252 128.612 8.31726 128.995L10.8353 128.776C10.8353 128.776 10.8901 128.995 10.9448 129.05C10.9448 129.324 10.8901 129.543 10.9448 129.816C11.2185 131.075 11.6564 132.389 12.2038 133.594C12.368 133.922 12.587 134.196 12.8607 134.36C12.6417 134.415 12.4228 134.524 12.2586 134.634C12.1491 133.648 11.7659 132.553 10.7806 131.404C10.1784 130.692 9.24784 130.638 8.42674 131.075C8.0983 130.09 7.76986 129.105 7.49616 128.229L7.22245 127.298C7.22245 127.298 7.33193 127.025 7.44141 126.86C7.60564 127.079 7.71512 127.353 7.87934 127.572L7.93408 127.682ZM85.0631 26.5763C85.0631 26.5763 84.7347 26.5215 84.5157 26.4668L83.7494 26.3573C83.7494 26.3573 83.7494 26.1931 83.7494 26.1383C83.5852 25.7551 83.2567 25.4815 82.8735 25.2625L83.0378 24.6056C83.0378 24.6056 83.0925 24.2224 83.0378 24.0035C83.1472 23.9487 83.1472 23.8392 83.2567 23.7298C83.5852 24.5509 84.4063 25.0435 85.2821 24.8246C85.3916 24.8246 85.5011 24.8246 85.5558 24.7698C85.5558 25.0435 85.6105 25.372 85.6653 25.6457C85.3916 25.8646 85.1179 26.1383 85.0084 26.5215L85.0631 26.5763ZM57.0909 32.2145C57.0909 32.2145 57.1456 32.4335 57.2003 32.4882C57.1456 32.5429 57.0361 32.5977 56.9814 32.7072C56.6529 33.0356 56.4887 33.4735 56.4887 33.9115C56.3792 33.9115 56.215 33.9115 56.1055 33.9115C55.9961 33.9115 55.8866 34.0209 55.8318 34.0757C55.8318 33.802 55.6129 33.5283 55.4487 33.2546C55.6676 32.9809 55.8318 32.6524 55.8866 32.2692L57.0361 32.1598L57.0909 32.2145ZM172.648 37.4696C172.812 38.2359 173.414 38.7286 174.18 38.8381C174.126 38.9476 174.016 39.057 174.016 39.2213C174.016 39.4402 174.016 39.6044 174.016 39.7687L173.688 39.6592C173.414 38.9476 172.867 38.4002 172.1 38.4002H171.553C171.881 38.4002 172.21 38.2907 172.483 38.0717C172.648 37.9075 172.702 37.6885 172.812 37.4696H172.648ZM181.735 53.3443C181.735 53.3443 181.516 53.0158 181.406 52.9063V52.5779C181.406 52.5779 181.406 52.4684 181.406 52.4137L182.008 52.8516C182.008 52.8516 182.172 52.8516 182.282 52.9611L182.61 53.9464C182.884 54.7128 183.596 55.1507 184.362 55.1507C184.581 55.1507 184.8 55.1507 184.964 55.0412C185.238 54.9317 185.457 54.7675 185.676 54.6033C185.95 55.2054 186.278 55.8623 186.552 56.4645L187.099 57.7782C187.263 58.2161 187.646 58.4898 188.03 58.6541C187.811 58.6541 187.592 58.7088 187.373 58.8183C187.318 58.8183 187.263 58.9278 187.209 58.9825C187.099 57.9972 186.716 56.9024 185.676 55.8076C185.019 55.096 183.924 55.0412 183.158 55.6434C182.665 54.8222 182.172 54.0011 181.68 53.3443H181.735ZM116.703 16.723C116.867 17.2157 117.196 17.6536 117.688 17.8178L119.823 18.6389C119.823 18.6389 119.823 18.8031 119.823 18.8579L117.36 19.9527C117.086 19.5695 116.758 19.3505 116.375 19.2411L115.991 18.5294L116.594 17.4894C116.594 17.4894 116.758 16.9967 116.813 16.723H116.703ZM131.483 21.4307C131.483 21.4307 131.702 21.4307 131.811 21.4307C131.811 21.5401 131.811 21.6496 131.811 21.8138C131.702 21.7591 131.647 21.7044 131.538 21.6496V21.4854L131.483 21.4307ZM112.324 19.7337L112.433 19.9527H112.16C112.16 19.9527 112.269 19.8432 112.324 19.7337ZM137.833 20.3906C137.833 20.3906 137.504 20.1169 137.34 19.9527C137.504 19.9527 137.614 19.9527 137.723 20.0074C137.723 20.1169 137.723 20.2264 137.833 20.3359V20.3906ZM159.291 29.4228C159.291 29.4228 158.798 28.9848 158.525 28.8206C158.798 28.8206 159.017 28.7111 159.236 28.6016C159.455 28.9301 159.729 29.2038 160.057 29.3133C159.784 29.3133 159.51 29.3133 159.291 29.4228ZM146.044 22.8539H145.168C145.168 22.8539 144.894 22.7444 144.73 22.7444C144.894 22.635 145.113 22.5802 145.223 22.4707C145.496 22.635 145.77 22.7444 146.044 22.9087V22.8539ZM143.635 22.8539C143.635 22.8539 143.799 22.8539 143.854 22.8539C143.799 22.8539 143.745 22.9087 143.69 22.9634C143.69 22.9634 143.69 22.9087 143.69 22.8539H143.635ZM186.99 100.64H186.88C186.88 100.64 186.88 100.64 186.935 100.53C186.935 100.53 186.935 100.585 186.935 100.64H186.99ZM183.65 59.5847C183.65 59.5847 183.267 59.4752 183.048 59.4204C183.212 59.311 183.377 59.2015 183.541 59.092C183.541 59.2562 183.65 59.4204 183.65 59.5847ZM187.099 68.781L187.811 66.7009L188.03 67.9599C188.03 67.9599 188.139 68.3431 188.249 68.4526L188.139 69.8758C188.139 69.8758 188.139 69.9853 188.139 70.04C187.811 69.5474 187.428 69.1642 186.99 68.781H187.099ZM191.643 77.8679C191.643 77.8679 191.588 78.0869 191.588 78.1964C191.588 78.0869 191.588 77.9774 191.588 77.8679C191.588 77.8679 191.643 77.8679 191.697 77.8679H191.643ZM191.588 78.5795C191.588 78.5795 191.697 78.7985 191.752 78.908C191.697 78.908 191.643 78.9627 191.588 79.0175C191.588 78.8532 191.588 78.7438 191.588 78.5795ZM190.383 88.2138L188.851 88.8707C188.851 88.8707 188.851 88.8707 188.796 88.7612C188.851 88.7065 188.906 88.6517 188.96 88.597L189.617 87.6664C189.617 87.6664 190.11 88.0496 190.438 88.1591L190.383 88.2138ZM189.453 100.476C189.453 100.476 189.453 100.476 189.453 100.53V100.476ZM177.41 42.8341C177.41 42.8341 177.41 42.7794 177.465 42.7246V42.8341C177.465 42.8341 177.465 42.8341 177.41 42.8341ZM177.629 41.7393C177.629 41.7393 177.52 41.4656 177.465 41.3561C177.574 41.3561 177.684 41.3561 177.793 41.2467C177.684 41.4109 177.684 41.5751 177.629 41.7393ZM116.484 15.7377C116.484 15.7377 116.484 15.6829 116.484 15.6282C116.375 15.464 116.21 15.2998 116.046 15.1903C116.21 15.1903 116.375 15.1903 116.539 15.1903V15.7377H116.484ZM189.015 106.771C189.015 106.771 188.577 106.333 188.249 106.223L186.771 105.731C186.771 105.731 186.333 105.621 186.059 105.621C186.059 105.621 186.059 105.621 186.059 105.566L185.95 105.019C185.95 105.019 185.84 104.581 185.731 104.417C186.004 104.417 186.223 104.253 186.442 104.089C186.716 104.307 187.099 104.417 187.428 104.417C187.756 104.417 188.084 104.362 188.358 104.143L189.398 103.541C190.11 103.158 190.274 102.337 190.165 101.57L190.602 102.173C190.821 102.501 191.15 102.665 191.478 102.829C191.478 102.939 191.369 103.048 191.369 103.158C191.205 104.143 191.861 105.074 192.792 105.238L192.354 106.442C192.08 106.004 191.697 105.676 191.15 105.566C190.219 105.348 189.398 105.895 189.07 106.716L189.015 106.771ZM171.17 32.4335C171.717 32.4335 172.21 32.2692 172.702 31.7766C172.757 31.7218 172.757 31.6671 172.812 31.6124L173.797 34.0209C173.797 34.0209 173.907 34.1304 173.961 34.1852C173.305 34.2946 172.812 34.7873 172.538 35.3347C172.319 35.1157 172.155 34.842 171.936 34.5683C171.443 33.9115 171.005 33.3093 170.403 32.7619C169.965 32.324 169.363 32.2692 168.816 32.3787L168.706 31.6671C168.871 31.7218 169.09 31.8313 169.254 31.8861C169.801 32.105 170.513 32.4335 171.224 32.4335H171.17ZM102.416 14.5881C102.416 14.5881 102.416 15.0808 102.525 15.245C102.525 15.2998 102.635 15.464 102.69 15.5187L101.923 15.1355C101.923 15.1355 102.306 14.7524 102.416 14.5334V14.5881ZM38.9718 167.095H39.0813C39.0813 167.095 39.0813 167.04 39.136 166.985L39.3003 167.423C39.3003 167.423 39.136 167.314 39.0813 167.204L38.9718 167.095ZM45.048 162.442L45.9238 162.88C45.4859 163.099 45.1027 163.427 44.8838 163.974C44.5553 164.905 44.9933 165.89 45.8691 166.273C45.5954 166.438 45.3217 166.602 45.1575 166.93L44.5006 168.354C44.5006 168.354 44.3911 168.792 44.3911 168.956C44.1721 168.956 43.9532 168.956 43.7342 168.956C43.4605 168.956 43.2416 169.12 43.0226 169.284C42.9131 169.284 42.8584 169.284 42.7489 169.284C42.7489 168.956 42.7489 168.627 42.5847 168.354C43.0774 167.861 43.2416 167.149 42.9679 166.438L42.5299 165.343C42.311 164.686 41.7088 164.303 41.052 164.193L41.4351 164.084C41.8183 163.974 42.1468 163.646 42.3657 163.318C42.4205 163.318 42.5299 163.427 42.5847 163.482C42.8036 163.591 43.0226 163.591 43.2416 163.591C43.9532 163.591 44.6648 163.153 44.9385 162.442H45.048ZM21.1265 144.542L20.8528 144.323C20.8528 144.323 21.017 144.377 21.0717 144.377C21.1812 144.377 21.236 144.377 21.3455 144.323C21.2907 144.377 21.1812 144.432 21.1265 144.542ZM14.284 106.497L13.1891 107.975C13.1891 107.975 13.1891 108.249 13.0797 108.358C13.0797 108.358 13.0797 108.358 13.0797 108.304C12.806 108.03 12.4228 107.811 12.0396 107.756C11.8754 107.482 11.7112 107.318 11.4922 107.099L12.0396 105.293C12.0396 105.293 12.2038 105.293 12.2586 105.293C12.368 105.293 12.4775 105.129 12.587 105.074C12.806 105.676 13.1344 106.223 13.9008 106.497C14.0103 106.497 14.1197 106.497 14.2292 106.552L14.284 106.497ZM44.9933 49.2387C44.9933 49.2387 45.2122 49.2387 45.3217 49.2387H45.4312C45.4312 49.2387 45.267 49.3482 45.267 49.4577C45.2122 49.4577 45.1575 49.3482 45.1027 49.3482C45.1027 49.3482 44.9933 49.2935 44.9385 49.2387H44.9933ZM125.243 23.7845C125.243 23.7845 124.859 23.675 124.64 23.6203C124.805 23.5108 124.969 23.3466 125.133 23.2371C125.243 23.1824 125.243 23.0181 125.352 22.9087C125.79 23.0729 126.228 23.1276 126.666 22.9087L127.761 22.4707V22.7444C126.721 22.8539 125.845 23.1276 125.243 23.675V23.7845ZM193.887 101.735C193.887 101.735 194.106 101.351 194.161 101.133L195.201 101.954L193.832 101.735H193.887Z" fill="#EB1807"/>
<path d="M164.932 150.07L162.195 151.822C161.32 152.369 161.101 153.519 161.648 154.395C161.976 154.942 162.579 155.271 163.236 155.271C163.564 155.271 163.892 155.161 164.221 154.997L166.958 153.245C167.834 152.698 168.053 151.548 167.505 150.673C166.958 149.797 165.808 149.578 164.932 150.125V150.07Z" fill="#EB1807"/>
<path d="M185.132 139.177C184.694 138.903 184.201 138.794 183.654 138.903C183.161 139.013 182.723 139.341 182.449 139.834L181.464 141.64C180.971 142.516 181.3 143.666 182.176 144.158C182.449 144.322 182.778 144.377 183.052 144.377C183.489 144.377 183.873 144.213 184.201 143.939C184.53 143.775 184.858 143.501 185.022 143.173L185.789 141.75C186.226 140.929 185.789 139.724 185.022 139.177H185.132Z" fill="#EB1807"/>
</svg>
