<svg width="32" height="32" viewBox="0 0 32 32" fill="none" xmlns="http://www.w3.org/2000/svg">
<path d="M25.3333 14.6667V12C25.3333 11.2928 25.0524 10.6145 24.5523 10.1144C24.0522 9.61428 23.3739 9.33333 22.6667 9.33333H12C11.2928 9.33333 10.6145 9.61428 10.1144 10.1144C9.61428 10.6145 9.33333 11.2928 9.33333 12V22.6667C9.33333 23.3739 9.61428 24.0522 10.1144 24.5523C10.6145 25.0524 11.2928 25.3333 12 25.3333H14.6667M4 4V4.01333M9.33333 4V4.01333M14.6667 4V4.01333M20 4V4.01333M4 9.33333V9.34667M4 14.6667V14.68M4 20V20.0133M17.3333 17.3333L29.3333 21.3333L24 24L21.3333 29.3333L17.3333 17.3333Z" stroke="#B0B6C0" stroke-width="2" stroke-linecap="round" stroke-linejoin="round"/>
</svg>
