<svg width="48" height="34" viewBox="0 0 48 34" fill="none" xmlns="http://www.w3.org/2000/svg">
<path fill-rule="evenodd" clip-rule="evenodd" d="M34.4358 22.8585C34.1752 22.7887 33.8918 22.8627 33.7146 23.0661C29.7144 27.6559 21.2968 28.8498 15.9821 28.8498C8.81228 28.8498 3 23.5109 3 16.9249C3 10.339 8.81228 5 15.9821 5C21.3129 5 29.7655 6.20123 33.7509 10.8256C34.0619 11.1865 34.5708 11.3256 35.0042 11.1277L38.607 9.48355C40.618 8.56578 42.9923 9.45204 43.91 11.4631C44.5105 12.7789 44.3387 14.2501 43.5849 15.3672C43.1446 16.0197 43.1641 17.1306 43.6343 17.7618C44.3563 18.7311 44.6438 20.0093 44.3067 21.2674C43.7218 23.4502 41.4782 24.7455 39.2955 24.1606L34.4358 22.8585Z" fill="#FFD266"/>
<circle cx="7.90625" cy="15.8242" r="1" fill="#CF8900" stroke="#CF8900"/>
<path d="M11.4336 11.2314C12.1011 11.4673 14.2146 12.6561 14.2146 15.777C14.2146 18.898 13.1753 19.7991 11.9355 20.9289" stroke="#CF8900" stroke-linecap="round"/>
<path d="M23.7227 7.9248C24.2027 8.04644 25.7227 8.65935 25.7227 10.2685C25.7227 11.8777 24.9752 12.3423 24.0836 12.9248" stroke="#CF8900" stroke-linecap="round"/>
<path d="M27.7227 10.9248C28.2027 11.0464 29.7227 11.6593 29.7227 13.2685C29.7227 14.8777 28.9752 15.3423 28.0836 15.9248" stroke="#CF8900" stroke-linecap="round"/>
<path d="M23.7227 13.9248C24.2027 14.0464 25.7227 14.6593 25.7227 16.2685C25.7227 17.8777 24.9752 18.3423 24.0836 18.9248" stroke="#CF8900" stroke-linecap="round"/>
<path d="M27.7227 16.9248C28.2027 17.0464 29.7227 17.6593 29.7227 19.2685C29.7227 20.8777 28.9752 21.3423 28.0836 21.9248" stroke="#CF8900" stroke-linecap="round"/>
<path d="M23.7227 19.9248C24.2027 20.0464 25.7227 20.6593 25.7227 22.2685C25.7227 23.8777 24.9752 24.3423 24.0836 24.9248" stroke="#CF8900" stroke-linecap="round"/>
<path d="M14.0508 14.0808C14.9511 13.1144 17.0944 11.3662 18.4647 12.1042C20.1777 13.0267 19.0576 15.0185 18.4647 15.3379C18.9126 15.3379 20.3511 16.135 19.8535 17.7772C19.1947 19.9513 15.6978 18.4946 14.0508 18.0993" stroke="#CF8900" stroke-linecap="round" stroke-linejoin="round"/>
<path d="M36.2422 15.4329L38.7839 14.3716" stroke="#CF8900" stroke-linecap="round"/>
<path d="M36.2422 18.3403L38.8591 19.4783" stroke="#CF8900" stroke-linecap="round"/>
</svg>
