<svg width="60" height="60" viewBox="0 0 60 60" fill="none" xmlns="http://www.w3.org/2000/svg">
<circle cx="30" cy="30" r="29.5" fill="white" stroke="#D0D3D9" stroke-dasharray="2 2"/>
<path d="M42.8549 29.9997C42.8549 30.2839 42.742 30.5564 42.5411 30.7573C42.3402 30.9583 42.0676 31.0711 41.7835 31.0711H31.0692V41.7854C31.0692 42.0696 30.9563 42.3421 30.7554 42.543C30.5545 42.744 30.2819 42.8569 29.9978 42.8569C29.7136 42.8569 29.4411 42.744 29.2402 42.543C29.0392 42.3421 28.9263 42.0696 28.9263 41.7854V31.0711H18.2121C17.9279 31.0711 17.6554 30.9583 17.4544 30.7573C17.2535 30.5564 17.1406 30.2839 17.1406 29.9997C17.1406 29.7156 17.2535 29.443 17.4544 29.2421C17.6554 29.0412 17.9279 28.9283 18.2121 28.9283H28.9263V18.214C28.9263 17.9298 29.0392 17.6573 29.2402 17.4564C29.4411 17.2555 29.7136 17.1426 29.9978 17.1426C30.2819 17.1426 30.5545 17.2555 30.7554 17.4564C30.9563 17.6573 31.0692 17.9298 31.0692 18.214V28.9283H41.7835C42.0676 28.9283 42.3402 29.0412 42.5411 29.2421C42.742 29.443 42.8549 29.7156 42.8549 29.9997Z" fill="#D0D3D9"/>
</svg>
