<svg width="20" height="20" viewBox="0 0 20 20" fill="none" xmlns="http://www.w3.org/2000/svg">
<path d="M7.02245 15.7728L7.05781 15.8082L7.02246 15.7728L12.7957 10.0003L7.02246 4.22789L7.05781 4.19253L7.02245 4.22789C6.8958 4.10124 6.82465 3.92946 6.82465 3.75035C6.82465 3.57123 6.8958 3.39946 7.02245 3.2728C7.14911 3.14615 7.32088 3.075 7.5 3.075C7.67911 3.075 7.85089 3.14615 7.97754 3.2728L14.2275 9.52278C14.2275 9.52279 14.2275 9.5228 14.2275 9.5228C14.2903 9.58549 14.3401 9.65993 14.374 9.74186C14.408 9.82381 14.4255 9.91164 14.4255 10.0003C14.4255 10.0891 14.408 10.1769 14.374 10.2588C14.3401 10.3408 14.2903 10.4152 14.2275 10.4779C14.2275 10.4779 14.2275 10.4779 14.2275 10.4779L7.97754 16.7279C7.91483 16.7906 7.84038 16.8403 7.75844 16.8743C7.6765 16.9082 7.58869 16.9257 7.5 16.9257C7.41131 16.9257 7.32349 16.9082 7.24155 16.8743C7.15962 16.8403 7.08517 16.7906 7.02245 16.7279C6.95974 16.6652 6.91 16.5907 6.87606 16.5088C6.84212 16.4269 6.82465 16.339 6.82465 16.2503C6.82465 16.1617 6.84212 16.0738 6.87606 15.9919C6.91 15.91 6.95974 15.8355 7.02245 15.7728Z" fill="white" stroke="white" stroke-width="0.1"/>
</svg>
