<svg width="24" height="20" viewBox="0 0 24 20" fill="none" xmlns="http://www.w3.org/2000/svg">
<path d="M16.131 18.9755H14.0755C13.8711 18.9755 13.675 18.8949 13.5305 18.7514C13.3859 18.6079 13.3047 18.4133 13.3047 18.2104C13.3047 18.0074 13.3859 17.8128 13.5305 17.6693C13.675 17.5258 13.8711 17.4452 14.0755 17.4452H16.131C16.1991 17.4452 16.2645 17.4183 16.3127 17.3705C16.3609 17.3227 16.3879 17.2578 16.3879 17.1902V15.1498C16.3879 14.9469 16.4691 14.7522 16.6137 14.6087C16.7583 14.4653 16.9543 14.3846 17.1587 14.3846C17.3632 14.3846 17.5592 14.4653 17.7038 14.6087C17.8484 14.7522 17.9296 14.9469 17.9296 15.1498V17.1902C17.9269 17.6628 17.7365 18.1154 17.3998 18.4496C17.0631 18.7839 16.6072 18.9728 16.131 18.9755Z" fill="#FFE199"/>
<path d="M12.5351 19.9961C13.8122 19.9961 14.8475 18.9684 14.8475 17.7007C14.8475 16.433 13.8122 15.4053 12.5351 15.4053C11.258 15.4053 10.2227 16.433 10.2227 17.7007C10.2227 18.9684 11.258 19.9961 12.5351 19.9961Z" fill="#1E78FF"/>
<path d="M20.2422 9.70203C20.0396 9.70205 19.845 9.62284 19.7008 9.48154C19.5565 9.34025 19.4741 9.14824 19.4714 8.94709C19.4714 6.98544 18.6864 5.10414 17.289 3.71705C15.8916 2.32995 13.9964 1.55069 12.0202 1.55069C10.044 1.55069 8.14881 2.32995 6.75144 3.71705C5.35407 5.10414 4.56904 6.98544 4.56904 8.94709C4.57052 9.04837 4.55118 9.14889 4.51218 9.2425C4.47319 9.33611 4.41536 9.42084 4.34225 9.49151C4.26914 9.56217 4.18227 9.61729 4.08696 9.65349C3.99165 9.68969 3.88991 9.7062 3.78795 9.70203C3.68672 9.7007 3.58675 9.67959 3.49374 9.6399C3.40074 9.60021 3.31652 9.54273 3.24589 9.47073C3.17527 9.39873 3.11962 9.31363 3.08214 9.22028C3.04465 9.12693 3.02605 9.02717 3.02741 8.92668C3.02741 6.55918 3.97487 4.28864 5.66135 2.61457C7.34782 0.940487 9.63518 0 12.0202 0C14.4053 0 16.6926 0.940487 18.3791 2.61457C20.0656 4.28864 21.013 6.55918 21.013 8.92668C21.0144 9.02717 20.9958 9.12693 20.9583 9.22028C20.9208 9.31363 20.8652 9.39873 20.7945 9.47073C20.7239 9.54273 20.6397 9.60021 20.5467 9.6399C20.4537 9.67959 20.3537 9.7007 20.2525 9.70203H20.2422Z" fill="#FFE199"/>
<path d="M3.56667 9H2.8C2.19 9 1.60499 9.23705 1.17365 9.65901C0.742321 10.081 0.5 10.6533 0.5 11.25V12.75C0.5 13.3467 0.742321 13.919 1.17365 14.341C1.60499 14.7629 2.19 15 2.8 15H3.56667C3.77 15 3.965 14.921 4.10878 14.7803C4.25256 14.6397 4.33333 14.4489 4.33333 14.25V9.75C4.33333 9.55109 4.25256 9.36032 4.10878 9.21967C3.965 9.07902 3.77 9 3.56667 9ZM21.2 9H20.4333C20.23 9 20.035 9.07902 19.8912 9.21967C19.7474 9.36032 19.6667 9.55109 19.6667 9.75V14.25C19.6667 14.4489 19.7474 14.6397 19.8912 14.7803C20.035 14.921 20.23 15 20.4333 15H21.2C21.81 15 22.395 14.7629 22.8263 14.341C23.2577 13.919 23.5 13.3467 23.5 12.75V11.25C23.5 10.6533 23.2577 10.081 22.8263 9.65901C22.395 9.23705 21.81 9 21.2 9Z" fill="#1E78FF"/>
<path d="M19.8315 8.00854L18.6804 7.68208C18.4116 7.60508 18.1284 7.59174 17.8536 7.64312C17.5787 7.69451 17.3198 7.80918 17.0976 7.97793C16.8758 8.14261 16.696 8.35674 16.5728 8.60306C16.4496 8.84939 16.3865 9.121 16.3885 9.396V14.8642C16.3868 15.1402 16.4512 15.4127 16.5763 15.6592C16.7013 15.9057 16.8835 16.1193 17.1079 16.2823C17.4007 16.5132 17.7618 16.6423 18.1357 16.6496C18.3062 16.6517 18.4761 16.6276 18.6393 16.5782L19.7287 16.2721C20.3689 16.1429 20.9446 15.7982 21.3585 15.2963C21.7723 14.7944 21.9989 14.1661 22 13.5176V10.7018C21.9957 10.0764 21.7794 9.47062 21.386 8.98205C20.9927 8.49348 20.4451 8.15056 19.8315 8.00854ZM6.94347 7.93712C6.72135 7.76837 6.46244 7.6537 6.18756 7.60232C5.91268 7.55093 5.62948 7.56427 5.36074 7.64127L4.27133 7.94732C3.63107 8.07657 3.05538 8.42124 2.64155 8.92312C2.22771 9.42499 2.0011 10.0533 2 10.7018V13.4768C2.00645 14.1078 2.2286 14.7179 2.63004 15.2072C3.03149 15.6966 3.58844 16.036 4.20966 16.1701L5.36074 16.4965C5.52389 16.546 5.69377 16.5701 5.86434 16.568C6.23821 16.5606 6.59931 16.4316 6.89209 16.2007C7.11647 16.0377 7.29867 15.8241 7.42374 15.5776C7.5488 15.3311 7.61316 15.0586 7.61151 14.7826V9.35519C7.61834 9.08362 7.56155 8.81419 7.44563 8.56811C7.32971 8.32203 7.15781 8.10603 6.94347 7.93712Z" fill="#FFB400"/>
</svg>