<svg width="57" height="54" viewBox="0 0 57 54" fill="none" xmlns="http://www.w3.org/2000/svg">
<rect x="0.5" y="0.5" width="53" height="53" rx="7.5" stroke="#38A39A"/>
<path d="M16.8876 12.384V10.96H18.6476V12.384H21.9596V13.792H13.5756V12.384H16.8876ZM14.3116 16.96C14.3116 16.448 14.4556 15.9947 14.7436 15.6C15.0316 15.1947 15.437 14.8853 15.9596 14.672C16.493 14.448 17.0956 14.336 17.7676 14.336C18.4396 14.336 19.037 14.448 19.5596 14.672C20.093 14.8853 20.5036 15.1947 20.7916 15.6C21.0903 15.9947 21.2396 16.448 21.2396 16.96C21.2396 17.472 21.0903 17.9253 20.7916 18.32C20.5036 18.704 20.093 19.008 19.5596 19.232C19.037 19.4453 18.4396 19.552 17.7676 19.552C17.0956 19.552 16.493 19.4453 15.9596 19.232C15.437 19.008 15.0316 18.704 14.7436 18.32C14.4556 17.9253 14.3116 17.472 14.3116 16.96ZM15.3036 20.624H24.6956V25.296H22.9356V22.032H15.3036V20.624ZM15.9916 16.96C15.9916 17.344 16.1516 17.6533 16.4716 17.888C16.8023 18.112 17.2343 18.224 17.7676 18.224C18.301 18.224 18.7276 18.112 19.0476 17.888C19.3783 17.6533 19.5436 17.344 19.5436 16.96C19.5436 16.5547 19.3783 16.24 19.0476 16.016C18.7276 15.792 18.301 15.68 17.7676 15.68C17.2343 15.68 16.8023 15.792 16.4716 16.016C16.1516 16.24 15.9916 16.5547 15.9916 16.96ZM22.9356 11.056H24.6956V14.816H26.6796V16.256H24.6956V19.968H22.9356V11.056ZM30.824 19.568V20.944H37.016V19.568H38.76V25.12H29.096V19.568H30.824ZM27.544 17.376H40.408V18.768H27.544V17.376ZM28.216 15.216C29.176 15.0987 30.024 14.864 30.76 14.512C31.496 14.16 32.0613 13.7387 32.456 13.248C32.8613 12.7573 33.064 12.2453 33.064 11.712V11.2H34.872V11.712C34.872 12.2347 35.0747 12.7467 35.48 13.248C35.8853 13.7387 36.456 14.16 37.192 14.512C37.9387 14.864 38.7867 15.0987 39.736 15.216L39.112 16.592C37.9493 16.432 36.9147 16.1067 36.008 15.616C35.112 15.1147 34.4347 14.5013 33.976 13.776C33.528 14.5013 32.856 15.1147 31.96 15.616C31.064 16.1067 30.024 16.432 28.84 16.592L28.216 15.216ZM37.016 23.728V22.288H30.824V23.728H37.016Z" fill="#232426"/>
<path d="M24.7916 29.632V34.592H20.8556V36.112H26.4236V37.504H13.5596V36.112H19.0956V34.592H15.1596V29.632H24.7916ZM14.9836 38.704H24.8556V43.296H23.1116V40.096H14.9836V38.704ZM23.0636 33.2V31.024H16.8876V33.2H23.0636ZM30.872 40.224V37.296H28.648V35.888H30.632V31.648H28.584V30.24H39.32V31.648H37.288V35.888H39.288V37.296H37.048V40.224H40.44V41.648H27.544V40.224H30.872ZM35.544 35.888V31.648H32.392V35.888H35.544ZM35.32 40.224V37.296H32.616V40.224H35.32Z" fill="#38A39A"/>
<circle cx="53" cy="27" r="3" fill="white" stroke="#38A39A" stroke-width="2"/>
</svg>
