<svg width="50" height="50" viewBox="0 0 50 50" fill="none" xmlns="http://www.w3.org/2000/svg">
<rect x="0.5" y="0.5" width="49" height="49" rx="7.5" stroke="#60CAE1"/>
<path d="M22.7436 9.04V12.512H24.6636V13.968H22.7436V17.424H20.9836V9.04H22.7436ZM11.4156 16C12.941 16 14.1303 15.9893 14.9836 15.968V15.232C14.1943 15.1467 13.5703 14.9493 13.1116 14.64C12.6636 14.32 12.4396 13.9093 12.4396 13.408C12.4396 12.832 12.7436 12.3787 13.3516 12.048C13.9703 11.7067 14.797 11.536 15.8316 11.536C16.8876 11.536 17.7196 11.7013 18.3276 12.032C18.9463 12.3627 19.2556 12.8213 19.2556 13.408C19.2556 13.9093 19.0316 14.32 18.5836 14.64C18.1463 14.9493 17.5276 15.1467 16.7276 15.232V15.904C18.0396 15.84 19.2236 15.7387 20.2796 15.6L20.4076 16.672C19.0743 16.9067 17.693 17.0613 16.2636 17.136C14.845 17.2 13.293 17.232 11.6076 17.232L11.4156 16ZM11.7836 10H14.9836V8.912H16.7276V10H19.8956V11.2H11.7836V10ZM13.3196 18H22.7436V21.088H15.0796V21.984H23.2556V23.168H13.3356V19.984H21.0156V19.168H13.3196V18ZM14.1036 13.408C14.1036 13.6533 14.253 13.8453 14.5516 13.984C14.861 14.112 15.2876 14.176 15.8316 14.176C16.3863 14.176 16.8183 14.112 17.1276 13.984C17.437 13.8453 17.5916 13.6533 17.5916 13.408C17.5916 13.1627 17.437 12.976 17.1276 12.848C16.8183 12.7093 16.3863 12.64 15.8316 12.64C15.2876 12.64 14.861 12.7093 14.5516 12.848C14.253 12.976 14.1036 13.1627 14.1036 13.408ZM31.112 15.872V14.528H27.144V9.68H36.856V11.088H28.872V13.12H36.952V14.528H32.856V15.872H38.424V17.28H25.56V15.872H31.112ZM27.032 20.704C27.032 19.8827 27.464 19.248 28.328 18.8C29.2027 18.3413 30.4133 18.112 31.96 18.112C33.496 18.112 34.696 18.3413 35.56 18.8C36.4347 19.248 36.872 19.8827 36.872 20.704C36.872 21.5253 36.4347 22.16 35.56 22.608C34.696 23.0667 33.496 23.296 31.96 23.296C30.4133 23.296 29.2027 23.0667 28.328 22.608C27.464 22.16 27.032 21.5253 27.032 20.704ZM28.808 20.704C28.808 21.536 29.8587 21.952 31.96 21.952C34.0507 21.952 35.096 21.536 35.096 20.704C35.096 20.2987 34.824 19.9893 34.28 19.776C33.7467 19.5627 32.9733 19.456 31.96 19.456C30.936 19.456 30.152 19.5627 29.608 19.776C29.0747 19.9893 28.808 20.2987 28.808 20.704Z" fill="#232426"/>
<path d="M22.7916 27.632V32.592H18.8556V34.112H24.4236V35.504H11.5596V34.112H17.0956V32.592H13.1596V27.632H22.7916ZM12.9836 36.704H22.8556V41.296H21.1116V38.096H12.9836V36.704ZM21.0636 31.2V29.024H14.8876V31.2H21.0636ZM28.872 38.224V35.296H26.648V33.888H28.632V29.648H26.584V28.24H37.32V29.648H35.288V33.888H37.288V35.296H35.048V38.224H38.44V39.648H25.544V38.224H28.872ZM33.544 33.888V29.648H30.392V33.888H33.544ZM33.32 38.224V35.296H30.616V38.224H33.32Z" fill="#385CAA"/>
</svg>
