<svg width="47" height="34" viewBox="0 0 47 34" fill="none" xmlns="http://www.w3.org/2000/svg">
<path d="M32.1905 7.53493C34.453 6.56908 37.5754 5.4577 39.7585 4.26693C36.98 3.55247 34.5985 2.8777 31.7539 2.24262C33.3019 4.43893 35.2601 7.01893 37.5093 8.51401C37.3638 5.76201 36.861 3.52601 36.5302 0.615234C36.5302 0.615234 33.5533 5.33862 32.1905 7.53493Z" stroke="#D7853A" stroke-width="0.9" stroke-linecap="round" stroke-linejoin="round"/>
<path fill-rule="evenodd" clip-rule="evenodd" d="M42.4257 16.9652C44.4972 22.5798 41.6249 28.8106 36.0103 30.8821C28.5413 33.6377 21.3214 33.5755 16.277 32.9763C13.7047 32.6708 11.5466 32.2076 9.9928 31.8086C9.21189 31.608 8.57221 31.4207 8.09644 31.2724C7.85822 31.1981 7.66009 31.1332 7.50484 31.081C7.42718 31.0548 7.36015 31.0318 7.3041 31.0122L7.22824 30.9856L7.19654 30.9743L7.17551 30.9668C7.17224 30.9656 7.16902 30.9644 10.839 20.7688L7.16902 30.9644C1.53814 28.9376 -1.38351 22.7298 0.643339 17.0989C2.66065 11.4945 8.81968 8.57391 14.4294 10.5449C14.4471 10.5508 14.4873 10.564 14.5486 10.5831C14.7034 10.6314 14.9883 10.7162 15.3835 10.8177C16.1819 11.0228 17.3819 11.2832 18.8334 11.4556C21.8366 11.8123 25.327 11.7236 28.5088 10.5497C34.1234 8.47826 40.3542 11.3505 42.4257 16.9652Z" fill="#D7853A"/>
<path d="M21.0522 16.3018V16.1518H20.9022H20.0502H19.9002V16.3018V33.3854V33.5354H20.0502H20.9022H21.0522V33.3854V16.3018ZM8.18604 28.2621L8.02848 28.3378L8.12718 28.482L8.60878 29.1859L8.68221 29.2932L8.79885 29.2358C11.3 28.0039 13.1874 26.4192 14.4522 24.4783C15.7276 22.5276 16.3659 20.3875 16.3659 18.0615V17.9115H16.2159H8.89928H8.74928V18.0615V18.8024V18.9524H8.89928H15.2032C15.0565 20.8736 14.3975 22.6332 13.2239 24.2336L13.2234 24.2341C12.0303 25.8778 10.3533 27.2213 8.18604 28.2621Z" fill="white" stroke="white" stroke-width="0.3"/>
<path d="M26.8149 11.6763V11.5263H26.6649H25.8129H25.6629V11.6763V17.9926V18.1426H25.8129H29.1743V19.8061H22.5078H22.3578V19.9561V20.6785V20.8285H22.5078H43.1561H43.3061V20.6785V19.9561V19.8061H43.1561H30.3078V18.1426H33.6878H33.8378V17.9926V11.6763V11.5263H33.6878H32.8358H32.6858V11.6763V13.8602H26.8149V11.6763ZM25.7943 22.0659H25.6443V22.2159V26.5874V26.7374H25.7943H34.0398H34.1898V26.5874V25.8464V25.6964H34.0398H26.7964V22.2159V22.0659H26.6464H25.7943ZM26.8149 14.8826H32.6858V17.1202H26.8149V14.8826Z" fill="white" stroke="white" stroke-width="0.3"/>
<path d="M43.013 13.3666C42.5612 13.3666 42.1949 13.0004 42.1949 12.5486C42.1949 12.0967 42.5612 11.7305 43.013 11.7305C43.4648 11.7305 43.8311 12.0967 43.8311 12.5486C43.8311 13.0004 43.4648 13.3666 43.013 13.3666Z" fill="#D7853A"/>
<path d="M44.5901 16.0278C44.1383 16.0278 43.772 15.6615 43.772 15.2097C43.772 14.7579 44.1383 14.3916 44.5901 14.3916C45.0419 14.3916 45.4082 14.7579 45.4082 15.2097C45.4082 15.6615 45.0419 16.0278 44.5901 16.0278Z" fill="#D7853A"/>
<path d="M45.4085 19.1381C44.9567 19.1381 44.5904 18.7719 44.5904 18.32C44.5904 17.8682 44.9567 17.502 45.4085 17.502C45.8603 17.502 46.2266 17.8682 46.2266 18.32C46.2266 18.7719 45.8603 19.1381 45.4085 19.1381Z" fill="#D7853A"/>
</svg>
