<svg width="47" height="36" viewBox="0 0 47 36" fill="none" xmlns="http://www.w3.org/2000/svg">
<path fill-rule="evenodd" clip-rule="evenodd" d="M43.3322 18.4164C45.4479 24.151 42.5143 30.5149 36.7797 32.6307C29.1511 35.4452 21.777 35.3816 16.6248 34.7696C13.9975 34.4576 11.7933 33.9845 10.2063 33.577C9.40872 33.3721 8.75537 33.1808 8.26943 33.0293C8.02612 32.9534 7.82376 32.8872 7.66519 32.8338C7.58588 32.8071 7.51741 32.7836 7.46016 32.7636L7.38268 32.7364L7.3503 32.7249L7.32882 32.7172C7.32549 32.716 7.3222 32.7148 11.0705 22.3013L7.3222 32.7148C1.571 30.6446 -1.41307 24.3042 0.657085 18.553C2.7175 12.8289 9.00813 9.84588 14.7377 11.859C14.7558 11.865 14.7968 11.8785 14.8595 11.898C15.0176 11.9473 15.3086 12.034 15.7122 12.1376C16.5276 12.347 17.7533 12.613 19.2358 12.7891C22.3032 13.1535 25.8682 13.0629 29.1179 11.8639C34.8525 9.74818 41.2164 12.6818 43.3322 18.4164Z" fill="#7F71B3"/>
<path d="M35.8252 10.6571H35.6752V10.8071V16.7003H33.4755H33.3255V16.8503V17.5882V17.7382H33.4755H35.6752V26.8368V26.9868H35.8252H36.6954H36.8454V26.8368V10.8071V10.6571H36.6954H35.8252ZM31.9414 25.6084H31.7914V25.7584V30.7341V30.8841H31.9414H40.9079H41.0579V30.7341V29.9773V29.8273H40.9079H32.9617V25.7584V25.6084H32.8117H31.9414ZM10.7927 18.138V17.988H10.6427H9.77246H9.62246V18.138V25.2326V25.3826H9.77246H15.7616H15.9116V25.2326V18.138V17.988H15.7616H14.9103H14.7603V18.138V20.6366H10.7927V18.138ZM12.7697 26.7663H12.6197V26.9163V27.6542V27.8042H12.7697H19.1305V29.6609H12.8265H12.6765V29.8109V33.5758V33.7258H12.8265H20.794H20.944V33.5758V32.8379V32.6879H20.794H13.8279V30.6609H20.1319H20.2819V30.5109V26.9163V26.7663H20.1319H12.7697ZM19.2616 11.9394H19.1116V12.0894V26.0082V26.1582H19.2616H20.1319H20.2819V26.0082V22.1853H22.7048H22.8548V22.0353V21.2785V21.1285H22.7048H20.2819V12.0894V11.9394H20.1319H19.2616ZM23.9127 24.2151L23.7597 24.2831L23.844 24.4277L24.2521 25.1277L24.3215 25.2469L24.4461 25.1877C25.3156 24.7741 26.0884 24.1676 26.7646 23.3709C27.3512 22.68 27.7891 21.9137 28.0778 21.0727C28.3609 21.8147 28.7726 22.4933 29.3121 23.1079L29.3129 23.1089C29.9675 23.8419 30.7077 24.3974 31.5335 24.7726L31.6568 24.8286L31.7251 24.7115L32.1331 24.0115L32.2183 23.8654L32.063 23.7983C31.4386 23.5284 30.8548 23.1414 30.3117 22.6355C29.7809 22.1184 29.3566 21.528 29.0381 20.8636C28.7207 20.189 28.5629 19.4983 28.5629 18.7901V17.7293H31.7424H31.8924V17.5793V16.8225V16.6725H31.7424H24.2674H24.1174V16.8225V17.5793V17.7293H24.2674H27.5285V18.809C27.5285 19.5938 27.3594 20.3478 27.0203 21.0724L27.02 21.0732C26.6902 21.7885 26.2489 22.4233 25.6959 22.9781C25.1417 23.5216 24.5473 23.9332 23.9127 24.2151ZM10.7927 21.6745H14.7603V24.3258H10.7927V21.6745Z" fill="white" stroke="white" stroke-width="0.3"/>
<path d="M32.2584 8.63297C34.5692 7.64649 37.7584 6.51136 39.9881 5.29515C37.1503 4.56542 34.7179 3.87623 31.8125 3.22759C33.3936 5.47082 35.3936 8.10595 37.6909 9.63297C37.5287 6.82217 37.0287 4.53839 36.6909 1.56543C36.6909 1.56543 33.6503 6.38974 32.2584 8.63297Z" stroke="#7F71B3" stroke-width="0.9" stroke-linecap="round" stroke-linejoin="round"/>
<path d="M25.1238 10.6733C26.7049 8.7138 28.9887 6.21381 30.3806 4.0922C27.5292 4.78139 25.0563 5.30841 22.1914 6.09219C24.6373 7.33543 27.6373 8.72732 30.3806 8.98407C28.9211 6.57868 27.4076 4.7949 25.7049 2.33545C25.7049 2.33545 25.286 8.02462 25.1103 10.6597L25.1238 10.6733Z" stroke="#7F71B3" stroke-width="0.9" stroke-linecap="round" stroke-linejoin="round"/>
<path d="M14.3809 9.63903C16.3166 8.029 19.0477 6.02729 20.8298 4.22104C17.8986 4.33568 15.3703 4.36578 12.4072 4.5705C14.5607 6.27073 17.2282 8.22573 19.8672 9.01727C18.9096 6.37172 17.7767 4.325 16.5913 1.57858C16.5913 1.57858 15.0611 7.07408 14.3703 9.62312L14.3809 9.63903Z" stroke="#7F71B3" stroke-width="0.9" stroke-linecap="round" stroke-linejoin="round"/>
<path d="M42.9476 13.9812C42.4862 13.9812 42.1121 13.6071 42.1121 13.1456C42.1121 12.6842 42.4862 12.3101 42.9476 12.3101C43.4091 12.3101 43.7832 12.6842 43.7832 13.1456C43.7832 13.6071 43.4091 13.9812 42.9476 13.9812Z" fill="#7F71B3"/>
<path d="M44.559 16.699C44.0975 16.699 43.7234 16.3249 43.7234 15.8634C43.7234 15.4019 44.0975 15.0278 44.559 15.0278C45.0204 15.0278 45.3945 15.4019 45.3945 15.8634C45.3945 16.3249 45.0204 16.699 44.559 16.699Z" fill="#7F71B3"/>
<path d="M45.3949 19.8762C44.9334 19.8762 44.5593 19.5021 44.5593 19.0406C44.5593 18.5792 44.9334 18.2051 45.3949 18.2051C45.8564 18.2051 46.2305 18.5792 46.2305 19.0406C46.2305 19.5021 45.8564 19.8762 45.3949 19.8762Z" fill="#7F71B3"/>
</svg>
