<svg width="59" height="26" viewBox="0 0 59 26" fill="none" xmlns="http://www.w3.org/2000/svg">
<mask id="path-1-inside-1_65_10850" fill="white">
<path d="M0 8C0 3.58172 3.58172 0 8 0H51C55.4183 0 59 3.58172 59 8V26H0V8Z"/>
</mask>
<path d="M-2 8C-2 2.47715 2.47715 -2 8 -2H51C56.5228 -2 61 2.47715 61 8H57C57 4.68629 54.3137 2 51 2H8C4.68629 2 2 4.68629 2 8H-2ZM59 26H0H59ZM-2 26V8C-2 2.47715 2.47715 -2 8 -2V2C4.68629 2 2 4.68629 2 8V26H-2ZM51 -2C56.5228 -2 61 2.47715 61 8V26H57V8C57 4.68629 54.3137 2 51 2V-2Z" fill="#E54D90" mask="url(#path-1-inside-1_65_10850)"/>
<path d="M19.4195 21.46V18.2H14.3195V8.82H16.9595V11.56H24.5195V8.82H27.1595V18.2H22.0795V21.46H28.9195V23.62H12.6195V21.46H19.4195ZM24.5195 16.1V13.64H16.9595V16.1H24.5195ZM45.1 7.7V25.7H42.42V7.7H45.1ZM30.12 20.58C32.3733 19.5 34.0333 18.2467 35.1 16.82C36.18 15.3933 36.82 13.6733 37.02 11.66H31.08V9.54H39.76C39.76 11.5 39.5067 13.2733 39 14.86C38.5067 16.4333 37.6533 17.88 36.44 19.2C35.2267 20.52 33.58 21.68 31.5 22.68L30.12 20.58Z" fill="#E54D90"/>
</svg>
