<svg width="65" height="31" viewBox="0 0 65 31" fill="none" xmlns="http://www.w3.org/2000/svg">
<path d="M10.31 18.808V21.706H12.284V18.808H13.712V27.11H8.868V18.808H10.31ZM12.284 25.878V22.91H10.31V25.878H12.284ZM14.916 17.898H16.358V22.49H17.66V17.66H19.116V30.12H17.66V23.736H16.358V29.532H14.916V17.898ZM31.0863 17.674V25.486H29.5463V24.926H27.1943V23.862H29.5463V17.674H31.0863ZM20.6423 22.448C22.2477 22.4387 23.685 22.4107 24.9543 22.364C26.233 22.308 27.451 22.196 28.6083 22.028L28.7203 23.092C27.8337 23.2507 26.723 23.3813 25.3883 23.484V25.444H23.8623V23.568C23.181 23.596 22.173 23.6193 20.8383 23.638L20.6423 22.448ZM21.2443 28.846C22.019 28.622 22.6117 28.2627 23.0223 27.768C23.4423 27.264 23.6523 26.7133 23.6523 26.116V25.934H25.1363V26.116C25.1363 26.6013 25.2623 27.0727 25.5143 27.53C25.7757 27.9873 26.1583 28.3653 26.6623 28.664C27.1663 28.3653 27.549 27.9873 27.8103 27.53C28.081 27.0633 28.2163 26.592 28.2163 26.116V25.934H29.7283V26.116C29.7283 26.732 29.929 27.292 30.3303 27.796C30.741 28.2907 31.3383 28.6407 32.1223 28.846L31.4223 29.966C30.825 29.7887 30.3163 29.5227 29.8963 29.168C29.4857 28.8227 29.1683 28.412 28.9443 27.936C28.739 28.4213 28.445 28.8507 28.0623 29.224C27.6797 29.5973 27.213 29.8867 26.6623 30.092C26.1117 29.896 25.645 29.6113 25.2623 29.238C24.889 28.874 24.5997 28.4493 24.3943 27.964C24.161 28.4307 23.839 28.8367 23.4283 29.182C23.0177 29.5367 22.5277 29.798 21.9583 29.966L21.2443 28.846ZM21.5803 19.872C21.5803 19.2653 21.8603 18.7893 22.4203 18.444C22.9803 18.0893 23.7317 17.912 24.6743 17.912C25.617 17.912 26.3683 18.0893 26.9283 18.444C27.4883 18.7893 27.7683 19.2653 27.7683 19.872C27.7683 20.4787 27.4883 20.9547 26.9283 21.3C26.3683 21.6453 25.617 21.818 24.6743 21.818C23.7317 21.818 22.9803 21.6453 22.4203 21.3C21.8603 20.9547 21.5803 20.4787 21.5803 19.872ZM23.0223 19.872C23.0223 20.152 23.167 20.3713 23.4563 20.53C23.755 20.6793 24.161 20.754 24.6743 20.754C25.1877 20.754 25.589 20.6793 25.8783 20.53C26.177 20.3713 26.3263 20.152 26.3263 19.872C26.3263 19.592 26.177 19.3773 25.8783 19.228C25.589 19.0693 25.1877 18.99 24.6743 18.99C24.161 18.99 23.755 19.0693 23.4563 19.228C23.167 19.3773 23.0223 19.592 23.0223 19.872ZM36.3087 18.556C36.8687 18.556 37.3727 18.7053 37.8207 19.004C38.2687 19.3027 38.6327 19.732 38.9127 20.292C39.202 20.8427 39.384 21.496 39.4587 22.252H41.7827V17.646H43.3087V30.148H41.7827V23.484H39.4727C39.4167 24.2773 39.2487 24.968 38.9687 25.556C38.6887 26.144 38.3153 26.5967 37.8487 26.914C37.3913 27.2313 36.878 27.39 36.3087 27.39C35.702 27.39 35.156 27.2127 34.6707 26.858C34.1947 26.494 33.8213 25.976 33.5507 25.304C33.28 24.632 33.1447 23.8527 33.1447 22.966C33.1447 22.0793 33.28 21.3047 33.5507 20.642C33.8213 19.97 34.1947 19.4567 34.6707 19.102C35.156 18.738 35.702 18.556 36.3087 18.556ZM34.6007 22.966C34.6007 23.9087 34.7547 24.6507 35.0627 25.192C35.38 25.7333 35.7953 26.004 36.3087 26.004C36.8313 26.004 37.2467 25.738 37.5547 25.206C37.872 24.6647 38.0307 23.918 38.0307 22.966C38.0307 22.0233 37.872 21.286 37.5547 20.754C37.2467 20.222 36.8313 19.956 36.3087 19.956C35.7953 19.956 35.38 20.2267 35.0627 20.768C34.7547 21.3 34.6007 22.0327 34.6007 22.966ZM47.775 27.362V24.184C47.271 23.8947 46.8837 23.5307 46.613 23.092C46.3423 22.6533 46.207 22.1633 46.207 21.622C46.207 20.9687 46.403 20.3947 46.795 19.9C47.1963 19.396 47.7423 19.0087 48.433 18.738C49.133 18.4673 49.9263 18.332 50.813 18.332C51.6997 18.332 52.493 18.4673 53.193 18.738C53.893 19.0087 54.439 19.396 54.831 19.9C55.223 20.3947 55.419 20.9687 55.419 21.622C55.419 22.1633 55.2837 22.6533 55.013 23.092C54.7423 23.5307 54.3597 23.8947 53.865 24.184V27.362H56.469V28.608H45.185V27.362H47.775ZM47.719 21.622C47.719 22.266 47.999 22.7747 48.559 23.148C49.1283 23.5213 49.8797 23.708 50.813 23.708C51.7463 23.708 52.493 23.5213 53.053 23.148C53.6223 22.7747 53.907 22.266 53.907 21.622C53.907 20.9873 53.6223 20.4833 53.053 20.11C52.4837 19.7273 51.737 19.536 50.813 19.536C49.889 19.536 49.1423 19.7273 48.573 20.11C48.0037 20.4833 47.719 20.9873 47.719 21.622ZM52.325 27.362V24.758C51.8397 24.8607 51.3357 24.912 50.813 24.912C50.2997 24.912 49.8003 24.8607 49.315 24.758V27.362H52.325Z" fill="#49C0B6"/>
<path d="M16.3463 11.6806C16.0024 11.6806 15.6787 11.4999 15.4764 11.1988C15.3955 11.0783 13.5141 8.18732 9.71077 8.72938C9.16455 8.80969 8.63856 8.42824 8.55764 7.88617C8.47672 7.34411 8.86109 6.82212 9.40731 6.74181C12.5835 6.25998 14.7481 7.6051 15.9822 8.72938C18.9763 2.2246 26.421 1.06017 26.7649 0.999939C27.3111 0.919634 27.8371 1.30109 27.918 1.84315C27.999 2.38522 27.6146 2.90721 27.0684 2.98751C26.7447 3.02766 19.3404 4.23225 17.3376 10.9579C17.2162 11.3393 16.8925 11.6204 16.5082 11.6606C16.4677 11.6606 16.4272 11.6606 16.3665 11.6606L16.3463 11.6806Z" fill="#49C0B6"/>
<path d="M61.804 17.061C61.5005 16.5992 61.6219 15.9768 62.0872 15.6757C62.5525 15.3746 63.1797 15.495 63.5033 15.9768C63.8068 16.4386 63.6652 17.061 63.1999 17.3621C63.0178 17.4625 62.8357 17.5227 62.6537 17.5227C62.3098 17.5227 61.9861 17.3621 61.804 17.061ZM59.1134 14.6719C58.6278 14.431 58.4255 13.8287 58.6683 13.3268C58.9313 12.8248 59.5382 12.6241 60.044 12.8851C60.5295 13.126 60.7318 13.7484 60.4688 14.2302C60.307 14.5916 59.9428 14.7923 59.5787 14.7923C59.4168 14.7923 59.2752 14.7522 59.1134 14.6719Z" fill="#49C0B6"/>
<path d="M50.8188 14.7524C50.5153 14.2907 50.6367 13.6683 51.1222 13.3671C51.5875 13.066 52.2146 13.2065 52.5181 13.6683C52.8216 14.1301 52.6799 14.7524 52.2147 15.0536C52.0326 15.174 51.8505 15.2142 51.6684 15.2142C51.3245 15.2142 51.0008 15.0536 50.8188 14.7524Z" fill="#49C0B6"/>
<path d="M51.6078 15.1541C51.0615 15.1139 50.6367 14.6321 50.6569 14.09V14.0097C50.6974 13.4676 51.1627 13.046 51.7291 13.0661C52.2754 13.1063 52.7204 13.568 52.68 14.1302V14.1904C52.6395 14.7325 52.1944 15.1541 51.6685 15.1541H51.6078Z" fill="#49C0B6"/>
<path d="M55.4105 13.949C54.8643 13.9088 54.4394 13.427 54.4597 12.8849V12.8046C54.5001 12.2626 54.9654 11.841 55.5319 11.861C56.0781 11.9012 56.5232 12.363 56.4827 12.9251V12.9853C56.4422 13.5274 55.9972 13.949 55.4712 13.949H55.4105Z" fill="#49C0B6"/>
<path d="M63.9076 21.5789C63.3614 21.5387 62.9365 21.0569 62.9567 20.5148V20.4345C62.9972 19.8925 63.4625 19.4708 64.029 19.4909C64.5752 19.5311 65.0202 19.9928 64.9798 20.555V20.6152C64.9393 21.1573 64.4943 21.5789 63.9683 21.5789H63.9076Z" fill="#49C0B6"/>
<path d="M49.0788 10.8373C48.6539 10.4759 48.6337 9.83346 48.9978 9.41185C49.3822 9.01032 50.0094 8.97017 50.4342 9.35162C50.8388 9.713 50.8793 10.3554 50.5151 10.757C50.3128 10.9778 50.0296 11.0983 49.7464 11.0983C49.5036 11.0983 49.2608 11.018 49.0788 10.8373Z" fill="#49C0B6"/>
<path d="M45.1334 9.87341C44.7086 9.51204 44.6884 8.86959 45.0525 8.44798C45.4369 8.04646 46.064 8.0063 46.4889 8.38776C46.8935 8.74913 46.9339 9.39158 46.5698 9.79311C46.3675 10.014 46.0843 10.1344 45.801 10.1344C45.5583 10.1344 45.3155 10.0541 45.1334 9.87341Z" fill="#49C0B6"/>
<path d="M40.885 11.2594C40.4804 10.8779 40.44 10.2355 40.8244 9.83397C41.1885 9.41236 41.8359 9.39229 42.2405 9.77374C42.6653 10.1351 42.6855 10.7776 42.3214 11.1791C42.1191 11.3999 41.8561 11.5204 41.5729 11.5204C41.3301 11.5204 41.0873 11.42 40.885 11.2594Z" fill="#49C0B6"/>
<path d="M38.3158 8.28823C37.8909 7.92686 37.81 7.30448 38.1539 6.8628C38.4978 6.4412 39.1452 6.36089 39.5903 6.72227C40.0151 7.06357 40.096 7.68594 39.7521 8.12762C39.5498 8.36854 39.2464 8.489 38.9429 8.489C38.7406 8.489 38.5181 8.42877 38.3158 8.28823ZM26.9059 7.92686C26.5822 7.48517 26.6631 6.8628 27.1082 6.5215C27.5532 6.1802 28.1804 6.28058 28.5243 6.72227C28.8682 7.16395 28.7671 7.78632 28.322 8.12762C28.1399 8.24808 27.9376 8.32838 27.7151 8.32838C27.4116 8.32838 27.1082 8.18785 26.9059 7.92686ZM35.1194 6.72227C34.5934 6.60181 34.2495 6.05974 34.3709 5.51768C34.5125 4.97561 35.0587 4.63431 35.6049 4.77485C36.1511 4.89531 36.4748 5.43737 36.3534 5.97944C36.232 6.4412 35.8274 6.74234 35.3621 6.74234C35.3621 6.74234 35.2003 6.74234 35.1194 6.72227ZM30.3855 5.89913C30.2641 5.35707 30.608 4.815 31.1542 4.71462C31.7004 4.59416 32.2467 4.95554 32.3681 5.4976C32.4692 6.03967 32.1253 6.56165 31.5791 6.68211C31.5791 6.68211 31.4375 6.68211 31.3565 6.68211C30.8912 6.68211 30.4866 6.36089 30.3855 5.87905V5.89913Z" fill="#49C0B6"/>
<path d="M3.86446 14.5116C3.561 14.0498 3.70261 13.4275 4.16791 13.1263C4.63321 12.8252 5.26035 12.9456 5.5638 13.4074C5.86726 13.8892 5.74588 14.5116 5.28058 14.8127C5.09851 14.9131 4.91643 14.9734 4.71413 14.9734C4.39044 14.9734 4.06676 14.8127 3.86446 14.5116ZM7.6273 12.7449C7.6273 12.2028 8.0319 11.721 8.57812 11.7009C9.14457 11.6607 9.6301 12.0823 9.65033 12.6445C9.65033 13.2066 9.24572 13.6684 8.6995 13.7085H8.63881C8.11282 13.7085 7.66776 13.2869 7.6273 12.7449Z" fill="#49C0B6"/>
<path d="M0.121698 21.0367C0.0812373 20.4946 0.526304 20.0128 1.07252 19.9727C1.63897 19.9727 2.10427 20.3742 2.14473 20.9363C2.14473 21.4784 1.74012 21.9602 1.1939 21.9803C1.1939 21.9803 1.15344 21.9803 1.13321 21.9803C0.607226 21.9803 0.141928 21.5587 0.121698 21.0166V21.0367Z" fill="#49C0B6"/>
<path d="M0.526454 21.7792L0.465763 21.739C0.000465866 21.4379 -0.141146 20.8356 0.162308 20.3537C0.465763 19.892 1.0929 19.7715 1.5582 20.0526L1.61889 20.0927C2.08419 20.3939 2.2258 21.0163 1.92235 21.4981C1.74027 21.7792 1.39636 21.9398 1.07267 21.9398C0.8906 21.9398 0.688297 21.8996 0.526454 21.7792Z" fill="#49C0B6"/>
<path d="M1.15332 21.9797C0.991475 21.9797 0.829633 21.9396 0.66779 21.8593C0.182263 21.5983 -0.0807313 20.9358 0.202493 20.4539C0.465487 19.9721 1.01171 19.7513 1.49723 20.0123L1.63885 20.0926C2.12437 20.3536 2.30645 20.9759 2.04345 21.4578C1.86138 21.7991 1.51746 21.9797 1.15332 21.9797Z" fill="#49C0B6"/>
<path d="M2.30664 18.2454C2.1448 18.2454 1.98295 18.2052 1.82111 18.1249C1.33558 17.8639 1.07259 17.2014 1.35581 16.7196C1.61881 16.2377 2.16503 16.0169 2.65055 16.2779L2.79217 16.3582C3.27769 16.6192 3.45977 17.2415 3.19677 17.7234C3.0147 18.0647 2.67078 18.2454 2.30664 18.2454Z" fill="#49C0B6"/>
</svg>
