<svg width="85" height="78" viewBox="0 0 85 78" fill="none" xmlns="http://www.w3.org/2000/svg">
<path d="M38.99 10.35L34.79 4.02C33.9685 2.78329 32.8537 1.76903 31.5451 1.06762C30.2365 0.366216 28.7747 -0.000553724 27.29 6.27468e-07H6.5C4.9087 6.27468e-07 3.38258 0.632141 2.25736 1.75736C1.13214 2.88258 0.5 4.4087 0.5 6V12C0.5 12.7956 0.81607 13.5587 1.37868 14.1213C1.94129 14.6839 2.70435 15 3.5 15H36.5C37.0427 14.9986 37.5749 14.8499 38.0398 14.5699C38.5047 14.2899 38.8849 13.889 39.14 13.41C39.3923 12.9335 39.5115 12.3979 39.4851 11.8594C39.4587 11.3209 39.2877 10.7995 38.99 10.35Z" fill="#EB1807"/>
<path d="M60.5 9H0.5V51C0.5 52.5913 1.13214 54.1174 2.25736 55.2426C3.38258 56.3679 4.9087 57 6.5 57H63.5C64.2957 57 65.0587 56.6839 65.6213 56.1213C66.1839 55.5587 66.5 54.7957 66.5 54V15C66.5 13.4087 65.8679 11.8826 64.7426 10.7574C63.6174 9.63214 62.0913 9 60.5 9Z" fill="#FDE8E6"/>
<path d="M63.5 78C75.098 78 84.5 68.598 84.5 57C84.5 45.402 75.098 36 63.5 36C51.902 36 42.5 45.402 42.5 57C42.5 68.598 51.902 78 63.5 78Z" fill="#EB1807"/>
<path d="M63.5 60C62.7044 60 61.9413 59.6839 61.3787 59.1213C60.8161 58.5587 60.5 57.7956 60.5 57V48C60.5 47.2044 60.8161 46.4413 61.3787 45.8787C61.9413 45.3161 62.7044 45 63.5 45C64.2956 45 65.0587 45.3161 65.6213 45.8787C66.1839 46.4413 66.5 47.2044 66.5 48V57C66.5 57.7956 66.1839 58.5587 65.6213 59.1213C65.0587 59.6839 64.2956 60 63.5 60Z" fill="#FFF4F3"/>
<path d="M63.5 69C62.7044 69 61.9413 68.6839 61.3787 68.1213C60.8161 67.5587 60.5 66.7956 60.5 66C60.5 65.2044 60.8161 64.4413 61.3787 63.8787C61.9413 63.3161 62.7044 63 63.5 63C64.2956 63 65.0587 63.3161 65.6213 63.8787C66.1839 64.4413 66.5 65.2044 66.5 66C66.5 66.7956 66.1839 67.5587 65.6213 68.1213C65.0587 68.6839 64.2956 69 63.5 69Z" fill="#FFF4F3"/>
</svg>
