<svg width="65" height="16" viewBox="0 0 65 16" fill="none" xmlns="http://www.w3.org/2000/svg">
<g clip-path="url(#clip0_648_684)">
<path d="M3.47176 15.7596L14.5709 15.7837C17.4778 15.6635 17.3697 13.5494 17.3697 13.5494L13.0333 13.4533L13.1294 1.16504L0.348633 1.04492V13.7416C0.444729 15.6515 3.47176 15.7596 3.47176 15.7596Z" fill="white"/>
<path d="M2.4985 16C1.11712 16 0 14.8829 0 13.5015C0 13.3093 0.156156 13.1411 0.36036 13.1411C0.564565 13.1411 0.720721 13.2973 0.720721 13.5015C0.720721 14.4865 1.52553 15.2913 2.51051 15.2913C3.4955 15.2913 4.3003 14.4865 4.3003 13.5015C4.3003 13.3093 4.45646 13.1411 4.66066 13.1411C4.86487 13.1411 5.02102 13.2973 5.02102 13.5015C5.02102 14.8829 3.9039 16 2.52252 16" fill="#231F20"/>
<path d="M15.3749 15.9998H2.49806C2.30586 15.9998 2.1377 15.8436 2.1377 15.6394C2.1377 15.4352 2.29385 15.2791 2.49806 15.2791H15.3749C16.2398 15.2791 16.9605 14.6664 17.1287 13.8496H4.64821C4.444 13.8496 4.28785 13.6935 4.28785 13.4893C4.28785 13.2851 4.444 13.1289 4.64821 13.1289H17.5131C17.7053 13.1289 17.8734 13.2851 17.8734 13.4893C17.8734 14.8706 16.7563 15.9878 15.3749 15.9878" fill="#231F20"/>
<path d="M0.36036 13.8617C0.168168 13.8617 0 13.7056 0 13.5014V0.984872C0 0.79268 0.156156 0.624512 0.36036 0.624512H13.2252C13.4174 0.624512 13.5856 0.780668 13.5856 0.984872V13.2852C13.5856 13.4774 13.4294 13.6455 13.2252 13.6455C13.021 13.6455 12.8649 13.4894 12.8649 13.2852V1.34523H0.720721V13.5014C0.720721 13.6936 0.564565 13.8617 0.36036 13.8617Z" fill="#231F20"/>
<path d="M11.111 7.31518L10.2461 9.78966L12.7206 9.0329L19.6035 2.25812C19.6035 2.25812 20.0359 1.60948 19.3872 0.756622C18.7386 -0.108242 17.8857 0.432298 17.2371 1.08095C16.5884 1.7296 11.111 7.31518 11.111 7.31518Z" fill="#FFDD00"/>
<path d="M11.387 7.61562L10.8464 9.22523L12.4561 8.68469L19.1107 2.04204C19.411 1.74174 19.411 1.26126 19.1107 0.972973C18.8224 0.684685 18.3299 0.684685 18.0416 0.972973L11.399 7.61562H11.387ZM10.2579 10.1982C10.1618 10.1982 10.0657 10.1622 9.99359 10.0901C9.8975 9.99399 9.86146 9.83784 9.8975 9.70571L10.7023 7.29129C10.7023 7.29129 10.7503 7.18318 10.7984 7.14715L17.5011 0.432432C18.0777 -0.144144 19.0747 -0.144144 19.6513 0.432432C20.2398 1.02102 20.2398 1.98198 19.6513 2.58258L12.9485 9.28529C12.9485 9.28529 12.8525 9.35736 12.8044 9.38138L10.39 10.1862C10.39 10.1862 10.3059 10.2102 10.2699 10.2102" fill="#231F20"/>
<path d="M11.099 5.74171H2.94288C2.77471 5.74171 2.64258 5.60958 2.64258 5.44141C2.64258 5.27325 2.77471 5.14111 2.94288 5.14111H11.111C11.2792 5.14111 11.4113 5.27325 11.4113 5.44141C11.4113 5.60958 11.2792 5.74171 11.111 5.74171" fill="#231F20"/>
<path d="M9.29723 7.54347H2.94288C2.77471 7.54347 2.64258 7.41134 2.64258 7.24317C2.64258 7.075 2.77471 6.94287 2.94288 6.94287H9.30925C9.47741 6.94287 9.60955 7.075 9.60955 7.24317C9.60955 7.41134 9.47741 7.54347 9.30925 7.54347" fill="#231F20"/>
<path d="M7.49572 9.34523H2.93116C2.76299 9.34523 2.63086 9.2131 2.63086 9.04493C2.63086 8.87676 2.76299 8.74463 2.93116 8.74463H7.49572C7.66389 8.74463 7.79602 8.87676 7.79602 9.04493C7.79602 9.2131 7.66389 9.34523 7.49572 9.34523Z" fill="#231F20"/>
</g>
<path d="M32.8434 5.76V1.072H34.3954V15.264H32.8434V7.024H29.7714V5.76H32.8434ZM22.5874 11.056C23.3021 10.704 23.9314 10.192 24.4754 9.52C25.0194 8.848 25.4408 8.08533 25.7394 7.232C26.0381 6.368 26.1874 5.49333 26.1874 4.608V2.256H27.7714V4.608C27.7714 5.48267 27.9154 6.336 28.2034 7.168C28.4914 7.98933 28.9021 8.72 29.4354 9.36C29.9688 10 30.5928 10.48 31.3074 10.8L30.3794 12.064C29.6008 11.68 28.9181 11.12 28.3314 10.384C27.7554 9.63733 27.3074 8.77867 26.9874 7.808C26.6674 8.832 26.2141 9.73867 25.6274 10.528C25.0408 11.3067 24.3528 11.8987 23.5634 12.304L22.5874 11.056ZM43.8678 1.152V1.6C43.8678 2.12267 44.0811 2.61867 44.5078 3.088C44.9451 3.54667 45.5371 3.936 46.2838 4.256C47.0305 4.56533 47.8625 4.768 48.7798 4.864L48.2518 6.064C47.0785 5.91467 46.0331 5.60533 45.1158 5.136C44.1985 4.66667 43.5158 4.08533 43.0678 3.392C42.6198 4.08533 41.9318 4.66667 41.0038 5.136C40.0758 5.60533 39.0251 5.91467 37.8518 6.064L37.3398 4.864C38.2571 4.768 39.0891 4.56533 39.8358 4.256C40.5931 3.936 41.1851 3.54667 41.6118 3.088C42.0385 2.61867 42.2518 2.12267 42.2518 1.6V1.152H43.8678ZM36.6678 6.848H49.4518V8.112H43.8358V9.328H47.8518V12.72H39.7558V13.92H48.2518V15.12H38.2198V11.6H46.2998V10.512H38.1718V9.328H42.2678V8.112H36.6678V6.848ZM60.7802 4.384V1.088H62.3482V10.192H60.7802V8.432H58.5882V7.168H60.7802V5.632H58.6202V4.384H60.7802ZM50.6682 2.544H53.8842V0.959999H55.4682V2.544H58.5402V3.792H50.6682V2.544ZM51.4202 7.056C51.4202 6.544 51.5535 6.09067 51.8202 5.696C52.0975 5.29067 52.4815 4.98133 52.9722 4.768C53.4628 4.544 54.0228 4.432 54.6522 4.432C55.2815 4.432 55.8415 4.544 56.3322 4.768C56.8335 4.98133 57.2175 5.29067 57.4842 5.696C57.7615 6.09067 57.9002 6.544 57.9002 7.056C57.9002 7.57867 57.7615 8.04267 57.4842 8.448C57.2175 8.84267 56.8335 9.152 56.3322 9.376C55.8415 9.58933 55.2815 9.696 54.6522 9.696C54.0228 9.696 53.4628 9.58933 52.9722 9.376C52.4815 9.152 52.0975 8.84267 51.8202 8.448C51.5535 8.04267 51.4202 7.57867 51.4202 7.056ZM52.8922 12.784C52.8922 12.016 53.3135 11.4187 54.1562 10.992C55.0095 10.5653 56.1775 10.352 57.6602 10.352C59.1428 10.352 60.3055 10.5653 61.1482 10.992C62.0015 11.4187 62.4282 12.016 62.4282 12.784C62.4282 13.552 62.0015 14.1493 61.1482 14.576C60.3055 15.0133 59.1428 15.232 57.6602 15.232C56.1775 15.232 55.0095 15.0133 54.1562 14.576C53.3135 14.1493 52.8922 13.552 52.8922 12.784ZM52.8922 7.056C52.8922 7.504 53.0522 7.86133 53.3722 8.128C53.6922 8.384 54.1188 8.512 54.6522 8.512C55.1962 8.512 55.6282 8.384 55.9482 8.128C56.2788 7.86133 56.4442 7.504 56.4442 7.056C56.4442 6.608 56.2788 6.26133 55.9482 6.016C55.6282 5.76 55.1962 5.632 54.6522 5.632C54.1188 5.632 53.6922 5.76 53.3722 6.016C53.0522 6.26133 52.8922 6.608 52.8922 7.056ZM54.5402 12.784C54.5402 13.1787 54.8122 13.488 55.3562 13.712C55.9002 13.9253 56.6682 14.032 57.6602 14.032C58.6415 14.032 59.4042 13.9253 59.9482 13.712C60.5028 13.488 60.7802 13.1787 60.7802 12.784C60.7802 12.3787 60.5082 12.0747 59.9642 11.872C59.4202 11.6587 58.6522 11.552 57.6602 11.552C56.6682 11.552 55.9002 11.6587 55.3562 11.872C54.8122 12.0747 54.5402 12.3787 54.5402 12.784Z" fill="#9E0040"/>
<defs>
<clipPath id="clip0_648_684">
<rect width="20.0841" height="16" fill="white"/>
</clipPath>
</defs>
</svg>
