<svg width="70" height="30" viewBox="0 0 70 30" fill="none" xmlns="http://www.w3.org/2000/svg">
<path d="M16.6 9.44V7.64H19.26V9.44H22.78V11.54H19.26C19.3 12.4867 19.66 13.3467 20.34 14.12C21.0333 14.8933 22.0467 15.4533 23.38 15.8L22.18 17.86C21.1933 17.5933 20.3467 17.2 19.64 16.68C18.9467 16.16 18.3933 15.54 17.98 14.82C17.5667 15.62 17 16.3067 16.28 16.88C15.56 17.4533 14.6933 17.88 13.68 18.16L12.44 16.08C13.7867 15.7067 14.8067 15.1133 15.5 14.3C16.1933 13.4733 16.56 12.5533 16.6 11.54H13.1V9.44H16.6ZM15.04 18.98H26.76V25.52H15.04V18.98ZM24.18 23.42V21.06H17.66V23.42H24.18ZM24.1 7.72H26.76V11.88H29.14V14.06H26.76V18.24H24.1V7.72ZM44.8405 9.2V10.92C44.8405 12.4667 44.8005 13.8667 44.7205 15.12C44.6405 16.3733 44.4471 17.8533 44.1405 19.56L41.4605 19.28C41.7538 17.7867 41.9405 16.4333 42.0205 15.22C42.1138 13.9933 42.1605 12.7 42.1605 11.34H31.7405V9.2H44.8405ZM30.0805 21.4H35.8005V15.24H38.4605V21.4H46.3605V23.56H30.0805V21.4Z" fill="#4E833F"/>
<path d="M65 21C62.7867 21 61 19.2133 61 17C61 14.7867 62.7867 13 65 13C67.2133 13 69 14.7867 69 17C69 19.2133 67.2133 21 65 21Z" fill="#4E833F"/>
<path d="M2 28V5.05928C2 3.35315 3.36399 2 5.0838 2H47.5187C49.535 2 52.4409 3.23548 53.8345 4.67687L67 18.326" stroke="#4E833F" stroke-width="2" stroke-linecap="round"/>
</svg>
