<svg width="47" height="35" viewBox="0 0 47 35" fill="none" xmlns="http://www.w3.org/2000/svg">
<path fill-rule="evenodd" clip-rule="evenodd" d="M43.3322 18.0775C45.4479 23.8121 42.5143 30.1761 36.7797 32.2918C29.1511 35.1063 21.777 35.0428 16.6248 34.4308C13.9975 34.1187 11.7933 33.6457 10.2063 33.2381C9.40872 33.0333 8.75537 32.842 8.26943 32.6904C8.02612 32.6145 7.82376 32.5483 7.66519 32.4949C7.58588 32.4682 7.51741 32.4447 7.46016 32.4247L7.38268 32.3975L7.3503 32.386L7.32882 32.3783C7.32549 32.3771 7.3222 32.3759 11.0705 21.9625L7.3222 32.3759C1.571 30.3058 -1.41307 23.9653 0.657085 18.2141C2.7175 12.49 9.00813 9.50701 14.7377 11.5201C14.7558 11.5262 14.7968 11.5396 14.8595 11.5591C15.0176 11.6084 15.3086 11.6951 15.7122 11.7988C16.5276 12.0082 17.7533 12.2742 19.2358 12.4503C22.3032 12.8146 25.8682 12.724 29.1179 11.5251C34.8525 9.40931 41.2164 12.343 43.3322 18.0775Z" fill="#3099BF"/>
<path d="M32.2584 8.2941C34.5692 7.30762 37.7584 6.17249 39.9881 4.95628C37.1503 4.22655 34.7179 3.53736 31.8125 2.88872C33.3936 5.13195 35.3936 7.76708 37.6909 9.2941C37.5287 6.4833 37.0287 4.19952 36.6909 1.22656C36.6909 1.22656 33.6503 6.05087 32.2584 8.2941Z" stroke="#3099BF" stroke-width="0.9" stroke-linecap="round" stroke-linejoin="round"/>
<path d="M25.1238 10.3349C26.7049 8.37542 28.9887 5.87543 30.3806 3.75382C27.5292 4.44301 25.0563 4.97003 22.1914 5.75381C24.6373 6.99705 27.6373 8.38894 30.3806 8.64569C28.9211 6.2403 27.4076 4.45652 25.7049 1.99707C25.7049 1.99707 25.286 7.68624 25.1103 10.3214L25.1238 10.3349Z" stroke="#3099BF" stroke-width="0.9" stroke-linecap="round" stroke-linejoin="round"/>
<path d="M42.9476 13.6423C42.4862 13.6423 42.1121 13.2682 42.1121 12.8068C42.1121 12.3453 42.4862 11.9712 42.9476 11.9712C43.4091 11.9712 43.7832 12.3453 43.7832 12.8068C43.7832 13.2682 43.4091 13.6423 42.9476 13.6423Z" fill="#3099BF"/>
<path d="M44.559 16.3601C44.0975 16.3601 43.7234 15.986 43.7234 15.5245C43.7234 15.0631 44.0975 14.689 44.559 14.689C45.0204 14.689 45.3945 15.0631 45.3945 15.5245C45.3945 15.986 45.0204 16.3601 44.559 16.3601Z" fill="#3099BF"/>
<path d="M45.3949 19.5373C44.9334 19.5373 44.5593 19.1632 44.5593 18.7018C44.5593 18.2403 44.9334 17.8662 45.3949 17.8662C45.8564 17.8662 46.2305 18.2403 46.2305 18.7018C46.2305 19.1632 45.8564 19.5373 45.3949 19.5373Z" fill="#3099BF"/>
<path d="M32.922 14.0322V13.8822H32.772H23.9905H23.8405V14.0322V14.789V14.939H23.9905H27.8446V15.1106C27.8446 15.836 27.6335 16.4997 27.209 17.1056L27.209 17.1057C26.7883 17.7066 26.2603 18.2034 25.6238 18.5965C24.9821 18.9927 24.3534 19.2565 23.7375 19.3911L23.5698 19.4277L23.6286 19.589L23.891 20.3079L23.937 20.4341L24.0675 20.4022C25.0208 20.1695 25.9194 19.7109 26.763 19.0303C27.504 18.4389 28.0438 17.7343 28.3793 16.9174C28.7068 17.7341 29.2386 18.4386 29.9715 19.03L29.9722 19.0305C30.8248 19.711 31.7279 20.1695 32.6812 20.4022L32.8117 20.4341L32.8577 20.3079L33.12 19.589L33.1789 19.4277L33.0111 19.3911C32.3955 19.2566 31.7671 18.993 31.1257 18.597C30.4887 18.1911 29.9556 17.6876 29.5254 17.0861C29.1009 16.4799 28.8902 15.8226 28.8902 15.1106V14.939H32.772H32.922V14.789V14.0322ZM10.0645 23.7019V23.8519H10.2145H13.0726V29.3492H2.78516H2.63516V29.4992V30.256V30.406H2.78516H22.2388H22.3888V30.256V29.4992V29.3492H22.2388H19.1996V23.8519H20.7252H20.8752V23.7019V22.9452V22.7952H20.7252H19.4455V18.6384H20.7252H20.8752V18.4884V17.7317V17.5817H20.7252H10.1956H10.0456V17.7317V18.4884V18.6384H10.1956H12.8077V22.7952H10.2145H10.0645V22.9452V23.7019ZM22.4824 21.6012H22.3324V21.7512V22.508V22.658H22.4824H27.9811V26.1782V26.3282H28.1311H29.0202H29.1702V26.1782V22.658H44.0526H44.2026V22.508V21.7512V21.6012H44.0526H22.4824ZM24.4878 24.3066H24.3378V24.4566V29.0539V29.2039H24.4878H32.9283H33.0783V29.0539V28.2971V28.1471H32.9283H25.527V24.4566V24.3066H25.377H24.4878ZM13.9969 18.6384H18.2942V22.7952H13.9969V18.6384ZM14.2618 23.8519H18.0293V29.3492H14.2618V23.8519Z" fill="white" stroke="white" stroke-width="0.3"/>
</svg>
