<svg width="100" height="100" viewBox="0 0 100 100" fill="none" xmlns="http://www.w3.org/2000/svg">
<path d="M56.4525 32.3548C56.1367 32.1443 55.663 32.2232 55.4525 32.539C55.2419 32.8811 55.3209 33.3285 55.6367 33.539L58.0051 35.1443C58.0051 35.1443 58.2682 35.2759 58.3998 35.2759C58.6367 35.2759 58.8472 35.1706 59.0051 34.9601C59.2156 34.618 59.1367 34.1706 58.8209 33.9601L56.4525 32.3548Z" fill="#EB1807"/>
<path d="M53.4009 34.7235C53.2167 35.0919 53.4009 35.513 53.743 35.6972L55.4009 36.513L55.5851 36.7498C55.7167 36.934 55.9272 37.013 56.1377 37.013C56.2956 37.013 56.4535 36.9603 56.5851 36.8551C56.5851 36.8551 56.6377 36.8551 56.6641 36.8551C56.6904 36.8551 56.743 36.8551 56.7693 36.8551C57.1641 36.8024 57.4272 36.4077 57.3746 36.013L57.2956 35.5656C57.243 35.3024 57.0588 35.1445 56.822 35.0393C56.7693 34.7761 56.5851 34.5393 56.2956 34.4866C55.9535 34.434 55.6641 34.6445 55.5325 34.9603L54.3483 34.3814C54.0062 34.1972 53.5588 34.3551 53.3746 34.7235H53.4009Z" fill="#EB1807"/>
<path d="M78.4281 54.9339C78.4281 54.9339 78.6649 55.0392 78.7965 55.0392C79.0333 55.0392 79.2702 54.9076 79.4281 54.6971C79.4281 54.6971 79.4281 54.6971 79.4281 54.6708L79.5333 54.7497C79.2702 54.9866 79.1912 55.3287 79.3491 55.6444L79.6123 56.0918C79.7439 56.3287 79.9807 56.4339 80.2439 56.4339C80.3754 56.4339 80.507 56.4076 80.6123 56.3287C80.9544 56.1181 81.0597 55.6708 80.8754 55.3287L80.6386 54.9339C80.6386 54.9339 80.7965 54.8287 80.8754 54.7234C81.086 54.3813 80.9807 53.9339 80.6649 53.7234L79.5597 53.0129C79.2175 52.8023 78.7702 52.8813 78.5597 53.2234C78.5597 53.2234 78.5597 53.276 78.5597 53.3023C78.0333 52.9602 77.7702 52.6708 76.8491 51.6444L74.6912 50.0655C74.6912 50.0655 74.8491 50.1444 74.9281 50.1444C75.1386 50.1444 75.3491 50.0655 75.4807 49.8813C75.7439 49.5655 75.6912 49.1181 75.4018 48.855L73.1386 46.9602C72.8228 46.6971 72.3754 46.7497 72.1123 47.0392C71.8491 47.355 71.9017 47.8023 72.1912 48.0655L73.6386 49.276L73.0333 48.8287C72.7702 48.6444 72.4281 48.6444 72.1649 48.8287L71.7439 48.6181C71.4018 48.4339 70.9544 48.5918 70.7702 48.9339C70.586 49.3023 70.7439 49.7234 71.086 49.9076L72.507 50.6181C72.6912 50.6971 72.8754 50.6971 73.0596 50.6181L75.8754 52.6444C76.1649 52.9866 76.4018 53.2497 76.6123 53.4866L76.9018 54.0392C77.0333 54.3023 77.2965 54.4339 77.5596 54.4339C77.6123 54.4339 77.6649 54.4339 77.7176 54.4076C77.9281 54.5392 78.1649 54.6971 78.4544 54.8813L78.4281 54.9339Z" fill="#EB1807"/>
<path d="M87.584 63.697C87.584 63.697 87.8735 63.8549 88.0314 63.8549C88.084 63.8549 88.1367 63.8549 88.1893 63.8549C88.3998 63.8023 88.584 63.6707 88.6893 63.4602V63.3812C88.8998 63.0128 88.7419 62.6181 88.3735 62.4338C88.3735 62.4338 88.3209 62.4338 88.2946 62.4075L87.3735 61.6707C87.0577 61.4075 86.6104 61.4602 86.3472 61.776C86.084 62.0917 86.1367 62.5391 86.4525 62.8023L87.5577 63.697H87.584Z" fill="#EB1807"/>
<path d="M63.5847 56.8813L63.69 56.8023C63.69 56.8023 63.8216 56.5655 63.8742 56.4339C63.9005 56.4076 63.9531 56.3813 63.9531 56.3287V56.2497C64.111 56.1445 64.2426 56.0392 64.2689 55.8813L64.611 54.7234L64.69 54.5655L64.7426 54.4339C64.7426 54.4339 64.9531 54.2497 64.9795 54.1181L65.4531 52.9076C65.9795 52.0655 66.3742 51.3023 66.4531 50.5918C66.5847 50.5129 66.7163 50.4339 66.7953 50.276L67.4005 49.0129C67.5321 48.7497 67.4268 48.4602 67.2426 48.2497C67.3479 48.1971 67.4005 48.0918 67.4795 48.0129C67.7426 48.0129 68.0058 47.8287 68.111 47.5655L68.6374 46.1708C68.8479 46.4866 69.0847 46.8287 69.2426 47.0918C69.2163 47.3287 69.2953 47.5655 69.5058 47.7497C69.7426 47.9602 69.9531 48.0129 70.1374 48.0129C70.3742 48.0129 70.5321 47.9076 70.611 47.8287C71.1374 47.355 70.9005 46.9866 69.7163 45.2234C69.5847 45.0129 69.4005 44.776 69.2426 44.5129L70.19 42.6971C70.3216 42.4602 70.2689 42.2234 70.1374 42.0392L70.5058 41.5655C70.6374 41.5129 70.7689 41.4339 70.8479 41.276L71.8216 39.6445C71.9268 39.4602 71.9531 39.2497 71.9005 39.0655C71.8742 38.9602 71.7689 38.8813 71.6637 38.8023L71.7426 38.5655C71.7426 38.5655 71.7426 38.5392 71.7426 38.5129C71.7426 38.5129 71.7689 38.4866 71.7689 38.4602C71.8216 38.1971 71.9531 37.9866 72.0321 37.7497C72.0584 37.7497 72.0847 37.8023 72.1374 37.8023C72.1637 37.8023 72.19 37.8023 72.2426 37.8023C72.611 37.8023 72.9005 37.5392 72.9531 37.1708L73.0321 36.6181C73.0321 36.4339 73.0058 36.2497 72.9005 36.0918C73.0058 35.9076 73.111 35.7497 73.2426 35.5655C73.4005 35.355 73.5584 35.1181 73.69 34.9076C73.69 34.9076 73.69 34.8813 73.69 34.855C74.0321 34.8287 74.3216 34.5392 74.3479 34.1971L74.4005 32.5392C74.4005 32.5392 74.4531 32.5129 74.4531 32.4866L75.2426 30.8287C75.2426 30.8287 75.3742 30.8287 75.4005 30.8023C75.7689 30.6708 75.9795 30.2497 75.8479 29.8813C75.7689 29.6971 75.6374 29.5392 75.4532 29.4602C75.3742 29.355 75.2689 29.1971 75.0847 29.0655C75.2689 28.7497 75.4532 28.4339 75.6374 28.0655C75.7689 28.1971 75.9531 28.3023 76.1374 28.3023C76.1637 28.3023 76.19 28.3023 76.2426 28.3023C76.6374 28.2497 76.9268 27.8813 76.8742 27.4866L76.7426 26.3813H76.7952L77.0584 26.3023C77.3742 26.1971 77.69 26.1181 78.0584 25.9339C78.3216 25.8023 78.4268 25.5918 78.69 25.0129L78.8479 24.6708C78.8479 24.6708 78.8479 24.5392 78.8479 24.4866C78.9005 24.4339 78.9531 24.4076 78.9795 24.3287L79.2426 23.8287C79.2426 23.8287 79.3216 23.6181 79.3479 23.4866V22.776C79.3479 22.5918 79.2953 22.4339 79.19 22.3023C79.4268 21.9602 79.611 21.5918 79.8479 21.0129C79.9531 21.0129 80.0847 21.0392 80.2163 21.0129C80.7952 20.9076 81.0584 20.3023 81.4268 19.1971C81.4531 19.0918 81.4268 19.0129 81.4005 18.9076C81.5321 18.776 81.5847 18.5918 81.5584 18.4076C82.4005 17.4076 82.7163 16.5129 82.5321 15.6708L83.6637 14.5655C83.6637 14.5655 83.8216 14.355 83.8742 14.2234L84.0058 13.7497C84.0847 13.4602 83.9795 13.1708 83.7163 12.9866C83.611 12.9076 83.4795 12.855 83.3742 12.855L85.4005 7.38129C85.5058 7.09182 85.4005 6.74971 85.1637 6.5655C84.9005 6.38129 84.5584 6.38129 84.2953 6.5655L79.8216 9.82866C79.8216 9.82866 79.69 9.90761 79.611 9.96024C79.611 9.80235 79.5584 9.64445 79.4531 9.53919C79.19 9.24972 78.7426 9.2234 78.4268 9.48656L76.7163 11.0392C76.5058 11.2234 76.4268 11.5129 76.5058 11.776C76.5847 11.9866 76.7689 12.1445 76.9795 12.2234L76.5584 13.1708C76.5584 13.1708 76.5584 13.355 76.5584 13.4339L76.5058 13.0918C76.5058 12.9602 76.4268 12.8287 76.3216 12.7234C76.4005 12.5129 76.4268 12.3023 76.3216 12.0918C76.111 11.7497 75.6637 11.6445 75.3216 11.855L72.3216 13.6708C71.9795 13.8813 71.8742 14.3287 72.0847 14.6708C72.1374 14.7497 72.19 14.776 72.2689 14.8287C72.19 14.9339 72.1111 15.0655 72.0847 15.2234L72.0321 16.6181C72.0321 16.8287 72.111 17.0129 72.2426 17.1708C72.3216 17.2497 72.4005 17.3023 72.5058 17.3287C72.3479 17.3287 72.19 17.3287 72.0584 17.4076C71.8216 17.5655 71.69 17.8287 71.7163 18.1181L70.6374 18.6445L71.111 18.2497C71.111 18.2497 71.1111 18.1971 71.1374 18.1708C71.3742 18.0655 71.5584 17.9076 71.5847 17.6181C71.6374 17.2234 71.3479 16.855 70.9268 16.8287H70.6637C70.4005 16.7497 70.1374 16.7234 69.8216 16.7234C69.7163 16.7234 69.5847 16.7497 69.4795 16.7497L69.6374 16.6971C70.0058 16.5392 70.1637 16.1181 70.0058 15.7497C69.8479 15.3813 69.4268 15.2234 69.0584 15.3813L67.8216 15.9339C67.8216 15.9339 67.69 16.0655 67.6374 16.1181L67.4005 16.1708C67.2426 16.2234 67.0847 16.3023 66.9795 16.4602L66.1637 17.5918C65.9795 17.8287 66.0321 18.1181 66.1637 18.355C66.0058 18.355 65.8479 18.355 65.69 18.3813C65.2689 18.4602 64.7689 18.5655 64.2952 18.6971L63.7163 18.8287C63.3216 18.9339 63.0847 19.3023 63.19 19.6971L63.1374 19.7497C63.1374 19.7497 62.9795 19.7497 62.9005 19.7497C62.611 19.5655 62.2426 19.5918 61.9795 19.8287C61.69 20.1181 61.3216 20.5129 61.4532 20.9602L59.111 21.6708C58.7689 21.776 58.611 22.0918 58.6374 22.4076C58.5584 22.3023 58.4795 22.1708 58.3216 22.1181C57.8479 21.9076 57.5847 22.0655 55.9531 23.0392C55.611 23.2497 55.5058 23.6971 55.7163 24.0392C55.7689 24.1181 55.8216 24.1708 55.9005 24.2234C55.8216 24.3813 55.8216 24.5655 55.9005 24.7497L55.69 24.9076C55.6374 24.5918 55.4005 24.355 55.0584 24.3287C54.6374 24.276 54.2953 24.5655 54.2426 24.9602V25.0655C54.0321 24.7497 53.611 24.6181 53.2689 24.8023L51.611 25.6971C51.2689 25.8813 51.1374 26.3287 51.3216 26.6708C51.4532 26.8813 51.6637 27.0129 51.9005 27.0392L51.8479 27.4076L50.4531 27.8813C50.2952 27.7497 50.1374 27.6181 50.0321 27.5129C50.1374 27.3287 50.1637 27.1445 50.0847 26.9339L49.69 25.9076C49.5584 25.5392 49.1374 25.355 48.7689 25.4866C48.4005 25.6181 48.2163 26.0392 48.3479 26.4076L48.5058 26.8023C48.111 26.8813 47.8742 27.1445 47.7689 27.2497C47.6374 27.2497 47.4795 27.3023 47.3742 27.4076C47.19 27.5918 47.1637 27.8287 47.19 28.0655C47.0321 28.1181 46.9005 28.2234 46.8216 28.3813L46.611 28.2234C46.2953 27.9866 45.8479 28.0392 45.5847 28.3813C45.3479 28.6971 45.4005 29.1445 45.7426 29.3813L46.6374 30.0392C46.6374 30.0392 46.6374 30.1181 46.611 30.1445C46.5847 30.0918 46.5847 30.0129 46.5058 29.9602C46.2163 29.6971 45.7426 29.7234 45.4795 30.0392L44.3742 31.3287C44.2426 31.4602 44.2163 31.6445 44.2163 31.8023C44.1637 31.855 44.0847 31.8813 44.0321 31.9339L43.8216 31.776C43.5058 31.5392 43.0584 31.5918 42.7953 31.9076C42.5584 32.2234 42.611 32.6708 42.9268 32.9339L43.0847 33.0392L41.3742 33.3813C41.4795 33.0392 41.3479 32.6445 41.0058 32.4866C40.6374 32.3287 40.2163 32.4866 40.0584 32.855L39.4005 34.3813C39.4005 34.3813 39.4005 34.4339 39.4005 34.4602L37.8216 35.5655L36.9532 35.4339C36.9532 35.4339 36.9005 35.4339 36.8742 35.4339C36.9268 35.276 36.9531 35.0918 36.8742 34.9076L36.1374 32.9076C36.2689 32.7234 36.3216 32.5129 36.2426 32.276C36.0584 31.8287 35.8216 31.1971 35.3742 31.0392L35.2163 30.5918C35.1374 30.3287 34.7953 30.1708 34.5058 30.1445C34.5058 30.1445 34.5584 30.1445 34.5847 30.1445C34.5847 30.1445 34.5847 30.1181 34.5847 30.0918C34.5847 30.0918 34.611 30.0918 34.6374 30.0918C34.69 30.0918 34.7689 30.0918 34.8216 30.0918C35.1374 30.0129 35.3479 29.7497 35.3742 29.4339C35.4531 28.1445 35.0321 27.5918 34.69 27.1445C34.6374 27.0655 34.5584 26.9866 34.5058 26.8813L34.19 24.1971C34.19 23.9602 34.0321 23.776 33.8479 23.6445L33.6637 23.5392C33.4795 23.4339 33.2689 23.4339 33.0847 23.5129C33.0847 23.4866 33.1374 23.4602 33.1374 23.4076L33.2689 22.5392C33.2689 22.5392 33.2689 22.355 33.2689 22.2497L32.9795 21.0392C32.9795 21.0392 33.111 21.0392 33.1637 20.9602C33.4268 20.6708 33.4268 20.2234 33.1637 19.9339L32.69 19.4866C32.4005 19.2234 31.9531 19.2234 31.6637 19.5129C31.4005 19.8023 31.4005 20.2497 31.6637 20.5392L31.7689 20.6445C31.611 20.8287 31.5058 21.0392 31.5584 21.276V21.355C31.5584 21.355 31.3742 21.1971 31.2689 21.1971C31.19 21.1971 31.1374 21.2497 31.0847 21.2497L30.8742 20.3287C30.7953 19.9339 30.4005 19.6971 30.0058 19.776C29.9005 19.776 29.8742 19.8813 29.7953 19.9339V19.8287C30.0058 19.1708 30.1637 18.4602 30.19 17.4866C30.2163 17.4866 30.2426 17.4866 30.2953 17.4866C30.3742 17.4866 30.4531 17.4866 30.5321 17.4602C30.611 17.4602 30.6637 17.3813 30.7163 17.3287C30.7689 17.3813 30.8216 17.4602 30.9005 17.5129C30.9795 17.5392 31.0847 17.5655 31.1637 17.5655C31.4268 17.5655 31.69 17.4076 31.7953 17.1445C31.7953 17.1445 31.8216 17.1445 31.8479 17.1445C32.1637 17.3023 32.4795 17.4602 32.7163 17.6445C32.8216 17.7497 32.9532 17.9602 33.0847 18.1708C33.1637 18.3023 33.2426 18.4339 33.3216 18.5655C33.4532 18.776 33.69 18.8813 33.9268 18.8813C34.0584 18.8813 34.2163 18.8287 34.3216 18.7497C34.5847 18.5655 34.6637 18.2234 34.5584 17.9339L34.8742 18.0655C34.8742 18.0655 34.9795 18.0655 35.0321 18.0918C34.9268 18.3287 34.9005 18.5918 35.0321 18.8023L35.4268 19.355C35.4268 19.355 35.2426 19.5129 35.19 19.6181C35.0584 19.9866 35.2689 20.4076 35.6637 20.5392L37.2426 21.0655C37.3742 21.276 37.5058 21.4866 37.7426 21.7497C37.8742 21.9076 38.0847 21.9866 38.2689 21.9866C38.4532 21.9866 38.611 21.9339 38.7689 21.8023C38.9005 21.8813 39.0321 21.9866 39.1637 21.9866C39.3216 21.9866 39.5058 21.9339 39.6374 21.8023C39.9532 21.5392 39.9795 21.0918 39.7163 20.776L38.5321 19.3813C38.5321 19.3813 38.3479 19.276 38.2426 19.2497C38.1637 19.2234 38.1374 19.1708 38.0584 19.1445C37.9532 19.1445 37.8479 19.1971 37.7426 19.2234C37.6637 19.2234 37.5847 19.2234 37.5321 19.276C37.5321 19.276 37.5321 19.276 37.5058 19.276C37.4532 19.3287 37.3742 19.3813 37.2953 19.4602C37.2953 19.4602 37.2953 19.4339 37.2953 19.4076L36.2163 17.9076C36.111 17.776 35.9531 17.6971 35.7953 17.6445C35.8742 17.4602 35.8742 17.2497 35.7953 17.0655C35.8742 17.1181 35.9795 17.1708 36.0584 17.1708C36.1374 17.1708 36.2163 17.0918 36.2953 17.0655L37.4795 18.5129C37.4795 18.5129 37.6374 18.6708 37.7426 18.7234L38.8216 19.2234C39.0321 19.3023 39.2163 19.3813 39.4005 19.4339L40.19 20.4602C40.2953 20.5918 40.4795 20.6445 40.6374 20.6708C40.6374 20.7234 40.6637 20.7497 40.69 20.8023C40.7426 20.9339 40.8479 21.0655 40.9795 21.1708L41.69 21.6181C41.5058 21.6181 41.3479 21.6971 41.2163 21.8287C41.0058 22.0655 41.0058 22.3813 41.1637 22.6708C41.111 22.8813 41.1374 23.0918 41.2689 23.276C41.4005 23.4339 41.5584 23.5129 41.7953 23.5918C41.9005 23.6445 42.0058 23.6708 42.111 23.6708L43.5058 25.0129C43.6374 25.1445 43.8216 25.2234 44.0058 25.2234C44.19 25.2234 44.3742 25.1445 44.5321 25.0129C44.6637 24.8813 44.7163 24.6971 44.7163 24.5129C44.8479 24.5129 44.9531 24.4602 45.0584 24.3813C45.1637 24.3023 45.1637 24.1971 45.2163 24.0918L45.4795 24.5655C45.3216 24.6445 45.2163 24.776 45.1374 24.9339C44.9795 25.3023 45.1374 25.7234 45.5321 25.8813L46.0058 26.0918C46.4532 26.3023 46.7689 26.4339 47.0058 26.4339C47.19 26.4339 47.3479 26.355 47.5058 26.1971C47.7163 25.9602 47.7426 25.6181 47.611 25.355L46.2163 22.9076C46.0321 22.5655 45.5847 22.4339 45.2163 22.6445C45.0584 22.7497 44.9532 22.8813 44.9005 23.0655L43.5058 21.355C43.5058 21.355 43.5058 21.2234 43.4531 21.1445L42.9005 20.3023C42.8216 20.1708 42.6637 20.0655 42.5321 20.0129L41.4795 19.6708C41.4795 19.6708 41.4005 19.6708 41.3742 19.6708C41.3742 19.6708 41.3742 19.6181 41.3742 19.5918L40.4531 18.3813C40.4531 18.3813 40.2426 18.1971 40.111 18.1445L39.8742 18.0655C39.7426 18.0129 39.5847 17.9866 39.4531 17.9076L38.7163 17.5655L36.19 14.6181C35.9268 14.3023 35.4795 14.276 35.1637 14.5129C35.1374 14.5392 35.1374 14.5918 35.111 14.6445L34.8216 14.4076C34.9795 14.4076 35.1374 14.355 35.2689 14.2234C35.5584 13.9339 35.5584 13.4866 35.2689 13.1971L33.3216 11.2234C33.19 11.0918 33.0058 11.0129 32.7953 11.0129C32.611 11.0129 32.4268 11.0918 32.2689 11.2234L31.69 11.8023C31.4005 12.0918 31.4268 12.5392 31.69 12.8287C31.9795 13.1181 32.4268 13.1181 32.7163 12.8287L32.7689 12.776L33.9795 14.0129C33.7953 14.0129 33.6111 14.1181 33.4795 14.2497C33.2163 14.5392 33.2426 15.0129 33.5584 15.276L33.6637 15.3813C33.6637 15.3813 33.5058 15.3813 33.4531 15.4076L32.9005 15.7234C32.9005 15.7234 32.7426 15.855 32.69 15.9339C32.611 15.8813 32.5321 15.855 32.4531 15.8023C32.3216 15.7234 32.1637 15.6708 32.0321 15.5918C31.9268 15.5392 31.7953 15.5392 31.69 15.5392C31.69 15.5392 31.69 15.4866 31.6374 15.4866C31.5058 15.4339 31.3479 15.4602 31.2163 15.4866C31.2163 15.2497 31.2163 14.9866 31.2426 14.8023C31.2426 14.6445 31.19 14.5129 31.111 14.3813C31.2689 14.1971 31.3742 13.9866 31.3216 13.7234L31.1637 13.1181C31.0847 12.8287 30.8479 12.6971 30.5847 12.6445C30.611 12.6445 30.6374 12.6445 30.6637 12.6445C30.7689 12.5918 30.7953 12.5129 30.8742 12.4339C31.0321 12.3813 31.19 12.3023 31.2689 12.1708C31.4532 11.9076 31.4532 11.5918 31.2689 11.3287C31.1374 11.1181 30.9795 10.9339 30.8216 10.7234H31.4005C31.7953 10.6971 32.0584 10.355 32.0321 9.96024C32.0321 9.5655 31.6374 9.24971 31.2426 9.24971H30.8479C30.8479 9.24971 30.8216 9.09182 30.7426 9.03919L23.9795 2.82866C23.7426 2.61814 23.4005 2.5655 23.1374 2.7234C22.8479 2.88129 22.7163 3.19708 22.7689 3.48656L23.19 5.61814C23.19 5.61814 23.19 5.67077 23.19 5.7234L23.2426 5.85498L24.4795 12.2234C24.5584 12.5655 24.8479 12.8023 25.19 12.8023C25.2163 12.8023 25.2953 12.8023 25.3479 12.8023C25.4795 12.9602 25.6637 13.0392 25.8742 13.0392L26.2426 14.5655C26.2953 14.776 26.4268 14.9602 26.6374 15.0392C26.69 15.0392 26.7426 15.0392 26.7953 15.0655C26.5584 15.2234 26.4005 15.5129 26.4795 15.8023C26.5584 16.0392 26.7426 16.2234 26.9531 16.3023L26.5584 16.4076C26.2689 16.4866 26.111 16.7234 26.0847 17.0129C25.7163 17.3287 25.6374 17.9076 25.611 18.276C25.611 18.5129 25.69 18.7497 25.8742 18.8813C26.0584 19.0392 26.2953 19.0918 26.5321 19.0392L26.7163 18.9866C26.7163 18.9866 26.9005 19.1708 26.9795 19.2497C26.7689 19.4866 26.6637 19.8023 26.5847 20.1181L26.5058 20.3813C26.3742 20.7497 26.5847 21.1708 26.9531 21.3023C27.0321 21.3287 27.111 21.355 27.19 21.355C27.4795 21.355 27.7689 21.1708 27.8742 20.8813C27.9005 20.776 27.9532 20.6445 27.9795 20.5392C28.0058 20.4339 28.0584 20.2497 28.0584 20.2497L28.19 20.0655C28.19 20.0655 28.2163 20.0655 28.2426 20.0655C28.2953 20.3287 28.4532 20.5918 28.7163 20.6708C28.7689 20.6708 28.8216 20.6708 28.9005 20.6708C29.0584 20.6708 29.2163 20.6181 29.3479 20.5129C29.3479 20.5655 29.3216 20.6181 29.3479 20.6708L29.5584 21.5129C29.5584 21.355 29.4795 21.1708 29.3742 21.0392C29.2689 20.9339 29.1374 20.8023 28.9268 20.7234C28.7163 20.6445 28.4531 20.6708 28.2689 20.8023C28.0847 20.9339 27.9531 21.3813 27.9531 21.5918C27.9268 21.9866 28.2163 22.3287 28.611 22.3813H28.6637C28.7953 22.3813 28.9268 22.355 29.0321 22.276C29.1637 22.2497 29.2953 22.1708 29.4005 22.0655C29.5321 21.9339 29.5847 21.7497 29.5847 21.5655L29.7426 22.2497C29.7426 22.2497 29.6374 22.2234 29.5847 22.2234C29.3216 22.2234 29.0847 22.4076 28.9795 22.6708L28.2953 24.3813C28.1374 24.7497 28.3216 25.1708 28.69 25.3287C28.7689 25.355 28.8742 25.3813 28.9532 25.3813C29.0584 25.3813 29.1374 25.3287 29.2163 25.3023L29.7426 26.8023C29.5321 26.6445 29.2953 26.5655 29.0584 26.6971C28.9795 26.7234 28.9795 26.8023 28.9268 26.855C28.7953 26.8287 28.69 26.776 28.5584 26.8287C28.19 26.9602 27.9795 27.355 28.0847 27.7497L28.2163 28.1971C28.2163 28.1971 28.1374 28.4339 28.19 28.5655C28.5058 29.5655 28.8479 30.3813 29.5584 30.3813C29.5584 30.3813 29.7163 30.355 29.7953 30.3287C29.7953 30.3813 29.8216 30.4339 29.8479 30.4602C29.7689 30.4602 29.69 30.4602 29.611 30.4866C29.611 30.4866 29.611 30.5129 29.5847 30.5392C29.5321 30.5392 29.4795 30.4866 29.4268 30.5129C29.0321 30.5918 28.7953 30.9866 28.8742 31.355L29.3216 33.4602C29.4005 33.8023 29.69 34.0392 30.0321 34.0392C30.0847 34.0392 30.1374 34.0392 30.19 34.0392C30.2426 34.0392 30.2426 33.9866 30.2953 33.9866C30.2953 34.355 30.5847 34.7234 30.9531 34.7497C30.9531 34.7497 30.9795 34.7497 31.0058 34.7497C31.0847 34.7497 31.111 34.6971 31.19 34.6708C31.19 34.8287 31.19 34.9866 31.19 35.1708C30.8742 35.1708 30.5847 35.355 30.5058 35.6971L30.2689 36.8813C30.19 37.2234 30.4005 37.5129 30.69 37.6445C30.5584 37.8023 30.4795 38.0129 30.5321 38.2497C30.5584 38.3813 30.6374 38.4602 30.7163 38.5392C29.611 38.855 29.2163 39.3813 28.9005 39.8287C28.8479 39.9076 28.7689 39.9866 28.7163 40.0655L26.2426 41.1445C26.0321 41.2497 25.8742 41.4339 25.8216 41.6445L25.7689 41.855C25.7163 42.0655 25.7953 42.2497 25.9268 42.4339C25.8742 42.4339 25.8479 42.4076 25.8216 42.4076L24.9532 42.5392C24.9532 42.5392 24.7689 42.5918 24.69 42.6445L23.611 43.276C23.611 43.276 23.5584 43.1708 23.4795 43.1445C23.1374 42.9602 22.69 43.1181 22.5058 43.4866L22.2163 44.0655C22.0321 44.4339 22.19 44.855 22.5584 45.0392C22.6637 45.0918 22.7689 45.1181 22.8742 45.1181C23.1374 45.1181 23.4005 44.9602 23.5321 44.7234L23.5847 44.6445C23.5847 44.6445 23.7953 44.7234 23.9005 44.7234C24.0321 44.7234 24.1637 44.6971 24.2689 44.6181L24.6374 44.4076C24.6374 44.4076 24.69 44.6445 24.7953 44.7234C24.8479 44.7497 24.9005 44.7497 24.9532 44.776L23.611 45.5655C23.2689 45.776 23.1374 46.1971 23.3479 46.5655C23.4005 46.6445 23.4532 46.6708 23.5058 46.7234H23.4268C22.7426 46.7497 22.0058 46.8023 21.0847 47.0918C21.0847 46.9866 21.0584 46.8813 20.9795 46.776C20.5847 46.1708 19.7953 46.3813 18.9795 46.6445C18.7426 46.7234 18.5058 46.776 18.3216 46.8287C17.9268 46.9076 17.6637 47.276 17.7426 47.6708C17.7426 47.776 17.7953 47.855 17.8479 47.9602C17.7953 48.0655 17.7953 48.1971 17.8216 48.3287C17.5584 48.0655 17.1637 48.0392 16.8742 48.276C16.7689 48.355 16.69 48.4339 16.5847 48.5392C16.5847 48.355 16.5321 48.1708 16.4268 48.0392C16.1637 47.7497 15.7163 47.6971 15.4005 47.9602L13.8479 49.3023H13.5847C13.19 49.3813 12.9005 49.7497 12.9531 50.1445C12.9531 50.3287 13.0584 50.4866 13.19 50.5918C13.111 50.776 13.111 50.9866 13.19 51.1708H12.9531C12.6637 51.0918 12.4268 51.2234 12.2689 51.4602L11.7689 52.1971C11.7689 52.1971 11.7689 52.3023 11.7426 52.355C11.7426 52.355 11.7163 52.355 11.69 52.355C11.69 52.276 11.69 52.2234 11.69 52.1445L11.9005 51.355C12.0058 50.9602 11.7689 50.5655 11.3742 50.4602C10.9795 50.355 10.5847 50.5918 10.4795 50.9866L10.2689 51.8287L5.13737 53.9339C4.84789 54.0392 4.66368 54.3287 4.68999 54.6445C4.68999 54.9602 4.90052 55.2234 5.21631 55.3023L12.8479 57.5655C12.8479 57.5655 12.9531 57.5655 13.0058 57.5655C13.2163 57.5655 13.4005 57.4339 13.5584 57.276C13.69 57.1181 13.7426 56.9076 13.7163 56.6708C13.8479 56.5655 13.9268 56.4339 13.9795 56.276L14.0847 55.855C14.0847 55.855 14.2426 55.855 14.3216 55.8023L15.9795 54.9076C15.9795 54.9076 15.7953 55.0655 15.7689 55.1708L15.5847 55.7497C15.5847 55.7497 15.611 55.8813 15.611 55.9602C15.5321 55.9602 15.4531 55.9602 15.4005 55.9602C15.2426 55.9602 15.0847 55.9866 14.9268 56.0129C14.7689 56.0129 14.6637 56.1181 14.5584 56.1971C14.5058 56.1971 14.4795 56.1971 14.4531 56.1971C14.0847 56.3287 13.8742 56.7497 14.0058 57.1181L14.2163 57.7497C14.3216 58.0392 14.611 58.2497 14.9005 58.2497C14.9795 58.2497 15.0584 58.2497 15.1374 58.1971C15.4795 58.0918 15.6374 57.7497 15.5847 57.4076C15.9268 57.355 16.2689 57.3287 16.5584 57.355C16.7426 57.355 17.0058 57.4866 17.2426 57.6181C17.4005 57.6971 17.5584 57.7497 17.7163 57.8287C17.7953 57.855 17.9005 57.8813 17.9795 57.8813C18.2689 57.8813 18.5321 57.6971 18.6637 57.4339C18.7953 57.0918 18.6374 56.7234 18.3216 56.5655H18.4531C18.4531 56.5655 18.6374 56.4339 18.7163 56.3813C18.7163 56.6971 18.8216 56.9866 19.1374 57.0918L20.0584 57.4339C20.0584 57.4339 19.9795 57.6445 20.0321 57.776C20.1374 58.0918 20.4005 58.276 20.7163 58.276C20.7953 58.276 20.8479 58.276 20.9268 58.2497L22.3479 57.8287C22.5847 57.9339 22.9005 58.0392 23.2689 58.1445C23.3216 58.1445 23.3742 58.1445 23.4532 58.1445C23.7689 58.1445 24.0847 57.9339 24.1637 57.5918C24.1637 57.5918 24.1637 57.5918 24.1637 57.5655C24.4005 57.5129 24.6374 57.355 24.69 57.0918C24.7953 56.6971 24.5847 56.3024 24.19 56.1971L22.2953 55.6445C22.2953 55.6445 22.2163 55.6445 22.19 55.6445C22.1637 55.6445 22.1374 55.6181 22.111 55.6181C22.0584 55.6181 22.0058 55.6708 21.9532 55.6708C21.8479 55.6708 21.7689 55.7234 21.69 55.776C21.611 55.8287 21.5847 55.8813 21.5321 55.9602C21.5058 56.0129 21.4268 56.0392 21.4005 56.1181C21.4005 56.1445 21.4005 56.1971 21.4005 56.2234C21.4005 56.2497 21.3742 56.276 21.3479 56.3023C21.3479 56.3023 21.3479 56.3023 21.3479 56.3287L19.611 55.6971C19.3742 55.6181 19.1637 55.6971 18.9795 55.8023C18.9795 55.7497 19.0058 55.7234 19.0058 55.6708C18.9532 55.3813 18.7426 55.2234 18.4531 55.1445C18.611 55.0918 18.7426 55.0129 18.8479 54.8813L20.5321 55.4076C20.5321 55.4076 20.7689 55.4602 20.9005 55.4076L21.9532 55.1971C22.111 55.1708 22.2426 55.1181 22.4268 55.0655L23.6637 55.4866C23.6637 55.4866 23.8216 55.5129 23.9005 55.5129C24.0058 55.5129 24.0847 55.4602 24.1637 55.4339C24.19 55.4339 24.2163 55.4866 24.2689 55.4866C24.4005 55.5655 24.5321 55.6445 24.7163 55.6445H25.9268L26.1374 55.6708C25.9532 55.776 25.7953 55.9339 25.7426 56.1445C25.6637 56.5392 25.9268 56.9076 26.3216 56.9866C26.4005 57.1708 26.5584 57.3023 26.7689 57.355C26.7953 57.355 26.8479 57.355 26.9005 57.355C27.0584 57.355 27.2953 57.355 27.3742 57.3024C27.4531 57.3024 27.4795 57.2234 27.5321 57.1708L29.5058 57.5392C29.5058 57.5392 29.5847 57.5392 29.6374 57.5392C29.9795 57.5392 30.2953 57.3023 30.3479 56.9602C30.4005 56.6181 30.19 56.3023 29.8742 56.1708C29.8742 56.1181 29.9532 56.0918 29.9532 56.0655C29.9532 56.0129 29.9532 55.9602 29.9532 55.9076L30.4795 56.1445C30.4795 56.1445 30.4268 56.4339 30.4795 56.5655C30.5584 56.8813 30.8479 57.0918 31.1637 57.0918C31.2163 57.0918 31.2953 57.0918 31.3479 57.0655L31.69 56.9866C32.3479 56.8287 32.7689 56.7234 32.7953 56.1708C32.7953 55.855 32.6374 55.5655 32.3742 55.4602L29.4268 54.0918C29.0584 53.9339 28.6374 54.0918 28.4532 54.4339C28.4005 54.5655 28.4005 54.7234 28.4532 54.855L26.7426 54.3287C26.7426 54.3287 26.6637 54.2234 26.5847 54.1971L25.5847 53.776C25.4005 53.6971 25.2163 53.6971 25.0584 53.776L24.2163 54.0918L22.7426 53.5918C22.5847 53.5392 22.4268 53.5392 22.2689 53.5918L22.0584 53.6708C22.0584 53.6708 21.8479 53.7497 21.7426 53.776L20.9005 53.9339L18.1374 53.0655C18.1374 53.0655 18.1374 53.0392 18.1374 53.0129C18.1374 52.9602 18.111 52.9339 18.0847 52.9076C18.19 52.7497 18.19 52.5392 18.1637 52.3287L19.5321 51.5129C19.7163 51.4076 19.8479 51.2234 19.8742 51.0129C19.8742 50.9602 19.8479 50.9339 19.8216 50.8813C19.9531 50.9866 20.111 51.0655 20.2689 51.0655C20.3742 51.0655 20.4795 51.0655 20.5847 50.9866C20.8479 50.855 20.9795 50.5918 20.9795 50.3287L21.19 50.6708C21.3216 50.9076 21.5584 51.0129 21.8216 51.0129C21.8742 51.0129 21.9268 50.9866 21.9795 50.9602C22.1637 51.0655 22.3479 51.1181 22.5584 51.1181C22.8216 51.1181 23.0847 51.0655 23.2689 51.0129C23.5058 50.9602 23.69 50.8023 23.7689 50.5918C23.8479 50.3813 23.8479 50.1181 23.7163 49.9339L23.611 49.776C23.611 49.776 23.7163 49.5655 23.7953 49.4602C24.0058 49.5655 24.2426 49.5918 24.4795 49.5918C24.5584 49.5918 24.6637 49.5918 24.7426 49.5918H25.0058C25.3479 49.5655 25.7426 49.276 25.7426 48.8813C25.7426 48.4866 25.4268 48.1445 25.0321 48.1445C24.9268 48.1445 24.7953 48.1445 24.6637 48.1445C24.5584 48.1445 24.3742 48.1445 24.3479 48.1445L24.1374 48.0655C24.1374 48.0655 24.1374 48.0655 24.1374 48.0392C24.3742 47.9076 24.5847 47.6971 24.5584 47.4076C24.5584 47.1708 24.4268 47.0129 24.2426 46.8813C24.2953 46.8813 24.3479 46.8813 24.4005 46.8287L25.1374 46.4076C24.9795 46.4866 24.8479 46.5655 24.7689 46.7234C24.69 46.855 24.611 47.0129 24.5847 47.276C24.5847 47.5129 24.69 47.7234 24.8742 47.855C24.9795 47.9339 25.1637 47.9602 25.3479 47.9602C25.4795 47.9602 25.6374 47.9602 25.7163 47.9339C26.111 47.855 26.3479 47.4602 26.2426 47.0655C26.2163 46.9076 26.1374 46.8023 26.0321 46.6971C25.9532 46.5918 25.8479 46.4866 25.7163 46.4076C25.5321 46.3287 25.3479 46.3287 25.19 46.4076L25.7953 46.0655C25.7953 46.0655 25.7953 46.1708 25.7953 46.2234C25.9005 46.4866 26.1374 46.6445 26.4005 46.6708L28.2426 46.8287H28.2953C28.6637 46.8287 28.9795 46.5392 29.0058 46.1708C29.0058 45.9602 28.9532 45.776 28.8479 45.6445L30.111 44.7234C30.0321 44.9602 30.0321 45.2234 30.2163 45.4339C30.2689 45.4866 30.3479 45.4866 30.4005 45.5129C30.4005 45.6445 30.4005 45.776 30.4795 45.8813C30.611 46.0918 30.8479 46.1971 31.0847 46.1971C31.2163 46.1971 31.3742 46.1445 31.5058 46.0655L31.8216 45.855C31.9532 45.855 32.111 45.8023 32.2426 45.7234C32.9532 45.2234 33.5321 44.7497 33.5847 44.1708C33.611 44.1971 33.6374 44.2234 33.69 44.2497C33.69 44.3813 33.7426 44.5392 33.8479 44.6445C34.111 44.9076 34.5321 44.9076 34.8216 44.6708L34.9795 45.7497C34.6374 45.9076 34.4795 46.3023 34.611 46.6708L35.111 47.9339C35.2163 48.2234 35.4795 48.3813 35.7953 48.3813H35.8216C36.1374 48.3813 36.4005 48.1708 36.4795 47.855L36.5321 47.6445C36.6374 47.9339 36.7689 48.1708 36.9005 48.355C36.8479 48.355 36.7953 48.355 36.7689 48.3813C36.4795 48.5655 36.4268 48.9339 36.5584 49.2497C36.5058 49.2497 36.4268 49.2234 36.3742 49.2497C36.1374 49.276 35.9268 49.4602 35.8479 49.6708L34.8216 47.6181C34.6374 47.2497 34.19 47.1181 33.8479 47.3023C33.4795 47.4866 33.3479 47.9076 33.5321 48.276L34.5847 50.3813C34.7163 50.6445 34.9795 50.776 35.2426 50.776C35.3479 50.776 35.4531 50.776 35.5584 50.6971C35.5584 50.6971 35.5584 50.6708 35.611 50.6445C35.611 50.9339 35.7426 51.2234 36.0584 51.3023C36.1374 51.3023 36.2163 51.3287 36.2953 51.3287C36.4532 51.3287 36.611 51.276 36.7426 51.1708C36.9268 51.1971 37.1374 51.1708 37.2953 51.0655C37.4268 50.9866 37.4795 50.8287 37.5321 50.6971V50.7497L37.2689 51.2497C37.1637 51.4076 37.1637 51.5655 37.19 51.7497C37.111 51.7497 37.0321 51.6708 36.9268 51.6971C36.611 51.7234 36.3479 51.9602 36.2689 52.276L36.1374 52.855C36.1374 52.855 36.1637 53.0918 36.2163 53.2234C36.1374 53.1708 36.0584 53.0918 35.9532 53.0918C35.5584 53.0918 35.2163 53.355 35.19 53.776L35.0847 55.4866C35.0847 55.6445 35.1374 55.776 35.2163 55.9076C35.1637 55.9076 35.111 55.9076 35.0847 55.9076C35.0847 55.6708 34.9795 55.4602 34.7689 55.3287L33.5847 54.6445C33.2426 54.4602 32.7953 54.5655 32.5847 54.9076C32.3742 55.2497 32.5058 55.6971 32.8479 55.9076L33.8479 56.4866C33.6637 56.9076 33.9005 57.3287 34.0321 57.5392C34.0321 57.5392 34.0321 57.5392 34.0584 57.5655C34.0058 57.9339 34.2163 58.3024 34.5847 58.3813L34.8742 58.4602C34.8216 58.6181 34.8216 58.776 34.8742 58.9602C34.611 59.0655 34.4531 59.2497 34.4268 59.5129C34.4268 59.9076 34.69 60.2497 35.111 60.276L36.4795 60.355C36.5321 60.6181 36.6637 60.855 36.9268 60.9339C37.0058 60.9339 37.0584 60.9602 37.1374 60.9602C37.4005 60.9602 37.611 60.8024 37.7426 60.5655C37.7426 60.776 37.8216 60.9602 37.9795 61.0918C38.111 61.1971 38.2689 61.2497 38.4268 61.2497C38.6374 61.2497 38.8479 61.1445 38.9795 60.9866L39.111 60.8287L39.2689 61.855C39.3216 62.1971 39.611 62.4339 39.9532 62.4602C40.1637 62.855 40.4268 63.1445 40.7689 63.3287C40.7163 63.7234 40.7163 64.1181 40.7689 64.5392C40.7163 64.4866 40.69 64.4339 40.6374 64.4076L40.3216 64.1971C40.3216 64.1971 40.111 64.1445 39.9795 64.1445C40.0847 64.0918 40.1637 64.0392 40.2426 63.9602C40.5058 63.6445 40.4531 63.1971 40.1637 62.9339C39.611 62.4602 38.9795 61.9339 38.3479 62.3024C37.6637 62.7234 37.9005 63.5918 38.3479 65.4866C38.4268 65.8023 38.7163 66.0392 39.0584 66.0392C39.111 66.0392 39.1637 66.0392 39.2426 66.0392C39.2953 66.0392 39.3216 65.9866 39.3479 65.9602C39.19 66.0918 39.0847 66.2497 39.0847 66.4602L38.9795 67.7234C38.9795 67.7234 38.8479 67.7234 38.7953 67.7497C38.5321 67.8813 38.3742 68.1708 38.4005 68.4602L38.5321 69.776C38.5321 69.776 38.611 69.9339 38.6374 70.0129C38.5847 70.1445 38.5584 70.3024 38.5847 70.4603L39.8742 74.5918C39.9795 74.9076 40.2689 75.0918 40.5584 75.0918C40.6374 75.0918 40.69 75.0918 40.7689 75.0655L41.0058 75.5392C41.111 75.7497 41.3216 75.855 41.5321 75.9076C41.5847 76.0392 41.6374 76.1708 41.7426 76.2497C41.8479 76.3287 42.0058 76.3813 42.1374 76.3813C42.19 76.3813 42.2426 76.3813 42.3216 76.3813L42.7953 76.276C43.19 76.1708 43.4268 75.8024 43.3216 75.4076C43.2426 75.1181 43.0321 74.9076 42.7426 74.855L42.5584 73.6708L42.7953 74.2497C42.7953 74.2497 42.8479 74.3024 42.8479 74.3287C42.8742 74.5655 43.0058 74.8024 43.2426 74.9076C43.3479 74.9339 43.4268 74.9602 43.5321 74.9602C43.8216 74.9602 44.0847 74.8024 44.19 74.5129L44.2952 74.276C44.4005 74.0392 44.5321 73.776 44.611 73.4866C44.6374 73.3813 44.6637 73.2497 44.69 73.1445V73.3024C44.7426 73.6708 45.0584 73.9339 45.4268 73.9339C45.4268 73.9339 45.4795 73.9339 45.5058 73.9339C45.9005 73.8813 46.19 73.5392 46.1374 73.1445L45.9795 71.8024C45.9795 71.8024 45.9005 71.6445 45.8479 71.5655V71.3287C45.8479 71.1445 45.8216 70.9866 45.7163 70.855L44.8742 69.7497C44.69 69.5129 44.4268 69.4866 44.1374 69.5392C44.19 69.3813 44.2163 69.2497 44.2426 69.0655C44.2953 68.6181 44.3216 68.1181 44.3479 67.6181V67.0392C44.4005 66.6445 44.111 66.3024 43.7163 66.276V66.1971C43.7163 66.1971 43.7426 66.0655 43.7426 65.9602C44.0058 65.7497 44.0847 65.3813 43.9268 65.0655C43.7426 64.7234 43.4532 64.2497 43.0058 64.2234V61.776C43.0058 61.4339 42.7953 61.2234 42.4795 61.1181C42.611 61.0655 42.7163 61.0129 42.8216 60.8813C43.1637 60.4866 43.0847 60.1971 42.6374 58.3287C42.5847 58.1181 42.4532 57.9602 42.2953 57.8813C42.2953 57.855 42.2953 57.8023 42.2426 57.776C42.3479 57.8287 42.4531 57.9076 42.5584 57.9076L44.7953 57.855C45.19 57.855 45.5058 57.5129 45.5058 57.1181C45.5058 56.7234 45.1637 56.4076 44.7689 56.4076L42.5321 56.4602C42.1374 56.4602 41.8216 56.8023 41.8216 57.1971C41.8216 57.3287 41.9005 57.4339 41.9795 57.5392C41.8742 57.4866 41.7689 57.4076 41.6637 57.4076C41.5321 57.4076 41.4005 57.4076 41.2953 57.4076C41.4795 57.355 41.6374 57.2497 41.7163 57.0392C41.8742 56.6708 41.7163 56.2497 41.3479 56.0918L41.2426 56.0392C41.611 55.9339 41.8479 55.5918 41.7689 55.2234L41.4005 53.355C41.3216 52.9602 40.9532 52.6971 40.5584 52.776C40.3216 52.8287 40.1637 53.0129 40.0584 53.2234L39.69 53.0655L39.6374 51.4076C39.6374 51.0392 39.3479 50.8024 38.9795 50.7234C38.9795 50.6181 38.9268 50.4866 38.8742 50.4076L38.7953 50.3024L39.4795 50.9602C39.611 51.0918 39.7953 51.1445 39.9795 51.1445C40.111 51.1445 40.2426 51.1181 40.3742 51.0392C40.6637 50.855 40.7689 50.5129 40.6637 50.1971L40.19 48.8287C40.0847 48.5392 39.7689 48.3023 39.4531 48.355C39.2689 48.355 39.0847 48.4602 38.9532 48.5655C38.8479 48.5392 38.7426 48.5655 38.6374 48.5655C38.7426 48.4076 38.8479 48.1971 38.9005 47.8813C38.9531 47.6181 38.8216 47.3813 38.6374 47.2234C38.69 47.2234 38.7689 47.2234 38.8216 47.1708C39.1637 46.9602 39.2689 46.5129 39.0584 46.1708L38.1637 44.7234C38.0584 44.5655 37.9268 44.4866 37.7426 44.4339C37.7426 44.355 37.7163 44.276 37.6637 44.1971L37.9005 44.0392C38.2163 43.8023 38.2953 43.355 38.0847 43.0392C37.8479 42.7234 37.4005 42.6445 37.0847 42.855L36.9268 42.9602L37.0321 42.0129C37.2163 41.8287 37.3479 41.6181 37.2953 41.3813C37.2953 41.3287 37.2163 41.3023 37.19 41.276C37.2953 41.3287 37.4005 41.4076 37.5321 41.4076C37.611 41.4076 37.6637 41.3287 37.7426 41.3023C37.8742 41.4339 38.0584 41.5392 38.2689 41.5392C38.2689 41.5392 38.3216 41.5392 38.3479 41.5392L39.5321 41.4339C39.8742 41.4076 40.0847 41.1181 40.1374 40.8023C40.2163 40.8287 40.2953 40.855 40.4005 40.855C40.5321 40.855 40.6637 40.8287 40.7689 40.7497C41.111 40.5392 41.2163 40.0918 41.0058 39.7497L40.69 39.2234C40.5847 39.0655 40.4268 38.9602 40.2689 38.9076L40.7426 38.5918C40.7426 38.5918 40.7689 38.5129 40.8216 38.4866C40.9531 38.5918 41.111 38.6445 41.2689 38.6445C41.3216 38.6445 41.3742 38.6445 41.4268 38.6445L42.7953 38.3287C43.19 38.2234 43.4268 37.855 43.3216 37.4602C43.3216 37.4076 43.2689 37.4076 43.2426 37.355C43.4268 37.2234 43.69 37.1181 44.0058 36.9866C44.3742 36.8287 44.7689 36.6708 45.111 36.4339C45.2426 36.355 45.3216 36.1971 45.3479 36.0655C45.4795 36.0129 45.611 35.9076 45.69 35.7497C45.8742 35.4076 45.7426 35.0129 45.4268 34.8287L46.4005 34.355C46.6637 34.6445 47.0847 34.6708 47.4005 34.4339L48.4532 33.5918C48.69 33.4076 48.7953 33.0655 48.69 32.776C48.5847 32.4866 48.3216 32.3023 48.0058 32.3023H47.7689C47.9005 32.1971 48.0321 32.0918 48.1374 31.9866L49.3216 32.1181C49.4268 32.2497 49.5847 32.3813 49.7952 32.5129L48.2689 33.9866C47.9795 34.276 47.9795 34.7234 48.2689 35.0129C48.4005 35.1708 48.611 35.2234 48.7953 35.2234C48.9795 35.2234 49.1637 35.1445 49.2953 35.0129L50.9795 33.3813C51.2689 33.0918 51.2689 32.6445 50.9795 32.355H50.9268C51.111 32.3023 51.2163 32.1971 51.2952 32.0392C51.2952 32.0392 51.4005 31.9866 51.4795 31.9602C51.9005 32.3287 52.3742 32.6181 52.8742 32.9339C53.111 33.0655 53.3479 33.2234 53.5584 33.3813C53.69 33.4602 53.8216 33.5129 53.9532 33.5129C54.19 33.5129 54.4005 33.4076 54.5584 33.1971C54.7689 32.855 54.69 32.4076 54.3742 32.1971C54.2163 32.0918 54.0584 31.9866 53.9005 31.9076C53.9268 31.9076 53.9532 31.9076 54.0058 31.9076L55.6637 31.5129C56.0584 31.4076 56.2952 31.0392 56.19 30.6445C56.0847 30.2497 55.7163 30.0129 55.3216 30.1181L54.8479 30.2234C54.8479 30.2234 54.8479 30.1708 54.8216 30.1445C54.7689 30.0392 54.7163 29.9339 54.6374 29.855L54.2163 29.4602L55.7689 28.776C55.7689 28.776 55.8742 28.6708 55.9268 28.6181C56.0058 28.6708 56.0847 28.6708 56.1637 28.6971C55.8742 28.9866 55.69 29.3023 55.8742 29.7234C56.0584 30.0918 56.4005 30.1971 56.7163 30.1971C56.9531 30.1971 57.1637 30.1445 57.3216 30.1181C57.7163 30.0392 57.9795 29.6708 57.9005 29.276C57.9005 29.2234 57.9005 29.1971 57.8742 29.1445C57.9795 29.0655 58.0584 28.9866 58.1374 28.9076H59.611C60.0058 28.8813 60.3216 28.5392 60.3216 28.1445C60.3216 27.7497 59.9795 27.4339 59.5847 27.4339H57.8216C57.8216 27.4339 57.9005 27.3023 57.9268 27.2234C58.0847 27.1708 58.2426 27.0655 58.3216 26.8813L58.4531 26.5918L60.4795 25.5918C60.7953 25.4339 60.8742 25.1181 60.8216 24.8023C61.1637 24.4866 61.3479 24.1445 61.4532 23.7234C61.8479 23.6708 62.2426 23.5392 62.611 23.355C62.5847 23.4076 62.5321 23.4602 62.5058 23.5129L62.4005 23.8813C62.4005 23.8813 62.4005 24.1181 62.4531 24.2497C62.3742 24.1708 62.2953 24.0918 62.19 24.0392C61.8216 23.8813 61.4005 24.0392 61.2426 24.4339C60.9532 25.1181 60.6374 25.8813 61.19 26.355C61.3479 26.5129 61.5321 26.5655 61.7426 26.5655C62.2953 26.5655 63.0058 26.1181 64.19 25.3813C64.5321 25.1708 64.6374 24.7234 64.4268 24.3813C64.4005 24.3287 64.3479 24.3287 64.3216 24.3023C64.3216 24.3023 64.3479 24.3023 64.3742 24.3023C64.4795 24.3813 64.611 24.4339 64.7689 24.4339C64.8216 24.4339 64.8742 24.4339 64.9268 24.4339L66.1637 24.1708C66.1637 24.1708 66.2163 24.3023 66.2426 24.3287C66.3742 24.4602 66.5584 24.5392 66.7426 24.5392C66.8479 24.5392 66.9268 24.5392 67.0321 24.4866L68.2426 23.9602C68.2426 23.9602 68.3479 23.855 68.4005 23.8023C68.4005 23.8023 68.4268 23.8023 68.4531 23.8023C68.5847 23.8023 68.7426 23.7497 68.8742 23.6708L72.4268 21.2234C72.7426 20.9866 72.8479 20.5392 72.611 20.2234L73.0058 19.855C73.1637 19.6971 73.2163 19.4866 73.19 19.2497C73.2953 19.1708 73.4268 19.0655 73.4531 18.9339C73.5058 18.7497 73.4795 18.5392 73.3742 18.355L73.1111 17.9339C73.0058 17.776 72.8742 17.6971 72.7163 17.6445C72.7689 17.6445 72.8216 17.6708 72.8742 17.6445H73.3742C73.3479 17.8023 73.3742 18.0129 73.5058 18.1708C73.5847 18.3023 73.7163 18.355 73.8479 18.4076C73.8216 18.6445 73.8479 18.8813 74.0321 19.0392C74.0321 19.0392 74.0847 19.0392 74.111 19.0655C74.1374 19.1971 74.2163 19.3023 74.2952 19.4076C74.2952 19.4076 74.2952 19.6181 74.2689 19.7234C74.0321 19.7497 73.7952 19.855 73.69 20.0918L72.8742 21.8023C72.7952 21.9602 72.8216 22.1181 72.8742 22.2497L72.7426 22.3813C72.4795 22.6708 72.4795 23.0918 72.7426 23.355V23.4076C72.6637 23.7234 72.8479 24.0129 73.1374 24.1708C72.7689 24.8023 72.3742 25.3813 72.0058 25.7234C71.9268 25.7234 71.8479 25.7234 71.7953 25.7234C71.4005 25.8023 71.1637 26.1971 71.2426 26.5918C71.3216 26.9339 71.611 27.1708 71.9531 27.1708C72.0058 27.1708 72.0584 27.1708 72.111 27.1708L72.19 27.4076L71.4005 28.1971C71.4005 27.9602 71.2952 27.7234 71.0584 27.6181C70.7163 27.4339 70.2689 27.5655 70.0847 27.9339L69.0847 29.855C68.9005 30.1971 69.0321 30.6445 69.4005 30.8287C69.5058 30.8813 69.611 30.9076 69.7426 30.9076C70.0058 30.9076 70.2426 30.776 70.3742 30.5129L70.8742 29.5655C70.8742 29.5655 70.8742 29.6708 70.9268 29.6971C71.0584 29.8287 71.2426 29.9076 71.4531 29.9076C71.4531 29.9076 71.4795 29.9076 71.5058 29.9076C71.5058 30.0655 71.5584 30.2234 71.6637 30.3287L72.3479 31.0918C72.4795 31.2497 72.69 31.3287 72.9005 31.3287C72.9531 31.3287 73.0058 31.3287 73.0584 31.3287C73.1374 31.3287 73.2163 31.2497 73.2689 31.2234C73.2689 31.4339 73.3216 31.6181 73.4795 31.7497L73.2953 32.1445C73.2953 32.1445 73.2953 32.2234 73.2953 32.276C73.2163 32.3813 73.1111 32.5129 73.1111 32.6708V33.6445C72.7689 33.5392 72.4795 33.5655 72.2163 33.6971C71.69 33.9602 71.5321 34.5918 71.4005 35.1708C71.3479 35.355 71.2952 35.5655 71.2426 35.6971C71.1374 35.9339 71.2163 36.1708 71.3479 36.355C71.111 36.7497 70.9268 37.1971 70.7426 37.6708L70.69 37.5918C70.5321 37.4076 70.2952 37.276 70.0584 37.3023C69.8216 37.3023 69.5847 37.4602 69.4795 37.6708L69.3479 37.9076C69.3479 37.9076 69.111 37.8023 68.9531 37.8023C68.3742 37.7497 68.0058 38.2234 67.5058 39.1445C67.2689 39.0655 67.0321 39.0655 66.8479 39.2234C66.8479 39.2234 66.8479 39.1708 66.8479 39.1445L66.7689 39.0392C67.0847 38.4602 67.4268 37.9076 67.7426 37.3023C67.9795 36.855 68.0584 36.3287 68.1374 35.8287C68.1374 35.7497 68.1637 35.6971 68.1637 35.6181C68.3479 35.6181 68.5321 35.5392 68.6637 35.4076L70.0847 33.8813C70.3479 33.5918 70.3479 33.1445 70.0584 32.855C69.8742 32.6708 69.611 32.6181 69.3742 32.6971C69.3742 32.5655 69.2952 32.4339 69.19 32.3287C69.0321 32.1445 68.7689 32.0655 68.5321 32.1181L68.2953 32.1708C68.0584 32.2234 67.8479 32.3813 67.7689 32.5918L65.7952 37.3023C65.7163 37.4866 65.7163 37.6708 65.7952 37.8287C65.5058 38.3287 65.2426 38.8287 64.9531 39.3287C64.8216 39.5655 64.6637 39.8287 64.5321 40.0655L60.7689 36.9339C60.4795 36.6971 60.0584 36.7234 59.7952 36.9866C59.5321 37.2497 59.5058 37.6708 59.7689 37.9602L60.0847 38.355C60.9005 39.355 61.7689 40.3813 63.6637 41.6181C63.5058 41.9076 63.3742 42.2234 63.2426 42.5129L63.1374 42.6181C63.1374 42.6181 62.9795 42.8813 62.9532 43.0129C62.9532 43.0392 62.9005 43.0392 62.8742 43.0655V43.1445C62.7163 43.2497 62.5847 43.355 62.5584 43.5129L62.2163 44.6708L62.1374 44.8023L62.0321 45.0392C62.0321 45.0392 61.8479 45.1445 61.8216 45.2497L61.3479 46.4602C60.9005 47.1708 60.4531 47.9602 60.3479 48.8023C60.2163 48.8813 60.0584 48.9602 60.0058 49.1181L59.4005 50.3813C59.2689 50.6708 59.3742 50.9602 59.5847 51.1708C59.4795 51.2497 59.3742 51.3023 59.2953 51.4339C59.0321 51.4602 58.7953 51.5918 58.7163 51.855L57.5584 54.9076L56.5847 56.7234C56.4532 56.9602 56.5058 57.1971 56.6374 57.4076L56.2426 57.9339C56.111 57.9866 56.0058 58.0392 55.9268 58.1708L54.9532 59.8023C54.8479 59.9866 54.8216 60.1971 54.8742 60.3813C54.9005 60.4866 55.0058 60.5655 55.111 60.6445L55.0321 60.8813V60.9339C55.0321 60.9339 55.0058 60.9602 55.0058 60.9866C54.9795 61.1445 54.9005 61.2497 54.8479 61.3813C54.7689 61.2497 54.6374 61.1181 54.4795 61.0655L52.0321 60.355C51.6374 60.2497 51.2426 60.4602 51.1374 60.855C51.0321 61.2497 51.2426 61.6445 51.6374 61.7497L53.8479 62.3813L53.7953 62.8287C53.7689 63.0129 53.8216 63.1971 53.9268 63.355C53.8216 63.5392 53.7163 63.7234 53.5847 63.8813C53.4268 64.0918 53.2689 64.3287 53.1374 64.5392C52.7689 64.5129 52.4795 64.855 52.4795 65.2234L52.4268 66.9076C52.4268 66.9076 52.3742 66.9076 52.3742 66.9603L51.5847 68.6181C51.5847 68.6181 51.4532 68.6181 51.4268 68.6445C51.0584 68.776 50.8479 69.1971 50.9795 69.5655C51.0584 69.7497 51.19 69.9076 51.3742 69.9866C51.4532 70.0918 51.5847 70.2234 51.7689 70.355C51.5584 70.6708 51.3742 71.0129 51.19 71.3813C51.0321 71.2234 50.8479 71.0918 50.5847 71.1445C50.19 71.1971 49.9005 71.5655 49.9532 71.9602L50.111 73.0655H50.0584L49.7952 73.1445C49.4795 73.2497 49.1637 73.3287 48.8216 73.5129C48.5321 73.6445 48.4532 73.855 48.19 74.4339L48.0321 74.776C48.0321 74.776 48.0321 74.9076 48.0321 74.9866C47.9795 75.0392 47.9268 75.0392 47.9005 75.0918L47.6374 75.5918C47.6374 75.5918 47.5584 75.8024 47.5321 75.9339V76.6445C47.5321 76.8287 47.5847 76.9866 47.69 77.1181C47.4795 77.3813 47.3216 77.7234 47.1637 78.1445L46.8216 76.776C46.7163 76.3813 46.3479 76.1445 45.9531 76.2497C45.8742 76.2497 45.8216 76.355 45.7689 76.3813C45.69 76.2497 45.5847 76.1445 45.4268 76.0655L44.111 75.6181C43.9268 75.5392 43.7163 75.5655 43.5321 75.6708C43.3479 75.776 43.2163 75.9339 43.1637 76.1445L43.0584 76.6181C42.9005 76.5129 42.69 76.5129 42.4795 76.5655C42.3479 76.6181 42.2689 76.7234 42.19 76.8287C41.9795 76.7234 41.7163 76.6971 41.5058 76.8287C41.4795 76.8287 41.4531 76.8813 41.4268 76.9076C41.0584 76.8813 40.7163 77.1181 40.6637 77.4866C40.3742 79.1708 41.0321 80.7234 41.7163 82.3813L42.3742 82.0918L42.7163 81.855C42.4795 81.9866 42.3479 82.1971 42.3479 82.4603C42.3479 82.4866 42.2953 82.5129 42.2689 82.5655L41.9005 83.7497C41.7689 84.1181 41.9795 84.5392 42.3742 84.6708C42.4795 84.6971 42.5847 84.6708 42.69 84.6708C42.69 84.7497 42.69 84.8287 42.69 84.8813L42.9005 85.4076C42.9005 85.4076 42.9005 85.4076 42.8742 85.4076C42.5058 85.5392 42.2953 85.9339 42.4005 86.3287L45.2163 95.0918C45.3216 95.3813 45.5847 95.5918 45.8742 95.5918C46.1637 95.5918 46.4268 95.4076 46.5584 95.1181L50.3216 85.5129C50.5321 85.4602 50.7163 85.3287 50.8216 85.1181C51.0058 84.7497 50.8216 84.3287 50.4795 84.1445L50.2426 84.0392C50.3479 83.8287 50.4532 83.5918 50.4795 83.3287C50.7953 83.5655 51.2163 83.5392 51.4795 83.2234L51.9268 82.6971C52.0584 82.5129 52.1374 82.3024 52.0847 82.0655C52.0847 81.9603 51.9532 81.9076 51.9005 81.8287L52.69 80.355C52.69 80.355 52.69 80.1708 52.69 80.0918C52.9268 80.0655 53.1637 79.9339 53.2689 79.6971L54.0847 77.9866C54.1637 77.8287 54.1374 77.6708 54.0847 77.5392L54.2163 77.4076C54.4795 77.1181 54.4795 76.6971 54.2163 76.4339V76.3813C54.2953 76.0655 54.0847 75.776 53.8216 75.6181C54.19 74.9866 54.5847 74.4076 54.9532 74.0655C55.0321 74.0655 55.111 74.0655 55.1374 74.0655C55.5321 73.9866 55.7953 73.5918 55.69 73.1971C55.611 72.8024 55.2426 72.5392 54.8216 72.6445L54.7426 72.3813L55.5321 71.5918C55.5321 71.8287 55.6374 72.0655 55.8742 72.1708C55.9795 72.2234 56.0847 72.2497 56.2163 72.2497C56.4795 72.2497 56.7163 72.1181 56.8479 71.855L57.8479 69.9339C58.0321 69.5918 57.9005 69.1445 57.5321 68.9602C57.19 68.776 56.7426 68.9076 56.5584 69.276L56.0584 70.2234C56.0584 70.2234 56.0584 70.1181 56.0058 70.0918C55.8479 69.9339 55.6374 69.8813 55.4268 69.9076C55.4268 69.7497 55.3742 69.5918 55.2689 69.4602L54.5847 68.6971C54.4005 68.5129 54.1374 68.4076 53.9005 68.4602C53.8216 68.4602 53.7426 68.5392 53.6637 68.5655C53.6637 68.355 53.611 68.1708 53.4532 68.0392L53.6374 67.6445C53.6374 67.6445 53.6374 67.5655 53.6374 67.5129C53.7163 67.4076 53.8216 67.276 53.8216 67.1181V66.1445C53.9795 66.1971 54.111 66.2234 54.2163 66.2234C54.3742 66.2234 54.5584 66.1971 54.69 66.1181C55.2163 65.855 55.3742 65.2234 55.5058 64.6708C55.5584 64.4866 55.611 64.276 55.6637 64.1445C55.7689 63.9076 55.69 63.6708 55.5584 63.4866C55.7953 63.0918 55.9795 62.6445 56.1637 62.1708L56.2163 62.2497C56.3479 62.4339 56.5584 62.5392 56.7952 62.5392C56.7952 62.5392 56.8216 62.5392 56.8479 62.5392C57.0847 62.5392 57.3216 62.3813 57.4268 62.1708L57.5584 61.9339C57.5584 61.9339 57.7163 61.9866 57.7953 62.0129C57.5584 62.3287 57.6374 62.7497 57.9532 62.9866C58.0584 63.0918 58.2163 63.1181 58.3742 63.1181C58.611 63.1181 58.8742 63.0129 59.0321 62.8024C59.0847 62.7497 59.1374 62.6708 59.19 62.6181C58.9795 63.0392 58.9005 63.5392 58.8216 64.0129C58.8216 64.0918 58.7953 64.1445 58.7953 64.2234C58.6374 64.2234 58.4795 64.276 58.3479 64.3813C58.0847 64.2234 57.7689 64.1971 57.5321 64.3813L57.0584 64.7497C56.7426 65.0129 56.69 65.4602 56.9531 65.776C56.9531 65.776 56.9531 65.776 56.9795 65.776L56.8216 65.9339C56.5584 66.2234 56.5584 66.6708 56.8479 66.9603C57.0321 67.1445 57.2953 67.1971 57.5321 67.1181C57.5321 67.2497 57.611 67.3813 57.7163 67.4866C57.8479 67.6445 58.0321 67.7234 58.2426 67.7234C58.2953 67.7234 58.3216 67.7234 58.3742 67.7234L58.611 67.6708C58.8479 67.6181 59.0584 67.4602 59.1374 67.2497L61.111 62.5392C61.19 62.355 61.19 62.1708 61.111 61.9866C61.1637 61.8813 61.2426 61.776 61.2952 61.6708C62.0584 61.9339 62.8742 62.1971 63.2953 62.355C63.4005 62.4602 63.5584 62.5392 63.7426 62.5655C63.7689 62.5655 63.7952 62.5655 63.8216 62.5655C64.1637 62.5655 64.5584 62.3287 64.611 61.9866C64.69 61.5655 64.7163 61.3813 63.9795 61.0655L65.0584 61.1971C65.0584 61.1971 65.111 61.1971 65.1374 61.1971C65.5058 61.1971 65.8216 60.9339 65.8479 60.5655C65.9005 60.1708 65.611 59.8023 65.2163 59.7497L62.7689 59.4602C62.7689 59.4602 62.5584 59.5129 62.4795 59.5392C62.7426 59.0918 62.9795 58.6708 63.2426 58.1971C63.4005 57.9076 63.5321 57.5918 63.69 57.3024L63.5847 56.8813ZM34.611 16.355C34.611 16.355 34.5058 16.2497 34.4268 16.2234H34.4005C34.4005 16.2234 34.4005 16.1708 34.4005 16.1445L34.6374 16.355H34.611ZM16.19 52.276C16.19 52.276 16.1637 52.2497 16.1374 52.2497L15.8479 52.1971C15.8479 52.1971 15.7953 52.1445 15.7426 52.1181C15.8479 52.0129 15.9268 51.8813 15.9532 51.7234C15.9532 51.5392 15.9005 51.3813 15.7953 51.2497L16.19 51.0129C16.19 51.0129 16.2689 51.0655 16.2953 51.0655C16.19 51.3023 16.1637 51.5655 16.3479 51.776C16.4268 51.855 16.5321 51.8813 16.6374 51.9076L16.19 52.276ZM17.7953 48.3287C17.9268 48.5392 18.111 48.7234 18.3742 48.7234C18.4005 48.7234 18.4532 48.7234 18.4795 48.7234L19.111 48.6181C19.0847 48.7497 19.0584 48.9076 19.111 49.0655C18.7953 49.2234 18.4795 49.4076 18.1637 49.5918C18.0847 49.5392 18.0584 49.4339 17.9532 49.4076L17.5321 49.276C17.5321 49.276 17.5847 49.2234 17.6374 49.1708C17.9005 48.9602 17.9268 48.6181 17.7953 48.3287ZM10.8479 52.8287C10.8479 52.8287 10.7953 52.9339 10.8216 52.9866C10.8742 53.3023 11.1637 53.4602 11.4531 53.5129L11.0321 54.1708L10.9268 54.3287C10.7689 54.5918 10.7689 54.9076 10.9532 55.1708C11.0847 55.355 11.2953 55.4602 11.5321 55.4602C11.5321 55.4602 11.5847 55.4602 11.611 55.4602L11.7689 55.5918L7.40053 54.3023L10.8479 52.8813V52.8287ZM17.0058 54.9076H16.9531C16.9531 54.9076 16.9005 54.855 16.9005 54.8287L17.3216 54.8813C17.3216 54.8813 17.1111 54.855 17.0321 54.8813L17.0058 54.9076ZM38.5058 37.6445C38.7953 37.355 38.7953 36.9076 38.5058 36.6181C38.5058 36.6181 38.5058 36.6181 38.4795 36.6181L41.1637 34.7497L41.4795 34.6971L41.2163 34.9866C41.2163 34.9866 41.1637 35.1445 41.111 35.2234L40.0584 35.7497C39.69 35.9339 39.5584 36.355 39.7426 36.7234C39.7953 36.8287 39.9005 36.9339 39.9795 36.9866C39.9268 36.9866 39.8479 36.9866 39.7953 37.0129L37.5321 38.4866C37.2953 38.6445 37.2426 38.8813 37.2426 39.1445C37.2426 39.1445 37.2163 39.1445 37.19 39.1708L36.7953 38.8287C37.3216 38.5918 37.9005 38.2497 38.5058 37.6445ZM57.7163 23.5129C57.7163 23.5129 57.7953 23.6971 57.9005 23.7497L57.9795 23.8023L57.8216 23.8813C57.8216 23.8813 57.7426 24.0129 57.69 24.0655C57.7689 23.8813 57.7953 23.7234 57.7163 23.5129ZM66.0321 20.4076L66.7953 19.9602L66.611 20.276C66.611 20.276 66.4268 20.355 66.3742 20.4339L66.2952 20.5655C66.2952 20.5655 66.1374 20.4339 66.0584 20.4076H66.0321ZM57.4005 24.4602L57.4795 24.3813C57.4795 24.3813 57.4795 24.4866 57.4795 24.5655H57.4531L57.3742 24.4602H57.4005ZM52.69 28.4866C52.69 28.4866 52.69 28.5918 52.69 28.6445C52.5584 28.7497 52.4531 28.855 52.4268 29.0129C52.4005 29.1181 52.4268 29.2497 52.4268 29.355H52.0321C52.0321 29.355 51.8742 29.4866 51.7689 29.5129C51.7689 29.4076 51.7689 29.3023 51.7163 29.1971L51.9795 28.8023C51.9795 28.8023 51.9795 28.7234 51.9795 28.6971L52.6637 28.4602L52.69 28.4866ZM50.3216 30.1181V30.0655L50.5321 30.1181C50.5321 30.1181 50.5321 30.1181 50.5321 30.1445C50.5321 30.1445 50.5321 30.1445 50.5058 30.1445C50.4531 30.1445 50.4005 30.0918 50.3479 30.0918L50.3216 30.1181ZM49.4795 28.855L49.4005 28.9339L49.4532 28.8287L49.4795 28.855ZM32.5584 27.9866C32.4268 28.1181 32.3216 28.3023 32.3216 28.4866L32.2426 29.7234L31.9795 28.5392C31.9795 28.5392 31.8479 28.3287 31.7689 28.2497C31.7689 28.1971 31.8216 28.1708 31.7953 28.1445L31.7163 27.0392C31.9532 27.4602 32.2426 27.776 32.5584 27.9602C32.5584 27.9602 32.5584 27.9866 32.5584 28.0129V27.9866ZM32.7163 31.8287L32.5584 31.0918C32.5584 31.0918 32.6637 31.1708 32.7426 31.1708C32.7426 31.355 32.7953 31.5392 32.8216 31.7234V31.776C32.7953 31.776 32.7689 31.776 32.7426 31.8023L32.7163 31.8287ZM31.4795 26.5392C31.4795 26.5392 31.2953 26.4339 31.19 26.3813C31.2426 26.3813 31.2953 26.3813 31.3479 26.3813C31.3479 26.3813 31.3479 26.355 31.4005 26.3287C31.4268 26.4076 31.4532 26.4602 31.5058 26.5392H31.4795ZM35.0584 35.355L34.8742 35.6971C34.7953 35.6971 34.7689 35.8023 34.7163 35.8287C34.4795 35.2497 34.4005 34.7497 34.4005 34.276C34.5058 34.3287 34.5847 34.4076 34.69 34.4076C34.7953 34.4076 34.8742 34.355 34.9795 34.3023C34.9795 34.3023 35.0058 34.3023 35.0321 34.3023C35.0321 34.3023 35.0321 34.3023 35.0584 34.3023L35.3479 35.0655C35.3479 35.0655 35.1374 35.1971 35.0584 35.3023V35.355ZM32.5058 34.4866C32.5058 34.4866 32.7163 34.4866 32.8216 34.4076C32.8742 34.3813 32.9005 34.3287 32.9532 34.276C32.9532 34.9339 33.0584 35.6708 33.4531 36.5655C33.4005 36.5655 33.3479 36.5655 33.3216 36.5918L33.0847 35.7234C33.0058 35.4602 32.7953 35.3287 32.5847 35.276C32.5584 35.0129 32.5058 34.7234 32.5058 34.4602V34.4866ZM29.1111 42.9339C29.1111 42.9339 29.0584 42.9339 29.0584 42.9076C29.2163 42.776 29.3742 42.6445 29.5058 42.5129C29.3216 42.6708 29.2163 42.9076 29.19 43.1445C29.19 43.0655 29.1637 43.0129 29.1111 42.9339ZM30.2426 41.3287C30.2426 41.3287 30.3216 41.276 30.3479 41.276C30.4531 41.3287 30.5584 41.3813 30.6637 41.3813C30.7163 41.3813 30.7689 41.3813 30.8216 41.3813L32.0321 41.0918L30.9795 41.6971C30.9795 41.6971 30.8216 41.8813 30.7689 41.9866C30.7163 41.9866 30.69 41.9866 30.6374 41.9866L29.5847 42.4076C29.9268 42.0655 30.111 41.7234 30.2163 41.355L30.2426 41.3287ZM31.69 38.5392C31.6637 38.6971 31.6637 38.8287 31.69 38.9866C31.69 38.9866 31.69 38.9339 31.6374 38.9076C31.6374 38.9076 31.5847 38.9076 31.5584 38.9076C31.5584 38.8287 31.5584 38.776 31.5058 38.6971C31.5058 38.6708 31.4531 38.6445 31.4268 38.6181L31.69 38.5392ZM41.0847 59.5655L41.0058 59.6181V59.4339C41.0058 59.4339 40.9268 59.4076 40.9268 59.3813C41.0321 59.4602 41.1637 59.4866 41.2689 59.4866C41.19 59.5129 41.111 59.4866 41.0584 59.5655H41.0847ZM40.4268 58.9339L40.5584 58.855L40.611 58.9602C40.611 58.9602 40.5058 58.9602 40.4268 58.9339ZM41.8479 68.3023L42.0584 69.1708L41.8216 68.9076C41.8216 68.9076 41.8216 68.6971 41.7426 68.6181L41.6374 68.4866C41.6374 68.4866 41.7952 68.3813 41.8479 68.3023ZM37.9795 52.3813C37.9795 52.3813 38.0584 52.3813 38.0847 52.4339V52.9602C37.9005 52.776 37.69 52.5129 37.4532 52.0129C37.5058 52.0129 37.5321 52.0392 37.5847 52.0392C37.611 52.0392 37.6374 52.0392 37.69 52.0392L37.9795 52.4076V52.3813ZM35.8216 57.9076C35.8216 57.9076 35.9005 57.8024 35.9268 57.7234C36.0321 57.8024 36.1374 57.8813 36.2689 57.9076C36.3216 57.9076 36.3742 57.9076 36.4005 57.9076C36.4531 58.0129 36.4795 58.1445 36.5321 58.2234L36.4531 58.5129H36.4005L35.8216 57.8813V57.9076ZM53.4268 26.1708C53.3742 26.3813 53.4005 26.5918 53.5058 26.7497C53.4795 26.776 53.5058 26.8287 53.4532 26.8813C53.3742 26.8813 53.3216 26.8287 53.2689 26.8287C53.2689 26.6445 53.2426 26.4866 53.1374 26.355L53.4532 26.1971L53.4268 26.1708ZM36.9268 36.776C36.9795 36.8287 37.0321 36.855 37.0847 36.9076C36.7689 37.1708 36.4531 37.355 36.1637 37.4866L35.9268 36.7497V36.6971L36.2163 36.4866C36.3216 36.5655 36.4005 36.6708 36.5321 36.6708L36.9268 36.7234V36.776ZM28.4268 15.0655C28.4005 14.9076 28.3742 14.7497 28.3216 14.5918L28.7953 15.1708C28.7953 15.1708 28.5584 15.0392 28.4268 15.0655ZM27.3742 8.96024H27.3216C27.3216 8.96024 27.19 8.96024 27.1374 9.01287L26.2426 9.56551C26.2426 9.56551 26.2426 9.59182 26.2163 9.59182C26.1374 9.59182 26.0321 9.53919 25.9795 9.53919L25.2426 7.35498L27.3742 8.93393V8.96024ZM26.3742 11.5392L26.4005 11.7497C26.4005 11.7497 26.4005 11.776 26.4005 11.8023L26.2953 11.5655C26.2953 11.5655 26.3216 11.5655 26.3479 11.5655L26.3742 11.5392ZM29.9532 12.7497C29.9532 12.7497 29.9268 12.6971 29.9005 12.6708C29.9268 12.6708 29.9795 12.6708 30.0058 12.6971C29.9795 12.6971 29.9531 12.7497 29.9268 12.7497H29.9532ZM36.2163 55.2497L36.3216 53.5392C36.3216 53.5392 36.2689 53.3813 36.2426 53.276C36.2953 53.3023 36.3479 53.3813 36.4268 53.4076C36.4795 53.4076 36.5058 53.4076 36.5584 53.4076C36.7689 53.6971 36.9532 53.9076 37.1374 54.0655L37.19 54.4866C37.19 54.4866 37.0321 54.5655 36.9795 54.6181C36.8216 54.776 36.7426 55.0129 36.7426 55.2497C36.7426 55.5918 37.0058 55.855 37.3479 55.9076V56.0129C37.3479 56.0918 37.4268 56.1445 37.4532 56.1971C37.3742 56.2497 37.3479 56.3287 37.2953 56.4076C37.2426 56.3287 37.2163 56.2497 37.1637 56.1708C37.111 56.0655 37.0058 55.9866 36.8742 55.9339C36.8742 55.9339 36.8216 55.9076 36.7953 55.8813C36.7426 55.8813 36.7163 55.8023 36.6637 55.8023C36.4005 55.7497 36.1637 55.7234 35.9532 55.6971C36.0847 55.5655 36.1637 55.4076 36.1637 55.2234L36.2163 55.2497ZM40.7689 65.4602C40.7689 65.4602 40.6637 65.4339 40.611 65.4602C40.611 65.4602 40.5847 65.4866 40.5584 65.5129L40.6374 65.0392C40.6637 65.1971 40.7163 65.3287 40.7426 65.4866L40.7689 65.4602ZM40.0058 54.2497L40.0847 54.6181C39.9005 54.5129 39.69 54.4602 39.5058 54.5129C39.5058 54.4866 39.4268 54.4602 39.4005 54.4339C39.4268 54.3813 39.4795 54.3287 39.5058 54.276C39.5847 54.3023 39.6637 54.3287 39.7426 54.3287C39.8479 54.3287 39.9268 54.276 40.0058 54.2497ZM37.7689 48.6708C37.8216 48.6708 37.8479 48.6708 37.9005 48.6708C37.9005 48.7234 37.8479 48.776 37.8479 48.855L37.7426 48.6971L37.7689 48.6708ZM52.69 30.8023C52.8216 30.8023 52.9268 30.6971 53.0058 30.6181C53.0058 30.7234 52.9268 30.8023 52.9531 30.9339C52.9531 30.9866 53.0058 31.0129 53.0321 31.0392C52.9005 30.9602 52.7953 30.8813 52.69 30.8023ZM63.5584 22.3023C63.5584 22.3023 63.5584 22.4076 63.5584 22.4602C63.5584 22.4602 63.5847 22.4602 63.611 22.5129L63.1637 22.5655C63.1637 22.5655 63.4268 22.4076 63.5584 22.3287V22.3023ZM62.4268 24.0918C62.4268 24.0918 62.5058 24.1445 62.5321 24.1708C62.5321 24.1708 62.4795 24.1708 62.4795 24.1971C62.4795 24.1445 62.4531 24.1181 62.4268 24.0918ZM50.6637 80.1971C50.6637 79.8813 50.5321 79.5918 50.2163 79.4866C49.8479 79.355 49.4268 79.5655 49.2953 79.9339L49.0321 80.6971C49.0321 80.6971 49.0321 80.8813 49.0321 80.9866L48.2953 81.9866L48.7689 79.4603C48.7689 79.4603 48.9532 79.4603 48.9795 79.4339C49.2426 79.355 49.3742 79.1708 49.4268 78.9339L49.8216 78.8024L49.9268 79.1445C50.0321 79.4339 50.2689 79.6181 50.5584 79.6445C50.5584 79.6445 50.5847 79.6445 50.611 79.6445C50.7163 79.6445 50.8216 79.5918 50.9268 79.5392L50.5847 80.1971H50.6637ZM45.5058 87.9339L45.4532 87.9866V87.9339H45.5058ZM50.5321 76.2497C50.5321 76.2497 50.5321 76.1708 50.5321 76.1445C50.5321 76.2497 50.5847 76.3287 50.5847 76.4339C50.5847 76.5129 50.5584 76.6445 50.5321 76.776V76.9866L50.2426 77.1708L50.0584 77.2234L50.5058 76.2497H50.5321ZM45.111 80.4866C45.111 80.4602 45.111 80.4339 45.111 80.3813C45.111 80.4076 45.111 80.4339 45.111 80.4602V80.4866ZM51.8479 75.276C51.8479 75.1445 51.8479 74.9866 51.8479 74.855C51.9005 74.9339 51.9531 74.9866 52.0058 75.0392C51.9531 75.1181 51.9005 75.1971 51.8479 75.3024V75.276ZM43.9005 78.9602C43.9005 78.9602 43.7163 79.1971 43.69 79.355C43.69 79.5655 43.69 79.776 43.6637 79.9866C43.5847 79.6181 43.5058 79.276 43.4268 78.9866C43.5584 78.8813 43.6374 78.7497 43.6637 78.5918L43.8742 78.9339L43.9005 78.9602ZM52.4268 77.1708L52.2163 77.5918L52.1637 77.4076C52.2426 77.3024 52.3216 77.1708 52.4005 77.0655C52.4005 77.0918 52.4005 77.1445 52.4005 77.1708H52.4268ZM76.0584 22.6181C76.0584 22.6181 76.0584 22.6971 76.0584 22.7234C76.0584 22.6181 76.0058 22.5392 76.0058 22.4339C76.0058 22.355 76.0321 22.2234 76.0584 22.1181C76.0584 22.0392 76.0584 21.9602 76.0847 21.9076L76.3479 21.7234L76.5321 21.6708L76.0847 22.6445L76.0584 22.6181ZM79.6374 16.1708H79.6637L79.7163 16.1445C79.7163 16.1445 79.6637 16.1445 79.6374 16.1708ZM76.8742 18.4076C77.0584 18.3813 77.2163 18.3023 77.3216 18.1445L77.3742 18.0918C77.6374 17.9076 77.9005 17.7234 78.1374 17.5392L77.7953 19.3813C77.7953 19.3813 77.6374 19.4076 77.5584 19.4339C77.2952 19.5129 77.1637 19.6971 77.0847 19.9339L76.69 20.0655L76.5847 19.7234C76.5058 19.4339 76.2426 19.2497 75.9531 19.2234C75.8216 19.2234 75.69 19.2234 75.5847 19.3023L75.7952 18.9076C76.1637 18.776 76.5321 18.5918 76.8742 18.3813V18.4076ZM74.7426 23.5918C74.7426 23.7234 74.7426 23.8813 74.7426 24.0392C74.69 23.9602 74.6374 23.9076 74.5584 23.855C74.611 23.776 74.6637 23.6708 74.7163 23.5918H74.7426ZM76.5584 13.6971C76.5584 13.6708 76.5847 13.6445 76.5584 13.5918V13.6708V13.6971ZM75.5321 15.276C75.5321 15.276 75.69 15.3813 75.7952 15.3813C75.8479 15.3813 75.9005 15.3813 75.9531 15.3813C76.111 15.355 76.2689 15.3023 76.4005 15.276H76.4531C76.1637 15.4602 75.9005 15.6181 75.69 15.7497C75.5584 15.6445 75.4005 15.5918 75.2426 15.6181L75.5321 15.3023V15.276ZM74.1637 21.7234L74.3742 21.3023L74.4268 21.4602C74.3479 21.5655 74.2689 21.6971 74.19 21.8023C74.19 21.776 74.19 21.7497 74.19 21.7234H74.1637ZM65.0584 49.6708C65.0584 49.6708 64.9268 49.7234 64.9005 49.776C64.8479 49.855 64.8216 49.9076 64.7953 49.9339C64.7426 49.9339 64.6637 49.9076 64.611 49.8813C64.5584 49.5918 64.3742 49.3287 64.0584 49.3023C64.0058 49.0918 63.9268 48.9076 63.7163 48.8023C63.6374 48.7497 63.5321 48.8024 63.4268 48.776V48.5918C63.4268 48.5918 63.5058 48.5918 63.5321 48.5655C63.6374 48.5129 63.69 48.4076 63.7689 48.3023C63.8216 48.3023 63.8742 48.355 63.9531 48.355C64.0584 48.355 64.1637 48.3287 64.2426 48.276L64.19 48.8287C64.1637 49.1445 64.3216 49.4339 64.611 49.5655C64.7163 49.6181 64.7953 49.6181 64.9005 49.6181C64.9531 49.6181 65.0058 49.5655 65.0584 49.5392C65.0584 49.5392 65.0584 49.5918 65.0847 49.6181C65.0847 49.6181 65.0847 49.6181 65.0847 49.6445L65.0584 49.6708ZM64.5584 47.4339C64.5584 47.4339 64.5584 47.355 64.5584 47.3023C64.611 47.3023 64.6374 47.3023 64.69 47.276L64.5847 47.4339H64.5584ZM61.5321 49.2497C61.5321 49.2497 61.6637 49.1708 61.69 49.0918C61.7426 49.0129 61.7689 48.9602 61.7953 48.9339C61.8479 48.9339 61.9268 48.9602 61.9795 48.9866C62.0321 49.2497 62.19 49.4339 62.4531 49.5129L62.3479 49.6971C62.2689 49.5392 62.1637 49.4076 62.0058 49.3287C61.8479 49.2497 61.69 49.2497 61.5321 49.3023C61.5321 49.3023 61.5321 49.3023 61.5321 49.276V49.2497ZM57.6637 58.4602L58.611 57.3287C58.611 57.3287 58.5321 57.5918 58.4795 57.7497C58.4005 58.0129 58.4795 58.276 58.6637 58.4866L58.7953 58.6181C58.7953 58.6181 58.5584 58.6708 58.4531 58.7497C58.1374 58.6445 57.8479 58.5392 57.6374 58.4602H57.6637ZM77.1637 24.5655C77.1637 24.5655 77.1374 24.5655 77.111 24.5655L77.3216 24.1445H77.3479L77.3216 24.2497C77.2689 24.355 77.2163 24.4602 77.19 24.5655H77.1637ZM79.7952 19.1445C79.7952 19.1445 79.6111 19.1181 79.5058 19.1445L80.0584 18.276L80.111 18.4602C80.111 18.4602 80.0058 18.5392 79.9795 18.6181C79.9005 18.855 79.8479 19.0129 79.7952 19.1445ZM83.1637 8.96024L81.9795 12.1445C81.9795 12.1445 81.8479 12.0655 81.7689 12.0392V11.8287C81.8742 11.5129 81.69 11.1971 81.4268 11.0392C81.2426 10.9602 81.0584 10.9602 80.9005 11.0392C80.8216 10.9866 80.7689 10.9076 80.6637 10.8813C80.5847 10.8813 80.5584 10.9076 80.4795 10.9076C80.5321 10.8813 80.5847 10.8287 80.6374 10.8023L83.1637 8.96024ZM68.3479 39.8813C68.4795 39.6181 68.5847 39.4339 68.6637 39.2497C68.7163 39.3023 68.8216 39.3287 68.9005 39.3813C68.7163 39.6708 68.7689 40.0392 69.0058 40.276L67.7426 41.8023C67.5584 41.7497 67.4005 41.7497 67.2426 41.8287C67.2426 41.8287 67.1637 41.7234 67.1374 41.6708L67.3479 41.355L67.0584 41.1708C67.0584 41.0129 67.0321 40.855 66.9005 40.6971C67.0321 40.4866 67.1637 40.3023 67.2952 40.1445C67.2952 40.1445 67.3216 40.1971 67.3479 40.1971C67.4532 40.2497 67.5584 40.276 67.6637 40.276C67.9268 40.276 68.19 40.1181 68.3216 39.8813H68.3479ZM49.4005 74.3024C49.4005 74.3024 49.4268 74.3024 49.4532 74.3024L49.2426 74.7234H49.2163L49.2689 74.6181C49.3216 74.5129 49.3742 74.4076 49.4005 74.3287V74.3024ZM61.9005 59.9076C61.9005 59.9076 61.8742 59.9076 61.8479 59.9076C61.8479 59.9076 61.8479 59.8813 61.8479 59.855C61.8479 59.855 61.8479 59.8813 61.8479 59.9076H61.9005Z" fill="#EB1807"/>
<path d="M83.9012 61.013C83.9538 61.1709 84.059 61.3024 84.2169 61.4077C84.4011 61.513 84.6643 61.6972 84.9538 61.6972C85.138 61.6972 85.3222 61.6182 85.4801 61.4077C85.9012 60.8551 85.6117 60.6182 84.4538 59.5656C84.4275 59.4866 84.4012 59.3814 84.3485 59.3287C84.3485 59.3287 84.4275 59.1709 84.4275 59.0656C84.638 58.9077 84.7433 58.6445 84.6906 58.3814C84.5854 57.8551 83.4011 57.013 82.9011 56.934C82.559 56.8814 82.2696 57.0656 82.138 57.3551C82.0591 57.5393 82.0854 57.7235 82.138 57.9077C82.0591 58.1445 82.059 58.434 82.2433 58.6182L82.4538 58.8551C82.3485 59.1182 82.3485 59.4077 82.5591 59.6182L82.6906 59.7498C82.717 59.9603 82.8485 60.1445 83.0591 60.2498L83.2433 60.3551C83.2433 60.3551 83.5327 60.513 83.717 60.5393L83.6117 60.7498C83.6117 60.7498 83.8485 60.9603 83.9275 61.0393L83.9012 61.013Z" fill="#EB1807"/>
<path d="M58.6638 39.4865L59.7691 40.9339C59.9006 41.1181 60.1375 41.2233 60.348 41.2233C60.5059 41.2233 60.6638 41.1707 60.7954 41.0654C61.1112 40.8286 61.1638 40.3549 60.9269 40.0391L59.8217 38.5918C59.5848 38.276 59.1112 38.2233 58.7954 38.4602C58.4796 38.697 58.4269 39.1707 58.6638 39.4865Z" fill="#EB1807"/>
<path d="M44.5591 60.3549C44.638 60.6971 44.9275 60.9076 45.2696 60.9076C45.3222 60.9076 45.3749 60.9076 45.4275 60.9076L46.6906 60.6181L47.0854 60.7234C47.4801 60.8286 47.8749 60.6181 47.9801 60.2234C48.0591 59.9339 47.9275 59.6971 47.717 59.5128C47.717 59.2497 47.638 59.0128 47.4012 58.8813L46.717 58.4865C46.5328 58.3813 46.3485 58.3813 46.1643 58.4076L46.0591 58.3286C45.7433 58.0918 45.2959 58.1707 45.0591 58.4865C44.8222 58.8023 44.9012 59.1971 45.1906 59.4602H45.1117C44.717 59.5655 44.4801 59.9602 44.5591 60.3286V60.3549Z" fill="#EB1807"/>
<path d="M82.2697 63.2496L80.3487 62.8549C80.3487 62.8549 80.1118 62.8812 80.0066 62.9075C79.9539 62.5917 79.7434 62.3022 79.4539 62.2233C78.4539 61.9075 77.8224 62.0128 77.6118 62.5391C77.4802 62.8812 77.7434 63.4075 78.0592 63.5654C78.1381 63.618 78.2434 63.6443 78.3223 63.6443C78.6118 63.6707 78.875 63.697 79.1118 63.697C79.2697 63.697 79.4013 63.6443 79.5329 63.618C79.5592 63.9075 79.7434 64.197 80.0592 64.2496L81.9802 64.6443C81.9802 64.6443 82.0855 64.6443 82.1118 64.6443C82.4539 64.6443 82.7434 64.4075 82.8223 64.0654C82.9013 63.6707 82.6381 63.3022 82.2697 63.2233V63.2496Z" fill="#EB1807"/>
<path d="M89.7163 64.5128L89.2163 64.3549C89.0321 64.3022 88.8742 64.3285 88.7163 64.3812H88.3216C88.0847 64.3022 87.8742 64.4601 87.7163 64.6443C87.3742 64.5654 86.8479 64.4864 86.0584 64.3812L85.9531 65.0917L86.0057 65.8285C86.6373 65.9338 87.0058 65.9864 87.2426 66.0128C87.3742 66.118 87.5321 66.1707 87.69 66.1707C87.7952 66.1707 87.9005 66.1707 88.0058 66.0917C88.1373 66.0391 88.2163 65.9075 88.2952 65.8022L89.4005 65.9075C89.4005 65.9075 89.4531 65.9075 89.4794 65.9075C89.8215 65.9075 90.111 65.6707 90.19 65.3285C90.2689 64.9601 90.0321 64.5917 89.69 64.4864L89.7163 64.5128Z" fill="#EB1807"/>
<path d="M85.2164 64.1708L83.6637 63.8813C83.269 63.8287 82.9006 64.0655 82.8216 64.4602C82.7427 64.855 83.0058 65.2234 83.4006 65.3024L84.5848 65.5129C84.5848 65.5129 84.6901 65.5918 84.769 65.6181C84.8743 65.6708 84.9795 65.6971 85.0848 65.6971C85.2953 65.6971 85.4795 65.6181 85.6111 65.4602C85.8216 65.276 85.9269 64.9602 85.8479 64.7234C85.769 64.4602 85.5058 64.2234 85.2427 64.1708H85.2164Z" fill="#EB1807"/>
<path d="M52.454 57.8023L48.4014 57.3287C48.033 57.3023 47.6909 57.5392 47.6119 57.9076C47.533 58.276 47.7698 58.6444 48.1119 58.7497L48.5856 58.8813C49.954 59.276 51.3751 59.6708 52.8751 59.6708C53.0593 59.6708 53.2435 59.6708 53.4277 59.6708C53.6909 59.6708 53.9014 59.5129 54.033 59.276C54.0856 59.1708 54.1119 59.0655 54.1119 58.9602L54.9014 58.9076L54.7961 57.4602L52.9277 57.5918C52.7435 57.5918 52.5856 57.6971 52.454 57.8023Z" fill="#EB1807"/>
<path d="M76.3755 62.1707L75.2965 61.8549C74.9808 61.7759 74.7176 61.9338 74.5334 62.1707C74.3755 61.8286 74.0334 61.6444 73.665 61.7759C73.4808 61.8286 73.3755 61.8549 72.4018 61.6707C72.5334 61.5128 72.6123 61.3023 72.586 61.0917C72.5071 60.697 72.165 60.4338 71.7439 60.5128L71.1913 60.6181C70.8492 60.6707 70.665 60.9865 70.665 61.3023L67.3755 61.2233C67.0597 61.197 66.7176 61.4602 66.6386 61.8286C66.5597 62.197 66.7702 62.5128 67.1123 62.6444L67.4018 62.7496C67.4018 62.8812 67.4281 63.0128 67.5071 63.1444C67.6386 63.3549 67.8755 63.4865 68.1123 63.4865C68.2439 63.4865 68.3755 63.4602 68.5071 63.3812L69.0334 63.0391C69.0334 63.0391 69.2439 62.8549 69.2965 62.7233H70.665C71.4018 62.9338 71.9281 63.0391 72.3492 63.1444L73.8229 63.618C73.8229 63.618 73.9808 63.6444 74.0334 63.6444C74.3492 63.6444 74.6123 63.4338 74.7176 63.1444C74.7702 63.1707 74.7965 63.2496 74.8492 63.2496L75.9281 63.5654C75.9281 63.5654 76.0597 63.5917 76.1386 63.5917C76.4544 63.5917 76.7439 63.3812 76.8229 63.0654C76.9281 62.6707 76.7176 62.2759 76.3229 62.1707H76.3755Z" fill="#EB1807"/>
</svg>
