<svg width="200" height="200" viewBox="0 0 200 200" fill="none" xmlns="http://www.w3.org/2000/svg">
<path d="M5.22784 109.89C5.09625 108.969 4.17514 108.311 3.25403 108.508L2.13554 108.705C1.21444 108.837 0.5565 109.758 0.753881 110.679C0.885468 111.535 1.6092 112.061 2.46451 112.061C2.53031 112.061 2.66189 112.061 2.72769 112.061L3.84618 111.864C4.76728 111.732 5.42522 110.811 5.22784 109.89Z" fill="#EB1807"/>
<path d="M8.05739 113.377L6.47834 112.39C5.68882 111.863 4.63612 112.127 4.10977 112.916C3.58343 113.706 3.8466 114.758 4.63612 115.285L6.21517 116.272C6.21517 116.272 6.80731 116.535 7.13628 116.535C7.72842 116.535 8.25477 116.272 8.58373 115.745C9.11008 114.956 8.84691 113.903 8.05739 113.377Z" fill="#EB1807"/>
<path d="M1.80766 99.6918C1.80766 99.6918 2.20242 99.6918 2.3998 99.626C2.79456 99.7576 3.25512 99.626 3.64988 99.4944C3.64988 99.7576 3.64988 99.9549 3.71567 100.35L5.4263 100.087L6.01845 99.8891L6.28162 100.415C6.28162 100.415 6.54479 100.284 6.61059 100.284C7.4659 99.8891 7.72908 98.968 7.33432 98.1127C7.33432 97.9811 7.13694 97.9811 7.07114 97.8495C7.4659 97.389 7.66328 96.8626 7.4659 96.2705C7.13694 95.3494 6.21583 94.8888 5.29472 95.2178C4.89996 95.3494 4.24202 95.6126 3.84726 96.3363C3.84726 96.3363 3.84726 96.4021 3.84726 96.4679L3.25512 96.0073C2.86036 95.7442 2.3998 95.6784 1.93925 95.7442C1.47869 95.8757 1.08393 96.1389 0.820759 96.5337L0.491791 97.06C0.0312366 97.8495 0.228617 98.9022 1.08393 99.4286C1.34711 99.626 1.67607 99.6918 1.93925 99.6918H1.80766Z" fill="#EB1807"/>
<path d="M185.504 41.3329C185.504 41.3329 185.701 41.3329 185.767 41.3329C186.622 41.3329 187.346 40.7407 187.478 39.8854L187.675 38.7669C187.807 37.8458 187.149 36.9905 186.228 36.8589C185.241 36.7273 184.385 37.3853 184.32 38.3064L184.122 39.4249C183.991 40.346 184.649 41.2013 185.57 41.3329H185.504Z" fill="#EB1807"/>
<path d="M180.106 43.6358C180.501 43.6358 180.962 43.5042 181.291 43.1753L182.672 41.8594C183.33 41.2015 183.396 40.1488 182.738 39.425C182.08 38.7671 181.027 38.7013 180.304 39.3592L178.922 40.6751C178.264 41.3331 178.198 42.3857 178.856 43.1095C179.185 43.4384 179.646 43.6358 180.106 43.6358Z" fill="#EB1807"/>
<path d="M195.244 42.7144C195.441 41.7933 194.849 40.8722 193.928 40.6749L192.809 40.4117C193.138 39.5564 192.941 38.8326 192.546 38.3063C192.02 37.6483 190.638 37.451 189.849 37.9115C189.191 38.3063 188.73 39.0958 188.862 40.1485C188.27 40.1485 187.677 40.2801 187.283 40.8064C187.217 40.938 187.283 41.0696 187.217 41.2012C187.02 41.3328 186.822 41.4644 186.691 41.6618C186.691 41.6618 186.625 41.6618 186.559 41.6618C185.835 41.5302 185.112 41.7933 184.717 42.3197C184.125 43.2408 183.532 44.0961 182.94 45.1488C182.348 44.754 181.427 44.3593 180.177 43.8987C179.585 43.7014 178.664 43.3724 178.203 43.1092C178.137 42.9118 177.94 42.7144 177.808 42.5829C177.085 41.9249 176.032 42.0565 175.374 42.7144C175.177 42.9118 175.045 43.2408 174.979 43.5698L173.334 42.9776L172.611 44.9514C172.611 44.9514 172.479 45.4778 172.545 45.741L170.834 47.0568C170.834 47.0568 170.571 47.3858 170.44 47.5832C170.44 47.0568 170.176 46.5305 169.65 46.2673C168.861 45.8067 167.808 46.1357 167.347 46.991L166.426 48.7675C166.426 48.7675 166.426 48.3727 166.36 48.1753C166.097 47.7806 165.702 47.5174 165.308 47.3858C164.847 47.1884 164.255 47.1884 163.794 47.5174L163.137 47.9121C162.347 48.3727 162.15 49.4912 162.544 50.3465C162.742 50.7413 163.071 50.9386 163.465 51.136L162.808 50.8071L162.544 50.6755C161.689 50.2149 160.834 50.6755 160.373 51.465C160.176 51.8598 160.176 52.3203 160.373 52.7151H160.242C159.32 52.3861 158.399 52.8467 158.07 53.7678C158.005 54.0309 158.07 54.2941 158.07 54.4915H158.005C157.478 54.3599 156.952 54.4915 156.557 54.8205C156.162 55.1494 156.031 55.61 155.965 56.0705C155.636 56.1363 155.307 56.2021 155.044 56.3995C154.715 56.7285 154.518 57.189 154.518 57.6496C154.518 57.6496 154.518 57.7812 154.518 57.847H153.004C153.004 57.847 152.807 58.0443 152.675 58.1101C152.215 57.7154 151.688 57.518 151.096 57.7154L149.32 58.3075C149.32 58.3075 149.122 58.5049 149.057 58.5707C148.662 58.3075 148.136 58.1759 147.675 58.3075C146.951 58.5707 146.557 59.2944 146.622 60.0181H146.425V60.0839L145.109 60.6761C144.451 60.9393 144.056 61.5972 144.122 62.3209C144.122 62.8473 144.385 63.242 144.714 63.571C144.714 63.7684 144.78 63.9 144.846 64.0973L144.649 63.7684C144.649 63.7684 144.254 63.5052 143.991 63.3736C143.53 62.7157 142.806 62.3867 142.083 62.1893C141.359 61.992 140.635 62.2551 140.24 62.8473C140.043 63.1762 139.911 63.5052 139.977 63.9C139.714 64.0316 139.385 64.1631 139.253 64.4263C138.793 65.2158 139.056 66.2685 139.846 66.7949C139.846 66.7949 139.977 66.7949 140.043 66.9265C139.385 66.6633 138.661 66.7949 138.201 67.3212C138.135 67.0581 138.069 66.7291 137.806 66.5317C137.345 66.1369 136.688 66.1369 136.161 66.3343C135.635 66.3343 135.174 66.4659 134.845 66.8607C134.648 67.1238 134.582 67.3212 134.451 67.5844C134.187 67.5844 133.99 67.5844 133.727 67.6502L132.411 68.3739C131.885 68.7029 131.621 69.2292 131.621 69.8214C130.963 69.624 130.437 69.8872 129.977 70.3477C129.845 70.3477 129.648 70.3477 129.516 70.4793C128.792 71.0715 128.595 72.1242 129.187 72.8479L129.582 73.3742C129.055 73.5716 128.595 73.9006 128.463 74.5585C128.463 74.8217 128.529 75.0849 128.595 75.348C128.398 75.4796 128.2 75.4796 128.003 75.677C127.674 76.0718 127.608 76.5981 127.674 77.1245C127.674 77.3218 127.674 77.4534 127.674 77.6508C127.476 77.7824 127.345 77.914 127.213 78.0456L127.411 77.1245C127.608 76.2034 127.016 75.2822 126.095 75.0849C125.174 74.8875 124.253 75.4796 124.055 76.4007L123.595 78.3087C123.463 78.243 123.331 78.0456 123.2 78.0456L121.555 77.7824C120.634 77.6508 119.713 78.243 119.581 79.1641C119.581 79.3614 119.647 79.5588 119.713 79.6904C119.581 79.822 119.384 79.9536 119.252 80.0852C118.528 79.9536 117.739 80.3483 117.41 81.0721C117.081 81.73 117.41 82.4537 117.871 82.9801C117.081 83.1775 116.489 83.7038 116.028 84.0328C115.897 84.1644 115.897 84.296 115.831 84.4275C115.436 83.9012 114.844 83.5722 114.186 83.7696L113.265 84.0328C113.265 84.0328 113.265 84.0328 113.199 84.0986C112.739 84.0986 112.278 84.296 111.949 84.6907L110.173 87.0593C110.173 87.0593 109.975 87.5856 109.975 87.8488C107.607 87.3883 106.554 88.9673 106.094 90.1516C105.436 90.1516 104.778 90.4148 104.514 91.0069C104.514 91.0069 104.514 91.0069 104.514 91.0727C104.186 91.2043 103.791 91.3359 103.593 91.6648L101.685 94.3624H101.093C100.435 94.3624 99.7773 94.7571 99.5142 95.3493C99.4484 95.5466 99.4484 95.8098 99.4484 96.0072C99.1194 96.0072 98.7904 96.073 98.5273 96.3362L97.6062 97.1915C97.6062 97.1915 97.4088 97.5863 97.343 97.7836C97.0798 98.0468 96.8824 98.3758 96.8166 98.7705C96.8166 99.0995 96.9482 99.3627 97.0798 99.6259C96.7508 99.6259 96.4219 99.889 96.1587 100.152C95.6324 99.9548 95.106 99.889 94.5797 100.152L93.3954 100.942C93.0006 101.205 92.8032 101.6 92.6716 101.994C92.2111 101.994 91.7505 102.192 91.4216 102.587L89.3162 105.35C89.3162 105.35 89.1846 105.81 89.1188 106.008C89.053 106.008 88.9872 106.074 88.9214 106.139C88.3293 106.403 87.8029 106.732 87.2766 107.061C87.145 107.126 87.0792 107.258 86.9476 107.324C86.8818 107.324 86.816 107.324 86.6844 107.324C86.4871 107.324 86.2897 107.324 86.0923 107.455C85.6317 107.653 85.3028 108.047 85.1712 108.508L85.0396 108.903C85.0396 108.903 84.7106 109.034 84.579 109.166L84.2501 109.626C83.6579 109.955 83.1974 110.35 83 110.811C82.9342 110.811 82.8026 110.811 82.671 110.942L82.0131 111.6C82.0131 111.6 81.8815 111.863 81.8157 112.061C81.4867 112.192 81.1578 112.39 80.9604 112.719L79.9735 114.429L79.1182 115.022C79.1182 115.022 78.855 115.416 78.7234 115.614H78.5918L77.4076 116.206C76.947 116.403 76.618 116.864 76.4864 117.39C75.8285 117.587 75.368 118.114 75.368 118.772C75.3022 118.772 75.2364 118.706 75.1048 118.772C74.1837 118.969 73.5915 119.89 73.7889 120.811L73.9205 121.535C73.3284 121.535 72.7362 121.798 72.473 122.325C72.3415 122.588 72.4072 122.851 72.4072 123.114C72.0783 123.246 71.9467 123.509 71.7493 123.772C71.223 123.509 70.3676 123.377 69.3149 124.627C69.3149 124.627 69.3149 124.627 69.3149 124.693H69.1834C68.657 125.022 68.3938 125.549 68.3938 126.141C68.2623 126.141 68.1307 126.141 67.9991 126.141C67.1438 126.272 66.5516 126.93 66.1569 128.049C65.6305 128.312 65.3015 128.641 65.1042 128.97C65.1042 129.101 65.1042 129.233 65.0384 129.365C64.3146 129.365 63.6567 129.957 63.3935 130.615C62.8672 130.878 62.4724 131.207 62.4066 131.799L62.2092 133.378C62.2092 133.378 61.8803 133.444 61.7487 133.575L60.1039 135.286C60.1039 135.286 59.7749 135.944 59.7091 136.273C59.3143 136.141 58.9196 136.075 58.5248 136.273L57.6037 136.668C57.6037 136.668 57.4721 136.865 57.3405 136.931C57.0774 137.062 56.7484 137.194 56.551 137.457C56.222 137.852 56.0905 138.378 56.222 138.905L56.4194 139.628C55.7615 139.628 55.2351 140.155 55.0378 140.747C54.5114 141.01 54.1166 141.405 54.0509 142.063C54.0509 142.194 54.0509 142.326 54.0509 142.457H53.9851C53.9851 142.457 53.6561 142.655 53.4587 142.721C53.2613 142.655 53.1297 142.523 52.8666 142.523C51.7481 142.392 51.2875 143.115 50.6296 143.839C50.498 143.971 50.498 144.234 50.4322 144.365H50.3006C49.9059 144.629 49.7085 144.892 49.5111 145.221C49.5111 145.089 49.5111 144.892 49.3795 144.826C49.2479 144.694 48.9848 144.694 48.7216 144.694C48.7216 144.694 48.7216 144.629 48.7216 144.563C48.6558 144.036 48.1952 143.642 47.7347 143.379C47.5373 143.247 47.3399 143.247 47.0767 143.247C47.2083 142.918 47.3399 142.589 47.2083 142.194C47.0109 141.273 46.0898 140.681 45.1029 140.944L44.2476 141.142C43.8529 141.273 43.5239 141.536 43.2607 141.865C43.2607 141.668 43.3923 141.536 43.3923 141.273C43.3923 141.142 43.3923 141.01 43.3923 140.878C43.5239 140.286 43.2607 139.694 42.866 139.299C42.9975 139.168 43.1291 139.036 43.1949 138.905C43.5239 138.049 43.1291 136.997 42.208 136.668L41.7475 136.47C41.7475 136.47 41.3527 136.075 41.1553 135.878C41.3527 135.483 41.4185 134.957 41.2211 134.496C40.8922 133.641 39.9052 133.181 38.9841 133.575C38.9841 133.575 38.8526 133.246 38.7868 133.115C39.1157 132.457 39.1157 131.667 38.5894 131.075C37.8657 130.417 36.813 130.417 36.155 131.075C36.155 131.075 35.6945 130.615 35.2997 130.483C35.2997 130.417 35.2997 130.351 35.2997 130.286C35.1681 129.365 34.3128 128.641 33.3917 128.772H32.7995C32.4048 128.246 31.8126 127.851 31.0889 128.049C30.6284 128.18 30.2994 128.443 30.102 128.838C30.0362 128.838 29.9704 128.838 29.9046 128.838C29.6415 128.838 29.5099 129.101 29.3125 129.233C29.1151 128.772 28.7861 128.443 28.2598 128.246L27.9966 127.785C27.5361 126.93 26.4834 126.667 25.6938 127.128C25.5623 127.193 25.4965 127.391 25.3649 127.522C25.2991 127.522 25.1675 127.522 25.1017 127.457C25.5623 127.128 25.8254 126.667 25.8254 126.075C26.286 126.075 26.7465 125.877 27.0755 125.483L27.5361 124.891C27.5361 124.891 27.6677 124.891 27.7334 124.891C28.2598 124.891 28.7861 124.627 29.1151 124.233C29.7073 123.509 29.5099 122.39 28.7861 121.864H28.7204C29.1809 121.338 29.4441 120.614 29.1151 119.956C28.7204 119.101 27.6677 118.706 26.8123 119.167L25.3649 119.824C25.3649 119.824 25.2333 119.759 25.1675 119.693C24.2464 119.495 23.3253 120.088 23.1279 121.009C23.1279 121.206 23.1279 121.338 23.1279 121.535C22.9305 121.535 22.7331 121.535 22.6016 121.535L21.6804 121.996C21.3515 121.864 20.9567 121.732 20.6277 121.667C20.6277 121.667 20.562 121.667 20.4962 121.667C20.6935 121.535 20.8909 121.404 21.0225 121.206L21.4831 120.482C21.4831 120.482 21.4831 120.285 21.4831 120.219H22.6673C23.5885 120.153 24.3122 119.364 24.3122 118.377C24.3122 117.456 23.5227 116.732 22.6016 116.732H21.6804C21.6804 116.732 21.0225 116.535 20.6277 116.601C20.562 116.601 20.4962 116.732 20.4304 116.732C20.6935 116.469 20.8251 116.074 20.8251 115.679V113.771C20.8251 112.85 20.0356 112.061 19.1145 112.061C18.1934 112.061 17.4039 112.85 17.4039 113.771V115.679C17.4039 116.601 18.1934 117.39 19.1145 117.39C18.7197 117.522 18.3908 117.785 18.1934 118.18L17.7986 118.969C17.6012 119.43 17.6012 119.956 17.7986 120.351C17.7986 120.877 18.0618 121.338 18.5224 121.667C18.6539 121.798 18.8513 121.798 19.0487 121.798C18.7197 121.996 18.4566 122.259 18.325 122.654C18.2592 122.917 18.325 123.114 18.325 123.377C18.1276 123.18 17.9302 122.917 17.667 122.785L16.1538 122.325C16.7459 121.93 17.1407 121.206 16.9433 120.548V120.088C16.6801 118.969 16.3512 116.732 13.5878 116.337C13.0615 116.272 12.6009 116.403 12.2062 116.732L12.0746 116.864C12.272 116.14 12.3378 115.285 12.4694 114.166C12.5351 113.574 12.6009 112.785 12.7325 112.258C12.8641 112.127 12.9299 111.995 12.9957 111.863C13.4563 111.008 13.1273 110.021 12.272 109.561C12.1404 109.495 11.943 109.495 11.8114 109.429V109.298L12.7325 108.969C13.6536 108.705 14.1142 107.718 13.851 106.797C13.522 105.876 12.5351 105.416 11.6798 105.679L10.035 106.205C9.64023 106.337 9.31126 106.6 9.04809 106.995L8.71912 106.863L8.9823 106.074C9.24547 105.153 8.78491 104.231 7.86381 103.902C7.27166 103.705 6.67952 103.902 6.28476 104.297C6.08738 103.968 5.75841 103.705 5.36365 103.573C5.36365 103.573 5.36365 103.573 5.29786 103.573C5.49524 103.244 5.62683 102.916 5.56103 102.587L5.36365 101.271C5.23206 100.35 4.37675 99.6258 3.45564 99.8232C2.53453 99.9548 1.8766 100.81 2.00818 101.731L2.13977 102.85C1.21866 102.85 0.626518 103.244 0.231757 103.771C-0.228797 104.495 0.0343768 105.876 0.692312 106.403C1.02128 106.666 1.48183 106.863 2.00818 106.863C2.33715 106.863 2.73191 106.732 3.06088 106.6C3.19247 107.192 3.52143 107.718 4.17937 107.85C4.31096 107.85 4.50834 107.85 4.63992 107.85C4.63992 107.85 4.70572 107.85 4.77151 107.85C4.9031 107.916 5.03468 108.047 5.23206 108.113C5.23206 108.113 5.23206 108.179 5.23206 108.245C5.23206 108.969 5.75841 109.561 6.48214 109.758L9.57444 110.679C9.31126 111.403 9.17968 112.324 9.04809 113.64C8.9823 114.298 8.85071 115.219 8.71912 115.811C8.52174 115.943 8.39015 116.14 8.32436 116.337C7.8638 117.193 8.19277 118.18 9.04809 118.64C9.31126 118.772 9.64023 118.838 9.9034 118.838L9.70602 120.548L11.7456 120.811C11.7456 120.811 12.272 120.811 12.5351 120.746L14.1142 122.127C14.1142 122.127 14.4432 122.259 14.5747 122.325C14.1142 122.522 13.6536 122.851 13.522 123.377C13.2589 124.298 13.7852 125.22 14.6405 125.483L16.417 126.009C16.417 126.009 16.0222 126.009 15.8248 126.206C15.4301 126.535 15.2327 126.93 15.2327 127.391C15.1011 127.917 15.2327 128.509 15.5616 128.904L16.0222 129.43C16.3512 129.825 16.8117 129.957 17.2723 129.957C17.7328 129.957 18.1934 129.825 18.5224 129.562C18.7197 129.43 18.7855 129.101 18.9171 128.904V129.101L18.7197 129.496C18.3908 130.351 18.9171 131.141 19.8382 131.47C19.9698 131.47 20.1672 131.536 20.2988 131.536C20.562 131.536 20.7593 131.404 21.0225 131.273V131.47C20.8251 132.391 21.4173 133.312 22.3384 133.444C22.47 133.444 22.5358 133.444 22.6673 133.444C22.7989 133.444 22.9305 133.312 23.1279 133.312C23.1279 133.838 23.3253 134.299 23.6542 134.694C23.9832 134.957 24.378 135.154 24.7727 135.154C24.7727 135.154 24.9043 135.154 24.9701 135.154C25.1017 135.418 25.1675 135.746 25.3649 135.944C25.7596 136.207 26.2202 136.339 26.6808 136.273C26.6808 136.273 26.6808 136.273 26.8123 136.273L27.0097 137.72C27.0097 137.72 27.1413 137.918 27.2071 138.049C26.8781 138.51 26.6808 139.036 26.9439 139.628L27.6677 141.339C27.6677 141.339 27.865 141.471 27.9308 141.602C27.6677 142.063 27.6019 142.523 27.7992 143.05C28.1282 143.773 28.8519 144.036 29.5757 143.971V144.102H29.6415L30.2994 145.352C30.6284 145.879 31.1547 146.208 31.8126 146.208C31.8126 146.208 31.9442 146.208 32.01 146.208C32.4706 146.208 32.9311 145.879 33.1943 145.484C33.3259 145.484 33.3917 145.418 33.5233 145.352H33.3917C33.3917 145.352 33.1285 145.879 32.9969 146.076C32.4048 146.537 32.0758 147.26 31.8784 147.984C31.6811 148.708 32.01 149.432 32.6022 149.826C32.8653 150.024 33.1943 150.089 33.5233 150.089C33.5233 150.089 33.5233 150.089 33.6549 150.089C33.7865 150.353 33.918 150.616 34.1812 150.747C34.4444 150.879 34.7076 150.945 34.9707 150.945C35.5629 150.945 36.155 150.616 36.484 150.089C36.2866 150.682 36.484 151.274 36.9445 151.734C36.7472 151.8 36.484 151.8 36.2866 151.997C35.6287 152.655 35.6287 153.774 36.2866 154.432H36.3524C36.4182 154.761 36.484 155.09 36.6814 155.287C36.9445 155.55 37.6025 156.077 38.392 156.34C38.2604 156.8 38.2604 157.327 38.5236 157.722L39.9052 159.958C40.2342 160.485 40.7606 160.748 41.3527 160.748C41.6159 160.748 41.8133 160.682 42.0764 160.551L42.3396 162.853C42.3396 163.446 42.8002 163.84 43.2607 164.104C43.3923 164.696 43.7871 165.222 44.445 165.419C44.5766 165.419 44.7082 165.419 44.8398 165.419C45.4319 165.419 45.8925 165.025 46.2214 164.564C46.5504 164.893 46.9452 165.156 47.4057 165.156C47.5373 165.156 47.6689 165.156 47.8005 165.156C48.261 165.025 48.6558 164.696 48.8532 164.301C49.2479 164.301 49.9717 164.103 50.498 163.248C50.5638 163.117 50.498 163.051 50.498 162.919C50.6954 163.314 51.0244 163.643 51.4191 163.84C51.6165 163.906 51.8139 163.972 52.0113 163.972C52.6692 163.972 53.3271 163.577 53.5903 162.853L54.8404 159.498C55.1693 158.643 54.7088 157.787 53.9193 157.393C53.9851 157.393 54.1166 157.393 54.1824 157.261C54.2482 157.195 54.1824 157.064 54.314 156.998C54.4456 157.853 55.1035 158.511 55.9589 158.511C56.551 158.511 57.2089 158.511 57.8669 158.379C58.788 158.314 59.5117 157.458 59.3801 156.537C59.3801 156.274 59.1828 156.142 59.0512 155.945C59.7749 155.748 60.3012 155.156 60.3012 154.432C61.0908 154.563 61.9461 154.169 62.275 153.379C62.604 152.59 62.275 151.734 61.5513 151.34C62.275 151.076 62.8672 150.55 63.1962 150.155C63.2619 150.089 63.1961 149.958 63.2619 149.892C63.5909 150.221 63.9857 150.418 64.3804 150.418C64.5778 150.418 64.7752 150.418 64.9726 150.287L65.8937 149.958C65.8937 149.958 65.8937 149.892 66.0253 149.892C66.4858 149.826 66.9464 149.563 67.2096 149.168L68.7228 146.668C68.7228 146.668 68.7886 146.208 68.8544 145.944C68.986 145.944 69.1834 145.944 69.3149 145.944C71.2887 145.944 72.0783 144.431 72.4072 143.313C73.0652 143.313 73.6573 142.852 73.8547 142.194C74.1837 142.063 74.5126 141.865 74.71 141.536L75.5653 140.089C75.9601 140.089 76.3549 139.891 76.6838 139.563C76.947 139.299 77.0128 138.97 77.0786 138.707C77.6707 138.641 78.1971 138.247 78.3945 137.655C78.4602 137.457 78.3945 137.194 78.3945 136.997C78.7234 136.931 78.9866 136.865 79.2498 136.668L80.1051 135.746C80.1051 135.746 80.3025 135.286 80.3683 135.089C80.5656 134.825 80.763 134.562 80.8288 134.167C80.8288 133.838 80.6314 133.575 80.4998 133.312C80.8288 133.246 81.092 132.983 81.3552 132.72C81.5525 132.72 81.6841 132.983 81.8157 132.983C82.1447 132.983 82.5394 132.852 82.8026 132.654L83.9869 131.799C84.3817 131.536 84.579 131.141 84.6448 130.746C85.1054 130.746 85.5659 130.549 85.8291 130.154L87.8687 127.391C87.8687 127.391 88.0003 126.93 88.0661 126.733C88.0661 126.733 88.1977 126.667 88.2635 126.667C88.7898 126.338 89.382 126.075 89.9083 125.746C90.0399 125.68 90.1057 125.548 90.1715 125.483C90.2373 125.483 90.3689 125.483 90.4347 125.483C90.632 125.483 90.8294 125.483 90.961 125.351C91.4216 125.154 91.7505 124.759 91.8821 124.233V124.035C91.8821 124.035 92.2769 123.838 92.4085 123.64L92.6716 123.246C93.1322 122.983 93.6585 122.719 93.9875 122.061C94.0533 122.061 94.1849 122.061 94.2507 121.93L94.9086 121.338C94.9086 121.338 95.0402 121.075 95.106 120.943C95.435 120.811 95.7639 120.614 95.9613 120.285L96.9482 118.64L97.7377 118.114C97.7377 118.114 98.0009 117.719 98.1325 117.587C98.1325 117.587 98.2641 117.587 98.3299 117.587L99.5142 117.061C99.9747 116.864 100.304 116.403 100.435 115.943C101.027 115.745 101.422 115.285 101.554 114.693C101.62 114.693 101.685 114.693 101.817 114.693C102.738 114.561 103.396 113.64 103.199 112.719V112.192C103.659 112.192 104.186 111.863 104.514 111.403C104.646 111.206 104.58 110.942 104.646 110.679C104.975 110.548 105.107 110.35 105.304 110.087C105.501 110.219 105.765 110.284 106.094 110.284C106.554 110.284 107.146 110.087 107.804 109.363C107.804 109.363 107.804 109.363 107.804 109.298H107.936C108.462 109.034 108.791 108.508 108.857 107.916C108.988 107.916 109.054 107.916 109.186 107.916C110.041 107.784 110.699 107.192 111.094 106.139C111.554 105.942 111.949 105.613 112.147 105.35C112.147 105.218 112.147 105.153 112.212 105.021C112.804 105.021 113.397 104.495 113.726 103.902C114.318 103.705 114.778 103.376 114.976 102.718L115.305 101.271C115.305 101.271 115.634 101.271 115.765 101.073L117.542 99.5601C117.542 99.5601 117.936 98.9679 118.002 98.5732C118.2 98.7047 118.463 98.7705 118.66 98.7705C118.792 98.7705 118.989 98.7705 119.121 98.7705L120.042 98.5074C120.042 98.5074 120.437 98.2442 120.568 98.1126C120.765 98.0468 120.963 98.0468 121.16 97.8494C121.555 97.4547 121.687 96.9283 121.621 96.402V95.744C122.213 95.744 122.673 95.3493 123.002 94.8229C123.529 94.6255 123.989 94.2308 124.121 93.5728C124.121 93.4413 124.121 93.3755 124.121 93.2439C124.121 93.2439 124.187 93.2439 124.253 93.2439C124.45 93.2439 124.581 93.1123 124.713 93.0465C124.91 93.1123 125.042 93.3097 125.239 93.3097C125.371 93.3097 125.437 93.3097 125.568 93.3097C126.358 93.3097 126.884 92.8491 127.608 92.3228C128.003 91.9938 128.2 91.599 128.266 91.1385C128.463 91.1385 128.726 91.1385 128.924 90.9411L130.042 90.349C130.437 90.1516 130.7 89.7568 130.832 89.3621C130.832 89.3621 130.832 89.3621 130.898 89.3621C131.49 89.3621 132.016 89.0331 132.345 88.5725L132.871 87.7172C133.135 87.2567 133.135 86.7961 133.003 86.3356C133.464 86.0724 133.858 85.6118 133.924 85.0197V84.8881C133.924 84.8881 134.516 84.7565 134.779 84.5591C135.108 84.9539 135.503 85.2171 136.03 85.2171C136.161 85.2171 136.359 85.2171 136.49 85.1513C137.411 84.8881 137.938 83.967 137.674 83.0459L137.411 82.2564C137.411 82.2564 137.411 82.2564 137.477 82.2564C137.609 82.4537 137.74 82.7169 137.938 82.9143C138.201 83.0459 138.53 83.1775 138.793 83.1775C139.385 83.1775 139.977 82.8485 140.24 82.3222L140.372 82.059C140.898 81.9932 141.359 81.73 141.622 81.2695C141.754 81.0063 141.819 80.8089 141.885 80.6115C141.885 80.6115 141.951 80.6115 142.017 80.6115C142.741 80.6115 143.201 80.3483 143.53 80.0852C143.991 79.6904 144.122 79.2299 144.254 78.7693L144.912 78.6377C145.438 78.5061 145.767 78.0456 146.03 77.585C146.096 77.4534 146.096 77.2561 146.162 77.0587C146.359 77.1245 146.557 77.2561 146.754 77.2561C146.885 77.2561 147.017 77.2561 147.149 77.2561C148.07 77.0587 148.662 76.1376 148.465 75.2165L148.267 74.3611C148.201 73.9664 147.938 73.6374 147.609 73.44C147.741 73.44 147.872 73.5716 148.004 73.5716C148.136 73.5716 148.267 73.5716 148.399 73.6374C148.596 73.6374 148.794 73.7032 148.925 73.7032C149.386 73.7032 149.715 73.5058 150.044 73.1769C150.175 73.3084 150.241 73.44 150.373 73.5716C150.57 73.7032 150.833 73.7032 151.096 73.7032C151.754 73.7032 152.346 73.3084 152.675 72.7163L152.873 72.3215C152.873 72.3215 153.267 71.9926 153.465 71.7952C153.728 71.9268 153.991 72.0584 154.32 72.0584C154.518 72.0584 154.649 72.0584 154.847 71.9926C155.768 71.7294 156.228 70.7425 155.965 69.8872C156.097 69.8872 156.228 69.8214 156.36 69.7556C156.623 69.953 156.886 70.1504 157.215 70.1504C157.61 70.1504 158.005 70.0188 158.334 69.7556C159.057 69.1634 159.123 68.045 158.531 67.3212C158.531 67.3212 159.057 66.8607 159.255 66.4659C159.255 66.4659 159.255 66.4659 159.386 66.4659C160.307 66.4659 161.097 65.6764 161.031 64.6895V64.0973C161.623 63.7684 162.084 63.242 161.952 62.5183C161.886 62.0577 161.623 61.663 161.294 61.3998C161.294 61.334 161.36 61.2682 161.294 61.2024C161.294 60.9393 161.097 60.8077 161.031 60.6103C161.492 60.4787 161.886 60.1497 162.084 59.6892L162.544 59.4918C163.4 59.1628 163.86 58.1759 163.531 57.2548C163.465 57.0574 163.268 56.9916 163.137 56.8601C163.202 56.7943 163.202 56.7285 163.268 56.5969C163.531 57.1232 163.926 57.4522 164.518 57.518C164.518 57.9785 164.584 58.4391 164.979 58.8339L165.505 59.426C165.373 59.9524 165.439 60.5445 165.834 61.0051C166.163 61.334 166.624 61.5314 167.084 61.5314C167.545 61.5314 167.939 61.3998 168.268 61.0708C168.597 61.4656 169.058 61.7946 169.584 61.7946C169.716 61.7946 169.913 61.7946 170.045 61.7288C170.966 61.4656 171.492 60.5445 171.229 59.6234L170.769 58.0443C170.769 58.0443 170.9 57.9128 170.9 57.847C171.229 56.9916 170.769 56.0047 169.913 55.6758C169.716 55.61 169.518 55.6758 169.321 55.6758C169.321 55.4126 169.453 55.1494 169.387 54.8205L169.189 54.1625C169.387 53.8336 169.584 53.5046 169.716 53.1756C169.716 53.1098 169.716 52.9782 169.716 52.9124C169.782 53.1756 169.847 53.4388 170.045 53.6362L170.637 54.2283C170.637 54.2283 170.834 54.2283 170.9 54.3599L170.703 55.61C170.571 56.5311 171.229 57.3864 172.15 57.518C172.216 57.518 172.282 57.518 172.348 57.518C173.203 57.518 173.927 56.8601 174.058 56.0047V55.3468C174.453 55.0836 174.65 54.6889 174.716 54.2941C174.914 54.4257 175.045 54.6231 175.308 54.6889L177.151 55.1494C177.151 55.1494 177.414 55.1494 177.545 55.1494C178.335 55.1494 178.993 54.6231 179.19 53.8336C179.387 52.9124 178.861 51.9913 177.94 51.794L176.098 51.3334C175.177 51.136 174.256 51.6624 174.058 52.5835C173.992 52.1887 173.795 51.794 173.466 51.5308L172.742 51.0044C172.348 50.6755 171.821 50.6097 171.361 50.7413C170.834 50.7413 170.374 50.7413 169.979 51.2018C169.847 51.3334 169.847 51.5966 169.716 51.794C169.584 51.465 169.387 51.0702 168.992 50.8728C168.795 50.7413 168.597 50.8728 168.4 50.8071C168.663 50.6755 168.861 50.4781 168.992 50.2149L169.782 48.7017C169.782 48.7017 169.782 48.7675 169.782 48.8332C169.979 49.557 170.637 50.0175 171.361 50.0175H171.821C171.821 50.0175 172.282 50.0175 172.479 50.0175C173.663 50.0175 175.374 49.7544 176.229 47.5832C176.427 47.1226 176.361 46.5963 176.164 46.1357L176.032 45.8725C176.69 46.2015 177.545 46.5305 178.598 46.9252C179.124 47.1226 179.914 47.3858 180.374 47.5832C180.44 47.7148 180.572 47.8463 180.703 47.9779C181.032 48.3069 181.427 48.4385 181.888 48.4385C182.348 48.4385 182.809 48.2411 183.138 47.9121C183.269 47.7806 183.335 47.5832 183.401 47.4516H183.467V48.3727C183.467 49.2938 184.256 50.0175 185.177 50.0175H185.243C186.164 50.0175 186.888 49.1622 186.888 48.2411V46.5305C186.756 46.1357 186.625 45.6752 186.296 45.412C186.296 45.3462 186.427 45.2146 186.427 45.1488L187.151 45.6752C187.151 45.6752 187.809 46.0041 188.138 46.0041C188.664 46.0041 189.191 45.741 189.52 45.2804C189.849 44.754 189.849 44.2277 189.585 43.7014C189.98 43.5698 190.309 43.3724 190.507 43.0434C190.77 43.3066 190.967 43.5698 191.362 43.6356L192.678 43.8987C192.678 43.8987 192.941 43.8987 193.007 43.8987C193.796 43.8987 194.52 43.3724 194.652 42.5171L195.244 42.7144ZM1.54763 104.1C1.54763 104.1 1.8108 103.968 2.00818 103.968C2.13977 103.968 2.27136 104.1 2.40294 104.1C2.40294 104.231 2.53453 104.363 2.60032 104.429L2.20556 104.692L1.48183 104.034L1.54763 104.1ZM2.99508 106.205C2.73191 106.6 2.33715 106.797 2.00818 106.797L2.53453 105.745L3.06088 106.008V106.271L2.99508 106.205ZM19.5751 117.587C19.5751 117.587 19.3777 117.653 19.3119 117.785H19.1803C19.3119 117.785 19.4435 117.653 19.5751 117.653V117.587ZM19.5751 127.983C19.5751 127.983 19.5751 128.049 19.6408 128.114C19.5093 128.246 19.3119 128.378 19.2461 128.575V128.772C19.2461 128.378 19.1145 127.983 18.8513 127.654L18.2592 126.93C18.2592 126.93 17.7328 126.601 17.4039 126.47C17.9302 126.338 18.4566 126.009 18.5881 125.417C18.6539 125.22 18.5881 125.022 18.5881 124.759C18.7855 124.956 18.9171 125.22 19.1803 125.285C19.3119 125.285 19.3777 125.351 19.5751 125.417C19.5751 125.614 19.6408 125.746 19.7066 125.877C19.1803 126.47 19.0487 127.325 19.5751 127.983ZM30.1678 135.615L30.0362 134.694C29.9046 133.904 29.2467 133.246 28.3914 133.246H27.9966C27.9966 133.246 27.7334 132.852 27.6019 132.72C27.6019 132.654 27.5361 132.588 27.4703 132.523C27.7334 132.523 27.9966 132.457 28.2598 132.325C28.3914 132.259 28.4572 132.062 28.5888 131.93L28.7204 132.523C28.7204 132.523 28.9177 132.852 28.9835 132.983C28.9835 133.049 28.9835 133.181 29.0493 133.246C29.0493 133.246 29.1151 133.246 29.1809 133.246C29.5099 133.575 29.9046 133.838 30.3652 133.838C30.3652 133.904 30.2994 133.97 30.2994 134.036C30.2994 134.496 30.4968 134.825 30.6942 135.154L30.2336 135.549L30.1678 135.615ZM32.2074 138.115C32.2074 138.115 32.1416 138.115 32.0758 138.115C32.2732 137.72 32.339 137.326 32.1416 136.865C32.2074 136.865 32.2732 136.997 32.4048 136.997C32.6022 136.997 32.7995 136.865 32.9969 136.799C32.8653 137.194 32.8653 137.523 32.9969 137.918L32.2074 138.049V138.115ZM42.866 144.234C42.2738 144.102 41.8133 144.365 41.4185 144.76C41.2869 144.694 41.2211 144.563 41.0895 144.563C41.9448 144.365 42.537 143.839 42.9318 142.984C42.9318 143.181 42.8002 143.313 42.866 143.51C42.866 143.51 42.9318 143.576 42.9975 143.642C42.9975 143.839 43.0633 143.971 43.1291 144.168C43.1291 144.168 42.9975 144.168 42.9318 144.168L42.866 144.234ZM43.7213 149.892C43.7213 149.892 43.7213 149.892 43.7213 149.958V149.892ZM46.0898 156.406C46.0898 156.406 45.9582 156.34 45.8925 156.34C45.8925 156.34 45.8925 156.34 45.8925 156.274C45.9582 156.208 46.0898 156.142 46.1556 156.077C46.353 155.879 46.5504 155.616 46.6162 155.353C46.682 155.353 46.7478 155.353 46.8794 155.353C46.4846 155.616 46.2214 155.945 46.0898 156.406ZM51.2875 160.814V160.616C51.2875 160.616 51.2875 160.616 51.3533 160.616V160.814H51.2875ZM56.3536 155.55C56.551 155.024 56.4852 154.432 56.1562 153.971C56.1562 153.774 56.1562 153.577 56.1562 153.445C56.2878 153.445 56.4852 153.577 56.6168 153.577C56.4194 154.103 56.3536 154.827 56.8142 155.485C56.6826 155.485 56.551 155.485 56.4194 155.485L56.3536 155.55ZM59.117 151.076C59.117 151.076 58.6564 151.142 58.3932 151.208V150.353C58.3932 150.353 58.2616 150.221 58.2616 150.155C58.2616 150.089 58.3274 150.024 58.3274 149.892H58.459C58.6564 150.221 58.9196 150.682 59.2485 151.076C59.2485 151.076 59.1827 151.076 59.117 151.076ZM60.4986 138.641C60.4986 138.641 60.4986 138.247 60.4986 138.115C60.5644 138.115 60.696 138.181 60.7618 138.247C60.7618 138.444 60.8276 138.576 60.8934 138.773C60.7618 138.773 60.6302 138.707 60.4986 138.707V138.641ZM73.0652 133.444C73.0652 133.444 72.8678 133.115 72.7362 133.049L73.2626 133.246C73.2626 133.312 73.0652 133.378 73.0652 133.444ZM81.0262 125.877C80.8946 126.338 81.0262 126.799 81.2236 127.193C81.2236 127.193 81.2236 127.193 81.2236 127.259C81.2236 127.654 81.3552 127.983 81.6183 128.312C81.421 128.18 81.2236 127.983 80.9604 127.983C80.9604 127.588 80.9604 127.193 80.6314 126.864L79.2498 125.088C78.855 124.627 78.2629 124.496 77.7365 124.562C77.6707 124.496 77.6049 124.364 77.5391 124.298C77.5391 124.233 77.6049 124.167 77.6049 124.035C77.8023 124.035 77.9997 124.035 78.1971 123.969C79.0524 123.706 79.3156 123.048 79.5129 122.522C79.8419 122.785 80.1709 123.048 80.6314 123.048C80.6972 123.048 80.763 123.048 80.8288 122.983C81.092 123.377 81.421 123.64 81.9473 123.838C81.9473 123.969 81.8157 124.101 81.8157 124.298C81.8157 124.496 82.0131 124.627 82.0789 124.759C81.6183 124.956 81.2894 125.285 81.1578 125.812L81.0262 125.877ZM82.3421 129.43C82.3421 129.43 82.3421 128.97 82.1447 128.772C82.3421 128.904 82.5394 129.101 82.8026 129.101C82.8026 129.167 82.8026 129.233 82.8026 129.299C82.671 129.299 82.4737 129.299 82.3421 129.43ZM95.0402 104.034H95.106C95.106 104.034 95.106 104.429 95.2376 104.626C95.0402 104.56 94.9086 104.363 94.7113 104.363H94.5797C94.5797 104.363 94.5797 104.231 94.5797 104.166C94.7112 104.166 94.9086 104.166 95.0402 104.034ZM99.6458 109.561C99.6458 109.561 99.251 109.561 98.9878 109.561C98.1325 109.824 97.8693 110.416 97.672 110.942C97.343 110.613 96.8824 110.482 96.4219 110.548C96.0929 110.021 95.6324 109.429 94.7113 109.232C94.3823 109.232 93.9875 109.232 93.6585 109.298C93.4612 109.034 93.198 108.771 92.8032 108.64C92.6059 108.64 92.5401 108.64 92.3427 108.64L92.0795 108.442C92.0795 108.442 92.0795 108.311 92.0795 108.245C92.0795 108.245 92.2111 108.245 92.2769 108.113C92.4743 107.982 92.5401 107.718 92.6716 107.521L94.3823 107.718C95.3034 107.784 96.1587 107.126 96.2903 106.205C96.2903 105.81 96.1587 105.547 96.0271 105.218C96.1587 105.284 96.2903 105.481 96.4877 105.481C96.4877 105.876 96.4877 106.271 96.7508 106.6L98.0667 108.442C98.3957 108.903 98.922 109.166 99.4484 109.166C99.4484 109.166 99.58 109.166 99.6458 109.166C99.6458 109.166 99.6458 109.298 99.7773 109.298C99.7773 109.363 99.7115 109.429 99.7115 109.561H99.6458ZM104.909 101.008L104.383 100.679L104.251 100.35H104.58C104.58 100.35 104.778 100.81 104.975 101.008H104.909ZM117.476 96.9941C117.476 96.9941 117.344 96.9283 117.213 96.8625C117.213 96.6651 117.213 96.5336 117.147 96.3362C117.278 96.3362 117.41 96.402 117.542 96.4678C117.542 96.4678 117.542 96.7967 117.542 96.9941H117.476ZM121.094 85.546H120.897C120.897 85.546 120.634 84.8223 120.437 84.4933C120.568 84.4933 120.765 84.5591 120.897 84.5591C120.963 84.5591 121.029 84.5591 121.16 84.5591V85.3487C121.16 85.3487 121.16 85.4144 121.16 85.4802C121.16 85.4802 121.16 85.546 121.16 85.6118L121.094 85.546ZM123.002 82.3222C123.002 82.3222 123.002 81.7958 123.002 81.4668C123.002 81.4668 123.068 81.4668 123.134 81.4668C123.134 81.7958 123.068 82.1248 123.134 82.3879C123.134 82.3879 123.068 82.3879 123.002 82.3879V82.3222ZM134.516 75.9402C134.516 75.9402 134.516 76.006 134.582 76.0718C134.451 76.2034 134.319 76.3349 134.187 76.4665C134.187 76.4665 134.122 76.3349 134.056 76.3349L134.451 75.9402H134.516ZM134.319 79.6904H134.122L134.187 79.0325C134.187 79.0325 134.187 79.0325 134.253 79.0325C134.385 79.1641 134.516 79.2299 134.648 79.2957L134.319 79.6904ZM140.043 74.2953L139.517 74.1638V74.098H139.846C139.846 74.098 140.109 73.9664 140.175 73.9006C140.175 74.0322 140.043 74.1638 140.043 74.2953ZM146.557 73.1769C146.557 73.1769 146.491 73.2426 146.425 73.2426C146.228 73.2426 146.096 73.2426 145.899 73.3084C145.767 72.7821 145.504 72.4531 144.977 72.1899C145.241 71.9926 145.372 71.6636 145.504 71.4004C145.701 72.1899 146.162 72.8479 146.951 73.1769C146.82 73.1769 146.688 73.0453 146.557 73.1111V73.1769ZM152.544 63.7684V62.9789C152.544 62.9789 153.004 63.1762 153.267 63.1762C153.399 63.1762 153.465 63.1104 153.531 63.1104C153.531 63.3736 153.531 63.6368 153.596 63.8342C153.202 63.7026 152.873 63.6368 152.478 63.7684H152.544ZM158.399 59.9524C158.399 59.9524 158.136 60.0839 158.005 60.1497C157.873 60.1497 157.741 60.1497 157.61 60.1497C157.544 60.1497 157.544 60.3471 157.412 60.4129C157.347 60.5445 157.281 60.6103 157.215 60.7419C157.083 61.0051 156.886 61.2024 156.886 61.4656C156.82 61.4656 156.755 61.334 156.623 61.334C156.36 61.334 156.162 61.4656 155.899 61.5314C156.031 61.334 156.228 61.2024 156.294 60.9393C157.018 60.8077 157.61 60.2813 157.676 59.5576V59.1628C157.676 59.1628 158.136 58.9655 158.334 58.7681C158.465 58.7681 158.531 58.7681 158.663 58.7023C158.663 58.9655 158.531 59.2286 158.663 59.5576C158.663 59.6892 158.86 59.8208 158.926 59.8866H158.399V59.9524ZM167.018 51.6624C167.018 51.6624 166.887 51.8597 166.821 52.0571C166.624 52.0571 166.492 52.0571 166.295 52.0571C165.768 51.465 164.979 51.2018 164.255 51.5966C164.255 51.5966 164.189 51.5966 164.123 51.6624C163.992 51.5308 163.926 51.2676 163.729 51.2018H163.597C163.597 51.2018 163.86 51.2018 163.992 51.2018C164.321 51.2018 164.584 51.136 164.847 50.9386L165.637 50.4781C165.637 50.4781 166.097 49.9517 166.229 49.6886C166.229 50.2807 166.492 50.8071 167.018 51.0702C167.216 51.136 167.347 51.2018 167.545 51.2018C167.347 51.3334 167.084 51.3992 166.953 51.6624H167.018ZM189.98 40.5433L189.849 40.4117C189.585 40.0169 189.52 39.5564 189.585 39.2932L190.441 40.1485L190.046 40.5433H189.98ZM191.954 40.5433C191.954 40.5433 191.691 40.5433 191.559 40.6091L191.362 40.1485L192.217 39.6879C192.217 39.6879 192.217 40.2143 191.888 40.5433H191.954Z" fill="#EB1807"/>
<path d="M198.661 44.2278L199.319 43.7673C199.714 43.5041 199.912 43.1094 199.977 42.6488C200.043 42.1882 199.977 41.7277 199.648 41.3987L199.254 40.8724C198.661 40.0829 197.609 39.9513 196.885 40.5434C196.424 40.8724 196.227 41.3987 196.227 41.9251C195.964 42.254 195.898 42.7146 195.898 43.1094C195.635 43.1094 195.503 42.9778 195.109 42.912L194.78 44.5568V45.2147L194.188 45.3463V45.6095C194.253 46.4648 194.977 47.057 195.832 47.057C195.832 47.057 195.898 47.057 195.964 47.057C196.03 47.057 196.096 47.1886 196.227 47.1886C196.556 47.5833 197.017 47.7807 197.543 47.7807C198.464 47.7807 199.254 46.9912 199.254 46.0701C199.254 45.6753 199.254 44.9516 198.661 44.3594C198.661 44.3594 198.661 44.3594 198.596 44.3594L198.661 44.2278Z" fill="#EB1807"/>
</svg>
