<svg width="24" height="24" viewBox="0 0 24 24" fill="none" xmlns="http://www.w3.org/2000/svg">
<g clip-path="url(#clip0_3901_10188)">
<path fill-rule="evenodd" clip-rule="evenodd" d="M8.26884 2.99217C9.45176 2.50219 10.7196 2.25 12 2.25C13.2804 2.25 14.5482 2.50219 15.7312 2.99217C16.9141 3.48216 17.9889 4.20034 18.8943 5.10571C19.7997 6.01108 20.5178 7.08591 21.0078 8.26884C21.4978 9.45176 21.75 10.7196 21.75 12V17.25C21.75 17.8467 21.5129 18.419 21.091 18.841C20.669 19.2629 20.0967 19.5 19.5 19.5H18C17.4033 19.5 16.831 19.2629 16.409 18.841C15.9871 18.419 15.75 17.8467 15.75 17.25V13.5C15.75 12.9033 15.9871 12.331 16.409 11.909C16.831 11.4871 17.4033 11.25 18 11.25H20.2158C20.1404 10.4237 19.9406 9.61207 19.622 8.84286C19.2074 7.84193 18.5997 6.93245 17.8336 6.16637C17.0675 5.40029 16.1581 4.7926 15.1571 4.37799C14.1562 3.96339 13.0834 3.75 12 3.75C10.9166 3.75 9.8438 3.96339 8.84286 4.37799C7.84193 4.7926 6.93245 5.40029 6.16637 6.16637C5.40029 6.93245 4.79259 7.84193 4.37799 8.84286C4.05938 9.61207 3.85959 10.4237 3.78416 11.25H6C6.59674 11.25 7.16903 11.4871 7.59099 11.909C8.01295 12.331 8.25 12.9033 8.25 13.5V17.25C8.25 17.8467 8.01295 18.419 7.59099 18.841C7.16903 19.2629 6.59674 19.5 6 19.5H4.5C3.90326 19.5 3.33097 19.2629 2.90901 18.841C2.48705 18.419 2.25 17.8467 2.25 17.25V12C2.25 10.7196 2.50219 9.45176 2.99217 8.26884C3.48216 7.08591 4.20034 6.01108 5.10571 5.10571C6.01108 4.20034 7.08591 3.48216 8.26884 2.99217Z" fill="#6A6D73"/>
</g>
<defs>
<clipPath id="clip0_3901_10188">
<rect width="24" height="24" fill="white"/>
</clipPath>
</defs>
</svg>
