<svg width="35" height="36" viewBox="0 0 35 36" fill="none" xmlns="http://www.w3.org/2000/svg">
  <path d="M26.6295 28.4387C26.3154 29.1569 25.7288 29.721 24.9988 30.0067C24.2688 30.2925 23.4552 30.2766 22.737 29.9625L5.13394 22.2642C4.41569 21.9501 3.85164 21.3635 3.56587 20.6335C3.2801 19.9035 3.29602 19.0899 3.61013 18.3717L9.43922 5.04279C10.0933 3.5472 15.2292 2.48328 16.7247 3.13734L30.6887 9.24416C32.7835 10.1603 33.6429 12.4016 32.7363 14.4747L26.6295 28.4387Z" fill="#CF8900"/>
  <path d="M24.0893 30.5549C23.7752 31.2731 23.1886 31.8372 22.4586 32.1229C21.7287 32.4087 20.915 32.3928 20.1968 32.0787L5.30191 25.5647C4.58366 25.2506 4.01961 24.664 3.73384 23.9341C3.44807 23.2041 3.46399 22.3905 3.7781 21.6722L10.8842 5.42325C12.1038 2.63452 12.0544 2.70887 15.4538 4.19553L29.6716 10.4134C30.3899 10.7275 30.9539 11.3141 31.2397 12.044C31.5255 12.774 31.5095 13.5876 31.1954 14.3059L24.0893 30.5549Z" fill="#EFF0F2"/>
  <path d="M22.4417 30.6401C22.2061 31.1788 21.7661 31.6018 21.2187 31.8162C20.6712 32.0305 20.061 32.0185 19.5223 31.783L3.27331 24.6768C2.73462 24.4413 2.31158 24.0013 2.09726 23.4538C1.88293 22.9063 1.89487 22.2961 2.13045 21.7575L9.23657 5.50849C9.47215 4.96981 9.91208 4.54677 10.4596 4.33244C11.0071 4.11811 11.6173 4.13005 12.156 4.36564L28.4049 11.4718C28.9436 11.7073 29.3666 12.1473 29.581 12.6948C29.7953 13.2422 29.7834 13.8525 29.5478 14.3911L22.4417 30.6401Z" fill="white"/>
  <path d="M22.1427 31.3176C21.8286 32.0359 21.2421 32.5999 20.5121 32.8857C19.7821 33.1714 18.9685 33.1555 18.2502 32.8414L4.03238 26.6236C3.31413 26.3095 2.75008 25.7229 2.46431 24.9929C2.17854 24.2629 2.19446 23.4493 2.50857 22.731L9.02251 7.83617C9.33662 7.11792 9.92319 6.55387 10.6532 6.2681C11.3832 5.98233 12.1968 5.99825 12.915 6.31236L27.1329 12.5302C27.8511 12.8443 28.4152 13.4309 28.7009 14.1609C28.9867 14.8909 28.9708 15.7045 28.6567 16.4227L22.1427 31.3176Z" fill="#FFB400"/>
  <path d="M20.7887 30.7254C20.4745 31.4437 19.888 32.0077 19.158 32.2935C18.428 32.5793 17.6144 32.5633 16.8961 32.2492L4.03238 26.6236C3.31413 26.3095 2.75008 25.7229 2.46431 24.9929C2.17854 24.2629 2.19446 23.4493 2.50857 22.731L8.43033 9.19025C8.74445 8.472 9.33101 7.90795 10.061 7.62218C10.791 7.33641 11.6046 7.35233 12.3228 7.66644L25.4134 13.3913C26.909 14.0454 27.4637 15.4622 26.8096 16.9578L20.7887 30.7254Z" fill="#FFD266"/>
  <path d="M12.9163 6.31157C11.7741 5.81207 12.3134 4.49777 13.0535 4.15362C13.8954 3.76288 14.8623 3.93651 16.4283 4.62136L17.4858 5.08385L18.078 3.72977L16.2371 2.92471C13.5506 1.74983 10.5674 2.46149 9.71614 4.40798L1.83279 22.4342C1.51868 23.1524 1.50276 23.966 1.78853 24.696C2.0743 25.426 2.63835 26.0126 3.3566 26.3267L4.71068 26.9189L13.5933 6.60766L12.9163 6.31157Z" fill="#CF8900"/>
</svg>
