<svg width="24" height="24" viewBox="0 0 24 24" fill="none" xmlns="http://www.w3.org/2000/svg">
<path d="M6.82801 11.3283C6.73968 11.4165 6.66961 11.5213 6.62181 11.6366C6.574 11.752 6.54939 11.8756 6.54939 12.0004C6.54939 12.1253 6.574 12.2489 6.62181 12.3642C6.66961 12.4795 6.73968 12.5843 6.82801 12.6725L14.3279 20.1725C14.4162 20.2607 14.521 20.3307 14.6363 20.3785C14.7516 20.4263 14.8752 20.4508 15 20.4508C15.1248 20.4508 15.2484 20.4263 15.3637 20.3785C15.479 20.3307 15.5838 20.2607 15.672 20.1725C15.7603 20.0842 15.8303 19.9794 15.878 19.8641C15.9258 19.7488 15.9504 19.6252 15.9504 19.5004C15.9504 19.3756 15.9258 19.252 15.878 19.1367C15.8303 19.0214 15.7603 18.9166 15.672 18.8284L15.672 18.8284L8.84315 12.0004L15.672 5.17247L15.672 5.17246C15.8503 4.99423 15.9504 4.75248 15.9504 4.50042C15.9504 4.24835 15.8503 4.00661 15.672 3.82837C15.4938 3.65013 15.252 3.55 15 3.55C14.7479 3.55 14.5062 3.65013 14.3279 3.82837L6.82801 11.3283ZM6.82801 11.3283L6.96935 11.4698M6.82801 11.3283L6.82793 11.3284L6.96935 11.4698M6.96935 11.4698C6.89962 11.5394 6.8443 11.6222 6.80656 11.7132C6.76882 11.8043 6.74939 11.9019 6.74939 12.0004C6.74939 12.099 6.76882 12.1966 6.80656 12.2876C6.8443 12.3787 6.89962 12.4614 6.96935 12.531L15.5306 5.03104C15.6713 4.89031 15.7504 4.69944 15.7504 4.50042C15.7504 4.30139 15.6713 4.11052 15.5306 3.96979C15.3899 3.82906 15.199 3.75 15 3.75C14.801 3.75 14.6101 3.82906 14.4694 3.96979L6.96935 11.4698Z" fill="#D6D5D2" stroke="#D6D5D2" stroke-width="0.4"/>
</svg>
