<svg width="38" height="38" viewBox="0 0 38 38" fill="none" xmlns="http://www.w3.org/2000/svg">
  <g clip-path="url(#clip0_1435_32816)">
    <path d="M18.3273 28.2601C17.9187 28.6316 17.8886 29.264 18.2601 29.6727C18.6316 30.0813 19.264 30.1114 19.6727 29.7399L18.3273 28.2601ZM30 19L30.6727 19.7399C30.875 19.556 30.9932 19.2972 30.9997 19.0238C31.0062 18.7504 30.9005 18.4863 30.7071 18.2929L30 19ZM8.5 18C7.94772 18 7.5 18.4477 7.5 19C7.5 19.5523 7.94772 20 8.5 20V18ZM19.7071 7.29289C19.3166 6.90237 18.6834 6.90237 18.2929 7.29289C17.9024 7.68342 17.9024 8.31658 18.2929 8.70711L19.7071 7.29289ZM19.6727 29.7399L30.6727 19.7399L29.3273 18.2601L18.3273 28.2601L19.6727 29.7399ZM30 18H8.5V20H30V18ZM30.7071 18.2929L19.7071 7.29289L18.2929 8.70711L29.2929 19.7071L30.7071 18.2929Z" fill="#6A6D73"/>
  </g>
  <defs>
    <clipPath id="clip0_1435_32816">
      <rect width="38" height="38" fill="white"/>
    </clipPath>
  </defs>
</svg>
