<svg width="33" height="17" viewBox="0 0 33 17" fill="none" xmlns="http://www.w3.org/2000/svg">
<path d="M3.5 2.5C4.53356 3.13983 5.62819 3.655 6.76283 4.06248M6.76283 4.06248C14.8497 6.96666 24.9691 4.40007 29.5 2.5C26 3.33333 18.5 6.7 16.5 13.5C11.7 7.1 8.00856 4.54165 6.76283 4.06248ZM13.5 8H16.5L19.5 7L13.5 6.5V7.5L16 10.5" stroke="white" stroke-width="2"/>
<path d="M4 2.5H28.5L28 2.53947M28 2.53947L9.5 4L8 3L15.5 10.5L16.5 9H17.5L16.5 11L21 5L15.5 12L15 5.5L3.5 2L3 1.5H29.5L28 2.53947Z" stroke="white" stroke-width="2"/>
<path d="M2.5 3C6.07778 3.5 13.8867 7.6 16.5 16C17.8333 12 22.5 3 30.5 3" stroke="#6B5138" stroke-width="2" stroke-linejoin="round"/>
</svg>
