<svg width="18" height="18" viewBox="0 0 18 18" fill="none" xmlns="http://www.w3.org/2000/svg">
<path d="M3.04871 6.03405V4.55072C3.04871 4.15731 3.20499 3.78002 3.48316 3.50184C3.76134 3.22366 4.13863 3.06738 4.53204 3.06738H6.01537M3.04871 11.9674V13.4507C3.04871 13.8441 3.20499 14.2214 3.48316 14.4996C3.76134 14.7778 4.13863 14.934 4.53204 14.934H6.01537M11.9487 3.06738H13.432C13.8254 3.06738 14.2027 3.22366 14.4809 3.50184C14.7591 3.78002 14.9154 4.15731 14.9154 4.55072V6.03405M11.9487 14.934H13.432C13.8254 14.934 14.2027 14.7778 14.4809 14.4996C14.7591 14.2214 14.9154 13.8441 14.9154 13.4507V11.9674" stroke="white" stroke-width="1.1125" stroke-linecap="round" stroke-linejoin="round"/>
</svg>
