<svg width="76" height="80" viewBox="0 0 76 80" fill="none" xmlns="http://www.w3.org/2000/svg">
<g clip-path="url(#clip0_1176_34411)">
<path d="M73.3798 0C73.4006 0.221037 73.424 0.439533 73.4474 0.696138C73.6426 0.706301 73.8611 0.675813 74.0433 0.739329C74.215 0.800305 74.3529 0.957825 74.5533 1.10518V1.47866C74.9228 1.67175 75.2714 1.85213 75.6669 2.06047C75.6539 2.07825 75.6227 2.15701 75.5629 2.20274C75.3157 2.38821 75.0451 2.55081 74.8161 2.75407C74.7328 2.82774 74.6704 3.02591 74.7146 3.11484C74.7667 3.22154 74.9332 3.29268 75.0633 3.34604C75.1413 3.37907 75.248 3.34604 75.3417 3.35366C75.6279 3.3689 75.6565 3.49848 75.6071 3.7627C75.5759 3.92276 75.5394 4.10569 75.5446 4.281C75.5499 4.42327 75.5342 4.56555 75.5473 4.70783C75.5733 4.94411 75.5108 5.12195 75.3131 5.28455C75.209 5.37093 75.183 5.54624 75.1205 5.68343C75.0841 5.75965 75.0477 5.83587 75.0086 5.91717C75.3521 6.28811 75.3339 6.32876 74.9956 6.70986C74.7224 7.01982 74.483 7.3628 74.2567 7.70833C74.0121 8.07927 73.6764 8.21646 73.2367 8.03862C73.0753 7.9751 72.953 8.26982 72.8125 8.04624C72.5549 8.20884 72.3025 7.94207 72.0423 8.03354C71.8914 8.08689 71.7327 8.11484 71.639 8.1377C71.6702 8.41717 71.6806 8.61789 71.7145 8.81606C71.7613 9.08029 71.5818 9.37754 71.8342 9.61382C71.8368 9.61636 71.7769 9.66971 71.7769 9.69766C71.7769 9.79929 71.7847 9.90346 71.8029 10.0051C71.8107 10.0584 71.8706 10.1194 71.8576 10.1601C71.7639 10.4599 71.6598 10.7597 71.5479 11.0544C71.5115 11.1484 71.4413 11.2271 71.371 11.3389C71.0119 11.3974 70.7101 11.2576 70.4343 10.9934C70.325 10.8892 70.1402 10.8105 69.9893 10.8105C69.625 10.8105 69.2608 10.8664 68.8548 10.9019C68.8887 11.0671 68.8887 11.1509 68.9225 11.2144C69.0838 11.5041 69.089 11.6895 69.0266 12.0071C68.998 12.1596 69.0266 12.3501 69.0994 12.4898C69.2686 12.8227 69.1411 13.1021 68.7664 13.1657C68.6024 13.1936 68.4255 13.2266 68.2876 13.3105C68.1497 13.3918 68.056 13.3257 67.9389 13.3206C67.7802 13.3155 67.6215 13.4527 67.4549 13.501C67.3327 13.5366 67.1739 13.5722 67.0751 13.5239C66.8305 13.4045 66.6223 13.3892 66.4089 13.5747C66.1383 13.8084 65.8677 14.0142 65.467 14.0091C65.264 14.0066 65.0585 14.1184 64.8243 14.187C64.7905 14.0447 64.7697 13.9634 64.7306 13.8084C64.5329 13.9812 64.3117 14.1032 64.2154 14.2861C64.1348 14.4436 64.1738 14.6672 64.3585 14.8272C64.5016 14.9517 64.6656 15.1092 64.702 15.2769C64.7332 15.4294 64.6292 15.6275 64.5381 15.78C64.4756 15.8867 64.3794 15.9654 64.1894 15.8486C64.0203 15.747 63.7601 15.7901 63.4973 15.7647C63.5129 15.9019 63.4973 15.9985 63.5337 16.0696C63.7236 16.4253 63.6456 16.5854 63.1798 16.654C63.2371 16.8242 63.2917 16.9817 63.3463 17.1494C62.9977 17.2459 62.5033 16.9868 62.4721 17.6016H61.9048C61.7305 17.815 61.59 17.9853 61.3922 18.2266C61.4104 17.5864 62.2015 17.1214 61.6134 16.5041C61.4391 16.6159 61.2777 16.72 61.0852 16.842C61.08 16.9106 61.0748 17.0198 61.0644 17.1545C60.9837 17.1697 60.9004 17.1875 60.877 17.1926C60.7313 17.7414 60.596 18.2597 60.4607 18.7754C60.4867 18.905 60.6611 19.0498 60.3983 19.1692C60.6428 19.6265 60.2317 19.8069 60.0366 20.0864C59.8414 19.9619 59.6489 19.8399 59.4563 19.7154C59.334 19.7815 59.1961 19.9136 59.0478 19.9238C58.9021 19.9339 58.7486 19.8222 58.6003 19.7663C58.6029 19.7993 58.6055 19.8323 58.6107 19.8653C58.5092 19.9466 58.4025 20.0178 58.3114 20.1092C58.2698 20.1524 58.223 20.2414 58.2438 20.282C58.3114 20.4345 58.4051 20.5793 58.5222 20.78C58.3479 20.9375 58.1579 21.1255 57.9471 21.2856C57.8353 21.372 57.6817 21.4024 57.5568 21.4736C57.3513 21.5879 57.1665 21.7607 56.9454 21.8293C56.6097 21.9334 56.49 22.1214 56.5264 22.4441C56.5316 22.4873 56.4822 22.5483 56.4432 22.5813C56.3391 22.6728 56.1361 22.7515 56.1309 22.8455C56.1127 23.1352 56.1726 23.4273 56.196 23.7221C56.2012 23.8008 56.1804 23.8796 56.1726 23.9583C55.6964 23.8516 55.5663 24.2353 55.3581 24.5071C55.3347 24.5376 55.2983 24.5579 55.2566 24.5935C55.3087 24.6519 55.3529 24.7002 55.3946 24.7485C55.3737 24.7688 55.3607 24.7866 55.3477 24.7917C55.1786 24.8399 54.9964 24.8603 54.8429 24.9339C54.4995 25.0991 54.0857 25.1347 53.8255 25.4548C53.8047 25.4802 53.7475 25.4954 53.711 25.4878C53.3754 25.4167 53.339 25.7317 53.3051 25.8816C53.2557 26.1179 53.3676 26.3847 53.3598 26.6362C53.352 26.8979 53.3155 27.1697 53.2297 27.4162C53.1776 27.5635 53.0918 27.7617 52.8602 27.7744C52.8394 27.7744 52.8055 27.8354 52.8029 27.8328C52.4334 27.5788 52.1654 27.9472 51.8428 27.9827C51.8012 27.9878 51.7569 28.0259 51.7309 28.0615C51.6164 28.2038 51.5071 28.3511 51.3952 28.4985C51.3588 28.4858 51.3198 28.4731 51.2833 28.4604C51.312 28.5645 51.3406 28.6687 51.3796 28.8034C51.1767 29.0295 50.9061 29.1921 50.5366 29.2581C50.1671 29.3267 49.8132 29.497 49.743 29.8653C49.1263 29.7612 48.6293 30.1651 48.0022 30.0534C48.0594 30.3608 48.1037 30.6123 48.1531 30.8816C47.3153 30.8257 47.703 31.4761 47.5703 31.8623H46.8183C46.6023 32.3425 46.2146 32.6448 45.8503 32.9649C45.637 33.1529 45.5407 33.3867 45.4626 33.656C45.4158 33.8186 45.1946 33.9329 45.0541 34.0701C44.9396 33.9228 44.8251 33.7779 44.7106 33.6306C44.7367 33.6052 44.7627 33.5798 44.7887 33.5544C44.6144 33.5036 44.4348 33.4096 44.2657 33.4223C44.1564 33.4299 44.0263 33.5772 43.9612 33.6941C43.8233 33.9431 43.9769 34.126 44.2293 34.3216C43.9092 34.7078 43.597 35.0915 43.2795 35.4726C43.0037 35.8054 43.0063 36.0518 43.2795 36.4533C43.3784 36.6006 43.4747 36.7226 43.636 36.8242C43.9222 37.002 44.0965 37.2739 44.0549 37.5686C43.8858 37.6855 43.7635 37.7693 43.6386 37.8557C43.7895 37.97 43.9404 38.0844 44.0887 38.1987C44.1122 38.1707 44.1356 38.1453 44.159 38.1174C44.2006 38.407 44.3516 38.5366 44.6534 38.5366C44.885 38.5366 45.1452 38.5696 45.3403 38.6763C45.5147 38.7729 45.6838 38.9736 45.7332 39.1616C45.7905 39.3674 45.6083 39.4842 45.3741 39.4893C45.1556 39.4944 44.9396 39.7561 44.924 40.0711C45.231 40.1092 45.5485 40.1169 45.8529 40.1905C46.3005 40.2998 46.7402 40.4522 46.9119 40.9451C46.9276 40.9934 46.9874 41.0264 47.042 41.0849C46.7428 41.2602 46.6908 41.5168 46.7896 41.8293C47.284 41.6946 47.768 41.565 48.3092 41.4177C48.572 42.2561 48.8296 43.0742 49.0924 43.9202C49.4099 43.9202 49.6519 44.0574 49.7534 44.4233C49.7976 44.5859 49.9745 44.7129 50.0526 44.873C50.1515 45.0762 50.2165 45.2973 50.292 45.5107C50.3596 45.7012 50.4221 45.8943 50.4871 46.0874C50.5158 46.0823 50.5418 46.0747 50.5704 46.0696L50.3128 46.3084C50.3388 46.3135 50.3648 46.3186 50.3909 46.3237C50.3596 46.5701 50.331 46.8166 50.3024 47.03C50.5392 47.1138 50.7708 47.1723 50.9685 47.284C51.0336 47.3196 51.0127 47.5 51.031 47.6245C50.7838 47.6575 50.5808 47.6855 50.3778 47.7134C50.3648 47.6855 50.3518 47.6575 50.3388 47.6296C50.2816 47.6982 50.2295 47.7668 50.1697 47.8328C49.9589 48.0615 50.0422 48.3918 50.3336 48.5188C50.4221 48.5569 50.5496 48.6255 50.56 48.6941C50.6302 49.1438 50.9529 49.065 51.2547 49.0523C51.4577 48.5772 51.3978 47.9903 51.9156 47.716C52.0275 47.7464 52.1264 47.7922 52.2279 47.7998C52.4699 47.8201 52.4803 47.9116 52.3476 48.0843C52.2201 48.252 52.2565 48.6992 52.4126 48.8135C52.4699 48.8542 52.5609 48.8516 52.639 48.8669C52.6572 48.8364 52.6728 48.8034 52.691 48.7729C52.8055 48.9482 52.8784 49.1972 53.0423 49.2886C53.4404 49.5071 53.6018 49.8831 53.8359 50.2134C53.875 50.2693 53.9296 50.315 53.9817 50.3582C54.1404 50.4929 54.2497 50.625 53.9504 50.7901C54.0857 50.8308 54.1664 50.8562 54.2106 50.8689C54.3121 51.1433 54.4032 51.3923 54.4578 51.5371C54.3667 51.8445 54.2991 52.0808 54.2288 52.3196C54.6478 52.4212 54.9912 52.467 55.1552 52.8709C55.2046 52.9903 55.5168 52.9878 55.6834 53.0869C55.9566 53.2495 56.2168 53.4324 56.4588 53.6382C56.529 53.6966 56.529 53.8542 56.5316 53.966C56.542 54.2937 56.8543 54.7459 57.1743 54.878C57.3175 54.939 57.458 55.0076 57.6401 55.0889C57.6687 55.188 57.7156 55.343 57.752 55.4726C57.549 55.5412 57.3279 55.6174 57.1041 55.6936C57.1926 55.8689 57.2498 55.9807 57.3175 56.1128H57.6921C57.6531 56.0213 57.6219 55.9502 57.5803 55.8613C57.8899 55.8003 58.0538 55.9527 58.249 56.1535C58.4623 56.372 58.746 56.5523 59.0322 56.6616C59.3444 56.781 59.6957 56.7988 59.9585 56.8471C60.1641 57.1926 60.3618 57.5229 60.6064 57.937C60.6064 58.1428 60.1979 58.2724 60.2057 58.6382C60.2083 58.7754 60.0184 58.9126 59.9377 59.06C59.792 59.3293 59.6333 59.596 59.5448 59.8831C59.5032 60.0127 59.589 60.2058 59.6671 60.3404C59.7712 60.5234 59.9481 60.6656 60.047 60.846C60.2187 61.156 60.5804 61.0722 60.8198 61.2398C61.0045 61.3694 61.2283 61.4609 61.2075 61.7099C61.0774 61.7886 60.9655 61.8471 60.864 61.9182C60.8276 61.9436 60.7833 62.0198 60.7964 62.0376C60.9004 62.185 60.9967 62.3501 61.1398 62.4517C61.1919 62.4898 61.4443 62.3958 61.4599 62.3272C61.5978 61.7962 61.9126 62.2129 62.0401 62.2713C62.1728 62.3323 62.5423 62.5076 62.2223 62.81C62.1936 62.8379 62.2275 62.9929 62.2509 62.9954C62.5631 63.0539 62.5163 63.3613 62.6594 63.5264C62.7869 63.6789 63.0107 63.7525 63.1902 63.8669C63.401 63.999 63.6274 64.1159 63.8069 64.2785C63.8798 64.3445 63.911 64.5706 63.8537 64.6392C63.6352 64.9009 63.8407 65.0229 64.0099 65.1067C64.2857 65.2414 64.5901 65.3227 64.957 65.4548C64.8972 65.6682 64.8373 65.8841 64.7775 66.1026C64.7671 66.1407 64.7671 66.1814 64.7592 66.2221C64.7046 66.6184 64.6474 67.0173 64.5901 67.4289H64.0567C64.1113 67.2993 64.153 67.2002 64.205 67.0757C63.9708 67.0071 63.7367 66.9106 63.7835 66.593C63.7887 66.5625 63.7575 66.5168 63.7288 66.4939C63.63 66.4126 63.5285 66.3364 63.4088 66.2449C63.3437 66.3491 63.0835 66.377 63.2709 66.687C63.3724 66.8572 63.211 67.1672 63.2058 67.4136C63.198 67.6905 63.2839 67.9065 63.5805 68.0589C63.7679 68.1529 63.8668 68.4096 64.0099 68.5899C64.1894 68.8186 64.395 69.032 64.5485 69.2734C64.8087 69.6799 65.2849 69.8526 65.5633 70.2896C65.735 69.9238 65.5919 69.6646 65.454 69.4233C65.3317 69.2124 65.1313 69.0422 65.0117 68.8313C64.8529 68.5518 64.7358 68.247 64.5953 67.9421C65.0663 67.8506 65.1183 67.8836 65.3239 68.4273C65.3967 68.6179 65.5086 68.7094 65.7246 68.7271C65.9093 68.7424 66.0863 68.8211 66.271 68.8491C66.6405 68.9024 66.4297 69.0447 66.3257 69.1768C66.6249 69.5224 66.8721 69.8857 66.8981 70.3659C66.9111 70.6326 66.9606 70.9146 67.0673 71.1585C67.1739 71.3999 67.3743 71.6006 67.5044 71.781V72.2586C67.1869 72.3755 67.0256 72.8989 67.3275 73.0539C67.52 73.1529 67.8062 73.0767 68.0482 73.0894C68.1315 73.092 68.2798 73.1047 68.2902 73.1402C68.4385 73.7094 68.5712 74.2861 68.7091 74.8704C68.6155 74.9975 68.2095 74.9339 68.3787 75.2312C68.2538 75.4116 68.1055 75.5589 68.0378 75.7368C67.9415 75.9858 67.7906 76.0772 67.6111 76.0442C67.3873 75.7876 67.1895 75.5869 67.023 75.3633C66.8435 75.1219 66.6978 74.8603 66.5364 74.6062C66.5625 74.5833 66.5885 74.5605 66.6171 74.5376C66.4974 74.5274 66.3751 74.5147 66.2918 74.5071C66.1071 74.2149 65.9328 73.938 65.7636 73.6687C65.5997 73.7449 65.4748 73.8034 65.3161 73.8796C65.5815 74.5401 65.8469 75.2058 66.1123 75.8689C65.6804 75.9705 65.6491 75.8994 65.4826 75.4827C65.3473 75.1423 65.1105 74.8298 64.728 74.6545C64.5173 74.5579 64.3403 74.3902 64.1478 74.2556C63.9266 74.4207 63.6456 74.3064 63.5207 74.0117C63.4738 73.8974 63.3958 73.7957 63.3229 73.6916C63.2969 73.6535 63.2188 73.623 63.2241 73.6001C63.2787 73.2622 63.0419 73.1529 62.7895 73.0615C62.6932 73.0259 62.5475 73.0615 62.4877 73.0056C62.0661 72.5915 61.655 72.1646 61.2517 71.7327C60.7521 71.1966 60.2603 70.6529 59.7712 70.1042C59.602 69.9162 59.4485 69.7129 59.3054 69.5071C59.2716 69.4563 59.2742 69.342 59.3106 69.2886C59.4849 69.0346 59.563 68.7678 59.537 68.4629C59.5188 68.2419 59.5344 68.0183 59.5344 67.8176C59.7269 67.8913 59.9143 68.0234 60.0938 68.0157C60.4607 67.9954 60.8224 67.8989 61.2127 67.8277C61.2439 67.627 61.3454 67.4543 61.6524 67.4593C61.7513 67.4593 61.8528 67.3577 61.9126 67.3247C61.819 67.0452 61.7071 66.8039 61.6654 66.5523C61.6342 66.3593 61.6602 66.1255 61.4391 66.0874C61.3116 66.0645 61.1476 66.217 60.9863 66.2983C60.5882 66.0061 60.073 66.0645 59.537 66.0595C59.4823 66.2856 59.3809 66.499 59.3939 66.7073C59.4095 66.9639 59.5318 67.2154 59.5864 67.4721C59.5994 67.5381 59.5344 67.6219 59.4771 67.6982C59.4433 67.6016 59.1467 67.6067 59.3809 67.4162C59.3861 67.4136 59.3392 67.3374 59.308 67.3044C59.2091 67.2053 59.092 67.1214 59.0036 67.0122C58.8917 66.875 58.6705 66.7302 59.0036 66.5701C58.7971 66.4837 58.6783 66.5913 58.6471 66.8928C58.5742 66.8852 58.4701 66.9055 58.4311 66.8648C58.3036 66.7353 58.2178 66.7454 58.0746 66.8598C57.9029 66.9969 57.5412 66.842 57.4345 66.5701C57.3201 66.283 57.0442 66.2093 56.8309 66.062C56.6045 65.907 56.3339 65.8105 56.0997 65.6656C55.8057 65.4853 55.6365 65.2312 55.7354 64.8577C55.6157 64.8399 55.5299 64.8272 55.4024 64.8094C55.4674 64.7383 55.5142 64.685 55.6027 64.5833C55.4076 64.4995 55.2332 64.4233 55.0225 64.3344C54.9522 64.187 54.8585 63.9939 54.7545 63.7805C54.8481 63.6865 54.9652 63.5798 55.0641 63.4578C55.1083 63.4019 55.1396 63.313 55.1265 63.2495C55.1187 63.2088 55.0251 63.1758 54.9626 63.1529C54.7909 63.0844 54.6035 63.0437 54.4422 62.9548C54.2575 62.8531 54.2497 62.439 54.3668 62.2104C54.4656 62.0173 54.5619 61.7962 54.5645 61.5879C54.5645 61.3516 54.463 61.1153 54.411 60.9045C54.2679 60.7901 54.1352 60.6834 53.9999 60.5818C53.7839 60.4192 53.5653 60.2591 53.3468 60.0991C53.123 59.9365 53.1256 59.7713 53.3337 59.6037C53.3728 59.5732 53.4274 59.563 53.4404 59.5579C53.1438 59.2962 52.9148 59.0498 52.6416 58.8643C52.371 58.6814 52.0536 58.5595 51.8402 58.4553C51.6841 58.0996 51.5904 57.7896 51.4213 57.5279C51.2599 57.2764 51.0179 57.0732 50.7499 56.8928C50.7421 56.7835 50.7369 56.6743 50.7291 56.5752C50.5912 56.4964 50.4637 56.4253 50.37 56.372C50.4143 56.1966 50.4533 56.0467 50.4923 55.8918C50.1072 55.7673 49.8809 55.5767 49.8939 55.1829C49.8965 55.094 49.8184 54.9695 49.7377 54.9136C49.5192 54.7536 49.4697 54.5554 49.4697 54.3013C49.4697 54.1362 49.3813 53.966 49.3188 53.8034C49.2798 53.7017 49.2199 53.6052 49.1549 53.5163C48.9233 53.2038 48.6267 52.9675 48.2858 52.7719C48.1921 52.7185 48.0907 52.6245 48.0568 52.5305C47.9293 52.1646 47.461 51.9487 47.0915 52.1037C46.735 52.2561 46.5399 52.2104 46.2328 51.8877C46.3447 51.748 46.4592 51.6031 46.5971 51.4304C46.5008 51.4126 46.3811 51.3872 46.1704 51.3465C46.2276 51.1179 46.2901 50.8918 46.3369 50.6606C46.3577 50.564 46.3811 50.4395 46.3369 50.3633C46.1834 50.0813 46.0038 49.812 45.8191 49.5198C46.1496 49.2454 45.6786 48.9761 45.7697 48.6839C45.4158 48.562 45.1972 48.3359 45.0541 48.0234C45.0203 47.9446 44.9578 47.8328 44.8928 47.8201C44.3516 47.7312 44.3463 47.2027 44.0783 46.8928C43.9508 46.7454 43.8624 46.5625 43.7427 46.372C43.6568 46.4507 43.6048 46.4964 43.5189 46.5752C43.5059 46.3669 43.4955 46.1992 43.4851 46.0188C43.1989 45.9731 42.9933 45.9909 42.8918 46.3161C42.8528 46.4431 42.7539 46.7149 42.4573 46.4507C42.2855 46.2983 41.9733 46.2957 41.6949 46.2195C41.6793 46.1687 41.6558 46.0899 41.6246 45.9858C41.3983 46.1153 41.1979 46.2297 40.9481 46.372C40.8258 46.1966 40.6827 45.9959 40.55 45.7901C40.5266 45.7546 40.5266 45.6631 40.55 45.6479C40.8622 45.4294 40.4901 45.2693 40.4927 45.0788C40.4927 45.0559 40.3522 45.033 40.256 45.0025C40.2482 44.8958 40.2377 44.779 40.2273 44.6367C39.9385 44.596 39.7616 44.4563 39.8006 44.1311C39.8292 43.8847 40.014 43.7906 40.243 43.8974C40.3522 43.9482 40.4927 43.9355 40.6463 43.9533V43.5239C40.5344 43.5163 40.4147 43.5086 40.295 43.501C40.308 43.4807 40.321 43.4604 40.3366 43.4426C40.2221 43.3562 40.0868 43.2851 39.9932 43.1784C39.7798 42.9344 39.556 42.6931 39.3895 42.4187C39.236 42.1697 39.1033 41.9563 38.7598 41.9817C38.6817 41.9868 38.5959 41.908 38.5178 41.8648C38.4163 41.8089 38.3201 41.7353 38.2134 41.6921C37.961 41.593 37.961 41.4761 38.0911 41.2475C38.2472 40.9705 38.5933 40.7927 38.562 40.4116C38.5568 40.3633 38.6375 40.3074 38.6635 40.2744C38.5672 40.1194 38.5126 39.9339 38.3877 39.8577C38.2784 39.7891 38.0781 39.8095 37.9402 39.8526C37.8127 39.8908 37.7112 40.0127 37.529 40.1524C37.49 40.3709 37.732 40.4776 37.9271 40.6174C37.9844 40.658 38.0338 40.7088 38.0859 40.7546C38.039 40.7952 37.987 40.8333 37.9454 40.8791C37.8153 41.0213 37.6487 41.1509 37.5681 41.3161C37.4562 41.5498 37.3651 41.7658 37.1179 41.908C37.0268 41.9588 37.0242 42.1443 36.9618 42.2586C36.7614 42.6245 36.9566 43.1352 36.5325 43.4121C36.4336 43.4781 36.2488 43.5239 36.1578 43.4781C35.7362 43.2622 35.6139 43.2901 35.3902 43.6687C35.3511 43.7322 35.1768 43.717 35.0493 43.6966C34.8906 43.7906 34.6954 43.8872 34.9426 44.1438C35.0363 44.2403 34.9582 44.4944 34.9582 44.6748C34.3702 44.9085 34.2661 45.061 34.2583 45.6911C34.2557 45.9502 34.0918 46.1052 33.7925 46.1306C33.4569 46.1585 33.0093 46.5828 32.9885 46.908C32.9755 47.1291 32.8506 47.2205 32.645 47.2332C32.5722 47.2383 32.4993 47.2332 32.4265 47.2332C31.8956 47.2332 31.8852 47.2409 31.8332 47.688C31.4559 47.8887 31.1046 48.0767 30.782 48.2495C30.7039 48.5976 30.6311 48.9329 30.5556 49.2708C30.3813 49.2378 30.2121 49.1819 30.043 49.1844C29.8557 49.1844 29.5772 49.0523 29.5538 49.3623C29.2858 49.4969 29.0516 49.624 28.807 49.7358C28.716 49.779 28.6041 49.784 28.4948 49.8069C28.5338 50.1092 28.3985 50.2414 27.7506 50.4726C27.8287 50.8714 27.4514 51.0036 27.2588 51.2475C27.0299 51.5422 26.7072 51.7861 26.741 52.218C26.7436 52.2612 26.715 52.312 26.6864 52.3476C26.5121 52.5661 26.5953 52.6651 26.9284 52.688C26.7124 52.8633 26.5459 53.0005 26.3065 53.1987C26.3065 53.3816 26.3611 53.6763 26.2909 53.9405C26.2284 54.1768 26.0255 54.3775 25.8694 54.6164C25.7653 54.5147 25.708 54.4334 25.6274 54.3852C25.5571 54.342 25.4114 54.2962 25.3906 54.3216C25.159 54.6062 24.597 54.6545 24.7453 55.2185C24.7973 55.4116 24.4513 55.6453 24.1 55.7215C24.1416 55.9273 24.1806 56.1331 24.2223 56.344C24.3394 56.4075 24.4747 56.4812 24.6386 56.5701C24.342 56.8394 24.1364 57.19 23.6889 57.0478C23.5145 57.4212 23.4182 57.7769 22.9811 57.9243C22.622 58.0462 22.5804 58.3181 22.7573 58.6814C22.7781 58.7221 22.7599 58.7779 22.7599 58.844C22.622 58.8618 22.4945 58.877 22.3332 58.8974C22.3852 58.9863 22.4217 59.0473 22.4477 59.0904C22.289 59.2785 22.1354 59.4614 21.9299 59.7053C21.883 59.6875 21.7373 59.6697 21.6411 59.5935C21.3418 59.3547 21.1076 59.347 20.7798 59.6367C20.5768 59.8171 20.3296 59.9975 20.6002 60.3176C20.6289 60.3506 20.5326 60.4776 20.5924 60.6225C20.6575 60.7876 20.5144 61.0213 20.5118 61.2271C20.5066 61.4329 20.4858 61.6184 20.3348 61.7708C20.3036 61.8039 20.2568 61.8216 20.2047 61.8521C20.262 61.9131 20.301 61.9538 20.3739 62.0325C20.236 62.0935 20.1033 62.2104 19.9966 62.1926C19.5412 62.1138 19.3669 62.3908 19.2212 62.7185C19.0755 63.0437 18.9766 63.0793 18.6591 62.9294C18.5837 62.8938 18.49 62.8989 18.3625 62.8786C18.5082 63.1072 18.6253 63.2901 18.745 63.4731C18.8257 63.5976 18.8491 63.6865 18.6539 63.7322C18.5551 63.7551 18.4744 63.8389 18.3651 63.9075C18.4119 63.971 18.451 64.0244 18.464 64.0396C18.3235 64.3216 18.1908 64.5808 18.0451 64.8704C17.8967 64.6519 17.7849 64.5986 17.6131 64.8145C17.4908 64.9695 17.3191 65.0508 17.0875 64.8882C17.0016 64.8272 16.7857 64.9416 16.6296 64.9695C16.3641 65.0152 16.0987 65.0864 15.8333 65.0965C15.3103 65.1169 15.3988 65.0965 15.391 65.5234C15.391 65.6021 15.3806 65.6809 15.3754 65.7724C15.2453 65.7901 15.1256 65.8054 15.0892 65.8105C14.9512 66.034 14.8368 66.1966 14.7457 66.3719C14.7015 66.4558 14.691 66.56 14.6884 66.654C14.678 67.0122 14.5011 67.2536 14.077 67.3882C14.1342 67.5711 14.1967 67.7566 14.2513 67.9446C14.3111 68.1402 14.2539 68.3537 14.077 68.4045C13.7309 68.5036 13.7309 68.7576 13.7049 69.0117C13.6919 69.1514 13.6997 69.2962 13.7049 69.4385C13.7075 69.6977 13.5748 69.8222 13.312 69.8222C13.1454 69.8222 12.9737 69.7993 12.815 69.8323C12.6823 69.8603 12.5626 69.9543 12.4325 70.0229C12.5678 70.1092 12.7005 70.1956 12.854 70.2947C12.7109 70.4268 12.573 70.5259 12.4689 70.6529C12.305 70.8537 12.1671 71.0747 12.0084 71.2805C11.9199 71.3948 11.8158 71.4964 11.7195 71.6057C11.6233 71.4964 11.527 71.3872 11.4333 71.2754C11.4151 71.2525 11.4099 71.2195 11.35 71.1916C11.3631 71.9258 10.6683 72.3272 10.5564 73.0208C10.3769 72.81 10.049 72.7134 10.1739 72.3907C10.3222 72.4085 10.4836 72.4771 10.5668 72.4263C10.6657 72.3653 10.6995 72.2027 10.7724 72.0579C10.3899 71.9817 10.0829 71.9207 9.79663 71.8623C9.71857 72.002 9.63531 72.0833 9.6327 72.1672C9.6275 72.3196 9.65612 72.4771 9.69255 72.627C9.72117 72.7439 9.78362 72.8531 9.83306 72.9649C9.71857 72.9497 9.60408 72.9344 9.41934 72.909C9.45837 73.0869 9.46357 73.2851 9.54684 73.4426C9.69775 73.7297 9.41153 73.6509 9.23199 73.7551C9.38291 73.8161 9.46617 73.8491 9.60408 73.9024C9.54684 74.1235 9.48179 74.3598 9.41153 74.6265C9.08888 74.7104 8.7324 74.8018 8.89373 75.249C8.49562 75.5894 8.04807 75.47 7.62654 75.503C7.25966 75.531 6.89277 75.5894 6.52588 75.6428C6.48946 75.6479 6.46083 75.7088 6.37497 75.8003C6.34634 75.7419 6.33594 75.6885 6.30211 75.6529C6.20844 75.5462 6.11216 75.3735 6.00548 75.3633C5.88058 75.3531 5.75048 75.5031 5.61257 75.5615C5.49548 75.6098 5.36538 75.6301 5.20666 75.6707V76.1687C5.72706 76.2475 5.82594 76.2043 5.95864 75.8765C6.15379 76.0747 6.34895 76.3008 6.57272 76.499C6.75486 76.6565 6.79389 76.8648 6.72104 77.0401C6.57012 77.4111 6.36196 77.7566 6.17721 78.1123C5.92742 77.9929 5.71665 77.8887 5.50329 77.7846C5.66722 77.6067 5.83375 77.4238 6.00808 77.2307C5.83895 76.9563 5.6516 76.9284 5.37579 77.1672C5.33676 77.2002 5.31074 77.2459 5.2665 77.2713C4.92564 77.4543 4.92564 77.4543 4.86319 77.8659C4.80855 77.7414 4.77472 77.6626 4.73569 77.5788C4.59258 77.7185 4.63941 77.9268 4.85538 78.1453C4.93344 78.2249 5.10344 78.1572 5.36538 77.9421C5.52931 78.0844 5.68543 78.2215 5.88839 78.3994V78.6433C5.60477 78.6103 5.33416 78.5772 5.06094 78.5493C4.82676 78.5239 4.7435 78.6966 4.59258 78.8262C4.30375 79.0752 4.21268 79.6113 3.65325 79.5173C3.60121 79.5097 3.51013 79.5554 3.48411 79.6011C3.341 79.8577 3.13544 79.967 2.86223 79.9289C2.79458 79.7002 2.71652 79.4893 2.67749 79.2734C2.66448 79.1997 2.74254 79.1082 2.80238 78.9761C2.64366 78.905 2.47973 78.8313 2.23254 78.7195C2.21433 78.6458 2.17529 78.4883 2.12065 78.252C2.01137 78.252 1.80321 78.2165 1.61586 78.2647C1.50918 78.2927 1.42851 78.4451 1.36086 78.5569C1.32964 78.6103 1.37647 78.7068 1.35045 78.7652C1.29321 78.8796 1.23076 79.0346 1.13188 79.0727C1.05903 79.1006 0.887292 78.9888 0.827445 78.8974C0.791017 78.8389 0.882087 78.7043 0.91071 78.6204C0.791017 78.4324 0.642701 78.2444 0.55163 78.031C0.520406 77.9548 0.653109 77.8252 0.663517 77.716C0.681731 77.4975 0.668721 77.2739 0.668721 77.0427C0.515202 77.03 0.395508 77.0198 0.262805 77.0071C0.20556 76.7378 0.234183 76.5346 0.559436 76.4736C0.629691 76.4609 0.697343 76.3923 0.746782 76.3338C0.921118 76.1179 1.07724 75.8892 1.26198 75.6809C1.42851 75.4929 1.60545 75.3074 1.81101 75.1651C1.89167 75.1092 2.06081 75.1778 2.21433 75.1906C1.95672 75.6275 2.24035 75.9527 2.21953 76.2856C2.54738 76.4863 2.65407 76.2449 2.76596 76.0442C2.93248 75.7419 3.10682 75.4421 3.23952 75.1245C3.32539 74.9162 3.34361 74.6799 3.37743 74.5122C3.24993 74.3928 3.17187 74.3191 3.09641 74.248C3.2057 74.1387 3.31758 74.0295 3.48151 73.8694C3.40085 73.6408 3.31758 73.3181 3.67146 73.0793C3.51794 73.0056 3.40345 72.9497 3.23692 72.8684C3.02876 73.1225 2.80759 73.3918 2.54738 73.7119C2.5604 73.4451 2.38866 73.1911 2.77116 73.1123C2.80759 73.1047 3.10162 72.9624 2.77116 72.8049C2.93248 72.7032 3.06259 72.6219 3.21871 72.5254C3.28116 72.3374 3.2135 72.1646 3.01575 72.0198C2.98453 71.9969 3.01575 71.8039 3.05218 71.7912C3.30978 71.7048 3.57519 71.6438 3.88222 71.5625C3.89784 71.9944 4.14243 72.0706 4.45207 72.0478C4.56396 72.3653 4.03314 72.5737 4.30635 72.8786C4.4937 73.0894 4.73309 73.2571 4.96987 73.4629C5.09477 73.2876 5.37839 73.2165 5.08696 72.9522C4.94385 72.8227 5.08696 72.2002 5.24569 72.0605C5.66461 71.6946 6.08874 71.3338 6.49986 70.9629C6.56231 70.907 6.62736 70.7673 6.60134 70.7266C6.53629 70.6326 6.414 70.5157 6.31512 70.5157C6.02109 70.5183 5.70104 70.6606 5.44084 70.5869C5.16242 70.5056 4.93865 70.7825 4.65763 70.5691C4.68625 70.498 4.72268 70.3989 4.76171 70.2998C4.7461 70.3049 4.73049 70.31 4.71487 70.3125C4.68885 70.127 4.66283 69.9416 4.63161 69.7231C5.09737 69.9339 5.14941 69.9289 5.41482 69.2581C5.55533 69.2937 5.70104 69.3318 5.88579 69.3775C5.97425 69.2861 6.11216 69.159 6.22405 69.408C6.34374 69.3572 6.44522 69.2708 6.53109 69.2861C6.82512 69.3369 6.96823 69.1286 7.14256 68.9787C7.1868 68.9405 7.21282 68.7983 7.1816 68.7729C7.08532 68.6865 6.96302 68.5747 6.84593 68.5722C6.53889 68.562 6.29951 68.4502 6.10956 68.186C6.18242 68.2063 6.25527 68.2368 6.32813 68.2444C6.5467 68.2698 6.77568 68.3308 6.98124 68.2927C7.21022 68.2495 7.23884 68.0335 7.07491 67.8633C6.91098 67.6931 6.73405 67.5305 6.59614 67.3425C6.52328 67.2434 6.45563 67.0605 6.50247 66.9766C6.73144 66.565 6.79389 66.0696 7.1868 65.7343C7.3143 65.625 7.39496 65.4268 7.43139 65.2541C7.50164 64.9238 7.79567 64.9289 8.02986 64.8044C8.04026 64.6951 8.05067 64.5681 8.06108 64.4334C8.25623 64.5478 8.43057 64.6621 8.63353 64.4614C8.66995 64.4233 8.79485 64.4665 8.88072 64.4766C8.99521 64.4893 9.10709 64.5097 9.21898 64.5249C9.23459 64.4919 9.2476 64.4588 9.26322 64.4258C9.34648 64.5528 9.42714 64.6773 9.53903 64.8476C9.73939 64.9212 9.74459 64.7637 9.74459 64.5808C9.74459 64.2403 10.0386 63.999 10.4029 64.032C10.4654 64.1768 10.5226 64.3293 10.5955 64.4741C10.6163 64.5147 10.6865 64.5528 10.7334 64.5528C10.7828 64.5528 10.8426 64.5122 10.8791 64.4741C10.9597 64.3953 11.03 64.3039 11.1731 64.2454C11.1523 64.0041 11.1289 63.7602 11.1028 63.4705C11.082 63.4629 11.0014 63.435 10.9129 63.4045C10.9285 63.3791 10.9389 63.3537 10.9571 63.3308C11.0248 63.247 11.1705 63.1352 11.1497 63.0869C10.9858 62.6855 11.3552 62.1951 10.8531 61.8344C10.9936 61.8115 11.069 61.7988 11.1393 61.7861C11.2382 60.9273 11.3006 60.8486 11.7247 61.0696C11.6883 61.0061 11.6519 60.9426 11.6128 60.8714C11.6128 60.8714 11.6128 60.8537 11.6181 60.8511C11.8184 60.7546 12.011 60.6199 12.2217 60.5742C12.4325 60.5285 12.521 60.4319 12.6016 60.2515C12.7239 59.9822 12.8904 59.7332 13.0492 59.4817C13.07 59.4487 13.1949 59.4334 13.2157 59.4563C13.4603 59.751 13.5852 59.5122 13.7309 59.3547C13.7647 59.3191 13.8064 59.2912 13.8428 59.2632C13.7985 59.154 13.7543 59.0447 13.6919 58.8948H14.2435C14.5609 58.3587 14.8706 57.8404 15.1698 57.3374C14.9226 57.0274 14.9512 56.9842 15.3962 56.9055C15.3546 56.7988 15.3155 56.6946 15.2713 56.5828C15.8385 56.4761 15.9582 56.3338 15.9973 55.78C16.2419 55.6479 16.4786 55.5208 16.7206 55.3913C16.5073 55.094 16.5463 55.0254 16.9652 54.8679C17.3503 54.7231 17.6079 54.4639 17.8655 54.1336C18.222 53.6763 18.7268 53.3283 19.1665 52.9319C19.2108 52.8913 19.2628 52.8582 19.2992 52.81C19.4554 52.6016 19.5985 52.6372 19.7676 52.8049C19.8327 52.8709 19.9523 52.8862 20.046 52.9268C20.0304 52.8277 20.046 52.7083 19.994 52.6296C19.765 52.2637 19.8847 51.9156 20.0148 51.5625C20.0564 51.4456 20.1007 51.3288 20.1631 51.1636C20.1891 51.156 20.275 51.1331 20.3765 51.1052V50.7165C20.2932 50.7038 20.2151 50.6885 20.1241 50.6758C20.1371 50.6453 20.1371 50.6123 20.1553 50.5945C20.4441 50.3354 20.7642 50.0965 20.6731 49.6341C20.6575 49.5579 20.7486 49.4639 20.7954 49.3648C20.7304 49.2835 20.6549 49.1921 20.5664 49.0803C20.6913 48.7576 20.9801 48.6026 21.3861 48.6357C21.4069 48.6357 21.4407 48.6408 21.4459 48.6306C21.6645 48.3003 22.0886 48.2698 22.3618 48.031C22.6324 47.7947 22.6194 47.782 22.8484 47.8836C22.8744 47.716 22.877 47.5203 22.9447 47.3526C22.9707 47.2891 23.1606 47.2409 23.2569 47.2612C23.5015 47.3171 23.7643 47.7591 23.681 47.9802C23.5405 48.1809 23.4026 48.3791 23.2413 48.6128C23.1841 48.6179 23.0722 48.6255 22.9239 48.6382C22.9733 48.7221 23.0097 48.7805 22.9993 48.7652C22.8588 48.9685 22.7079 49.126 22.6454 49.3115C22.6116 49.4106 22.7157 49.5757 22.7964 49.6799C22.8354 49.7281 23.0227 49.7383 23.0566 49.6977C23.309 49.3953 23.5301 49.0625 23.7851 48.7627C23.9152 48.6077 24.0896 48.4731 24.2717 48.3816C24.3758 48.3283 24.5163 48.3689 24.5163 48.186C24.5163 48.1428 24.584 48.0996 24.623 48.0589C24.8988 47.782 25.1798 47.5076 25.4452 47.2231C25.5259 47.1367 25.643 46.9639 25.6118 46.9207C25.5077 46.7759 25.3594 46.6413 25.198 46.5625C25.1096 46.5193 24.9586 46.5904 24.7713 46.6209C24.5527 46.5117 24.6308 46.3618 24.7999 46.1585C24.9482 45.9807 25.0341 45.7495 25.1824 45.4802H25.8615C25.937 45.2998 25.9812 45.1245 26.0827 44.9873C26.1582 44.8831 26.2961 44.7993 26.4236 44.7586C26.637 44.69 26.8633 44.6621 27.0845 44.6138C27.1209 44.6062 27.1756 44.5783 27.1782 44.5528C27.2276 44.1845 27.4046 44.4004 27.5555 44.4817C27.6075 44.4334 27.6595 44.3902 27.7064 44.342C28.0967 43.9482 28.0941 43.6026 27.6804 43.2063C27.493 43.0259 27.415 42.8811 27.5971 42.6245C27.7506 42.406 27.7766 42.1062 27.9067 41.8648C28.0316 41.6311 28.2164 41.4304 28.3751 41.2144C28.3985 41.2297 28.4245 41.2424 28.448 41.2576C28.4558 41.1077 28.4636 40.9578 28.474 40.7774C28.6353 40.7673 28.8122 40.8003 28.9293 40.7342C29.023 40.6834 29.0464 40.5081 29.0777 40.4421C29.3066 40.3862 29.5408 40.3709 29.7256 40.2693C29.9806 40.127 30.1861 40.1296 30.3709 40.3354C30.4958 40.4751 30.5842 40.5285 30.7612 40.3913C30.9823 40.216 31.05 40.4624 31.1307 40.5818C31.2217 40.7215 31.5938 40.8257 31.7499 40.8105C32.2001 40.7597 32.3068 40.4827 32.325 40.1092C32.325 40.0584 32.403 40.0127 32.4525 39.9568C32.3458 39.906 32.2287 39.8882 32.1741 39.8196C32.096 39.7205 32.0075 39.5808 32.0258 39.4741C32.0414 39.3826 32.1923 39.3013 32.2964 39.2378C32.4343 39.1514 32.6138 39.1159 32.7257 39.0066C32.9885 38.7525 33.2227 38.4705 33.4621 38.2063C33.2331 38.0462 33.0536 37.9217 32.8792 37.8023C33.0614 37.4873 33.3033 37.3755 33.6286 37.4238C33.92 37.467 34.1334 37.3044 34.3494 37.1443C34.4482 37.0706 34.5575 37.0097 34.6798 36.9309C34.5315 36.7556 34.5757 36.3796 34.0501 36.4253C34.2245 36.2093 34.3416 36.062 34.4196 35.968H34.8437C34.7761 35.846 34.7371 35.6784 34.633 35.6123C34.4925 35.5208 34.2999 35.5132 34.1334 35.4573C34.0631 35.4344 34.0033 35.3862 33.9382 35.3506C33.8446 35.3938 33.7405 35.4395 33.5974 35.5005C33.5531 34.779 32.8038 34.6951 32.5149 34.1768C32.4551 34.2607 32.4161 34.3089 32.3588 34.3877C32.1949 34.0117 31.9477 33.8008 31.5314 33.7779C31.4533 33.7729 31.3362 33.5595 31.3258 33.435C31.3076 33.1885 31.2477 33.0513 30.9823 32.9421C30.8158 32.8735 30.7325 32.6067 30.6155 32.4263C30.5946 32.3933 30.592 32.3171 30.579 32.3171C30.2824 32.312 30.324 31.9715 30.1419 31.8902C29.9727 31.9309 29.8192 31.969 29.6137 32.0198C29.6137 31.748 29.5981 31.5371 29.6163 31.3262C29.6683 30.7622 29.3457 30.3074 29.1505 29.8222C29.1115 29.7256 28.9111 29.6723 28.7758 29.6341C28.6691 29.6037 28.5494 29.6291 28.435 29.6291C28.0733 29.6291 27.9119 29.4741 27.9041 29.126C27.9041 29.0244 27.925 28.9177 27.8989 28.8237C27.8625 28.6966 27.7923 28.5772 27.7298 28.44C27.7376 28.3003 27.7818 28.1047 27.7532 27.9217C27.722 27.716 27.506 27.6702 27.3109 27.782C27.1105 27.8963 26.905 28.0056 26.689 28.0843C26.6265 28.1072 26.499 28.0361 26.4366 27.9751C26.2519 27.7973 26.0645 27.6474 25.7809 27.7033C25.7523 27.7083 25.7106 27.7033 25.6898 27.6905C25.2891 27.3857 24.8806 27.0884 24.4929 26.7658C24.3368 26.6336 24.2613 26.372 24.0922 26.3034C23.7149 26.1484 23.7929 25.8664 23.7903 25.5945C23.7877 25.3582 23.6758 25.2642 23.4287 25.2134C23.0748 25.1397 22.7261 25.0178 22.3956 24.873C22.1485 24.7663 22.2135 24.5147 22.2499 24.3166C22.2864 24.1286 22.3696 23.9482 22.4165 23.8084C21.9819 23.562 21.6254 23.3587 21.2716 23.158C21.5006 22.7337 21.295 22.1646 20.9281 22.2383C20.5768 22.3095 20.4701 22.124 20.2672 22.0198C20.1709 21.9715 20.0798 21.9131 19.9914 21.8496C19.8535 21.7505 19.7208 21.6438 19.5204 21.4888C19.5464 21.4329 19.6115 21.3161 19.6557 21.1941C19.6791 21.1331 19.6921 21.0544 19.6739 20.9934C19.6167 20.8054 19.5386 20.6199 19.471 20.4345L19.536 20.3582C19.1561 20.2693 18.771 20.2033 18.4041 20.0813C18.2402 20.0254 18.1075 19.8628 17.9722 19.7358C17.6131 19.3953 17.2775 19.032 16.9028 18.7068C16.4162 18.2851 15.9192 17.8735 15.3936 17.5C15.1412 17.3222 14.8133 17.2434 14.4517 17.0935C14.3502 16.9258 14.1993 16.6819 14.0405 16.4202C14.1264 16.3923 14.1993 16.3694 14.2539 16.3516C14.2097 16.1382 14.1654 15.9324 14.1186 15.6987C13.8818 15.6148 13.6294 15.3836 13.3068 15.6428C13.2573 15.6834 13.057 15.6021 12.9711 15.5285C12.8046 15.3862 12.6693 15.2109 12.4845 15.0076C12.6511 14.9162 12.8514 14.8247 13.031 14.7027C13.135 14.6341 13.2677 14.5249 13.2781 14.4233C13.2912 14.3013 13.2053 14.065 13.135 14.0549C12.8384 14.0066 12.8722 13.7983 12.854 13.5899C12.5366 13.623 12.3752 13.4985 12.2581 13.2038C12.1983 13.0513 11.9251 12.9675 11.7351 12.8786C11.5868 12.81 11.4151 12.7871 11.2616 12.7287C11.1913 12.7033 11.0872 12.6372 11.0872 12.5889C11.0846 12.3526 10.8687 12.3399 10.7386 12.2383C10.5018 12.0528 10.2676 11.8674 10.0282 11.687C9.91372 11.6006 9.78883 11.5295 9.6223 11.4202C9.6301 11.3948 9.6301 11.2805 9.68474 11.2475C10.0022 11.0417 10.049 10.9223 9.89811 10.6148C9.82786 10.4726 9.7602 10.3252 9.65612 10.1042C9.51041 10.0762 9.27883 10.0356 9.05245 9.98222C8.99521 9.96951 8.94837 9.91108 8.89893 9.87043C8.75582 9.7561 8.64914 9.57317 8.41235 9.78404C8.3473 9.84248 8.11052 9.71545 7.9544 9.67226C7.84251 9.32419 8.05848 9.18953 8.27965 9.12348C8.02205 8.94563 7.74884 8.76016 7.47823 8.57469C7.66037 8.45528 7.79828 8.36636 7.93879 8.2749C7.93098 8.24695 7.92317 8.219 7.91276 8.18852C7.69419 8.17581 7.47562 8.16057 7.25705 8.14787C7.25445 8.125 7.25185 8.09959 7.24925 8.07673C7.34552 8.06911 7.447 8.07165 7.54067 8.04878C7.64215 8.02337 7.75404 7.99035 7.8269 7.92429C8.01945 7.74898 8.19118 7.55589 8.36812 7.37297C8.70638 7.85823 9.26061 7.87348 9.64311 8.05894C9.79143 8.40447 9.92153 8.70427 10.0594 9.02439C10.4081 9.07012 10.7854 9.20986 11.1133 9.13618C11.4385 9.0625 11.7924 8.82876 11.9875 8.56199C12.1775 8.30031 12.1827 7.91158 12.2738 7.54827C12.2165 7.43648 12.1411 7.28659 12.0656 7.13923C12.2477 7.10874 12.3813 7.37212 12.4663 7.92937C12.6224 7.90904 12.7786 7.88872 12.9347 7.86839C12.9607 7.84553 12.9867 7.82266 13.0127 7.79726C13.0752 8.01829 13.135 8.23933 13.1819 8.40193C13.377 8.42226 13.5618 8.44766 13.7439 8.46291C13.8974 8.47561 14.0535 8.48577 14.2097 8.48069C14.41 8.47561 14.4881 8.59756 14.5479 8.75508C14.639 8.99136 14.7405 9.2251 14.8394 9.46646C15.2635 9.2378 15.378 9.35213 15.4222 9.97459C15.5003 9.99238 15.5835 10.0127 15.7449 10.0483C15.5939 10.1347 15.4951 10.2134 15.3832 10.2515C15.1776 10.3201 14.9486 10.3354 14.7587 10.4268C14.4855 10.5564 14.5349 10.8155 14.5687 11.1077C14.6936 11.0823 14.8029 11.0595 14.9799 11.0239C15.0501 11.128 15.162 11.2881 15.2713 11.4507C15.3806 11.6133 15.5263 11.6641 15.7293 11.6743C15.9504 11.6845 16.169 11.7683 16.3824 11.8699C16.1144 11.9411 15.8463 12.0097 15.5653 12.0833V12.5102C16.1222 12.4162 16.6686 12.6347 17.2098 12.3831C17.4362 12.279 17.712 12.2764 17.9618 12.2104C18.2246 12.1418 18.4796 12.0452 18.7424 11.9741C18.8387 11.9487 18.9428 11.9563 18.9662 11.9563C19.1145 12.1748 19.2628 12.3349 19.3357 12.5229C19.4475 12.81 19.5074 13.1148 19.5698 13.346C19.778 13.6026 19.9575 13.8262 20.1813 14.1031C19.9549 14.1286 19.83 14.1286 19.7156 14.1616C19.6167 14.1921 19.5282 14.2607 19.4007 14.3293V14.7485C19.9081 14.6926 20.4025 14.6392 20.9125 14.5859C20.9281 14.718 20.9411 14.8349 20.9567 14.967C21.0348 14.9873 21.1128 15.0051 21.1571 15.0178C21.2351 15.2109 21.2794 15.3963 21.3809 15.5462C21.4563 15.658 21.5994 15.7292 21.7191 15.8105C21.8284 15.8867 21.9793 15.9248 22.0574 16.0213C22.2577 16.2754 22.4009 16.5777 22.6246 16.8064C22.7417 16.9258 22.9811 16.936 23.1658 16.9944C22.8432 17.2815 23.3116 17.5508 23.2049 17.8557C23.8632 18.0716 24.0609 18.6814 24.4408 19.22C24.6022 18.9609 24.7297 18.7551 24.9014 18.4832C25.2423 18.3664 25.9448 18.7703 26.1009 19.2607C26.4366 19.0676 26.6916 19.1286 26.8555 19.4614C26.8789 19.5097 26.8165 19.6494 26.7618 19.6723C26.4132 19.8222 26.3533 20.0635 26.6265 20.3252C26.8295 20.5183 27.0116 20.6809 26.7801 20.9985C26.6578 21.1636 26.8581 21.2881 27.0273 21.3542C27.1678 21.4101 27.3421 21.4431 27.4358 21.5447C27.6049 21.7276 27.7844 21.7734 28.0264 21.7785C28.3517 21.7835 28.6769 21.7099 29.0048 21.8877C29.1687 21.9766 29.1531 22.0579 29.1817 22.1799C29.2078 22.2866 29.2988 22.3755 29.33 22.4822C29.4341 22.8252 29.749 22.655 29.9571 22.7388C30.3709 22.9014 30.3891 22.9903 30.0716 23.2876C30.0066 23.346 29.9727 23.4375 29.9467 23.4807V24.0473C29.9233 24.0498 29.8973 24.0549 29.8739 24.0574C29.9389 24.126 30.0066 24.1946 30.0508 24.2429C30.3292 24.2022 30.579 24.1641 30.8835 24.1184C30.8106 24.4842 30.9069 24.7891 31.2165 24.9238C31.6823 25.127 32.0726 25.5793 32.6919 25.343C32.7101 25.376 32.7257 25.409 32.7439 25.4395C32.6815 25.5793 32.6138 25.7165 32.5618 25.8587C32.5123 25.9909 32.4395 26.1306 32.4525 26.2602C32.4681 26.4126 32.5644 26.56 32.632 26.7302C32.7569 26.7607 32.9235 26.8039 33.1004 26.8471C33.2461 26.7378 33.4074 26.5422 33.6078 26.4863C33.9356 26.3923 34.2245 26.6006 34.4144 27.002C34.456 27.0884 34.4899 27.1875 34.5601 27.2459C34.7501 27.4035 34.8359 27.5788 34.8385 27.8328C34.8437 28.1555 35.0779 28.3257 35.4292 28.435C35.5827 28.4832 35.6998 28.6433 35.8325 28.7525C35.8611 28.7779 35.882 28.8135 35.9158 28.8313C36.3295 29.032 36.3321 29.0523 36.0615 29.3674C35.9314 29.5198 35.8039 29.6799 35.7076 29.8526C35.6764 29.9085 35.7336 30.0457 35.7935 30.1042C35.9678 30.2769 36.163 30.4294 36.3919 30.625C36.4622 30.4853 36.5429 30.3201 36.6496 30.1092C36.9176 29.9822 37.1752 30.1423 37.3313 30.3913C37.3885 30.4827 37.2298 30.7012 37.1622 30.8892C37.5551 30.7597 37.9115 30.7952 37.987 31.3592C38.2264 31.1357 38.4762 31.1179 38.6375 31.3592C38.7468 31.5244 38.7494 31.7581 38.8014 31.9639C38.523 32.0655 38.1509 31.8496 37.974 32.2205C38.1405 32.3933 38.9185 32.5584 39.0746 32.4009C39.262 32.2078 39.5846 32.0833 39.5508 31.7251C39.5274 31.4736 39.8631 31.2271 39.4623 30.9578C39.8683 30.8943 39.9906 30.7241 39.9984 30.4014C40.0036 30.1245 40.1154 29.8526 40.1883 29.5478C40.3262 29.4461 40.4979 29.3115 40.6801 29.1921C40.9689 28.999 41.2577 28.8034 41.557 28.628C41.6637 28.5645 41.8406 28.595 41.9239 28.5188C42.0566 28.3943 42.1346 28.219 42.2387 28.064C42.3168 27.9472 42.3922 27.8303 42.4729 27.716C42.59 27.5483 42.7071 27.3831 42.8294 27.218C42.871 27.1621 42.9204 27.0783 42.9751 27.0732C43.3836 27.0325 43.3836 26.6794 43.5215 26.4278C43.662 26.1712 43.8337 25.9273 43.9717 25.6682C44.0731 25.4776 44.1304 25.2617 44.2371 25.0711C44.3463 24.8755 44.4869 24.6926 44.6248 24.5122C44.7445 24.3547 44.8798 24.2048 45.0671 23.9837C45.2753 24.0269 45.6109 24.0168 45.8399 24.1641C46.1652 24.375 46.3317 24.154 46.5034 24.0193C46.8287 23.7678 47.1201 23.7983 47.3205 24.159C47.3881 24.2835 47.7602 24.3979 48.0074 24.375C48.062 24.2632 48.1141 24.1514 48.1895 23.9964C48.01 23.9787 47.8357 23.9609 47.6978 23.9456C47.742 23.7373 47.7862 23.529 47.8305 23.3206C48.3196 23.219 48.6371 22.9421 48.7698 22.4492C48.8374 22.1951 49.0248 22.0071 49.2772 21.908C49.3631 21.875 49.5218 21.8775 49.5738 21.9309C49.8392 22.2027 49.8835 21.997 49.9407 21.7785C50.2191 21.7302 50.5131 21.7099 50.7838 21.6235C51.0544 21.5371 51.1168 21.2652 51.1767 21.0213C51.2027 20.9146 51.1897 20.7978 51.1793 20.6885C51.1532 20.3963 51.2755 20.2287 51.6034 20.2261C51.6112 20.1982 51.619 20.1677 51.6242 20.1397C51.4551 20.0508 51.2886 19.9644 51.0778 19.8526C51.0127 19.6062 51.1246 19.2226 51.3692 19.1743C51.4993 19.1489 51.6658 19.2962 51.8246 19.3699C51.8662 19.3343 51.9495 19.2683 52.064 19.1743C51.926 19.1413 51.8376 19.1184 51.658 19.0752C52.1264 18.9558 52.1446 18.5849 52.2929 18.3181C52.3892 18.1428 52.4907 18.0513 52.6936 18.0386C53.0345 18.0183 53.3858 18.1225 53.7162 17.9192C53.7917 17.8735 53.953 17.9624 54.1326 18.0005C54.3069 17.8786 54.385 17.6956 54.2288 17.4339C54.2028 17.3908 54.2705 17.2942 54.2965 17.2205C54.3928 16.9334 54.4916 16.6438 54.5879 16.3567C54.6478 16.1789 54.7623 16.0976 54.9678 16.0874C55.1109 16.0798 55.254 15.9909 55.3867 15.9248C55.6652 15.7876 55.7901 15.5462 55.9176 15.2718C56.0216 15.0483 56.3053 15.0737 56.516 15.1626C56.7632 15.2693 57.2732 15.1626 57.4007 14.9492C57.497 14.7866 57.5985 14.624 57.7182 14.4766C57.968 14.1743 58.2412 13.8948 58.4832 13.5874C58.6575 13.3638 58.7798 13.1021 58.9567 12.8786C59.0452 12.7668 59.2065 12.7109 59.321 12.6143C59.4069 12.5407 59.5266 12.4416 59.5266 12.3526C59.524 11.9131 59.8232 11.5879 59.9429 11.1966C59.9611 11.1408 59.9715 11.0772 59.9663 11.0188C59.9377 10.7215 60.0496 10.5361 60.3748 10.5335C60.328 10.3709 60.2838 10.2185 60.2161 9.98476C60.393 10.0305 60.4919 10.0559 60.6428 10.094C60.6871 10.0559 60.7833 9.97459 60.8978 9.87805C60.9707 10.0661 61.0253 10.3125 61.2907 10.0305C61.3272 9.99238 61.4963 10.0711 61.6784 10.1143C61.8268 9.89075 62.0011 9.62398 62.1754 9.35976C62.5345 9.23018 62.9144 9.09299 63.3307 8.94563C63.3906 8.9939 63.4921 9.07774 63.6248 9.18699C63.6872 8.90498 63.656 8.66362 63.8954 8.44258C64.1972 8.16311 64.3741 8.5874 64.6057 8.46291C64.5823 8.44766 64.5589 8.42988 64.5355 8.41463C64.8009 8.05894 65.0611 7.69817 65.3421 7.35264C65.3863 7.29929 65.5685 7.27134 65.6101 7.31199C65.8105 7.49746 65.9172 7.32724 66.0134 7.21799C66.1591 7.05285 66.2814 6.86484 66.3959 6.67683C66.4896 6.52439 66.5833 6.36179 66.6301 6.19411C66.742 5.79268 67.1115 5.66057 67.4107 5.45732C67.4341 5.44207 67.533 5.53354 67.5981 5.57419C67.6813 5.62754 67.762 5.68343 67.8791 5.70376C67.6969 5.42175 67.7386 5.22358 67.9623 5.00508C68.0378 4.93394 68.0274 4.69512 67.9623 4.58841C67.8505 4.41057 67.6631 4.27591 67.4888 4.10315C68.0118 3.96087 68.1341 3.58994 68.0664 3.12246C68.4567 3.04878 68.5244 2.7439 68.6311 2.46443C68.6649 2.37551 68.6961 2.28404 68.7508 2.20782C68.9511 1.92835 69.1827 1.67937 69.4689 1.48374C69.573 1.4126 69.7083 1.37957 69.828 1.32876C70.2417 1.66921 70.6711 2.01982 71.1264 2.39329C71.2643 2.13161 71.6989 2.02998 71.5818 1.58283C71.3762 1.47612 71.1628 1.36687 70.9495 1.25254C70.9261 1.23984 70.8948 1.19157 70.9 1.18394C71.0458 0.995935 71.1837 0.802846 71.3502 0.630081C71.3814 0.597053 71.5089 0.66311 71.5948 0.668191C71.6884 0.675813 71.7847 0.685976 71.8732 0.668191C71.9903 0.642785 72.1022 0.591972 72.2895 0.525915C72.175 0.810467 72.6824 0.960366 72.339 1.16108C72.3754 1.32368 72.4092 1.44817 72.43 1.5752C72.4795 1.85213 72.4977 2.13923 72.5835 2.406C72.6174 2.51524 72.7839 2.63719 72.9036 2.65244C72.9764 2.6626 73.0988 2.48984 73.1534 2.37805C73.2262 2.22815 73.2549 2.05793 73.3017 1.89533C73.3069 1.875 73.3173 1.84451 73.3069 1.83689C73.0519 1.58791 73.3303 1.344 73.3147 1.09756C73.2991 0.846037 73.3694 0.581809 73.0727 0.403963C72.9999 0.360772 73.0311 0.144817 73.0155 0.00762195C73.1404 0.00762195 73.2653 0.00762195 73.3902 0.00762195L73.3798 0ZM62.9769 69.9543C62.8728 70.1474 62.7297 70.315 62.6932 70.503C62.6542 70.6987 62.2847 70.9197 62.6334 71.0976C62.917 71.2398 63.2631 71.3338 63.5779 71.3237C63.8225 71.3161 64.0073 71.0696 64.0827 70.8028C64.1217 70.6656 64.1738 70.5285 64.2336 70.3481C64.0463 70.4243 63.9448 70.4649 63.8381 70.5081C63.7236 70.0965 63.4504 69.9289 62.9769 69.9543ZM8.27184 71.3821C8.24322 71.3821 8.2172 71.3821 8.18858 71.3847C8.30567 71.7505 8.54245 71.8572 8.90153 71.7099C8.91194 71.6006 8.91975 71.4914 8.93016 71.3897C9.02383 71.3542 9.10189 71.3237 9.12271 71.3161C9.08628 71.0696 9.04725 70.8638 9.03164 70.6555C9.01602 70.4675 9.02903 70.2769 9.02903 70.0889C8.82868 70.1982 8.65694 70.2846 8.49041 70.3836C8.31087 70.4903 8.14174 70.9045 8.19378 71.0391C8.23542 71.1458 8.24582 71.2652 8.27184 71.3796V71.3821ZM71.2149 3.61789C70.3562 4.38516 70.1715 4.69258 70.351 5.08638C70.5175 5.04573 70.6763 5.01016 70.8428 4.96951C70.9521 4.5376 71.4257 4.50965 71.6963 4.26575C71.6494 4.11077 71.5974 3.94817 71.5453 3.77287C71.4595 3.73222 71.3528 3.68394 71.2175 3.62043L71.2149 3.61789ZM73.6556 5.50559C73.7779 5.20833 73.8976 4.91616 74.0225 4.61636C73.2809 4.47917 72.901 4.86026 73.0259 5.50559H73.6556ZM53.6616 22.1545C53.5601 21.9487 53.4691 21.8013 53.4118 21.6413C53.365 21.5091 53.3468 21.3643 53.339 21.2246C53.3337 21.1331 53.3702 21.0417 53.3884 20.9502C53.2609 20.9578 53.1126 20.9248 53.0137 20.9781C52.7691 21.1103 52.8524 21.3618 52.8498 21.5727C52.8446 21.9436 53.1438 22.1951 53.6616 22.157V22.1545ZM62.4148 72.5661C62.5163 72.5279 62.6256 72.4949 62.7271 72.4466C63.0992 72.2663 63.1408 72.0046 62.8468 71.7226C62.8103 71.687 62.7869 71.6336 62.7427 71.6133C62.636 71.5625 62.4538 71.4609 62.4226 71.4914C62.3211 71.593 62.2119 71.7531 62.2223 71.8801C62.2431 72.1138 62.3446 72.3374 62.4122 72.5686L62.4148 72.5661ZM12.4325 8.92276C12.7317 9.41057 12.9685 9.9187 13.5436 10.127C13.5826 10.0203 13.5982 9.9314 13.5644 9.87043C13.4473 9.65701 13.3042 9.45376 13.1819 9.24289C13.0023 8.92785 12.8098 8.83638 12.4325 8.92531V8.92276ZM6.87976 73.125C6.33594 73.1326 6.17981 73.5112 6.06793 73.9304C6.48425 74.0498 6.96303 73.6001 6.87976 73.125ZM62.5449 14.0142C62.4122 14.0041 62.342 13.9964 62.2717 13.9939C62.0245 13.9939 61.7773 13.9888 61.5301 13.999C61.4729 13.999 61.3844 14.0447 61.3688 14.0879C61.3506 14.1387 61.3818 14.2226 61.4208 14.2708C61.603 14.4995 62.2899 14.497 62.4643 14.2632C62.5059 14.2073 62.5111 14.1235 62.5449 14.0142ZM13.4265 68.2673C13.4915 67.998 13.5071 67.7236 13.2209 67.5915C13.0283 67.5025 12.8202 67.5788 12.7213 67.8023C12.8904 68.0386 12.9373 68.44 13.4265 68.2673ZM48.5824 49.8044C48.3613 50.0025 48.1869 50.1575 48.0282 50.3023C48.1115 50.4649 48.1687 50.5793 48.226 50.6885H48.7984C48.7282 50.3963 48.6657 50.1347 48.585 49.8044H48.5824ZM32.7075 46.1255C32.7595 45.935 32.7309 45.8308 32.5175 45.8333C32.4082 45.8333 32.2964 45.8054 32.1871 45.7876C31.9919 45.752 31.7968 45.7139 31.599 45.6784C31.5886 45.7241 31.5782 45.7673 31.5678 45.813C31.8878 46.0544 32.2547 46.1611 32.7049 46.1255H32.7075ZM7.58751 72.4162C7.64736 72.1164 7.17899 71.6489 6.87716 71.7429C6.81991 71.7607 6.74445 71.9182 6.76007 71.9309C6.90318 72.0681 7.05149 72.2002 7.21802 72.3069C7.3143 72.3679 7.4444 72.3781 7.58751 72.4187V72.4162ZM26.0203 48.6103C25.9916 48.4223 25.9734 48.2546 25.9318 48.0894C25.9162 48.0259 25.8615 47.9548 25.8069 47.9217C25.7731 47.9014 25.6612 47.9319 25.6482 47.9649C25.5675 48.1682 25.5051 48.3791 25.4296 48.6128H26.0203V48.6103ZM60.4139 69.6418C60.1589 69.3521 59.9663 69.3216 59.7634 69.4944C59.6098 69.624 59.5994 69.7256 59.7634 69.8552C60.1354 70.1601 60.1771 69.6799 60.4165 69.6418H60.4139ZM26.4756 50.5513C26.3065 50.6326 26.1868 50.6885 26.0125 50.7698C26.0671 50.9781 26.127 51.1966 26.192 51.4431C26.6161 51.189 26.4834 50.8765 26.4756 50.5513ZM19.9706 15.4954C20.2256 15.5589 20.4311 15.6123 20.6445 15.6682V15.0889C20.4025 15.1575 20.1891 15.216 19.9706 15.2795V15.498V15.4954ZM56.974 56.5777C56.974 56.3516 57.0052 56.2119 56.9636 56.095C56.9271 55.9883 56.8179 55.9019 56.7242 55.8232C56.6982 55.8003 56.5629 55.8537 56.5655 55.8587C56.5967 56.0493 56.6227 56.2449 56.6852 56.4278C56.706 56.4863 56.8335 56.5091 56.9714 56.5777H56.974ZM21.4511 17.1443C21.4199 17.1723 21.3861 17.1977 21.3548 17.2256C21.3939 17.312 21.4303 17.4009 21.4771 17.4848C21.5292 17.5838 21.5864 17.6804 21.6515 17.7718C21.6853 17.8201 21.7373 17.876 21.792 17.8887C21.8362 17.8989 21.9325 17.8557 21.9377 17.8252C21.9481 17.7566 21.9351 17.6728 21.8987 17.6118C21.8362 17.5051 21.7529 17.4085 21.6671 17.3196C21.6046 17.2536 21.524 17.2027 21.4511 17.1443ZM67.3223 12.1418C67.1974 12.2027 67.062 12.2307 67.0516 12.2815C67.023 12.4136 67.0308 12.561 67.0646 12.6905C67.0751 12.7287 67.2234 12.7312 67.3223 12.7515V12.1418ZM18.3261 15.6326C18.4328 15.5158 18.4874 15.4548 18.542 15.3938C18.4666 15.3404 18.3963 15.2515 18.3183 15.2439C18.2532 15.2388 18.1778 15.3303 18.1075 15.3786C18.1648 15.4472 18.2246 15.5132 18.3261 15.6326ZM61.3948 71.5015C61.4443 71.4837 61.4937 71.4685 61.5431 71.4507C61.5041 71.3186 61.4651 71.1865 61.4235 71.0518C61.3558 71.0772 61.2855 71.1026 61.2179 71.128C61.2777 71.2525 61.335 71.377 61.3948 71.499V71.5015ZM62.4773 15.1016C62.5033 15.0788 62.5319 15.0534 62.5579 15.0305C62.4929 14.9619 62.4252 14.8933 62.3602 14.8247C62.3003 14.8984 62.2405 14.9721 62.1338 15.1016H62.4773Z" fill="#EB1807"/>
<path d="M75.9997 2.92477C75.7629 3.08229 75.5418 2.86125 75.2764 2.92222C75.4559 2.56907 75.7447 2.68086 75.9997 2.68086V2.92477Z" fill="#EB1807"/>
<path d="M9.84863 6.5654C10.1218 6.49427 10.3092 6.41296 10.4965 6.40534C11.0221 6.38502 11.2043 6.66195 11.0352 7.14213C10.9909 7.26916 11.0274 7.4216 11.0274 7.59945C11.2303 7.67567 11.4463 7.75697 11.6805 7.84335C11.7013 8.01358 11.4098 8.51154 11.2225 8.58268C11.0091 8.66398 10.2493 8.56998 10.2025 8.43278C10.1531 8.28542 10.1973 8.10758 10.1505 7.95768C10.0672 7.69853 10.0516 7.70362 10.1244 7.61215C10.0282 7.24884 9.94231 6.9211 9.84863 6.5654Z" fill="#EB1807"/>
<path d="M6.58359 4.82723C6.75532 4.57062 6.92446 4.31402 7.08318 4.0752C7.27313 4.1819 7.45527 4.28607 7.63741 4.39024C7.64262 4.37753 7.64782 4.36483 7.65302 4.35213C7.76491 4.45375 7.8768 4.55792 8.02772 4.69765C7.85858 4.76879 7.67904 4.84501 7.48389 4.92631C7.51251 4.96442 7.55155 5.01524 7.58797 5.06351C7.57496 5.07875 7.56456 5.10162 7.54894 5.10416C7.22889 5.18546 7.17685 5.28709 7.27833 5.5818C7.29134 5.62245 7.20808 5.69105 7.21328 5.74186C7.22109 5.8003 7.27833 5.85111 7.359 5.9756C7.02333 6.05436 6.70849 6.12804 6.38063 6.2068C6.30517 5.75202 6.40665 5.37601 6.78915 5.05843C6.67987 4.97967 6.57058 4.90345 6.4613 4.82723C6.50293 4.82723 6.54196 4.82723 6.58359 4.82723Z" fill="#EB1807"/>
<path d="M9.57303 5.12951C9.57303 5.12951 9.5392 5.23876 9.49237 5.24384C9.26079 5.26416 9.25818 5.45725 9.31803 5.55126C9.45334 5.75451 9.31283 5.89933 9.2764 6.06701C9.0214 6.09496 8.769 6.1229 8.59207 6.14069C8.39171 6.00095 8.20697 5.87392 8.02482 5.74689C8.00661 5.76975 7.991 5.79262 7.97278 5.81294C7.87911 5.63764 7.79845 5.45725 7.92334 5.26416C7.95457 5.21335 8.01442 5.18286 8.05865 5.13713C8.18875 4.99994 8.49579 5.07616 8.49839 4.78906C8.7638 4.79414 9.03181 4.7789 9.28941 4.81955C9.38048 4.83479 9.45073 4.98723 9.57563 5.12951H9.57303Z" fill="#EB1807"/>
<path d="M6.25293 6.67183C6.65104 6.60831 7.04655 6.54225 7.3744 6.4889C7.55134 6.34916 7.68925 6.24246 7.84017 6.12305C7.91042 6.27803 8.00409 6.41014 8.02491 6.55242C8.06654 6.81919 8.05613 7.08087 7.77251 7.25872C7.66843 7.32477 7.61639 7.46959 7.55655 7.55851C7.35359 7.61949 7.16104 7.68301 6.96328 7.73636C6.91905 7.74906 6.84099 7.74144 6.82277 7.71349C6.79415 7.6703 6.77854 7.59408 6.79935 7.54581C6.94507 7.17996 6.74471 6.82173 6.35441 6.77091C6.32058 6.76583 6.28676 6.75059 6.25553 6.74042C6.25553 6.71756 6.25553 6.69215 6.25553 6.66929L6.25293 6.67183Z" fill="#EB1807"/>
<path d="M28.4665 50.7217C28.4015 51.2679 28.339 51.7837 28.2688 52.3604C27.9357 52.302 27.5923 52.2435 27.241 52.1826C27.1942 51.8675 28.1101 50.7242 28.4665 50.7217Z" fill="#EB1807"/>
<path d="M8.96921 7.21336C8.92758 7.24893 8.88335 7.2845 8.8209 7.33532C8.76105 7.07617 8.64396 6.94152 8.34473 7.14985C8.40197 6.99741 8.45922 6.84497 8.50345 6.73318C8.72722 6.66204 8.91457 6.58836 9.10972 6.54263C9.16957 6.52739 9.27365 6.56296 9.31528 6.61123C9.47921 6.80178 9.56768 7.01265 9.47921 7.27688C9.45059 7.36072 9.52345 7.47759 9.55987 7.60463C9.26845 7.64019 9.17477 7.35056 8.97182 7.21082L8.96921 7.21336Z" fill="#EB1807"/>
<path d="M29.3922 51.3521C29.2283 51.2632 29.0617 51.1717 28.9238 51.098C29.0982 50.5924 29.4078 50.252 29.9985 50.2139C30.0063 50.2215 30.0609 50.2774 30.126 50.346C30.0713 50.4095 30.0141 50.4756 29.9829 50.5137C29.871 50.4781 29.7617 50.407 29.6836 50.4324C29.629 50.4501 29.603 50.5924 29.5899 50.6839C29.5535 50.9151 29.6914 51.1946 29.3922 51.3546V51.3521Z" fill="#EB1807"/>
<path d="M8.49805 10.6983V10.2334C8.72442 10.2944 8.96121 10.3528 9.19279 10.4239C9.52325 10.5256 9.4686 10.7873 9.43998 11.082C9.13294 10.9575 8.83891 10.8381 8.49805 10.7009V10.6983Z" fill="#EB1807"/>
<path d="M16.8116 11.3162C16.4629 11.2755 16.1143 11.2374 15.7422 11.1942V10.8767C15.8411 10.8309 15.9477 10.7826 16.057 10.7344C16.3042 10.9021 16.567 11.0799 16.8298 11.2603C16.8246 11.2806 16.8168 11.2984 16.8116 11.3187V11.3162Z" fill="#EB1807"/>
<path d="M72.1826 9.05212V8.48047C72.2529 8.49063 72.3257 8.50079 72.3986 8.51096C72.3856 8.58209 72.3856 8.65577 72.3596 8.72183C72.3205 8.81583 72.2659 8.90222 72.1852 9.05212H72.1826Z" fill="black"/>
<path d="M62.9773 69.9546C63.4509 69.9292 63.7241 70.0969 63.8386 70.5085C63.9453 70.4653 64.0467 70.4247 64.2341 70.3484C64.1742 70.5288 64.1222 70.6635 64.0832 70.8032C64.0077 71.0674 63.823 71.3139 63.5784 71.3241C63.2635 71.3342 62.9175 71.2402 62.6338 71.0979C62.2852 70.9201 62.6547 70.6991 62.6937 70.5034C62.7301 70.3154 62.8732 70.1477 62.9773 69.9546Z" fill="white"/>
<path d="M8.27197 71.3824C8.24595 71.2681 8.23554 71.1487 8.19391 71.042C8.13927 70.9073 8.311 70.4907 8.49054 70.3865C8.65707 70.2874 8.8288 70.201 9.02916 70.0918C9.02916 70.2798 9.01875 70.4678 9.03176 70.6584C9.04737 70.8667 9.08901 71.0725 9.12283 71.3189C9.10202 71.3265 9.02395 71.357 8.93028 71.3926C8.92248 71.4942 8.91207 71.6035 8.90166 71.7127C8.54258 71.8626 8.3058 71.7534 8.1887 71.3875C8.21733 71.3875 8.24335 71.3875 8.27197 71.385V71.3824Z" fill="white"/>
<path d="M71.2149 3.61778C71.3503 3.68129 71.4569 3.72956 71.5428 3.77021C71.5974 3.94552 71.6469 4.10812 71.6937 4.2631C71.4231 4.507 70.9495 4.53495 70.8403 4.96686C70.6737 5.00497 70.515 5.04308 70.3485 5.08373C70.1689 4.69247 70.3537 4.38505 71.2123 3.61523L71.2149 3.61778Z" fill="white"/>
<path d="M73.6551 5.50576H73.0254C72.9005 4.86043 73.2804 4.47679 74.022 4.61653C73.8997 4.91632 73.7774 5.2085 73.6551 5.50576Z" fill="white"/>
<path d="M53.6613 22.1544C53.1435 22.1925 52.8443 21.941 52.8495 21.57C52.8521 21.3591 52.7688 21.1076 53.0134 20.9755C53.1123 20.9222 53.2632 20.9552 53.3881 20.9476C53.3699 21.039 53.3335 21.133 53.3387 21.222C53.3465 21.3617 53.3647 21.5065 53.4115 21.6386C53.4688 21.7987 53.5599 21.946 53.6613 22.1518V22.1544Z" fill="white"/>
<path d="M62.4152 72.5662C62.3476 72.3376 62.2435 72.1115 62.2253 71.8777C62.2149 71.7507 62.3242 71.5932 62.4257 71.489C62.4569 71.4585 62.639 71.5601 62.7457 71.6109C62.7873 71.6313 62.8134 71.6846 62.8498 71.7202C63.1438 72.0022 63.1022 72.2664 62.7301 72.4443C62.6286 72.4926 62.5167 72.5256 62.4179 72.5637L62.4152 72.5662Z" fill="white"/>
<path d="M12.4326 8.9228C12.8125 8.83642 13.0051 8.92534 13.182 9.24038C13.3017 9.4538 13.4448 9.65451 13.5645 9.86793C13.5983 9.9289 13.5827 10.0178 13.5437 10.1245C12.9686 9.9162 12.7319 9.41061 12.4326 8.92026V8.9228Z" fill="white"/>
<path d="M6.88019 73.125C6.96606 73.6001 6.48468 74.0498 6.06836 73.9304C6.18025 73.5112 6.33637 73.1352 6.88019 73.125Z" fill="white"/>
<path d="M62.5447 14.0138C62.5109 14.123 62.5057 14.2069 62.4641 14.2628C62.2897 14.4965 61.6028 14.499 61.4207 14.2704C61.3816 14.2221 61.3504 14.1383 61.3686 14.0875C61.3842 14.0443 61.4727 14.0011 61.5299 13.9985C61.7771 13.9884 62.0243 13.9935 62.2715 13.9935C62.3418 13.9935 62.412 14.0036 62.5447 14.0138Z" fill="white"/>
<path d="M13.4268 68.2677C12.935 68.4405 12.8908 68.0391 12.7217 67.8028C12.8206 67.5792 13.0287 67.503 13.2213 67.5919C13.5075 67.724 13.4919 67.9984 13.4268 68.2677Z" fill="white"/>
<path d="M48.5822 49.8047C48.6629 50.135 48.7253 50.3941 48.7956 50.6888H48.2231C48.1685 50.5796 48.1087 50.4627 48.0254 50.3027C48.1867 50.1578 48.3584 50.0029 48.5796 49.8047H48.5822Z" fill="white"/>
<path d="M32.7074 46.1259C32.2572 46.1614 31.8904 46.0547 31.5703 45.8134C31.5807 45.7676 31.5911 45.7244 31.6015 45.6787C31.7967 45.7143 31.9918 45.7524 32.1896 45.788C32.2989 45.8083 32.4108 45.8362 32.5201 45.8337C32.7334 45.8337 32.762 45.9328 32.71 46.1259H32.7074Z" fill="white"/>
<path d="M7.58776 72.4166C7.44725 72.3759 7.31455 72.3658 7.21827 72.3048C7.05174 72.1981 6.90082 72.066 6.76031 71.9288C6.7473 71.9161 6.82016 71.7586 6.87741 71.7408C7.17924 71.6468 7.64761 72.1143 7.58776 72.4141V72.4166Z" fill="white"/>
<path d="M26.0203 48.6107H25.4297C25.5051 48.3795 25.5676 48.1686 25.6483 47.9628C25.6613 47.9298 25.7732 47.8993 25.807 47.9196C25.8642 47.9527 25.9163 48.0238 25.9319 48.0873C25.9709 48.2525 25.9891 48.4227 26.0203 48.6082V48.6107Z" fill="white"/>
<path d="M60.4138 69.6422C60.1744 69.6803 60.1354 70.1605 59.7607 69.8556C59.5994 69.7235 59.6098 69.6244 59.7607 69.4949C59.9636 69.3221 60.1562 69.3526 60.4112 69.6422H60.4138Z" fill="white"/>
<path d="M26.4759 50.5518C26.4837 50.877 26.6164 51.1869 26.1922 51.4435C26.1272 51.1971 26.0673 50.9786 26.0127 50.7703C26.1844 50.689 26.3041 50.6331 26.4759 50.5518Z" fill="white"/>
<path d="M19.9707 15.495V15.2765C20.1893 15.2155 20.4026 15.1545 20.6446 15.0859V15.6652C20.4313 15.6119 20.2231 15.5585 19.9707 15.4924V15.495Z" fill="white"/>
<path d="M56.9743 56.5777C56.8338 56.5091 56.7089 56.4862 56.6881 56.4278C56.623 56.2449 56.5996 56.0493 56.5684 55.8587C56.5684 55.8536 56.7011 55.8028 56.7271 55.8231C56.8208 55.8994 56.9274 55.9883 56.9665 56.095C57.0081 56.2119 56.9769 56.3516 56.9769 56.5777H56.9743Z" fill="white"/>
<path d="M21.4508 17.1445C21.5236 17.203 21.6043 17.2538 21.6667 17.3198C21.7526 17.4113 21.8333 17.5078 21.8983 17.612C21.9347 17.673 21.9478 17.7568 21.9373 17.8254C21.9321 17.8559 21.8359 17.8991 21.7916 17.8889C21.737 17.8762 21.6849 17.8203 21.6511 17.7721C21.5861 17.6806 21.5288 17.5815 21.4768 17.485C21.4326 17.4011 21.3961 17.3122 21.3545 17.2258C21.3857 17.1979 21.4195 17.1725 21.4508 17.1445Z" fill="white"/>
<path d="M67.3224 12.1416V12.7514C67.2235 12.731 67.0726 12.726 67.0647 12.6904C67.0309 12.5608 67.0231 12.4135 67.0517 12.2813C67.0621 12.228 67.1975 12.2026 67.3224 12.1416Z" fill="white"/>
<path d="M18.326 15.6331C18.2245 15.5137 18.1647 15.4476 18.1074 15.379C18.1777 15.3307 18.2531 15.2393 18.3182 15.2443C18.3962 15.252 18.4691 15.3409 18.542 15.3942C18.4873 15.4552 18.4327 15.5162 18.326 15.6331Z" fill="white"/>
<path d="M61.3947 71.5018C61.3349 71.3773 61.2776 71.2529 61.2178 71.1309C61.2854 71.1055 61.3557 71.0801 61.4233 71.0547C61.4624 71.1868 61.5014 71.3189 61.543 71.4536C61.4936 71.4713 61.4441 71.4866 61.3947 71.5044V71.5018Z" fill="white"/>
<path d="M62.4773 15.1011H62.1338C62.2405 14.9716 62.3003 14.8979 62.3602 14.8242C62.4252 14.8928 62.4929 14.9614 62.5579 15.03C62.5319 15.0529 62.5033 15.0783 62.4773 15.1011Z" fill="white"/>
</g>
<defs>
<clipPath id="clip0_1176_34411">
<rect width="76" height="80" fill="white"/>
</clipPath>
</defs>
</svg>
