<svg width="18" height="16" viewBox="0 0 18 16" fill="none" xmlns="http://www.w3.org/2000/svg">
  <path fill-rule="evenodd" clip-rule="evenodd"
        d="M5.87118 1.44647C6.86312 1.03559 7.92628 0.824118 8.99995 0.824118C10.0736 0.824118 11.1368 1.03559 12.1287 1.44647C13.1206 1.85734 14.0219 2.45957 14.7811 3.21877C15.5403 3.97797 16.1426 4.87927 16.5534 5.8712C16.9643 6.86314 17.1758 7.9263 17.1758 8.99997V13.375C17.1758 13.8857 16.9729 14.3756 16.6117 14.7367C16.2506 15.0979 15.7607 15.3008 15.2499 15.3008H13.9999C13.4892 15.3008 12.9993 15.0979 12.6382 14.7367C12.277 14.3756 12.0741 13.8857 12.0741 13.375V10.25C12.0741 9.7392 12.277 9.24935 12.6382 8.88819C12.9993 8.52702 13.4892 8.32412 13.9999 8.32412H15.7905C15.7244 7.65979 15.5611 7.00752 15.3046 6.38848C14.9617 5.56053 14.459 4.80825 13.8253 4.17456C13.1917 3.54088 12.4394 3.03822 11.6114 2.69527C10.7835 2.35233 9.89611 2.17582 8.99995 2.17582C8.10379 2.17582 7.2164 2.35233 6.38846 2.69527C5.56051 3.03822 4.80822 3.54088 4.17454 4.17456C3.54086 4.80825 3.0382 5.56053 2.69525 6.38848C2.43884 7.00752 2.27546 7.65979 2.20935 8.32412H3.99995C4.51071 8.32412 5.00056 8.52702 5.36173 8.88819C5.72289 9.24935 5.9258 9.7392 5.9258 10.25V13.375C5.9258 13.8857 5.72289 14.3756 5.36173 14.7367C5.00056 15.0979 4.51071 15.3008 3.99995 15.3008H2.74995C2.23918 15.3008 1.74933 15.0979 1.38816 14.7367C1.027 14.3756 0.824097 13.8857 0.824097 13.375V8.99997C0.824097 7.9263 1.03557 6.86314 1.44645 5.8712C1.85732 4.87927 2.45955 3.97797 3.21875 3.21877C3.97795 2.45957 4.87924 1.85734 5.87118 1.44647Z"
        fill="rgba(30, 120, 255, 1)"/>
</svg>
