<svg width="32" height="32" viewBox="0 0 32 32" fill="none" xmlns="http://www.w3.org/2000/svg">
<path d="M8.22202 4.35943C10.5243 2.82109 13.2311 2 16 2C19.7118 2.00392 23.2705 3.48017 25.8952 6.10483C28.5198 8.72949 29.9961 12.2882 30 16C30 18.7689 29.1789 21.4757 27.6406 23.778C26.1022 26.0803 23.9157 27.8747 21.3576 28.9343C18.7994 29.9939 15.9845 30.2712 13.2687 29.731C10.553 29.1908 8.05844 27.8574 6.10051 25.8995C4.14258 23.9416 2.80921 21.447 2.26901 18.7313C1.72882 16.0155 2.00607 13.2006 3.06569 10.6424C4.12532 8.08427 5.91973 5.89776 8.22202 4.35943Z" fill="#F9F9FA"/>
<path d="M16 2C13.2311 2 10.5243 2.82109 8.22202 4.35943C5.91973 5.89776 4.12532 8.08427 3.06569 10.6424C2.00607 13.2006 1.72882 16.0155 2.26901 18.7313C2.80921 21.447 4.14258 23.9416 6.10051 25.8995C8.05845 27.8574 10.553 29.1908 13.2687 29.731C15.9845 30.2712 18.7994 29.9939 21.3576 28.9343C23.9157 27.8747 26.1022 26.0803 27.6406 23.778C29.1789 21.4757 30 18.7689 30 16C29.9961 12.2882 28.5198 8.72949 25.8952 6.10483C23.2705 3.48017 19.7118 2.00392 16 2ZM16 27.8461C13.6571 27.8461 11.3667 27.1514 9.41863 25.8497C7.47054 24.548 5.95219 22.6979 5.05559 20.5333C4.15898 18.3687 3.92439 15.9869 4.38147 13.6889C4.83856 11.391 5.9668 9.28022 7.62351 7.6235C9.28022 5.96679 11.391 4.83855 13.6889 4.38147C15.9869 3.92438 18.3687 4.15897 20.5333 5.05558C22.6979 5.95219 24.548 7.47054 25.8497 9.41863C27.1514 11.3667 27.8462 13.6571 27.8462 16C27.8426 19.1407 26.5934 22.1517 24.3726 24.3726C22.1518 26.5934 19.1407 27.8426 16 27.8461ZM22.4615 20.3077C22.4615 20.5933 22.3481 20.8672 22.1461 21.0692C21.9442 21.2712 21.6702 21.3846 21.3846 21.3846H10.6154C10.3298 21.3846 10.0559 21.2712 9.85389 21.0692C9.65193 20.8672 9.53847 20.5933 9.53847 20.3077C9.53847 20.0221 9.65193 19.7482 9.85389 19.5462C10.0559 19.3442 10.3298 19.2308 10.6154 19.2308H21.3846C21.6702 19.2308 21.9442 19.3442 22.1461 19.5462C22.3481 19.7482 22.4615 20.0221 22.4615 20.3077ZM9.53847 13.3077C9.53847 12.9882 9.63321 12.6759 9.81071 12.4102C9.98821 12.1446 10.2405 11.9375 10.5357 11.8153C10.8308 11.693 11.1556 11.661 11.469 11.7233C11.7824 11.7857 12.0702 11.9395 12.2961 12.1654C12.522 12.3914 12.6759 12.6792 12.7382 12.9925C12.8005 13.3059 12.7685 13.6307 12.6463 13.9259C12.524 14.221 12.317 14.4733 12.0513 14.6508C11.7857 14.8283 11.4733 14.9231 11.1539 14.9231C10.7254 14.9231 10.3145 14.7529 10.0116 14.4499C9.70866 14.147 9.53847 13.7361 9.53847 13.3077ZM22.4615 13.3077C22.4615 13.6272 22.3668 13.9395 22.1893 14.2051C22.0118 14.4708 21.7595 14.6778 21.4643 14.8001C21.1692 14.9224 20.8444 14.9544 20.531 14.892C20.2177 14.8297 19.9298 14.6759 19.7039 14.4499C19.478 14.224 19.3241 13.9362 19.2618 13.6228C19.1995 13.3095 19.2315 12.9847 19.3537 12.6895C19.476 12.3943 19.683 12.142 19.9487 11.9645C20.2143 11.787 20.5267 11.6923 20.8462 11.6923C21.2746 11.6923 21.6855 11.8625 21.9884 12.1654C22.2913 12.4684 22.4615 12.8793 22.4615 13.3077Z" fill="#6A6D73"/>
</svg>
