<svg width="32" height="32" viewBox="0 0 32 32" fill="none" xmlns="http://www.w3.org/2000/svg">
<path d="M29.9001 12.1615C29.7789 11.7882 29.5507 11.4588 29.2437 11.2143C28.9368 10.9698 28.5647 10.821 28.1738 10.7865L20.7501 10.1465L17.8401 3.22649C17.6885 2.86338 17.433 2.55322 17.1056 2.33506C16.7781 2.1169 16.3935 2.00049 16.0001 2.00049C15.6066 2.00049 15.222 2.1169 14.8945 2.33506C14.5671 2.55322 14.3116 2.86338 14.1601 3.22649L11.2588 10.1465L3.8263 10.7902C3.43385 10.8232 3.05986 10.9713 2.75125 11.216C2.44264 11.4607 2.21313 11.791 2.09152 12.1656C1.9699 12.5402 1.96159 12.9424 2.06762 13.3217C2.17365 13.701 2.38931 14.0405 2.68755 14.2977L8.3263 19.2252L6.6363 26.5427C6.54694 26.9257 6.57244 27.3264 6.70961 27.695C6.84679 28.0635 7.08955 28.3834 7.40755 28.6147C7.72554 28.846 8.10467 28.9784 8.49752 28.9954C8.89037 29.0124 9.27952 28.9132 9.6163 28.7102L15.9913 24.8352L22.3801 28.7102C22.7168 28.9132 23.106 29.0124 23.4988 28.9954C23.8917 28.9784 24.2708 28.846 24.5888 28.6147C24.9068 28.3834 25.1496 28.0635 25.2867 27.695C25.4239 27.3264 25.4494 26.9257 25.3601 26.5427L23.6713 19.2177L29.3088 14.2977C29.607 14.0396 29.8222 13.6991 29.9274 13.319C30.0326 12.9389 30.0231 12.5362 29.9001 12.1615ZM27.9976 12.7865L22.3601 17.7065C22.0857 17.9452 21.8816 18.2541 21.7697 18.6001C21.6578 18.9461 21.6424 19.3161 21.7251 19.6702L23.4188 27.0002L17.0351 23.1252C16.7236 22.9356 16.366 22.8352 16.0013 22.8352C15.6366 22.8352 15.279 22.9356 14.9676 23.1252L8.59255 27.0002L10.2751 19.6752C10.3577 19.3211 10.3423 18.9511 10.2304 18.6051C10.1185 18.2591 9.91443 17.9502 9.64005 17.7115L4.00005 12.794C3.99959 12.7903 3.99959 12.7865 4.00005 12.7827L11.4301 12.1402C11.7928 12.1083 12.1399 11.9779 12.434 11.7631C12.7281 11.5483 12.958 11.2573 13.0988 10.9215L16.0001 4.01024L18.9001 10.9215C19.0409 11.2573 19.2708 11.5483 19.5648 11.7631C19.8589 11.9779 20.206 12.1083 20.5688 12.1402L28.0001 12.7827C28.0001 12.7827 28.0001 12.7902 28.0001 12.7915L27.9976 12.7865Z" fill="#6A6D73"/>
</svg>
