<svg width="32" height="32" viewBox="0 0 32 32" fill="none" xmlns="http://www.w3.org/2000/svg">
<path d="M29.3126 14.2977L23.6751 19.2177L25.3638 26.5427C25.4532 26.9257 25.4277 27.3264 25.2905 27.695C25.1533 28.0635 24.9106 28.3834 24.5926 28.6147C24.2746 28.846 23.8954 28.9784 23.5026 28.9954C23.1097 29.0124 22.7206 28.9132 22.3838 28.7102L15.9951 24.8352L9.62005 28.7102C9.28327 28.9132 8.89412 29.0124 8.50127 28.9954C8.10842 28.9784 7.72929 28.846 7.4113 28.6147C7.0933 28.3834 6.85054 28.0635 6.71336 27.695C6.57619 27.3264 6.55069 26.9257 6.64005 26.5427L8.3263 19.2252L2.68755 14.2977C2.38931 14.0405 2.17365 13.701 2.06762 13.3217C1.96159 12.9424 1.9699 12.5402 2.09152 12.1656C2.21313 11.791 2.44264 11.4607 2.75125 11.216C3.05986 10.9713 3.43385 10.8232 3.8263 10.7902L11.2588 10.1465L14.1601 3.22649C14.3116 2.86338 14.5671 2.55322 14.8945 2.33506C15.222 2.1169 15.6066 2.00049 16.0001 2.00049C16.3935 2.00049 16.7781 2.1169 17.1056 2.33506C17.433 2.55322 17.6885 2.86338 17.8401 3.22649L20.7501 10.1465L28.1801 10.7902C28.5725 10.8232 28.9465 10.9713 29.2551 11.216C29.5637 11.4607 29.7932 11.791 29.9148 12.1656C30.0365 12.5402 30.0448 12.9424 29.9387 13.3217C29.8327 13.701 29.617 14.0405 29.3188 14.2977H29.3126Z" fill="#0091FF"/>
</svg>
