<svg width="32" height="32" viewBox="0 0 32 32" fill="none" xmlns="http://www.w3.org/2000/svg">
<rect x="2" y="2" width="28" height="28" rx="14" fill="white"/>
<path d="M16 2C13.2311 2 10.5243 2.82109 8.22202 4.35943C5.91973 5.89776 4.12532 8.08427 3.06569 10.6424C2.00607 13.2006 1.72882 16.0155 2.26901 18.7313C2.80921 21.447 4.14258 23.9416 6.10051 25.8995C8.05844 27.8574 10.553 29.1908 13.2687 29.731C15.9845 30.2712 18.7994 29.9939 21.3576 28.9343C23.9157 27.8747 26.1022 26.0803 27.6406 23.778C29.1789 21.4757 30 18.7689 30 16C29.9961 12.2882 28.5198 8.72949 25.8952 6.10483C23.2705 3.48017 19.7118 2.00392 16 2ZM11.1538 11.6923C11.4733 11.6923 11.7857 11.787 12.0513 11.9645C12.317 12.142 12.524 12.3943 12.6463 12.6895C12.7685 12.9847 12.8005 13.3095 12.7382 13.6228C12.6759 13.9362 12.522 14.224 12.2961 14.4499C12.0702 14.6759 11.7824 14.8297 11.469 14.892C11.1556 14.9544 10.8308 14.9224 10.5357 14.8001C10.2405 14.6778 9.98821 14.4708 9.81071 14.2051C9.63321 13.9395 9.53847 13.6272 9.53847 13.3077C9.53847 12.8793 9.70866 12.4684 10.0116 12.1654C10.3145 11.8625 10.7254 11.6923 11.1538 11.6923ZM21.9231 23.3931C21.676 23.5356 21.3824 23.5743 21.1068 23.5006C20.8312 23.4269 20.5961 23.2469 20.4531 23C19.4475 21.2621 17.8671 20.3077 16 20.3077C14.1329 20.3077 12.5525 21.2635 11.5469 23C11.4796 23.1287 11.3869 23.2424 11.2745 23.3344C11.1621 23.4264 11.0322 23.4946 10.8927 23.5351C10.7532 23.5756 10.607 23.5874 10.4628 23.5699C10.3186 23.5524 10.1795 23.5059 10.0537 23.4332C9.928 23.3605 9.81825 23.2631 9.73111 23.1469C9.64397 23.0307 9.58124 22.8981 9.54668 22.757C9.51213 22.616 9.50646 22.4694 9.53004 22.326C9.55361 22.1827 9.60593 22.0456 9.68385 21.9231C11.069 19.5283 13.371 18.1538 16 18.1538C18.629 18.1538 20.931 19.5269 22.3162 21.9231C22.4587 22.1702 22.4974 22.4638 22.4237 22.7394C22.35 23.015 22.1699 23.2501 21.9231 23.3931ZM20.8462 14.9231C20.5267 14.9231 20.2143 14.8283 19.9487 14.6508C19.683 14.4733 19.476 14.221 19.3537 13.9259C19.2315 13.6307 19.1995 13.3059 19.2618 12.9925C19.3241 12.6792 19.478 12.3914 19.7039 12.1654C19.9298 11.9395 20.2177 11.7857 20.531 11.7233C20.8444 11.661 21.1692 11.693 21.4643 11.8153C21.7595 11.9375 22.0118 12.1446 22.1893 12.4102C22.3668 12.6759 22.4615 12.9882 22.4615 13.3077C22.4615 13.7361 22.2913 14.147 21.9884 14.4499C21.6855 14.7529 21.2746 14.9231 20.8462 14.9231Z" fill="#1E78FF"/>
</svg>
