<svg width="32" height="32" viewBox="0 0 32 32" fill="none" xmlns="http://www.w3.org/2000/svg">
<rect x="2" y="2" width="28" height="28" rx="14" fill="white"/>
<path d="M16 2C13.2311 2 10.5243 2.82109 8.22202 4.35943C5.91973 5.89776 4.12532 8.08427 3.06569 10.6424C2.00607 13.2006 1.72882 16.0155 2.26901 18.7313C2.80921 21.447 4.14258 23.9416 6.10051 25.8995C8.05845 27.8574 10.553 29.1908 13.2687 29.731C15.9845 30.2712 18.7994 29.9939 21.3576 28.9343C23.9157 27.8747 26.1022 26.0803 27.6406 23.778C29.1789 21.4757 30 18.7689 30 16C29.9954 12.2884 28.5189 8.73012 25.8944 6.10562C23.2699 3.48111 19.7116 2.00463 16 2ZM11.1539 11.6923C11.4733 11.6923 11.7857 11.787 12.0513 11.9645C12.317 12.142 12.524 12.3943 12.6463 12.6895C12.7685 12.9847 12.8005 13.3095 12.7382 13.6228C12.6759 13.9362 12.522 14.224 12.2961 14.4499C12.0702 14.6759 11.7824 14.8297 11.469 14.892C11.1556 14.9544 10.8308 14.9224 10.5357 14.8001C10.2405 14.6778 9.98821 14.4708 9.81071 14.2051C9.63321 13.9395 9.53847 13.6272 9.53847 13.3077C9.53847 12.8793 9.70866 12.4684 10.0116 12.1654C10.3145 11.8625 10.7254 11.6923 11.1539 11.6923ZM21.3846 21.3846H10.6154C10.3298 21.3846 10.0559 21.2712 9.85389 21.0692C9.65193 20.8672 9.53847 20.5933 9.53847 20.3077C9.53847 20.0221 9.65193 19.7482 9.85389 19.5462C10.0559 19.3442 10.3298 19.2308 10.6154 19.2308H21.3846C21.6702 19.2308 21.9442 19.3442 22.1461 19.5462C22.3481 19.7482 22.4615 20.0221 22.4615 20.3077C22.4615 20.5933 22.3481 20.8672 22.1461 21.0692C21.9442 21.2712 21.6702 21.3846 21.3846 21.3846ZM20.8462 14.9231C20.5267 14.9231 20.2143 14.8283 19.9487 14.6508C19.683 14.4733 19.476 14.221 19.3537 13.9259C19.2315 13.6307 19.1995 13.3059 19.2618 12.9925C19.3241 12.6792 19.478 12.3914 19.7039 12.1654C19.9298 11.9395 20.2177 11.7857 20.531 11.7233C20.8444 11.661 21.1692 11.693 21.4643 11.8153C21.7595 11.9375 22.0118 12.1446 22.1893 12.4102C22.3668 12.6759 22.4615 12.9882 22.4615 13.3077C22.4615 13.7361 22.2913 14.147 21.9884 14.4499C21.6855 14.7529 21.2746 14.9231 20.8462 14.9231Z" fill="#1E78FF"/>
</svg>
