<svg width="160" height="133" viewBox="0 0 160 133" fill="none" xmlns="http://www.w3.org/2000/svg">
<path d="M36.7882 14.2174C17.6455 17.145 2.56 33.3888 0.306031 53.3465C-1.17515 66.4788 2.8176 78.624 10.1752 87.7246C11.8496 89.9663 13.7655 92.0741 15.9872 93.931C38.3177 112.718 64.2545 118.857 87.4543 118.857C107.563 118.857 125.627 114.24 137.46 109.205C151.435 103.283 159.919 89.3306 160 74.5589V74.1072C159.968 69.4398 159.098 64.7055 157.295 60.1217C149.728 40.8667 128.573 31.649 110.058 39.4949C109.914 39.5618 102.701 42.3556 93.1697 43.3258C88.2432 43.8277 83.5259 41.2012 81.111 36.7179C72.7391 21.1934 55.7377 11.3233 36.7882 14.2174Z" fill="#7D4845"/>
<mask id="path-2-outside-1_4327_10003" maskUnits="userSpaceOnUse" x="51.7142" y="22.1431" width="58" height="80" fill="black">
<rect fill="white" x="51.7142" y="22.1431" width="58" height="80"/>
<path d="M94.7021 61.2391C97.8381 63.0311 100.398 65.4951 102.382 68.6311C104.366 71.7031 105.358 74.7431 105.358 77.7511C105.358 81.6551 104.302 85.1751 102.19 88.3111C100.142 91.3831 97.2301 93.7831 93.4541 95.5111C89.7421 97.2391 85.5181 98.1031 80.7821 98.1031C76.0461 98.1031 71.7901 97.2071 68.0141 95.4151C64.3021 93.5591 61.3901 91.0311 59.2781 87.8311C57.2301 84.5671 56.2061 80.8551 56.2061 76.6951H68.5901C68.5901 79.7671 69.7101 82.2951 71.9501 84.2791C74.2541 86.1991 77.1981 87.1591 80.7821 87.1591C84.4941 87.1591 87.5341 86.1991 89.9021 84.2791C92.2701 82.2951 93.4541 79.7671 93.4541 76.6951C93.4541 73.6871 92.2701 71.2231 89.9021 69.3031C87.5981 67.3191 84.6221 66.3271 80.9741 66.3271H76.0781V56.2471H81.0701C84.3981 56.2471 87.1181 55.3831 89.2301 53.6551C91.3421 51.8631 92.3981 49.5911 92.3981 46.8391C92.3981 44.1511 91.3741 41.9751 89.3261 40.3111C87.2781 38.5831 84.6541 37.7191 81.4541 37.7191C78.3181 37.7191 75.7581 38.5831 73.7741 40.3111C71.7901 42.0391 70.7981 44.2471 70.7981 46.9351H58.4141C58.4141 43.0311 59.3741 39.5431 61.2941 36.4711C63.2781 33.3991 65.9981 31.0311 69.4541 29.3671C72.9741 27.6391 76.9741 26.7751 81.4541 26.7751C85.8701 26.7751 89.8061 27.6071 93.2621 29.2711C96.7181 30.8711 99.4061 33.1111 101.326 35.9911C103.246 38.8711 104.206 42.1671 104.206 45.8791C104.206 48.6311 103.31 51.4471 101.518 54.3271C99.7901 57.2071 97.5181 59.5111 94.7021 61.2391Z"/>
</mask>
<path d="M94.7021 61.2391C97.8381 63.0311 100.398 65.4951 102.382 68.6311C104.366 71.7031 105.358 74.7431 105.358 77.7511C105.358 81.6551 104.302 85.1751 102.19 88.3111C100.142 91.3831 97.2301 93.7831 93.4541 95.5111C89.7421 97.2391 85.5181 98.1031 80.7821 98.1031C76.0461 98.1031 71.7901 97.2071 68.0141 95.4151C64.3021 93.5591 61.3901 91.0311 59.2781 87.8311C57.2301 84.5671 56.2061 80.8551 56.2061 76.6951H68.5901C68.5901 79.7671 69.7101 82.2951 71.9501 84.2791C74.2541 86.1991 77.1981 87.1591 80.7821 87.1591C84.4941 87.1591 87.5341 86.1991 89.9021 84.2791C92.2701 82.2951 93.4541 79.7671 93.4541 76.6951C93.4541 73.6871 92.2701 71.2231 89.9021 69.3031C87.5981 67.3191 84.6221 66.3271 80.9741 66.3271H76.0781V56.2471H81.0701C84.3981 56.2471 87.1181 55.3831 89.2301 53.6551C91.3421 51.8631 92.3981 49.5911 92.3981 46.8391C92.3981 44.1511 91.3741 41.9751 89.3261 40.3111C87.2781 38.5831 84.6541 37.7191 81.4541 37.7191C78.3181 37.7191 75.7581 38.5831 73.7741 40.3111C71.7901 42.0391 70.7981 44.2471 70.7981 46.9351H58.4141C58.4141 43.0311 59.3741 39.5431 61.2941 36.4711C63.2781 33.3991 65.9981 31.0311 69.4541 29.3671C72.9741 27.6391 76.9741 26.7751 81.4541 26.7751C85.8701 26.7751 89.8061 27.6071 93.2621 29.2711C96.7181 30.8711 99.4061 33.1111 101.326 35.9911C103.246 38.8711 104.206 42.1671 104.206 45.8791C104.206 48.6311 103.31 51.4471 101.518 54.3271C99.7901 57.2071 97.5181 59.5111 94.7021 61.2391Z" fill="white"/>
<path d="M94.7021 61.2391L92.61 57.8298L86.8544 61.3617L92.7176 64.712L94.7021 61.2391ZM102.382 68.6311L99.0018 70.7696L99.0118 70.7854L99.0219 70.8012L102.382 68.6311ZM102.19 88.3111L98.8724 86.0767L98.8671 86.0845L98.8619 86.0923L102.19 88.3111ZM93.4541 95.5111L91.7896 91.8738L91.7778 91.8792L91.766 91.8847L93.4541 95.5111ZM68.0141 95.4151L66.2253 98.9928L66.262 99.0112L66.2991 99.0288L68.0141 95.4151ZM59.2781 87.8311L55.8899 89.957L55.9143 89.996L55.9397 90.0344L59.2781 87.8311ZM56.2061 76.6951V72.6951H52.2061V76.6951H56.2061ZM68.5901 76.6951H72.5901V72.6951H68.5901V76.6951ZM71.9501 84.2791L69.298 87.2734L69.3431 87.3134L69.3894 87.352L71.9501 84.2791ZM89.9021 84.2791L92.4213 87.3861L92.4463 87.3658L92.471 87.3451L89.9021 84.2791ZM89.9021 69.3031L87.292 72.3341L87.3369 72.3728L87.3829 72.4101L89.9021 69.3031ZM76.0781 66.3271H72.0781V70.3271H76.0781V66.3271ZM76.0781 56.2471V52.2471H72.0781V56.2471H76.0781ZM89.2301 53.6551L91.7631 56.7509L91.7907 56.7282L91.818 56.7051L89.2301 53.6551ZM89.3261 40.3111L86.7466 43.3682L86.775 43.3921L86.8037 43.4155L89.3261 40.3111ZM73.7741 40.3111L76.4012 43.3274L73.7741 40.3111ZM70.7981 46.9351V50.9351H74.7981V46.9351H70.7981ZM58.4141 46.9351H54.4141V50.9351H58.4141V46.9351ZM61.2941 36.4711L57.934 34.301L57.9178 34.3259L57.9021 34.3511L61.2941 36.4711ZM69.4541 29.3671L71.1894 32.9711L71.2031 32.9645L71.2168 32.9577L69.4541 29.3671ZM93.2621 29.2711L91.5268 32.8751L91.5541 32.8882L91.5816 32.9009L93.2621 29.2711ZM101.326 35.9911L104.654 33.7723V33.7723L101.326 35.9911ZM101.518 54.3271L98.1219 52.2139L98.1048 52.2413L98.0881 52.2691L101.518 54.3271ZM92.7176 64.712C95.2704 66.1708 97.3571 68.17 99.0018 70.7696L105.762 66.4925C103.439 62.8201 100.406 59.8913 96.6867 57.7661L92.7176 64.712ZM99.0219 70.8012C100.679 73.367 101.358 75.6647 101.358 77.7511H109.358C109.358 73.8214 108.053 70.0391 105.742 66.461L99.0219 70.8012ZM101.358 77.7511C101.358 80.8865 100.525 83.6234 98.8724 86.0767L105.508 90.5455C108.08 86.7267 109.358 82.4237 109.358 77.7511H101.358ZM98.8619 86.0923C97.2758 88.4715 94.9766 90.4154 91.7896 91.8738L95.1186 99.1483C99.4836 97.1508 103.008 94.2947 105.518 90.5299L98.8619 86.0923ZM91.766 91.8847C88.6595 93.3309 85.0259 94.1031 80.7821 94.1031V102.103C86.0103 102.103 90.8248 101.147 95.1422 99.1374L91.766 91.8847ZM80.7821 94.1031C76.5601 94.1031 72.9019 93.3071 69.7291 91.8014L66.2991 99.0288C70.6783 101.107 75.5321 102.103 80.7821 102.103V94.1031ZM69.803 91.8374C66.6658 90.2688 64.31 88.1936 62.6165 85.6277L55.9397 90.0344C58.4702 93.8686 61.9385 96.8494 66.2253 98.9928L69.803 91.8374ZM62.6664 85.7051C61.0499 83.1289 60.2061 80.1653 60.2061 76.6951H52.2061C52.2061 81.5449 53.4103 86.0052 55.8899 89.957L62.6664 85.7051ZM56.2061 80.6951H68.5901V72.6951H56.2061V80.6951ZM64.5901 76.6951C64.5901 80.8773 66.1751 84.5074 69.298 87.2734L74.6023 81.2847C73.2451 80.0827 72.5901 78.6569 72.5901 76.6951H64.5901ZM69.3894 87.352C72.5461 89.9826 76.4528 91.1591 80.7821 91.1591V83.1591C77.9434 83.1591 75.9621 82.4156 74.5108 81.2062L69.3894 87.352ZM80.7821 91.1591C85.205 91.1591 89.1955 90.0016 92.4213 87.3861L87.3829 81.172C85.8727 82.3965 83.7832 83.1591 80.7821 83.1591V91.1591ZM92.471 87.3451C95.7402 84.6061 97.4541 80.9582 97.4541 76.6951H89.4541C89.4541 78.576 88.8 79.984 87.3332 81.213L92.471 87.3451ZM97.4541 76.6951C97.4541 72.4623 95.7113 68.8636 92.4213 66.196L87.3829 72.4101C88.8289 73.5825 89.4541 74.9118 89.4541 76.6951H97.4541ZM92.5122 66.272C89.3436 63.5435 85.3797 62.3271 80.9741 62.3271V70.3271C83.8645 70.3271 85.8526 71.0947 87.292 72.3341L92.5122 66.272ZM80.9741 62.3271H76.0781V70.3271H80.9741V62.3271ZM80.0781 66.3271V56.2471H72.0781V66.3271H80.0781ZM76.0781 60.2471H81.0701V52.2471H76.0781V60.2471ZM81.0701 60.2471C85.1117 60.2471 88.7894 59.1839 91.7631 56.7509L86.6972 50.5592C85.4468 51.5822 83.6845 52.2471 81.0701 52.2471V60.2471ZM91.818 56.7051C94.819 54.1588 96.3981 50.7745 96.3981 46.8391H88.3981C88.3981 48.4076 87.8652 49.5674 86.6422 50.605L91.818 56.7051ZM96.3981 46.8391C96.3981 42.9726 94.8514 39.6465 91.8485 37.2066L86.8037 43.4155C87.8968 44.3037 88.3981 45.3295 88.3981 46.8391H96.3981ZM91.9056 37.2539C89.0019 34.8039 85.4065 33.7191 81.4541 33.7191V41.7191C83.9017 41.7191 85.5544 42.3623 86.7466 43.3682L91.9056 37.2539ZM81.4541 33.7191C77.5472 33.7191 73.9938 34.8153 71.147 37.2947L76.4012 43.3274C77.5224 42.3509 79.0891 41.7191 81.4541 41.7191V33.7191ZM71.147 37.2947C68.2694 39.8011 66.7981 43.1192 66.7981 46.9351H74.7981C74.7981 45.375 75.3109 44.2771 76.4012 43.3274L71.147 37.2947ZM70.7981 42.9351H58.4141V50.9351H70.7981V42.9351ZM62.4141 46.9351C62.4141 43.7202 63.1944 40.9778 64.6861 38.5911L57.9021 34.3511C55.5539 38.1083 54.4141 42.342 54.4141 46.9351H62.4141ZM64.6543 38.6412C66.219 36.2184 68.3627 34.3321 71.1894 32.9711L67.7188 25.7631C63.6335 27.7301 60.3373 30.5797 57.934 34.301L64.6543 38.6412ZM71.2168 32.9577C74.1148 31.5351 77.4979 30.7751 81.4541 30.7751V22.7751C76.4503 22.7751 71.8334 23.7431 67.6914 25.7764L71.2168 32.9577ZM81.4541 30.7751C85.3601 30.7751 88.6885 31.5085 91.5268 32.8751L94.9974 25.6671C90.9237 23.7057 86.3801 22.7751 81.4541 22.7751V30.7751ZM91.5816 32.9009C94.4381 34.2234 96.527 36.0035 97.9979 38.2099L104.654 33.7723C102.285 30.2186 98.9981 27.5187 94.9426 25.6412L91.5816 32.9009ZM97.9979 38.2099C99.4477 40.3846 100.206 42.8968 100.206 45.8791H108.206C108.206 41.4374 107.044 37.3575 104.654 33.7723L97.9979 38.2099ZM100.206 45.8791C100.206 47.7277 99.611 49.8207 98.1219 52.2139L104.914 56.4403C107.009 53.0735 108.206 49.5344 108.206 45.8791H100.206ZM98.0881 52.2691C96.6853 54.6072 94.8686 56.4439 92.61 57.8298L96.7942 64.6484C100.168 62.5783 102.895 59.807 104.948 56.3851L98.0881 52.2691Z" fill="#F4A100" mask="url(#path-2-outside-1_4327_10003)"/>
</svg>
