<svg width="32" height="32" viewBox="0 0 32 32" fill="none" xmlns="http://www.w3.org/2000/svg">
<circle cx="16" cy="16" r="15.5" fill="white" stroke="#8D9299" stroke-dasharray="3 3"/>
<path d="M25 16C25 16.1989 24.921 16.3897 24.7803 16.5303C24.6397 16.671 24.4489 16.75 24.25 16.75H16.75V24.25C16.75 24.4489 16.671 24.6397 16.5303 24.7803C16.3897 24.921 16.1989 25 16 25C15.8011 25 15.6103 24.921 15.4697 24.7803C15.329 24.6397 15.25 24.4489 15.25 24.25V16.75H7.75C7.55109 16.75 7.36032 16.671 7.21967 16.5303C7.07902 16.3897 7 16.1989 7 16C7 15.8011 7.07902 15.6103 7.21967 15.4697C7.36032 15.329 7.55109 15.25 7.75 15.25H15.25V7.75C15.25 7.55109 15.329 7.36032 15.4697 7.21967C15.6103 7.07902 15.8011 7 16 7C16.1989 7 16.3897 7.07902 16.5303 7.21967C16.671 7.36032 16.75 7.55109 16.75 7.75V15.25H24.25C24.4489 15.25 24.6397 15.329 24.7803 15.4697C24.921 15.6103 25 15.8011 25 16Z" fill="#8D9299"/>
</svg>
