<svg width="98" height="59" viewBox="0 0 98 59" fill="none" xmlns="http://www.w3.org/2000/svg">
<path fill-rule="evenodd" clip-rule="evenodd" d="M51.498 16.2975C52.8682 20.0129 52.0886 24.4267 49.0681 28.4625C46.3744 32.0616 43.0885 34.807 39.5211 36.6889C41.7577 38.5561 44.7194 40.1857 48.4003 41.3871C57.1937 44.2573 69.3051 44.2992 82.3024 39.1625C84.1421 38.4354 86.2184 39.349 86.9399 41.2031C87.6613 43.0572 86.7548 45.1496 84.915 45.8767C70.5396 51.5581 56.7216 51.6842 46.1953 48.2483C40.4442 46.3711 35.4137 43.3053 31.9783 39.3221C29.3015 39.8196 26.5898 39.8868 23.9512 39.5203C14.9123 38.265 6.92469 31.9251 4.43113 21.035C3.98678 19.0945 5.18754 17.1583 7.11309 16.7105C9.03864 16.2627 10.9598 17.4728 11.4042 19.4134C13.2043 27.2749 18.7169 31.5132 24.9281 32.3758C25.9576 32.5187 27.0112 32.569 28.075 32.5248C27.6243 31.1365 27.3409 29.6845 27.2453 28.175C26.9237 23.0971 29.072 18.5653 31.969 15.3865C34.7907 12.2904 38.8287 9.94581 42.8812 10.0313C46.8234 10.1144 50.1506 12.6437 51.498 16.2975ZM35.0961 30.8401C34.6895 29.8043 34.453 28.7557 34.3871 27.7156C34.2151 25.0001 35.3661 22.3208 37.2396 20.2651C39.1884 18.1267 41.3923 17.2135 42.7315 17.2418C43.597 17.26 44.4153 17.7938 44.79 18.8099C45.142 19.7643 45.2202 21.627 43.3548 24.1196C41.0205 27.2386 38.1486 29.4636 35.0961 30.8401Z" fill="#E0E2E6"/>
<path d="M94.4568 13.0017C96.3588 14.9185 96.7439 17.6513 95.315 19.0913L92.7228 21.7036L85.8223 14.7493L88.4144 12.1369C89.8525 10.6877 92.5549 11.085 94.4568 13.0017Z" fill="#D0D3D9"/>
<path d="M85.9855 14.7708L64.5664 36.3569L71.467 43.3113L92.8861 21.7252L85.9855 14.7708Z" fill="#E0E2E6"/>
<path d="M64.5676 36.3572L71.4682 43.3115L64.8516 45.5713C63.288 46.1053 61.7955 44.6011 62.3253 43.0254L64.5676 36.3572Z" fill="#D0D3D9"/>
</svg>
