<svg width="24" height="23" viewBox="0 0 24 23" fill="none" xmlns="http://www.w3.org/2000/svg">
<g clip-path="url(#clip0_2250_86808)">
<path d="M15.1032 0.383897L22.6354 7.9161C22.879 8.16009 23.0159 8.4908 23.0159 8.83561C23.0159 9.18042 22.879 9.51114 22.6354 9.75512L9.76443 22.6254C9.64371 22.7462 9.50037 22.842 9.3426 22.9074C9.18482 22.9728 9.01571 23.0065 8.84492 23.0065C8.67413 23.0065 8.50502 22.9728 8.34724 22.9074C8.18947 22.842 8.04613 22.7462 7.92541 22.6254L0.393929 15.0932C0.273218 14.9725 0.177465 14.8292 0.112136 14.6715C0.0468079 14.5137 0.0131836 14.3447 0.0131836 14.174C0.0131836 14.0033 0.0468079 13.8343 0.112136 13.6766C0.177465 13.5189 0.273218 13.3756 0.393929 13.2549L13.2642 0.383897C13.5081 0.140243 13.8389 0.00338745 14.1837 0.00338745C14.5285 0.00338745 14.8592 0.140243 15.1032 0.383897Z" fill="#FFB400"/>
<path d="M6.94192 6.70688L0.393929 13.2549C0.273218 13.3756 0.177465 13.5189 0.112136 13.6766C0.0468079 13.8343 0.0131836 14.0033 0.0131836 14.174C0.0131836 14.3447 0.0468079 14.5138 0.112136 14.6715C0.177465 14.8292 0.273218 14.9725 0.393929 15.0932L7.92613 22.6254C8.04684 22.7462 8.19019 22.842 8.34796 22.9074C8.50573 22.9728 8.67485 23.0065 8.84564 23.0065C9.01643 23.0065 9.18554 22.9728 9.34332 22.9074C9.50109 22.842 9.64443 22.7462 9.76515 22.6254L16.3131 16.0781L6.94192 6.70688Z" fill="#1E78FF"/>
<path d="M3.34728 10.3015L0.393929 13.2549C0.273218 13.3756 0.177465 13.5189 0.112136 13.6766C0.0468079 13.8343 0.0131836 14.0033 0.0131836 14.174C0.0131836 14.3447 0.0468079 14.5138 0.112136 14.6715C0.177465 14.8292 0.273218 14.9725 0.393929 15.0932L7.92613 22.6254C8.04685 22.7462 8.19019 22.842 8.34796 22.9074C8.50574 22.9728 8.67485 23.0065 8.84564 23.0065C9.01643 23.0065 9.18554 22.9728 9.34332 22.9074C9.50109 22.842 9.64443 22.7462 9.76515 22.6254L12.7185 19.6727L3.34728 10.3015Z" fill="#FFE199"/>
</g>
<defs>
<clipPath id="clip0_2250_86808">
<rect width="23.028" height="23.01" fill="white"/>
</clipPath>
</defs>
</svg>
