<svg width="22" height="22" viewBox="0 0 22 22" fill="none" xmlns="http://www.w3.org/2000/svg">
<g clip-path="url(#clip0_2250_86798)">
<path d="M18.4406 3.79653e-06C17.9731 -0.000679958 17.5101 0.0910009 17.0782 0.269781C16.6462 0.448561 16.2539 0.710917 15.9236 1.04178L14.6079 2.3581C14.5225 2.44397 14.4746 2.56014 14.4746 2.68122C14.4746 2.8023 14.5225 2.91847 14.6079 3.00434L18.9919 7.39237C19.0345 7.43519 19.0851 7.46917 19.1409 7.49236C19.1966 7.51554 19.2564 7.52748 19.3168 7.52748C19.3772 7.52748 19.437 7.51554 19.4928 7.49236C19.5485 7.46917 19.5992 7.43519 19.6418 7.39237L20.9575 6.07651C21.6246 5.4086 21.9993 4.50318 21.9993 3.55915C21.9993 2.61512 21.6246 1.70969 20.9575 1.04178C20.6273 0.710917 20.2349 0.448561 19.803 0.269781C19.371 0.0910009 18.908 -0.000679958 18.4406 3.79653e-06ZM11.414 5.73185C11.2959 5.73475 11.1834 5.78319 11.1001 5.86705L2.76329 14.1999L1.88795 15.0767C1.8331 15.1322 1.79335 15.2009 1.77246 15.2761L0.0167351 21.4163C-0.00563755 21.495 -0.00653497 21.5782 0.0141361 21.6574C0.0348071 21.7366 0.0762928 21.8088 0.134285 21.8665C0.192278 21.9242 0.264663 21.9653 0.343923 21.9856C0.423184 22.0059 0.506431 22.0046 0.585018 21.9819L6.72569 20.2292C6.80002 20.207 6.86751 20.1663 6.92184 20.111L7.79809 19.2346L16.1344 10.9013C16.1773 10.8587 16.2112 10.8081 16.2344 10.7523C16.2576 10.6966 16.2695 10.6368 16.2695 10.5764C16.2695 10.516 16.2576 10.4562 16.2344 10.4004C16.2112 10.3446 16.1773 10.294 16.1344 10.2514L11.7463 5.86705C11.7028 5.82333 11.651 5.78882 11.5939 5.76559C11.5368 5.74236 11.4757 5.73088 11.414 5.73185Z" fill="#FFB400"/>
<path d="M18.4471 9.2504C18.356 9.25099 18.2671 9.27867 18.1918 9.32991C18.1165 9.38115 18.0582 9.45364 18.0242 9.53815C17.9902 9.62266 17.9821 9.71537 18.001 9.80448C18.0198 9.8936 18.0648 9.97509 18.1301 10.0386L18.9927 10.9013C19.3045 11.2131 19.3045 11.6964 18.9927 12.0082L14.6087 16.3909L11.0994 19.9005C11.0522 19.9418 11.0139 19.9924 10.987 20.0491C10.9601 20.1057 10.9451 20.1673 10.9429 20.2301C10.9407 20.2928 10.9514 20.3553 10.9744 20.4137C10.9973 20.4721 11.032 20.5252 11.0762 20.5697C11.1205 20.6142 11.1734 20.6491 11.2316 20.6724C11.2899 20.6956 11.3524 20.7067 11.4151 20.7048C11.4778 20.703 11.5395 20.6883 11.5963 20.6617C11.6531 20.6351 11.7039 20.5971 11.7455 20.5501L15.2548 17.0422L19.6422 12.6543C19.9595 12.335 20.1375 11.9031 20.1375 11.453C20.1375 11.0029 19.9595 10.571 19.6422 10.2517L18.7762 9.38898C18.7334 9.34506 18.6822 9.31017 18.6256 9.28637C18.5691 9.26257 18.5084 9.25034 18.4471 9.2504Z" fill="#1E78FF"/>
<path d="M2.20716 14.9415C2.19078 14.9415 2.17441 14.9425 2.15812 14.9442C2.06821 14.9552 1.98357 14.9926 1.91489 15.0517C1.84621 15.1107 1.79657 15.1888 1.77224 15.2761L0.0169793 21.4163C-0.0053934 21.495 -0.00629082 21.5782 0.0143802 21.6574C0.0350512 21.7366 0.0765369 21.8088 0.134529 21.8665C0.192522 21.9242 0.264907 21.9653 0.344168 21.9856C0.423428 22.0059 0.506675 22.0046 0.585262 21.9819L6.72593 20.2292C6.80245 20.207 6.87186 20.1653 6.92732 20.108C6.98277 20.0508 7.02235 19.9801 7.04215 19.903C7.06196 19.8258 7.0613 19.7448 7.04024 19.6679C7.01918 19.5911 6.97846 19.521 6.92208 19.4647L2.53759 15.0767C2.49441 15.0333 2.44297 14.9989 2.38629 14.9757C2.32962 14.9525 2.26841 14.9408 2.20716 14.9415Z" fill="#FFE199"/>
<path d="M14.054 1.86219C13.6186 1.86219 13.1832 2.02627 12.8533 2.35627L11.0975 4.11258C10.7806 4.43187 10.6028 4.86351 10.6028 5.3134C10.6028 5.76329 10.7806 6.19493 11.0975 6.51422L15.4843 10.9022C15.8037 11.2194 16.2355 11.3973 16.6855 11.3973C17.1355 11.3973 17.5673 11.2194 17.8867 10.9022L19.642 9.14594C19.9589 8.82665 20.1367 8.395 20.1367 7.94512C20.1367 7.49523 19.9589 7.06359 19.642 6.7443L15.2552 2.35581C15.0974 2.19835 14.91 2.07361 14.7039 1.98874C14.4978 1.90388 14.2769 1.86056 14.054 1.86128V1.86219Z" fill="#1E78FF"/>
</g>
<defs>
<clipPath id="clip0_2250_86798">
<rect width="22" height="22" fill="white"/>
</clipPath>
</defs>
</svg>
