<svg width="8" height="8" viewBox="0 0 8 8" fill="none" xmlns="http://www.w3.org/2000/svg">
<path fill-rule="evenodd" clip-rule="evenodd" d="M0.335116 0.335037C-0.111599 0.781752 -0.1116 1.50602 0.335116 1.95274L2.35729 3.97491L0.335037 5.99716C-0.111679 6.44388 -0.111679 7.16815 0.335037 7.61486C0.781752 8.06158 1.50602 8.06158 1.95274 7.61486L3.97499 5.59261L5.99707 7.61469C6.44378 8.0614 7.16805 8.0614 7.61477 7.61469C8.06148 7.16797 8.06148 6.4437 7.61477 5.99699L5.59269 3.97491L7.61469 1.95291C8.0614 1.50619 8.0614 0.781925 7.61469 0.33521C7.16797 -0.111506 6.4437 -0.111506 5.99699 0.335209L3.97499 2.35721L1.95282 0.335037C1.5061 -0.111679 0.781832 -0.111679 0.335116 0.335037Z" fill="#FE5663"/>
</svg>
