<svg width="164" height="36" viewBox="0 0 164 36" fill="none" xmlns="http://www.w3.org/2000/svg">
<path d="M0 4C0 2.89543 0.895431 2 2 2C3.10457 2 4 2.89543 4 4V32C4 33.1046 3.10457 34 2 34C0.895431 34 0 33.1046 0 32V4Z" fill="#EFF4F6"/>
<mask id="mask0_1419_26520" style="mask-type:alpha" maskUnits="userSpaceOnUse" x="0" y="2" width="4" height="32">
<path d="M0 4C0 2.89543 0.895431 2 2 2C3.10457 2 4 2.89543 4 4V32C4 33.1046 3.10457 34 2 34C0.895431 34 0 33.1046 0 32V4Z" fill="#EFF4F6"/>
</mask>
<g mask="url(#mask0_1419_26520)">
<path d="M0 2H4V29H0V2Z" fill="#385CAA"/>
</g>
<rect width="156" height="36" transform="translate(4)" fill="white"/>
<path d="M34.456 7.584V23.016H31.816V7.584H34.456ZM17.176 14.352C17.176 13.328 17.424 12.408 17.92 11.592C18.432 10.76 19.12 10.12 19.984 9.672C20.864 9.208 21.832 8.976 22.888 8.976C23.96 8.976 24.928 9.208 25.792 9.672C26.672 10.12 27.36 10.76 27.856 11.592C28.352 12.408 28.6 13.328 28.6 14.352C28.6 15.36 28.352 16.272 27.856 17.088C27.36 17.904 26.672 18.544 25.792 19.008C24.928 19.472 23.96 19.704 22.888 19.704C21.832 19.704 20.864 19.472 19.984 19.008C19.12 18.544 18.432 17.904 17.92 17.088C17.424 16.272 17.176 15.36 17.176 14.352ZM19.744 14.352C19.744 15.264 20.04 16 20.632 16.56C21.24 17.12 21.992 17.4 22.888 17.4C23.784 17.4 24.528 17.12 25.12 16.56C25.728 16 26.032 15.264 26.032 14.352C26.032 13.424 25.736 12.68 25.144 12.12C24.552 11.544 23.8 11.256 22.888 11.256C21.976 11.256 21.224 11.544 20.632 12.12C20.04 12.68 19.744 13.424 19.744 14.352ZM20.44 21.48H23.056V26.4H35.032V28.512H20.44V21.48ZM48.8566 8.256V9.336C48.8566 10.232 49.1686 11.104 49.7926 11.952C50.4166 12.8 51.2966 13.536 52.4326 14.16C53.5686 14.768 54.8646 15.176 56.3206 15.384L55.2886 17.472C53.5126 17.2 51.9366 16.648 50.5606 15.816C49.2006 14.984 48.1686 13.96 47.4646 12.744C46.7766 13.96 45.7526 14.984 44.3926 15.816C43.0326 16.648 41.4486 17.2 39.6406 17.472L38.6086 15.384C40.0646 15.176 41.3606 14.768 42.4966 14.16C43.6326 13.552 44.5126 12.824 45.1366 11.976C45.7606 11.128 46.0726 10.248 46.0726 9.336V8.256H48.8566ZM37.7926 19.344H57.1126V21.504H48.7126V28.944H46.0726V21.504H37.7926V19.344ZM78.0891 18.648V20.736H69.9531V24.408H67.3131V20.736H58.7451V18.648H78.0891ZM61.0731 22.68H63.6891V26.4H75.9531V28.536H61.0731V22.68ZM61.2651 8.232H63.8811V10.632H72.9531V8.232H75.5931V16.944H61.2651V8.232ZM72.9531 14.856V12.624H63.8811V14.856H72.9531ZM83.6097 10.968V8.136H86.2017V10.968H90.0657V13.056H79.6977V10.968H83.6097ZM80.2737 19.2C80.2737 18.24 80.4737 17.384 80.8737 16.632C81.2737 15.864 81.8257 15.272 82.5297 14.856C83.2337 14.424 84.0257 14.208 84.9057 14.208C85.8017 14.208 86.6017 14.424 87.3057 14.856C88.0097 15.272 88.5617 15.864 88.9617 16.632C89.3617 17.384 89.5617 18.24 89.5617 19.2C89.5617 20.176 89.3617 21.048 88.9617 21.816C88.5617 22.568 88.0097 23.16 87.3057 23.592C86.6017 24.008 85.8017 24.216 84.9057 24.216C84.0257 24.216 83.2337 24.008 82.5297 23.592C81.8257 23.16 81.2737 22.568 80.8737 21.816C80.4737 21.048 80.2737 20.176 80.2737 19.2ZM82.6017 19.2C82.6017 20.048 82.8097 20.728 83.2257 21.24C83.6577 21.752 84.2177 22.008 84.9057 22.008C85.5937 22.008 86.1537 21.752 86.5857 21.24C87.0177 20.728 87.2337 20.048 87.2337 19.2C87.2337 18.352 87.0177 17.672 86.5857 17.16C86.1537 16.648 85.5937 16.392 84.9057 16.392C84.2337 16.392 83.6817 16.648 83.2497 17.16C82.8177 17.672 82.6017 18.352 82.6017 19.2ZM90.9297 8.016H93.4017V16.368H95.4657V7.56H97.9617V28.92H95.4657V18.504H93.4017V27.96H90.9297V8.016ZM115.806 20.952C117.326 20.952 118.654 21.112 119.79 21.432C120.926 21.752 121.798 22.216 122.406 22.824C123.03 23.432 123.342 24.144 123.342 24.96C123.342 25.776 123.03 26.48 122.406 27.072C121.798 27.68 120.926 28.144 119.79 28.464C118.654 28.784 117.326 28.944 115.806 28.944C114.286 28.944 112.958 28.784 111.822 28.464C110.702 28.144 109.83 27.68 109.206 27.072C108.598 26.48 108.294 25.776 108.294 24.96C108.294 24.144 108.598 23.432 109.206 22.824C109.83 22.216 110.702 21.752 111.822 21.432C112.958 21.112 114.286 20.952 115.806 20.952ZM106.278 17.28H113.718V13.416H116.334V17.28H125.526V19.392H106.278V17.28ZM108.486 8.592H123.174V10.368C123.174 11.52 123.142 12.512 123.078 13.344C123.014 14.176 122.854 15.08 122.598 16.056L120.006 15.768C120.246 14.856 120.398 14.024 120.462 13.272C120.526 12.52 120.558 11.656 120.558 10.68H108.486V8.592ZM110.91 24.96C110.91 25.584 111.334 26.072 112.182 26.424C113.046 26.76 114.254 26.928 115.806 26.928C117.358 26.928 118.558 26.76 119.406 26.424C120.27 26.072 120.702 25.584 120.702 24.96C120.702 24.32 120.27 23.824 119.406 23.472C118.558 23.12 117.358 22.944 115.806 22.944C114.254 22.944 113.046 23.12 112.182 23.472C111.334 23.824 110.91 24.32 110.91 24.96ZM135.078 8.568V10.608C135.078 12.064 135.526 13.392 136.422 14.592C137.318 15.776 138.574 16.632 140.19 17.16L138.918 19.224C137.718 18.824 136.686 18.24 135.822 17.472C134.958 16.688 134.278 15.768 133.782 14.712C133.302 15.848 132.614 16.848 131.718 17.712C130.822 18.56 129.758 19.192 128.526 19.608L127.206 17.496C128.87 16.936 130.15 16.032 131.046 14.784C131.958 13.52 132.414 12.128 132.414 10.608V8.568H135.078ZM130.398 21.336H144.846V28.944H142.206V23.472H130.398V21.336ZM142.206 7.584H144.846V20.352H142.206V7.584Z" fill="#385CAA"/>
<path d="M160 4C160 2.89543 160.895 2 162 2C163.105 2 164 2.89543 164 4V32C164 33.1046 163.105 34 162 34C160.895 34 160 33.1046 160 32V4Z" fill="#EFF4F6"/>
</svg>
