<svg width="69" height="30" viewBox="0 0 69 30" fill="none" xmlns="http://www.w3.org/2000/svg">
<path fill-rule="evenodd" clip-rule="evenodd" d="M11.4699 11.5023C6.02135 20.3769 6.02557 20.3795 6.02986 20.382L6.03876 20.3874L6.05774 20.3988L6.10047 20.4244C6.13106 20.4426 6.16586 20.4631 6.20487 20.4859C6.28288 20.5316 6.37772 20.5862 6.48928 20.6492C6.71238 20.7751 7.00245 20.9343 7.35864 21.1206C8.0709 21.4932 9.04844 21.9749 10.2842 22.5171C12.7555 23.6013 16.264 24.9293 20.751 26.1086C29.7466 28.4729 42.6019 30.2193 58.7948 28.2634C64.534 27.5702 68.6205 22.389 67.9223 16.691C67.2241 10.9929 62.0055 6.93565 56.2664 7.62887C42.9386 9.23869 32.7635 7.76313 26.1089 6.01411C22.7708 5.13674 20.2992 4.18517 18.7467 3.50404C17.9707 3.16355 17.4254 2.89112 17.1178 2.73023C16.9641 2.64981 16.87 2.59739 16.8364 2.57842C16.8354 2.57788 16.8345 2.57737 16.8336 2.57688C11.9082 -0.342109 5.52312 1.21946 2.53118 6.0928C-0.477951 10.9941 1.08465 17.3893 6.02135 20.3769L11.4699 11.5023Z" fill="#38A39A"/>
<path d="M19.7909 8.05343L18.938 10.9984L20.5248 11.458L20.1003 12.9237L18.5135 12.4642L17.6839 15.3285L15.882 14.8066L17.989 7.53154L19.7909 8.05343ZM9.94909 6.35442L12.6117 7.12557L12.9466 5.9691L14.7351 6.4871L14.4002 7.64357L17.0627 8.41473L16.6577 9.81325L9.54404 7.75294L9.94909 6.35442ZM9.39007 10.4485C9.5147 10.0182 9.75056 9.67355 10.0976 9.41455C10.4447 9.15555 10.8684 9.00131 11.3685 8.95184C11.8803 8.89599 12.4275 8.95246 13.0102 9.12123C13.5929 9.29 14.0812 9.53343 14.4749 9.85151C14.8802 10.1632 15.1603 10.5213 15.3152 10.9257C15.4702 11.3301 15.4853 11.7475 15.3607 12.1778C15.2361 12.6081 15.0002 12.9527 14.6531 13.2117C14.3086 13.4618 13.8818 13.6102 13.3727 13.6571C12.8725 13.7066 12.331 13.6469 11.7483 13.4782C11.1656 13.3094 10.6716 13.0692 10.2663 12.7574C9.87001 12.4483 9.59309 12.096 9.43554 11.7006C9.28059 11.2962 9.26544 10.8788 9.39007 10.4485ZM9.64231 13.5532L17.5359 15.8394L16.3246 20.0216L8.43105 17.7354L9.64231 13.5532ZM11.1113 10.947C11.0308 11.225 11.0806 11.4726 11.2606 11.6899C11.4495 11.9098 11.7367 12.0756 12.1222 12.1872C12.4987 12.2963 12.8211 12.3071 13.0894 12.2196C13.3666 12.1347 13.5455 11.9533 13.626 11.6754C13.7065 11.3974 13.6554 11.1543 13.4728 10.946C13.2929 10.7286 13.0101 10.5642 12.6246 10.4525C12.2391 10.3409 11.9078 10.3275 11.6306 10.4124C11.3649 10.4909 11.1918 10.6691 11.1113 10.947ZM14.9854 18.1033L15.3788 16.7451L10.995 15.4754L10.6016 16.8336L14.9854 18.1033ZM24.2658 10.8216C23.7595 12.5698 23.1971 14.0587 22.5785 15.2885C21.96 16.5183 21.1478 17.5949 20.1419 18.5182L18.971 17.3774C19.8044 16.6471 20.4727 15.8495 20.9758 14.9847C21.4789 14.1198 21.9347 13.0664 22.343 11.8243L21.1327 11.4737L21.5495 10.0349L24.2658 10.8216ZM21.4969 18.7211C22.3844 17.9385 23.0881 17.0686 23.6083 16.1115C24.1373 15.157 24.6166 13.9889 25.0459 12.6071L24.2122 12.3656L24.6289 10.9268L26.9822 11.6083C26.6369 12.8007 26.2972 13.8392 25.9633 14.7239L26.8777 14.9887L28.1123 10.7259L29.7932 11.2127L26.5178 22.5219L24.8368 22.0351L26.4609 16.4276L25.3717 16.1121C24.6212 17.6632 23.7141 18.9163 22.6504 19.8714L21.4969 18.7211ZM30.5357 11.1654L32.2435 11.66L28.7383 23.7626L27.0304 23.268L30.5357 11.1654Z" fill="#232426"/>
<path d="M44.6359 12.1364L44.7738 17.0204L46.5651 16.9698L46.6085 18.5092L44.8172 18.5598L44.9914 24.7313L43.1302 24.7839L42.7746 12.1889L44.6359 12.1364ZM34.7236 14.2509L37.4665 14.1735L37.4207 12.5501L39.31 12.4968L39.3558 14.1201L42.0707 14.0435L42.1126 15.5269L34.7655 15.7343L34.7236 14.2509ZM35.3596 19.415C35.3433 18.8366 35.4686 18.3148 35.7356 17.8498C36.0026 17.3847 36.3751 17.0194 36.8531 16.7538C37.3309 16.4789 37.873 16.3329 38.4794 16.3157C39.0858 16.2986 39.6353 16.4138 40.1278 16.6614C40.6294 16.8993 41.0219 17.243 41.3054 17.6925C41.5981 18.1418 41.7527 18.6556 41.769 19.2341C41.7854 19.8125 41.66 20.3343 41.3931 20.7993C41.1354 21.2641 40.763 21.6341 40.2759 21.9093C39.7979 22.1749 39.2557 22.3162 38.6492 22.3333C38.0428 22.3505 37.4935 22.2399 37.0012 22.0017C36.5087 21.7542 36.1161 21.4058 35.8233 20.9565C35.5305 20.5073 35.3759 19.9934 35.3596 19.415ZM37.1509 19.3644C37.164 19.8309 37.3004 20.1959 37.5599 20.4593C37.8285 20.7132 38.1774 20.8341 38.6066 20.8219C39.0264 20.8101 39.3633 20.6699 39.6171 20.4013C39.8707 20.1233 39.9909 19.7511 39.9777 19.2846C39.9646 18.8182 39.8237 18.458 39.5551 18.2041C39.2862 17.9409 38.9419 17.8153 38.522 17.8271C38.0929 17.8392 37.7515 17.9843 37.4979 18.2622C37.2534 18.5305 37.1377 18.898 37.1509 19.3644ZM57.1888 11.768L57.5444 24.363L55.6691 24.4159L55.3136 11.8209L57.1888 11.768ZM46.9614 21.0763C48.5168 20.2761 49.6536 19.3663 50.3718 18.347C51.0993 17.3274 51.5131 16.1112 51.6133 14.6985L47.457 14.8158L47.4151 13.3324L53.4887 13.161C53.5274 14.5324 53.3851 15.7783 53.062 16.8985C52.7478 18.0091 52.1793 19.0383 51.3564 19.9859C50.5335 20.9335 49.4042 21.7777 47.9685 22.5185L46.9614 21.0763Z" fill="white"/>
</svg>
