<svg width="32" height="32" viewBox="0 0 32 32" fill="none" xmlns="http://www.w3.org/2000/svg">
<g clip-path="url(#clip0_2862_4701)">
<path d="M5.33453 17.75C5.00823 17.1761 4.92218 16.4964 5.09515 15.8593C5.26812 15.2222 5.68607 14.6794 6.25779 14.3493C6.82951 14.0192 7.50858 13.9287 8.14682 14.0974C8.78506 14.2661 9.33065 14.6805 9.66453 15.25L11.9995 19V5.5C11.9995 4.83696 12.2629 4.20107 12.7318 3.73223C13.2006 3.26339 13.8365 3 14.4995 3C15.1626 3 15.7985 3.26339 16.2673 3.73223C16.7361 4.20107 16.9995 4.83696 16.9995 5.5V12.5C16.9995 11.837 17.2629 11.2011 17.7318 10.7322C18.2006 10.2634 18.8365 10 19.4995 10C20.1626 10 20.7985 10.2634 21.2673 10.7322C21.7361 11.2011 21.9995 11.837 21.9995 12.5V14.5C21.9995 13.837 22.2629 13.2011 22.7318 12.7322C23.2006 12.2634 23.8365 12 24.4995 12C25.1626 12 25.7985 12.2634 26.2673 12.7322C26.7361 13.2011 26.9995 13.837 26.9995 14.5V19C26.9995 20.3132 26.7409 21.6136 26.2383 22.8268C25.7358 24.0401 24.9992 25.1425 24.0706 26.0711C23.142 26.9997 22.0396 27.7362 20.8264 28.2388C19.6131 28.7413 18.3127 29 16.9995 29C11.477 29 10.0233 26 5.33453 17.75Z" fill="white" stroke="#124899" stroke-linecap="round" stroke-linejoin="round"/>
</g>
<defs>
<clipPath id="clip0_2862_4701">
<rect width="32" height="32" fill="white"/>
</clipPath>
</defs>
</svg>
