<svg width="25" height="30" viewBox="0 0 25 30" fill="none" xmlns="http://www.w3.org/2000/svg">
<path d="M24.4564 14.7816C24.4564 11.2833 23.8405 6.33146 20.6131 2.16797C20.3668 1.87234 18.7654 0 18.322 0C18.1988 0 18.0264 0.049272 18.0264 0.24636C18.0264 0.344904 18.0756 0.418813 18.1742 0.492721C19.3567 1.77379 20.9581 3.76931 21.9681 7.68644C22.5348 9.92832 22.7565 12.4658 22.7565 14.757C22.7565 17.2452 22.5348 19.7581 21.8942 22.1724C20.9581 25.6215 19.5045 27.5924 18.2481 28.972C18.0264 29.1937 18.0264 29.243 18.0264 29.2922C18.0264 29.4893 18.1988 29.5386 18.322 29.5386C18.6915 29.5386 20.0465 28.0358 20.3422 27.6909C22.855 24.7099 24.4564 20.2754 24.4564 14.7816Z" fill="black"/>
<path d="M6.2143 14.3591H11.1857C11.4379 14.3591 11.7621 14.3591 11.7621 14.0348C11.7621 13.6926 11.4559 13.6926 11.1857 13.6926H6.2143V8.72117C6.2143 8.469 6.2143 8.14478 5.89007 8.14478C5.54784 8.14478 5.54784 8.45099 5.54784 8.72117V13.6926H0.576398C0.324224 13.6926 0 13.6926 0 14.0168C0 14.3591 0.306212 14.3591 0.576398 14.3591H5.54784V19.3305C5.54784 19.5827 5.54784 19.9069 5.87206 19.9069C6.2143 19.9069 6.2143 19.6007 6.2143 19.3305V14.3591Z" fill="black"/>
</svg>
