<svg width="8" height="30" viewBox="0 0 8 30" fill="none" xmlns="http://www.w3.org/2000/svg">
<path d="M7.04426 15.1117C7.04426 11.6134 6.42836 6.66154 3.20104 2.49805C2.95468 2.20242 1.35334 0.330078 0.90989 0.330078C0.78671 0.330078 0.614258 0.37935 0.614258 0.576438C0.614258 0.674982 0.66353 0.748891 0.762074 0.822799C1.9446 2.10387 3.54594 4.09939 4.55602 8.01652C5.12265 10.2584 5.34437 12.7959 5.34437 15.0871C5.34437 17.5753 5.12265 20.0882 4.48211 22.5025C3.54594 25.9515 2.09242 27.9224 0.835982 29.302C0.614258 29.5238 0.614258 29.573 0.614258 29.6223C0.614258 29.8194 0.78671 29.8687 0.90989 29.8687C1.27943 29.8687 2.63441 28.3659 2.93004 28.021C5.44292 25.04 7.04426 20.6055 7.04426 15.1117Z" fill="black"/>
</svg>
