<svg width="72" height="35" viewBox="0 0 72 35" fill="none" xmlns="http://www.w3.org/2000/svg">
<path d="M2.58794 27.7948C1.16125 27.7948 0 26.632 0 25.2034C0 23.7748 1.16125 22.612 2.58794 22.612C4.01462 22.612 5.17588 23.7748 5.17588 25.2034C5.17588 26.632 4.01462 27.7948 2.58794 27.7948Z" fill="#D2414D"/>
<path d="M31.188 26.1503C31.1548 25.6021 30.8728 25.3363 30.3752 25.3363H25.4647C25.249 25.3363 25.1495 25.519 25.1495 25.9011C25.1495 26.2832 25.249 26.4659 25.4647 26.4659H29.612C29.7448 26.4659 29.7945 26.5157 29.7945 26.5987V29.6221C29.7945 29.7882 30.0268 29.8713 30.4913 29.8713C30.906 29.8713 31.1383 29.7882 31.188 29.6221V26.1503ZM33.3281 20.5355H31.3871C31.3042 20.5355 31.2544 20.5189 31.2544 20.4691V17.6284C31.2544 17.3793 31.0221 17.2464 30.5576 17.2464C30.0931 17.2464 29.8609 17.3626 29.8609 17.6284V24.4226C29.8609 24.6386 30.0931 24.7382 30.5576 24.7382C31.0221 24.7382 31.2544 24.6386 31.2544 24.4226V21.9143C31.2544 21.8312 31.3042 21.7814 31.3871 21.7814H33.3281C33.5437 21.7814 33.6433 21.5654 33.6433 21.1501C33.6433 20.7348 33.5437 20.5189 33.3281 20.5189M27.0407 19.0404C26.9909 18.4922 26.7255 18.1932 26.2278 18.16H22.1468C21.9809 18.16 21.898 18.3427 21.898 18.7248C21.898 19.057 21.9809 19.2232 22.1468 19.2232H25.4813C25.614 19.2232 25.6638 19.273 25.6638 19.356V23.2599C25.6638 23.4758 25.896 23.5755 26.3605 23.5755C26.7919 23.5755 27.0075 23.4758 27.0573 23.2599V19.0404H27.0407ZM17.4355 28.5091C17.1866 28.6919 16.888 28.7915 16.5562 28.7915C16.2244 28.7915 15.9424 28.6919 15.7433 28.5091C15.5277 28.3264 15.4281 28.0607 15.4281 27.7284C15.4281 27.4294 15.5277 27.1636 15.7433 26.9476C15.959 26.7151 16.2244 26.5987 16.5562 26.5987C16.888 26.5987 17.1866 26.7151 17.4355 26.9476C17.6843 27.1802 17.817 27.446 17.817 27.7284C17.817 28.0607 17.6843 28.3264 17.4355 28.5091ZM18.3976 26.0506C17.8668 25.5689 17.2696 25.3363 16.606 25.3363C15.8595 25.3363 15.2291 25.5689 14.748 26.0506C14.2669 26.5324 14.018 27.0972 14.018 27.7118C14.018 28.3763 14.2503 28.9411 14.748 29.373C15.2291 29.8049 15.8429 30.0374 16.606 30.0374C17.2696 30.0374 17.8668 29.8215 18.3976 29.373C18.9285 28.9245 19.1773 28.3763 19.1773 27.7118C19.1773 27.0806 18.9119 26.5158 18.3976 26.0506ZM20.2556 17.5785C20.2556 17.3626 20.0234 17.2629 19.5589 17.2629C19.0944 17.2629 18.8621 17.3626 18.8621 17.5785V20.5355C18.8621 20.5355 18.7958 20.6019 18.6797 20.6019H17.4189C17.3359 20.6019 17.2861 20.5853 17.2861 20.5355V17.5785C17.253 17.3626 17.0207 17.2629 16.5894 17.2629C16.1249 17.2629 15.8926 17.3626 15.8926 17.5785V24.4392C15.8926 24.6053 16.1249 24.6884 16.5894 24.6884C17.0041 24.6884 17.2364 24.6053 17.2861 24.4392V21.798C17.2861 21.715 17.3359 21.6651 17.4189 21.6651H18.6797C18.8124 21.6651 18.8621 21.6983 18.8621 21.798V24.4392C18.8621 24.6552 19.111 24.7383 19.6087 24.6884C20.0234 24.6884 20.239 24.6053 20.239 24.4392V17.5785H20.2556ZM12.5748 22.994C12.89 23.1435 13.2881 23.2764 13.736 23.4259C14.2005 23.5588 14.7148 23.6918 15.2788 23.7914C15.4447 23.8247 15.5774 23.7914 15.6936 23.7083C15.7931 23.6252 15.876 23.4924 15.9258 23.3263C15.9756 23.1602 15.959 23.0106 15.9092 22.8943C15.8595 22.7781 15.7599 22.7116 15.6106 22.695C15.0134 22.5621 14.4825 22.4292 14.018 22.2797C13.5701 22.1302 13.1886 21.9807 12.9065 21.8312L13.0558 18.974C13.0393 18.6417 12.8236 18.4757 12.4255 18.4757C12.0273 18.4757 11.8282 18.6252 11.7785 18.9076C11.7785 19.1734 11.7619 19.4557 11.7453 19.7215C11.7453 19.9873 11.7121 20.2697 11.6955 20.5355L11.6126 22.1136C11.4633 22.2631 11.1813 22.4459 10.7831 22.6452C10.385 22.8446 9.87069 23.0604 9.22371 23.293C9.05781 23.3927 8.99146 23.5256 8.99146 23.6917C8.99146 23.7249 8.99146 23.7748 8.99146 23.8412C8.99146 23.8911 9.00804 23.9575 9.04122 24.0073C9.17394 24.3229 9.3896 24.4393 9.72139 24.3728C10.2025 24.2399 10.667 24.0738 11.0983 23.8579C11.5296 23.6585 11.9444 23.426 12.3425 23.1602C12.4254 23.1104 12.4918 23.0438 12.5416 22.994" fill="#231F20"/>
<path d="M31.188 26.1503C31.1548 25.6021 30.8728 25.3363 30.3752 25.3363H25.4647C25.249 25.3363 25.1495 25.519 25.1495 25.9011C25.1495 26.2832 25.249 26.4659 25.4647 26.4659H29.612C29.7448 26.4659 29.7945 26.5157 29.7945 26.5987V29.6221C29.7945 29.7882 30.0268 29.8713 30.4913 29.8713C30.906 29.8713 31.1383 29.7882 31.188 29.6221V26.1503ZM33.3281 20.5355H31.3871C31.3042 20.5355 31.2544 20.5189 31.2544 20.4691V17.6284C31.2544 17.3793 31.0221 17.2464 30.5576 17.2464C30.0931 17.2464 29.8609 17.3626 29.8609 17.6284V24.4226C29.8609 24.6386 30.0931 24.7382 30.5576 24.7382C31.0221 24.7382 31.2544 24.6386 31.2544 24.4226V21.9143C31.2544 21.8312 31.3042 21.7814 31.3871 21.7814H33.3281C33.5437 21.7814 33.6433 21.5654 33.6433 21.1501C33.6433 20.7348 33.5437 20.5189 33.3281 20.5189M27.0407 19.0404C26.9909 18.4922 26.7255 18.1932 26.2278 18.16H22.1468C21.9809 18.16 21.898 18.3427 21.898 18.7248C21.898 19.057 21.9809 19.2232 22.1468 19.2232H25.4813C25.614 19.2232 25.6638 19.273 25.6638 19.356V23.2599C25.6638 23.4758 25.896 23.5755 26.3605 23.5755C26.7919 23.5755 27.0075 23.4758 27.0573 23.2599V19.0404H27.0407ZM17.4355 28.5091C17.1866 28.6919 16.888 28.7915 16.5562 28.7915C16.2244 28.7915 15.9424 28.6919 15.7433 28.5091C15.5277 28.3264 15.4281 28.0607 15.4281 27.7284C15.4281 27.4294 15.5277 27.1636 15.7433 26.9476C15.959 26.7151 16.2244 26.5987 16.5562 26.5987C16.888 26.5987 17.1866 26.7151 17.4355 26.9476C17.6843 27.1802 17.817 27.446 17.817 27.7284C17.817 28.0607 17.6843 28.3264 17.4355 28.5091ZM18.3976 26.0506C17.8668 25.5689 17.2696 25.3363 16.606 25.3363C15.8595 25.3363 15.2291 25.5689 14.748 26.0506C14.2669 26.5324 14.018 27.0972 14.018 27.7118C14.018 28.3763 14.2503 28.9411 14.748 29.373C15.2291 29.8049 15.8429 30.0374 16.606 30.0374C17.2696 30.0374 17.8668 29.8215 18.3976 29.373C18.9285 28.9245 19.1773 28.3763 19.1773 27.7118C19.1773 27.0806 18.9119 26.5158 18.3976 26.0506ZM20.2556 17.5785C20.2556 17.3626 20.0234 17.2629 19.5589 17.2629C19.0944 17.2629 18.8621 17.3626 18.8621 17.5785V20.5355C18.8621 20.5355 18.7958 20.6019 18.6797 20.6019H17.4189C17.3359 20.6019 17.2861 20.5853 17.2861 20.5355V17.5785C17.253 17.3626 17.0207 17.2629 16.5894 17.2629C16.1249 17.2629 15.8926 17.3626 15.8926 17.5785V24.4392C15.8926 24.6053 16.1249 24.6884 16.5894 24.6884C17.0041 24.6884 17.2364 24.6053 17.2861 24.4392V21.798C17.2861 21.715 17.3359 21.6651 17.4189 21.6651H18.6797C18.8124 21.6651 18.8621 21.6983 18.8621 21.798V24.4392C18.8621 24.6552 19.111 24.7383 19.6087 24.6884C20.0234 24.6884 20.239 24.6053 20.239 24.4392V17.5785H20.2556ZM12.5748 22.994C12.89 23.1435 13.2881 23.2764 13.736 23.4259C14.2005 23.5588 14.7148 23.6918 15.2788 23.7914C15.4447 23.8247 15.5774 23.7914 15.6936 23.7083C15.7931 23.6252 15.876 23.4924 15.9258 23.3263C15.9756 23.1602 15.959 23.0106 15.9092 22.8943C15.8595 22.7781 15.7599 22.7116 15.6106 22.695C15.0134 22.5621 14.4825 22.4292 14.018 22.2797C13.5701 22.1302 13.1886 21.9807 12.9065 21.8312L13.0558 18.974C13.0393 18.6417 12.8236 18.4757 12.4255 18.4757C12.0273 18.4757 11.8282 18.6252 11.7785 18.9076C11.7785 19.1734 11.7619 19.4557 11.7453 19.7215C11.7453 19.9873 11.7121 20.2697 11.6955 20.5355L11.6126 22.1136C11.4633 22.2631 11.1813 22.4459 10.7831 22.6452C10.385 22.8446 9.87069 23.0604 9.22371 23.293C9.05781 23.3927 8.99146 23.5256 8.99146 23.6917C8.99146 23.7249 8.99146 23.7748 8.99146 23.8412C8.99146 23.8911 9.00804 23.9575 9.04122 24.0073C9.17394 24.3229 9.3896 24.4393 9.72139 24.3728C10.2025 24.2399 10.667 24.0738 11.0983 23.8579C11.5296 23.6585 11.9444 23.426 12.3425 23.1602C12.4254 23.1104 12.4918 23.0438 12.5416 22.994" stroke="#231F20" stroke-width="0.1" stroke-linecap="round"/>
<path d="M31.188 26.1503C31.1548 25.6021 30.8728 25.3363 30.3752 25.3363H25.4647C25.249 25.3363 25.1495 25.519 25.1495 25.9011C25.1495 26.2832 25.249 26.4659 25.4647 26.4659H29.612C29.7448 26.4659 29.7945 26.5157 29.7945 26.5987V29.6221C29.7945 29.7882 30.0268 29.8713 30.4913 29.8713C30.906 29.8713 31.1383 29.7882 31.188 29.6221V26.1503ZM33.3281 20.5355H31.3871C31.3042 20.5355 31.2544 20.5189 31.2544 20.4691V17.6284C31.2544 17.3793 31.0221 17.2464 30.5576 17.2464C30.0931 17.2464 29.8609 17.3626 29.8609 17.6284V24.4226C29.8609 24.6386 30.0931 24.7382 30.5576 24.7382C31.0221 24.7382 31.2544 24.6386 31.2544 24.4226V21.9143C31.2544 21.8312 31.3042 21.7814 31.3871 21.7814H33.3281C33.5437 21.7814 33.6433 21.5654 33.6433 21.1501C33.6433 20.7348 33.5437 20.5189 33.3281 20.5189V20.5355ZM27.0407 19.0404C26.9909 18.4922 26.7255 18.1932 26.2278 18.16H22.1468C21.9809 18.16 21.898 18.3427 21.898 18.7248C21.898 19.057 21.9809 19.2232 22.1468 19.2232H25.4813C25.614 19.2232 25.6638 19.273 25.6638 19.356V23.2599C25.6638 23.4758 25.896 23.5755 26.3605 23.5755C26.7919 23.5755 27.0075 23.4758 27.0573 23.2599V19.0404H27.0407ZM17.4355 28.5091C17.1866 28.6919 16.888 28.7915 16.5562 28.7915C16.2244 28.7915 15.9424 28.6919 15.7433 28.5091C15.5277 28.3264 15.4281 28.0607 15.4281 27.7284C15.4281 27.4294 15.5277 27.1636 15.7433 26.9476C15.959 26.7151 16.2244 26.5987 16.5562 26.5987C16.888 26.5987 17.1866 26.7151 17.4355 26.9476C17.6843 27.1802 17.817 27.446 17.817 27.7284C17.817 28.0607 17.6843 28.3264 17.4355 28.5091ZM18.3976 26.0506C17.8668 25.5689 17.2696 25.3363 16.606 25.3363C15.8595 25.3363 15.2291 25.5689 14.748 26.0506C14.2669 26.5324 14.018 27.0972 14.018 27.7118C14.018 28.3763 14.2503 28.9411 14.748 29.373C15.2291 29.8049 15.8429 30.0374 16.606 30.0374C17.2696 30.0374 17.8668 29.8215 18.3976 29.373C18.9285 28.9245 19.1773 28.3763 19.1773 27.7118C19.1773 27.0806 18.9119 26.5158 18.3976 26.0506ZM20.2556 17.5785C20.2556 17.3626 20.0234 17.2629 19.5589 17.2629C19.0944 17.2629 18.8621 17.3626 18.8621 17.5785V20.5355C18.8621 20.5355 18.7958 20.6019 18.6797 20.6019H17.4189C17.3359 20.6019 17.2861 20.5853 17.2861 20.5355V17.5785C17.253 17.3626 17.0207 17.2629 16.5894 17.2629C16.1249 17.2629 15.8926 17.3626 15.8926 17.5785V24.4392C15.8926 24.6053 16.1249 24.6884 16.5894 24.6884C17.0041 24.6884 17.2364 24.6053 17.2861 24.4392V21.798C17.2861 21.715 17.3359 21.6651 17.4189 21.6651H18.6797C18.8124 21.6651 18.8621 21.6983 18.8621 21.798V24.4392C18.8621 24.6552 19.111 24.7383 19.6087 24.6884C20.0234 24.6884 20.239 24.6053 20.239 24.4392V17.5785H20.2556ZM12.5748 22.994C12.89 23.1435 13.2881 23.2764 13.736 23.4259C14.2005 23.5588 14.7148 23.6918 15.2788 23.7914C15.4447 23.8247 15.5774 23.7914 15.6936 23.7083C15.7931 23.6252 15.876 23.4924 15.9258 23.3263C15.9756 23.1602 15.959 23.0106 15.9092 22.8943C15.8595 22.7781 15.7599 22.7116 15.6106 22.695C15.0134 22.5621 14.4825 22.4292 14.018 22.2797C13.5701 22.1302 13.1886 21.9807 12.9065 21.8312L13.0558 18.974C13.0393 18.6417 12.8236 18.4757 12.4255 18.4757C12.0273 18.4757 11.8282 18.6252 11.7785 18.9076C11.7785 19.1734 11.7619 19.4557 11.7453 19.7215C11.7453 19.9873 11.7121 20.2697 11.6955 20.5355L11.6126 22.1136C11.4633 22.2631 11.1813 22.4459 10.7831 22.6452C10.385 22.8446 9.87069 23.0604 9.22371 23.293C9.05781 23.3927 8.99146 23.5256 8.99146 23.6917C8.99146 23.7249 8.99146 23.7748 8.99146 23.8412C8.99146 23.8911 9.00804 23.9575 9.04122 24.0073C9.17394 24.3229 9.3896 24.4393 9.72139 24.3728C10.2025 24.2399 10.667 24.0738 11.0983 23.8579C11.5296 23.6585 11.9444 23.426 12.3425 23.1602C12.4254 23.1104 12.4918 23.0438 12.5416 22.994H12.5748Z" stroke="#231F20" stroke-width="0.1" stroke-linecap="round"/>
<path d="M60.5781 0.176198C61.0324 0.117664 61.4481 0.43904 61.5066 0.894013C61.9018 3.97027 60.9123 7.1064 59.5401 9.66555C59.3234 10.0697 58.8205 10.2214 58.4169 10.0044C58.0133 9.78743 57.8618 9.28389 58.0785 8.87974C59.3606 6.48857 60.1959 3.71097 59.8612 1.10598C59.8028 0.651012 60.1237 0.234733 60.5781 0.176198Z" fill="#D2414D"/>
<path d="M52.6146 4.25117C53.0661 4.17397 53.4947 4.47795 53.5718 4.93013C53.6838 5.58717 53.825 6.20993 53.9913 6.72454C54.1323 7.16098 53.8933 7.62926 53.4574 7.77047C53.0215 7.91167 52.5539 7.67233 52.4129 7.23588C52.2142 6.62089 52.0567 5.91482 51.9365 5.2097C51.8594 4.75752 52.163 4.32837 52.6146 4.25117Z" fill="#D2414D"/>
<path d="M66.4351 7.8204C66.7138 8.18445 66.6451 8.70582 66.2815 8.98492C65.8302 9.33137 65.4379 9.70896 65.1055 10.0872C64.8029 10.4316 64.2788 10.4651 63.9349 10.162C63.591 9.85898 63.5575 9.33415 63.8602 8.98978C64.2577 8.53743 64.7281 8.08429 65.2722 7.6666C65.6357 7.3875 66.1564 7.45636 66.4351 7.8204Z" fill="#D2414D"/>
<path d="M67.668 12.9179C68.9559 12.7022 70.4846 12.8147 71.6622 13.6886C72.0302 13.9617 72.1075 14.4819 71.8347 14.8504C71.562 15.219 71.0425 15.2963 70.6745 15.0232C69.994 14.5183 68.9846 14.3816 67.9417 14.5563C66.884 14.7335 66.0309 15.1904 65.6882 15.5833C65.3869 15.9289 64.8629 15.9644 64.5178 15.6627C64.1728 15.3609 64.1373 14.8362 64.4387 14.4907C65.1245 13.7042 66.3949 13.1312 67.668 12.9179Z" fill="#D2414D"/>
<path d="M42.0709 3.83472C42.0833 3.37617 42.4647 3.01454 42.9226 3.027C44.7279 3.07612 46.4214 4.05552 47.6893 5.29604C48.9565 6.5359 49.9195 8.15341 50.1715 9.66769C50.2468 10.1202 49.9416 10.5481 49.4897 10.6235C49.0378 10.6989 48.6105 10.3933 48.5351 9.94078C48.3559 8.86362 47.6184 7.54918 46.5299 6.48419C45.4421 5.41986 44.1246 4.7215 42.8775 4.68757C42.4196 4.6751 42.0585 4.29327 42.0709 3.83472Z" fill="#D2414D"/>
<path d="M42.2545 9.89924C42.4128 9.4688 42.8897 9.24841 43.3196 9.407C44.0192 9.66509 44.6786 10.0203 45.2208 10.4469C45.581 10.7303 45.6436 11.2525 45.3606 11.6132C45.0775 11.9739 44.5561 12.0365 44.1959 11.7531C43.809 11.4488 43.3072 11.1728 42.7461 10.9658C42.3162 10.8072 42.0961 10.3297 42.2545 9.89924Z" fill="#D2414D"/>
<path d="M50.8898 14.9028C51.0541 14.7081 51.2934 14.6217 51.5764 14.6217H57.0177C57.193 14.6217 57.3162 14.7374 57.3985 14.8747C57.4807 15.0119 57.5434 15.2029 57.5944 15.4329C57.597 15.4447 57.5984 15.4568 57.5984 15.4689C57.5984 15.6864 57.569 15.875 57.4894 16.0144C57.4481 16.0867 57.3922 16.1477 57.3195 16.1898C57.2468 16.2318 57.1664 16.2497 57.0841 16.2497H52.4889V16.9307H57.0177C57.1929 16.9307 57.3162 17.0464 57.3985 17.1837C57.4807 17.3209 57.5434 17.5119 57.5944 17.7418C57.597 17.7537 57.5984 17.7658 57.5984 17.7779C57.5984 17.9954 57.569 18.184 57.4894 18.3234C57.4481 18.3958 57.3922 18.4567 57.3195 18.4988C57.2468 18.5408 57.1664 18.5587 57.0841 18.5587H52.4889V18.7943C52.5105 18.9193 52.556 19.0132 52.6206 19.0852C52.6878 19.1601 52.7843 19.2211 52.9202 19.2641C53.1586 19.3386 53.6656 19.3892 54.4962 19.3892C55.4852 19.3892 56.3894 19.2113 57.211 18.8575C57.3303 18.7942 57.4594 18.7717 57.5874 18.8079C57.7149 18.8438 57.8178 18.9313 57.8984 19.0424C58.0468 19.2467 58.1292 19.4629 58.1292 19.6883C58.1292 19.8424 58.1072 19.9826 58.0443 20.0967C57.9772 20.2183 57.8722 20.2946 57.7416 20.3302C57.7322 20.3328 57.7228 20.3345 57.7134 20.3354C57.0413 20.6249 56.2275 20.7944 55.2759 20.8485V22.1966H59.7384C59.7481 22.1966 59.7577 22.1975 59.7672 22.1992C59.9491 22.2313 60.0969 22.322 60.1931 22.4797C60.2843 22.6292 60.319 22.8223 60.319 23.0439L60.3182 23.0604C60.2926 23.3166 60.2397 23.5344 60.1362 23.6844C60.0822 23.7627 60.0119 23.8261 59.9227 23.8631C59.8384 23.8981 59.7486 23.9047 59.6586 23.8911H48.8558C48.6806 23.8911 48.5573 23.7754 48.4751 23.6381C48.3928 23.5009 48.3301 23.3099 48.2791 23.0799C48.2751 23.0621 48.2741 23.0437 48.2762 23.0256C48.3018 22.7944 48.346 22.6006 48.4176 22.4598C48.4903 22.3167 48.6105 22.1966 48.7894 22.1966H53.3847V20.817C52.6918 20.7522 52.1278 20.6244 51.6968 20.4294C51.3665 20.2799 51.1069 20.0877 50.9299 19.847C50.7515 19.6045 50.664 19.3223 50.664 19.0072V15.6683C50.664 15.3576 50.73 15.0922 50.8898 14.9028Z" fill="#D2414D"/>
<path d="M38.7796 18.2251C38.9439 18.0304 39.1831 17.944 39.4662 17.944H44.9075C45.0827 17.944 45.206 18.0597 45.2882 18.1971C45.3705 18.3343 45.4332 18.5253 45.4842 18.7552C45.4868 18.7671 45.4881 18.7792 45.4881 18.7913C45.4881 19.0088 45.4587 19.1974 45.3792 19.3367C45.3379 19.4091 45.282 19.4701 45.2092 19.5121C45.1366 19.5541 45.0562 19.572 44.9739 19.572H40.3786V20.2531H44.9075C45.0827 20.2531 45.2059 20.3687 45.2882 20.5061C45.3705 20.6433 45.4332 20.8342 45.4842 21.0642C45.4868 21.076 45.4881 21.0881 45.4881 21.1002C45.4881 21.3177 45.4587 21.5063 45.3792 21.6457C45.3379 21.7181 45.282 21.7791 45.2093 21.8212C45.1366 21.8632 45.0562 21.8811 44.9739 21.8811H40.3786V22.1166C40.4002 22.2417 40.4458 22.3356 40.5103 22.4076C40.5775 22.4825 40.674 22.5434 40.8099 22.5864C41.0483 22.6609 41.5552 22.7116 42.3859 22.7116C43.3749 22.7116 44.2791 22.5337 45.1007 22.1799C45.22 22.1166 45.3491 22.0941 45.4771 22.1302C45.6046 22.1662 45.7076 22.2537 45.7882 22.3647C45.9366 22.569 46.019 22.7852 46.019 23.0106C46.019 23.1647 45.997 23.305 45.934 23.4191C45.8669 23.5406 45.7619 23.6169 45.6313 23.6526C45.622 23.6552 45.6126 23.6569 45.6032 23.6577C44.9311 23.9472 44.1173 24.1167 43.1656 24.1709V25.519H47.6282C47.6378 25.519 47.6475 25.5198 47.657 25.5215C47.8389 25.5537 47.9866 25.6443 48.0829 25.802C48.1741 25.9515 48.2088 26.1447 48.2088 26.3663L48.208 26.3828C48.1824 26.639 48.1294 26.8568 48.0259 27.0068C47.9719 27.085 47.9017 27.1485 47.8124 27.1855C47.7281 27.2204 47.6384 27.227 47.5484 27.2134H36.7455C36.5704 27.2134 36.4471 27.0978 36.3648 26.9604C36.2826 26.8232 36.2199 26.6323 36.1689 26.4023C36.1649 26.3845 36.1639 26.3661 36.1659 26.3479C36.1916 26.1167 36.2358 25.9229 36.3074 25.7821C36.3801 25.6391 36.5003 25.519 36.6792 25.519H41.2744V24.1394C40.5816 24.0745 40.0175 23.9467 39.5866 23.7518C39.2562 23.6023 38.9966 23.41 38.8196 23.1694C38.6413 22.9269 38.5538 22.6446 38.5538 22.3296V18.9906C38.5538 18.68 38.6197 18.4146 38.7796 18.2251Z" fill="#D2414D"/>
<path d="M50.8299 24.9874C50.7476 24.9874 50.6672 25.0053 50.5949 25.0486C50.5225 25.092 50.4689 25.1546 50.4304 25.2272C50.3568 25.3661 50.3322 25.5537 50.3322 25.7682C50.3322 25.986 50.3618 26.1732 50.4378 26.3114C50.5212 26.4629 50.658 26.549 50.8299 26.549H56.3376C56.3511 26.549 56.3621 26.5498 56.3708 26.5508V29.7883C56.3708 29.8761 56.4023 29.956 56.4619 30.02C56.5178 30.0802 56.5916 30.1195 56.6685 30.1465C56.8203 30.1997 57.03 30.2201 57.2832 30.2201C57.5138 30.2201 57.7099 30.1992 57.8605 30.1465C58.0134 30.0929 58.1451 29.996 58.1897 29.832C58.1936 29.8177 58.1956 29.8031 58.1956 29.7883V26.034L58.195 26.0198C58.1682 25.7074 58.0771 25.4442 57.8948 25.2591C57.7099 25.0713 57.4547 24.9874 57.1505 24.9874H50.8299Z" fill="#D2414D"/>
<path d="M38.4843 28.3697C38.557 28.3276 38.6373 28.3098 38.7197 28.3098H45.0568C45.361 28.3098 45.6163 28.3937 45.8012 28.5815C45.9834 28.7666 46.0746 29.0298 46.1013 29.3422C46.1039 29.3722 46.0982 29.4021 46.0854 29.4288V33.1106C46.0854 33.1254 46.0834 33.1401 46.0795 33.1544C46.0349 33.3183 45.9032 33.4153 45.7503 33.4688C45.5997 33.5216 45.4036 33.5425 45.1729 33.5425C44.9198 33.5425 44.71 33.522 44.5583 33.4688C44.4814 33.4419 44.4075 33.4026 44.3516 33.3424C44.2921 33.2783 44.2605 33.1985 44.2605 33.1106V29.8732C44.2518 29.8721 44.2409 29.8714 44.2273 29.8714H38.7197C38.6373 29.8714 38.557 29.8535 38.4843 29.8114C38.4116 29.7694 38.3556 29.7084 38.3143 29.636C38.2348 29.4966 38.2054 29.308 38.2054 29.0905C38.2054 28.873 38.2348 28.6844 38.3144 28.545C38.3556 28.4727 38.4116 28.4117 38.4843 28.3697Z" fill="#D2414D"/>
</svg>
