<svg width="40" height="40" viewBox="0 0 40 40" fill="none" xmlns="http://www.w3.org/2000/svg">
<path d="M24.131 27.9756H22.0755C21.8711 27.9756 21.675 27.895 21.5305 27.7515C21.3859 27.608 21.3047 27.4134 21.3047 27.2105C21.3047 27.0076 21.3859 26.8129 21.5305 26.6694C21.675 26.526 21.8711 26.4453 22.0755 26.4453H24.131C24.1991 26.4453 24.2645 26.4185 24.3127 26.3706C24.3609 26.3228 24.3879 26.2579 24.3879 26.1903V24.1499C24.3879 23.947 24.4691 23.7524 24.6137 23.6089C24.7583 23.4654 24.9543 23.3848 25.1587 23.3848C25.3632 23.3848 25.5592 23.4654 25.7038 23.6089C25.8484 23.7524 25.9296 23.947 25.9296 24.1499V26.1903C25.9269 26.663 25.7365 27.1155 25.3998 27.4498C25.0631 27.784 24.6072 27.973 24.131 27.9756Z" fill="#FFE199"/>
<path d="M20.5351 28.9961C21.8122 28.9961 22.8475 27.9684 22.8475 26.7007C22.8475 25.433 21.8122 24.4053 20.5351 24.4053C19.258 24.4053 18.2227 25.433 18.2227 26.7007C18.2227 27.9684 19.258 28.9961 20.5351 28.9961Z" fill="#1E78FF"/>
<path d="M28.2422 18.702C28.0396 18.702 27.845 18.6228 27.7008 18.4815C27.5565 18.3402 27.4741 18.1482 27.4714 17.9471C27.4714 15.9854 26.6864 14.1041 25.289 12.717C23.8916 11.33 21.9964 10.5507 20.0202 10.5507C18.044 10.5507 16.1488 11.33 14.7514 12.717C13.3541 14.1041 12.569 15.9854 12.569 17.9471C12.5705 18.0484 12.5512 18.1489 12.5122 18.2425C12.4732 18.3361 12.4154 18.4208 12.3423 18.4915C12.2691 18.5622 12.1823 18.6173 12.087 18.6535C11.9917 18.6897 11.8899 18.7062 11.7879 18.702C11.6867 18.7007 11.5867 18.6796 11.4937 18.6399C11.4007 18.6002 11.3165 18.5427 11.2459 18.4707C11.1753 18.3987 11.1196 18.3136 11.0821 18.2203C11.0446 18.1269 11.0261 18.0272 11.0274 17.9267C11.0274 15.5592 11.9749 13.2886 13.6613 11.6146C15.3478 9.94049 17.6352 9 20.0202 9C22.4053 9 24.6926 9.94049 26.3791 11.6146C28.0656 13.2886 29.013 15.5592 29.013 17.9267C29.0144 18.0272 28.9958 18.1269 28.9583 18.2203C28.9208 18.3136 28.8652 18.3987 28.7945 18.4707C28.7239 18.5427 28.6397 18.6002 28.5467 18.6399C28.4537 18.6796 28.3537 18.7007 28.2525 18.702H28.2422Z" fill="#FFE199"/>
<path d="M11.5667 18H10.8C10.19 18 9.60499 18.2371 9.17365 18.659C8.74232 19.081 8.5 19.6533 8.5 20.25V21.75C8.5 22.3467 8.74232 22.919 9.17365 23.341C9.60499 23.7629 10.19 24 10.8 24H11.5667C11.77 24 11.965 23.921 12.1088 23.7803C12.2526 23.6397 12.3333 23.4489 12.3333 23.25V18.75C12.3333 18.5511 12.2526 18.3603 12.1088 18.2197C11.965 18.079 11.77 18 11.5667 18ZM29.2 18H28.4333C28.23 18 28.035 18.079 27.8912 18.2197C27.7474 18.3603 27.6667 18.5511 27.6667 18.75V23.25C27.6667 23.4489 27.7474 23.6397 27.8912 23.7803C28.035 23.921 28.23 24 28.4333 24H29.2C29.81 24 30.395 23.7629 30.8263 23.341C31.2577 22.919 31.5 22.3467 31.5 21.75V20.25C31.5 19.6533 31.2577 19.081 30.8263 18.659C30.395 18.2371 29.81 18 29.2 18Z" fill="#1E78FF"/>
<path d="M27.8315 17.0082L26.6804 16.6817C26.4116 16.6047 26.1284 16.5914 25.8536 16.6428C25.5787 16.6941 25.3198 16.8088 25.0976 16.9776C24.8758 17.1422 24.696 17.3564 24.5728 17.6027C24.4496 17.849 24.3865 18.1206 24.3885 18.3956V23.8639C24.3868 24.1399 24.4512 24.4123 24.5763 24.6588C24.7013 24.9054 24.8835 25.1189 25.1079 25.2819C25.4007 25.5129 25.7618 25.6419 26.1357 25.6492C26.3062 25.6513 26.4761 25.6272 26.6393 25.5778L27.7287 25.2717C28.3689 25.1425 28.9446 24.7978 29.3585 24.2959C29.7723 23.7941 29.9989 23.1658 30 22.5172V19.7015C29.9957 19.076 29.7794 18.4703 29.386 17.9817C28.9927 17.4931 28.4451 17.1502 27.8315 17.0082ZM14.9435 16.9368C14.7213 16.768 14.4624 16.6533 14.1876 16.602C13.9127 16.5506 13.6295 16.5639 13.3607 16.6409L12.2713 16.947C11.6311 17.0762 11.0554 17.4209 10.6415 17.9228C10.2277 18.4246 10.0011 19.0529 10 19.7015V22.4764C10.0065 23.1074 10.2286 23.7176 10.63 24.2069C11.0315 24.6962 11.5884 25.0357 12.2097 25.1697L13.3607 25.4962C13.5239 25.5456 13.6938 25.5697 13.8643 25.5676C14.2382 25.5603 14.5993 25.4312 14.8921 25.2003C15.1165 25.0373 15.2987 24.8238 15.4237 24.5772C15.5488 24.3307 15.6132 24.0583 15.6115 23.7822V18.3548C15.6183 18.0833 15.5616 17.8138 15.4456 17.5677C15.3297 17.3217 15.1578 17.1057 14.9435 16.9368Z" fill="#FFB400"/>
<path d="M36 15C36.634 15.7873 37.137 16.7225 37.4802 17.752C37.8233 18.7816 38 19.8853 38 21C38 22.1147 37.8233 23.2184 37.4802 24.248C37.137 25.2775 36.634 26.2127 36 27" stroke="#1E78FF" stroke-width="1.5" stroke-linecap="round" stroke-linejoin="round"/>
<path d="M34 18C34.317 18.3934 34.5685 18.8609 34.7401 19.3758C34.9117 19.8906 35 20.4425 35 21C35 21.5575 34.9117 22.1094 34.7401 22.6242C34.5685 23.139 34.317 23.6066 34 24" stroke="#5C9DFF" stroke-width="1.5" stroke-linecap="round" stroke-linejoin="round"/>
<path d="M4 27C3.36602 26.2127 2.86303 25.2775 2.51984 24.248C2.17665 23.2184 2 22.1147 2 21C2 19.8853 2.17665 18.7816 2.51984 17.752C2.86303 16.7225 3.36602 15.7873 4 15" stroke="#1E78FF" stroke-width="1.5" stroke-linecap="round" stroke-linejoin="round"/>
<path d="M6 24C5.68304 23.6066 5.43155 23.1391 5.25994 22.6242C5.08834 22.1094 5 21.5575 5 21C5 20.4425 5.08834 19.8906 5.25994 19.3758C5.43155 18.861 5.68304 18.3934 6 18" stroke="#5C9DFF" stroke-width="1.5" stroke-linecap="round" stroke-linejoin="round"/>
</svg>
