<svg width="56" height="56" viewBox="0 0 56 56" fill="none" xmlns="http://www.w3.org/2000/svg">
<path d="M33.783 39.1655H30.9053C30.6191 39.1655 30.3446 39.0526 30.1422 38.8517C29.9399 38.6509 29.8262 38.3784 29.8262 38.0943C29.8262 37.8102 29.9399 37.5377 30.1422 37.3368C30.3446 37.1359 30.6191 37.0231 30.9053 37.0231H33.783C33.8784 37.0231 33.9699 36.9855 34.0374 36.9185C34.1048 36.8515 34.1427 36.7607 34.1427 36.666V33.8095C34.1427 33.5254 34.2564 33.2529 34.4588 33.052C34.6612 32.8511 34.9357 32.7383 35.2219 32.7383C35.5081 32.7383 35.7825 32.8511 35.9849 33.052C36.1873 33.2529 36.301 33.5254 36.301 33.8095V36.666C36.2972 37.3278 36.0307 37.9613 35.5593 38.4293C35.0879 38.8972 34.4497 39.1617 33.783 39.1655Z" fill="#FFE199"/>
<path d="M28.7491 40.5942C30.5371 40.5942 31.9865 39.1554 31.9865 37.3806C31.9865 35.6058 30.5371 34.167 28.7491 34.167C26.9612 34.167 25.5117 35.6058 25.5117 37.3806C25.5117 39.1554 26.9612 40.5942 28.7491 40.5942Z" fill="#1E78FF"/>
<path d="M39.5403 26.1825C39.2565 26.1825 38.9842 26.0716 38.7823 25.8738C38.5803 25.676 38.4649 25.4072 38.4611 25.1255C38.4611 22.3792 37.3621 19.7454 35.4058 17.8035C33.4495 15.8615 30.7961 14.7706 28.0295 14.7706C25.2628 14.7706 22.6095 15.8615 20.6532 17.8035C18.6969 19.7454 17.5978 22.3792 17.5978 25.1255C17.5999 25.2673 17.5728 25.4081 17.5182 25.5391C17.4636 25.6702 17.3827 25.7888 17.2803 25.8877C17.178 25.9867 17.0564 26.0638 16.9229 26.1145C16.7895 26.1652 16.647 26.1883 16.5043 26.1825C16.3626 26.1806 16.2226 26.151 16.0924 26.0955C15.9622 26.0399 15.8443 25.9594 15.7454 25.8586C15.6465 25.7578 15.5686 25.6387 15.5162 25.508C15.4637 25.3773 15.4376 25.2376 15.4396 25.097C15.4396 21.7825 16.766 18.6037 19.1271 16.26C21.4881 13.9163 24.6904 12.5996 28.0295 12.5996C31.3685 12.5996 34.5708 13.9163 36.9319 16.26C39.293 18.6037 40.6194 21.7825 40.6194 25.097C40.6213 25.2376 40.5953 25.3773 40.5428 25.508C40.4903 25.6387 40.4124 25.7578 40.3135 25.8586C40.2147 25.9594 40.0968 26.0399 39.9666 26.0955C39.8363 26.151 39.6964 26.1806 39.5547 26.1825H39.5403Z" fill="#FFE199"/>
<path d="M16.1937 25.1992H15.1204C14.2664 25.1992 13.4474 25.5311 12.8435 26.1218C12.2396 26.7126 11.9004 27.5138 11.9004 28.3492V30.4492C11.9004 31.2847 12.2396 32.0859 12.8435 32.6766C13.4474 33.2673 14.2664 33.5992 15.1204 33.5992H16.1937C16.4784 33.5992 16.7514 33.4886 16.9527 33.2917C17.154 33.0948 17.2671 32.8277 17.2671 32.5492V26.2492C17.2671 25.9707 17.154 25.7037 16.9527 25.5068C16.7514 25.3098 16.4784 25.1992 16.1937 25.1992ZM40.8804 25.1992H39.8071C39.5224 25.1992 39.2494 25.3098 39.0481 25.5068C38.8468 25.7037 38.7337 25.9707 38.7337 26.2492V32.5492C38.7337 32.8277 38.8468 33.0948 39.0481 33.2917C39.2494 33.4886 39.5224 33.5992 39.8071 33.5992H40.8804C41.7344 33.5992 42.5534 33.2673 43.1573 32.6766C43.7611 32.0859 44.1004 31.2847 44.1004 30.4492V28.3492C44.1004 27.5138 43.7611 26.7126 43.1573 26.1218C42.5534 25.5311 41.7344 25.1992 40.8804 25.1992Z" fill="#1E78FF"/>
<path d="M38.964 23.8118L37.3525 23.3548C36.9763 23.247 36.5798 23.2283 36.195 23.3003C35.8101 23.3722 35.4477 23.5327 35.1367 23.769C34.8261 23.9995 34.5744 24.2993 34.4019 24.6442C34.2295 24.989 34.1411 25.3693 34.1439 25.7543V33.4098C34.1416 33.7962 34.2317 34.1777 34.4068 34.5228C34.5819 34.8679 34.837 35.1669 35.1511 35.3951C35.561 35.7184 36.0665 35.899 36.5899 35.9093C36.8287 35.9122 37.0665 35.8785 37.295 35.8093L38.8201 35.3808C39.7165 35.1999 40.5225 34.7173 41.1018 34.0147C41.6812 33.3121 41.9985 32.4325 42 31.5245V27.5825C41.994 26.7069 41.6912 25.8588 41.1405 25.1748C40.5897 24.4908 39.8231 24.0107 38.964 23.8118ZM20.9209 23.7119C20.6099 23.4756 20.2474 23.3151 19.8626 23.2431C19.4777 23.1712 19.0813 23.1899 18.705 23.2977L17.1799 23.7261C16.2835 23.9071 15.4775 24.3896 14.8982 25.0922C14.3188 25.7949 14.0015 26.6745 14 27.5825V31.4674C14.009 32.3508 14.32 33.205 14.8821 33.89C15.4441 34.5751 16.2238 35.0503 17.0935 35.238L18.705 35.695C18.9335 35.7642 19.1713 35.798 19.4101 35.795C19.9335 35.7848 20.439 35.6041 20.8489 35.2808C21.1631 35.0526 21.4181 34.7536 21.5932 34.4085C21.7683 34.0634 21.8584 33.6819 21.8561 33.2955V25.6971C21.8657 25.3169 21.7862 24.9397 21.6239 24.5952C21.4616 24.2507 21.2209 23.9483 20.9209 23.7119Z" fill="#FFB400"/>
</svg>
