<svg width="95" height="47" viewBox="0 0 95 47" fill="none" xmlns="http://www.w3.org/2000/svg">
<g clip-path="url(#clip0_9090_2989)">
<path fill-rule="evenodd" clip-rule="evenodd" d="M70.5462 9.38409C75.6291 16.0698 74.3297 25.6101 67.6441 30.693C57.5331 38.3799 46.2235 41.0198 38.1605 41.906C34.0358 42.3594 30.4739 42.386 27.8959 42.2959C26.5993 42.2506 25.53 42.175 24.7377 42.1046C24.341 42.0693 24.0119 42.0351 23.7566 42.0063C23.6288 41.9919 23.5194 41.9789 23.4289 41.9677L23.3075 41.9523L23.2577 41.9458L23.225 41.9415C23.22 41.9408 23.2151 41.9401 25.2336 26.9403L24.2244 34.4402L23.2151 41.9401C14.8917 40.82 9.05221 33.1646 10.1723 24.8411C11.2877 16.5528 18.8835 10.7275 27.1662 11.7845C27.199 11.7882 27.2895 11.798 27.4328 11.8107C27.7325 11.8374 28.255 11.8764 28.9575 11.901C30.3779 11.9506 32.444 11.9377 34.8377 11.6746C39.8116 11.1279 45.1007 9.62685 49.2373 6.48194C55.923 1.39907 65.4633 2.6984 70.5462 9.38409Z" fill="#F287B6"/>
<path d="M26.9345 17.057H35.4545V19.277H29.7345V20.477H35.0745V22.637H29.7345V23.857C32.4945 23.837 34.3345 23.737 36.3945 23.377L36.6745 25.557C34.2545 25.977 32.0545 26.057 28.4545 26.057H26.9345V17.057ZM28.7345 33.937V27.357H40.5545V33.937H28.7345ZM31.4945 31.737H37.8345V29.537H31.4945V31.737ZM37.7745 26.597V16.057H40.5545V20.217H42.9145V22.517H40.5545V26.597H37.7745ZM45.615 17.077H58.255V18.697C58.255 20.397 58.255 22.237 57.815 24.757H60.115V27.037H53.275V34.157H50.455V27.037H43.795V24.757H55.035C55.435 22.557 55.495 20.837 55.495 19.317H45.615V17.077Z" fill="#7F3394"/>
<path d="M23.1377 6.679C24.4298 6.679 25.4772 5.63157 25.4772 4.3395C25.4772 3.04743 24.4298 2 23.1377 2C21.8456 2 20.7982 3.04743 20.7982 4.3395C20.7982 5.63157 21.8456 6.679 23.1377 6.679Z" fill="#7F3394"/>
<path d="M14.5751 8.55009C15.8672 8.55009 16.9146 7.50266 16.9146 6.21059C16.9146 4.91852 15.8672 3.87109 14.5751 3.87109C13.283 3.87109 12.2356 4.91852 12.2356 6.21059C12.2356 7.50266 13.283 8.55009 14.5751 8.55009Z" fill="#7F3394"/>
<path d="M7.53322 13.7679C8.82529 13.7679 9.87272 12.7204 9.87272 11.4284C9.87272 10.1363 8.82529 9.08887 7.53322 9.08887C6.24115 9.08887 5.19373 10.1363 5.19373 11.4284C5.19373 12.7204 6.24115 13.7679 7.53322 13.7679Z" fill="#7F3394"/>
<path d="M3.2051 21.3714C4.49717 21.3714 5.5446 20.324 5.5446 19.0319C5.5446 17.7398 4.49717 16.6924 3.2051 16.6924C1.91303 16.6924 0.865601 17.7398 0.865601 19.0319C0.865601 20.324 1.91303 21.3714 3.2051 21.3714Z" fill="#7F3394"/>
<path d="M2.3395 30.097C3.63157 30.097 4.679 29.0495 4.679 27.7575C4.679 26.4654 3.63157 25.418 2.3395 25.418C1.04743 25.418 0 26.4654 0 27.7575C0 29.0495 1.04743 30.097 2.3395 30.097Z" fill="#7F3394"/>
<path d="M5.10012 38.4261C6.39219 38.4261 7.43962 37.3786 7.43962 36.0866C7.43962 34.7945 6.39219 33.7471 5.10012 33.7471C3.80805 33.7471 2.76062 34.7945 2.76062 36.0866C2.76062 37.3786 3.80805 38.4261 5.10012 38.4261Z" fill="#7F3394"/>
</g>
<path d="M90.7263 10.328V36.716L85.8303 36.644V15.404L80.7183 17.708L79.0263 13.46L85.8663 10.328H90.7263Z" fill="#E54D90"/>
<defs>
<clipPath id="clip0_9090_2989">
<rect width="73.6942" height="43" fill="white" transform="translate(0 2)"/>
</clipPath>
</defs>
</svg>
