<svg width="44" height="44" viewBox="0 0 44 44" fill="none" xmlns="http://www.w3.org/2000/svg">
<path d="M21.5044 28.2182C21.1444 28.2182 20.8624 28.1402 20.6584 27.9842C20.4664 27.8162 20.3704 27.5762 20.3704 27.2642C20.3704 27.0242 20.4004 26.7242 20.4604 26.3642C20.5204 25.9922 20.5744 25.6922 20.6224 25.4642L22.3684 17.1122C22.3684 17.1122 22.3744 17.0522 22.3864 16.9322C22.4104 16.8122 22.4224 16.6802 22.4224 16.5362C22.4224 16.4162 22.3864 16.2962 22.3144 16.1762C22.2544 16.0562 22.1044 15.9962 21.8644 15.9962C21.7084 15.9962 21.5644 16.0022 21.4324 16.0142C21.3124 16.0262 21.2524 16.0322 21.2524 16.0322V15.5642L23.7364 15.3662H24.1324L22.0444 25.8962C22.0204 26.0402 21.9964 26.1902 21.9724 26.3462C21.9604 26.4902 21.9544 26.5922 21.9544 26.6522C21.9544 26.7722 21.9844 26.8622 22.0444 26.9222C22.1044 26.9702 22.1884 26.9942 22.2964 26.9942C22.6084 26.9942 22.8784 26.8802 23.1064 26.6522C23.3344 26.4122 23.5204 26.2142 23.6644 26.0582L24.0244 26.3282C23.8204 26.6162 23.5984 26.9102 23.3584 27.2102C23.1184 27.4982 22.8484 27.7382 22.5484 27.9302C22.2484 28.1222 21.9004 28.2182 21.5044 28.2182Z" fill="#232426"/>
</svg>
