<svg width="44" height="44" viewBox="0 0 44 44" fill="none" xmlns="http://www.w3.org/2000/svg">
<path d="M18.7509 30.05C18.1749 30.05 17.7669 29.912 17.5269 29.636C17.2749 29.36 17.1489 29.066 17.1489 28.754C17.1489 28.502 17.2149 28.292 17.3469 28.124C17.4669 27.956 17.6409 27.872 17.8689 27.872C18.1449 27.872 18.3309 27.95 18.4269 28.106C18.5229 28.274 18.5829 28.46 18.6069 28.664C18.6309 28.88 18.6669 29.066 18.7149 29.222C18.7629 29.39 18.8709 29.474 19.0389 29.474C19.2309 29.474 19.3989 29.372 19.5429 29.168C19.6989 28.964 19.8369 28.694 19.9569 28.358C20.0769 28.034 20.1789 27.68 20.2629 27.296C20.3589 26.924 20.4369 26.564 20.4969 26.216C20.5689 25.868 20.6229 25.574 20.6589 25.334L21.9009 17.882C21.9969 17.294 22.1109 16.748 22.2429 16.244C22.3749 15.728 22.5549 15.272 22.7829 14.876C22.9389 14.588 23.1309 14.318 23.3589 14.066C23.5989 13.814 23.8929 13.61 24.2409 13.454C24.5889 13.286 25.0209 13.202 25.5369 13.202C25.9089 13.202 26.2209 13.262 26.4729 13.382C26.7249 13.49 26.9169 13.64 27.0489 13.832C27.1809 14.024 27.2469 14.252 27.2469 14.516C27.2469 14.78 27.1749 14.978 27.0309 15.11C26.8869 15.242 26.7189 15.308 26.5269 15.308C26.2869 15.308 26.1129 15.242 26.0049 15.11C25.8969 14.966 25.8309 14.798 25.8069 14.606C25.7709 14.378 25.7229 14.174 25.6629 13.994C25.6149 13.814 25.4829 13.724 25.2669 13.724C24.8109 13.724 24.4509 13.964 24.1869 14.444C23.9229 14.924 23.7249 15.548 23.5929 16.316L22.2609 24.47C22.2129 24.782 22.1349 25.172 22.0269 25.64C21.9309 26.108 21.7929 26.594 21.6129 27.098C21.4449 27.614 21.2289 28.094 20.9649 28.538C20.7129 28.982 20.4009 29.342 20.0289 29.618C19.6689 29.906 19.2429 30.05 18.7509 30.05ZM24.9789 18.332H20.3169L20.3889 17.594H25.0869L24.9789 18.332Z" fill="black"/>
</svg>
