<svg width="44" height="44" viewBox="0 0 44 44" fill="none" xmlns="http://www.w3.org/2000/svg">
<path d="M18.7412 30.5039C18.1652 30.5039 17.7512 30.3599 17.4992 30.0719C17.2472 29.7959 17.1212 29.4899 17.1212 29.1539C17.1212 28.9619 17.1812 28.7759 17.3012 28.5959C17.4092 28.4159 17.5892 28.3259 17.8412 28.3259C18.0932 28.3259 18.2672 28.4039 18.3632 28.5599C18.4592 28.7279 18.5252 28.9139 18.5612 29.1179C18.5972 29.3219 18.6452 29.5019 18.7052 29.6579C18.7532 29.8259 18.8672 29.9099 19.0472 29.9099C19.2272 29.9099 19.3952 29.7959 19.5512 29.5679C19.7192 29.3399 19.8692 29.0459 20.0012 28.6859C20.1452 28.3379 20.2652 27.9599 20.3612 27.5519C20.4692 27.1559 20.5592 26.7839 20.6312 26.4359C20.7152 26.0759 20.7752 25.7879 20.8112 25.5719L21.9092 19.6139C21.9092 19.6139 21.9152 19.5599 21.9272 19.4519C21.9512 19.3439 21.9632 19.2119 21.9632 19.0559C21.9632 18.9359 21.9272 18.8219 21.8552 18.7139C21.7832 18.5939 21.6272 18.5339 21.3872 18.5339C21.2312 18.5339 21.0872 18.5399 20.9552 18.5519C20.8352 18.5639 20.7752 18.5699 20.7752 18.5699V18.0839L23.2952 17.8859H23.6912L22.4312 24.8699C22.3712 25.2179 22.2812 25.6319 22.1612 26.1119C22.0532 26.5919 21.9032 27.0839 21.7112 27.5879C21.5192 28.1039 21.2852 28.5779 21.0092 29.0099C20.7452 29.4539 20.4212 29.8139 20.0372 30.0899C19.6652 30.3659 19.2332 30.5039 18.7412 30.5039ZM23.1872 16.4279C22.8872 16.4279 22.6472 16.3499 22.4672 16.1939C22.2992 16.0259 22.2152 15.7859 22.2152 15.4739C22.2152 15.1619 22.2992 14.9219 22.4672 14.7539C22.6472 14.5739 22.8872 14.4839 23.1872 14.4839C23.4872 14.4839 23.7212 14.5799 23.8892 14.7719C24.0692 14.9519 24.1592 15.1859 24.1592 15.4739C24.1592 15.7739 24.0692 16.0079 23.8892 16.1759C23.7212 16.3439 23.4872 16.4279 23.1872 16.4279Z" fill="#232426"/>
</svg>
