<svg width="44" height="44" viewBox="0 0 44 44" fill="none" xmlns="http://www.w3.org/2000/svg">
<path d="M21.6507 26.6519C21.0867 26.6519 20.6307 26.5859 20.2827 26.4539C19.9467 26.3099 19.7127 26.2139 19.5807 26.1659H19.5267L19.0947 26.6519H18.6987L19.1667 23.6459H19.6167C19.7127 24.4259 19.8927 25.0199 20.1567 25.4279C20.4327 25.8359 20.8767 26.0399 21.4887 26.0399C21.9087 26.0399 22.2447 25.9379 22.4967 25.7339C22.7607 25.5299 22.8927 25.1939 22.8927 24.7259C22.8927 24.2339 22.7547 23.8199 22.4787 23.4839C22.2147 23.1359 21.9087 22.7999 21.5607 22.4759C21.3207 22.2359 21.0747 22.0019 20.8227 21.7739C20.5827 21.5459 20.3787 21.2939 20.2107 21.0179C20.0547 20.7299 19.9767 20.3999 19.9767 20.0279C19.9767 19.4159 20.1807 18.8999 20.5887 18.4799C20.9967 18.0479 21.6087 17.8319 22.4247 17.8319C22.9047 17.8319 23.3007 17.8979 23.6127 18.0299C23.9367 18.1619 24.1527 18.2579 24.2607 18.3179H24.3147L24.7827 17.8319H25.1247L24.7107 20.6399H24.2787C24.2547 19.9439 24.0927 19.3919 23.7927 18.9839C23.5047 18.5759 23.0967 18.3719 22.5687 18.3719C22.1007 18.3719 21.7647 18.4979 21.5607 18.7499C21.3567 19.0019 21.2547 19.2599 21.2547 19.5239C21.2547 19.7759 21.3387 20.0219 21.5067 20.2619C21.6867 20.4899 21.9087 20.7299 22.1727 20.9819C22.4367 21.2219 22.7007 21.4859 22.9647 21.7739C23.3487 22.1819 23.6787 22.5839 23.9547 22.9799C24.2427 23.3639 24.3867 23.8439 24.3867 24.4199C24.3867 24.7679 24.2967 25.1159 24.1167 25.4639C23.9487 25.7999 23.6667 26.0819 23.2707 26.3099C22.8747 26.5379 22.3347 26.6519 21.6507 26.6519Z" fill="#232426"/>
</svg>
