<svg width="44" height="44" viewBox="0 0 44 44" fill="none" xmlns="http://www.w3.org/2000/svg">
<path d="M21.0249 28.2002H20.1429C20.1069 27.2882 20.0649 26.4602 20.0169 25.7162C19.9689 24.9722 19.9089 24.2522 19.8369 23.5562C19.7649 22.8482 19.6749 22.1042 19.5669 21.3242C19.5189 20.9042 19.4409 20.6222 19.3329 20.4782C19.2369 20.3342 19.0389 20.2622 18.7389 20.2622C18.5949 20.2622 18.4029 20.2802 18.1629 20.3162V19.7582L20.5209 19.4702H20.9529C21.0849 20.6222 21.1929 21.8042 21.2769 23.0162C21.3729 24.2282 21.4389 25.3982 21.4749 26.5262L21.4389 27.1562H21.4749C22.0389 26.7002 22.5549 26.1962 23.0229 25.6442C23.5029 25.0922 23.8809 24.5222 24.1569 23.9342C24.4449 23.3462 24.5889 22.7762 24.5889 22.2242C24.5889 21.9482 24.5409 21.7262 24.4449 21.5582C24.3609 21.3902 24.2589 21.2462 24.1389 21.1262C24.0189 21.0062 23.9109 20.8802 23.8149 20.7482C23.7309 20.6162 23.6889 20.4422 23.6889 20.2262C23.6889 19.9502 23.7669 19.7522 23.9229 19.6322C24.0909 19.5002 24.2829 19.4342 24.4989 19.4342C24.7989 19.4342 25.0329 19.5302 25.2009 19.7222C25.3689 19.9022 25.4829 20.1242 25.5429 20.3882C25.6149 20.6402 25.6509 20.8862 25.6509 21.1262C25.6509 21.8822 25.5249 22.6022 25.2729 23.2862C25.0209 23.9702 24.6789 24.6182 24.2469 25.2302C23.8149 25.8302 23.3229 26.3822 22.7709 26.8862C22.2189 27.3782 21.6369 27.8162 21.0249 28.2002Z" fill="#232426"/>
</svg>
