<svg width="44" height="44" viewBox="0 0 44 44" fill="none" xmlns="http://www.w3.org/2000/svg">
<path d="M21.6202 26.234C21.0322 26.234 20.5402 26.102 20.1442 25.838C19.7482 25.562 19.4482 25.184 19.2442 24.704C19.0402 24.224 18.9382 23.654 18.9382 22.994C18.9382 22.226 19.0582 21.506 19.2982 20.834C19.5502 20.15 19.8862 19.55 20.3062 19.034C20.7382 18.518 21.2362 18.116 21.8002 17.828C22.3642 17.528 22.9582 17.378 23.5822 17.378C24.1462 17.378 24.6262 17.51 25.0222 17.774C25.4182 18.038 25.6162 18.464 25.6162 19.052C25.6162 19.412 25.5322 19.718 25.3642 19.97C25.1962 20.222 24.9442 20.348 24.6082 20.348C24.3922 20.348 24.2242 20.294 24.1042 20.186C23.9842 20.066 23.9242 19.91 23.9242 19.718C23.9242 19.478 23.9782 19.244 24.0862 19.016C24.2062 18.788 24.2662 18.602 24.2662 18.458C24.2662 18.326 24.1882 18.212 24.0322 18.116C23.8882 18.02 23.6782 17.972 23.4022 17.972C22.9222 17.972 22.4962 18.116 22.1242 18.404C21.7642 18.692 21.4582 19.076 21.2062 19.556C20.9542 20.024 20.7622 20.534 20.6302 21.086C20.4982 21.638 20.4322 22.178 20.4322 22.706C20.4322 23.234 20.4982 23.666 20.6302 24.002C20.7742 24.338 20.9902 24.584 21.2782 24.74C21.5662 24.896 21.9322 24.974 22.3762 24.974C22.9642 24.974 23.4442 24.86 23.8162 24.632C24.2002 24.404 24.5242 24.122 24.7882 23.786L25.0942 24.056C24.8542 24.428 24.5662 24.782 24.2302 25.118C23.8942 25.442 23.5102 25.712 23.0782 25.928C22.6462 26.132 22.1602 26.234 21.6202 26.234Z" fill="black"/>
</svg>
