<svg width="44" height="44" viewBox="0 0 44 44" fill="none" xmlns="http://www.w3.org/2000/svg">
<path d="M20.0289 26.216C19.4049 26.216 18.8709 25.976 18.4269 25.496C17.9829 25.016 17.7609 24.23 17.7609 23.138C17.7609 22.37 17.8749 21.644 18.1029 20.96C18.3429 20.264 18.6669 19.646 19.0749 19.106C19.4949 18.566 19.9749 18.146 20.5149 17.846C21.0669 17.534 21.6549 17.378 22.2789 17.378C22.6749 17.378 23.0289 17.444 23.3409 17.576C23.6649 17.696 23.9289 17.87 24.1329 18.098H24.1869L24.7629 15.074C24.7629 15.074 24.7689 15.008 24.7809 14.876C24.8049 14.744 24.8169 14.618 24.8169 14.498C24.8169 14.342 24.7809 14.21 24.7089 14.102C24.6369 13.994 24.4629 13.94 24.1869 13.94C24.0789 13.94 23.9589 13.946 23.8269 13.958C23.7069 13.97 23.6469 13.976 23.6469 13.976V13.508L26.1129 13.31H26.5089L24.5109 23.822C24.5109 23.822 24.4929 23.918 24.4569 24.11C24.4329 24.302 24.4209 24.458 24.4209 24.578C24.4209 24.698 24.4449 24.788 24.4929 24.848C24.5529 24.896 24.6429 24.92 24.7629 24.92C25.0509 24.92 25.3089 24.806 25.5369 24.578C25.7769 24.35 25.9569 24.152 26.0769 23.984L26.4369 24.254C26.2329 24.542 26.0169 24.836 25.7889 25.136C25.5609 25.436 25.2969 25.688 24.9969 25.892C24.7089 26.084 24.3669 26.18 23.9709 26.18C23.6229 26.18 23.3589 26.096 23.1789 25.928C22.9989 25.748 22.9089 25.52 22.9089 25.244C22.9089 25.136 22.9209 25.01 22.9449 24.866C22.9689 24.71 22.9869 24.578 22.9989 24.47H22.8549C22.4229 25.01 21.9729 25.436 21.5049 25.748C21.0489 26.06 20.5569 26.216 20.0289 26.216ZM20.6589 25.028C21.0549 25.028 21.4269 24.926 21.7749 24.722C22.1229 24.506 22.4169 24.23 22.6569 23.894C22.9089 23.558 23.0829 23.204 23.1789 22.832C23.3469 22.124 23.4729 21.5 23.5569 20.96C23.6409 20.42 23.6829 20.018 23.6829 19.754C23.6829 19.406 23.6169 19.106 23.4849 18.854C23.3649 18.602 23.1909 18.41 22.9629 18.278C22.7469 18.134 22.4889 18.062 22.1889 18.062C21.7569 18.062 21.3669 18.206 21.0189 18.494C20.6709 18.77 20.3709 19.142 20.1189 19.61C19.8669 20.078 19.6749 20.6 19.5429 21.176C19.4109 21.752 19.3449 22.334 19.3449 22.922C19.3449 23.738 19.4649 24.296 19.7049 24.596C19.9569 24.884 20.2749 25.028 20.6589 25.028Z" fill="black"/>
</svg>
