<svg width="44" height="44" viewBox="0 0 44 44" fill="none" xmlns="http://www.w3.org/2000/svg">
<path d="M24.1233 26.6339C23.6793 26.6339 23.3673 26.5259 23.1873 26.3099C23.0193 26.0819 22.9353 25.8359 22.9353 25.5719C22.9353 25.4279 22.9473 25.2899 22.9713 25.1579C23.0073 25.0139 23.0313 24.9179 23.0433 24.8699L24.1053 20.7119C24.1053 20.7119 24.1233 20.6159 24.1593 20.4239C24.2073 20.2199 24.2313 20.0279 24.2313 19.8479C24.2313 19.6439 24.1953 19.4759 24.1233 19.3439C24.0513 19.1999 23.9133 19.1279 23.7093 19.1279C23.4453 19.1279 23.1573 19.2539 22.8453 19.5059C22.5333 19.7459 22.2213 20.0639 21.9093 20.4599C21.5973 20.8439 21.3033 21.2519 21.0273 21.6839C20.7513 22.1039 20.5113 22.5059 20.3073 22.8899C20.1033 23.2619 19.9533 23.5559 19.8573 23.7719L20.1993 21.9719C20.3673 21.6479 20.5893 21.2579 20.8653 20.8019C21.1533 20.3339 21.4833 19.8779 21.8553 19.4339C22.2273 18.9779 22.6413 18.5999 23.0973 18.2999C23.5653 17.9879 24.0693 17.8319 24.6093 17.8319C25.0533 17.8319 25.3533 17.9639 25.5093 18.2279C25.6773 18.4919 25.7613 18.7859 25.7613 19.1099C25.7613 19.4099 25.7373 19.6739 25.6893 19.9019C25.6533 20.1299 25.6233 20.3099 25.5993 20.4419L24.5913 24.5999C24.5913 24.5999 24.5793 24.6479 24.5553 24.7439C24.5433 24.8279 24.5373 24.9239 24.5373 25.0319C24.5373 25.2599 24.6513 25.3739 24.8793 25.3739C25.1913 25.3739 25.4553 25.2599 25.6713 25.0319C25.8993 24.8039 26.0793 24.6059 26.2113 24.4379L26.5893 24.7079C26.4693 24.8759 26.3313 25.0679 26.1753 25.2839C26.0313 25.4999 25.8573 25.7159 25.6533 25.9319C25.4613 26.1359 25.2393 26.3039 24.9873 26.4359C24.7353 26.5679 24.4473 26.6339 24.1233 26.6339ZM19.2813 26.4539H17.8053L19.2633 19.6139C19.2633 19.6139 19.2753 19.5479 19.2993 19.4159C19.3233 19.2839 19.3353 19.1519 19.3353 19.0199C19.3353 18.8639 19.2873 18.7439 19.1913 18.6599C19.0953 18.5759 18.9453 18.5339 18.7413 18.5339C18.6213 18.5339 18.4893 18.5399 18.3453 18.5519C18.2133 18.5639 18.1473 18.5699 18.1473 18.5699V18.0839L20.6493 17.8859H21.0453L20.1453 21.7919H20.3433L19.2813 26.4539Z" fill="#232426"/>
</svg>
