<svg width="44" height="44" viewBox="0 0 44 44" fill="none" xmlns="http://www.w3.org/2000/svg">
<path d="M21.3432 27.6339C20.6832 27.6339 20.1192 27.4899 19.6512 27.2019C19.1952 26.9139 18.8472 26.5179 18.6072 26.0139C18.3792 25.4979 18.2652 24.8979 18.2652 24.2139C18.2652 23.4939 18.3732 22.8099 18.5892 22.1619C18.8172 21.5139 19.1292 20.9439 19.5252 20.4519C19.9212 19.9479 20.3892 19.5519 20.9292 19.2639C21.4692 18.9759 22.0572 18.8319 22.6932 18.8319C23.4132 18.8319 24.0012 18.9939 24.4572 19.3179C24.9132 19.6419 25.2492 20.0679 25.4652 20.5959C25.6812 21.1239 25.7892 21.7059 25.7892 22.3419C25.7892 23.0619 25.6752 23.7399 25.4472 24.3759C25.2192 25.0119 24.9012 25.5759 24.4932 26.0679C24.0972 26.5479 23.6292 26.9319 23.0892 27.2199C22.5492 27.4959 21.9672 27.6339 21.3432 27.6339ZM21.5232 27.0039C21.9552 27.0039 22.3332 26.8539 22.6572 26.5539C22.9932 26.2419 23.2692 25.8459 23.4852 25.3659C23.7132 24.8739 23.8812 24.3459 23.9892 23.7819C24.1092 23.2059 24.1692 22.6479 24.1692 22.1079C24.1692 21.6159 24.1212 21.1719 24.0252 20.7759C23.9412 20.3679 23.7852 20.0439 23.5572 19.8039C23.3292 19.5639 22.9992 19.4439 22.5672 19.4439C22.0992 19.4439 21.6912 19.5999 21.3432 19.9119C21.0072 20.2119 20.7252 20.6079 20.4972 21.0999C20.2812 21.5919 20.1192 22.1319 20.0112 22.7199C19.9032 23.2959 19.8492 23.8599 19.8492 24.4119C19.8492 24.8559 19.8912 25.2759 19.9752 25.6719C20.0712 26.0679 20.2392 26.3919 20.4792 26.6439C20.7312 26.8839 21.0792 27.0039 21.5232 27.0039Z" fill="#232426"/>
</svg>
