<svg width="44" height="44" viewBox="0 0 44 44" fill="none" xmlns="http://www.w3.org/2000/svg">
<path d="M19.2076 27.816C18.7516 27.816 18.4396 27.684 18.2716 27.42C18.1036 27.156 18.0196 26.856 18.0196 26.52C18.0196 26.28 18.0436 26.034 18.0916 25.782C18.1396 25.518 18.1756 25.326 18.1996 25.206L19.0636 21.336C19.0636 21.336 19.0756 21.264 19.0996 21.12C19.1356 20.976 19.1656 20.814 19.1896 20.634C19.2256 20.454 19.2436 20.31 19.2436 20.202C19.2436 20.01 19.1716 19.884 19.0276 19.824C18.8956 19.752 18.7516 19.716 18.5956 19.716C18.4756 19.716 18.3676 19.722 18.2716 19.734C18.1756 19.734 18.0796 19.74 17.9836 19.752V19.266L20.4136 19.068H20.9716L19.7296 24.918C19.7296 24.918 19.7056 25.02 19.6576 25.224C19.6216 25.428 19.6036 25.614 19.6036 25.782C19.6036 25.998 19.6456 26.178 19.7296 26.322C19.8136 26.454 19.9516 26.52 20.1436 26.52C20.4076 26.52 20.6896 26.406 20.9896 26.178C21.3016 25.95 21.6076 25.65 21.9076 25.278C22.2196 24.906 22.5076 24.504 22.7716 24.072C23.0356 23.64 23.2636 23.214 23.4556 22.794C23.6476 22.362 23.7796 21.984 23.8516 21.66L24.4276 19.122H25.9216L24.5896 25.494C24.5896 25.494 24.5716 25.59 24.5356 25.782C24.4996 25.974 24.4816 26.136 24.4816 26.268C24.4816 26.34 24.5056 26.412 24.5536 26.484C24.6136 26.544 24.7156 26.574 24.8596 26.574C25.0756 26.574 25.2796 26.496 25.4716 26.34C25.6756 26.184 25.8436 26.028 25.9756 25.872C26.1076 25.716 26.1736 25.638 26.1736 25.638L26.5516 25.908C26.2876 26.292 26.0296 26.628 25.7776 26.916C25.5256 27.192 25.2556 27.408 24.9676 27.564C24.6916 27.72 24.3676 27.798 23.9956 27.798C23.7556 27.798 23.5156 27.738 23.2756 27.618C23.0356 27.486 22.9156 27.222 22.9156 26.826C22.9156 26.406 22.9696 25.992 23.0776 25.584C23.1976 25.176 23.3356 24.678 23.4916 24.09H23.3296C23.1496 24.402 22.9276 24.768 22.6636 25.188C22.4116 25.608 22.1176 26.022 21.7816 26.43C21.4456 26.826 21.0616 27.156 20.6296 27.42C20.2096 27.684 19.7356 27.816 19.2076 27.816Z" fill="#232426"/>
</svg>
