<svg width="44" height="44" viewBox="0 0 44 44" fill="none" xmlns="http://www.w3.org/2000/svg">
<path d="M26.4746 26.6339C26.0186 26.6339 25.7066 26.5259 25.5386 26.3099C25.3706 26.0819 25.2866 25.8359 25.2866 25.5719C25.2866 25.4279 25.2986 25.2899 25.3226 25.1579C25.3466 25.0139 25.3646 24.9179 25.3766 24.8699L26.2946 21.3779C26.3546 21.1379 26.4146 20.8739 26.4746 20.5859C26.5466 20.2859 26.5826 20.0399 26.5826 19.8479C26.5826 19.6439 26.5466 19.4759 26.4746 19.3439C26.4026 19.1999 26.2646 19.1279 26.0606 19.1279C25.8326 19.1279 25.5686 19.2539 25.2686 19.5059C24.9806 19.7459 24.6806 20.0639 24.3686 20.4599C24.0566 20.8559 23.7566 21.2879 23.4686 21.7559C23.1806 22.2119 22.9286 22.6559 22.7126 23.0879C22.4966 23.5079 22.3346 23.8739 22.2266 24.1859L22.8386 21.8639C23.0186 21.5159 23.2466 21.1139 23.5226 20.6579C23.7986 20.2019 24.1106 19.7579 24.4586 19.3259C24.8186 18.8939 25.2086 18.5399 25.6286 18.2639C26.0606 17.9759 26.5166 17.8319 26.9966 17.8319C27.4286 17.8319 27.7226 17.9639 27.8786 18.2279C28.0346 18.4919 28.1126 18.7859 28.1126 19.1099C28.1126 19.3379 28.0886 19.5839 28.0406 19.8479C27.9926 20.1119 27.9566 20.3099 27.9326 20.4419L26.9426 24.5999C26.9426 24.5999 26.9306 24.6479 26.9066 24.7439C26.8946 24.8279 26.8886 24.9239 26.8886 25.0319C26.8886 25.2599 27.0026 25.3739 27.2306 25.3739C27.5426 25.3739 27.8066 25.2599 28.0226 25.0319C28.2506 24.8039 28.4366 24.6059 28.5806 24.4379L28.9406 24.7079C28.8206 24.8759 28.6826 25.0679 28.5266 25.2839C28.3826 25.4999 28.2086 25.7159 28.0046 25.9319C27.8126 26.1359 27.5906 26.3039 27.3386 26.4359C27.0866 26.5679 26.7986 26.6339 26.4746 26.6339ZM16.9346 26.4539H15.4586L16.8986 19.6139C16.8986 19.6139 16.9046 19.5479 16.9166 19.4159C16.9406 19.2839 16.9526 19.1519 16.9526 19.0199C16.9526 18.8639 16.9106 18.7439 16.8266 18.6599C16.7426 18.5759 16.5926 18.5339 16.3766 18.5339C16.2566 18.5339 16.1306 18.5399 15.9986 18.5519C15.8666 18.5639 15.8006 18.5699 15.8006 18.5699V18.0839L18.2666 17.8859H18.6806L17.7986 21.7919H17.9966L16.9346 26.4539ZM21.7406 26.4539H20.2466C20.3786 25.9739 20.5046 25.4939 20.6246 25.0139C20.7566 24.5219 20.8826 24.0359 21.0026 23.5559C21.1226 23.0639 21.2366 22.5719 21.3446 22.0799C21.4646 21.5879 21.5786 21.0899 21.6866 20.5859C21.6866 20.5859 21.6986 20.5019 21.7226 20.3339C21.7586 20.1539 21.7766 19.9919 21.7766 19.8479C21.7766 19.6439 21.7406 19.4759 21.6686 19.3439C21.5966 19.1999 21.4586 19.1279 21.2546 19.1279C20.9546 19.1279 20.6246 19.2959 20.2646 19.6319C19.9046 19.9679 19.5386 20.3999 19.1666 20.9279C18.8066 21.4559 18.4706 22.0199 18.1586 22.6199C17.8466 23.2079 17.5886 23.7539 17.3846 24.2579L17.8346 21.9899C18.0146 21.6419 18.2426 21.2339 18.5186 20.7659C18.7946 20.2979 19.1126 19.8419 19.4726 19.3979C19.8446 18.9539 20.2586 18.5819 20.7146 18.2819C21.1706 17.9819 21.6566 17.8319 22.1726 17.8319C22.6166 17.8319 22.9106 17.9639 23.0546 18.2279C23.2106 18.4919 23.2886 18.7859 23.2886 19.1099C23.2886 19.3739 23.2646 19.6499 23.2166 19.9379C23.1686 20.2259 23.1386 20.3939 23.1266 20.4419L22.7846 21.7919H23.0366L22.2266 24.1859L21.7406 26.4539Z" fill="#232426"/>
</svg>
