<svg width="44" height="44" viewBox="0 0 44 44" fill="none" xmlns="http://www.w3.org/2000/svg">
<path d="M21.1255 30.05C20.2375 30.05 19.5175 29.954 18.9655 29.762C18.4255 29.582 18.0355 29.318 17.7955 28.97C17.5555 28.634 17.4355 28.244 17.4355 27.8C17.4355 27.428 17.5495 27.104 17.7775 26.828C17.9935 26.552 18.2755 26.318 18.6235 26.126C18.9715 25.946 19.3315 25.808 19.7035 25.712L20.0995 25.892C19.7995 26.072 19.5115 26.288 19.2355 26.54C18.9715 26.792 18.8395 27.17 18.8395 27.674C18.8395 27.998 18.9235 28.292 19.0915 28.556C19.2715 28.82 19.5355 29.03 19.8835 29.186C20.2435 29.342 20.6995 29.42 21.2515 29.42C22.1275 29.42 22.7695 29.294 23.1775 29.042C23.5855 28.79 23.7895 28.448 23.7895 28.016C23.7895 27.692 23.6575 27.41 23.3935 27.17C23.1295 26.942 22.7815 26.744 22.3495 26.576C21.9295 26.42 21.4735 26.282 20.9815 26.162C20.5015 26.042 20.0395 25.94 19.5955 25.856V25.676C19.4395 25.58 19.2955 25.448 19.1635 25.28C19.0315 25.1 18.9655 24.878 18.9655 24.614C18.9655 24.218 19.1035 23.888 19.3795 23.624C19.6675 23.36 19.9915 23.156 20.3515 23.012V22.904C20.1115 22.796 19.8655 22.646 19.6135 22.454C19.3735 22.262 19.1755 22.01 19.0195 21.698C18.8635 21.374 18.7855 20.966 18.7855 20.474C18.7855 19.874 18.9355 19.34 19.2355 18.872C19.5355 18.404 19.9435 18.038 20.4595 17.774C20.9755 17.51 21.5575 17.378 22.2055 17.378C22.6255 17.378 22.9615 17.402 23.2135 17.45C23.4655 17.498 23.6875 17.558 23.8795 17.63C24.0715 17.702 24.2815 17.78 24.5095 17.864V18.386C24.6535 18.554 24.7975 18.806 24.9415 19.142C25.0855 19.466 25.1575 19.838 25.1575 20.258C25.1575 20.774 25.0195 21.248 24.7435 21.68C24.4675 22.112 24.0595 22.466 23.5195 22.742C22.9795 23.006 22.3195 23.156 21.5395 23.192C21.1435 23.204 20.8495 23.312 20.6575 23.516C20.4775 23.72 20.3875 23.93 20.3875 24.146C20.3875 24.326 20.5015 24.47 20.7295 24.578C20.9575 24.686 21.2455 24.782 21.5935 24.866C21.9535 24.95 22.3315 25.046 22.7275 25.154C23.1355 25.25 23.5135 25.388 23.8615 25.568C24.2215 25.736 24.5155 25.958 24.7435 26.234C24.9715 26.522 25.0855 26.888 25.0855 27.332C25.0855 28.112 24.7495 28.76 24.0775 29.276C23.4175 29.792 22.4335 30.05 21.1255 30.05ZM21.7375 22.634C22.1575 22.634 22.4995 22.52 22.7635 22.292C23.0275 22.052 23.2255 21.734 23.3575 21.338C23.4895 20.942 23.5555 20.492 23.5555 19.988C23.5555 19.412 23.4415 18.926 23.2135 18.53C22.9855 18.122 22.6375 17.918 22.1695 17.918C21.6535 17.918 21.2275 18.134 20.8915 18.566C20.5555 18.998 20.3875 19.586 20.3875 20.33C20.3875 21.062 20.4835 21.632 20.6755 22.04C20.8795 22.436 21.2335 22.634 21.7375 22.634ZM26.1835 17.594L26.0755 18.512L24.2575 18.296L23.5195 17.594H26.1835Z" fill="black"/>
</svg>
