<svg width="44" height="44" viewBox="0 0 44 44" fill="none" xmlns="http://www.w3.org/2000/svg">
<path d="M19.2283 26.5979H17.7703C17.7343 25.6859 17.6863 24.8579 17.6263 24.1139C17.5783 23.3699 17.5183 22.6499 17.4463 21.9539C17.3743 21.2459 17.2903 20.5019 17.1943 19.7219C17.1463 19.3019 17.0683 19.0199 16.9603 18.8759C16.8643 18.7319 16.6663 18.6599 16.3663 18.6599C16.2703 18.6599 16.1803 18.6659 16.0963 18.6779C16.0243 18.6779 15.9223 18.6899 15.7903 18.7139V18.1559L18.1483 17.8679H18.5803C18.6763 18.6359 18.7543 19.4219 18.8143 20.2259C18.8863 21.0179 18.9463 21.8099 18.9943 22.6019C19.0423 23.3939 19.0783 24.1679 19.1023 24.9239L19.0663 25.5539H19.1023L22.5583 17.9759H23.5843C23.6683 18.7439 23.7403 19.5179 23.8003 20.2979C23.8723 21.0659 23.9323 21.8339 23.9803 22.6019C24.0403 23.3699 24.0883 24.1439 24.1243 24.9239L24.0883 25.5539H24.1243C24.7123 25.0979 25.2163 24.5879 25.6363 24.0239C26.0683 23.4599 26.3983 22.8839 26.6263 22.2959C26.8543 21.7079 26.9683 21.1559 26.9683 20.6399C26.9683 20.3639 26.9203 20.1419 26.8243 19.9739C26.7403 19.8059 26.6383 19.6619 26.5183 19.5419C26.3983 19.4219 26.2903 19.2959 26.1943 19.1639C26.1103 19.0319 26.0683 18.8579 26.0683 18.6419C26.0683 18.3659 26.1463 18.1679 26.3023 18.0479C26.4703 17.9159 26.6623 17.8499 26.8783 17.8499C27.1783 17.8499 27.4123 17.9459 27.5803 18.1379C27.7483 18.3179 27.8623 18.5399 27.9223 18.8039C27.9943 19.0559 28.0303 19.3019 28.0303 19.5419C28.0303 20.5019 27.8263 21.4319 27.4183 22.3319C27.0223 23.2199 26.4943 24.0359 25.8343 24.7799C25.1743 25.5119 24.4543 26.1179 23.6743 26.5979H22.7383C22.7023 25.8779 22.6603 25.1639 22.6123 24.4559C22.5643 23.7359 22.5103 23.0219 22.4503 22.3139C22.4023 21.5939 22.3483 20.8799 22.2883 20.1719H22.2163L19.2283 26.5979Z" fill="#232426"/>
</svg>
