
<svg width="44" height="44" viewBox="0 0 44 44" fill="none" xmlns="http://www.w3.org/2000/svg">
<path d="M23.7392 26.6339C23.2952 26.6339 22.9652 26.4719 22.7492 26.1479C22.5452 25.8239 22.3712 25.3679 22.2272 24.7799L21.7412 22.7819L21.5432 22.4759L20.9852 20.6579C20.8292 20.1539 20.6732 19.7579 20.5172 19.4699C20.3732 19.1819 20.1872 18.9779 19.9592 18.8579C19.7432 18.7379 19.4552 18.6779 19.0952 18.6779C18.9992 18.6779 18.9032 18.6839 18.8072 18.6959C18.7232 18.6959 18.6212 18.7079 18.5012 18.7319V18.1919L20.9492 17.9039H21.2192C21.4352 18.1559 21.6272 18.4739 21.7952 18.8579C21.9752 19.2419 22.1252 19.6799 22.2452 20.1719L22.4972 21.2699L22.6772 21.6119L23.1092 23.0159C23.3612 23.8199 23.5892 24.4079 23.7932 24.7799C23.9972 25.1519 24.2492 25.3379 24.5492 25.3379C24.7892 25.3379 25.0052 25.2419 25.1972 25.0499C25.4012 24.8579 25.6112 24.6179 25.8272 24.3299L26.2052 24.6179C26.0852 24.8099 25.9412 25.0259 25.7732 25.2659C25.6052 25.4939 25.4192 25.7159 25.2152 25.9319C25.0112 26.1359 24.7832 26.3039 24.5312 26.4359C24.2912 26.5679 24.0272 26.6339 23.7392 26.6339ZM18.3032 26.6159C17.9192 26.6159 17.6492 26.5259 17.4932 26.3459C17.3372 26.1539 17.2592 25.9559 17.2592 25.7519C17.2592 25.5479 17.3252 25.3679 17.4572 25.2119C17.5772 25.0559 17.7512 24.9779 17.9792 24.9779C18.1592 24.9779 18.3512 25.0199 18.5552 25.1039C18.7712 25.1759 18.9512 25.2119 19.0952 25.2119C19.1192 25.2119 19.1732 25.1999 19.2572 25.1759C19.3412 25.1399 19.4612 25.0499 19.6172 24.9059C19.7732 24.7619 19.9652 24.5219 20.1932 24.1859L21.5972 22.1519L21.9572 22.9619H21.7052L20.5532 24.8339C20.2652 25.3019 19.9532 25.7159 19.6172 26.0759C19.2812 26.4359 18.8432 26.6159 18.3032 26.6159ZM23.8292 20.0459L22.6232 21.9539L22.2812 21.0899H22.5152L23.3972 19.5779C23.5532 19.3019 23.7332 19.0319 23.9372 18.7679C24.1532 18.5039 24.4052 18.2819 24.6932 18.1019C24.9812 17.9219 25.3112 17.8319 25.6832 17.8319C25.9952 17.8319 26.2172 17.9039 26.3492 18.0479C26.4932 18.1799 26.5652 18.3659 26.5652 18.6059C26.5652 18.9059 26.4812 19.1279 26.3132 19.2719C26.1452 19.4039 25.9592 19.4699 25.7552 19.4699C25.5872 19.4699 25.4192 19.4399 25.2512 19.3799C25.0952 19.3199 24.9392 19.2899 24.7832 19.2899C24.5912 19.2899 24.4232 19.3559 24.2792 19.4879C24.1352 19.6079 23.9852 19.7939 23.8292 20.0459Z" fill="#232426"/>
</svg>
