<svg width="44" height="44" viewBox="0 0 44 44" fill="none" xmlns="http://www.w3.org/2000/svg">
<path d="M21.3927 27.6159C21.0207 27.6159 20.7447 27.5259 20.5647 27.3459C20.3847 27.1659 20.2947 26.9379 20.2947 26.6619C20.2947 26.5059 20.3127 26.3199 20.3487 26.1039C20.3847 25.8759 20.4087 25.7199 20.4207 25.6359L21.6447 19.7499H20.6187L20.6907 19.3719C21.0747 19.1679 21.3927 18.9699 21.6447 18.7779C21.9087 18.5859 22.1547 18.3339 22.3827 18.0219C22.6227 17.7099 22.8927 17.2959 23.1927 16.7799H23.7327L22.0227 25.1139C22.0227 25.1139 21.9987 25.2279 21.9507 25.4559C21.9147 25.6719 21.8967 25.8579 21.8967 26.0139C21.8967 26.1099 21.9147 26.1999 21.9507 26.2839C21.9987 26.3559 22.0827 26.3919 22.2027 26.3919C22.4667 26.3919 22.7067 26.3139 22.9227 26.1579C23.1507 26.0019 23.4207 25.7199 23.7327 25.3119L24.0927 25.5819C23.9247 25.8099 23.7207 26.0859 23.4807 26.4099C23.2407 26.7339 22.9527 27.0159 22.6167 27.2559C22.2807 27.4959 21.8727 27.6159 21.3927 27.6159ZM24.9027 19.7499H22.9047L23.0487 19.0479H25.0467L24.9027 19.7499Z" fill="#232426"/>
</svg>
