<svg width="44" height="44" viewBox="0 0 44 44" fill="none" xmlns="http://www.w3.org/2000/svg">
<path d="M21.0359 26.216C20.0159 26.216 19.0679 25.994 18.1919 25.55L20.3159 15.092C20.3279 15.056 20.3399 14.972 20.3519 14.84C20.3759 14.696 20.3879 14.57 20.3879 14.462C20.3879 14.258 20.3219 14.12 20.1899 14.048C20.0699 13.976 19.9199 13.94 19.7399 13.94C19.6439 13.94 19.5299 13.946 19.3979 13.958C19.2659 13.97 19.1999 13.976 19.1999 13.976V13.508L21.6839 13.31H22.0799L20.9279 18.764H21.0179C21.2699 18.476 21.5219 18.23 21.7739 18.026C22.0259 17.81 22.2899 17.648 22.5659 17.54C22.8419 17.432 23.1299 17.378 23.4299 17.378C24.1139 17.378 24.6899 17.636 25.1579 18.152C25.6379 18.656 25.8779 19.448 25.8779 20.528C25.8779 21.26 25.7699 21.968 25.5539 22.652C25.3379 23.336 25.0259 23.948 24.6179 24.488C24.2099 25.016 23.7059 25.436 23.1059 25.748C22.5059 26.06 21.8159 26.216 21.0359 26.216ZM21.2699 25.46C21.9539 25.46 22.5179 25.244 22.9619 24.812C23.4179 24.38 23.7539 23.798 23.9699 23.066C24.1859 22.334 24.2939 21.512 24.2939 20.6C24.2939 19.784 24.1559 19.214 23.8799 18.89C23.6039 18.554 23.2739 18.386 22.8899 18.386C22.5299 18.386 22.1999 18.488 21.8999 18.692C21.6119 18.896 21.3659 19.148 21.1619 19.448C20.9579 19.736 20.7959 20.024 20.6759 20.312L19.7939 24.812C19.9139 24.92 20.0999 25.058 20.3519 25.226C20.6039 25.382 20.9099 25.46 21.2699 25.46Z" fill="black"/>
</svg>
