<svg width="44" height="44" viewBox="0 0 44 44" fill="none" xmlns="http://www.w3.org/2000/svg">
<path d="M19.5461 27.636H18.0701L20.2841 16.692C20.2841 16.692 20.2901 16.632 20.3021 16.512C20.3261 16.392 20.3381 16.26 20.3381 16.116C20.3381 15.996 20.3021 15.876 20.2301 15.756C20.1701 15.636 20.0201 15.576 19.7801 15.576C19.6241 15.576 19.4801 15.582 19.3481 15.594C19.2161 15.606 19.1501 15.612 19.1501 15.612V15.144L21.6341 14.946H22.0301L20.2841 23.586L20.2301 24.09L19.5461 27.636ZM23.7581 27.816C23.4581 27.816 23.2061 27.738 23.0021 27.582C22.8101 27.414 22.6601 27.222 22.5521 27.006C22.4441 26.778 22.3541 26.58 22.2821 26.412L21.0221 23.136L22.0841 22.254L23.5061 25.62C23.6381 25.92 23.7641 26.16 23.8841 26.34C24.0161 26.508 24.1961 26.592 24.4241 26.592C24.7721 26.592 25.0541 26.49 25.2701 26.286C25.4861 26.082 25.6961 25.836 25.9001 25.548L26.2781 25.8C26.2181 25.908 26.1161 26.076 25.9721 26.304C25.8401 26.52 25.6661 26.748 25.4501 26.988C25.2461 27.216 25.0001 27.414 24.7121 27.582C24.4361 27.738 24.1181 27.816 23.7581 27.816ZM21.1661 23.352L19.9961 24.486L20.0861 23.352H20.4281L23.0561 20.832C23.1881 20.7 23.2901 20.586 23.3621 20.49C23.4341 20.382 23.4701 20.25 23.4701 20.094C23.4701 19.926 23.3981 19.818 23.2541 19.77C23.1101 19.71 22.9181 19.68 22.6781 19.68L22.7321 19.23H26.6021L26.5481 19.68C25.9361 19.692 25.4561 19.812 25.1081 20.04C24.7721 20.256 24.4601 20.496 24.1721 20.76L22.0301 22.668L21.1661 23.352Z" fill="#232426"/>
</svg>
