<svg width="44" height="44" viewBox="0 0 44 44" fill="none" xmlns="http://www.w3.org/2000/svg">
<path d="M21.15 24.8339L21.852 21.9719C21.96 21.7559 22.092 21.4799 22.248 21.1439C22.404 20.7959 22.578 20.4359 22.77 20.0639C22.974 19.6799 23.19 19.3199 23.418 18.9839C23.658 18.6359 23.916 18.3599 24.192 18.1559C24.468 17.9399 24.756 17.8319 25.056 17.8319C25.332 17.8319 25.566 17.9219 25.758 18.1019C25.95 18.2699 26.046 18.5279 26.046 18.8759C26.046 19.2719 25.944 19.5599 25.74 19.7399C25.548 19.9199 25.332 20.0099 25.092 20.0099C24.9 20.0099 24.744 19.9559 24.624 19.8479C24.516 19.7279 24.438 19.6139 24.39 19.5059C24.342 19.3979 24.306 19.3439 24.282 19.3439C24.102 19.3439 23.892 19.4939 23.652 19.7939C23.412 20.0819 23.166 20.4599 22.914 20.9279C22.662 21.3839 22.416 21.8699 22.176 22.3859C21.948 22.8899 21.744 23.3639 21.564 23.8079C21.384 24.2519 21.246 24.5939 21.15 24.8339ZM20.97 26.4539H19.44L20.772 20.1899C20.808 20.0219 20.844 19.8359 20.88 19.6319C20.916 19.4159 20.934 19.2299 20.934 19.0739C20.934 18.9059 20.898 18.7739 20.826 18.6779C20.754 18.5819 20.592 18.5339 20.34 18.5339C20.244 18.5339 20.124 18.5399 19.98 18.5519C19.848 18.5639 19.782 18.5699 19.782 18.5699V18.0839L22.284 17.8859H22.68L21.762 21.7919H21.978L20.97 26.4539Z" fill="#232426"/>
</svg>
