<svg width="44" height="44" viewBox="0 0 44 44" fill="none" xmlns="http://www.w3.org/2000/svg">
<path d="M18.0227 31.4139C17.7827 31.4139 17.5547 31.3599 17.3387 31.2519C17.1227 31.1559 16.9487 31.0119 16.8167 30.8199C16.6847 30.6399 16.6187 30.4299 16.6187 30.1899C16.6187 29.9379 16.6907 29.7459 16.8347 29.6139C16.9667 29.4819 17.1287 29.4159 17.3207 29.4159C17.5007 29.4159 17.6567 29.4639 17.7887 29.5599C17.9207 29.6559 18.0347 29.7699 18.1307 29.9019C18.2267 30.0339 18.3107 30.1479 18.3827 30.2439C18.4667 30.3399 18.5447 30.3879 18.6167 30.3879C18.7247 30.3879 18.8927 30.2679 19.1207 30.0279C19.3487 29.7879 19.5947 29.4939 19.8587 29.1459C20.1227 28.7979 20.3627 28.4619 20.5787 28.1379C20.8067 27.8259 20.9687 27.5979 21.0647 27.4539L21.8207 26.0319H22.2167L24.2867 22.7019C24.5027 22.3539 24.6527 22.0599 24.7367 21.8199C24.8327 21.5679 24.8807 21.3699 24.8807 21.2259C24.8807 20.9979 24.8087 20.7999 24.6647 20.6319C24.5207 20.4639 24.3707 20.2899 24.2147 20.1099C24.0707 19.9299 23.9987 19.7259 23.9987 19.4979C23.9987 19.2939 24.0647 19.1259 24.1967 18.9939C24.3287 18.8499 24.5207 18.7779 24.7727 18.7779C25.0847 18.7779 25.3547 18.8979 25.5827 19.1379C25.8107 19.3659 25.9247 19.7319 25.9247 20.2359C25.9247 20.5599 25.8647 20.9139 25.7447 21.2979C25.6247 21.6699 25.4267 22.1139 25.1507 22.6299C24.9227 23.0499 24.6527 23.5119 24.3407 24.0159C24.0287 24.5079 23.7167 24.9819 23.4047 25.4379C23.0927 25.8939 22.8227 26.2839 22.5947 26.6079C22.3787 26.9319 22.2467 27.1239 22.1987 27.1839C21.5507 28.1079 20.9867 28.8819 20.5067 29.5059C20.0387 30.1419 19.6067 30.6159 19.2107 30.9279C18.8267 31.2519 18.4307 31.4139 18.0227 31.4139ZM22.1267 26.3199L21.0107 27.9039L19.9307 21.2799C19.8827 20.9799 19.8227 20.7039 19.7507 20.4519C19.6907 20.1879 19.5767 19.9779 19.4087 19.8219C19.2407 19.6659 18.9767 19.5879 18.6167 19.5879C18.5327 19.5879 18.4487 19.5939 18.3647 19.6059C18.2927 19.6059 18.2147 19.6119 18.1307 19.6239V19.1019L20.5427 18.9039H20.8127C20.9447 19.1319 21.0527 19.3599 21.1367 19.5879C21.2207 19.8159 21.2927 20.0919 21.3527 20.4159C21.4127 20.7279 21.4787 21.1239 21.5507 21.6039L21.9467 24.2319L22.1267 26.3199Z" fill="#232426"/>
</svg>
