<svg width="44" height="44" viewBox="0 0 44 44" fill="none" xmlns="http://www.w3.org/2000/svg">
<path d="M25.0311 32.0162H21.8991L23.1411 26.5262H23.0151C22.5951 27.0542 22.1991 27.4442 21.8271 27.6962C21.4551 27.9362 21.1251 28.0922 20.8371 28.1642C20.5611 28.2362 20.3331 28.2722 20.1531 28.2722C19.4091 28.2722 18.8631 27.9842 18.5151 27.4082C18.1671 26.8322 17.9931 26.0942 17.9931 25.1942C17.9931 24.3782 18.1131 23.6222 18.3531 22.9262C18.6051 22.2182 18.9411 21.6062 19.3611 21.0902C19.7931 20.5622 20.2791 20.1542 20.8191 19.8662C21.3591 19.5782 21.9231 19.4342 22.5111 19.4342C22.9911 19.4342 23.3811 19.5182 23.6811 19.6862C23.9931 19.8542 24.2271 20.0402 24.3831 20.2442H24.4551L25.1391 19.5602H25.9851L23.8791 30.0182C23.8791 30.0182 23.8671 30.0722 23.8431 30.1802C23.8311 30.2882 23.8251 30.4202 23.8251 30.5762C23.8251 30.8882 23.9091 31.1222 24.0771 31.2782C24.2451 31.4342 24.5931 31.5122 25.1211 31.5122L25.0311 32.0162ZM20.8551 27.0842C21.2151 27.0842 21.5631 26.9942 21.8991 26.8142C22.2471 26.6222 22.5531 26.3642 22.8171 26.0402C23.0931 25.7162 23.2851 25.3562 23.3931 24.9602C23.4771 24.6482 23.5551 24.2882 23.6271 23.8802C23.7111 23.4722 23.7771 23.0822 23.8251 22.7102C23.8851 22.3262 23.9151 22.0262 23.9151 21.8102C23.9151 21.3182 23.7711 20.9162 23.4831 20.6042C23.2071 20.2802 22.8411 20.1182 22.3851 20.1182C21.8331 20.1182 21.3471 20.3462 20.9271 20.8022C20.5071 21.2582 20.1771 21.8642 19.9371 22.6202C19.6971 23.3642 19.5771 24.1682 19.5771 25.0322C19.5771 25.6322 19.6611 26.1242 19.8291 26.5082C19.9971 26.8922 20.3391 27.0842 20.8551 27.0842Z" fill="#232426"/>
</svg>
