<svg width="44" height="44" viewBox="0 0 44 44" fill="none" xmlns="http://www.w3.org/2000/svg">
<path d="M21.36 27.834C21.048 27.834 20.712 27.768 20.352 27.636C20.004 27.516 19.758 27.396 19.614 27.276L19.848 26.376C19.992 26.52 20.196 26.67 20.46 26.826C20.736 26.982 21.078 27.06 21.486 27.06C22.098 27.06 22.632 26.868 23.088 26.484C23.544 26.1 23.892 25.542 24.132 24.81C24.384 24.066 24.51 23.166 24.51 22.11C24.51 21.534 24.432 21.096 24.276 20.796C24.12 20.496 23.934 20.292 23.718 20.184C23.502 20.076 23.31 20.022 23.142 20.022C22.746 20.022 22.398 20.136 22.098 20.364C21.798 20.58 21.54 20.862 21.324 21.21C21.108 21.558 20.916 21.93 20.748 22.326L20.946 20.778C21.258 20.394 21.558 20.07 21.846 19.806C22.134 19.542 22.428 19.344 22.728 19.212C23.028 19.08 23.34 19.014 23.664 19.014C24.12 19.014 24.528 19.128 24.888 19.356C25.26 19.584 25.554 19.926 25.77 20.382C25.986 20.838 26.094 21.414 26.094 22.11C26.094 23.238 25.884 24.234 25.464 25.098C25.056 25.95 24.498 26.622 23.79 27.114C23.082 27.594 22.272 27.834 21.36 27.834ZM20.928 31.596H17.4L19.65 20.652C19.662 20.592 19.668 20.538 19.668 20.49C19.68 20.43 19.686 20.37 19.686 20.31C19.686 20.13 19.632 19.998 19.524 19.914C19.428 19.83 19.26 19.788 19.02 19.788C18.888 19.788 18.756 19.794 18.624 19.806C18.504 19.818 18.444 19.824 18.444 19.824V19.374L21.018 19.104H21.36L21.108 20.49H21.18L19.308 29.454C19.296 29.538 19.278 29.652 19.254 29.796C19.242 29.94 19.236 30.078 19.236 30.21C19.236 30.414 19.356 30.612 19.596 30.804C19.848 31.008 20.334 31.11 21.054 31.11L20.928 31.596Z" fill="#232426"/>
</svg>
