<svg width="44" height="44" viewBox="0 0 44 44" fill="none" xmlns="http://www.w3.org/2000/svg">
<path d="M21.513 26.216C20.853 26.216 20.331 26.066 19.947 25.766C19.563 25.454 19.287 25.058 19.119 24.578C18.951 24.098 18.867 23.594 18.867 23.066C18.867 22.418 18.975 21.764 19.191 21.104C19.407 20.432 19.719 19.814 20.127 19.25C20.535 18.686 21.027 18.236 21.603 17.9C22.191 17.552 22.851 17.378 23.583 17.378C23.847 17.378 24.123 17.414 24.411 17.486C24.711 17.558 24.969 17.714 25.185 17.954C25.401 18.182 25.509 18.53 25.509 18.998C25.509 19.574 25.335 20.072 24.987 20.492C24.651 20.9 24.213 21.236 23.673 21.5C23.133 21.764 22.557 21.968 21.945 22.112C21.345 22.244 20.781 22.328 20.253 22.364V21.842C20.949 21.818 21.573 21.686 22.125 21.446C22.689 21.206 23.133 20.876 23.457 20.456C23.793 20.024 23.961 19.514 23.961 18.926C23.961 18.602 23.901 18.356 23.781 18.188C23.673 18.02 23.481 17.936 23.205 17.936C22.809 17.936 22.437 18.098 22.089 18.422C21.753 18.734 21.453 19.136 21.189 19.628C20.937 20.108 20.739 20.618 20.595 21.158C20.451 21.686 20.379 22.166 20.379 22.598C20.379 23.51 20.535 24.134 20.847 24.47C21.171 24.806 21.633 24.974 22.233 24.974C22.689 24.974 23.121 24.89 23.529 24.722C23.937 24.542 24.315 24.236 24.663 23.804L24.987 24.074C24.447 24.878 23.877 25.436 23.277 25.748C22.677 26.06 22.089 26.216 21.513 26.216Z" fill="black"/>
</svg>
