<svg width="44" height="44" viewBox="0 0 44 44" fill="none" xmlns="http://www.w3.org/2000/svg">
<path d="M23.9725 26.18C23.6725 26.18 23.4385 26.126 23.2705 26.018C23.1025 25.922 22.9825 25.796 22.9105 25.64C22.8385 25.472 22.8025 25.298 22.8025 25.118C22.8025 24.974 22.8145 24.836 22.8385 24.704C22.8625 24.56 22.8805 24.464 22.8925 24.416L23.9545 20.258C23.9545 20.258 23.9725 20.162 24.0085 19.97C24.0565 19.766 24.0805 19.574 24.0805 19.394C24.0805 19.19 24.0445 19.022 23.9725 18.89C23.9005 18.746 23.7625 18.674 23.5585 18.674C23.2945 18.674 23.0005 18.8 22.6765 19.052C22.3645 19.292 22.0465 19.604 21.7225 19.988C21.3985 20.372 21.0925 20.78 20.8045 21.212C20.5285 21.644 20.2825 22.052 20.0665 22.436C19.8625 22.808 19.7185 23.102 19.6345 23.318L19.9405 21.518C20.1085 21.194 20.3365 20.804 20.6245 20.348C20.9125 19.88 21.2485 19.424 21.6325 18.98C22.0285 18.524 22.4605 18.146 22.9285 17.846C23.4085 17.534 23.9185 17.378 24.4585 17.378C24.7585 17.378 24.9925 17.438 25.1605 17.558C25.3285 17.678 25.4485 17.84 25.5205 18.044C25.5925 18.236 25.6285 18.44 25.6285 18.656C25.6285 18.884 25.6045 19.13 25.5565 19.394C25.5205 19.658 25.4905 19.856 25.4665 19.988L24.4585 24.146C24.4585 24.146 24.4465 24.194 24.4225 24.29C24.3985 24.374 24.3865 24.47 24.3865 24.578C24.3865 24.806 24.5005 24.92 24.7285 24.92C25.0525 24.92 25.3225 24.806 25.5385 24.578C25.7665 24.35 25.9465 24.152 26.0785 23.984L26.4565 24.254C26.3005 24.47 26.1085 24.734 25.8805 25.046C25.6645 25.346 25.4005 25.61 25.0885 25.838C24.7765 26.066 24.4045 26.18 23.9725 26.18ZM19.0945 26H17.6185L19.8685 15.02C19.8685 15.02 19.8745 14.954 19.8865 14.822C19.9105 14.678 19.9225 14.54 19.9225 14.408C19.9225 14.276 19.8685 14.168 19.7605 14.084C19.6645 13.988 19.5265 13.94 19.3465 13.94C19.2265 13.94 19.0945 13.946 18.9505 13.958C18.8065 13.97 18.7345 13.976 18.7345 13.976V13.508L21.2005 13.31H21.6145L20.3365 19.214L19.8865 21.338H20.1025L19.0945 26Z" fill="black"/>
</svg>
