<svg width="44" height="44" viewBox="0 0 44 44" fill="none" xmlns="http://www.w3.org/2000/svg">
<path d="M19.9464 26.216C19.5384 26.216 19.1664 26.114 18.8304 25.91C18.5064 25.694 18.2424 25.364 18.0384 24.92C17.8464 24.476 17.7504 23.9 17.7504 23.192C17.7504 22.388 17.8764 21.638 18.1284 20.942C18.3804 20.234 18.7164 19.616 19.1364 19.088C19.5684 18.548 20.0544 18.128 20.5944 17.828C21.1344 17.528 21.6924 17.378 22.2684 17.378C22.7244 17.378 23.0904 17.468 23.3664 17.648C23.6424 17.828 23.8764 18.056 24.0684 18.332H24.1404L24.7704 17.504H25.6884L24.3564 23.876C24.3564 23.876 24.3384 23.954 24.3024 24.11C24.2784 24.266 24.2664 24.41 24.2664 24.542C24.2664 24.662 24.2904 24.758 24.3384 24.83C24.3864 24.89 24.4764 24.92 24.6084 24.92C24.8004 24.92 24.9804 24.866 25.1484 24.758C25.3164 24.638 25.4664 24.506 25.5984 24.362C25.7424 24.206 25.8504 24.08 25.9224 23.984L26.2824 24.254C26.0544 24.602 25.8144 24.926 25.5624 25.226C25.3104 25.514 25.0344 25.748 24.7344 25.928C24.4344 26.096 24.0984 26.18 23.7264 26.18C23.4144 26.18 23.1744 26.114 23.0064 25.982C22.8384 25.838 22.7544 25.622 22.7544 25.334C22.7544 25.202 22.7664 25.064 22.7904 24.92C22.8264 24.764 22.8504 24.614 22.8624 24.47H22.7544C22.3104 25.046 21.8544 25.484 21.3864 25.784C20.9184 26.072 20.4384 26.216 19.9464 26.216ZM20.5944 25.028C20.9664 25.028 21.3204 24.932 21.6564 24.74C21.9924 24.536 22.2864 24.266 22.5384 23.93C22.8024 23.582 22.9884 23.192 23.0964 22.76C23.1564 22.52 23.2284 22.208 23.3124 21.824C23.4084 21.428 23.4864 21.038 23.5464 20.654C23.6184 20.258 23.6544 19.946 23.6544 19.718C23.6544 19.31 23.5284 18.932 23.2764 18.584C23.0244 18.236 22.6524 18.062 22.1604 18.062C21.7524 18.062 21.3744 18.2 21.0264 18.476C20.6784 18.752 20.3784 19.124 20.1264 19.592C19.8744 20.06 19.6764 20.588 19.5324 21.176C19.4004 21.752 19.3344 22.346 19.3344 22.958C19.3344 23.762 19.4484 24.308 19.6764 24.596C19.9164 24.884 20.2224 25.028 20.5944 25.028Z" fill="black"/>
</svg>
