<svg width="44" height="44" viewBox="0 0 44 44" fill="none" xmlns="http://www.w3.org/2000/svg">
<path d="M21.5563 26.162C21.1963 26.162 20.9143 26.084 20.7103 25.928C20.5183 25.76 20.4223 25.52 20.4223 25.208C20.4223 25.052 20.4403 24.854 20.4763 24.614C20.5243 24.362 20.6083 23.972 20.7283 23.444L21.6463 19.16C21.6463 19.16 21.6523 19.106 21.6643 18.998C21.6883 18.89 21.7003 18.758 21.7003 18.602C21.7003 18.482 21.6643 18.368 21.5923 18.26C21.5203 18.14 21.3643 18.08 21.1243 18.08C20.9683 18.08 20.8243 18.086 20.6923 18.098C20.5723 18.11 20.5123 18.116 20.5123 18.116V17.63L23.0323 17.432H23.4283L22.0783 23.84C22.0783 23.84 22.0603 23.936 22.0243 24.128C22.0003 24.308 21.9883 24.464 21.9883 24.596C21.9883 24.824 22.0963 24.938 22.3123 24.938C22.6243 24.938 22.9003 24.824 23.1403 24.596C23.3803 24.356 23.5723 24.158 23.7163 24.002L24.0763 24.272C23.8723 24.56 23.6503 24.854 23.4103 25.154C23.1703 25.442 22.9003 25.682 22.6003 25.874C22.3003 26.066 21.9523 26.162 21.5563 26.162ZM22.8703 15.992C22.6063 15.992 22.3843 15.908 22.2043 15.74C22.0243 15.572 21.9343 15.332 21.9343 15.02C21.9343 14.708 22.0243 14.468 22.2043 14.3C22.3843 14.12 22.6243 14.03 22.9243 14.03C23.2243 14.03 23.4523 14.12 23.6083 14.3C23.7763 14.48 23.8603 14.72 23.8603 15.02C23.8603 15.32 23.7643 15.56 23.5723 15.74C23.3803 15.908 23.1463 15.992 22.8703 15.992Z" fill="black"/>
</svg>
