<svg width="44" height="44" viewBox="0 0 44 44" fill="none" xmlns="http://www.w3.org/2000/svg">
<path d="M23.6161 29.1999C23.1721 29.1999 22.7881 29.1279 22.4641 28.9839C22.1521 28.8399 21.8641 28.6599 21.6001 28.4439C21.3481 28.2399 21.1021 28.0299 20.8621 27.8139C20.6221 27.6099 20.3641 27.4359 20.0881 27.2919C19.8121 27.1479 19.5001 27.0759 19.1521 27.0759C18.9601 27.0759 18.7981 27.1059 18.6661 27.1659C18.5461 27.2259 18.3841 27.3579 18.1801 27.5619L17.7841 27.2019L23.9581 20.3439V20.2899H21.2941C20.8861 20.2899 20.5741 20.3439 20.3581 20.4519C20.1421 20.5479 19.9741 20.7099 19.8541 20.9379C19.7461 21.1659 19.6321 21.4839 19.5121 21.8919H18.9541L19.6201 19.0479H25.9021L25.8301 19.5339L20.1961 25.7799V25.8519C20.5201 25.8879 20.8141 26.0079 21.0781 26.2119C21.3421 26.4039 21.5881 26.6379 21.8161 26.9139C22.0561 27.1779 22.2841 27.4419 22.5001 27.7059C22.7281 27.9699 22.9561 28.1919 23.1841 28.3719C23.4121 28.5519 23.6581 28.6419 23.9221 28.6419C24.1381 28.6419 24.2881 28.5999 24.3721 28.5159C24.4561 28.4319 24.4981 28.3239 24.4981 28.1919C24.4981 28.0599 24.4561 27.9099 24.3721 27.7419C24.3001 27.5739 24.2641 27.3759 24.2641 27.1479C24.2641 27.0159 24.3121 26.8479 24.4081 26.6439C24.5161 26.4399 24.7201 26.3379 25.0201 26.3379C25.2961 26.3379 25.5061 26.4399 25.6501 26.6439C25.8061 26.8359 25.8841 27.1059 25.8841 27.4539C25.8841 27.7779 25.8181 28.0479 25.6861 28.2639C25.5661 28.4919 25.3981 28.6719 25.1821 28.8039C24.9661 28.9479 24.7201 29.0499 24.4441 29.1099C24.1801 29.1699 23.9041 29.1999 23.6161 29.1999Z" fill="#232426"/>
</svg>
