<svg width="385" height="319" viewBox="0 0 385 319" fill="none" xmlns="http://www.w3.org/2000/svg">
<rect x="85" y="14" width="52" height="42" rx="8" fill="#F287B6" fill-opacity="0.2"/>
<path d="M108.032 43.992H97.98L98.148 43.208C102.18 43.208 102.292 42.116 102.46 41.472L105.848 28.788C106.128 27.808 105.848 27.584 102.236 27.584L102.404 27.024C105.512 26.716 108.956 25.288 108.956 25.288L104.644 41.472C104.476 42.116 104.028 43.208 108.2 43.208L108.032 43.992ZM123.068 39.512H120.436L119.736 42.116C119.456 43.012 120.548 43.124 121.64 43.124L121.444 43.992H114.528L114.752 43.124C116.404 43.124 117.384 42.676 117.608 41.808L118.252 39.512H111.476L111.756 38.42L123.348 25.288H124.216L120.772 38.308H123.404L123.068 39.512ZM118.588 38.308L121.108 28.9L112.904 38.308H118.588Z" fill="#232426"/>
<path d="M107.18 151.176C106.368 154.34 102.812 156.524 99.088 156.524C97.548 156.524 94.692 155.432 95.028 152.912C95.196 152.156 95.98 151.4 96.848 151.4C97.828 151.4 98.108 152.38 97.996 152.912C97.884 153.248 97.324 153.584 97.436 154.116C97.436 155.32 97.884 155.656 99.536 155.656C102.7 155.656 103.904 153.584 104.492 151.512C105.752 146.808 102.42 146.92 101.776 147.004C100.292 147.228 99.956 147.116 100.124 146.584C100.236 146.024 100.796 145.716 102 146.136C102.588 146.248 105.5 145.38 106.368 142.104C107.012 139.696 106.48 138.38 104.296 138.38C102.532 138.38 101.496 139.36 101.272 140.228C101.16 140.676 101.272 141.012 101.16 141.432C100.936 142.216 100.012 142.524 99.592 142.524C98.92 142.524 98.5 142.104 98.64 141.432C99.256 139.248 102.196 137.512 104.604 137.512C107.46 137.512 109.476 139.36 108.776 142.104C108.048 144.624 104.828 146.136 102.98 146.584C105.584 146.92 107.936 148.432 107.18 151.176ZM122.552 139.024C118.324 143.728 113.648 149.748 113.032 154.116C112.864 155.124 112.5 156.524 110.848 156.524C109.868 156.524 109.644 155.32 109.98 154.452C110.792 152.604 112.528 149.748 114.74 147.004C116.14 145.268 119.5 141.432 121.18 139.696H114.936C112.976 139.696 112.164 141.432 110.792 143.308L110.092 142.972L112.528 138.044H122.832L122.552 139.024Z" fill="#232426"/>
<path d="M107.18 182.176C106.368 185.34 102.812 187.524 99.088 187.524C97.548 187.524 94.692 186.432 95.028 183.912C95.196 183.156 95.98 182.4 96.848 182.4C97.828 182.4 98.108 183.38 97.996 183.912C97.884 184.248 97.324 184.584 97.436 185.116C97.436 186.32 97.884 186.656 99.536 186.656C102.7 186.656 103.904 184.584 104.492 182.512C105.752 177.808 102.42 177.92 101.776 178.004C100.292 178.228 99.956 178.116 100.124 177.584C100.236 177.024 100.796 176.716 102 177.136C102.588 177.248 105.5 176.38 106.368 173.104C107.012 170.696 106.48 169.38 104.296 169.38C102.532 169.38 101.496 170.36 101.272 171.228C101.16 171.676 101.272 172.012 101.16 172.432C100.936 173.216 100.012 173.524 99.592 173.524C98.92 173.524 98.5 173.104 98.64 172.432C99.256 170.248 102.196 168.512 104.604 168.512C107.46 168.512 109.476 170.36 108.776 173.104C108.048 175.624 104.828 177.136 102.98 177.584C105.584 177.92 107.936 179.432 107.18 182.176ZM121.124 182.064L118.492 186.992H108.356C109.364 184.584 112.64 181.84 115.776 179.208C118.296 177.136 120.144 175.512 120.788 173.104C121.404 170.808 120.48 169.38 118.296 169.38C117.176 169.38 115.048 170.024 114.684 171.34C114.46 172.208 115.272 172.124 114.936 173.328C114.684 174.196 113.676 174.616 113.256 174.616C112.164 174.616 111.94 173.86 112.22 172.88C112.808 170.696 116.084 168.512 118.828 168.512C122.216 168.512 123.98 170.584 123.308 173.104C122.552 175.82 119.92 177.472 117.736 179.124C113.592 182.064 111.184 184.136 110.4 185.228H115.888C117.288 185.228 118.296 185.228 120.648 181.84L121.124 182.064Z" fill="#232426"/>
<rect x="95" y="199" width="38" height="42" rx="8" fill="#F287B6" fill-opacity="0.2"/>
<path d="M119.068 223.308C118.144 226.584 114.42 229.524 110.696 229.524C107.644 229.524 106.412 227.34 106.804 225.912C107 225.044 107.588 224.4 108.568 224.4C109.436 224.4 109.772 225.156 109.66 225.716C109.548 226.136 109.016 226.808 108.904 227.228C108.68 228.012 109.828 228.656 110.92 228.656C114.308 228.656 115.904 225.716 116.492 223.42C117.108 221.208 117.052 218.492 114.196 218.492C112.124 218.492 110.64 219.472 109.492 220.564L108.792 220.34L109.324 219.136L111.844 211.044H121.588L120.048 212.92H112.18L110.22 219.024C111.424 218.268 112.572 217.624 114.756 217.624C118.592 217.624 119.796 220.452 119.068 223.308Z" fill="#232426"/>
<path d="M93.032 86.992H82.98L83.148 86.208C87.18 86.208 87.292 85.116 87.46 84.472L90.848 71.788C91.128 70.808 90.848 70.584 87.236 70.584L87.404 70.024C90.512 69.716 93.956 68.288 93.956 68.288L89.644 84.472C89.476 85.116 89.028 86.208 93.2 86.208L93.032 86.992ZM107.032 86.992H96.98L97.148 86.208C101.18 86.208 101.292 85.116 101.46 84.472L104.848 71.788C105.128 70.808 104.848 70.584 101.236 70.584L101.404 70.024C104.512 69.716 107.956 68.288 107.956 68.288L103.644 84.472C103.476 85.116 103.028 86.208 107.2 86.208L107.032 86.992ZM123.552 70.024C119.324 74.728 114.648 80.748 114.032 85.116C113.864 86.124 113.5 87.524 111.848 87.524C110.868 87.524 110.644 86.32 110.98 85.452C111.792 83.604 113.528 80.748 115.74 78.004C117.14 76.268 120.5 72.432 122.18 70.696H115.936C113.976 70.696 113.164 72.432 111.792 74.308L111.092 73.972L113.528 69.044H123.832L123.552 70.024Z" fill="#232426"/>
<path d="M60.956 82.624C59.976 86.208 55.832 87.524 53.648 87.524C51.016 87.524 48.356 85.788 49.084 82.82C49.756 80.412 52.584 78.676 54.572 78.004C52.584 76.716 51.772 75.288 52.332 73.216C52.92 70.92 55.664 68.512 59.164 68.512C61.796 68.512 63.476 70.808 62.888 72.992C62.384 74.84 60.144 76.268 58.38 77.136C60.312 78.116 61.74 79.768 60.956 82.624ZM61.068 72.768C61.572 71.004 60.592 69.268 58.492 69.268C57.092 69.268 54.74 70.472 54.124 72.656C53.536 74.952 56 75.512 57.736 76.716C58.828 76.268 60.48 75.176 61.068 72.768ZM59.164 83.156C59.92 80.328 56.98 79.544 55.16 78.452C53.256 79.208 51.772 80.972 51.24 83.044C50.792 84.584 51.24 86.656 54.068 86.656C57.036 86.656 58.772 84.584 59.164 83.156Z" fill="#232426"/>
<path d="M106.956 114.624C105.976 118.208 101.832 119.524 99.648 119.524C97.016 119.524 94.356 117.788 95.084 114.82C95.756 112.412 98.584 110.676 100.572 110.004C98.584 108.716 97.772 107.288 98.332 105.216C98.92 102.92 101.664 100.512 105.164 100.512C107.796 100.512 109.476 102.808 108.888 104.992C108.384 106.84 106.144 108.268 104.38 109.136C106.312 110.116 107.74 111.768 106.956 114.624ZM107.068 104.768C107.572 103.004 106.592 101.268 104.492 101.268C103.092 101.268 100.74 102.472 100.124 104.656C99.536 106.952 102 107.512 103.736 108.716C104.828 108.268 106.48 107.176 107.068 104.768ZM105.164 115.156C105.92 112.328 102.98 111.544 101.16 110.452C99.256 111.208 97.772 112.972 97.24 115.044C96.792 116.584 97.24 118.656 100.068 118.656C103.036 118.656 104.772 116.584 105.164 115.156Z" fill="#232426"/>
<path d="M99.772 59.428H72.164C75.636 62.816 77.4 70.46 77.4 75.5C77.4 80.512 75.216 86.728 70.848 89.584L70.288 88.828C73.452 86.532 75.328 80.848 75.328 75.5C75.328 70.46 73.676 61.724 70.288 59.428L70.848 58.336H99.772V59.428ZM97.028 59.428H74.348V58.336H97.028V59.428ZM111.028 59.428H88.348V58.336H111.028V59.428ZM125.028 59.428H102.348V58.336H125.028V59.428ZM125.028 59.428H102.348V58.336H125.028V59.428Z" fill="#232426"/>
<line x1="72" y1="128.5" x2="124" y2="128.5" stroke="#232426"/>
<line x1="72" y1="196.5" x2="124" y2="196.5" stroke="#232426"/>
<path d="M158 39L163 41.8867L163 36.1132L158 39ZM181 38.5L162.5 38.5L162.5 39.5L181 39.5L181 38.5Z" fill="#E54D90"/>
<path d="M206.496 29.544V36.576H200.352V39H208.92V40.488H189.96V39H198.528V36.576H192.408V29.544H206.496ZM191.736 42.432H198.624V49.752H196.848V43.92H191.736V42.432ZM204.72 35.112V30.984H194.16V35.112H204.72ZM198.96 48.6C200.144 48.136 201.048 47.432 201.672 46.488C202.312 45.528 202.632 44.496 202.632 43.392V41.976H204.408V43.392C204.408 44.512 204.72 45.552 205.344 46.512C205.984 47.456 206.896 48.152 208.08 48.6L207.048 49.92C206.2 49.584 205.48 49.104 204.888 48.48C204.296 47.856 203.84 47.136 203.52 46.32C203.2 47.136 202.744 47.848 202.152 48.456C201.56 49.08 200.84 49.568 199.992 49.92L198.96 48.6Z" fill="#232426"/>
<path d="M158 220L163 222.887L163 217.113L158 220ZM181 219.5L162.5 219.5L162.5 220.5L181 220.5L181 219.5Z" fill="#E54D90"/>
<path d="M206.088 209.728V218.176H209.472V219.688H206.088V230.752H204.288V209.728H206.088ZM190.848 211.816H192.624V223.912C196 223.912 199.216 223.592 202.272 222.952L202.488 224.464C199.368 225.088 196.04 225.4 192.504 225.4H190.848V211.816ZM221.281 211.816V217.456H226.393V209.728H228.169V230.776H226.393V218.944H221.281V225.424H211.777V211.816H221.281ZM219.505 223.984V213.28H213.553V223.984H219.505ZM244.297 211.912V213.424H239.305V216.256C239.305 217.408 239.561 218.56 240.073 219.712C240.601 220.848 241.297 221.864 242.161 222.76C243.025 223.64 243.961 224.304 244.969 224.752L243.937 226.192C242.721 225.616 241.617 224.752 240.625 223.6C239.633 222.448 238.897 221.152 238.417 219.712C237.937 221.264 237.201 222.664 236.209 223.912C235.233 225.16 234.145 226.088 232.945 226.696L231.913 225.28C232.889 224.8 233.809 224.08 234.673 223.12C235.537 222.144 236.225 221.048 236.737 219.832C237.249 218.616 237.505 217.424 237.505 216.256V213.424H232.561V211.912H244.297ZM247.225 209.752H249.025V230.752H247.225V209.752Z" fill="#232426"/>
<path d="M158 110L163 112.887L163 107.113L158 110ZM181 109.5L162.5 109.5L162.5 110.5L181 110.5L181 109.5Z" fill="#E54D90"/>
<path d="M199.248 114.392C198.408 117.464 194.856 118.592 192.984 118.592C190.728 118.592 188.448 117.104 189.072 114.56C189.648 112.496 192.072 111.008 193.776 110.432C192.072 109.328 191.376 108.104 191.856 106.328C192.36 104.36 194.712 102.296 197.712 102.296C199.968 102.296 201.408 104.264 200.904 106.136C200.472 107.72 198.552 108.944 197.04 109.688C198.696 110.528 199.92 111.944 199.248 114.392ZM199.344 105.944C199.776 104.432 198.936 102.944 197.136 102.944C195.936 102.944 193.92 103.976 193.392 105.848C192.888 107.816 195 108.296 196.488 109.328C197.424 108.944 198.84 108.008 199.344 105.944ZM197.712 114.848C198.36 112.424 195.84 111.752 194.28 110.816C192.648 111.464 191.376 112.976 190.92 114.752C190.536 116.072 190.92 117.848 193.344 117.848C195.888 117.848 197.376 116.072 197.712 114.848ZM219.456 104.72L213.648 110.432L219.456 116.36L218.808 117.008L213 111.104L207.168 116.912L206.52 116.264L212.328 110.432L206.52 104.72L207.168 103.976L213 109.784L218.808 104.072L219.456 104.72ZM234.456 118.136H225.84L225.984 117.464C229.44 117.464 229.536 116.528 229.68 115.976L232.584 105.104C232.824 104.264 232.584 104.072 229.488 104.072L229.632 103.592C232.296 103.328 235.248 102.104 235.248 102.104L231.552 115.976C231.408 116.528 231.024 117.464 234.6 117.464L234.456 118.136Z" fill="#232426"/>
<path d="M158 178L163 180.887L163 175.113L158 178ZM181 177.5L162.5 177.5L162.5 178.5L181 178.5L181 177.5Z" fill="#E54D90"/>
<path d="M199.248 182.392C198.408 185.464 194.856 186.592 192.984 186.592C190.728 186.592 188.448 185.104 189.072 182.56C189.648 180.496 192.072 179.008 193.776 178.432C192.072 177.328 191.376 176.104 191.856 174.328C192.36 172.36 194.712 170.296 197.712 170.296C199.968 170.296 201.408 172.264 200.904 174.136C200.472 175.72 198.552 176.944 197.04 177.688C198.696 178.528 199.92 179.944 199.248 182.392ZM199.344 173.944C199.776 172.432 198.936 170.944 197.136 170.944C195.936 170.944 193.92 171.976 193.392 173.848C192.888 175.816 195 176.296 196.488 177.328C197.424 176.944 198.84 176.008 199.344 173.944ZM197.712 182.848C198.36 180.424 195.84 179.752 194.28 178.816C192.648 179.464 191.376 180.976 190.92 182.752C190.536 184.072 190.92 185.848 193.344 185.848C195.888 185.848 197.376 184.072 197.712 182.848ZM219.456 172.72L213.648 178.432L219.456 184.36L218.808 185.008L213 179.104L207.168 184.912L206.52 184.264L212.328 178.432L206.52 172.72L207.168 171.976L213 177.784L218.808 172.072L219.456 172.72ZM235.344 182.296H233.088L232.488 184.528C232.248 185.296 233.184 185.392 234.12 185.392L233.952 186.136H228.024L228.216 185.392C229.632 185.392 230.472 185.008 230.664 184.264L231.216 182.296H225.408L225.648 181.36L235.584 170.104H236.328L233.376 181.264H235.632L235.344 182.296ZM231.504 181.264L233.664 173.2L226.632 181.264H231.504Z" fill="#232426"/>
<path d="M64.7071 286.707C65.0976 286.317 65.0976 285.683 64.7071 285.293L58.3431 278.929C57.9526 278.538 57.3195 278.538 56.9289 278.929C56.5384 279.319 56.5384 279.953 56.9289 280.343L62.5858 286L56.9289 291.657C56.5384 292.047 56.5384 292.681 56.9289 293.071C57.3195 293.462 57.9526 293.462 58.3431 293.071L64.7071 286.707ZM64 285L48 285L48 287L64 287L64 285Z" fill="#6A6D73"/>
<path d="M87.032 294.992H76.98L77.148 294.208C81.18 294.208 81.292 293.116 81.46 292.472L84.848 279.788C85.128 278.808 84.848 278.584 81.236 278.584L81.404 278.024C84.512 277.716 87.956 276.288 87.956 276.288L83.644 292.472C83.476 293.116 83.028 294.208 87.2 294.208L87.032 294.992ZM101.032 294.992H90.98L91.148 294.208C95.18 294.208 95.292 293.116 95.46 292.472L98.848 279.788C99.128 278.808 98.848 278.584 95.236 278.584L95.404 278.024C98.512 277.716 101.956 276.288 101.956 276.288L97.644 292.472C97.476 293.116 97.028 294.208 101.2 294.208L101.032 294.992ZM117.552 278.024C113.324 282.728 108.648 288.748 108.032 293.116C107.864 294.124 107.5 295.524 105.848 295.524C104.868 295.524 104.644 294.32 104.98 293.452C105.792 291.604 107.528 288.748 109.74 286.004C111.14 284.268 114.5 280.432 116.18 278.696H109.936C107.976 278.696 107.164 280.432 105.792 282.308L105.092 281.972L107.528 277.044H117.832L117.552 278.024ZM121.92 282.308H142.052V283.4H121.92V282.308ZM121.92 288.636H142.052V289.728H121.92V288.636ZM157.956 290.624C156.976 294.208 152.832 295.524 150.648 295.524C148.016 295.524 145.356 293.788 146.084 290.82C146.756 288.412 149.584 286.676 151.572 286.004C149.584 284.716 148.772 283.288 149.332 281.216C149.92 278.92 152.664 276.512 156.164 276.512C158.796 276.512 160.476 278.808 159.888 280.992C159.384 282.84 157.144 284.268 155.38 285.136C157.312 286.116 158.74 287.768 157.956 290.624ZM158.068 280.768C158.572 279.004 157.592 277.268 155.492 277.268C154.092 277.268 151.74 278.472 151.124 280.656C150.536 282.952 153 283.512 154.736 284.716C155.828 284.268 157.48 283.176 158.068 280.768ZM156.164 291.156C156.92 288.328 153.98 287.544 152.16 286.452C150.256 287.208 148.772 288.972 148.24 291.044C147.792 292.584 148.24 294.656 151.068 294.656C154.036 294.656 155.772 292.584 156.164 291.156ZM181.532 279.34L174.756 286.004L181.532 292.92L180.776 293.676L174 286.788L167.196 293.564L166.44 292.808L173.216 286.004L166.44 279.34L167.196 278.472L174 285.248L180.776 278.584L181.532 279.34ZM199.032 294.992H188.98L189.148 294.208C193.18 294.208 193.292 293.116 193.46 292.472L196.848 279.788C197.128 278.808 196.848 278.584 193.236 278.584L193.404 278.024C196.512 277.716 199.956 276.288 199.956 276.288L195.644 292.472C195.476 293.116 195.028 294.208 199.2 294.208L199.032 294.992ZM214.068 290.512H211.436L210.736 293.116C210.456 294.012 211.548 294.124 212.64 294.124L212.444 294.992H205.528L205.752 294.124C207.404 294.124 208.384 293.676 208.608 292.808L209.252 290.512H202.476L202.756 289.42L214.348 276.288H215.216L211.772 289.308H214.404L214.068 290.512ZM209.588 289.308L212.108 279.9L203.904 289.308H209.588ZM240.052 286.564H230.644V296.196H229.328V286.564H219.92V285.472H229.328V275.952H230.644V285.472H240.052V286.564ZM256.068 289.308C255.144 292.584 251.42 295.524 247.696 295.524C244.644 295.524 243.412 293.34 243.804 291.912C244 291.044 244.588 290.4 245.568 290.4C246.436 290.4 246.772 291.156 246.66 291.716C246.548 292.136 246.016 292.808 245.904 293.228C245.68 294.012 246.828 294.656 247.92 294.656C251.308 294.656 252.904 291.716 253.492 289.42C254.108 287.208 254.052 284.492 251.196 284.492C249.124 284.492 247.64 285.472 246.492 286.564L245.792 286.34L246.324 285.136L248.844 277.044H258.588L257.048 278.92H249.18L247.22 285.024C248.424 284.268 249.572 283.624 251.756 283.624C255.592 283.624 256.796 286.452 256.068 289.308Z" fill="#232426"/>
</svg>
