<svg width="535" height="319" viewBox="0 0 535 319" fill="none" xmlns="http://www.w3.org/2000/svg">
<rect x="111" y="14" width="97" height="42" rx="8" fill="#F287B6" fill-opacity="0.2"/>
<path d="M135.18 39.176C134.368 42.34 130.812 44.524 127.088 44.524C125.548 44.524 122.692 43.432 123.028 40.912C123.196 40.156 123.98 39.4 124.848 39.4C125.828 39.4 126.108 40.38 125.996 40.912C125.884 41.248 125.324 41.584 125.436 42.116C125.436 43.32 125.884 43.656 127.536 43.656C130.7 43.656 131.904 41.584 132.492 39.512C133.752 34.808 130.42 34.92 129.776 35.004C128.292 35.228 127.956 35.116 128.124 34.584C128.236 34.024 128.796 33.716 130 34.136C130.588 34.248 133.5 33.38 134.368 30.104C135.012 27.696 134.48 26.38 132.296 26.38C130.532 26.38 129.496 27.36 129.272 28.228C129.16 28.676 129.272 29.012 129.16 29.432C128.936 30.216 128.012 30.524 127.592 30.524C126.92 30.524 126.5 30.104 126.64 29.432C127.256 27.248 130.196 25.512 132.604 25.512C135.46 25.512 137.476 27.36 136.776 30.104C136.048 32.624 132.828 34.136 130.98 34.584C133.584 34.92 135.936 36.432 135.18 39.176ZM139.996 32.4C140.864 31.42 142.18 29.544 143.832 29.544C145.568 29.544 146.772 31.504 146.66 32.82C147.444 31.952 148.956 29.544 151.028 29.544C153.016 29.544 153.324 31.42 153.24 32.288C153.128 33.268 152.568 33.492 151.924 33.492C151.364 33.492 150.944 33.044 150.944 32.624C150.944 32.176 151.14 31.616 151.476 31.616C151.7 31.196 151.588 30.748 150.72 30.748C149.824 30.748 147.976 32.4 146.772 36.012C145.568 39.624 145.344 42.228 147.22 42.228C149.068 42.228 150.608 40.268 151.14 39.288L151.812 39.82C151.252 41.024 149.18 43.544 147.332 43.544C145.568 43.544 144.476 42.34 144.476 40.604C143.832 41.92 141.844 43.544 139.884 43.544C138.344 43.544 137.476 42.34 137.476 41.36C137.476 40.156 137.812 39.624 138.68 39.624C139.548 39.624 139.996 40.156 139.996 40.716C139.996 41.248 139.772 41.808 139.24 41.808C139.016 43.012 141.956 42.564 143.048 40.492C144.028 38.504 145.344 33.828 145.456 32.82C145.568 31.84 144.588 30.636 143.72 30.636C142.404 30.636 141.088 32.4 140.528 32.932L139.996 32.4ZM157.736 34.472H177.868V35.564H157.736V34.472ZM193.94 39.064L191.308 43.992H181.172C182.18 41.584 185.456 38.84 188.592 36.208C191.112 34.136 192.96 32.512 193.604 30.104C194.22 27.808 193.296 26.38 191.112 26.38C189.992 26.38 187.864 27.024 187.5 28.34C187.276 29.208 188.088 29.124 187.752 30.328C187.5 31.196 186.492 31.616 186.072 31.616C184.98 31.616 184.756 30.86 185.036 29.88C185.624 27.696 188.9 25.512 191.644 25.512C195.032 25.512 196.796 27.584 196.124 30.104C195.368 32.82 192.736 34.472 190.552 36.124C186.408 39.064 184 41.136 183.216 42.228H188.704C190.104 42.228 191.112 42.228 193.464 38.84L193.94 39.064Z" fill="#232426"/>
<path d="M163.92 146.472H184.052V147.564H163.92V146.472ZM200.124 151.064L197.492 155.992H187.356C188.364 153.584 191.64 150.84 194.776 148.208C197.296 146.136 199.144 144.512 199.788 142.104C200.404 139.808 199.48 138.38 197.296 138.38C196.176 138.38 194.048 139.024 193.684 140.34C193.46 141.208 194.272 141.124 193.936 142.328C193.684 143.196 192.676 143.616 192.256 143.616C191.164 143.616 190.94 142.86 191.22 141.88C191.808 139.696 195.084 137.512 197.828 137.512C201.216 137.512 202.98 139.584 202.308 142.104C201.552 144.82 198.92 146.472 196.736 148.124C192.592 151.064 190.184 153.136 189.4 154.228H194.888C196.288 154.228 197.296 154.228 199.648 150.84L200.124 151.064ZM204.996 144.4C205.864 143.42 207.18 141.544 208.832 141.544C210.568 141.544 211.772 143.504 211.66 144.82C212.444 143.952 213.956 141.544 216.028 141.544C218.016 141.544 218.324 143.42 218.24 144.288C218.128 145.268 217.568 145.492 216.924 145.492C216.364 145.492 215.944 145.044 215.944 144.624C215.944 144.176 216.14 143.616 216.476 143.616C216.7 143.196 216.588 142.748 215.72 142.748C214.824 142.748 212.976 144.4 211.772 148.012C210.568 151.624 210.344 154.228 212.22 154.228C214.068 154.228 215.608 152.268 216.14 151.288L216.812 151.82C216.252 153.024 214.18 155.544 212.332 155.544C210.568 155.544 209.476 154.34 209.476 152.604C208.832 153.92 206.844 155.544 204.884 155.544C203.344 155.544 202.476 154.34 202.476 153.36C202.476 152.156 202.812 151.624 203.68 151.624C204.548 151.624 204.996 152.156 204.996 152.716C204.996 153.248 204.772 153.808 204.24 153.808C204.016 155.012 206.956 154.564 208.048 152.492C209.028 150.504 210.344 145.828 210.456 144.82C210.568 143.84 209.588 142.636 208.72 142.636C207.404 142.636 206.088 144.4 205.528 144.932L204.996 144.4ZM242.868 147.564H233.46V157.196H232.144V147.564H222.736V146.472H232.144V136.952H233.46V146.472H242.868V147.564ZM258.548 149.972C257.568 153.584 254.516 156.524 250.904 156.524C247.516 156.524 246.284 152.716 247.516 148.012C249.308 141.208 254.46 137.512 257.848 137.512C260.032 137.512 260.956 138.604 260.592 139.92C260.424 140.676 259.808 141.208 258.94 141.208C256.756 141.208 258.66 138.492 256.924 138.492C253.648 138.492 250.904 144.624 250.344 146.808C251.716 145.716 253.368 144.82 255.104 144.82C258.408 144.82 259.22 147.452 258.548 149.972ZM256.056 150.084C256.644 147.788 256.644 146.024 254.348 146.024C253.256 146.024 251.016 146.808 250.036 148.012C248.72 151.932 248.608 155.656 251.24 155.656C253.956 155.656 255.384 152.492 256.056 150.084Z" fill="#232426"/>
<path d="M163.92 177.472H184.052V178.564H163.92V177.472ZM200.124 182.064L197.492 186.992H187.356C188.364 184.584 191.64 181.84 194.776 179.208C197.296 177.136 199.144 175.512 199.788 173.104C200.404 170.808 199.48 169.38 197.296 169.38C196.176 169.38 194.048 170.024 193.684 171.34C193.46 172.208 194.272 172.124 193.936 173.328C193.684 174.196 192.676 174.616 192.256 174.616C191.164 174.616 190.94 173.86 191.22 172.88C191.808 170.696 195.084 168.512 197.828 168.512C201.216 168.512 202.98 170.584 202.308 173.104C201.552 175.82 198.92 177.472 196.736 179.124C192.592 182.064 190.184 184.136 189.4 185.228H194.888C196.288 185.228 197.296 185.228 199.648 181.84L200.124 182.064ZM204.996 175.4C205.864 174.42 207.18 172.544 208.832 172.544C210.568 172.544 211.772 174.504 211.66 175.82C212.444 174.952 213.956 172.544 216.028 172.544C218.016 172.544 218.324 174.42 218.24 175.288C218.128 176.268 217.568 176.492 216.924 176.492C216.364 176.492 215.944 176.044 215.944 175.624C215.944 175.176 216.14 174.616 216.476 174.616C216.7 174.196 216.588 173.748 215.72 173.748C214.824 173.748 212.976 175.4 211.772 179.012C210.568 182.624 210.344 185.228 212.22 185.228C214.068 185.228 215.608 183.268 216.14 182.288L216.812 182.82C216.252 184.024 214.18 186.544 212.332 186.544C210.568 186.544 209.476 185.34 209.476 183.604C208.832 184.92 206.844 186.544 204.884 186.544C203.344 186.544 202.476 185.34 202.476 184.36C202.476 183.156 202.812 182.624 203.68 182.624C204.548 182.624 204.996 183.156 204.996 183.716C204.996 184.248 204.772 184.808 204.24 184.808C204.016 186.012 206.956 185.564 208.048 183.492C209.028 181.504 210.344 176.828 210.456 175.82C210.568 174.84 209.588 173.636 208.72 173.636C207.404 173.636 206.088 175.4 205.528 175.932L204.996 175.4ZM242.868 178.564H233.46V188.196H232.144V178.564H222.736V177.472H232.144V167.952H233.46V177.472H242.868V178.564ZM258.94 182.064L256.308 186.992H246.172C247.18 184.584 250.456 181.84 253.592 179.208C256.112 177.136 257.96 175.512 258.604 173.104C259.22 170.808 258.296 169.38 256.112 169.38C254.992 169.38 252.864 170.024 252.5 171.34C252.276 172.208 253.088 172.124 252.752 173.328C252.5 174.196 251.492 174.616 251.072 174.616C249.98 174.616 249.756 173.86 250.036 172.88C250.624 170.696 253.9 168.512 256.644 168.512C260.032 168.512 261.796 170.584 261.124 173.104C260.368 175.82 257.736 177.472 255.552 179.124C251.408 182.064 249 184.136 248.216 185.228H253.704C255.104 185.228 256.112 185.228 258.464 181.84L258.94 182.064Z" fill="#232426"/>
<rect x="232" y="199" width="38" height="42" rx="8" fill="#F287B6" fill-opacity="0.2"/>
<path d="M256.068 224.512H253.436L252.736 227.116C252.456 228.012 253.548 228.124 254.64 228.124L254.444 228.992H247.528L247.752 228.124C249.404 228.124 250.384 227.676 250.608 226.808L251.252 224.512H244.476L244.756 223.42L256.348 210.288H257.216L253.772 223.308H256.404L256.068 224.512ZM251.588 223.308L254.108 213.9L245.904 223.308H251.588Z" fill="#232426"/>
<path d="M134.18 82.176C133.368 85.34 129.812 87.524 126.088 87.524C124.548 87.524 121.692 86.432 122.028 83.912C122.196 83.156 122.98 82.4 123.848 82.4C124.828 82.4 125.108 83.38 124.996 83.912C124.884 84.248 124.324 84.584 124.436 85.116C124.436 86.32 124.884 86.656 126.536 86.656C129.7 86.656 130.904 84.584 131.492 82.512C132.752 77.808 129.42 77.92 128.776 78.004C127.292 78.228 126.956 78.116 127.124 77.584C127.236 77.024 127.796 76.716 129 77.136C129.588 77.248 132.5 76.38 133.368 73.104C134.012 70.696 133.48 69.38 131.296 69.38C129.532 69.38 128.496 70.36 128.272 71.228C128.16 71.676 128.272 72.012 128.16 72.432C127.936 73.216 127.012 73.524 126.592 73.524C125.92 73.524 125.5 73.104 125.64 72.432C126.256 70.248 129.196 68.512 131.604 68.512C134.46 68.512 136.476 70.36 135.776 73.104C135.048 75.624 131.828 77.136 129.98 77.584C132.584 77.92 134.936 79.432 134.18 82.176ZM138.996 75.4C139.864 74.42 141.18 72.544 142.832 72.544C144.568 72.544 145.772 74.504 145.66 75.82C146.444 74.952 147.956 72.544 150.028 72.544C152.016 72.544 152.324 74.42 152.24 75.288C152.128 76.268 151.568 76.492 150.924 76.492C150.364 76.492 149.944 76.044 149.944 75.624C149.944 75.176 150.14 74.616 150.476 74.616C150.7 74.196 150.588 73.748 149.72 73.748C148.824 73.748 146.976 75.4 145.772 79.012C144.568 82.624 144.344 85.228 146.22 85.228C148.068 85.228 149.608 83.268 150.14 82.288L150.812 82.82C150.252 84.024 148.18 86.544 146.332 86.544C144.568 86.544 143.476 85.34 143.476 83.604C142.832 84.92 140.844 86.544 138.884 86.544C137.344 86.544 136.476 85.34 136.476 84.36C136.476 83.156 136.812 82.624 137.68 82.624C138.548 82.624 138.996 83.156 138.996 83.716C138.996 84.248 138.772 84.808 138.24 84.808C138.016 86.012 140.956 85.564 142.048 83.492C143.028 81.504 144.344 76.828 144.456 75.82C144.568 74.84 143.588 73.636 142.72 73.636C141.404 73.636 140.088 75.4 139.528 75.932L138.996 75.4ZM160.88 73.496L160.712 76.996H153.684C153.936 75.596 155.364 74.224 156.792 72.572C157.884 71.312 158.696 70.5 158.696 68.764C158.696 67.336 157.996 66.3 156.736 66.3C156.12 66.3 155.084 66.86 155.084 67.448C155.084 68.204 156.344 67.616 156.344 68.988C156.344 69.52 155.812 70.024 155.14 70.024C154.44 70.024 153.992 69.296 153.992 68.708C153.992 67.392 155 65.712 157.324 65.712C159.312 65.712 160.88 67.056 160.88 68.764C160.88 70.388 159.508 71.48 158.052 72.628C155.924 74.28 155.644 74.756 155.308 75.316H158.416C159.368 75.316 160.012 75.316 160.488 73.44L160.88 73.496ZM165.76 77.472H185.892V78.564H165.76V77.472ZM201.908 81.308C200.984 84.584 197.26 87.524 193.536 87.524C190.484 87.524 189.252 85.34 189.644 83.912C189.84 83.044 190.428 82.4 191.408 82.4C192.276 82.4 192.612 83.156 192.5 83.716C192.388 84.136 191.856 84.808 191.744 85.228C191.52 86.012 192.668 86.656 193.76 86.656C197.148 86.656 198.744 83.716 199.332 81.42C199.948 79.208 199.892 76.492 197.036 76.492C194.964 76.492 193.48 77.472 192.332 78.564L191.632 78.34L192.164 77.136L194.684 69.044H204.428L202.888 70.92H195.02L193.06 77.024C194.264 76.268 195.412 75.624 197.596 75.624C201.432 75.624 202.636 78.452 201.908 81.308ZM206.836 75.4C207.704 74.42 209.02 72.544 210.672 72.544C212.408 72.544 213.612 74.504 213.5 75.82C214.284 74.952 215.796 72.544 217.868 72.544C219.856 72.544 220.164 74.42 220.08 75.288C219.968 76.268 219.408 76.492 218.764 76.492C218.204 76.492 217.784 76.044 217.784 75.624C217.784 75.176 217.98 74.616 218.316 74.616C218.54 74.196 218.428 73.748 217.56 73.748C216.664 73.748 214.816 75.4 213.612 79.012C212.408 82.624 212.184 85.228 214.06 85.228C215.908 85.228 217.448 83.268 217.98 82.288L218.652 82.82C218.092 84.024 216.02 86.544 214.172 86.544C212.408 86.544 211.316 85.34 211.316 83.604C210.672 84.92 208.684 86.544 206.724 86.544C205.184 86.544 204.316 85.34 204.316 84.36C204.316 83.156 204.652 82.624 205.52 82.624C206.388 82.624 206.836 83.156 206.836 83.716C206.836 84.248 206.612 84.808 206.08 84.808C205.856 86.012 208.796 85.564 209.888 83.492C210.868 81.504 212.184 76.828 212.296 75.82C212.408 74.84 211.428 73.636 210.56 73.636C209.244 73.636 207.928 75.4 207.368 75.932L206.836 75.4ZM244.708 78.564H235.3V88.196H233.984V78.564H224.576V77.472H233.984V67.952H235.3V77.472H244.708V78.564ZM260.388 80.972C259.408 84.584 256.356 87.524 252.744 87.524C249.356 87.524 248.124 83.716 249.356 79.012C251.148 72.208 256.3 68.512 259.688 68.512C261.872 68.512 262.796 69.604 262.432 70.92C262.264 71.676 261.648 72.208 260.78 72.208C258.596 72.208 260.5 69.492 258.764 69.492C255.488 69.492 252.744 75.624 252.184 77.808C253.556 76.716 255.208 75.82 256.944 75.82C260.248 75.82 261.06 78.452 260.388 80.972ZM257.896 81.084C258.484 78.788 258.484 77.024 256.188 77.024C255.096 77.024 252.856 77.808 251.876 79.012C250.56 82.932 250.448 86.656 253.08 86.656C255.796 86.656 257.224 83.492 257.896 81.084Z" fill="#232426"/>
<path d="M50.996 75.4C51.864 74.42 53.18 72.544 54.832 72.544C56.568 72.544 57.772 74.504 57.66 75.82C58.444 74.952 59.956 72.544 62.028 72.544C64.016 72.544 64.324 74.42 64.24 75.288C64.128 76.268 63.568 76.492 62.924 76.492C62.364 76.492 61.944 76.044 61.944 75.624C61.944 75.176 62.14 74.616 62.476 74.616C62.7 74.196 62.588 73.748 61.72 73.748C60.824 73.748 58.976 75.4 57.772 79.012C56.568 82.624 56.344 85.228 58.22 85.228C60.068 85.228 61.608 83.268 62.14 82.288L62.812 82.82C62.252 84.024 60.18 86.544 58.332 86.544C56.568 86.544 55.476 85.34 55.476 83.604C54.832 84.92 52.844 86.544 50.884 86.544C49.344 86.544 48.476 85.34 48.476 84.36C48.476 83.156 48.812 82.624 49.68 82.624C50.548 82.624 50.996 83.156 50.996 83.716C50.996 84.248 50.772 84.808 50.24 84.808C50.016 86.012 52.956 85.564 54.048 83.492C55.028 81.504 56.344 76.828 56.456 75.82C56.568 74.84 55.588 73.636 54.72 73.636C53.404 73.636 52.088 75.4 51.528 75.932L50.996 75.4ZM68.7364 77.472H88.8684V78.564H68.7364V77.472ZM103.848 86.992H93.7964L93.9644 86.208C97.9964 86.208 98.1084 85.116 98.2764 84.472L101.664 71.788C101.944 70.808 101.664 70.584 98.0524 70.584L98.2204 70.024C101.328 69.716 104.772 68.288 104.772 68.288L100.46 84.472C100.292 85.116 99.8444 86.208 104.016 86.208L103.848 86.992Z" fill="#232426"/>
<path d="M132.18 114.176C131.368 117.34 127.812 119.524 124.088 119.524C122.548 119.524 119.692 118.432 120.028 115.912C120.196 115.156 120.98 114.4 121.848 114.4C122.828 114.4 123.108 115.38 122.996 115.912C122.884 116.248 122.324 116.584 122.436 117.116C122.436 118.32 122.884 118.656 124.536 118.656C127.7 118.656 128.904 116.584 129.492 114.512C130.752 109.808 127.42 109.92 126.776 110.004C125.292 110.228 124.956 110.116 125.124 109.584C125.236 109.024 125.796 108.716 127 109.136C127.588 109.248 130.5 108.38 131.368 105.104C132.012 102.696 131.48 101.38 129.296 101.38C127.532 101.38 126.496 102.36 126.272 103.228C126.16 103.676 126.272 104.012 126.16 104.432C125.936 105.216 125.012 105.524 124.592 105.524C123.92 105.524 123.5 105.104 123.64 104.432C124.256 102.248 127.196 100.512 129.604 100.512C132.46 100.512 134.476 102.36 133.776 105.104C133.048 107.624 129.828 109.136 127.98 109.584C130.584 109.92 132.936 111.432 132.18 114.176ZM136.996 107.4C137.864 106.42 139.18 104.544 140.832 104.544C142.568 104.544 143.772 106.504 143.66 107.82C144.444 106.952 145.956 104.544 148.028 104.544C150.016 104.544 150.324 106.42 150.24 107.288C150.128 108.268 149.568 108.492 148.924 108.492C148.364 108.492 147.944 108.044 147.944 107.624C147.944 107.176 148.14 106.616 148.476 106.616C148.7 106.196 148.588 105.748 147.72 105.748C146.824 105.748 144.976 107.4 143.772 111.012C142.568 114.624 142.344 117.228 144.22 117.228C146.068 117.228 147.608 115.268 148.14 114.288L148.812 114.82C148.252 116.024 146.18 118.544 144.332 118.544C142.568 118.544 141.476 117.34 141.476 115.604C140.832 116.92 138.844 118.544 136.884 118.544C135.344 118.544 134.476 117.34 134.476 116.36C134.476 115.156 134.812 114.624 135.68 114.624C136.548 114.624 136.996 115.156 136.996 115.716C136.996 116.248 136.772 116.808 136.24 116.808C136.016 118.012 138.956 117.564 140.048 115.492C141.028 113.504 142.344 108.828 142.456 107.82C142.568 106.84 141.588 105.636 140.72 105.636C139.404 105.636 138.088 107.4 137.528 107.932L136.996 107.4ZM158.88 105.496L158.712 108.996H151.684C151.936 107.596 153.364 106.224 154.792 104.572C155.884 103.312 156.696 102.5 156.696 100.764C156.696 99.336 155.996 98.3 154.736 98.3C154.12 98.3 153.084 98.86 153.084 99.448C153.084 100.204 154.344 99.616 154.344 100.988C154.344 101.52 153.812 102.024 153.14 102.024C152.44 102.024 151.992 101.296 151.992 100.708C151.992 99.392 153 97.712 155.324 97.712C157.312 97.712 158.88 99.056 158.88 100.764C158.88 102.388 157.508 103.48 156.052 104.628C153.924 106.28 153.644 106.756 153.308 107.316H156.416C157.368 107.316 158.012 107.316 158.488 105.44L158.88 105.496ZM163.76 109.472H183.892V110.564H163.76V109.472ZM200.02 114.176C199.208 117.34 195.652 119.524 191.928 119.524C190.388 119.524 187.532 118.432 187.868 115.912C188.036 115.156 188.82 114.4 189.688 114.4C190.668 114.4 190.948 115.38 190.836 115.912C190.724 116.248 190.164 116.584 190.276 117.116C190.276 118.32 190.724 118.656 192.376 118.656C195.54 118.656 196.744 116.584 197.332 114.512C198.592 109.808 195.26 109.92 194.616 110.004C193.132 110.228 192.796 110.116 192.964 109.584C193.076 109.024 193.636 108.716 194.84 109.136C195.428 109.248 198.34 108.38 199.208 105.104C199.852 102.696 199.32 101.38 197.136 101.38C195.372 101.38 194.336 102.36 194.112 103.228C194 103.676 194.112 104.012 194 104.432C193.776 105.216 192.852 105.524 192.432 105.524C191.76 105.524 191.34 105.104 191.48 104.432C192.096 102.248 195.036 100.512 197.444 100.512C200.3 100.512 202.316 102.36 201.616 105.104C200.888 107.624 197.668 109.136 195.82 109.584C198.424 109.92 200.776 111.432 200.02 114.176ZM204.836 107.4C205.704 106.42 207.02 104.544 208.672 104.544C210.408 104.544 211.612 106.504 211.5 107.82C212.284 106.952 213.796 104.544 215.868 104.544C217.856 104.544 218.164 106.42 218.08 107.288C217.968 108.268 217.408 108.492 216.764 108.492C216.204 108.492 215.784 108.044 215.784 107.624C215.784 107.176 215.98 106.616 216.316 106.616C216.54 106.196 216.428 105.748 215.56 105.748C214.664 105.748 212.816 107.4 211.612 111.012C210.408 114.624 210.184 117.228 212.06 117.228C213.908 117.228 215.448 115.268 215.98 114.288L216.652 114.82C216.092 116.024 214.02 118.544 212.172 118.544C210.408 118.544 209.316 117.34 209.316 115.604C208.672 116.92 206.684 118.544 204.724 118.544C203.184 118.544 202.316 117.34 202.316 116.36C202.316 115.156 202.652 114.624 203.52 114.624C204.388 114.624 204.836 115.156 204.836 115.716C204.836 116.248 204.612 116.808 204.08 116.808C203.856 118.012 206.796 117.564 207.888 115.492C208.868 113.504 210.184 108.828 210.296 107.82C210.408 106.84 209.428 105.636 208.56 105.636C207.244 105.636 205.928 107.4 205.368 107.932L204.836 107.4Z" fill="#232426"/>
<line x1="112" y1="128.5" x2="264" y2="128.5" stroke="#232426"/>
<line x1="112" y1="196.5" x2="264" y2="196.5" stroke="#232426"/>
<path d="M291 39L296 41.8867L296 36.1132L291 39ZM314 38.5L295.5 38.5L295.5 39.5L314 39.5L314 38.5Z" fill="#E54D90"/>
<path d="M339.496 29.544V36.576H333.352V39H341.92V40.488H322.96V39H331.528V36.576H325.408V29.544H339.496ZM324.736 42.432H331.624V49.752H329.848V43.92H324.736V42.432ZM337.72 35.112V30.984H327.16V35.112H337.72ZM331.96 48.6C333.144 48.136 334.048 47.432 334.672 46.488C335.312 45.528 335.632 44.496 335.632 43.392V41.976H337.408V43.392C337.408 44.512 337.72 45.552 338.344 46.512C338.984 47.456 339.896 48.152 341.08 48.6L340.048 49.92C339.2 49.584 338.48 49.104 337.888 48.48C337.296 47.856 336.84 47.136 336.52 46.32C336.2 47.136 335.744 47.848 335.152 48.456C334.56 49.08 333.84 49.568 332.992 49.92L331.96 48.6Z" fill="#232426"/>
<path d="M291 220L296 222.887L296 217.113L291 220ZM314 219.5L295.5 219.5L295.5 220.5L314 220.5L314 219.5Z" fill="#E54D90"/>
<path d="M339.088 209.728V218.176H342.472V219.688H339.088V230.752H337.288V209.728H339.088ZM323.848 211.816H325.624V223.912C329 223.912 332.216 223.592 335.272 222.952L335.488 224.464C332.368 225.088 329.04 225.4 325.504 225.4H323.848V211.816ZM354.281 211.816V217.456H359.393V209.728H361.169V230.776H359.393V218.944H354.281V225.424H344.777V211.816H354.281ZM352.505 223.984V213.28H346.553V223.984H352.505ZM377.297 211.912V213.424H372.305V216.256C372.305 217.408 372.561 218.56 373.073 219.712C373.601 220.848 374.297 221.864 375.161 222.76C376.025 223.64 376.961 224.304 377.969 224.752L376.937 226.192C375.721 225.616 374.617 224.752 373.625 223.6C372.633 222.448 371.897 221.152 371.417 219.712C370.937 221.264 370.201 222.664 369.209 223.912C368.233 225.16 367.145 226.088 365.945 226.696L364.913 225.28C365.889 224.8 366.809 224.08 367.673 223.12C368.537 222.144 369.225 221.048 369.737 219.832C370.249 218.616 370.505 217.424 370.505 216.256V213.424H365.561V211.912H377.297ZM380.225 209.752H382.025V230.752H380.225V209.752Z" fill="#232426"/>
<path d="M291 110L296 112.887L296 107.113L291 110ZM314 109.5L295.5 109.5L295.5 110.5L314 110.5L314 109.5Z" fill="#E54D90"/>
<path d="M333.136 99.104C330.376 101.432 327.52 105.104 326.008 110.36C324.04 117.656 326.824 121.424 326.992 121.784C327.136 121.976 326.872 122.264 326.728 122.168C325.456 121.232 322.936 116.72 324.616 110.36C326.392 104.072 331.648 99.56 332.968 98.816C333.184 98.624 333.424 98.912 333.136 99.104ZM336.568 108.2C337.312 107.36 338.44 105.752 339.856 105.752C341.344 105.752 342.376 107.432 342.28 108.56C342.952 107.816 344.248 105.752 346.024 105.752C347.728 105.752 347.992 107.36 347.92 108.104C347.824 108.944 347.344 109.136 346.792 109.136C346.312 109.136 345.952 108.752 345.952 108.392C345.952 108.008 346.12 107.528 346.408 107.528C346.6 107.168 346.504 106.784 345.76 106.784C344.992 106.784 343.408 108.2 342.376 111.296C341.344 114.392 341.152 116.624 342.76 116.624C344.344 116.624 345.664 114.944 346.12 114.104L346.696 114.56C346.216 115.592 344.44 117.752 342.856 117.752C341.344 117.752 340.408 116.72 340.408 115.232C339.856 116.36 338.152 117.752 336.472 117.752C335.152 117.752 334.408 116.72 334.408 115.88C334.408 114.848 334.696 114.392 335.44 114.392C336.184 114.392 336.568 114.848 336.568 115.328C336.568 115.784 336.376 116.264 335.92 116.264C335.728 117.296 338.248 116.912 339.184 115.136C340.024 113.432 341.152 109.424 341.248 108.56C341.344 107.72 340.504 106.688 339.76 106.688C338.632 106.688 337.504 108.2 337.024 108.656L336.568 108.2ZM351.774 109.976H369.03V110.912H351.774V109.976ZM381.87 118.136H373.254L373.398 117.464C376.854 117.464 376.95 116.528 377.094 115.976L379.998 105.104C380.238 104.264 379.998 104.072 376.902 104.072L377.046 103.592C379.71 103.328 382.662 102.104 382.662 102.104L378.966 115.976C378.822 116.528 378.438 117.464 382.014 117.464L381.87 118.136ZM393.774 110.36C392.094 116.72 387.222 121.232 385.47 122.168C385.158 122.264 385.062 121.976 385.398 121.784C385.758 121.424 390.486 117.656 392.382 110.36C393.774 105.104 392.79 101.432 391.35 99.104C391.254 98.912 391.47 98.624 391.614 98.816C392.646 99.56 395.454 104.072 393.774 110.36ZM414.87 104.72L409.062 110.432L414.87 116.36L414.222 117.008L408.414 111.104L402.582 116.912L401.934 116.264L407.742 110.432L401.934 104.72L402.582 103.976L408.414 109.784L414.222 104.072L414.87 104.72ZM430.854 114.008C430.158 116.72 427.11 118.592 423.918 118.592C422.598 118.592 420.15 117.656 420.438 115.496C420.582 114.848 421.254 114.2 421.998 114.2C422.838 114.2 423.078 115.04 422.982 115.496C422.886 115.784 422.406 116.072 422.502 116.528C422.502 117.56 422.886 117.848 424.302 117.848C427.014 117.848 428.046 116.072 428.55 114.296C429.63 110.264 426.774 110.36 426.222 110.432C424.95 110.624 424.662 110.528 424.806 110.072C424.902 109.592 425.382 109.328 426.414 109.688C426.918 109.784 429.414 109.04 430.158 106.232C430.71 104.168 430.254 103.04 428.382 103.04C426.87 103.04 425.982 103.88 425.79 104.624C425.694 105.008 425.79 105.296 425.694 105.656C425.502 106.328 424.71 106.592 424.35 106.592C423.774 106.592 423.414 106.232 423.534 105.656C424.062 103.784 426.582 102.296 428.646 102.296C431.094 102.296 432.822 103.88 432.222 106.232C431.598 108.392 428.838 109.688 427.254 110.072C429.486 110.36 431.502 111.656 430.854 114.008ZM434.982 108.2C435.726 107.36 436.854 105.752 438.27 105.752C439.758 105.752 440.79 107.432 440.694 108.56C441.366 107.816 442.662 105.752 444.438 105.752C446.142 105.752 446.406 107.36 446.334 108.104C446.238 108.944 445.758 109.136 445.206 109.136C444.726 109.136 444.366 108.752 444.366 108.392C444.366 108.008 444.534 107.528 444.822 107.528C445.014 107.168 444.918 106.784 444.174 106.784C443.406 106.784 441.822 108.2 440.79 111.296C439.758 114.392 439.566 116.624 441.174 116.624C442.758 116.624 444.078 114.944 444.534 114.104L445.11 114.56C444.63 115.592 442.854 117.752 441.27 117.752C439.758 117.752 438.822 116.72 438.822 115.232C438.27 116.36 436.566 117.752 434.886 117.752C433.566 117.752 432.822 116.72 432.822 115.88C432.822 114.848 433.11 114.392 433.854 114.392C434.598 114.392 434.982 114.848 434.982 115.328C434.982 115.784 434.79 116.264 434.334 116.264C434.142 117.296 436.662 116.912 437.598 115.136C438.438 113.432 439.566 109.424 439.662 108.56C439.758 107.72 438.918 106.688 438.174 106.688C437.046 106.688 435.918 108.2 435.438 108.656L434.982 108.2Z" fill="#232426"/>
<path d="M291 178L296 180.887L296 175.113L291 178ZM314 177.5L295.5 177.5L295.5 178.5L314 178.5L314 177.5Z" fill="#E54D90"/>
<path d="M333.136 167.104C330.376 169.432 327.52 173.104 326.008 178.36C324.04 185.656 326.824 189.424 326.992 189.784C327.136 189.976 326.872 190.264 326.728 190.168C325.456 189.232 322.936 184.72 324.616 178.36C326.392 172.072 331.648 167.56 332.968 166.816C333.184 166.624 333.424 166.912 333.136 167.104ZM336.568 176.2C337.312 175.36 338.44 173.752 339.856 173.752C341.344 173.752 342.376 175.432 342.28 176.56C342.952 175.816 344.248 173.752 346.024 173.752C347.728 173.752 347.992 175.36 347.92 176.104C347.824 176.944 347.344 177.136 346.792 177.136C346.312 177.136 345.952 176.752 345.952 176.392C345.952 176.008 346.12 175.528 346.408 175.528C346.6 175.168 346.504 174.784 345.76 174.784C344.992 174.784 343.408 176.2 342.376 179.296C341.344 182.392 341.152 184.624 342.76 184.624C344.344 184.624 345.664 182.944 346.12 182.104L346.696 182.56C346.216 183.592 344.44 185.752 342.856 185.752C341.344 185.752 340.408 184.72 340.408 183.232C339.856 184.36 338.152 185.752 336.472 185.752C335.152 185.752 334.408 184.72 334.408 183.88C334.408 182.848 334.696 182.392 335.44 182.392C336.184 182.392 336.568 182.848 336.568 183.328C336.568 183.784 336.376 184.264 335.92 184.264C335.728 185.296 338.248 184.912 339.184 183.136C340.024 181.432 341.152 177.424 341.248 176.56C341.344 175.72 340.504 174.688 339.76 174.688C338.632 174.688 337.504 176.2 337.024 176.656L336.568 176.2ZM351.774 177.976H369.03V178.912H351.774V177.976ZM381.87 186.136H373.254L373.398 185.464C376.854 185.464 376.95 184.528 377.094 183.976L379.998 173.104C380.238 172.264 379.998 172.072 376.902 172.072L377.046 171.592C379.71 171.328 382.662 170.104 382.662 170.104L378.966 183.976C378.822 184.528 378.438 185.464 382.014 185.464L381.87 186.136ZM393.774 178.36C392.094 184.72 387.222 189.232 385.47 190.168C385.158 190.264 385.062 189.976 385.398 189.784C385.758 189.424 390.486 185.656 392.382 178.36C393.774 173.104 392.79 169.432 391.35 167.104C391.254 166.912 391.47 166.624 391.614 166.816C392.646 167.56 395.454 172.072 393.774 178.36ZM414.87 172.72L409.062 178.432L414.87 184.36L414.222 185.008L408.414 179.104L402.582 184.912L401.934 184.264L407.742 178.432L401.934 172.72L402.582 171.976L408.414 177.784L414.222 172.072L414.87 172.72ZM431.55 167.104C428.79 169.432 425.934 173.104 424.422 178.36C422.454 185.656 425.238 189.424 425.406 189.784C425.55 189.976 425.286 190.264 425.142 190.168C423.87 189.232 421.35 184.72 423.03 178.36C424.806 172.072 430.062 167.56 431.382 166.816C431.598 166.624 431.838 166.912 431.55 167.104ZM435.774 177.976H453.03V178.912H435.774V177.976ZM466.806 181.912L464.55 186.136H455.862C456.726 184.072 459.534 181.72 462.222 179.464C464.382 177.688 465.966 176.296 466.518 174.232C467.046 172.264 466.254 171.04 464.382 171.04C463.422 171.04 461.598 171.592 461.286 172.72C461.094 173.464 461.79 173.392 461.502 174.424C461.286 175.168 460.422 175.528 460.062 175.528C459.126 175.528 458.934 174.88 459.174 174.04C459.678 172.168 462.486 170.296 464.838 170.296C467.742 170.296 469.254 172.072 468.678 174.232C468.03 176.56 465.774 177.976 463.902 179.392C460.35 181.912 458.286 183.688 457.614 184.624H462.318C463.518 184.624 464.382 184.624 466.398 181.72L466.806 181.912ZM477.774 178.36C476.094 184.72 471.222 189.232 469.47 190.168C469.158 190.264 469.062 189.976 469.398 189.784C469.758 189.424 474.486 185.656 476.382 178.36C477.774 173.104 476.79 169.432 475.35 167.104C475.254 166.912 475.47 166.624 475.614 166.816C476.646 167.56 479.454 172.072 477.774 178.36Z" fill="#232426"/>
<path d="M139.772 59.428H112.164C115.636 62.816 117.4 70.46 117.4 75.5C117.4 80.512 115.216 86.728 110.848 89.584L110.288 88.828C113.452 86.532 115.328 80.848 115.328 75.5C115.328 70.46 113.676 61.724 110.288 59.428L110.848 58.336H139.772V59.428ZM137.028 59.428H114.348V58.336H137.028V59.428ZM151.028 59.428H128.348V58.336H151.028V59.428ZM165.028 59.428H142.348V58.336H165.028V59.428ZM179.028 59.428H156.348V58.336H179.028V59.428ZM193.028 59.428H170.348V58.336H193.028V59.428ZM207.028 59.428H184.348V58.336H207.028V59.428ZM221.028 59.428H198.348V58.336H221.028V59.428ZM235.028 59.428H212.348V58.336H235.028V59.428ZM249.028 59.428H226.348V58.336H249.028V59.428ZM263.028 59.428H240.348V58.336H263.028V59.428Z" fill="black"/>
<path d="M64.7071 286.707C65.0976 286.317 65.0976 285.683 64.7071 285.293L58.3431 278.929C57.9526 278.538 57.3195 278.538 56.9289 278.929C56.5384 279.319 56.5384 279.953 56.9289 280.343L62.5858 286L56.9289 291.657C56.5384 292.047 56.5384 292.681 56.9289 293.071C57.3195 293.462 57.9526 293.462 58.3431 293.071L64.7071 286.707ZM64 285L48 285L48 287L64 287L64 285Z" fill="#6A6D73"/>
<path d="M88.18 290.176C87.368 293.34 83.812 295.524 80.088 295.524C78.548 295.524 75.692 294.432 76.028 291.912C76.196 291.156 76.98 290.4 77.848 290.4C78.828 290.4 79.108 291.38 78.996 291.912C78.884 292.248 78.324 292.584 78.436 293.116C78.436 294.32 78.884 294.656 80.536 294.656C83.7 294.656 84.904 292.584 85.492 290.512C86.752 285.808 83.42 285.92 82.776 286.004C81.292 286.228 80.956 286.116 81.124 285.584C81.236 285.024 81.796 284.716 83 285.136C83.588 285.248 86.5 284.38 87.368 281.104C88.012 278.696 87.48 277.38 85.296 277.38C83.532 277.38 82.496 278.36 82.272 279.228C82.16 279.676 82.272 280.012 82.16 280.432C81.936 281.216 81.012 281.524 80.592 281.524C79.92 281.524 79.5 281.104 79.64 280.432C80.256 278.248 83.196 276.512 85.604 276.512C88.46 276.512 90.476 278.36 89.776 281.104C89.048 283.624 85.828 285.136 83.98 285.584C86.584 285.92 88.936 287.432 88.18 290.176ZM92.996 283.4C93.864 282.42 95.18 280.544 96.832 280.544C98.568 280.544 99.772 282.504 99.66 283.82C100.444 282.952 101.956 280.544 104.028 280.544C106.016 280.544 106.324 282.42 106.24 283.288C106.128 284.268 105.568 284.492 104.924 284.492C104.364 284.492 103.944 284.044 103.944 283.624C103.944 283.176 104.14 282.616 104.476 282.616C104.7 282.196 104.588 281.748 103.72 281.748C102.824 281.748 100.976 283.4 99.772 287.012C98.568 290.624 98.344 293.228 100.22 293.228C102.068 293.228 103.608 291.268 104.14 290.288L104.812 290.82C104.252 292.024 102.18 294.544 100.332 294.544C98.568 294.544 97.476 293.34 97.476 291.604C96.832 292.92 94.844 294.544 92.884 294.544C91.344 294.544 90.476 293.34 90.476 292.36C90.476 291.156 90.812 290.624 91.68 290.624C92.548 290.624 92.996 291.156 92.996 291.716C92.996 292.248 92.772 292.808 92.24 292.808C92.016 294.012 94.956 293.564 96.048 291.492C97.028 289.504 98.344 284.828 98.456 283.82C98.568 282.84 97.588 281.636 96.72 281.636C95.404 281.636 94.088 283.4 93.528 283.932L92.996 283.4ZM114.88 281.496L114.712 284.996H107.684C107.936 283.596 109.364 282.224 110.792 280.572C111.884 279.312 112.696 278.5 112.696 276.764C112.696 275.336 111.996 274.3 110.736 274.3C110.12 274.3 109.084 274.86 109.084 275.448C109.084 276.204 110.344 275.616 110.344 276.988C110.344 277.52 109.812 278.024 109.14 278.024C108.44 278.024 107.992 277.296 107.992 276.708C107.992 275.392 109 273.712 111.324 273.712C113.312 273.712 114.88 275.056 114.88 276.764C114.88 278.388 113.508 279.48 112.052 280.628C109.924 282.28 109.644 282.756 109.308 283.316H112.416C113.368 283.316 114.012 283.316 114.488 281.44L114.88 281.496ZM119.76 285.472H139.892V286.564H119.76V285.472ZM155.908 289.308C154.984 292.584 151.26 295.524 147.536 295.524C144.484 295.524 143.252 293.34 143.644 291.912C143.84 291.044 144.428 290.4 145.408 290.4C146.276 290.4 146.612 291.156 146.5 291.716C146.388 292.136 145.856 292.808 145.744 293.228C145.52 294.012 146.668 294.656 147.76 294.656C151.148 294.656 152.744 291.716 153.332 289.42C153.948 287.208 153.892 284.492 151.036 284.492C148.964 284.492 147.48 285.472 146.332 286.564L145.632 286.34L146.164 285.136L148.684 277.044H158.428L156.888 278.92H149.02L147.06 285.024C148.264 284.268 149.412 283.624 151.596 283.624C155.432 283.624 156.636 286.452 155.908 289.308ZM160.836 283.4C161.704 282.42 163.02 280.544 164.672 280.544C166.408 280.544 167.612 282.504 167.5 283.82C168.284 282.952 169.796 280.544 171.868 280.544C173.856 280.544 174.164 282.42 174.08 283.288C173.968 284.268 173.408 284.492 172.764 284.492C172.204 284.492 171.784 284.044 171.784 283.624C171.784 283.176 171.98 282.616 172.316 282.616C172.54 282.196 172.428 281.748 171.56 281.748C170.664 281.748 168.816 283.4 167.612 287.012C166.408 290.624 166.184 293.228 168.06 293.228C169.908 293.228 171.448 291.268 171.98 290.288L172.652 290.82C172.092 292.024 170.02 294.544 168.172 294.544C166.408 294.544 165.316 293.34 165.316 291.604C164.672 292.92 162.684 294.544 160.724 294.544C159.184 294.544 158.316 293.34 158.316 292.36C158.316 291.156 158.652 290.624 159.52 290.624C160.388 290.624 160.836 291.156 160.836 291.716C160.836 292.248 160.612 292.808 160.08 292.808C159.856 294.012 162.796 293.564 163.888 291.492C164.868 289.504 166.184 284.828 166.296 283.82C166.408 282.84 165.428 281.636 164.56 281.636C163.244 281.636 161.928 283.4 161.368 283.932L160.836 283.4ZM198.708 286.564H189.3V296.196H187.984V286.564H178.576V285.472H187.984V275.952H189.3V285.472H198.708V286.564ZM214.388 288.972C213.408 292.584 210.356 295.524 206.744 295.524C203.356 295.524 202.124 291.716 203.356 287.012C205.148 280.208 210.3 276.512 213.688 276.512C215.872 276.512 216.796 277.604 216.432 278.92C216.264 279.676 215.648 280.208 214.78 280.208C212.596 280.208 214.5 277.492 212.764 277.492C209.488 277.492 206.744 283.624 206.184 285.808C207.556 284.716 209.208 283.82 210.944 283.82C214.248 283.82 215.06 286.452 214.388 288.972ZM211.896 289.084C212.484 286.788 212.484 285.024 210.188 285.024C209.096 285.024 206.856 285.808 205.876 287.012C204.56 290.932 204.448 294.656 207.08 294.656C209.796 294.656 211.224 291.492 211.896 289.084ZM220.576 282.308H240.708V283.4H220.576V282.308ZM220.576 288.636H240.708V289.728H220.576V288.636ZM257.648 272.788C254.428 275.504 251.096 279.788 249.332 285.92C247.036 294.432 250.284 298.828 250.48 299.248C250.648 299.472 250.34 299.808 250.172 299.696C248.688 298.604 245.748 293.34 247.708 285.92C249.78 278.584 255.912 273.32 257.452 272.452C257.704 272.228 257.984 272.564 257.648 272.788ZM261.652 283.4C262.52 282.42 263.836 280.544 265.488 280.544C267.224 280.544 268.428 282.504 268.316 283.82C269.1 282.952 270.612 280.544 272.684 280.544C274.672 280.544 274.98 282.42 274.896 283.288C274.784 284.268 274.224 284.492 273.58 284.492C273.02 284.492 272.6 284.044 272.6 283.624C272.6 283.176 272.796 282.616 273.132 282.616C273.356 282.196 273.244 281.748 272.376 281.748C271.48 281.748 269.632 283.4 268.428 287.012C267.224 290.624 267 293.228 268.876 293.228C270.724 293.228 272.264 291.268 272.796 290.288L273.468 290.82C272.908 292.024 270.836 294.544 268.988 294.544C267.224 294.544 266.132 293.34 266.132 291.604C265.488 292.92 263.5 294.544 261.54 294.544C260 294.544 259.132 293.34 259.132 292.36C259.132 291.156 259.468 290.624 260.336 290.624C261.204 290.624 261.652 291.156 261.652 291.716C261.652 292.248 261.428 292.808 260.896 292.808C260.672 294.012 263.612 293.564 264.704 291.492C265.684 289.504 267 284.828 267.112 283.82C267.224 282.84 266.244 281.636 265.376 281.636C264.06 281.636 262.744 283.4 262.184 283.932L261.652 283.4ZM279.393 285.472H299.525V286.564H279.393V285.472ZM314.505 294.992H304.453L304.621 294.208C308.653 294.208 308.765 293.116 308.933 292.472L312.321 279.788C312.601 278.808 312.321 278.584 308.709 278.584L308.877 278.024C311.985 277.716 315.429 276.288 315.429 276.288L311.117 292.472C310.949 293.116 310.501 294.208 314.673 294.208L314.505 294.992ZM328.393 285.92C326.433 293.34 320.749 298.604 318.705 299.696C318.341 299.808 318.229 299.472 318.621 299.248C319.041 298.828 324.557 294.432 326.769 285.92C328.393 279.788 327.245 275.504 325.565 272.788C325.453 272.564 325.705 272.228 325.873 272.452C327.077 273.32 330.353 278.584 328.393 285.92ZM344.465 272.788C341.245 275.504 337.913 279.788 336.149 285.92C333.853 294.432 337.101 298.828 337.297 299.248C337.465 299.472 337.157 299.808 336.989 299.696C335.505 298.604 332.565 293.34 334.525 285.92C336.597 278.584 342.729 273.32 344.269 272.452C344.521 272.228 344.801 272.564 344.465 272.788ZM357.653 290.176C356.841 293.34 353.285 295.524 349.561 295.524C348.021 295.524 345.165 294.432 345.501 291.912C345.669 291.156 346.453 290.4 347.321 290.4C348.301 290.4 348.581 291.38 348.469 291.912C348.357 292.248 347.797 292.584 347.909 293.116C347.909 294.32 348.357 294.656 350.009 294.656C353.173 294.656 354.377 292.584 354.965 290.512C356.225 285.808 352.893 285.92 352.249 286.004C350.765 286.228 350.429 286.116 350.597 285.584C350.709 285.024 351.269 284.716 352.473 285.136C353.061 285.248 355.973 284.38 356.841 281.104C357.485 278.696 356.953 277.38 354.769 277.38C353.005 277.38 351.969 278.36 351.745 279.228C351.633 279.676 351.745 280.012 351.633 280.432C351.409 281.216 350.485 281.524 350.065 281.524C349.393 281.524 348.973 281.104 349.113 280.432C349.729 278.248 352.669 276.512 355.077 276.512C357.933 276.512 359.949 278.36 359.249 281.104C358.521 283.624 355.301 285.136 353.453 285.584C356.057 285.92 358.409 287.432 357.653 290.176ZM362.469 283.4C363.337 282.42 364.653 280.544 366.305 280.544C368.041 280.544 369.245 282.504 369.133 283.82C369.917 282.952 371.429 280.544 373.501 280.544C375.489 280.544 375.797 282.42 375.713 283.288C375.601 284.268 375.041 284.492 374.397 284.492C373.837 284.492 373.417 284.044 373.417 283.624C373.417 283.176 373.613 282.616 373.949 282.616C374.173 282.196 374.061 281.748 373.193 281.748C372.297 281.748 370.449 283.4 369.245 287.012C368.041 290.624 367.817 293.228 369.693 293.228C371.541 293.228 373.081 291.268 373.613 290.288L374.285 290.82C373.725 292.024 371.653 294.544 369.805 294.544C368.041 294.544 366.949 293.34 366.949 291.604C366.305 292.92 364.317 294.544 362.357 294.544C360.817 294.544 359.949 293.34 359.949 292.36C359.949 291.156 360.285 290.624 361.153 290.624C362.021 290.624 362.469 291.156 362.469 291.716C362.469 292.248 362.245 292.808 361.713 292.808C361.489 294.012 364.429 293.564 365.521 291.492C366.501 289.504 367.817 284.828 367.929 283.82C368.041 282.84 367.061 281.636 366.193 281.636C364.877 281.636 363.561 283.4 363.001 283.932L362.469 283.4ZM380.209 285.472H400.341V286.564H380.209V285.472ZM416.413 290.064L413.781 294.992H403.645C404.653 292.584 407.929 289.84 411.065 287.208C413.585 285.136 415.433 283.512 416.077 281.104C416.693 278.808 415.769 277.38 413.585 277.38C412.465 277.38 410.337 278.024 409.973 279.34C409.749 280.208 410.561 280.124 410.225 281.328C409.973 282.196 408.965 282.616 408.545 282.616C407.453 282.616 407.229 281.86 407.509 280.88C408.097 278.696 411.373 276.512 414.117 276.512C417.505 276.512 419.269 278.584 418.597 281.104C417.841 283.82 415.209 285.472 413.025 287.124C408.881 290.064 406.473 292.136 405.689 293.228H411.177C412.577 293.228 413.585 293.228 415.937 289.84L416.413 290.064ZM429.209 285.92C427.249 293.34 421.565 298.604 419.521 299.696C419.157 299.808 419.045 299.472 419.437 299.248C419.857 298.828 425.373 294.432 427.585 285.92C429.209 279.788 428.061 275.504 426.381 272.788C426.269 272.564 426.521 272.228 426.689 272.452C427.893 273.32 431.169 278.584 429.209 285.92ZM456.341 286.564H446.933V296.196H445.617V286.564H436.209V285.472H445.617V275.952H446.933V285.472H456.341V286.564ZM472.357 290.512H469.725L469.025 293.116C468.745 294.012 469.837 294.124 470.929 294.124L470.733 294.992H463.817L464.041 294.124C465.693 294.124 466.673 293.676 466.897 292.808L467.541 290.512H460.765L461.045 289.42L472.637 276.288H473.505L470.061 289.308H472.693L472.357 290.512ZM467.877 289.308L470.397 279.9L462.193 289.308H467.877Z" fill="#232426"/>
</svg>
