<svg width="24" height="24" viewBox="0 0 24 24" fill="none" xmlns="http://www.w3.org/2000/svg">
<path d="M3 8L12 18L21 8H3Z" fill="#6A6D73"/>
<path d="M3 8V7C2.60509 7 2.24716 7.23241 2.0865 7.59316C1.92584 7.95391 1.99252 8.37543 2.25671 8.66896L3 8ZM12 18L11.2567 18.669C11.4463 18.8797 11.7165 19 12 19C12.2835 19 12.5537 18.8797 12.7433 18.669L12 18ZM21 8L21.7433 8.66896C22.0075 8.37543 22.0742 7.95391 21.9135 7.59316C21.7528 7.23241 21.3949 7 21 7V8ZM2.25671 8.66896L11.2567 18.669L12.7433 17.331L3.74329 7.33104L2.25671 8.66896ZM3 9H21V7H3V9ZM20.2567 7.33104L11.2567 17.331L12.7433 18.669L21.7433 8.66896L20.2567 7.33104Z" fill="#6A6D73"/>
</svg>
