<svg width="122" height="17" viewBox="0 0 122 17" fill="none" xmlns="http://www.w3.org/2000/svg">
<path d="M16.9235 1.02095H5.3641V12.559H16.9235V1.02095Z" fill="#7FC9BB"/>
<path d="M28.4827 1.02095H16.9234V12.559H28.4827V1.02095Z" fill="#7FC9BB"/>
<path d="M40.0421 1.02095H28.4828V12.559H40.0421V1.02095Z" fill="#7FC9BB"/>
<path d="M51.6014 1.02095H40.042V12.559H51.6014V1.02095Z" fill="#7FC9BB"/>
<path d="M63.1821 1.02095H51.6228V12.559H63.1821V1.02095Z" fill="#7FC9BB"/>
<path d="M74.7414 1.02095H63.182V12.559H74.7414V1.02095Z" fill="#7FC9BB"/>
<path d="M86.3008 1.02095H74.7414V12.559H86.3008V1.02095Z" fill="#7FC9BB"/>
<path d="M97.8601 1.02095H86.3007V12.559H97.8601V1.02095Z" fill="#7FC9BB"/>
<path d="M109.441 1.02095H97.8814V12.559H109.441V1.02095Z" fill="#7FC9BB"/>
<path d="M121 1.02095H109.441V12.559H121V1.02095Z" fill="#7FC9BB"/>
<path d="M12.5594 5.38486H1L5.34274 1.02083H16.8808" fill="#C8E7E9"/>
<path d="M16.9023 12.5803L12.5595 16.9018V5.38498L16.9023 1.02095" fill="#3CB8AA"/>
<path d="M12.5594 5.36374H1V16.9018H12.5594V5.36374Z" fill="#7AC9C8"/>
<path d="M1.04263 5.38532H12.5594V16.9021M12.5594 16.9021H1.02135V5.36403H1.04263L5.36409 1.02129H16.9022L12.602 5.30016L16.9022 1V12.5594L12.5594 16.9021Z" stroke="#00A19F" stroke-width="0.21" stroke-linecap="round" stroke-linejoin="round"/>
<path d="M24.1188 5.38498H12.5807L16.9022 1.02095H28.4615" fill="#C8E7E9"/>
<path d="M28.4614 12.5803L24.1187 16.9018V5.38498L28.4614 1.02095" fill="#3CB8AA"/>
<path d="M24.1189 5.36374H12.5595V16.9018H24.1189V5.36374Z" fill="#7AC9C8"/>
<path d="M12.602 5.38532H24.1188V16.9021M24.1188 16.9021H12.5807V5.36403H12.602L16.9235 1.02129H28.4615L24.1613 5.30016L28.4615 1V12.5594L24.1188 16.9021Z" stroke="#00A19F" stroke-width="0.21" stroke-linecap="round" stroke-linejoin="round"/>
<path d="M35.6993 5.38498H24.14L28.4827 1.02095H40.0208" fill="#C8E7E9"/>
<path d="M40.0209 12.5803L35.6782 16.9018V5.38498L40.0209 1.02095" fill="#3CB8AA"/>
<path d="M35.6993 5.36374H24.14V16.9018H35.6993V5.36374Z" fill="#7AC9C8"/>
<path d="M24.1613 5.38532H35.678V16.9021M35.678 16.9021H24.14V5.36403H24.1613L28.4827 1.02129H40.0208L35.7206 5.30016L40.0208 1V12.5594L35.678 16.9021Z" stroke="#00A19F" stroke-width="0.21" stroke-linecap="round" stroke-linejoin="round"/>
<path d="M47.2589 5.38498H35.6995L40.0422 1.02095H51.5803" fill="#C8E7E9"/>
<path d="M51.6014 12.5803L47.2373 16.9018V5.38498L51.6014 1.02095" fill="#3CB8AA"/>
<path d="M47.2589 5.36374H35.6995V16.9018H47.2589V5.36374Z" fill="#7AC9C8"/>
<path d="M35.7208 5.38532H47.2376V16.9021M47.2376 16.9021H35.6995V5.36403H35.7208L40.0422 1.02129H51.5803L47.2801 5.30016L51.5803 1V12.5594L47.2376 16.9021Z" stroke="#00A19F" stroke-width="0.21" stroke-linecap="round" stroke-linejoin="round"/>
<path d="M58.818 5.38498H47.2587L51.6014 1.02095H63.1607" fill="#C8E7E9"/>
<path d="M63.1609 12.5803L58.8182 16.9018V5.38498L63.1609 1.02095" fill="#3CB8AA"/>
<path d="M58.818 5.36374H47.2587V16.9018H58.818V5.36374Z" fill="#7AC9C8"/>
<path d="M47.3013 5.38532H58.818V16.9021M58.818 16.9021H47.28V5.36403H47.3013L51.6227 1.02129H63.1608L58.8606 5.30016L63.1608 1V12.5594L58.818 16.9021Z" stroke="#00A19F" stroke-width="0.21" stroke-linecap="round" stroke-linejoin="round"/>
<path d="M70.3987 5.38498H58.8394L63.1821 1.02095H74.7202" fill="#C8E7E9"/>
<path d="M74.72 12.5803L70.3773 16.9018V5.38498L74.72 1.02095" fill="#3CB8AA"/>
<path d="M70.3775 5.36374H58.8182V16.9018H70.3775V5.36374Z" fill="#7AC9C8"/>
<path d="M58.8607 5.38532H70.3774V16.9021M70.3774 16.9021H58.8394V5.36403H58.8607L63.1821 1.02129H74.7202L70.42 5.30016L74.7202 1V12.5594L70.3774 16.9021Z" stroke="#00A19F" stroke-width="0.21" stroke-linecap="round" stroke-linejoin="round"/>
<path d="M81.958 5.38498H70.3986L74.7414 1.02095H86.2795" fill="#C8E7E9"/>
<path d="M86.3009 12.5803L81.9368 16.9018V5.38498L86.3009 1.02095" fill="#3CB8AA"/>
<path d="M81.9367 5.36374H70.3986V16.9018H81.9367V5.36374Z" fill="#7AC9C8"/>
<path d="M70.4199 5.38532H81.9367V16.9021M81.9367 16.9021H70.3986V5.36403H70.4199L74.7414 1.02129H86.2795L81.9793 5.30016L86.2795 1V12.5594L81.9367 16.9021Z" stroke="#00A19F" stroke-width="0.21" stroke-linecap="round" stroke-linejoin="round"/>
<path d="M93.5174 5.38498H81.958L86.3008 1.02095H97.8388" fill="#C8E7E9"/>
<path d="M97.8601 12.5803L93.5173 16.9018V5.38498L97.8601 1.02095" fill="#3CB8AA"/>
<path d="M93.5174 5.36374H81.958V16.9018H93.5174V5.36374Z" fill="#7AC9C8"/>
<path d="M81.9793 5.38532H93.4961V16.9021M93.4961 16.9021H81.958V5.36403H81.9793L86.3008 1.02129H97.8388L93.56 5.30016H93.5386L97.8388 1V12.5594L93.4961 16.9021Z" stroke="#00A19F" stroke-width="0.21" stroke-linecap="round" stroke-linejoin="round"/>
<path d="M105.077 5.38498H93.5386L97.8601 1.02095H109.419" fill="#C8E7E9"/>
<path d="M109.42 12.5803L105.077 16.9018V5.38498L109.42 1.02095" fill="#3CB8AA"/>
<path d="M105.077 5.36374H93.5173V16.9018H105.077V5.36374Z" fill="#7AC9C8"/>
<path d="M93.5599 5.38532H105.077V16.9021M105.077 16.9021H93.5386V5.36403H93.5599L97.8814 1.02129H109.419L105.119 5.30016L109.419 1V12.5594L105.077 16.9021Z" stroke="#00A19F" stroke-width="0.21" stroke-linecap="round" stroke-linejoin="round"/>
<path d="M116.657 5.38498H105.098L109.441 1.02095H120.979" fill="#C8E7E9"/>
<path d="M121 12.5803L116.636 16.9018V5.38498L121 1.02095" fill="#2AB7B5"/>
<path d="M116.657 5.36374H105.098V16.9018H116.657V5.36374Z" fill="#7AC9C8"/>
<path d="M105.119 5.38532H116.636V16.9021M116.636 16.9021H105.098V5.36403H105.119L109.441 1.02129H120.979L116.679 5.30016L120.979 1V12.5594L116.636 16.9021Z" stroke="#00A19F" stroke-width="0.21" stroke-linecap="round" stroke-linejoin="round"/>
</svg>
