<svg width="122" height="43" viewBox="0 0 122 43" fill="none" xmlns="http://www.w3.org/2000/svg">
<path d="M39.052 4.46784H30.3337L33.6091 1.17643H42.3113" fill="#C8E7E9"/>
<path d="M42.5039 9.71822L39.2285 12.9775V4.29141L42.5039 1" fill="#3CB8AA"/>
<path d="M39.2286 4.27539H30.5103V12.9936H39.2286V4.27539Z" fill="#7FC9BB"/>
<path d="M30.5264 4.29141H39.2125V12.9936M30.5264 4.29141L33.7857 1.01606H42.4879L39.2607 4.24324H39.2446L42.4879 1V9.71822L39.2125 12.9936M30.5264 4.29141H30.5103V12.9936H39.2125" stroke="#00A19F" stroke-width="0.21" stroke-linecap="round" stroke-linejoin="round"/>
<path d="M47.7702 4.46784H39.068L42.3273 1.17643H51.0456" fill="#C8E7E9"/>
<path d="M51.2221 9.71822L47.9467 12.9775V4.29141L51.2221 1" fill="#3CB8AA"/>
<path d="M47.9467 4.27539H39.2285V12.9936H47.9467V4.27539Z" fill="#7FC9BB"/>
<path d="M39.2607 4.29141H47.9468V12.9936M39.2607 4.29141L42.52 1.01606H51.2221L47.9789 4.24324L51.2221 1V9.71822L47.9468 12.9936M39.2607 4.29141H39.2446V12.9936H47.9468" stroke="#00A19F" stroke-width="0.21" stroke-linecap="round" stroke-linejoin="round"/>
<path d="M56.5044 4.46784H47.7862L51.0616 1.17643H59.7637" fill="#C8E7E9"/>
<path d="M59.9403 9.71822L56.665 12.9775V4.29141L59.9403 1" fill="#3CB8AA"/>
<path d="M56.6489 4.27539H47.9467V12.9936H56.6489V4.27539Z" fill="#7FC9BB"/>
<path d="M56.6649 4.29141H47.9788M56.6489 12.9936H47.9467V4.29141H47.9628L51.2221 1.01606H59.9242L56.697 4.24324H56.681L59.9242 1V9.71822L56.6489 12.9936ZM56.6489 12.9936V4.29141" stroke="#00A19F" stroke-width="0.21" stroke-linecap="round" stroke-linejoin="round"/>
<path d="M65.2226 4.46784H56.5044L59.7798 1.17643H68.4819" fill="#C8E7E9"/>
<path d="M68.6585 9.71822L65.3831 12.9775V4.29141L68.6585 1" fill="#3CB8AA"/>
<path d="M65.3992 4.27539H56.681V12.9936H65.3992V4.27539Z" fill="#7FC9BB"/>
<path d="M56.6971 4.29141H65.3832V12.9936M65.3832 12.9936H56.665V4.29141H56.681L59.9403 1.01606H68.6425L65.4153 4.24324L68.6585 1V9.71822L65.3832 12.9936Z" stroke="#00A19F" stroke-width="0.21" stroke-linecap="round" stroke-linejoin="round"/>
<path d="M73.9409 4.46784H65.2227L68.498 1.17643H77.2162" fill="#C8E7E9"/>
<path d="M77.3928 9.71822L74.1174 12.9775V4.29141L77.3928 1" fill="#3CB8AA"/>
<path d="M74.1175 4.27539H65.3993V12.9936H74.1175V4.27539Z" fill="#7FC9BB"/>
<path d="M74.1175 4.29141H65.4314M74.1014 12.9936H65.3993V4.29141H65.4153L68.6746 1.01606H77.3768L74.1496 4.24324H74.1335L77.3768 1V9.71822L74.1014 12.9936ZM74.1014 12.9936V4.29141" stroke="#00A19F" stroke-width="0.21" stroke-linecap="round" stroke-linejoin="round"/>
<path d="M82.6752 4.46784H73.9569L77.2162 1.17643H85.9345" fill="#C8E7E9"/>
<path d="M86.111 9.71822L82.8356 12.9775V4.29141L86.111 1" fill="#3CB8AA"/>
<path d="M82.8196 4.27539H74.1174V12.9936H82.8196V4.27539Z" fill="#7FC9BB"/>
<path d="M82.8356 4.29141H74.1495M82.8196 12.9936H74.1174V4.29141H74.1335L77.3928 1.01606H86.095L82.8678 4.24324H82.8517L86.095 1V9.71822L82.8196 12.9936ZM82.8196 12.9936V4.29141" stroke="#00A19F" stroke-width="0.21" stroke-linecap="round" stroke-linejoin="round"/>
<path d="M91.3934 4.46784H82.6751L85.9505 1.17643H94.6527" fill="#C8E7E9"/>
<path d="M94.8293 9.71822L91.554 12.9775V4.29141L94.8293 1" fill="#3CB8AA"/>
<path d="M91.5538 4.27539H82.8356V12.9936H91.5538V4.27539Z" fill="#7FC9BB"/>
<path d="M82.8678 4.29141H91.5539V12.9936M82.8678 4.29141L86.1271 1.01606H94.8292L91.586 4.24324L94.8292 1V9.71822L91.5539 12.9936M82.8678 4.29141H82.8517V12.9936H91.5539" stroke="#00A19F" stroke-width="0.21" stroke-linecap="round" stroke-linejoin="round"/>
<path d="M100.112 4.46784H91.3933L94.6687 1.17643H103.371" fill="#C8E7E9"/>
<path d="M103.564 9.71822L100.288 12.9775V4.29141L103.564 1" fill="#3CB8AA"/>
<path d="M100.272 4.27539H91.5699V12.9936H100.272V4.27539Z" fill="#7FC9BB"/>
<path d="M91.586 4.29141H100.272V12.9936M91.586 4.29141L94.8453 1.01606H103.547L100.304 4.24324L103.547 1V9.71822L100.272 12.9936M91.586 4.29141H91.5699V12.9936H100.272" stroke="#00A19F" stroke-width="0.21" stroke-linecap="round" stroke-linejoin="round"/>
<path d="M108.83 4.46784H100.128L103.387 1.17643H112.105" fill="#C8E7E9"/>
<path d="M112.282 9.71822L109.006 12.9775V4.29141L112.282 1" fill="#3CB8AA"/>
<path d="M108.99 4.27539H100.288V12.9936H108.99V4.27539Z" fill="#7FC9BB"/>
<path d="M109.006 4.29141H100.32M108.99 12.9936H100.288V4.29141H100.304L103.564 1.01606H112.266L109.039 4.24324H109.023L112.266 1V9.71822L108.99 12.9936ZM108.99 12.9936V4.29141" stroke="#00A19F" stroke-width="0.21" stroke-linecap="round" stroke-linejoin="round"/>
<path d="M117.564 4.46784H108.846L112.121 1.17643H120.823" fill="#C8E7E9"/>
<path d="M121 9.71822L117.725 12.9775V4.29141L121 1" fill="#2AB7B5"/>
<path d="M117.725 4.27539H109.006V12.9936H117.725V4.27539Z" fill="#7FC9BB"/>
<path d="M109.039 4.29141H117.725V12.9936M117.725 12.9936H109.006V4.29141H109.022L112.282 1.01606H120.984L117.757 4.24324L121 1V9.71822L117.725 12.9936Z" stroke="#00A19F" stroke-width="0.21" stroke-linecap="round" stroke-linejoin="round"/>
<path d="M35.7765 7.72718H27.0583L30.3336 4.45182H39.0358" fill="#C8E7E9"/>
<path d="M39.2286 12.9776L35.9532 16.2529V7.55075L39.2286 4.27539" fill="#3CB8AA"/>
<path d="M35.9372 7.5345H27.235V16.2527H35.9372V7.5345Z" fill="#7FC9BB"/>
<path d="M35.9371 7.55052H27.251M35.9211 16.2527H27.2189V7.55052H27.235L30.4943 4.27517H39.1964L35.9692 7.50236H35.9532L39.1964 4.25911V12.9773L35.9211 16.2527ZM35.9211 16.2527V7.55052" stroke="#00A19F" stroke-width="0.21" stroke-linecap="round" stroke-linejoin="round"/>
<path d="M44.4948 7.72718H35.7765L39.0519 4.45182H47.7541" fill="#C8E7E9"/>
<path d="M47.9467 12.9776L44.6714 16.2529V7.55075L47.9467 4.27539" fill="#3CB8AA"/>
<path d="M44.6714 7.5345H35.9532V16.2527H44.6714V7.5345Z" fill="#7FC9BB"/>
<path d="M35.9693 7.55052H44.6554V16.2527M35.9693 7.55052L39.2286 4.27517H47.9307L44.7035 7.50236H44.6875L47.9307 4.25911V12.9773L44.6554 16.2527M35.9693 7.55052H35.9532V16.2527H44.6554" stroke="#00A19F" stroke-width="0.21" stroke-linecap="round" stroke-linejoin="round"/>
<path d="M53.213 7.72718H44.4948L47.7701 4.45182H56.4884" fill="#C8E7E9"/>
<path d="M56.665 12.9776L53.3896 16.2529V7.55075L56.665 4.27539" fill="#3CB8AA"/>
<path d="M53.3736 7.5345H44.6714V16.2527H53.3736V7.5345Z" fill="#7FC9BB"/>
<path d="M53.3896 7.55052H44.7035M53.3736 16.2527H44.6714V7.55052H44.6874L47.9467 4.27517H56.6489L53.4217 7.50236H53.4057L56.6489 4.25911V12.9773L53.3736 16.2527ZM53.3736 16.2527V7.55052" stroke="#00A19F" stroke-width="0.21" stroke-linecap="round" stroke-linejoin="round"/>
<path d="M61.9472 7.72718H53.229L56.5044 4.45182H65.2065" fill="#C8E7E9"/>
<path d="M65.3832 12.9776L62.1078 16.2529V7.55075L65.3832 4.27539" fill="#3CB8AA"/>
<path d="M62.1079 7.5345H53.3896V16.2527H62.1079V7.5345Z" fill="#7FC9BB"/>
<path d="M53.4217 7.55052H62.1078V16.2527M53.4217 7.55052L56.681 4.27517H65.3832L62.14 7.50236L65.3832 4.25911V12.9773L62.1078 16.2527M53.4217 7.55052H53.4057V16.2527H62.1078" stroke="#00A19F" stroke-width="0.21" stroke-linecap="round" stroke-linejoin="round"/>
<path d="M70.6656 7.72718H61.9473L65.2227 4.45182H73.9249" fill="#C8E7E9"/>
<path d="M74.1175 12.9776L70.8421 16.2529V7.55075L74.1175 4.27539" fill="#3CB8AA"/>
<path d="M70.8422 7.5345H62.1239V16.2527H70.8422V7.5345Z" fill="#7FC9BB"/>
<path d="M70.8261 7.55052H62.14M62.14 7.55052L65.3993 4.27517H74.1015L70.8743 7.50236L74.1175 4.25911V12.9773L70.8422 16.2527M62.14 7.55052H62.1239V16.2527H70.8422M70.8422 16.2527V7.55052" stroke="#00A19F" stroke-width="0.21" stroke-linecap="round" stroke-linejoin="round"/>
<path d="M79.3838 7.72718H70.6655L73.9409 4.45182H82.643" fill="#C8E7E9"/>
<path d="M82.8357 12.9776L79.5603 16.2529V7.55075L82.8357 4.27539" fill="#3CB8AA"/>
<path d="M79.5603 7.5345H70.8421V16.2527H79.5603V7.5345Z" fill="#7FC9BB"/>
<path d="M70.8582 7.55052H79.5443V16.2527M70.8582 7.55052L74.1175 4.27517H82.8196L79.5925 7.50236H79.5764L82.8196 4.25911V12.9773L79.5443 16.2527M70.8582 7.55052H70.8421V16.2527H79.5443" stroke="#00A19F" stroke-width="0.21" stroke-linecap="round" stroke-linejoin="round"/>
<path d="M88.118 7.72718H79.3998L82.6591 4.45182H91.3773" fill="#C8E7E9"/>
<path d="M91.5539 12.9776L88.2786 16.2529V7.55075L91.5539 4.27539" fill="#3CB8AA"/>
<path d="M88.2785 7.5345H79.5603V16.2527H88.2785V7.5345Z" fill="#7FC9BB"/>
<path d="M88.2785 7.55052H79.5924M88.2625 16.2527H79.5603V7.55052H79.5764L82.8357 4.27517H91.5378L88.3106 7.50236H88.2946L91.5378 4.25911V12.9773L88.2625 16.2527ZM88.2625 16.2527V7.55052" stroke="#00A19F" stroke-width="0.21" stroke-linecap="round" stroke-linejoin="round"/>
<path d="M96.8362 7.72718H88.118L91.3934 4.45182H100.096" fill="#C8E7E9"/>
<path d="M100.272 12.9776L96.9967 16.2529V7.55075L100.272 4.27539" fill="#3CB8AA"/>
<path d="M96.9968 7.5345H88.2786V16.2527H96.9968V7.5345Z" fill="#7FC9BB"/>
<path d="M96.9968 7.55052H88.3107M96.9807 16.2527H88.2786V7.55052H88.2946L91.5539 4.27517H100.256L97.0289 7.50236H97.0128L100.256 4.25911V12.9773L96.9807 16.2527ZM96.9807 16.2527V7.55052" stroke="#00A19F" stroke-width="0.21" stroke-linecap="round" stroke-linejoin="round"/>
<path d="M105.554 7.72718H96.8363L100.112 4.45182H108.814" fill="#C8E7E9"/>
<path d="M109.006 12.9776L105.731 16.2529V7.55075L109.006 4.27539" fill="#3CB8AA"/>
<path d="M105.715 7.5345H97.0128V16.2527H105.715V7.5345Z" fill="#7FC9BB"/>
<path d="M105.715 7.55052H97.0289M97.0289 7.55052H97.0449L100.304 4.27517H109.006L105.763 7.50236L109.006 4.25911V12.9773L105.731 16.2527M97.0289 7.55052V16.2527H105.731M105.731 16.2527V7.55052" stroke="#00A19F" stroke-width="0.21" stroke-linecap="round" stroke-linejoin="round"/>
<path d="M114.273 7.72718H105.571L108.83 4.45182H117.548" fill="#C8E7E9"/>
<path d="M117.725 12.9776L114.449 16.2529V7.55075L117.725 4.27539" fill="#2AB7B5"/>
<path d="M114.449 7.5345H105.731V16.2527H114.449V7.5345Z" fill="#7FC9BB"/>
<path d="M105.763 7.55052H114.449V16.2527M105.763 7.55052L109.022 4.27517H117.725L114.481 7.50236L117.725 4.25911V12.9773L114.449 16.2527M105.763 7.55052H105.747V16.2527H114.449" stroke="#00A19F" stroke-width="0.21" stroke-linecap="round" stroke-linejoin="round"/>
<path d="M32.5012 11.0026H23.783L27.0583 7.72721H35.7605" fill="#C8E7E9"/>
<path d="M35.9532 16.2529L32.6618 19.5283V10.8261L35.9532 7.55078" fill="#3CB8AA"/>
<path d="M32.6778 10.8262H23.9596V19.5283H32.6778V10.8262Z" fill="#7FC9BB"/>
<path d="M23.9756 10.8259H32.6617V19.5281M23.9756 10.8259L27.2349 7.55056H35.9371L32.6938 10.7777L35.9371 7.5345V16.2527L32.6617 19.5281M23.9756 10.8259H23.9596V19.5281H32.6617" stroke="#00A19F" stroke-width="0.21" stroke-linecap="round" stroke-linejoin="round"/>
<path d="M41.2194 11.0026H32.5012L35.7766 7.72721H44.4787" fill="#C8E7E9"/>
<path d="M44.6714 16.2529L41.396 19.5283V10.8261L44.6714 7.55078" fill="#3CB8AA"/>
<path d="M41.396 10.8262H32.6778V19.5283H41.396V10.8262Z" fill="#7FC9BB"/>
<path d="M32.6939 10.8259H41.38V19.5281M32.6939 10.8259L35.9532 7.55056H44.6553L41.4281 10.7777H41.4121L44.6553 7.5345V16.2527L41.38 19.5281M32.6939 10.8259H32.6778V19.5281H41.38" stroke="#00A19F" stroke-width="0.21" stroke-linecap="round" stroke-linejoin="round"/>
<path d="M49.9376 11.0026H41.2194L44.4948 7.72721H53.213" fill="#C8E7E9"/>
<path d="M53.3897 16.2529L50.1143 19.5283V10.8261L53.3897 7.55078" fill="#3CB8AA"/>
<path d="M50.0982 10.8262H41.396V19.5283H50.0982V10.8262Z" fill="#7FC9BB"/>
<path d="M50.1142 10.8259H41.4281M50.0982 19.5281H41.396V10.8259H41.4121L44.6714 7.55056H53.3735L50.1463 10.7777H50.1303L53.3735 7.5345V16.2527L50.0982 19.5281ZM50.0982 19.5281V10.8259" stroke="#00A19F" stroke-width="0.21" stroke-linecap="round" stroke-linejoin="round"/>
<path d="M58.6719 11.0026H49.9537L53.213 7.72721H61.9312" fill="#C8E7E9"/>
<path d="M62.1079 16.2529L58.8325 19.5283V10.8261L62.1079 7.55078" fill="#3CB8AA"/>
<path d="M58.8326 10.8262H50.1143V19.5283H58.8326V10.8262Z" fill="#7FC9BB"/>
<path d="M58.8326 10.8259H50.1464M58.8165 19.5281H50.1143V10.8259H50.1304L53.3897 7.55056H62.0919L58.8647 10.7777H58.8486L62.0919 7.5345V16.2527L58.8165 19.5281ZM58.8165 19.5281V10.8259" stroke="#00A19F" stroke-width="0.21" stroke-linecap="round" stroke-linejoin="round"/>
<path d="M67.3901 11.0026H58.6719L61.9472 7.72721H70.6494" fill="#C8E7E9"/>
<path d="M70.8422 16.2529L67.5668 19.5283V10.8261L70.8422 7.55078" fill="#3CB8AA"/>
<path d="M67.5667 10.8262H58.8485V19.5283H67.5667V10.8262Z" fill="#7FC9BB"/>
<path d="M67.5507 10.8259H58.8646M58.8646 10.8259H58.8806L62.1399 7.55056H70.8421L67.5989 10.7777L70.8421 7.5345V16.2527L67.5667 19.5281M58.8646 10.8259V19.5281H67.5667M67.5667 19.5281V10.8259" stroke="#00A19F" stroke-width="0.21" stroke-linecap="round" stroke-linejoin="round"/>
<path d="M76.1084 11.0026H67.3901L70.6655 7.72721H79.3677" fill="#C8E7E9"/>
<path d="M79.5604 16.2529L76.285 19.5283V10.8261L79.5604 7.55078" fill="#3CB8AA"/>
<path d="M76.269 10.8262H67.5668V19.5283H76.269V10.8262Z" fill="#7FC9BB"/>
<path d="M76.2689 10.8259H67.5828M67.5828 10.8259H67.5988L70.8581 7.55056H79.5603L76.317 10.7777L79.5603 7.5345V16.2527L76.2849 19.5281M67.5828 10.8259V19.5281H76.2849M76.2849 19.5281V10.8259" stroke="#00A19F" stroke-width="0.21" stroke-linecap="round" stroke-linejoin="round"/>
<path d="M84.8266 11.0026H76.1244L79.3837 7.72721H88.1019" fill="#C8E7E9"/>
<path d="M88.2785 16.2529L85.0032 19.5283V10.8261L88.2785 7.55078" fill="#3CB8AA"/>
<path d="M85.0032 10.8262H76.285V19.5283H85.0032V10.8262Z" fill="#7FC9BB"/>
<path d="M76.3171 10.8259H85.0032V19.5281M85.0032 19.5281H76.285V10.8259H76.301L79.5604 7.55056H88.2625L85.0353 10.7777L88.2786 7.5345V16.2527L85.0032 19.5281Z" stroke="#00A19F" stroke-width="0.21" stroke-linecap="round" stroke-linejoin="round"/>
<path d="M93.5608 11.0026H84.8426L88.118 7.72721H96.8201" fill="#C8E7E9"/>
<path d="M96.9968 16.2529L93.7214 19.5283V10.8261L96.9968 7.55078" fill="#3CB8AA"/>
<path d="M93.7214 10.8262H85.0032V19.5283H93.7214V10.8262Z" fill="#7FC9BB"/>
<path d="M93.7214 10.8259H85.0353M93.7053 19.5281H85.0032V10.8259H85.0192L88.2785 7.55056H96.9807L93.7535 10.7777H93.7375L96.9807 7.5345V16.2527L93.7053 19.5281ZM93.7053 19.5281V10.8259" stroke="#00A19F" stroke-width="0.21" stroke-linecap="round" stroke-linejoin="round"/>
<path d="M102.279 11.0026H93.561L96.8363 7.72721H105.538" fill="#C8E7E9"/>
<path d="M105.731 16.2529L102.456 19.5283V10.8261L105.731 7.55078" fill="#3CB8AA"/>
<path d="M102.456 10.8262H93.7375V19.5283H102.456V10.8262Z" fill="#7FC9BB"/>
<path d="M93.7535 10.8259H102.44V19.5281M93.7535 10.8259L97.0128 7.55056H105.715L102.488 10.7777H102.472L105.715 7.5345V16.2527L102.44 19.5281M93.7535 10.8259H93.7375V19.5281H102.44" stroke="#00A19F" stroke-width="0.21" stroke-linecap="round" stroke-linejoin="round"/>
<path d="M110.997 11.0026H102.295L105.554 7.72721H114.273" fill="#C8E7E9"/>
<path d="M114.449 16.2529L111.174 19.5283V10.8261L114.449 7.55078" fill="#2AB7B5"/>
<path d="M111.158 10.8262H102.456V19.5283H111.158V10.8262Z" fill="#7FC9BB"/>
<path d="M111.174 10.8259H102.488M111.158 19.5281H102.456V10.8259H102.472L105.731 7.55056H114.433L111.206 10.7777H111.19L114.433 7.5345V16.2527L111.158 19.5281ZM111.158 19.5281V10.8259" stroke="#00A19F" stroke-width="0.21" stroke-linecap="round" stroke-linejoin="round"/>
<path d="M29.3864 14.1013H20.6842L23.9435 10.8099H32.6618" fill="#C8E7E9"/>
<path d="M32.6617 19.5281L29.3864 22.7874V14.0852L32.6617 10.8099" fill="#3CB8AA"/>
<path d="M29.3864 14.0853H20.6682V22.8035H29.3864V14.0853Z" fill="#7FC9BB"/>
<path d="M29.3864 14.1017H20.7003M29.3704 22.7878H20.6682V14.0857H20.6843L23.9436 10.8103H32.6457L29.4185 14.0375H29.4025L32.6457 10.7943V19.5125L29.3704 22.7878ZM29.3704 22.7878V14.0857" stroke="#00A19F" stroke-width="0.21" stroke-linecap="round" stroke-linejoin="round"/>
<path d="M38.1206 14.1013H29.4024L32.6778 10.8099H41.3799" fill="#C8E7E9"/>
<path d="M41.396 19.5281L38.1046 22.7874V14.0852L41.396 10.8099" fill="#3CB8AA"/>
<path d="M38.1046 14.0853H29.3864V22.8035H38.1046V14.0853Z" fill="#7FC9BB"/>
<path d="M38.1046 14.1017H29.4185M38.1046 22.7878H29.4024V14.0857H29.4185L32.6778 10.8103H41.3799L38.1367 14.0375L41.3799 10.7943V19.5125L38.1046 22.7878ZM38.1046 22.7878V14.0857" stroke="#00A19F" stroke-width="0.21" stroke-linecap="round" stroke-linejoin="round"/>
<path d="M46.8389 14.1013H38.1207L41.396 10.8099H50.0982" fill="#C8E7E9"/>
<path d="M50.1142 19.5281L46.8389 22.7874V14.0852L50.1142 10.8099" fill="#3CB8AA"/>
<path d="M46.8389 14.0853H38.1207V22.8035H46.8389V14.0853Z" fill="#7FC9BB"/>
<path d="M46.8228 14.1017H38.1367M46.8389 22.7878H38.1367V14.0857H38.1528L41.4121 10.8103H50.1142L46.871 14.0375L50.1142 10.7943V19.5125L46.8389 22.7878ZM46.8389 22.7878V14.0857" stroke="#00A19F" stroke-width="0.21" stroke-linecap="round" stroke-linejoin="round"/>
<path d="M55.5571 14.1013H46.8389L50.1142 10.8099H58.8164" fill="#C8E7E9"/>
<path d="M58.8325 19.5281L55.5571 22.7874V14.0852L58.8325 10.8099" fill="#3CB8AA"/>
<path d="M55.5571 14.0853H46.8389V22.8035H55.5571V14.0853Z" fill="#7FC9BB"/>
<path d="M55.5571 14.1017H46.871M55.541 22.7878H46.8389V14.0857H46.8549L50.1142 10.8103H58.8164L55.5892 14.0375H55.5731L58.8164 10.7943V19.5125L55.541 22.7878ZM55.541 22.7878V14.0857" stroke="#00A19F" stroke-width="0.21" stroke-linecap="round" stroke-linejoin="round"/>
<path d="M64.2914 14.1013H55.5732L58.8485 10.8099H67.5507" fill="#C8E7E9"/>
<path d="M67.5507 19.5281L64.2753 22.7874V14.0852L67.5507 10.8099" fill="#3CB8AA"/>
<path d="M64.2914 14.0853H55.5732V22.8035H64.2914V14.0853Z" fill="#7FC9BB"/>
<path d="M64.2754 14.1017H55.5892M64.2593 22.7878H55.5571V14.0857H55.5732L58.8325 10.8103H67.5346L64.3075 14.0375H64.2914L67.5346 10.7943V19.5125L64.2593 22.7878ZM64.2593 22.7878V14.0857" stroke="#00A19F" stroke-width="0.21" stroke-linecap="round" stroke-linejoin="round"/>
<path d="M73.0096 14.1013H64.2913L67.5667 10.8099H76.2689" fill="#C8E7E9"/>
<path d="M76.285 19.5281L73.0096 22.7874V14.0852L76.285 10.8099" fill="#3CB8AA"/>
<path d="M73.0096 14.0853H64.2913V22.8035H73.0096V14.0853Z" fill="#7FC9BB"/>
<path d="M72.9935 14.1017H64.3074M72.9775 22.7878H64.2753V14.0857H64.2914L67.5507 10.8103H76.2528L73.0256 14.0375H73.0096L76.2528 10.7943V19.5125L72.9775 22.7878ZM72.9775 22.7878V14.0857" stroke="#00A19F" stroke-width="0.21" stroke-linecap="round" stroke-linejoin="round"/>
<path d="M81.7278 14.1013H73.0096L76.285 10.8099H84.9871" fill="#C8E7E9"/>
<path d="M85.0031 19.5281L81.7278 22.7874V14.0852L85.0031 10.8099" fill="#3CB8AA"/>
<path d="M81.7278 14.0853H73.0096V22.8035H81.7278V14.0853Z" fill="#7FC9BB"/>
<path d="M81.7278 14.1017H73.0417M81.7278 22.7878H73.0256V14.0857H73.0417L76.301 10.8103H85.0032L81.7599 14.0375L85.0032 10.7943V19.5125L81.7278 22.7878ZM81.7278 22.7878V14.0857" stroke="#00A19F" stroke-width="0.21" stroke-linecap="round" stroke-linejoin="round"/>
<path d="M90.446 14.1013H81.7278L85.0031 10.8099H93.7214" fill="#C8E7E9"/>
<path d="M93.7215 19.5281L90.4461 22.7874V14.0852L93.7215 10.8099" fill="#3CB8AA"/>
<path d="M90.43 14.0853H81.7278V22.8035H90.43V14.0853Z" fill="#7FC9BB"/>
<path d="M90.446 14.1017H81.7599M90.43 22.7878H81.7278V14.0857H81.7438L85.0031 10.8103H93.7053L90.4781 14.0375H90.4621L93.7053 10.7943V19.5125L90.43 22.7878ZM90.43 22.7878V14.0857" stroke="#00A19F" stroke-width="0.21" stroke-linecap="round" stroke-linejoin="round"/>
<path d="M99.1803 14.1013H90.4621L93.7374 10.8099H102.44" fill="#C8E7E9"/>
<path d="M102.456 19.5281L99.1804 22.7874V14.0852L102.456 10.8099" fill="#3CB8AA"/>
<path d="M99.1803 14.0853H90.4621V22.8035H99.1803V14.0853Z" fill="#7FC9BB"/>
<path d="M99.1643 14.1017H90.4782M99.1483 22.7878H90.4461V14.0857H90.4622L93.7215 10.8103H102.424L99.1965 14.0375H99.1804L102.424 10.7943V19.5125L99.1483 22.7878ZM99.1483 22.7878V14.0857" stroke="#00A19F" stroke-width="0.21" stroke-linecap="round" stroke-linejoin="round"/>
<path d="M107.899 14.1013H99.1804L102.456 10.8099H111.158" fill="#C8E7E9"/>
<path d="M111.174 19.5281L107.899 22.7874V14.0852L111.174 10.8099" fill="#2AB7B5"/>
<path d="M107.899 14.0853H99.1804V22.8035H107.899V14.0853Z" fill="#7FC9BB"/>
<path d="M107.883 14.1017H99.1965M107.883 22.7878H99.1804V14.0857H99.1965L102.456 10.8103H111.158L107.931 14.0375H107.915L111.158 10.7943V19.5125L107.883 22.7878ZM107.883 22.7878V14.0857" stroke="#00A19F" stroke-width="0.21" stroke-linecap="round" stroke-linejoin="round"/>
<path d="M26.111 17.3767H17.4089L20.6682 14.0853H29.3864" fill="#C8E7E9"/>
<path d="M29.3864 22.8035L26.1111 26.0628V17.3767L29.3864 14.0853" fill="#3CB8AA"/>
<path d="M26.111 17.3607H17.3928V26.0628H26.111V17.3607Z" fill="#7FC9BB"/>
<path d="M26.111 17.3771H17.4249M26.095 26.0632H17.3928V17.3611H17.4089L20.6682 14.0857H29.3703L26.1432 17.3129H26.1271L29.3703 14.0697V22.7879L26.095 26.0632ZM26.095 26.0632V17.3611" stroke="#00A19F" stroke-width="0.21" stroke-linecap="round" stroke-linejoin="round"/>
<path d="M34.8453 17.3767H26.1271L29.4025 14.0853H38.1046" fill="#C8E7E9"/>
<path d="M38.1207 22.8035L34.8293 26.0628V17.3767L38.1207 14.0853" fill="#3CB8AA"/>
<path d="M34.8293 17.3607H26.1271V26.0628H34.8293V17.3607Z" fill="#7FC9BB"/>
<path d="M34.8293 17.3771H26.1432M34.8133 26.0632H26.1111V17.3611H26.1271L29.3864 14.0857H38.0886L34.8614 17.3129H34.8454L38.0886 14.0697V22.7879L34.8133 26.0632ZM34.8133 26.0632V17.3611" stroke="#00A19F" stroke-width="0.21" stroke-linecap="round" stroke-linejoin="round"/>
<path d="M43.5636 17.3767H34.8454L38.1207 14.0853H46.8229" fill="#C8E7E9"/>
<path d="M46.8389 22.8035L43.5636 26.0628V17.3767L46.8389 14.0853" fill="#3CB8AA"/>
<path d="M43.5636 17.3607H34.8454V26.0628H43.5636V17.3607Z" fill="#7FC9BB"/>
<path d="M43.5475 17.3771H34.8614M43.5475 26.0632H34.8454V17.3611H34.8614L38.1207 14.0857H46.8229L43.5957 17.3129H43.5797L46.8229 14.0697V22.7879L43.5475 26.0632ZM43.5475 26.0632V17.3611" stroke="#00A19F" stroke-width="0.21" stroke-linecap="round" stroke-linejoin="round"/>
<path d="M52.2818 17.3767H43.5636L46.8389 14.0853H55.5411" fill="#C8E7E9"/>
<path d="M55.5572 22.8035L52.2818 26.0628V17.3767L55.5572 14.0853" fill="#3CB8AA"/>
<path d="M52.2818 17.3607H43.5636V26.0628H52.2818V17.3607Z" fill="#7FC9BB"/>
<path d="M52.2818 17.3771H43.5957M52.2657 26.0632H43.5636V17.3611H43.5796L46.8389 14.0857H55.5411L52.3139 17.3129H52.2978L55.5411 14.0697V22.7879L52.2657 26.0632ZM52.2657 26.0632V17.3611" stroke="#00A19F" stroke-width="0.21" stroke-linecap="round" stroke-linejoin="round"/>
<path d="M61.0161 17.3767H52.2979L55.5732 14.0853H64.2754" fill="#C8E7E9"/>
<path d="M64.2914 22.8035L61 26.0628V17.3767L64.2914 14.0853" fill="#3CB8AA"/>
<path d="M61 17.3607H52.2979V26.0628H61V17.3607Z" fill="#7FC9BB"/>
<path d="M61 17.3771H52.3139M60.984 26.0632H52.2818V17.3611H52.2979L55.5572 14.0857H64.2593L61.0322 17.3129H61.0161L64.2593 14.0697V22.7879L60.984 26.0632ZM60.984 26.0632V17.3611" stroke="#00A19F" stroke-width="0.21" stroke-linecap="round" stroke-linejoin="round"/>
<path d="M69.7343 17.3767H61.016L64.2914 14.0853H72.9936" fill="#C8E7E9"/>
<path d="M73.0096 22.8035L69.7343 26.0628V17.3767L73.0096 14.0853" fill="#3CB8AA"/>
<path d="M69.7343 17.3607H61.016V26.0628H69.7343V17.3607Z" fill="#7FC9BB"/>
<path d="M69.7182 17.3771H61.0321M69.7182 26.0632H61.016V17.3611H61.0321L64.2914 14.0857H72.9936L69.7503 17.3129L72.9936 14.0697V22.7879L69.7182 26.0632ZM69.7182 26.0632V17.3611" stroke="#00A19F" stroke-width="0.21" stroke-linecap="round" stroke-linejoin="round"/>
<path d="M78.4525 17.3767H69.7343L73.0096 14.0853H81.7118" fill="#C8E7E9"/>
<path d="M81.7278 22.8035L78.4525 26.0628V17.3767L81.7278 14.0853" fill="#3CB8AA"/>
<path d="M78.4365 17.3607H69.7343V26.0628H78.4365V17.3607Z" fill="#7FC9BB"/>
<path d="M78.4525 17.3771H69.7664M78.4365 26.0632H69.7343V17.3611H69.7504L73.0096 14.0857H81.7118L78.4846 17.3129H78.4686L81.7118 14.0697V22.7879L78.4365 26.0632ZM78.4365 26.0632V17.3611" stroke="#00A19F" stroke-width="0.21" stroke-linecap="round" stroke-linejoin="round"/>
<path d="M87.1707 17.3767H78.4525L81.7278 14.0853H90.43" fill="#C8E7E9"/>
<path d="M90.446 22.8035L87.1707 26.0628V17.3767L90.446 14.0853" fill="#3CB8AA"/>
<path d="M87.1707 17.3607H78.4525V26.0628H87.1707V17.3607Z" fill="#7FC9BB"/>
<path d="M87.1708 17.3771H78.4846M87.1708 26.0632H78.4686V17.3611H78.4846L81.7439 14.0857H90.4461L87.2029 17.3129L90.4461 14.0697V22.7879L87.1708 26.0632ZM87.1708 26.0632V17.3611" stroke="#00A19F" stroke-width="0.21" stroke-linecap="round" stroke-linejoin="round"/>
<path d="M95.905 17.3767H87.1868L90.4621 14.0853H99.1643" fill="#C8E7E9"/>
<path d="M99.1803 22.8035L95.8889 26.0628V17.3767L99.1803 14.0853" fill="#3CB8AA"/>
<path d="M95.905 17.3607H87.1868V26.0628H95.905V17.3607Z" fill="#7FC9BB"/>
<path d="M95.8889 17.3771H87.2028M95.8889 26.0632H87.1868V17.3611H87.2028L90.4621 14.0857H99.1643L95.921 17.3129L99.1643 14.0697V22.7879L95.8889 26.0632ZM95.8889 26.0632V17.3611" stroke="#00A19F" stroke-width="0.21" stroke-linecap="round" stroke-linejoin="round"/>
<path d="M104.623 17.3767H95.9049L99.1803 14.0853H107.882" fill="#C8E7E9"/>
<path d="M107.899 22.8035L104.623 26.0628V17.3767L107.899 14.0853" fill="#2AB7B5"/>
<path d="M104.623 17.3607H95.9049V26.0628H104.623V17.3607Z" fill="#7FC9BB"/>
<path d="M104.607 17.3771H95.921M104.607 26.0632H95.9049V17.3611H95.921L99.1803 14.0857H107.882L104.655 17.3129H104.639L107.882 14.0697V22.7879L104.607 26.0632ZM104.607 26.0632V17.3611" stroke="#00A19F" stroke-width="0.21" stroke-linecap="round" stroke-linejoin="round"/>
<path d="M22.8357 20.636H14.1174L17.3928 17.3607H26.095" fill="#C8E7E9"/>
<path d="M26.111 26.0628L22.8357 29.3382V20.636L26.111 17.3607" fill="#3CB8AA"/>
<path d="M22.8357 20.6204H14.1174V29.3387H22.8357V20.6204Z" fill="#7FC9BB"/>
<path d="M22.8357 20.6365H14.1495M22.8196 29.3386H14.1174V20.6365H14.1335L17.3928 17.3611H26.095L22.8678 20.5883H22.8517L26.095 17.3451V26.0633L22.8196 29.3386ZM22.8196 29.3386V20.6525" stroke="#00A19F" stroke-width="0.21" stroke-linecap="round" stroke-linejoin="round"/>
<path d="M31.5539 20.636H22.8517L26.111 17.3607H34.8292" fill="#C8E7E9"/>
<path d="M34.8292 26.0628L31.5539 29.3382V20.636L34.8292 17.3607" fill="#3CB8AA"/>
<path d="M31.5539 20.6204H22.8357V29.3387H31.5539V20.6204Z" fill="#7FC9BB"/>
<path d="M31.5539 20.6365H22.8678M31.5379 29.3386H22.8357V20.6365H22.8517L26.111 17.3611H34.8132L31.586 20.5883H31.57L34.8132 17.3451V26.0633L31.5379 29.3386ZM31.5379 29.3386V20.6525" stroke="#00A19F" stroke-width="0.21" stroke-linecap="round" stroke-linejoin="round"/>
<path d="M40.2881 20.636H31.5699L34.8453 17.3607H43.5474" fill="#C8E7E9"/>
<path d="M43.5636 26.0628L40.2722 29.3382V20.636L43.5636 17.3607" fill="#3CB8AA"/>
<path d="M40.2881 20.6204H31.5699V29.3387H40.2881V20.6204Z" fill="#7FC9BB"/>
<path d="M40.2721 20.6365H31.586M40.256 29.3386H31.5539V20.6365H31.5699L34.8292 17.3611H43.5314L40.3042 20.5883H40.2882L43.5314 17.3451V26.0633L40.256 29.3386ZM40.256 29.3386V20.6525" stroke="#00A19F" stroke-width="0.21" stroke-linecap="round" stroke-linejoin="round"/>
<path d="M49.0065 20.636H40.2882L43.5636 17.3607H52.2658" fill="#C8E7E9"/>
<path d="M52.2818 26.0628L48.9904 29.3382V20.636L52.2818 17.3607" fill="#3CB8AA"/>
<path d="M49.0065 20.6204H40.2882V29.3387H49.0065V20.6204Z" fill="#7FC9BB"/>
<path d="M48.9904 20.6365H40.3043M48.9744 29.3386H40.2722V20.6365H40.2883L43.5476 17.3611H52.2497L49.0226 20.5883H49.0065L52.2497 17.3451V26.0633L48.9744 29.3386ZM48.9744 29.3386V20.6525" stroke="#00A19F" stroke-width="0.21" stroke-linecap="round" stroke-linejoin="round"/>
<path d="M57.7246 20.636H49.0225L52.2818 17.3607H61" fill="#C8E7E9"/>
<path d="M61 26.0628L57.7247 29.3382V20.636L61 17.3607" fill="#3CB8AA"/>
<path d="M57.7247 20.6204H49.0064V29.3387H57.7247V20.6204Z" fill="#7FC9BB"/>
<path d="M57.7247 20.6365H49.0385M57.7086 29.3386H49.0064V20.6365H49.0225L52.2818 17.3611H60.984L57.7568 20.5883H57.7407L60.984 17.3451V26.0633L57.7086 29.3386ZM57.7086 29.3386V20.6525" stroke="#00A19F" stroke-width="0.21" stroke-linecap="round" stroke-linejoin="round"/>
<path d="M66.4429 20.636H57.7407L61 17.3607H69.7182" fill="#C8E7E9"/>
<path d="M69.7182 26.0628L66.4429 29.3382V20.636L69.7182 17.3607" fill="#3CB8AA"/>
<path d="M66.4269 20.6204H57.7247V29.3387H66.4269V20.6204Z" fill="#7FC9BB"/>
<path d="M66.4429 20.6365H57.7568M57.7568 20.6365L61.0161 17.3611H69.7182L66.475 20.5883L69.7182 17.3451V26.0633L66.4429 29.3386M57.7568 20.6365H57.7407V29.3386H66.4429M66.4429 29.3386V20.6525" stroke="#00A19F" stroke-width="0.21" stroke-linecap="round" stroke-linejoin="round"/>
<path d="M75.1772 20.636H66.459L69.7343 17.3607H78.4365" fill="#C8E7E9"/>
<path d="M78.4525 26.0628L75.1772 29.3382V20.636L78.4525 17.3607" fill="#3CB8AA"/>
<path d="M75.1772 20.6204H66.459V29.3387H75.1772V20.6204Z" fill="#7FC9BB"/>
<path d="M75.1611 20.6365H66.475M75.145 29.3386H66.4429V20.6365H66.4589L69.7182 17.3611H78.4204L75.1932 20.5883H75.1772L78.4204 17.3451V26.0633L75.145 29.3386ZM75.145 29.3386V20.6525" stroke="#00A19F" stroke-width="0.21" stroke-linecap="round" stroke-linejoin="round"/>
<path d="M83.8954 20.636H75.1772L78.4525 17.3607H87.1547" fill="#C8E7E9"/>
<path d="M87.1707 26.0628L83.8953 29.3382V20.636L87.1707 17.3607" fill="#3CB8AA"/>
<path d="M83.8954 20.6204H75.1772V29.3387H83.8954V20.6204Z" fill="#7FC9BB"/>
<path d="M83.8793 20.6365H75.1932M75.1932 20.6365L78.4525 17.3611H87.1547L83.9275 20.5883H83.9114L87.1547 17.3451V26.0633L83.8793 29.3386M75.1932 20.6365H75.1772V29.3386H83.8793M83.8793 29.3386V20.6525" stroke="#00A19F" stroke-width="0.21" stroke-linecap="round" stroke-linejoin="round"/>
<path d="M92.6136 20.636H83.9115L87.1708 17.3607H95.889" fill="#C8E7E9"/>
<path d="M95.889 26.0628L92.6136 29.3382V20.636L95.889 17.3607" fill="#3CB8AA"/>
<path d="M92.6136 20.6204H83.8953V29.3387H92.6136V20.6204Z" fill="#7FC9BB"/>
<path d="M92.6136 20.6365H83.9275M83.9275 20.6365L87.1868 17.3611H95.889L92.6457 20.5883L95.889 17.3451V26.0633L92.6136 29.3386M83.9275 20.6365H83.9115V29.3386H92.6136M92.6136 29.3386V20.6525" stroke="#00A19F" stroke-width="0.21" stroke-linecap="round" stroke-linejoin="round"/>
<path d="M101.348 20.636H92.6296L95.905 17.3607H104.607" fill="#C8E7E9"/>
<path d="M104.623 26.0628L101.332 29.3382V20.636L104.623 17.3607" fill="#2AB7B5"/>
<path d="M101.332 20.6204H92.6296V29.3387H101.332V20.6204Z" fill="#7FC9BB"/>
<path d="M101.332 20.6365H92.6457M92.6457 20.6365L95.905 17.3611H104.607L101.364 20.5883L104.607 17.3451V26.0633L101.332 29.3386M92.6457 20.6365H92.6296V29.3386H101.332M101.332 29.3386V20.6525" stroke="#00A19F" stroke-width="0.21" stroke-linecap="round" stroke-linejoin="round"/>
<path d="M19.5603 23.9119H10.8421L14.1175 20.6204H22.8196" fill="#C8E7E9"/>
<path d="M22.8357 29.3387L19.5603 32.598V23.9118L22.8357 20.6204" fill="#3CB8AA"/>
<path d="M19.5603 23.8952H10.8421V32.5973H19.5603V23.8952Z" fill="#7FC9BB"/>
<path d="M19.5603 23.9116H10.8742M19.5443 32.5977H10.8421V23.8956H10.8582L14.1175 20.6202H22.8196L19.5925 23.8474H19.5764L22.8196 20.6042V29.3224L19.5443 32.5977ZM19.5443 32.5977V23.9116" stroke="#00A19F" stroke-width="0.21" stroke-linecap="round" stroke-linejoin="round"/>
<path d="M28.2786 23.9119H19.5764L22.8357 20.6204H31.5539" fill="#C8E7E9"/>
<path d="M31.5539 29.3387L28.2786 32.598V23.9118L31.5539 20.6204" fill="#3CB8AA"/>
<path d="M28.2785 23.8952H19.5603V32.5973H28.2785V23.8952Z" fill="#7FC9BB"/>
<path d="M28.2785 23.9116H19.5924M28.2625 32.5977H19.5603V23.8956H19.5764L22.8357 20.6202H31.5378L28.3106 23.8474H28.2946L31.5378 20.6042V29.3224L28.2625 32.5977ZM28.2625 32.5977V23.9116" stroke="#00A19F" stroke-width="0.21" stroke-linecap="round" stroke-linejoin="round"/>
<path d="M37.0128 23.9119H28.2946L31.5699 20.6204H40.2721" fill="#C8E7E9"/>
<path d="M40.2721 29.3387L36.9967 32.598V23.9118L40.2721 20.6204" fill="#3CB8AA"/>
<path d="M36.9968 23.8952H28.2786V32.5973H36.9968V23.8952Z" fill="#7FC9BB"/>
<path d="M28.3106 23.9116H36.9968V32.5977M36.9968 32.5977H28.2946V23.8956H28.3106L31.5699 20.6202H40.2721L37.0289 23.8474L40.2721 20.6042V29.3224L36.9968 32.5977Z" stroke="#00A19F" stroke-width="0.21" stroke-linecap="round" stroke-linejoin="round"/>
<path d="M45.7311 23.9119H37.0129L40.2882 20.6204H48.9904" fill="#C8E7E9"/>
<path d="M49.0064 29.3387L45.731 32.598V23.9118L49.0064 20.6204" fill="#3CB8AA"/>
<path d="M45.7311 23.8952H37.0129V32.5973H45.7311V23.8952Z" fill="#7FC9BB"/>
<path d="M45.715 23.9116H37.0289M45.6989 32.5977H36.9967V23.8956H37.0128L40.2721 20.6202H48.9743L45.7471 23.8474H45.731L48.9743 20.6042V29.3224L45.6989 32.5977ZM45.6989 32.5977V23.9116" stroke="#00A19F" stroke-width="0.21" stroke-linecap="round" stroke-linejoin="round"/>
<path d="M54.4493 23.9119H45.731L49.0064 20.6204H57.7246" fill="#C8E7E9"/>
<path d="M57.7246 29.3387L54.4492 32.598V23.9118L57.7246 20.6204" fill="#3CB8AA"/>
<path d="M54.4332 23.8952H45.731V32.5973H54.4332V23.8952Z" fill="#7FC9BB"/>
<path d="M54.4493 23.9116H45.7631M54.4332 32.5977H45.731V23.8956H45.7471L49.0064 20.6202H57.7086L54.4814 23.8474H54.4653L57.7086 20.6042V29.3224L54.4332 32.5977ZM54.4332 32.5977V23.9116" stroke="#00A19F" stroke-width="0.21" stroke-linecap="round" stroke-linejoin="round"/>
<path d="M63.1675 23.9119H54.4653L57.7246 20.6204H66.4429" fill="#C8E7E9"/>
<path d="M66.4428 29.3387L63.1675 32.598V23.9118L66.4428 20.6204" fill="#3CB8AA"/>
<path d="M63.1674 23.8952H54.4492V32.5973H63.1674V23.8952Z" fill="#7FC9BB"/>
<path d="M54.4814 23.9116H63.1675V32.5977M63.1675 32.5977H54.4653V23.8956H54.4814L57.7407 20.6202H66.4429L63.1996 23.8474L66.4429 20.6042V29.3224L63.1675 32.5977Z" stroke="#00A19F" stroke-width="0.21" stroke-linecap="round" stroke-linejoin="round"/>
<path d="M71.9017 23.9119H63.1835L66.4589 20.6204H75.161" fill="#C8E7E9"/>
<path d="M75.1772 29.3387L71.8857 32.598V23.9118L75.1772 20.6204" fill="#3CB8AA"/>
<path d="M71.9017 23.8952H63.1835V32.5973H71.9017V23.8952Z" fill="#7FC9BB"/>
<path d="M71.8857 23.9116H63.1996M71.8697 32.5977H63.1675V23.8956H63.1835L66.4428 20.6202H75.145L71.9178 23.8474H71.9018L75.145 20.6042V29.3224L71.8697 32.5977ZM71.8697 32.5977V23.9116" stroke="#00A19F" stroke-width="0.21" stroke-linecap="round" stroke-linejoin="round"/>
<path d="M80.62 23.9119H71.9018L75.1771 20.6204H83.8793" fill="#C8E7E9"/>
<path d="M83.8954 29.3387L80.62 32.598V23.9118L83.8954 20.6204" fill="#3CB8AA"/>
<path d="M80.62 23.8952H71.9018V32.5973H80.62V23.8952Z" fill="#7FC9BB"/>
<path d="M71.9178 23.9116H80.6039V32.5977M80.6039 32.5977H71.9018V23.8956H71.9178L75.1771 20.6202H83.8793L80.636 23.8474L83.8793 20.6042V29.3224L80.6039 32.5977Z" stroke="#00A19F" stroke-width="0.21" stroke-linecap="round" stroke-linejoin="round"/>
<path d="M89.3382 23.9119H80.636L83.8953 20.6204H92.6135" fill="#C8E7E9"/>
<path d="M92.6136 29.3387L89.3383 32.598V23.9118L92.6136 20.6204" fill="#3CB8AA"/>
<path d="M89.3383 23.8952H80.62V32.5973H89.3383V23.8952Z" fill="#7FC9BB"/>
<path d="M80.652 23.9116H89.3382V32.5977M89.3382 32.5977H80.636V23.8956H80.652L83.9113 20.6202H92.6135L89.3703 23.8474L92.6135 20.6042V29.3224L89.3382 32.5977Z" stroke="#00A19F" stroke-width="0.21" stroke-linecap="round" stroke-linejoin="round"/>
<path d="M98.0725 23.9119H89.3542L92.6296 20.6204H101.332" fill="#C8E7E9"/>
<path d="M101.348 29.3387L98.0565 32.598V23.9118L101.348 20.6204" fill="#2AB7B5"/>
<path d="M98.0725 23.8952H89.3542V32.5973H98.0725V23.8952Z" fill="#7FC9BB"/>
<path d="M98.0565 23.9116H89.3704M98.0405 32.5977H89.3383V23.8956H89.3543L92.6136 20.6202H101.316L98.0886 23.8474H98.0726L101.316 20.6042V29.3224L98.0405 32.5977ZM98.0405 32.5977V23.9116" stroke="#00A19F" stroke-width="0.21" stroke-linecap="round" stroke-linejoin="round"/>
<path d="M16.285 27.1705H7.56681L10.8422 23.8952H19.5443" fill="#C8E7E9"/>
<path d="M19.5603 32.5978L16.285 35.8731V27.171L19.5603 23.8796" fill="#3CB8AA"/>
<path d="M16.285 27.1549H7.56681V35.8571H16.285V27.1549Z" fill="#7FC9BB"/>
<path d="M16.269 27.171H7.58287M7.58287 27.171L10.8422 23.8956H19.5443L16.3171 27.1228H16.3011L19.5443 23.8796V32.5978L16.269 35.8731M7.58287 27.171H7.56681V35.8731H16.269M16.269 35.8731V27.187" stroke="#00A19F" stroke-width="0.21" stroke-linecap="round" stroke-linejoin="round"/>
<path d="M25.0032 27.1705H16.285L19.5603 23.8952H28.2625" fill="#C8E7E9"/>
<path d="M28.2786 32.5978L25.0033 35.8731V27.171L28.2786 23.8796" fill="#3CB8AA"/>
<path d="M25.0032 27.1549H16.285V35.8571H25.0032V27.1549Z" fill="#7FC9BB"/>
<path d="M25.0032 27.171H16.3171M24.9872 35.8731H16.285V27.171H16.301L19.5603 23.8956H28.2625L25.0353 27.1228H25.0193L28.2625 23.8796V32.5978L24.9872 35.8731ZM24.9872 35.8731V27.187" stroke="#00A19F" stroke-width="0.21" stroke-linecap="round" stroke-linejoin="round"/>
<path d="M33.7215 27.1705H25.0033L28.2786 23.8952H36.9968" fill="#C8E7E9"/>
<path d="M36.9968 32.5978L33.7214 35.8731V27.171L36.9968 23.8796" fill="#3CB8AA"/>
<path d="M33.7215 27.1549H25.0033V35.8571H33.7215V27.1549Z" fill="#7FC9BB"/>
<path d="M33.7215 27.171H25.0354M33.7054 35.8731H25.0033V27.171H25.0193L28.2786 23.8956H36.9808L33.7536 27.1228H33.7375L36.9808 23.8796V32.5978L33.7054 35.8731ZM33.7054 35.8731V27.187" stroke="#00A19F" stroke-width="0.21" stroke-linecap="round" stroke-linejoin="round"/>
<path d="M42.4558 27.1705H33.7375L36.9968 23.8952H45.7151" fill="#C8E7E9"/>
<path d="M45.715 32.5978L42.4396 35.8731V27.171L45.715 23.8796" fill="#3CB8AA"/>
<path d="M42.4397 27.1549H33.7214V35.8571H42.4397V27.1549Z" fill="#7FC9BB"/>
<path d="M42.4397 27.171H33.7536M33.7536 27.171L37.0129 23.8956H45.7151L42.4718 27.1228L45.7151 23.8796V32.5978L42.4397 35.8731M33.7536 27.171H33.7375V35.8731H42.4397M42.4397 35.8731V27.187" stroke="#00A19F" stroke-width="0.21" stroke-linecap="round" stroke-linejoin="round"/>
<path d="M51.174 27.1705H42.4557L45.7311 23.8952H54.4333" fill="#C8E7E9"/>
<path d="M54.4493 32.5978L51.1739 35.8731V27.171L54.4493 23.8796" fill="#3CB8AA"/>
<path d="M51.1579 27.1549H42.4557V35.8571H51.1579V27.1549Z" fill="#7FC9BB"/>
<path d="M51.1579 27.171H42.4718M42.4718 27.171L45.7311 23.8956H54.4333L51.2061 27.1228H51.19L54.4333 23.8796V32.5978L51.1579 35.8731M42.4718 27.171H42.4557V35.8731H51.1579M51.1579 35.8731V27.187" stroke="#00A19F" stroke-width="0.21" stroke-linecap="round" stroke-linejoin="round"/>
<path d="M59.8921 27.1705H51.1739L54.4493 23.8952H63.1675" fill="#C8E7E9"/>
<path d="M63.1675 32.5978L59.8922 35.8731V27.171L63.1675 23.8796" fill="#3CB8AA"/>
<path d="M59.8921 27.1549H51.1739V35.8571H59.8921V27.1549Z" fill="#7FC9BB"/>
<path d="M59.8922 27.171H51.2061M51.2061 27.171L54.4654 23.8956H63.1675L59.9243 27.1228L63.1675 23.8796V32.5978L59.8922 35.8731M51.2061 27.171H51.19V35.8731H59.8922M59.8922 35.8731V27.187" stroke="#00A19F" stroke-width="0.21" stroke-linecap="round" stroke-linejoin="round"/>
<path d="M68.6264 27.1705H59.9082L63.1675 23.8952H71.8857" fill="#C8E7E9"/>
<path d="M71.8857 32.5978L68.6104 35.8731V27.171L71.8857 23.8796" fill="#3CB8AA"/>
<path d="M68.5943 27.1549H59.8922V35.8571H68.5943V27.1549Z" fill="#7FC9BB"/>
<path d="M68.6104 27.171H59.9243M68.5943 35.8731H59.8922V27.171H59.9082L63.1675 23.8956H71.8697L68.6425 27.1228H68.6264L71.8697 23.8796V32.5978L68.5943 35.8731ZM68.5943 35.8731V27.187" stroke="#00A19F" stroke-width="0.21" stroke-linecap="round" stroke-linejoin="round"/>
<path d="M77.3446 27.1705H68.6264L71.9017 23.8952H80.6039" fill="#C8E7E9"/>
<path d="M80.6039 32.5978L77.3285 35.8731V27.171L80.6039 23.8796" fill="#3CB8AA"/>
<path d="M77.3446 27.1549H68.6264V35.8571H77.3446V27.1549Z" fill="#7FC9BB"/>
<path d="M77.3286 27.171H68.6424M68.6424 27.171L71.9017 23.8956H80.6039L77.3607 27.1228L80.6039 23.8796V32.5978L77.3286 35.8731M68.6424 27.171H68.6264V35.8731H77.3286M77.3286 35.8731V27.187" stroke="#00A19F" stroke-width="0.21" stroke-linecap="round" stroke-linejoin="round"/>
<path d="M86.0629 27.1705H77.3446L80.62 23.8952H89.3382" fill="#C8E7E9"/>
<path d="M89.3382 32.5978L86.0628 35.8731V27.171L89.3382 23.8796" fill="#3CB8AA"/>
<path d="M86.0629 27.1549H77.3446V35.8571H86.0629V27.1549Z" fill="#7FC9BB"/>
<path d="M86.0629 27.171H77.3767M77.3767 27.171L80.636 23.8956H89.3382L86.095 27.1228L89.3382 23.8796V32.5978L86.0629 35.8731M77.3767 27.171H77.3607V35.8731H86.0629M86.0629 35.8731V27.187" stroke="#00A19F" stroke-width="0.21" stroke-linecap="round" stroke-linejoin="round"/>
<path d="M94.7811 27.1705H86.0789L89.3382 23.8952H98.0565" fill="#C8E7E9"/>
<path d="M98.0564 32.5978L94.7811 35.8731V27.171L98.0564 23.8796" fill="#2AB7B5"/>
<path d="M94.765 27.1549H86.0628V35.8571H94.765V27.1549Z" fill="#7FC9BB"/>
<path d="M94.7811 27.171H86.0949M94.765 35.8731H86.0628V27.171H86.0789L89.3382 23.8956H98.0403L94.8132 27.1228H94.7971L98.0403 23.8796V32.5978L94.765 35.8731ZM94.765 35.8731V27.187" stroke="#00A19F" stroke-width="0.21" stroke-linecap="round" stroke-linejoin="round"/>
<path d="M13.0096 30.462H4.29142L7.56678 27.1706H16.2689" fill="#C8E7E9"/>
<path d="M16.285 35.8727L13.0096 39.1481V30.4459L16.285 27.1706" fill="#3CB8AA"/>
<path d="M13.0096 30.446H4.29142V39.1481H13.0096V30.446Z" fill="#7FC9BB"/>
<path d="M12.9936 30.4624H4.30745M13.0096 39.1485H4.30745V30.4464H4.32351L7.58281 27.171H16.285L13.0417 30.3982L16.285 27.1549V35.8732L13.0096 39.1485ZM13.0096 39.1485V30.4624" stroke="#00A19F" stroke-width="0.21" stroke-linecap="round" stroke-linejoin="round"/>
<path d="M21.7278 30.462H13.0096L16.285 27.1706H24.9871" fill="#C8E7E9"/>
<path d="M25.0031 35.8727L21.7278 39.1481V30.4459L25.0031 27.1706" fill="#3CB8AA"/>
<path d="M21.7278 30.446H13.0096V39.1481H21.7278V30.446Z" fill="#7FC9BB"/>
<path d="M21.7278 30.4624H13.0417M21.7118 39.1485H13.0096V30.4464H13.0257L16.285 27.171H24.9871L21.7599 30.3982H21.7439L24.9871 27.1549V35.8732L21.7118 39.1485ZM21.7118 39.1485V30.4624" stroke="#00A19F" stroke-width="0.21" stroke-linecap="round" stroke-linejoin="round"/>
<path d="M30.446 30.462H21.7278L25.0031 27.1706H33.7214" fill="#C8E7E9"/>
<path d="M33.7215 35.8727L30.4461 39.1481V30.4459L33.7215 27.1706" fill="#3CB8AA"/>
<path d="M30.446 30.446H21.7278V39.1481H30.446V30.446Z" fill="#7FC9BB"/>
<path d="M30.446 30.4624H21.7599M30.43 39.1485H21.7278V30.4464H21.7438L25.0031 27.171H33.7053L30.4781 30.3982H30.4621L33.7053 27.1549V35.8732L30.43 39.1485ZM30.43 39.1485V30.4624" stroke="#00A19F" stroke-width="0.21" stroke-linecap="round" stroke-linejoin="round"/>
<path d="M39.1803 30.462H30.4621L33.7214 27.1706H42.4396" fill="#C8E7E9"/>
<path d="M42.4397 35.8727L39.1643 39.1481V30.4459L42.4397 27.1706" fill="#3CB8AA"/>
<path d="M39.1642 30.446H30.4621V39.1481H39.1642V30.446Z" fill="#7FC9BB"/>
<path d="M39.1643 30.4624H30.4782M39.1483 39.1485H30.4461V30.4464H30.4622L33.7215 27.171H42.4236L39.1965 30.3982H39.1804L42.4236 27.1549V35.8732L39.1483 39.1485ZM39.1483 39.1485V30.4624" stroke="#00A19F" stroke-width="0.21" stroke-linecap="round" stroke-linejoin="round"/>
<path d="M47.8986 30.462H39.1803L42.4557 27.1706H51.1579" fill="#C8E7E9"/>
<path d="M51.174 35.8727L47.8986 39.1481V30.4459L51.174 27.1706" fill="#3CB8AA"/>
<path d="M47.8986 30.446H39.1803V39.1481H47.8986V30.446Z" fill="#7FC9BB"/>
<path d="M39.1964 30.4624H47.8825V39.1485M47.8825 39.1485H39.1803V30.4464H39.1964L42.4557 27.171H51.1579L47.9307 30.3982H47.9146L51.1579 27.1549V35.8732L47.8825 39.1485Z" stroke="#00A19F" stroke-width="0.21" stroke-linecap="round" stroke-linejoin="round"/>
<path d="M56.6168 30.462H47.8986L51.174 27.1706H59.8922" fill="#C8E7E9"/>
<path d="M59.8922 35.8727L56.6169 39.1481V30.4459L59.8922 27.1706" fill="#3CB8AA"/>
<path d="M56.6168 30.446H47.8986V39.1481H56.6168V30.446Z" fill="#7FC9BB"/>
<path d="M47.9306 30.4624H56.6167V39.1485M56.6167 39.1485H47.9146V30.4464H47.9306L51.1899 27.171H59.8921L56.6488 30.3982L59.8921 27.1549V35.8732L56.6167 39.1485Z" stroke="#00A19F" stroke-width="0.21" stroke-linecap="round" stroke-linejoin="round"/>
<path d="M65.3511 30.462H56.6329L59.8922 27.1706H68.6104" fill="#C8E7E9"/>
<path d="M68.6104 35.8727L65.335 39.1481V30.4459L68.6104 27.1706" fill="#3CB8AA"/>
<path d="M65.3351 30.446H56.6169V39.1481H65.3351V30.446Z" fill="#7FC9BB"/>
<path d="M56.649 30.4624H65.3351V39.1485M65.3351 39.1485H56.6329V30.4464H56.649L59.9082 27.171H68.6104L65.3672 30.3982L68.6104 27.1549V35.8732L65.3351 39.1485Z" stroke="#00A19F" stroke-width="0.21" stroke-linecap="round" stroke-linejoin="round"/>
<path d="M74.0693 30.462H65.3511L68.6264 27.1706H77.3286" fill="#C8E7E9"/>
<path d="M77.3446 35.8727L74.0532 39.1481V30.4459L77.3446 27.1706" fill="#3CB8AA"/>
<path d="M74.0693 30.446H65.3511V39.1481H74.0693V30.446Z" fill="#7FC9BB"/>
<path d="M74.0533 30.4624H65.3672M74.0372 39.1485H65.335V30.4464H65.3511L68.6104 27.171H77.3126L74.0854 30.3982H74.0693L77.3126 27.1549V35.8732L74.0372 39.1485ZM74.0372 39.1485V30.4624" stroke="#00A19F" stroke-width="0.21" stroke-linecap="round" stroke-linejoin="round"/>
<path d="M82.7876 30.462H74.0693L77.3447 27.1706H86.0469" fill="#C8E7E9"/>
<path d="M86.0629 35.8727L82.7875 39.1481V30.4459L86.0629 27.1706" fill="#3CB8AA"/>
<path d="M82.7876 30.446H74.0693V39.1481H82.7876V30.446Z" fill="#7FC9BB"/>
<path d="M82.7876 30.4624H74.1014M82.7715 39.1485H74.0693V30.4464H74.0854L77.3447 27.171H86.0469L82.8197 30.3982H82.8036L86.0469 27.1549V35.8732L82.7715 39.1485ZM82.7715 39.1485V30.4624" stroke="#00A19F" stroke-width="0.21" stroke-linecap="round" stroke-linejoin="round"/>
<path d="M91.5058 30.462H82.8036L86.0629 27.1706H94.7811" fill="#C8E7E9"/>
<path d="M94.7811 35.8727L91.5058 39.1481V30.4459L94.7811 27.1706" fill="#2AB7B5"/>
<path d="M91.4897 30.446H82.7875V39.1481H91.4897V30.446Z" fill="#7FC9BB"/>
<path d="M91.5057 30.4624H82.8196M91.4897 39.1485H82.7875V30.4464H82.8036L86.0629 27.171H94.765L91.5378 30.3982H91.5218L94.765 27.1549V35.8732L91.4897 39.1485ZM91.4897 39.1485V30.4624" stroke="#00A19F" stroke-width="0.21" stroke-linecap="round" stroke-linejoin="round"/>
<path d="M9.73426 33.7217H1.01603L4.29139 30.4303H12.9936" fill="#C8E7E9"/>
<path d="M12.9935 39.1486L9.71818 42.4079V33.7217L12.9935 30.4303" fill="#3CB8AA"/>
<path d="M9.7182 33.7057H1.01603V42.424H9.7182V33.7057Z" fill="#7AC9C8"/>
<path d="M9.71822 33.7217H1.03211M9.70217 42.4239H1V33.7217H1.01606L4.27535 30.4464H12.9775L9.75033 33.6736H9.73428L12.9775 30.4303V39.1486L9.70217 42.4239ZM9.70217 42.4239V33.7217" stroke="#00A19F" stroke-width="0.21" stroke-linecap="round" stroke-linejoin="round"/>
<path d="M18.4525 33.7217H9.73429L13.0096 30.4303H21.7118" fill="#C8E7E9"/>
<path d="M21.7278 39.1486L18.4525 42.4079V33.7217L21.7278 30.4303" fill="#3CB8AA"/>
<path d="M18.4525 33.7057H9.73429V42.424H18.4525V33.7057Z" fill="#7AC9C8"/>
<path d="M18.4364 33.7217H9.75029M18.4203 42.4239H9.71818V33.7217H9.73424L12.9935 30.4464H21.6957L18.4685 33.6736H18.4525L21.6957 30.4303V39.1486L18.4203 42.4239ZM18.4203 42.4239V33.7217" stroke="#00A19F" stroke-width="0.21" stroke-linecap="round" stroke-linejoin="round"/>
<path d="M27.1707 33.7217H18.4525L21.7278 30.4303H30.43" fill="#C8E7E9"/>
<path d="M30.4461 39.1486L27.1707 42.4079V33.7217L30.4461 30.4303" fill="#3CB8AA"/>
<path d="M27.1707 33.7057H18.4525V42.424H27.1707V33.7057Z" fill="#7AC9C8"/>
<path d="M18.4846 33.7217H27.1708V42.4239M18.4846 33.7217L21.7439 30.4464H30.4461L27.2029 33.6736L30.4461 30.4303V39.1486L27.1708 42.4239M18.4846 33.7217H18.4686V42.4239H27.1708" stroke="#00A19F" stroke-width="0.21" stroke-linecap="round" stroke-linejoin="round"/>
<path d="M35.889 33.7217H27.1707L30.4461 30.4303H39.1643" fill="#C8E7E9"/>
<path d="M39.1643 39.1486L35.8889 42.4079V33.7217L39.1643 30.4303" fill="#3CB8AA"/>
<path d="M35.889 33.7057H27.1707V42.424H35.889V33.7057Z" fill="#7AC9C8"/>
<path d="M35.889 33.7217H27.2028M35.8729 42.4239H27.1707V33.7217H27.1868L30.4461 30.4464H39.1483L35.9211 33.6736H35.905L39.1483 30.4303V39.1486L35.8729 42.4239ZM35.8729 42.4239V33.7217" stroke="#00A19F" stroke-width="0.21" stroke-linecap="round" stroke-linejoin="round"/>
<path d="M44.6232 33.7217H35.9049L39.1803 30.4303H47.8825" fill="#C8E7E9"/>
<path d="M47.8986 39.1486L44.6232 42.4079V33.7217L47.8986 30.4303" fill="#3CB8AA"/>
<path d="M44.6232 33.7057H35.9049V42.424H44.6232V33.7057Z" fill="#7AC9C8"/>
<path d="M44.6071 33.7217H35.921M44.5911 42.4239H35.8889V33.7217H35.905L39.1643 30.4464H47.8664L44.6393 33.6736H44.6232L47.8664 30.4303V39.1486L44.5911 42.4239ZM44.5911 42.4239V33.7217" stroke="#00A19F" stroke-width="0.21" stroke-linecap="round" stroke-linejoin="round"/>
<path d="M53.3414 33.7217H44.6232L47.8986 30.4303H56.6007" fill="#C8E7E9"/>
<path d="M56.6167 39.1486L53.3414 42.4079V33.7217L56.6167 30.4303" fill="#3CB8AA"/>
<path d="M53.3414 33.7057H44.6232V42.424H53.3414V33.7057Z" fill="#7AC9C8"/>
<path d="M53.3414 33.7217H44.6553M53.3254 42.4239H44.6232V33.7217H44.6393L47.8986 30.4464H56.6007L53.3735 33.6736H53.3575L56.6007 30.4303V39.1486L53.3254 42.4239ZM53.3254 42.4239V33.7217" stroke="#00A19F" stroke-width="0.21" stroke-linecap="round" stroke-linejoin="round"/>
<path d="M62.0596 33.7217H53.3414L56.6167 30.4303H65.3189" fill="#C8E7E9"/>
<path d="M65.335 39.1486L62.0597 42.4079V33.7217L65.335 30.4303" fill="#3CB8AA"/>
<path d="M62.0436 33.7057H53.3414V42.424H62.0436V33.7057Z" fill="#7AC9C8"/>
<path d="M62.0596 33.7217H53.3735M62.0436 42.4239H53.3414V33.7217H53.3574L56.6167 30.4464H65.3189L62.0917 33.6736H62.0757L65.3189 30.4303V39.1486L62.0436 42.4239ZM62.0436 42.4239V33.7217" stroke="#00A19F" stroke-width="0.21" stroke-linecap="round" stroke-linejoin="round"/>
<path d="M70.7779 33.7217H62.0597L65.335 30.4303H74.0532" fill="#C8E7E9"/>
<path d="M74.0533 39.1486L70.7779 42.4079V33.7217L74.0533 30.4303" fill="#3CB8AA"/>
<path d="M70.7779 33.7057H62.0597V42.424H70.7779V33.7057Z" fill="#7AC9C8"/>
<path d="M62.0917 33.7217H70.7778V42.4239M62.0917 33.7217L65.351 30.4464H74.0532L70.81 33.6736L74.0532 30.4303V39.1486L70.7778 42.4239M62.0917 33.7217H62.0757V42.4239H70.7778" stroke="#00A19F" stroke-width="0.21" stroke-linecap="round" stroke-linejoin="round"/>
<path d="M79.5121 33.7217H70.7939L74.0692 30.4303H82.7714" fill="#C8E7E9"/>
<path d="M82.7876 39.1486L79.5122 42.4079V33.7217L82.7876 30.4303" fill="#3CB8AA"/>
<path d="M79.5121 33.7057H70.7939V42.424H79.5121V33.7057Z" fill="#7AC9C8"/>
<path d="M70.8099 33.7217H79.496V42.4239M70.8099 33.7217L74.0692 30.4464H82.7714L79.5442 33.6736H79.5281L82.7714 30.4303V39.1486L79.496 42.4239M70.8099 33.7217H70.7939V42.4239H79.496" stroke="#00A19F" stroke-width="0.21" stroke-linecap="round" stroke-linejoin="round"/>
<path d="M88.2304 33.7217H79.5122L82.7876 30.4303H91.4897" fill="#C8E7E9"/>
<path d="M91.5057 39.1486L88.2304 42.4079V33.7217L91.5057 30.4303" fill="#2AB7B5"/>
<path d="M88.2304 33.7057H79.5122V42.424H88.2304V33.7057Z" fill="#7AC9C8"/>
<path d="M88.2304 33.7217H79.5443M88.2144 42.4239H79.5122V33.7217H79.5283L82.7876 30.4464H91.4897L88.2625 33.6736H88.2465L91.4897 30.4303V39.1486L88.2144 42.4239ZM88.2144 42.4239V33.7217" stroke="#00A19F" stroke-width="0.21" stroke-linecap="round" stroke-linejoin="round"/>
</svg>
