<svg width="122" height="17" viewBox="0 0 122 17" fill="none" xmlns="http://www.w3.org/2000/svg">
<path d="M16.9235 0.92281H5.3641V12.4609H16.9235V0.92281Z" fill="#7FC9BB"/>
<path d="M28.4827 0.92281H16.9234V12.4609H28.4827V0.92281Z" fill="#7FC9BB"/>
<path d="M40.0421 0.92281H28.4828V12.4609H40.0421V0.92281Z" fill="#7FC9BB"/>
<path d="M51.6014 0.92281H40.042V12.4609H51.6014V0.92281Z" fill="#7FC9BB"/>
<path d="M63.1821 0.92281H51.6228V12.4609H63.1821V0.92281Z" fill="#7FC9BB"/>
<path d="M74.7414 0.92281H63.182V12.4609H74.7414V0.92281Z" fill="#7FC9BB"/>
<path d="M86.3008 0.92281H74.7414V12.4609H86.3008V0.92281Z" fill="#7FC9BB"/>
<path d="M97.8601 0.92281H86.3007V12.4609H97.8601V0.92281Z" fill="#7FC9BB"/>
<path d="M109.441 0.92281H97.8814V12.4609H109.441V0.92281Z" fill="#7FC9BB"/>
<path d="M121 0.92281H109.441V12.4609H121V0.92281Z" fill="#7FC9BB"/>
<path d="M12.5594 5.28671H1L5.34274 0.922687H16.8808" fill="#E1E1E1"/>
<path d="M16.9023 12.4822L12.5595 16.8036V5.28684L16.9023 0.92281" fill="#3CB8AA"/>
<path d="M12.5594 5.26559H1V16.8037H12.5594V5.26559Z" fill="#BBBBBB"/>
<path d="M1.04263 5.28717H12.5594V16.8039M12.5594 16.8039H1.02135V5.26588H1.04263L5.36409 0.923148H16.9022L12.602 5.20202L16.9022 0.901855V12.4612L12.5594 16.8039Z" stroke="#999999" stroke-width="0.21" stroke-linecap="round" stroke-linejoin="round"/>
<path d="M24.1188 5.28684H12.5807L16.9022 0.92281H28.4615" fill="#E1E1E1"/>
<path d="M28.4614 12.4822L24.1187 16.8036V5.28684L28.4614 0.92281" fill="#3CB8AA"/>
<path d="M24.1189 5.26559H12.5595V16.8037H24.1189V5.26559Z" fill="#BBBBBB"/>
<path d="M12.602 5.28717H24.1188V16.8039M24.1188 16.8039H12.5807V5.26588H12.602L16.9235 0.923148H28.4615L24.1613 5.20202L28.4615 0.901855V12.4612L24.1188 16.8039Z" stroke="#999999" stroke-width="0.21" stroke-linecap="round" stroke-linejoin="round"/>
<path d="M35.6993 5.28684H24.14L28.4827 0.92281H40.0208" fill="#E1E1E1"/>
<path d="M40.0209 12.4822L35.6782 16.8036V5.28684L40.0209 0.92281" fill="#3CB8AA"/>
<path d="M35.6993 5.26559H24.14V16.8037H35.6993V5.26559Z" fill="#BBBBBB"/>
<path d="M24.1613 5.28717H35.678V16.8039M35.678 16.8039H24.14V5.26588H24.1613L28.4827 0.923148H40.0208L35.7206 5.20202L40.0208 0.901855V12.4612L35.678 16.8039Z" stroke="#999999" stroke-width="0.21" stroke-linecap="round" stroke-linejoin="round"/>
<path d="M47.2589 5.28684H35.6995L40.0422 0.92281H51.5803" fill="#E1E1E1"/>
<path d="M51.6014 12.4822L47.2373 16.8036V5.28684L51.6014 0.92281" fill="#3CB8AA"/>
<path d="M47.2589 5.26559H35.6995V16.8037H47.2589V5.26559Z" fill="#BBBBBB"/>
<path d="M35.7208 5.28717H47.2376V16.8039M47.2376 16.8039H35.6995V5.26588H35.7208L40.0422 0.923148H51.5803L47.2801 5.20202L51.5803 0.901855V12.4612L47.2376 16.8039Z" stroke="#999999" stroke-width="0.21" stroke-linecap="round" stroke-linejoin="round"/>
<path d="M58.818 5.28684H47.2587L51.6014 0.92281H63.1607" fill="#E1E1E1"/>
<path d="M63.1609 12.4822L58.8182 16.8036V5.28684L63.1609 0.92281" fill="#3CB8AA"/>
<path d="M58.818 5.26559H47.2587V16.8037H58.818V5.26559Z" fill="#BBBBBB"/>
<path d="M47.3013 5.28717H58.818V16.8039M58.818 16.8039H47.28V5.26588H47.3013L51.6227 0.923148H63.1608L58.8606 5.20202L63.1608 0.901855V12.4612L58.818 16.8039Z" stroke="#999999" stroke-width="0.21" stroke-linecap="round" stroke-linejoin="round"/>
<path d="M70.3987 5.28684H58.8394L63.1821 0.92281H74.7202" fill="#E1E1E1"/>
<path d="M74.72 12.4822L70.3773 16.8036V5.28684L74.72 0.92281" fill="#3CB8AA"/>
<path d="M70.3775 5.26559H58.8182V16.8037H70.3775V5.26559Z" fill="#BBBBBB"/>
<path d="M58.8607 5.28717H70.3774V16.8039M70.3774 16.8039H58.8394V5.26588H58.8607L63.1821 0.923148H74.7202L70.42 5.20202L74.7202 0.901855V12.4612L70.3774 16.8039Z" stroke="#999999" stroke-width="0.21" stroke-linecap="round" stroke-linejoin="round"/>
<path d="M81.958 5.28684H70.3986L74.7414 0.92281H86.2795" fill="#E1E1E1"/>
<path d="M86.3009 12.4822L81.9368 16.8036V5.28684L86.3009 0.92281" fill="#3CB8AA"/>
<path d="M81.9367 5.26559H70.3986V16.8037H81.9367V5.26559Z" fill="#BBBBBB"/>
<path d="M70.4199 5.28717H81.9367V16.8039M81.9367 16.8039H70.3986V5.26588H70.4199L74.7414 0.923148H86.2795L81.9793 5.20202L86.2795 0.901855V12.4612L81.9367 16.8039Z" stroke="#999999" stroke-width="0.21" stroke-linecap="round" stroke-linejoin="round"/>
<path d="M93.5174 5.28684H81.958L86.3008 0.92281H97.8388" fill="#E1E1E1"/>
<path d="M97.8601 12.4822L93.5173 16.8036V5.28684L97.8601 0.92281" fill="#3CB8AA"/>
<path d="M93.5174 5.26559H81.958V16.8037H93.5174V5.26559Z" fill="#BBBBBB"/>
<path d="M81.9793 5.28717H93.4961V16.8039M93.4961 16.8039H81.958V5.26588H81.9793L86.3008 0.923148H97.8388L93.56 5.20202H93.5386L97.8388 0.901855V12.4612L93.4961 16.8039Z" stroke="#999999" stroke-width="0.21" stroke-linecap="round" stroke-linejoin="round"/>
<path d="M105.077 5.28684H93.5386L97.8601 0.92281H109.419" fill="#E1E1E1"/>
<path d="M109.42 12.4822L105.077 16.8036V5.28684L109.42 0.92281" fill="#3CB8AA"/>
<path d="M105.077 5.26559H93.5173V16.8037H105.077V5.26559Z" fill="#BBBBBB"/>
<path d="M93.5599 5.28717H105.077V16.8039M105.077 16.8039H93.5386V5.26588H93.5599L97.8814 0.923148H109.419L105.119 5.20202L109.419 0.901855V12.4612L105.077 16.8039Z" stroke="#999999" stroke-width="0.21" stroke-linecap="round" stroke-linejoin="round"/>
<path d="M116.657 5.28684H105.098L109.441 0.92281H120.979" fill="#E1E1E1"/>
<path d="M121 12.4822L116.636 16.8036V5.28684L121 0.92281" fill="#A5A5A5"/>
<path d="M116.657 5.26559H105.098V16.8037H116.657V5.26559Z" fill="#BBBBBB"/>
<path d="M105.119 5.28717H116.636V16.8039M116.636 16.8039H105.098V5.26588H105.119L109.441 0.923148H120.979L116.679 5.20202L120.979 0.901855V12.4612L116.636 16.8039Z" stroke="#999999" stroke-width="0.21" stroke-linecap="round" stroke-linejoin="round"/>
</svg>
