 <svg
                                                width="20"
                                                height="20"
                                                viewBox="0 0 20 20"
                                                fill="none"
                                                xmlns="http://www.w3.org/2000/svg"
                                            >
                                                <path
                                                    d="M4.72975 9.43301C4.41733 9.12059 3.9108 9.12059 3.59838 9.43301C3.28596 9.74543 3.28596 10.252 3.59838 10.5644L4.72975 9.43301ZM8.33073 14.1654L7.76504 14.731C8.07746 15.0435 8.58399 15.0435 8.89641 14.731L8.33073 14.1654ZM17.2297 6.39772C17.5422 6.0853 17.5422 5.57877 17.2297 5.26635C16.9173 4.95393 16.4108 4.95393 16.0984 5.26635L17.2297 6.39772ZM3.59838 10.5644L7.76504 14.731L8.89641 13.5997L4.72975 9.43301L3.59838 10.5644ZM8.89641 14.731L17.2297 6.39772L16.0984 5.26635L7.76504 13.5997L8.89641 14.731Z"
                                                    fill="white"
                                                />
                                            </svg>