<svg width="20" height="20" viewBox="0 0 20 20" fill="none" xmlns="http://www.w3.org/2000/svg">
<g clip-path="url(#clip0_986_21686)">
<path fill-rule="evenodd" clip-rule="evenodd" d="M6.87131 2.44657C7.86325 2.03569 8.9264 1.82422 10.0001 1.82422C11.0737 1.82422 12.1369 2.03569 13.1288 2.44657C14.1208 2.85744 15.0221 3.45967 15.7813 4.21887C16.5405 4.97807 17.1427 5.87937 17.5536 6.87131C17.9644 7.86325 18.1759 8.9264 18.1759 10.0001V14.3751C18.1759 14.8858 17.973 15.3757 17.6118 15.7368C17.2507 16.098 16.7608 16.3009 16.2501 16.3009H15.0001C14.4893 16.3009 13.9995 16.098 13.6383 15.7368C13.2771 15.3757 13.0742 14.8858 13.0742 14.3751V11.2501C13.0742 10.7393 13.2771 10.2495 13.6383 9.88829C13.9995 9.52712 14.4893 9.32422 15.0001 9.32422H16.7907C16.7246 8.65989 16.5612 8.00762 16.3048 7.38858C15.9618 6.56063 15.4592 5.80835 14.8255 5.17467C14.1918 4.54098 13.4395 4.03832 12.6116 3.69538C11.7836 3.35243 10.8962 3.17592 10.0001 3.17592C9.10391 3.17592 8.21652 3.35243 7.38858 3.69538C6.56063 4.03832 5.80835 4.54098 5.17467 5.17467C4.54098 5.80835 4.03832 6.56063 3.69538 7.38858C3.43896 8.00762 3.27559 8.65989 3.20947 9.32422H5.00007C5.51084 9.32422 6.00068 9.52712 6.36185 9.88829C6.72302 10.2495 6.92592 10.7393 6.92592 11.2501V14.3751C6.92592 14.8858 6.72302 15.3757 6.36185 15.7368C6.00068 16.098 5.51084 16.3009 5.00007 16.3009H3.75007C3.2393 16.3009 2.74945 16.098 2.38829 15.7368C2.02712 15.3757 1.82422 14.8858 1.82422 14.3751V10.0001C1.82422 8.9264 2.03569 7.86325 2.44657 6.87131C2.85744 5.87937 3.45967 4.97807 4.21887 4.21887C4.97807 3.45967 5.87937 2.85744 6.87131 2.44657Z" fill="#9747FF"/>
</g>
<defs>
<clipPath id="clip0_986_21686">
<rect width="20" height="20" fill="white"/>
</clipPath>
</defs>
</svg>
