 <svg
                                xmlns="http://www.w3.org/2000/svg"
                                width="180"
                                height="180"
                                viewBox="0 0 180 180"
                                fill="none"
                            >
                                <rect
                                    x="35.1406"
                                    y="35.1445"
                                    width="109.714"
                                    height="109.714"
                                    rx="54.8571"
                                    fill="#FFF5F5"
                                />
                                <ellipse cx="89.9983" cy="82.3333" rx="8.88889" ry="13.3333" fill="#FE5663" />
                                <path
                                    d="M74 87.1053C74 91.3069 75.6857 95.3364 78.6863 98.3073C81.6869 101.278 85.7565 102.947 90 102.947M90 102.947C94.2435 102.947 98.3131 101.278 101.314 98.3073C104.314 95.3364 106 91.3069 106 87.1053M90 102.947V112M80.8571 112H99.1429M83.1429 75.7895C83.1429 73.9888 83.8653 72.2619 85.1513 70.9886C86.4372 69.7153 88.1814 69 90 69C91.8186 69 93.5628 69.7153 94.8487 70.9886C96.1347 72.2619 96.8571 73.9888 96.8571 75.7895V87.1053C96.8571 88.9059 96.1347 90.6329 94.8487 91.9061C93.5628 93.1794 91.8186 93.8947 90 93.8947C88.1814 93.8947 86.4372 93.1794 85.1513 91.9061C83.8653 90.6329 83.1429 88.9059 83.1429 87.1053V75.7895Z"
                                    stroke="#FE5663"
                                    strokeWidth="4"
                                    strokeLinecap="round"
                                    strokeLinejoin="round"
                                />
                                <circle cx="89.9978" cy="89.9978" r="65.8571" stroke="#FFF5F5" strokeWidth="2" />
                            </svg>