<svg width="20" height="20" viewBox="0 0 20 20" fill="none" xmlns="http://www.w3.org/2000/svg">
<ellipse cx="10.0004" cy="7.60417" rx="2.77778" ry="4.16667" fill="#FE5663"/>
<path fill-rule="evenodd" clip-rule="evenodd" d="M10 4.0625C9.59545 4.0625 9.2087 4.22168 8.92452 4.50306C8.64054 4.78424 8.48214 5.16427 8.48214 5.55921V9.09539C8.48214 9.49034 8.64054 9.87037 8.92452 10.1515C9.2087 10.4329 9.59545 10.5921 10 10.5921C10.4046 10.5921 10.7913 10.4329 11.0755 10.1515C11.3595 9.87037 11.5179 9.49034 11.5179 9.09539V5.55921C11.5179 5.16427 11.3595 4.78424 11.0755 4.50306C10.7913 4.22168 10.4045 4.0625 10 4.0625ZM8.04503 3.61481C8.56457 3.10039 9.26791 2.8125 10 2.8125C10.7321 2.8125 11.4354 3.10039 11.955 3.61481C12.4747 4.12943 12.7679 4.82873 12.7679 5.55921V9.09539C12.7679 9.82588 12.4747 10.5252 11.955 11.0398C11.4354 11.5542 10.7321 11.8421 10 11.8421C9.26791 11.8421 8.56457 11.5542 8.04503 11.0398C7.52528 10.5252 7.23214 9.82588 7.23214 9.09539V5.55921C7.23214 4.82873 7.52528 4.12943 8.04503 3.61481ZM5 8.47039C5.34518 8.47039 5.625 8.75022 5.625 9.09539C5.625 10.2406 6.08441 11.3402 6.90421 12.1519C7.72422 12.9638 8.83769 13.4211 10 13.4211C11.1623 13.4211 12.2758 12.9638 13.0958 12.1519C13.9156 11.3402 14.375 10.2406 14.375 9.09539C14.375 8.75022 14.6548 8.47039 15 8.47039C15.3452 8.47039 15.625 8.75022 15.625 9.09539C15.625 10.5762 15.0308 11.995 13.9753 13.0402C13.0685 13.938 11.8852 14.4969 10.625 14.6365V16.25H12.8571C13.2023 16.25 13.4821 16.5298 13.4821 16.875C13.4821 17.2202 13.2023 17.5 12.8571 17.5H7.14286C6.79768 17.5 6.51786 17.2202 6.51786 16.875C6.51786 16.5298 6.79768 16.25 7.14286 16.25H9.375V14.6365C8.11479 14.4969 6.93146 13.938 6.02472 13.0402C4.96915 11.995 4.375 10.5762 4.375 9.09539C4.375 8.75022 4.65482 8.47039 5 8.47039Z" fill="#FE5663"/>
</svg>