<svg
                                        width="32"
                                        height="32"
                                        viewBox="0 0 32 32"
                                        fill="none"
                                        xmlns="http://www.w3.org/2000/svg"
                                    >
                                        <rect x="0.75" y="0.75" width="30.5" height="30.5" rx="15.25" fill="white" />
                                        <rect
                                            x="0.75"
                                            y="0.75"
                                            width="30.5"
                                            height="30.5"
                                            rx="15.25"
                                            stroke="#FE5663"
                                            strokeWidth="1.5"
                                        />
                                        <g clipPath="url(#clip0_1373_55504)">
                                            <path
                                                d="M13.7195 9.33203H12.1957C11.7915 9.33203 11.404 9.50763 11.1182 9.82019C10.8324 10.1327 10.6719 10.5567 10.6719 10.9987V20.9987C10.6719 21.4407 10.8324 21.8646 11.1182 22.1772C11.404 22.4898 11.7915 22.6654 12.1957 22.6654H13.7195C14.1236 22.6654 14.5112 22.4898 14.797 22.1772C15.0828 21.8646 15.2433 21.4407 15.2433 20.9987V10.9987C15.2433 10.5567 15.0828 10.1327 14.797 9.82019C14.5112 9.50763 14.1236 9.33203 13.7195 9.33203Z"
                                                fill="#FE5663"
                                            />
                                            <path
                                                d="M19.8147 9.33203H18.2909C17.8868 9.33203 17.4992 9.50763 17.2134 9.82019C16.9277 10.1327 16.7671 10.5567 16.7671 10.9987V20.9987C16.7671 21.4407 16.9277 21.8646 17.2134 22.1772C17.4992 22.4898 17.8868 22.6654 18.2909 22.6654H19.8147C20.2189 22.6654 20.6065 22.4898 20.8922 22.1772C21.178 21.8646 21.3385 21.4407 21.3385 20.9987V10.9987C21.3385 10.5567 21.178 10.1327 20.8922 9.82019C20.6065 9.50763 20.2189 9.33203 19.8147 9.33203Z"
                                                fill="#FE5663"
                                            />
                                        </g>
                                        <defs>
                                            <clipPath id="clip0_1373_55504">
                                                <rect
                                                    width="13.3333"
                                                    height="13.3333"
                                                    fill="white"
                                                    transform="translate(9.33594 9.33203)"
                                                />
                                            </clipPath>
                                        </defs>
                                    </svg>