 <svg
                                        width="14"
                                        height="14"
                                        viewBox="0 0 14 14"
                                        fill="none"
                                        xmlns="http://www.w3.org/2000/svg"
                                    >
                                        <g clipPath="url(#clip0_1373_82396)">
                                            <path
                                                d="M4.71949 0.332031H3.19568C2.79155 0.332031 2.40396 0.507626 2.11819 0.820187C1.83242 1.13275 1.67188 1.55667 1.67188 1.9987V11.9987C1.67188 12.4407 1.83242 12.8646 2.11819 13.1772C2.40396 13.4898 2.79155 13.6654 3.19568 13.6654H4.71949C5.12363 13.6654 5.51122 13.4898 5.79699 13.1772C6.08276 12.8646 6.2433 12.4407 6.2433 11.9987V1.9987C6.2433 1.55667 6.08276 1.13275 5.79699 0.820187C5.51122 0.507626 5.12363 0.332031 4.71949 0.332031Z"
                                                fill="#FE5663"
                                            />
                                            <path
                                                d="M10.8147 0.332031H9.29092C8.88678 0.332031 8.4992 0.507626 8.21343 0.820187C7.92766 1.13275 7.76711 1.55667 7.76711 1.9987V11.9987C7.76711 12.4407 7.92766 12.8646 8.21343 13.1772C8.4992 13.4898 8.88678 13.6654 9.29092 13.6654H10.8147C11.2189 13.6654 11.6065 13.4898 11.8922 13.1772C12.178 12.8646 12.3385 12.4407 12.3385 11.9987V1.9987C12.3385 1.55667 12.178 1.13275 11.8922 0.820187C11.6065 0.507626 11.2189 0.332031 10.8147 0.332031Z"
                                                fill="#FE5663"
                                            />
                                        </g>
                                        <defs>
                                            <clipPath id="clip0_1373_82396">
                                                <rect
                                                    width="13.3333"
                                                    height="13.3333"
                                                    fill="white"
                                                    transform="translate(0.335938 0.332031)"
                                                />
                                            </clipPath>
                                        </defs>
                                    </svg>