   <svg
                                                width="20"
                                                height="20"
                                                viewBox="0 0 20 20"
                                                fill="none"
                                                xmlns="http://www.w3.org/2000/svg"
                                            >
                                                <path
                                                    d="M15.8769 9.27866C15.9377 9.71628 16.3418 10.0217 16.7794 9.96092C17.217 9.90011 17.5225 9.49604 17.4617 9.05842L15.8769 9.27866ZM3.01412 7.19422C2.84421 7.60207 3.0371 8.07044 3.44495 8.24035C3.85281 8.41026 4.32117 8.21737 4.49108 7.80952L3.01412 7.19422ZM4.13594 4.16854C4.13594 3.72671 3.77777 3.36854 3.33594 3.36854C2.89411 3.36854 2.53594 3.72671 2.53594 4.16854H4.13594ZM3.33594 7.50187H2.53594C2.53594 7.9437 2.89411 8.30187 3.33594 8.30187V7.50187ZM6.66927 8.30187C7.1111 8.30187 7.46927 7.9437 7.46927 7.50187C7.46927 7.06004 7.1111 6.70187 6.66927 6.70187V8.30187ZM4.12832 10.7251C4.06751 10.2875 3.66344 9.98199 3.22582 10.0428C2.7882 10.1036 2.48274 10.5077 2.54355 10.9453L4.12832 10.7251ZM16.9911 12.8095C17.161 12.4017 16.9681 11.9333 16.5603 11.7634C16.1524 11.5935 15.684 11.7864 15.5141 12.1942L16.9911 12.8095ZM15.8693 15.8352C15.8693 16.277 16.2274 16.6352 16.6693 16.6352C17.1111 16.6352 17.4693 16.277 17.4693 15.8352H15.8693ZM16.6693 12.5019H17.4693C17.4693 12.06 17.1111 11.7019 16.6693 11.7019V12.5019ZM13.3359 11.7019C12.8941 11.7019 12.5359 12.06 12.5359 12.5019C12.5359 12.9437 12.8941 13.3019 13.3359 13.3019V11.7019ZM17.4617 9.05842C17.2337 7.41813 16.4728 5.89829 15.2961 4.73301L14.1702 5.86989C15.0976 6.78822 15.6972 7.98598 15.8769 9.27866L17.4617 9.05842ZM15.2961 4.73301C14.1193 3.56773 12.5921 2.82167 10.9497 2.60974L10.745 4.19659C12.0393 4.3636 13.2429 4.95156 14.1702 5.86989L15.2961 4.73301ZM10.9497 2.60974C9.30727 2.39782 7.64071 2.73178 6.20675 3.5602L7.00713 4.94562C8.1372 4.29276 9.45058 4.02957 10.745 4.19659L10.9497 2.60974ZM6.20675 3.5602C4.77279 4.38861 3.65098 5.66552 3.01412 7.19422L4.49108 7.80952C4.99298 6.60478 5.87705 5.59848 7.00713 4.94562L6.20675 3.5602ZM2.53594 4.16854V7.50187H4.13594V4.16854H2.53594ZM3.33594 8.30187H6.66927V6.70187H3.33594V8.30187ZM2.54355 10.9453C2.77151 12.5856 3.53245 14.1054 4.70915 15.2707L5.83499 14.1338C4.90765 13.2155 4.30797 12.0178 4.12832 10.7251L2.54355 10.9453ZM4.70915 15.2707C5.88586 16.436 7.41306 17.1821 9.0555 17.394L9.26026 15.8071C7.96588 15.6401 6.76233 15.0522 5.83499 14.1338L4.70915 15.2707ZM9.0555 17.394C10.6979 17.6059 12.3645 17.272 13.7985 16.4435L12.9981 15.0581C11.868 15.711 10.5546 15.9742 9.26026 15.8071L9.0555 17.394ZM13.7985 16.4435C15.2324 15.6151 16.3542 14.3382 16.9911 12.8095L15.5141 12.1942C15.0122 13.399 14.1282 14.4053 12.9981 15.0581L13.7985 16.4435ZM17.4693 15.8352V12.5019H15.8693V15.8352H17.4693ZM16.6693 11.7019H13.3359V13.3019H16.6693V11.7019Z"
                                                    fill="#6A6D73"
                                                />
                                            </svg>