<svg width="41" height="40" viewBox="0 0 41 40" fill="none" xmlns="http://www.w3.org/2000/svg">
<rect x="1.25" y="0.75" width="38.5" height="38.5" rx="19.25" fill="white"/>
<rect x="1.25" y="0.75" width="38.5" height="38.5" rx="19.25" stroke="#D0D3D9" stroke-width="1.5"/>
<g clip-path="url(#clip0_4148_9489)">
<path fill-rule="evenodd" clip-rule="evenodd" d="M17.3429 12.378C18.3438 11.9634 19.4166 11.75 20.5 11.75C21.5834 11.75 22.6562 11.9634 23.6571 12.378C24.6581 12.7926 25.5675 13.4003 26.3336 14.1664C27.0997 14.9325 27.7074 15.8419 28.122 16.8429C28.5366 17.8438 28.75 18.9166 28.75 20V24.375C28.75 24.9054 28.5393 25.4141 28.1642 25.7892C27.7891 26.1643 27.2804 26.375 26.75 26.375H25.5C24.9696 26.375 24.4609 26.1643 24.0858 25.7892C23.7107 25.4141 23.5 24.9054 23.5 24.375V21.25C23.5 20.7196 23.7107 20.2109 24.0858 19.8358C24.4609 19.4607 24.9696 19.25 25.5 19.25H27.2082C27.1379 18.6211 26.9793 18.0039 26.7362 17.4169C26.397 16.5979 25.8998 15.8538 25.273 15.227C24.6462 14.6002 23.9021 14.103 23.0831 13.7638C22.2642 13.4246 21.3864 13.25 20.5 13.25C19.6136 13.25 18.7358 13.4246 17.9169 13.7638C17.0979 14.103 16.3538 14.6002 15.727 15.227C15.1002 15.8538 14.603 16.5979 14.2638 17.4169C14.0207 18.0039 13.8621 18.6211 13.7918 19.25H15.5C16.0304 19.25 16.5391 19.4607 16.9142 19.8358C17.2893 20.2109 17.5 20.7196 17.5 21.25V24.375C17.5 24.9054 17.2893 25.4141 16.9142 25.7892C16.5391 26.1643 16.0304 26.375 15.5 26.375H14.25C13.7196 26.375 13.2109 26.1643 12.8358 25.7892C12.4607 25.4141 12.25 24.9054 12.25 24.375V20C12.25 18.9166 12.4634 17.8438 12.878 16.8429C13.2926 15.8419 13.9003 14.9325 14.6664 14.1664C15.4325 13.4003 16.3419 12.7926 17.3429 12.378Z" fill="#6A6D73"/>
</g>
<defs>
<clipPath id="clip0_4148_9489">
<rect width="20" height="20" fill="white" transform="translate(10.5 10)"/>
</clipPath>
</defs>
</svg>
