<svg width="14" height="14" viewBox="0 0 14 14" fill="none" xmlns="http://www.w3.org/2000/svg">
<g clip-path="url(#clip0_986_23456)">
<path d="M4.7151 0.333496H3.19129C2.78715 0.333496 2.39956 0.509091 2.11379 0.821651C1.82802 1.13421 1.66748 1.55814 1.66748 2.00016V12.0002C1.66748 12.4422 1.82802 12.8661 2.11379 13.1787C2.39956 13.4912 2.78715 13.6668 3.19129 13.6668H4.7151C5.11924 13.6668 5.50683 13.4912 5.7926 13.1787C6.07836 12.8661 6.23891 12.4422 6.23891 12.0002V2.00016C6.23891 1.55814 6.07836 1.13421 5.7926 0.821651C5.50683 0.509091 5.11924 0.333496 4.7151 0.333496Z" fill="#9747FF"/>
<path d="M10.8103 0.333496H9.28653C8.88239 0.333496 8.4948 0.509091 8.20903 0.821651C7.92326 1.13421 7.76272 1.55814 7.76272 2.00016V12.0002C7.76272 12.4422 7.92326 12.8661 8.20903 13.1787C8.4948 13.4912 8.88239 13.6668 9.28653 13.6668H10.8103C11.2145 13.6668 11.6021 13.4912 11.8878 13.1787C12.1736 12.8661 12.3341 12.4422 12.3341 12.0002V2.00016C12.3341 1.55814 12.1736 1.13421 11.8878 0.821651C11.6021 0.509091 11.2145 0.333496 10.8103 0.333496Z" fill="#9747FF"/>
</g>
<defs>
<clipPath id="clip0_986_23456">
<rect width="13.3333" height="13.3333" fill="white" transform="translate(0.333496 0.333496)"/>
</clipPath>
</defs>
</svg>
