<svg xmlns="http://www.w3.org/2000/svg" width="110" height="1067" viewBox="0 0 110 1067" fill="none">
<path d="M2.85326 72.7218C2.85326 72.7218 -0.258063 22.8911 53.9921 2.61377V22.3255L2.85326 72.7218Z" fill="#EB9746"/>
<path d="M55.1074 123.658C83.9635 123.658 107.357 100.264 107.357 71.4077C107.357 42.5516 83.9635 19.1577 55.1074 19.1577C26.2513 19.1577 2.85742 42.5516 2.85742 71.4077C2.85742 100.264 26.2513 123.658 55.1074 123.658Z" fill="#EB9746"/>
<path d="M72.1496 32.365C70.3111 37.1445 65.6159 39.0393 61.3732 37.399C57.1304 35.7587 54.8677 31.3469 56.7345 26.426C58.9689 20.5719 64.2299 17.1782 68.5009 18.8185C72.7436 20.4588 74.3841 26.5109 72.1496 32.3367" fill="white"/>
<path d="M72.1496 32.365C70.3111 37.1445 65.6159 39.0393 61.3732 37.399C57.1304 35.7587 54.8677 31.3469 56.7345 26.426C58.9689 20.5719 64.2299 17.1782 68.5009 18.8185C72.7436 20.4588 74.3841 26.5109 72.1496 32.3367V32.365Z" stroke="#EB9746" stroke-width="4.77281" stroke-miterlimit="10"/>
<path d="M90.593 33.2981C88.7545 38.0776 84.0592 39.9724 79.8165 38.3321C75.5738 36.6918 73.311 32.28 75.1778 27.3591C77.4123 21.505 82.6733 18.1113 86.9443 19.7516C91.187 21.3919 92.8275 27.444 90.593 33.2698" fill="white"/>
<path d="M90.593 33.2981C88.7545 38.0776 84.0592 39.9724 79.8165 38.3321C75.5738 36.6918 73.311 32.28 75.1778 27.3591C77.4123 21.505 82.6733 18.1113 86.9443 19.7516C91.187 21.3919 92.8275 27.444 90.593 33.2698V33.2981Z" stroke="#EB9746" stroke-width="4.77281" stroke-miterlimit="10"/>
<path d="M72.1496 32.365C70.3111 37.1445 65.6159 39.0393 61.3732 37.399C57.1304 35.7587 54.8677 31.3469 56.7345 26.426C58.9689 20.5719 64.2299 17.1782 68.5009 18.8185C72.7436 20.4588 74.3841 26.5109 72.1496 32.3367" fill="white"/>
<path d="M72.1496 32.365C70.3111 37.1445 65.6159 39.0393 61.3732 37.399C57.1304 35.7587 54.8677 31.3469 56.7345 26.426C58.9689 20.5719 64.2299 17.1782 68.5009 18.8185C72.7436 20.4588 74.3841 26.5109 72.1496 32.3367V32.365Z" stroke="#231815" stroke-width="1.06062" stroke-miterlimit="10"/>
<path d="M67.2566 37.484C65.3049 38.3607 63.2402 38.0213 62.6745 36.7204C62.0805 35.4195 63.1836 33.6378 65.1352 32.7611C67.0869 31.8844 69.1517 32.2238 69.7174 33.5247C70.3113 34.8256 69.2082 36.6073 67.2566 37.484Z" fill="#231815"/>
<path d="M90.593 33.2981C88.7545 38.0776 84.0592 39.9724 79.8165 38.3321C75.5738 36.6918 73.311 32.28 75.1778 27.3591C77.4123 21.505 82.6733 18.1113 86.9443 19.7516C91.187 21.3919 92.8275 27.444 90.593 33.2698" fill="white"/>
<path d="M90.593 33.2981C88.7545 38.0776 84.0592 39.9724 79.8165 38.3321C75.5738 36.6918 73.311 32.28 75.1778 27.3591C77.4123 21.505 82.6733 18.1113 86.9443 19.7516C91.187 21.3919 92.8275 27.444 90.593 33.2698V33.2981Z" stroke="#231815" stroke-width="1.06062" stroke-miterlimit="10"/>
<path d="M84.2859 38.6997C82.2494 39.3784 80.2411 38.8128 79.7886 37.4553C79.336 36.0978 80.6088 34.4576 82.6453 33.7788C84.6819 33.1001 86.6901 33.6657 87.1426 35.0232C87.5952 36.3806 86.3224 38.0209 84.2859 38.6997Z" fill="#231815"/>
<path d="M78.8278 42.5465C78.8278 42.5465 78.6016 44.6393 80.2421 45.4312M66.6654 42.292C66.6654 42.292 66.6654 44.6393 64.6289 45.6857M66.2129 44.2434C66.2129 44.2434 72.9446 47.4674 78.8278 44.2434" stroke="#231815" stroke-width="1.06062" stroke-miterlimit="10" stroke-linecap="round"/>
<path d="M48.4689 51.966H51.3289V57.816H54.5529V60.156H51.3289V65.876H48.4689V51.966ZM33.2589 56.438V54.176H38.6409V51.784H41.5009V54.176H46.8829V56.438H33.2589ZM34.4549 61.456C34.4549 58.96 36.7429 57.296 40.0709 57.296C43.4249 57.296 45.7129 58.96 45.7129 61.456C45.7129 63.952 43.4249 65.59 40.0709 65.59C36.7429 65.59 34.4549 63.952 34.4549 61.456ZM36.4829 74.82V66.994H51.3289V74.82H36.4829ZM37.1849 61.456C37.1849 62.73 38.3549 63.484 40.0709 63.484C41.7869 63.484 42.9569 62.73 42.9569 61.456C42.9569 60.156 41.7869 59.428 40.0709 59.428C38.3549 59.428 37.1849 60.156 37.1849 61.456ZM39.2909 72.558H48.5469V69.282H39.2909V72.558ZM61.5735 54.644C61.5735 60.13 60.9755 65.434 57.9595 69.984L55.7235 68.762C58.2455 65.122 58.9995 61.378 59.1555 56.958H56.3995V54.644H61.5735ZM60.8715 70.01C63.6535 66.006 64.1995 61.56 64.2775 56.958H62.2755V54.644H66.7215C66.7215 56.646 66.6695 58.726 66.4615 60.78H68.7495V52.486H71.4275V73.988H68.7495V63.094H66.1495C65.6555 65.954 64.7455 68.736 63.0815 71.258L60.8715 70.01ZM73.1435 75.106V51.966H75.8735V75.106H73.1435ZM48.3909 83.966H51.2509V93.17H54.7609V95.536H51.2509V107.106H48.3909V83.966ZM33.1029 89.764V87.476H38.4849V84.304H41.3709V87.476H46.6749V89.764H33.1029ZM34.1689 96.758C34.1689 93.56 36.6389 91.324 39.9409 91.324C43.2949 91.324 45.7389 93.56 45.7389 96.758C45.7389 99.956 43.2949 102.192 39.9409 102.192C36.6389 102.192 34.1689 99.956 34.1689 96.758ZM36.9249 96.758C36.9249 98.656 38.1729 99.852 39.9409 99.852C41.7089 99.852 42.9829 98.656 42.9829 96.758C42.9829 94.86 41.7089 93.638 39.9409 93.638C38.1729 93.638 36.9249 94.86 36.9249 96.758ZM72.2335 83.94H75.0935V107.08H72.2335V83.94ZM56.0875 100.762C62.0935 97.876 64.8235 93.95 65.3175 88.672H57.2315V86.358H68.2555C68.2555 93.3 65.6295 99.124 57.5695 103.024L56.0875 100.762Z" fill="white"/>
<path d="M86 1065L74 1065C62.9543 1065 54 1056.05 54 1045L54 122" stroke="#EB9746" stroke-width="3"/>
</svg>