<svg width="443" height="116" viewBox="0 0 443 116" fill="none" xmlns="http://www.w3.org/2000/svg">
<path d="M429.388 17.3562C427.286 20.754 425.176 24.1518 423.073 27.5496C419.714 22.8355 414.028 18.8026 412.285 21.4198C408.627 26.9297 404.968 32.432 401.31 37.9342C401.684 36.6027 402.058 35.2711 402.44 33.9396C403.644 29.677 392.34 16.216 389.003 20.7234C386.556 24.0294 384.11 27.3353 381.664 30.6489C379.965 25.162 370.793 16.3767 368.339 19.9888C363.424 27.2052 358.501 34.4293 353.586 41.6458C352.531 41.0489 351.371 40.6433 350.137 40.5055C349.501 40.4367 348.109 40.3754 345.865 40.3754C343.987 39.0898 341.765 37.8271 339.767 36.8246C340.628 35.1104 341.511 33.4039 342.431 31.7126C343.665 29.4321 327.902 19.1317 326.548 21.1443C321.213 29.0419 315.842 36.8629 310.186 44.4467C310.103 44.3395 310.006 44.24 309.916 44.1406C310.679 42.7554 311.472 41.3856 312.318 40.0311C314.555 36.9471 316.784 33.863 319.021 30.779C320.181 29.1719 305.031 17.9225 303.138 20.2107C300.669 23.1952 298.44 26.2792 296.435 29.4628C295.387 30.9168 294.332 32.3631 293.285 33.8171C294.153 31.9575 295.036 30.1056 295.948 28.2536C297.175 25.7742 281.262 15.7721 280.065 17.6853C278.12 20.7923 276.137 23.8687 274.132 26.9374C271.993 23.509 259.805 15.7109 258.504 17.5093C252.99 25.139 247.483 32.761 241.97 40.3908H240.803C242.576 37.1766 244.289 33.9089 245.912 30.5724C247.536 27.2358 230.516 18.7261 228.772 22.3075C227.134 25.667 225.413 28.9653 223.625 32.1947C221.066 28.6592 209.133 22.407 206.852 25.4987C206.605 25.8354 206.358 26.1721 206.103 26.5088C202.206 22.8968 192.405 18.8485 190.475 21.2897C187.071 25.5829 183.667 29.8836 180.263 34.1768C177.996 31.4907 171.225 27.7333 167.005 27.144C166.743 23.31 152.267 16.5527 149.791 19.4684C144.322 25.9119 138.853 32.3555 133.384 38.7913C132.254 33.4115 126.067 23.4631 125.797 23.7156C122.528 26.8608 119.259 30.0061 115.989 33.1513C115.076 28.2077 109.151 19.5372 108.381 18.1215C108.351 18.0603 108.328 17.9914 108.298 17.9302C104.842 22.0244 101.385 26.1262 97.929 30.2204C96.2157 24.7028 90.7543 16.3461 90.657 16.4532C87.4549 19.7745 84.2603 23.0957 81.0583 26.4246C81.0957 26.3252 81.1406 26.2257 81.178 26.1262C82.4349 22.7284 73.3673 8.93066 73.4721 8.79291C65.1901 19.7745 56.4443 30.3045 47.2495 40.3908H46.6286C51.5738 32.6845 56.8333 25.1696 62.407 17.8384C64.9208 14.4865 54.9031 0.022958 54.918 0C35.3839 20.6545 17.2414 42.4876 0.467938 65.5451C-2.34509 69.4097 8.46562 82.6411 7.94192 83.3528C9.06414 81.807 10.2163 80.2841 11.3535 78.7459C12.8423 83.988 18.1616 93.8216 18.7826 93.286C25.0745 87.8143 31.1868 82.1666 37.1346 76.3583C38.9601 81.7075 43.3891 91.0973 44.0699 90.4009C50.5414 83.6819 57.0128 76.9552 63.4843 70.2361V70.4963C63.3646 70.8866 63.2374 71.2692 63.1252 71.6519C62.2499 74.6517 70.5693 89.2989 70.8311 88.9852C72.2376 87.3169 73.6516 85.6486 75.0581 83.9727C77.2352 88.4571 80.0034 92.7579 80.1829 92.5896C86.7666 86.2608 93.3428 79.9244 99.9265 73.5957C100.951 73.787 101.999 73.8941 103.069 73.8941C103.241 73.8941 103.405 73.8941 103.577 73.8788C99.9565 78.149 96.3279 82.4192 92.7069 86.6894C91.1807 88.4877 106.607 98.7653 109.847 94.9542C112.862 91.4034 115.877 87.8526 118.892 84.3017C119.857 87.7454 133.436 94.5104 136.099 91.6942C137.82 89.8729 139.518 88.0362 141.209 86.1843C144.09 90.2785 155.461 95.3369 157.691 92.5207C159.883 89.7581 162.075 86.9878 164.267 84.2252C165.532 88.0209 179.185 94.4798 181.4 91.4723C183.105 89.1535 184.819 86.8348 186.524 84.5237C190.078 88.3806 200.029 92.2375 202.415 89.98C208.019 84.6691 213.271 79.1056 218.179 73.2895C217.371 74.4068 216.563 75.5241 215.755 76.6414C214.528 78.3327 229.984 89.4979 231.638 87.2097C233.224 85.0134 234.81 82.8171 236.396 80.6285C239.194 84.4318 250.259 91.2656 251.651 89.5897C253.551 87.2863 255.436 84.9752 257.299 82.6411C257.209 83.0467 257.12 83.4446 257.03 83.8502C256.409 86.7582 271.521 96.347 272.913 94.4186C277.103 88.6331 281.3 82.8401 285.489 77.0547C289.155 80.9805 298.013 86.6741 299.771 85.0287C302.076 82.8707 304.313 80.6514 306.482 78.3862C306.295 79.4117 306.116 80.4448 305.944 81.4779C305.472 84.3553 319.964 94.0283 321.827 92.0462C324.094 89.6433 326.248 87.1791 328.291 84.6614C330.977 90.2478 338.817 96.4082 340.845 93.4237C342.483 91.0208 344.114 88.6255 345.752 86.2225C348.753 91.4417 355.643 97.426 357.925 94.3344C363.162 87.248 368.406 80.1693 373.643 73.0829H373.913C372.895 76.6797 371.885 80.2764 370.868 83.8655C369.648 88.1969 381.304 101.597 384.305 97.0893C387.828 91.7937 391.345 86.4904 394.861 81.1948C398.011 86.498 404.295 92.7962 406.472 89.276C407.407 87.7684 408.342 86.2532 409.278 84.7456C413.018 89.2224 418.861 92.7809 420.253 89.1688C427.764 69.6392 435.276 50.102 442.78 30.5724C444.545 25.9884 431.954 13.1396 429.343 17.3562H429.388ZM238.244 45.5333C237.473 46.5971 236.71 47.6608 235.94 48.7245C236.718 47.4542 237.488 46.1762 238.244 44.8829V45.5333ZM46.1049 41.5922C45.8206 41.906 45.5288 42.2197 45.2445 42.5335C45.5288 42.082 45.8206 41.6228 46.1049 41.1713V41.5999V41.5922ZM111.882 62.086H112.638C111.396 64.5808 108.964 66.5705 106.286 67.4659C108.149 65.6752 110.012 63.8768 111.882 62.086ZM117.807 56.3848C118.533 55.6884 119.259 54.9844 119.992 54.288C120.022 54.3339 120.052 54.3875 120.089 54.4334C119.535 55.0839 118.982 55.7343 118.428 56.3848H117.807ZM349.014 48.3572C349.224 47.7909 349.426 47.2246 349.628 46.6506C349.785 46.6965 349.935 46.7425 350.077 46.796C349.725 47.3164 349.366 47.8368 349.014 48.3572Z" fill="url(#paint0_linear_55_420)" fill-opacity="0.35"/>
<path d="M32.666 47.31V58.164H38.498V47.31H45.194V80.142H25.97V47.31H32.666ZM38.498 74.418V63.726H32.666V74.418H38.498ZM48.92 43.746H55.616V61.512H59.558V42.99H66.362V91.59H59.558V67.236H55.616V89.43H48.92V43.746ZM115.827 66.588V72.204H97.8453V80.466H90.5013V72.204H71.8173V66.588H115.827ZM76.2453 54.006C76.2453 51.954 76.9653 50.172 78.4053 48.66C79.8813 47.112 81.9513 45.924 84.6153 45.096C87.2793 44.268 90.3393 43.854 93.7953 43.854C97.2513 43.854 100.293 44.268 102.921 45.096C105.585 45.924 107.637 47.112 109.077 48.66C110.553 50.172 111.291 51.954 111.291 54.006C111.291 56.022 110.553 57.804 109.077 59.352C107.637 60.864 105.585 62.034 102.921 62.862C100.293 63.69 97.2513 64.104 93.7953 64.104C90.3393 64.104 87.2793 63.69 84.6153 62.862C81.9513 62.034 79.8813 60.864 78.4053 59.352C76.9653 57.804 76.2453 56.022 76.2453 54.006ZM76.8933 76.2H84.1833V85.002H111.021V90.78H76.8933V76.2ZM84.0213 54.006C84.0213 55.41 84.8853 56.49 86.6133 57.246C88.3413 58.002 90.7353 58.38 93.7953 58.38C96.8553 58.38 99.2493 58.002 100.977 57.246C102.705 56.49 103.569 55.41 103.569 54.006C103.569 52.566 102.705 51.468 100.977 50.712C99.2493 49.956 96.8553 49.578 93.7953 49.578C90.6993 49.578 88.2873 49.956 86.5593 50.712C84.8673 51.468 84.0213 52.566 84.0213 54.006ZM173.04 42.99V91.59H166.182V66.966H162.132V89.538H155.382V44.232H162.132V61.188H166.182V42.99H173.04ZM130.704 76.686C135.42 73.878 138.93 70.728 141.234 67.236C143.538 63.708 144.906 59.532 145.338 54.708H133.242V48.93H152.412C152.412 56.31 151.098 62.682 148.47 68.046C145.878 73.374 141.36 77.928 134.916 81.708L130.704 76.686ZM188.593 45.042V64.59C194.749 64.482 200.113 64.014 204.685 63.186L205.441 68.91C202.309 69.486 199.177 69.882 196.045 70.098C192.949 70.278 189.349 70.368 185.245 70.368H181.465V45.042H188.593ZM187.081 73.392H219.373V91.104H187.081V73.392ZM212.299 85.434V79.008H194.155V85.434H212.299ZM200.797 55.734H212.137V52.656H200.797V47.202H212.137V42.99H219.373V71.394H212.137V61.134H200.797V55.734ZM276.91 43.044V56.814H282.958V62.7H276.91V76.146H269.728V43.044H276.91ZM237.652 69.72C242.584 69.72 246.418 69.684 249.154 69.612V66.912C246.562 66.516 244.528 65.724 243.052 64.536C241.576 63.312 240.838 61.782 240.838 59.946C240.838 57.75 241.918 56.004 244.078 54.708C246.238 53.376 249.1 52.71 252.664 52.71C256.3 52.71 259.198 53.376 261.358 54.708C263.518 56.004 264.598 57.75 264.598 59.946C264.598 61.746 263.86 63.258 262.384 64.482C260.944 65.706 258.928 66.516 256.336 66.912V69.396C261.016 69.144 264.796 68.82 267.676 68.424L268.216 73.338C263.752 74.13 259.216 74.634 254.608 74.85C250.036 75.066 244.672 75.192 238.516 75.228L237.652 69.72ZM238.894 46.446H249.154V42.612H256.336V46.446H266.488V51.63H238.894V46.446ZM243.862 78.036H276.91V91.644H269.728V83.598H243.862V78.036ZM247.642 59.946C247.642 60.774 248.074 61.422 248.938 61.89C249.838 62.322 251.08 62.538 252.664 62.538C254.284 62.538 255.544 62.322 256.444 61.89C257.344 61.422 257.794 60.774 257.794 59.946C257.794 59.082 257.344 58.434 256.444 58.002C255.58 57.57 254.32 57.354 252.664 57.354C251.08 57.354 249.838 57.57 248.938 58.002C248.074 58.434 247.642 59.082 247.642 59.946ZM325.889 43.044V77.874H318.707V43.044H325.889ZM286.145 58.434C286.145 56.058 286.721 53.934 287.873 52.062C289.061 50.19 290.663 48.732 292.679 47.688C294.695 46.608 296.927 46.068 299.375 46.068C301.859 46.068 304.109 46.608 306.125 47.688C308.141 48.732 309.725 50.19 310.877 52.062C312.065 53.934 312.659 56.058 312.659 58.434C312.659 60.774 312.065 62.898 310.877 64.806C309.725 66.678 308.141 68.154 306.125 69.234C304.109 70.278 301.859 70.8 299.375 70.8C296.927 70.8 294.695 70.26 292.679 69.18C290.663 68.1 289.061 66.624 287.873 64.752C286.721 62.88 286.145 60.774 286.145 58.434ZM293.165 58.434C293.165 60.306 293.741 61.8 294.893 62.916C296.081 63.996 297.575 64.536 299.375 64.536C301.175 64.536 302.669 63.996 303.857 62.916C305.045 61.8 305.639 60.306 305.639 58.434C305.639 56.526 305.045 55.032 303.857 53.952C302.669 52.836 301.175 52.278 299.375 52.278C297.575 52.278 296.081 52.836 294.893 53.952C293.741 55.032 293.165 56.526 293.165 58.434ZM293.435 74.418H300.617V85.056H327.077V90.78H293.435V74.418ZM370.872 43.044V61.89H377.784V67.83H370.872V91.644H363.69V43.044H370.872ZM332.424 50.118H343.008V43.854H350.298V50.118H360.774V55.842H332.424V50.118ZM334.314 70.098C334.314 67.866 334.854 65.868 335.934 64.104C337.014 62.34 338.49 60.972 340.362 60C342.234 58.992 344.34 58.488 346.68 58.488C349.02 58.488 351.126 58.992 352.998 60C354.906 60.972 356.382 62.34 357.426 64.104C358.506 65.868 359.046 67.866 359.046 70.098C359.046 72.33 358.506 74.328 357.426 76.092C356.382 77.856 354.906 79.242 352.998 80.25C351.126 81.222 349.02 81.708 346.68 81.708C344.34 81.708 342.234 81.222 340.362 80.25C338.49 79.242 337.014 77.856 335.934 76.092C334.854 74.328 334.314 72.33 334.314 70.098ZM341.226 70.098C341.226 71.898 341.712 73.32 342.684 74.364C343.692 75.372 345.024 75.876 346.68 75.876C348.3 75.876 349.614 75.372 350.622 74.364C351.63 73.32 352.134 71.898 352.134 70.098C352.134 68.298 351.63 66.894 350.622 65.886C349.614 64.842 348.3 64.32 346.68 64.32C345.024 64.32 343.692 64.842 342.684 65.886C341.712 66.894 341.226 68.298 341.226 70.098ZM420.391 42.99V91.59H413.155V42.99H420.391ZM379.945 77.766C386.029 74.85 390.511 71.466 393.391 67.614C396.307 63.762 398.035 59.118 398.575 53.682H382.537V47.958H405.973C405.973 53.25 405.289 58.038 403.921 62.322C402.589 66.57 400.285 70.476 397.009 74.04C393.733 77.604 389.287 80.736 383.671 83.436L379.945 77.766Z" fill="#007067"/>
<defs>
<linearGradient id="paint0_linear_55_420" x1="256.746" y1="7" x2="257.536" y2="90.4925" gradientUnits="userSpaceOnUse">
<stop stop-color="#49C0B6" stop-opacity="0.2"/>
<stop offset="0.5" stop-color="#49C0B6"/>
<stop offset="1" stop-color="#49C0B6" stop-opacity="0.2"/>
</linearGradient>
</defs>
</svg>
