<svg width="480" height="267" viewBox="0 0 480 267" fill="none" xmlns="http://www.w3.org/2000/svg">
<g clip-path="url(#clip0_4637_22482)">
<path d="M14.8011 13.5719C9.81711 13.5719 5.76953 16.9882 5.76953 21.1945V258.936C5.76953 263.142 9.81711 266.558 14.8011 266.558H470.365C475.349 266.558 479.396 263.142 479.396 258.936V21.1945C479.396 16.9882 475.349 13.5719 470.365 13.5719H14.8011Z" fill="white"/>
<path d="M14.8011 13.5719C9.81711 13.5719 5.76953 16.9882 5.76953 21.1945V258.936C5.76953 263.142 9.81711 266.558 14.8011 266.558H470.365C475.349 266.558 479.396 263.142 479.396 258.936V21.1945C479.396 16.9882 475.349 13.5719 470.365 13.5719H14.8011Z" stroke="#FEF2DC" stroke-width="0.4" stroke-miterlimit="10"/>
<path d="M11.4179 11.155H467.948C472.66 11.155 476.496 14.1064 476.496 17.7318V257.518C476.496 261.144 472.66 264.095 467.948 264.095H11.4179C6.70576 264.095 2.86963 261.144 2.86963 257.518V17.7318C2.86963 14.1064 6.70576 11.155 11.4179 11.155Z" fill="white"/>
<path d="M11.4179 11.155H467.948C472.66 11.155 476.496 14.1064 476.496 17.7318V257.518C476.496 261.144 472.66 264.095 467.948 264.095H11.4179C6.70576 264.095 2.86963 261.144 2.86963 257.518V17.7318C2.86963 14.1064 6.70576 11.155 11.4179 11.155Z" stroke="#FEF2DC" stroke-width="0.4" stroke-miterlimit="10"/>
<path d="M8.57844 8.78458H465.018C469.73 8.78458 473.566 11.736 473.566 15.3614V255.008C473.566 258.634 469.73 261.585 465.018 261.585H8.57844C3.86634 261.585 0 258.634 0 254.985V15.3614C0 11.736 3.83613 8.76134 8.57844 8.76134V8.78458Z" fill="#FEF2DC"/>
<path d="M52.2256 49.4772C45.1272 49.4772 39.3881 45.0616 39.3881 39.6003V8.7381C39.3881 3.9275 34.3136 0 28.0308 0H426.082C432.365 0 437.44 3.90426 437.44 8.7381V39.6003C437.44 45.0616 431.701 49.4772 424.602 49.4772H52.2256Z" fill="#F6BEC8"/>
<path d="M39.3882 8.7381C39.3882 3.90426 34.3136 0 28.061 0C21.8084 0 16.7036 3.90426 16.7036 8.7381H39.4184H39.3882Z" fill="#64474D"/>
</g>
<defs>
<clipPath id="clip0_4637_22482">
<rect width="480" height="267" fill="white"/>
</clipPath>
</defs>
</svg>
