<svg width="480" height="315" viewBox="0 0 480 315" fill="none" xmlns="http://www.w3.org/2000/svg">
<g clip-path="url(#clip0_4637_22434)">
<path d="M14.8011 16.5205C9.81711 16.5205 5.76953 20.6788 5.76953 25.7989V315.184C5.76953 320.305 9.81711 324.463 14.8011 324.463H470.365C475.349 324.463 479.396 320.305 479.396 315.184V25.7989C479.396 20.6788 475.349 16.5205 470.365 16.5205H14.8011Z" fill="white"/>
<path d="M14.8011 16.5205C9.81711 16.5205 5.76953 20.6788 5.76953 25.7989V315.184C5.76953 320.305 9.81711 324.463 14.8011 324.463H470.365C475.349 324.463 479.396 320.305 479.396 315.184V25.7989C479.396 20.6788 475.349 16.5205 470.365 16.5205H14.8011Z" stroke="#FEF2DC" stroke-width="0.4" stroke-miterlimit="10"/>
<path d="M11.4179 13.5782H467.948C472.66 13.5782 476.496 17.1708 476.496 21.5837V313.459C476.496 317.871 472.66 321.464 467.948 321.464H11.4179C6.70576 321.464 2.86963 317.871 2.86963 313.459V21.5837C2.86963 17.1708 6.70576 13.5782 11.4179 13.5782Z" fill="white"/>
<path d="M11.4179 13.5782H467.948C472.66 13.5782 476.496 17.1708 476.496 21.5837V313.459C476.496 317.871 472.66 321.464 467.948 321.464H11.4179C6.70576 321.464 2.86963 317.871 2.86963 313.459V21.5837C2.86963 17.1708 6.70576 13.5782 11.4179 13.5782Z" stroke="#FEF2DC" stroke-width="0.4" stroke-miterlimit="10"/>
<path d="M8.5863 11.0279H465.444C470.16 11.0279 474 14.5768 474 18.936V307.092C474 311.451 470.16 315 465.444 315H8.5863C3.86988 315 0 311.451 0 307.064V18.936C0 14.5768 3.83965 11 8.5863 11V11.0279Z" fill="#FEF2DC"/>
<path d="M52.2256 60.225C45.1272 60.225 39.3881 54.8503 39.3881 48.2026V10.6363C39.3881 4.78066 34.3136 0 28.0308 0H426.082C432.365 0 437.44 4.75237 437.44 10.6363V48.2026C437.44 54.8503 431.701 60.225 424.602 60.225H52.2256Z" fill="#F6BEC8"/>
<path d="M39.3882 10.6363C39.3882 4.75237 34.3136 0 28.061 0C21.8084 0 16.7036 4.75237 16.7036 10.6363H39.4184H39.3882Z" fill="#64474D"/>
</g>
<defs>
<clipPath id="clip0_4637_22434">
<rect width="480" height="315" fill="white"/>
</clipPath>
</defs>
</svg>
