<svg width="66" height="145" viewBox="0 0 66 145" fill="none" xmlns="http://www.w3.org/2000/svg">
<path d="M1 143C0.447715 143 0 143.448 0 144C0 144.552 0.447715 145 1 145V143ZM65.7071 8.70711C66.0976 8.31658 66.0976 7.68342 65.7071 7.29289L59.3431 0.928932C58.9526 0.538408 58.3195 0.538408 57.9289 0.928932C57.5384 1.31946 57.5384 1.95262 57.9289 2.34315L63.5858 8L57.9289 13.6569C57.5384 14.0474 57.5384 14.6805 57.9289 15.0711C58.3195 15.4616 58.9526 15.4616 59.3431 15.0711L65.7071 8.70711ZM1 145H9V143H1V145ZM34 120V32H32V120H34ZM57 9H65V7H57V9ZM34 32C34 19.2975 44.2975 9 57 9V7C43.1929 7 32 18.1929 32 32H34ZM9 145C22.8071 145 34 133.807 34 120H32C32 132.703 21.7025 143 9 143V145Z" fill="#75C2FF"/>
</svg>
