<svg width="66" height="93" viewBox="0 0 66 93" fill="none" xmlns="http://www.w3.org/2000/svg">
<path d="M1 0C0.447715 0 0 0.447715 0 1C0 1.55228 0.447715 2 1 2V0ZM65.7071 86.2071C66.0976 85.8166 66.0976 85.1834 65.7071 84.7929L59.3431 78.4289C58.9526 78.0384 58.3195 78.0384 57.9289 78.4289C57.5384 78.8195 57.5384 79.4526 57.9289 79.8431L63.5858 85.5L57.9289 91.1569C57.5384 91.5474 57.5384 92.1805 57.9289 92.5711C58.3195 92.9616 58.9526 92.9616 59.3431 92.5711L65.7071 86.2071ZM1 2H9V0H1V2ZM32 25V61.5H34V25H32ZM57 86.5H65V84.5H57V86.5ZM32 61.5C32 75.3071 43.1929 86.5 57 86.5V84.5C44.2975 84.5 34 74.2026 34 61.5H32ZM9 2C21.7025 2 32 12.2975 32 25H34C34 11.1929 22.8071 0 9 0V2Z" fill="#75C2FF"/>
</svg>
