<svg width="23" height="13" viewBox="0 0 23 13" fill="none" xmlns="http://www.w3.org/2000/svg">
<path d="M7.27934 0.238708C7.13871 0.0982575 6.94809 0.0193681 6.74934 0.0193681C6.55059 0.0193681 6.35997 0.0982575 6.21934 0.238708L0.96934 5.48871C0.82889 5.62933 0.75 5.81996 0.75 6.01871C0.75 6.21746 0.82889 6.40808 0.96934 6.54871L6.21934 11.7987C6.36152 11.9312 6.54956 12.0033 6.74386 11.9999C6.93816 11.9965 7.12355 11.9177 7.26096 11.7803C7.39838 11.6429 7.47709 11.4575 7.48052 11.2632C7.48394 11.0689 7.41182 10.8809 7.27934 10.7387L3.30934 6.76871H19.6893L15.7193 10.7387C15.6457 10.8074 15.5866 10.8902 15.5456 10.9822C15.5046 11.0742 15.4825 11.1735 15.4807 11.2742C15.479 11.3749 15.4975 11.4749 15.5352 11.5683C15.5729 11.6617 15.6291 11.7465 15.7003 11.8177C15.7715 11.889 15.8564 11.9451 15.9497 11.9828C16.0431 12.0206 16.1432 12.0391 16.2439 12.0373C16.3446 12.0355 16.4439 12.0135 16.5359 11.9725C16.6279 11.9315 16.7107 11.8724 16.7793 11.7987L22.0293 6.54871C22.1698 6.40808 22.2487 6.21746 22.2487 6.01871C22.2487 5.81996 22.1698 5.62933 22.0293 5.48871L16.7793 0.238708C16.7107 0.165021 16.6279 0.105919 16.5359 0.064927C16.4439 0.023935 16.3446 0.00189351 16.2439 0.000116722C16.1432 -0.00166006 16.0431 0.0168643 15.9497 0.0545854C15.8564 0.0923064 15.7715 0.148451 15.7003 0.21967C15.6291 0.290888 15.5729 0.375722 15.5352 0.46911C15.4975 0.562499 15.479 0.662528 15.4807 0.763231C15.4825 0.863934 15.5046 0.963247 15.5456 1.05525C15.5866 1.14725 15.6457 1.23005 15.7193 1.29871L19.6893 5.26871H3.30934L7.27934 1.29871C7.41979 1.15808 7.49868 0.967459 7.49868 0.768708C7.49868 0.569957 7.41979 0.379333 7.27934 0.238708Z" fill="#232426"/>
</svg>
