<svg width="49" height="48" viewBox="0 0 49 48" fill="none" xmlns="http://www.w3.org/2000/svg">
<path d="M24.4999 30C18.1598 30 12.5215 33.0613 8.93193 37.8119C8.15935 38.8344 7.77307 39.3456 7.7857 40.0366C7.79546 40.5704 8.13067 41.2438 8.55068 41.5734C9.09432 42 9.84768 42 11.3544 42H37.6455C39.1522 42 39.9056 42 40.4492 41.5734C40.8692 41.2438 41.2044 40.5704 41.2142 40.0366C41.2268 39.3456 40.8405 38.8344 40.068 37.8119C36.4784 33.0613 30.8401 30 24.4999 30Z" fill="#058943"/>
<path d="M24.4999 24C29.4705 24 33.4999 19.9706 33.4999 15C33.4999 10.0294 29.4705 6 24.4999 6C19.5294 6 15.4999 10.0294 15.4999 15C15.4999 19.9706 19.5294 24 24.4999 24Z" fill="#058943"/>
<path d="M24.4999 30C18.1598 30 12.5215 33.0613 8.93193 37.8119C8.15935 38.8344 7.77307 39.3456 7.7857 40.0366C7.79546 40.5704 8.13067 41.2438 8.55068 41.5734C9.09432 42 9.84768 42 11.3544 42H37.6455C39.1522 42 39.9056 42 40.4492 41.5734C40.8692 41.2438 41.2044 40.5704 41.2142 40.0366C41.2268 39.3456 40.8405 38.8344 40.068 37.8119C36.4784 33.0613 30.8401 30 24.4999 30Z" stroke="#058943" stroke-width="2" stroke-linecap="round" stroke-linejoin="round"/>
<path d="M24.4999 24C29.4705 24 33.4999 19.9706 33.4999 15C33.4999 10.0294 29.4705 6 24.4999 6C19.5294 6 15.4999 10.0294 15.4999 15C15.4999 19.9706 19.5294 24 24.4999 24Z" stroke="#058943" stroke-width="2" stroke-linecap="round" stroke-linejoin="round"/>
</svg>
