<svg width="32" height="32" viewBox="0 0 32 32" fill="none" xmlns="http://www.w3.org/2000/svg">
<path d="M2.0016 12.5686C2.0016 11.8725 2.0016 11.1765 2.0016 10.4805C2.07611 10.0556 2.1442 9.62893 2.22592 9.20594C2.53195 7.61859 3.1448 6.20061 4.06449 4.977C4.82636 3.9635 5.72923 3.14437 6.81875 2.63438C7.63109 2.25397 8.46826 1.99573 9.3527 2.00499C9.68597 2.00869 10.0184 2.04664 10.3517 2.06515C11.2345 2.11513 12.0541 2.4363 12.8288 2.89446C13.9191 3.53774 14.8436 4.41981 15.5478 5.59158C15.6968 5.83964 15.8578 6.07936 16.022 6.33574C16.4498 5.51106 16.9602 4.82891 17.5354 4.20045C18.29 3.37669 19.1689 2.7982 20.1358 2.41131C21.11 2.02165 22.117 1.92539 23.1512 2.05312C24.0181 2.16048 24.8376 2.41872 25.6075 2.86947C26.5248 3.4063 27.3227 4.12085 27.9932 5.03624C28.6862 5.98125 29.1965 7.03455 29.5458 8.19707C29.9047 9.39198 30.0353 10.6202 29.992 11.8864C29.9608 12.8129 29.811 13.7033 29.5522 14.5733C29.2614 15.5526 28.8616 16.468 28.405 17.3612C27.6568 18.8245 26.7483 20.1416 25.7317 21.3513C24.8168 22.4398 23.8354 23.4542 22.8676 24.4816C22.419 24.9583 21.9472 25.409 21.4633 25.8376C20.7302 26.4864 19.9924 27.1297 19.2305 27.7322C18.3036 28.4653 17.3535 29.1585 16.4074 29.8583C16.1558 30.0443 15.8586 30.0415 15.6119 29.8832C15.1096 29.5611 14.6209 29.2076 14.1434 28.8383C12.6669 27.6989 11.2009 26.5401 9.8478 25.2054C9.04748 24.4159 8.22953 23.6486 7.46366 22.8156C6.82356 22.1195 6.21631 21.3763 5.65392 20.597C4.97457 19.6547 4.31685 18.6838 3.72562 17.6657C3.01983 16.4504 2.49429 15.1222 2.2163 13.6802C2.145 13.309 2.0721 12.9388 2 12.5676L2.0016 12.5686Z" fill="#FF623C"/>
</svg>
