<svg width="28" height="28" viewBox="0 0 28 28" fill="none" xmlns="http://www.w3.org/2000/svg">
<path d="M15.4784 1.12243L17.7177 8.32716C17.926 8.99639 18.5225 9.45016 19.1961 9.45016H26.4423C27.9483 9.45016 28.5746 11.4647 27.3562 12.3898L21.4938 16.8429C20.949 17.2571 20.7211 17.9903 20.9294 18.6603L23.1688 25.865C23.6341 27.3626 21.9948 28.6075 20.7764 27.6824L14.914 23.2292C14.3692 22.815 13.6315 22.815 13.0868 23.2292L7.2243 27.6824C6.00593 28.6075 4.36662 27.3626 4.83198 25.865L7.07136 18.6603C7.27965 17.9911 7.0517 17.2571 6.50697 16.8429L0.643771 12.3905C-0.574602 11.4655 0.0516984 9.45092 1.55773 9.45092H8.80389C9.47752 9.45092 10.074 8.99792 10.2822 8.32792L12.5216 1.12319C12.987 -0.374398 15.013 -0.374398 15.4784 1.12319V1.12243Z" fill="#FFB400"/>
</svg>
