<svg width="32" height="32" viewBox="0 0 32 32" fill="none" xmlns="http://www.w3.org/2000/svg">
<path d="M30 10.4V2.93333C30 2.6858 29.9017 2.4484 29.7266 2.27337C29.5516 2.09833 29.3142 2 29.0667 2L21.6 2C21.4152 1.99967 21.2344 2.05423 21.0806 2.15676C20.9268 2.2593 20.8069 2.40519 20.7361 2.57594C20.6654 2.74669 20.6469 2.93461 20.683 3.11588C20.7192 3.29715 20.8083 3.4636 20.9392 3.59413L23.5 6L1.5 27.5L4 30.5L26 8.5L28.4059 11.0608C28.5364 11.1917 28.7029 11.2808 28.8841 11.317C29.0654 11.3531 29.2533 11.3346 29.4241 11.2639C29.5948 11.1931 29.7407 11.0732 29.8432 10.9194C29.9458 10.7656 30.0003 10.5848 30 10.4Z" fill="#EB6707"/>
</svg>
