<svg width="32" height="32" viewBox="0 0 32 32" fill="none" xmlns="http://www.w3.org/2000/svg">
<path d="M21.6 30H29.0667C29.3142 30 29.5516 29.9017 29.7266 29.7266C29.9017 29.5516 30 29.3142 30 29.0667V21.6C30.0003 21.4152 29.9458 21.2344 29.8432 21.0806C29.7407 20.9268 29.5948 20.8069 29.4241 20.7361C29.2533 20.6654 29.0654 20.6469 28.8841 20.683C28.7029 20.7192 28.5364 20.8083 28.4059 20.9392L26 23.5L4.5 1.5L1.5 4L23.5 26L20.9392 28.4059C20.8083 28.5364 20.7192 28.7029 20.683 28.8841C20.6469 29.0654 20.6654 29.2533 20.7361 29.4241C20.8069 29.5948 20.9268 29.7407 21.0806 29.8432C21.2344 29.9458 21.4152 30.0003 21.6 30Z" fill="#EB6707"/>
</svg>
