<svg width="32" height="32" viewBox="0 0 32 32" fill="none" xmlns="http://www.w3.org/2000/svg">
<path d="M16 0C12.8355 0 9.74207 0.938384 7.11088 2.69649C4.4797 4.45459 2.42894 6.95345 1.21793 9.87706C0.0069325 12.8007 -0.309921 16.0177 0.307443 19.1214C0.924806 22.2251 2.44866 25.0761 4.6863 27.3137C6.92394 29.5513 9.77487 31.0752 12.8786 31.6926C15.9823 32.3099 19.1993 31.9931 22.1229 30.7821C25.0466 29.5711 27.5454 27.5203 29.3035 24.8891C31.0616 22.2579 32 19.1645 32 16C31.9947 11.7582 30.3073 7.69157 27.3079 4.69214C24.3084 1.6927 20.2418 0.00529238 16 0ZM21.6062 17.0246L14.2215 21.9477C14.019 22.0819 13.7815 22.1536 13.5385 22.1538C13.212 22.1538 12.899 22.0242 12.6682 21.7934C12.4374 21.5625 12.3077 21.2495 12.3077 20.9231V11.0769C12.3076 10.854 12.3679 10.6353 12.4824 10.4441C12.5968 10.2528 12.7611 10.0963 12.9576 9.99107C13.154 9.88587 13.3754 9.83601 13.598 9.84679C13.8206 9.85758 14.0361 9.92861 14.2215 10.0523L21.6062 14.9754C21.775 15.0877 21.9134 15.2401 22.0092 15.4188C22.1049 15.5976 22.155 15.7972 22.155 16C22.155 16.2028 22.1049 16.4024 22.0092 16.5812C21.9134 16.7599 21.775 16.9123 21.6062 17.0246Z" fill="#FF3914"/>
</svg>
