<svg width="109" height="46" viewBox="0 0 109 46" fill="none" xmlns="http://www.w3.org/2000/svg">
<path d="M91.08 45.46L0.390625 45.5C0.390625 45.5 9.36696 32.5222 13.0008 26.5222C23.3106 9.5 23.3106 9.5 23.3106 9.5H91.08C101 9.5 109 17.52 109 27.48C109 37.44 100.96 45.5 91.08 45.5" fill="#259CD3"/>
<path d="M39.56 24.016H43.63V17.658H46.028V37.304H43.63V25.974H39.56V24.016ZM29.55 31.32C32.696 29.824 34.478 26.04 34.478 22.366V19.264H36.898V22.366C36.898 25.996 38.592 29.582 41.694 30.99L40.264 32.926C38.086 31.848 36.546 29.78 35.688 27.25C34.83 29.934 33.246 32.134 31.046 33.256L29.55 31.32ZM56.5665 17.79H59.0525V18.318C59.0525 20.386 61.6925 22.322 65.7405 22.74L64.9485 24.566C61.6705 24.17 59.0745 22.872 57.8205 20.98C56.5665 22.872 53.9705 24.17 50.6705 24.566L49.8785 22.74C53.9485 22.322 56.5665 20.386 56.5665 18.318V17.79ZM48.9765 27.47V25.534H66.6645V27.47H59.0085V28.988H64.4645V33.828H53.4425V35.28H65.0145V37.106H51.0885V32.134H62.0885V30.792H51.0225V28.988H56.5885V27.47H48.9765ZM79.227 22.146H82.021V17.68H84.441V30.242H82.021V27.954H79.183V26.018H82.021V24.06H79.227V22.146ZM68.227 21.508V19.616H72.539V17.526H74.981V19.616H79.073V21.508H68.227ZM69.217 25.952C69.217 23.796 71.087 22.322 73.727 22.322C76.411 22.322 78.259 23.796 78.259 25.952C78.259 28.152 76.411 29.626 73.727 29.626C71.087 29.626 69.217 28.152 69.217 25.952ZM71.285 33.85C71.285 31.716 73.815 30.462 77.907 30.462C81.999 30.462 84.551 31.716 84.551 33.85C84.551 36.006 81.999 37.26 77.907 37.26C73.815 37.26 71.285 36.006 71.285 33.85ZM71.483 25.952C71.483 27.118 72.385 27.8 73.727 27.8C75.091 27.8 76.015 27.118 76.015 25.952C76.015 24.808 75.091 24.148 73.727 24.148C72.385 24.148 71.483 24.808 71.483 25.952ZM73.815 33.85C73.815 34.884 75.311 35.412 77.907 35.412C80.503 35.412 81.999 34.884 81.999 33.85C81.999 32.816 80.503 32.31 77.907 32.31C75.311 32.31 73.815 32.816 73.815 33.85Z" fill="white"/>
<path d="M0.861328 44.4875L2.76929 27.9778L17.8773 2.55127L28.702 8.62561L14.1392 34.792L0.861328 44.4875Z" fill="white"/>
<path d="M23.6754 15.9461L14.3692 10.5727L15.4594 8.70366L17.017 6.01693L17.7568 4.77091C18.1462 4.10897 19.0028 3.87534 19.6647 4.26472L26.5178 8.2364C27.1798 8.62578 27.4134 9.48242 27.063 10.1444L26.3621 11.3904L24.8046 14.0771L23.7143 15.9461H23.6754ZM21.3391 19.9568L12.0329 14.5833L13.4347 12.1691L22.7409 17.5426L21.3391 19.9568ZM13.7462 33.1178C13.3957 32.7674 12.9674 32.4559 12.5391 32.1833C11.6435 31.6382 10.6311 31.4045 9.65767 31.3656L15.3426 21.4753L16.5886 19.3337L20.4046 21.5532L13.7462 33.1178ZM4.43997 27.7444L11.0984 16.1798L14.9143 18.3992L12.4612 22.6435L7.94439 30.4311C7.4382 29.5745 6.69838 28.8346 5.8028 28.3284C5.37448 28.0559 4.90723 27.8612 4.40103 27.7444M6.19218 39.3868L2.72669 37.401L3.70015 29.5355C4.08953 29.6134 4.47891 29.7691 4.86829 30.0028C5.95855 30.6258 6.69838 31.6771 6.77625 32.8453C6.77625 33.1568 6.97094 33.4293 7.24351 33.5851C7.51608 33.7408 7.82758 33.7408 8.10015 33.624C9.15147 33.1568 10.4364 33.2346 11.5267 33.8576C11.8771 34.0523 12.2276 34.3249 12.5001 34.6364L6.19218 39.4258V39.3868ZM21.1833 23.9674L26.3621 15.0116L27.9196 12.3249L29.3214 9.8718L29.555 9.44348C29.9444 8.78153 29.7108 7.9249 29.0099 7.53551L28.5816 7.30189L19.3532 1.92843L18.9249 1.69481C18.263 1.30543 17.4063 1.53905 17.017 2.201L16.7833 2.62932L15.3816 5.08242L13.824 7.76914L2.14262 28.0169C2.10369 28.1337 2.06475 28.2116 2.06475 28.3284L0.896606 37.7125H0.857668L0.00103081 44.4488C-0.0379072 44.8382 0.156783 45.1886 0.468287 45.3833C0.468287 45.3833 0.546164 45.3833 0.546164 45.4222C0.740854 45.5001 0.974482 45.5391 1.16917 45.4612C1.28599 45.4612 1.4028 45.3833 1.48068 45.3054L6.85413 41.2169L14.4081 35.493C14.486 35.4152 14.5639 35.3373 14.6417 35.2594L21.1444 23.9674H21.1833Z" fill="#005BA0"/>
</svg>
