<svg width="44" height="44" viewBox="0 0 44 44" fill="none" xmlns="http://www.w3.org/2000/svg">
<circle cx="22" cy="22" r="21.25" fill="white" stroke="#EFF0F2" stroke-width="1.5"/>
<path d="M17.9577 15.66H19.4977V18.474H21.2197V19.734H19.4977V22.646H17.9577V15.66ZM10.2577 22.072V16.444H15.7737V17.676H11.7977V20.826C14.1217 20.812 15.4097 20.714 16.8517 20.434L17.0057 21.652C15.4097 21.988 13.9817 22.072 11.2657 22.072H10.2577ZM11.5317 27.98V23.276H19.5817V24.522H13.0577V26.748H19.8197V27.98H11.5317ZM30.74 15.66H32.28V28.12H30.74V15.66ZM22.046 24.718C25.28 23.164 26.75 21.05 27.016 18.208H22.662V16.962H28.598C28.598 20.7 27.184 23.836 22.844 25.936L22.046 24.718Z" fill="#8D9299"/>
</svg>
