<svg width="52" height="52" viewBox="0 0 52 52" fill="none" xmlns="http://www.w3.org/2000/svg">
<rect x="0.75" y="0.75" width="50.5" height="50.5" rx="25.25" fill="white"/>
<rect x="0.75" y="0.75" width="50.5" height="50.5" rx="25.25" stroke="#D0D3D9" stroke-width="1.5"/>
<path fill-rule="evenodd" clip-rule="evenodd" d="M22.1737 17.7613C23.387 17.2587 24.6875 17 26.0008 17C27.3141 17 28.6146 17.2587 29.828 17.7613C31.0413 18.2639 32.1438 19.0005 33.0725 19.9292C34.0011 20.8578 34.7378 21.9603 35.2404 23.1737C35.743 24.387 36.0016 25.6875 36.0016 27.0008V32.3971C36.0016 33.0049 35.7602 33.5879 35.3304 34.0177C34.9006 34.4475 34.3176 34.6889 33.7098 34.6889H32.168C31.5602 34.6889 30.9773 34.4475 30.5475 34.0177C30.1177 33.5879 29.8762 33.0049 29.8762 32.3971V28.5426C29.8762 27.9348 30.1177 27.3519 30.5475 26.9221C30.9773 26.4923 31.5602 26.2508 32.168 26.2508H34.4685C34.3924 25.3915 34.1858 24.5474 33.8545 23.7477C33.4273 22.7163 32.8012 21.7792 32.0118 20.9898C31.2224 20.2005 30.2853 19.5743 29.2539 19.1471C28.2226 18.7199 27.1172 18.5 26.0008 18.5C24.8845 18.5 23.7791 18.7199 22.7477 19.1471C21.7163 19.5743 20.7792 20.2005 19.9898 20.9898C19.2005 21.7792 18.5743 22.7163 18.1471 23.7477C17.8159 24.5474 17.6093 25.3915 17.5331 26.2508H19.8336C20.4414 26.2508 21.0244 26.4923 21.4542 26.9221C21.8839 27.3519 22.1254 27.9348 22.1254 28.5426V32.3971C22.1254 33.0049 21.8839 33.5879 21.4542 34.0177C21.0244 34.4475 20.4414 34.6889 19.8336 34.6889H18.2918C17.684 34.6889 17.101 34.4475 16.6713 34.0177C16.2415 33.5879 16 33.0049 16 32.3971V27.0008C16 25.6875 16.2587 24.387 16.7613 23.1737C17.2639 21.9603 18.0005 20.8578 18.9292 19.9292C19.8578 19.0005 20.9603 18.2639 22.1737 17.7613Z" fill="#6A6D73"/>
</svg>
