<svg width="24" height="24" viewBox="0 0 24 24" fill="none" xmlns="http://www.w3.org/2000/svg">
<path fill-rule="evenodd" clip-rule="evenodd" d="M3.0201 4.8201C3.5452 4.295 4.25739 4 5 4H19C19.7426 4 20.4548 4.295 20.9799 4.8201C21.505 5.3452 21.8 6.05739 21.8 6.8V17.2C21.8 17.9426 21.505 18.6548 20.9799 19.1799C20.4548 19.705 19.7426 20 19 20H5C4.25739 20 3.5452 19.705 3.0201 19.1799C2.495 18.6548 2.2 17.9426 2.2 17.2V6.8C2.2 6.05739 2.495 5.3452 3.0201 4.8201ZM17.8 12C17.8 12.4418 17.4418 12.8 17 12.8L12 12.8C11.5582 12.8 11.2 12.4418 11.2 12C11.2 11.5582 11.5582 11.2 12 11.2H17C17.4418 11.2 17.8 11.5582 17.8 12ZM10.3 12C10.3 12.4418 9.94183 12.8 9.5 12.8H7C6.55817 12.8 6.2 12.4418 6.2 12C6.2 11.5582 6.55817 11.2 7 11.2H9.5C9.94183 11.2 10.3 11.5582 10.3 12ZM6.2 15.2C6.2 14.7582 6.55817 14.4 7 14.4H12C12.4418 14.4 12.8 14.7582 12.8 15.2C12.8 15.6418 12.4418 16 12 16H7C6.55817 16 6.2 15.6418 6.2 15.2ZM13.7 15.2C13.7 14.7582 14.0582 14.4 14.5 14.4H17C17.4418 14.4 17.8 14.7582 17.8 15.2C17.8 15.6418 17.4418 16 17 16H14.5C14.0582 16 13.7 15.6418 13.7 15.2Z" fill="#1E6EFA"/>
</svg>
