<svg width="24" height="24" viewBox="0 0 24 24" fill="none" xmlns="http://www.w3.org/2000/svg">
<path d="M7 15.1998H12M17 15.1998H14.5M3 6.7998C3 6.26937 3.21071 5.76066 3.58579 5.38559C3.96086 5.01052 4.46957 4.7998 5 4.7998H19C19.5304 4.7998 20.0391 5.01052 20.4142 5.38559C20.7893 5.76066 21 6.26937 21 6.7998V17.1998C21 17.7302 20.7893 18.2389 20.4142 18.614C20.0391 18.9891 19.5304 19.1998 19 19.1998H5C4.46957 19.1998 3.96086 18.9891 3.58579 18.614C3.21071 18.2389 3 17.7302 3 17.1998V6.7998Z" stroke="#47494D" stroke-width="1.6" stroke-linecap="round" stroke-linejoin="round"/>
<path d="M17 12L12 12M7 12L9.5 12" stroke="#47494D" stroke-width="1.6" stroke-linecap="round" stroke-linejoin="round"/>
</svg>
