<svg width="32" height="32" viewBox="0 0 32 32" fill="none" xmlns="http://www.w3.org/2000/svg">
<rect x="0.75" y="0.75" width="30.5" height="30.5" rx="15.25" fill="white"/>
<rect x="0.75" y="0.75" width="30.5" height="30.5" rx="15.25" stroke="#1E78FF" stroke-width="1.5"/>
<g clip-path="url(#clip0_1604_34275)">
<path d="M13.7144 9.33301H12.1906C11.7864 9.33301 11.3988 9.5086 11.1131 9.82116C10.8273 10.1337 10.6667 10.5576 10.6667 10.9997V20.9997C10.6667 21.4417 10.8273 21.8656 11.1131 22.1782C11.3988 22.4907 11.7864 22.6663 12.1906 22.6663H13.7144C14.1185 22.6663 14.5061 22.4907 14.7919 22.1782C15.0776 21.8656 15.2382 21.4417 15.2382 20.9997V10.9997C15.2382 10.5576 15.0776 10.1337 14.7919 9.82116C14.5061 9.5086 14.1185 9.33301 13.7144 9.33301Z" fill="#1E78FF"/>
<path d="M19.8096 9.33301H18.2858C17.8817 9.33301 17.4941 9.5086 17.2083 9.82116C16.9225 10.1337 16.762 10.5576 16.762 10.9997V20.9997C16.762 21.4417 16.9225 21.8656 17.2083 22.1782C17.4941 22.4907 17.8817 22.6663 18.2858 22.6663H19.8096C20.2137 22.6663 20.6013 22.4907 20.8871 22.1782C21.1729 21.8656 21.3334 21.4417 21.3334 20.9997V10.9997C21.3334 10.5576 21.1729 10.1337 20.8871 9.82116C20.6013 9.5086 20.2137 9.33301 19.8096 9.33301Z" fill="#1E78FF"/>
</g>
<defs>
<clipPath id="clip0_1604_34275">
<rect width="13.3333" height="13.3333" fill="white" transform="translate(9.33337 9.33301)"/>
</clipPath>
</defs>
</svg>
